%TF.GenerationSoftware,KiCad,Pcbnew,9.0.2*%
%TF.CreationDate,2025-06-04T14:00:07+08:00*%
%TF.ProjectId,tsubaki_lite,74737562-616b-4695-9f6c-6974652e6b69,4*%
%TF.SameCoordinates,Original*%
%TF.FileFunction,Paste,Top*%
%TF.FilePolarity,Positive*%
%FSLAX46Y46*%
G04 Gerber Fmt 4.6, Leading zero omitted, Abs format (unit mm)*
G04 Created by KiCad (PCBNEW 9.0.2) date 2025-06-04 14:00:07*
%MOMM*%
%LPD*%
G01*
G04 APERTURE LIST*
G04 Aperture macros list*
%AMRoundRect*
0 Rectangle with rounded corners*
0 $1 Rounding radius*
0 $2 $3 $4 $5 $6 $7 $8 $9 X,Y pos of 4 corners*
0 Add a 4 corners polygon primitive as box body*
4,1,4,$2,$3,$4,$5,$6,$7,$8,$9,$2,$3,0*
0 Add four circle primitives for the rounded corners*
1,1,$1+$1,$2,$3*
1,1,$1+$1,$4,$5*
1,1,$1+$1,$6,$7*
1,1,$1+$1,$8,$9*
0 Add four rect primitives between the rounded corners*
20,1,$1+$1,$2,$3,$4,$5,0*
20,1,$1+$1,$4,$5,$6,$7,0*
20,1,$1+$1,$6,$7,$8,$9,0*
20,1,$1+$1,$8,$9,$2,$3,0*%
G04 Aperture macros list end*
%ADD10RoundRect,0.243750X-0.243750X-0.456250X0.243750X-0.456250X0.243750X0.456250X-0.243750X0.456250X0*%
%ADD11RoundRect,0.250000X0.375000X0.625000X-0.375000X0.625000X-0.375000X-0.625000X0.375000X-0.625000X0*%
%ADD12RoundRect,0.250000X-0.262500X-0.450000X0.262500X-0.450000X0.262500X0.450000X-0.262500X0.450000X0*%
%ADD13RoundRect,0.135000X0.135000X0.185000X-0.135000X0.185000X-0.135000X-0.185000X0.135000X-0.185000X0*%
%ADD14RoundRect,0.250000X0.262500X0.450000X-0.262500X0.450000X-0.262500X-0.450000X0.262500X-0.450000X0*%
%ADD15R,0.900000X1.700000*%
%ADD16RoundRect,0.225000X-0.225000X-0.375000X0.225000X-0.375000X0.225000X0.375000X-0.225000X0.375000X0*%
%ADD17R,0.600000X1.450000*%
%ADD18R,0.300000X1.450000*%
%ADD19RoundRect,0.135000X-0.135000X-0.185000X0.135000X-0.185000X0.135000X0.185000X-0.135000X0.185000X0*%
G04 APERTURE END LIST*
D10*
%TO.C,L_1_2*%
X128912500Y-107000000D03*
X130787500Y-107000000D03*
%TD*%
D11*
%TO.C,D1*%
X193900000Y-93750000D03*
X191100000Y-93750000D03*
%TD*%
D12*
%TO.C,R5*%
X176425000Y-93000000D03*
X178250000Y-93000000D03*
%TD*%
D13*
%TO.C,R_1_2*%
X139750000Y-107000000D03*
X138730000Y-107000000D03*
%TD*%
D12*
%TO.C,R16*%
X172837500Y-93000000D03*
X174662500Y-93000000D03*
%TD*%
D14*
%TO.C,R3*%
X178500000Y-98750000D03*
X176675000Y-98750000D03*
%TD*%
D12*
%TO.C,R2*%
X176675000Y-96750000D03*
X178500000Y-96750000D03*
%TD*%
D15*
%TO.C,SW2*%
X176700000Y-90000000D03*
X173300000Y-90000000D03*
%TD*%
D12*
%TO.C,R1*%
X169337500Y-93000000D03*
X171162500Y-93000000D03*
%TD*%
D13*
%TO.C,R_1_1*%
X120520000Y-107000000D03*
X119500000Y-107000000D03*
%TD*%
D10*
%TO.C,L_1_3*%
X148412500Y-107000000D03*
X150287500Y-107000000D03*
%TD*%
%TO.C,L_1_1*%
X109412500Y-107000000D03*
X111287500Y-107000000D03*
%TD*%
D15*
%TO.C,SW1*%
X168300000Y-90000000D03*
X171700000Y-90000000D03*
%TD*%
D13*
%TO.C,R_1_3*%
X158010000Y-107000000D03*
X156990000Y-107000000D03*
%TD*%
D16*
%TO.C,D_1_5*%
X181100000Y-112500000D03*
X184400000Y-112500000D03*
%TD*%
%TO.C,D_1_6*%
X186100000Y-112500000D03*
X189400000Y-112500000D03*
%TD*%
D17*
%TO.C,J1*%
X188000000Y-93945000D03*
X187200000Y-93945000D03*
D18*
X186000000Y-93945000D03*
X185000000Y-93945000D03*
X184500000Y-93945000D03*
X183500000Y-93945000D03*
D17*
X182300000Y-93945000D03*
X181500000Y-93945000D03*
X181500000Y-93945000D03*
X182300000Y-93945000D03*
D18*
X183000000Y-93945000D03*
X184000000Y-93945000D03*
X185500000Y-93945000D03*
X186500000Y-93945000D03*
D17*
X187200000Y-93945000D03*
X188000000Y-93945000D03*
%TD*%
D10*
%TO.C,L_1_4*%
X167912500Y-107000000D03*
X169787500Y-107000000D03*
%TD*%
D19*
%TO.C,R_1_4*%
X160240000Y-107000000D03*
X161260000Y-107000000D03*
%TD*%
M02*
