%TF.GenerationSoftware,KiCad,Pcbnew,9.0.2*%
%TF.CreationDate,2025-05-22T15:05:22+08:00*%
%TF.ProjectId,tsubaki_lite,74737562-616b-4695-9f6c-6974652e6b69,2025.4*%
%TF.SameCoordinates,Original*%
%TF.FileFunction,Paste,Top*%
%TF.FilePolarity,Positive*%
%FSLAX46Y46*%
G04 Gerber Fmt 4.6, Leading zero omitted, Abs format (unit mm)*
G04 Created by KiCad (PCBNEW 9.0.2) date 2025-05-22 15:05:22*
%MOMM*%
%LPD*%
G01*
G04 APERTURE LIST*
G04 Aperture macros list*
%AMRoundRect*
0 Rectangle with rounded corners*
0 $1 Rounding radius*
0 $2 $3 $4 $5 $6 $7 $8 $9 X,Y pos of 4 corners*
0 Add a 4 corners polygon primitive as box body*
4,1,4,$2,$3,$4,$5,$6,$7,$8,$9,$2,$3,0*
0 Add four circle primitives for the rounded corners*
1,1,$1+$1,$2,$3*
1,1,$1+$1,$4,$5*
1,1,$1+$1,$6,$7*
1,1,$1+$1,$8,$9*
0 Add four rect primitives between the rounded corners*
20,1,$1+$1,$2,$3,$4,$5,0*
20,1,$1+$1,$4,$5,$6,$7,0*
20,1,$1+$1,$6,$7,$8,$9,0*
20,1,$1+$1,$8,$9,$2,$3,0*%
G04 Aperture macros list end*
%ADD10R,0.600000X1.450000*%
%ADD11R,0.300000X1.450000*%
%ADD12RoundRect,0.135000X-0.185000X0.135000X-0.185000X-0.135000X0.185000X-0.135000X0.185000X0.135000X0*%
%ADD13RoundRect,0.135000X0.185000X-0.135000X0.185000X0.135000X-0.185000X0.135000X-0.185000X-0.135000X0*%
%ADD14RoundRect,0.100000X-0.637500X-0.100000X0.637500X-0.100000X0.637500X0.100000X-0.637500X0.100000X0*%
%ADD15RoundRect,0.250000X0.325000X0.450000X-0.325000X0.450000X-0.325000X-0.450000X0.325000X-0.450000X0*%
%ADD16RoundRect,0.135000X0.135000X0.185000X-0.135000X0.185000X-0.135000X-0.185000X0.135000X-0.185000X0*%
%ADD17RoundRect,0.140000X-0.170000X0.140000X-0.170000X-0.140000X0.170000X-0.140000X0.170000X0.140000X0*%
%ADD18R,1.700000X0.900000*%
%ADD19RoundRect,0.150000X0.150000X-0.587500X0.150000X0.587500X-0.150000X0.587500X-0.150000X-0.587500X0*%
%ADD20RoundRect,0.250000X-0.625000X0.375000X-0.625000X-0.375000X0.625000X-0.375000X0.625000X0.375000X0*%
%ADD21RoundRect,0.225000X-0.225000X-0.375000X0.225000X-0.375000X0.225000X0.375000X-0.225000X0.375000X0*%
%ADD22RoundRect,0.225000X0.225000X0.375000X-0.225000X0.375000X-0.225000X-0.375000X0.225000X-0.375000X0*%
%ADD23RoundRect,0.150000X0.587500X0.150000X-0.587500X0.150000X-0.587500X-0.150000X0.587500X-0.150000X0*%
%ADD24RoundRect,0.140000X-0.140000X-0.170000X0.140000X-0.170000X0.140000X0.170000X-0.140000X0.170000X0*%
%ADD25RoundRect,0.135000X-0.135000X-0.185000X0.135000X-0.185000X0.135000X0.185000X-0.135000X0.185000X0*%
G04 APERTURE END LIST*
D10*
%TO.C,J1*%
X157489248Y-98093130D03*
X156689248Y-98093130D03*
D11*
X155489248Y-98093130D03*
X154489248Y-98093130D03*
X153989248Y-98093130D03*
X152989248Y-98093130D03*
D10*
X151789248Y-98093130D03*
X150989248Y-98093130D03*
X150989248Y-98093130D03*
X151789248Y-98093130D03*
D11*
X152489248Y-98093130D03*
X153489248Y-98093130D03*
X154989248Y-98093130D03*
X155989248Y-98093130D03*
D10*
X156689248Y-98093130D03*
X157489248Y-98093130D03*
%TD*%
D12*
%TO.C,R3*%
X155500000Y-101510000D03*
X155500000Y-100490000D03*
%TD*%
D13*
%TO.C,R15*%
X158500000Y-107990000D03*
X158500000Y-109010000D03*
%TD*%
D14*
%TO.C,U1*%
X155862500Y-103075000D03*
X155862500Y-103725000D03*
X155862500Y-104375000D03*
X155862500Y-105025000D03*
X155862500Y-105675000D03*
X155862500Y-106325000D03*
X155862500Y-106975000D03*
X155862500Y-107625000D03*
X155862500Y-108275000D03*
X155862500Y-108925000D03*
X150137500Y-108925000D03*
X150137500Y-108275000D03*
X150137500Y-107625000D03*
X150137500Y-106975000D03*
X150137500Y-106325000D03*
X150137500Y-105675000D03*
X150137500Y-105025000D03*
X150137500Y-104375000D03*
X150137500Y-103725000D03*
X150137500Y-103075000D03*
%TD*%
D13*
%TO.C,R_1_3*%
X134874000Y-108716000D03*
X134874000Y-107696000D03*
%TD*%
%TO.C,R16*%
X176210000Y-93770100D03*
X176210000Y-92750100D03*
%TD*%
D15*
%TO.C,L_1_1*%
X106775000Y-104250000D03*
X104725000Y-104250000D03*
%TD*%
D16*
%TO.C,R8*%
X152260000Y-101750100D03*
X151240000Y-101750100D03*
%TD*%
D17*
%TO.C,C1*%
X148500000Y-105770000D03*
X148500000Y-106730000D03*
%TD*%
D18*
%TO.C,SW1*%
X178710000Y-104650100D03*
X178710000Y-101250100D03*
%TD*%
D15*
%TO.C,L_1_2*%
X121800000Y-104250000D03*
X119750000Y-104250000D03*
%TD*%
D16*
%TO.C,R13*%
X145760000Y-107750000D03*
X144740000Y-107750000D03*
%TD*%
D19*
%TO.C,Q4*%
X144250000Y-106000000D03*
X146150000Y-106000000D03*
X145200000Y-104125000D03*
%TD*%
D13*
%TO.C,R6*%
X147750000Y-101760000D03*
X147750000Y-100740000D03*
%TD*%
D18*
%TO.C,SW2*%
X178710000Y-91300100D03*
X178710000Y-94700100D03*
%TD*%
D13*
%TO.C,R11*%
X143510000Y-103126000D03*
X143510000Y-102106000D03*
%TD*%
D20*
%TO.C,D2*%
X183460000Y-101450100D03*
X183460000Y-104250100D03*
%TD*%
D12*
%TO.C,R14*%
X158500000Y-105990000D03*
X158500000Y-107010000D03*
%TD*%
D21*
%TO.C,D_1_1*%
X109350000Y-91750000D03*
X112650000Y-91750000D03*
%TD*%
D16*
%TO.C,R_1_1*%
X112260000Y-107750000D03*
X111240000Y-107750000D03*
%TD*%
%TO.C,R1*%
X159010000Y-103000000D03*
X157990000Y-103000000D03*
%TD*%
D22*
%TO.C,D_1_3*%
X132650000Y-91750000D03*
X129350000Y-91750000D03*
%TD*%
D15*
%TO.C,L_1_3*%
X136775000Y-104250000D03*
X134725000Y-104250000D03*
%TD*%
D12*
%TO.C,R10*%
X147500000Y-105740000D03*
X147500000Y-106760000D03*
%TD*%
D23*
%TO.C,Q3*%
X145937500Y-101450000D03*
X145937500Y-99550000D03*
X144062500Y-100500000D03*
%TD*%
D20*
%TO.C,D1*%
X187710000Y-101450100D03*
X187710000Y-104250100D03*
%TD*%
D23*
%TO.C,Q1*%
X145937500Y-93200000D03*
X145937500Y-91300000D03*
X144062500Y-92250000D03*
%TD*%
D21*
%TO.C,D_1_2*%
X123850000Y-91750000D03*
X127150000Y-91750000D03*
%TD*%
D13*
%TO.C,R_1_2*%
X119888000Y-108716000D03*
X119888000Y-107696000D03*
%TD*%
D24*
%TO.C,C3*%
X157960000Y-100750100D03*
X158920000Y-100750100D03*
%TD*%
%TO.C,C2*%
X157980000Y-101750100D03*
X158940000Y-101750100D03*
%TD*%
D25*
%TO.C,R2*%
X151240000Y-100750000D03*
X152260000Y-100750000D03*
%TD*%
D23*
%TO.C,Q2*%
X145937500Y-97200000D03*
X145937500Y-95300000D03*
X144062500Y-96250000D03*
%TD*%
D12*
%TO.C,R7*%
X148960000Y-100750100D03*
X148960000Y-101770100D03*
%TD*%
D13*
%TO.C,R4*%
X185710000Y-105260100D03*
X185710000Y-104240100D03*
%TD*%
%TO.C,R9*%
X150250000Y-101760000D03*
X150250000Y-100740000D03*
%TD*%
%TO.C,R5*%
X181250000Y-105260100D03*
X181250000Y-104240100D03*
%TD*%
D12*
%TO.C,R12*%
X157500000Y-108500000D03*
X157500000Y-109520000D03*
%TD*%
M02*
