%TF.GenerationSoftware,KiCad,Pcbnew,9.0.2*%
%TF.CreationDate,2025-05-22T15:05:22+08:00*%
%TF.ProjectId,tsubaki_lite,74737562-616b-4695-9f6c-6974652e6b69,2025.4*%
%TF.SameCoordinates,Original*%
%TF.FileFunction,Soldermask,Top*%
%TF.FilePolarity,Negative*%
%FSLAX46Y46*%
G04 Gerber Fmt 4.6, Leading zero omitted, Abs format (unit mm)*
G04 Created by KiCad (PCBNEW 9.0.2) date 2025-05-22 15:05:22*
%MOMM*%
%LPD*%
G01*
G04 APERTURE LIST*
G04 Aperture macros list*
%AMRoundRect*
0 Rectangle with rounded corners*
0 $1 Rounding radius*
0 $2 $3 $4 $5 $6 $7 $8 $9 X,Y pos of 4 corners*
0 Add a 4 corners polygon primitive as box body*
4,1,4,$2,$3,$4,$5,$6,$7,$8,$9,$2,$3,0*
0 Add four circle primitives for the rounded corners*
1,1,$1+$1,$2,$3*
1,1,$1+$1,$4,$5*
1,1,$1+$1,$6,$7*
1,1,$1+$1,$8,$9*
0 Add four rect primitives between the rounded corners*
20,1,$1+$1,$2,$3,$4,$5,0*
20,1,$1+$1,$4,$5,$6,$7,0*
20,1,$1+$1,$6,$7,$8,$9,0*
20,1,$1+$1,$8,$9,$2,$3,0*%
G04 Aperture macros list end*
%ADD10C,0.802400*%
%ADD11RoundRect,0.076200X0.300000X0.725000X-0.300000X0.725000X-0.300000X-0.725000X0.300000X-0.725000X0*%
%ADD12RoundRect,0.076200X0.150000X0.725000X-0.150000X0.725000X-0.150000X-0.725000X0.150000X-0.725000X0*%
%ADD13O,1.152400X2.252400*%
%ADD14O,1.152400X1.752400*%
%ADD15RoundRect,0.173100X-0.223100X0.173100X-0.223100X-0.173100X0.223100X-0.173100X0.223100X0.173100X0*%
%ADD16RoundRect,0.173100X0.223100X-0.173100X0.223100X0.173100X-0.223100X0.173100X-0.223100X-0.173100X0*%
%ADD17RoundRect,0.138100X-0.675600X-0.138100X0.675600X-0.138100X0.675600X0.138100X-0.675600X0.138100X0*%
%ADD18C,2.352400*%
%ADD19RoundRect,0.283130X0.368070X0.493070X-0.368070X0.493070X-0.368070X-0.493070X0.368070X-0.493070X0*%
%ADD20RoundRect,0.173100X0.173100X0.223100X-0.173100X0.223100X-0.173100X-0.223100X0.173100X-0.223100X0*%
%ADD21RoundRect,0.178100X-0.208100X0.178100X-0.208100X-0.178100X0.208100X-0.178100X0.208100X0.178100X0*%
%ADD22RoundRect,0.076200X0.850000X-0.450000X0.850000X0.450000X-0.850000X0.450000X-0.850000X-0.450000X0*%
%ADD23C,1.852400*%
%ADD24C,4.152400*%
%ADD25RoundRect,0.076200X0.850000X-0.850000X0.850000X0.850000X-0.850000X0.850000X-0.850000X-0.850000X0*%
%ADD26RoundRect,0.188100X0.188100X-0.625600X0.188100X0.625600X-0.188100X0.625600X-0.188100X-0.625600X0*%
%ADD27RoundRect,0.076200X-0.850000X0.450000X-0.850000X-0.450000X0.850000X-0.450000X0.850000X0.450000X0*%
%ADD28RoundRect,0.076200X-0.850000X0.850000X-0.850000X-0.850000X0.850000X-0.850000X0.850000X0.850000X0*%
%ADD29RoundRect,0.280480X-0.670720X0.420720X-0.670720X-0.420720X0.670720X-0.420720X0.670720X0.420720X0*%
%ADD30RoundRect,0.263100X-0.263100X-0.413100X0.263100X-0.413100X0.263100X0.413100X-0.263100X0.413100X0*%
%ADD31RoundRect,0.263100X0.263100X0.413100X-0.263100X0.413100X-0.263100X-0.413100X0.263100X-0.413100X0*%
%ADD32RoundRect,0.188100X0.625600X0.188100X-0.625600X0.188100X-0.625600X-0.188100X0.625600X-0.188100X0*%
%ADD33RoundRect,0.178100X-0.178100X-0.208100X0.178100X-0.208100X0.178100X0.208100X-0.178100X0.208100X0*%
%ADD34RoundRect,0.173100X-0.173100X-0.223100X0.173100X-0.223100X0.173100X0.223100X-0.173100X0.223100X0*%
%ADD35C,1.952400*%
%ADD36O,3.452400X3.652400*%
G04 APERTURE END LIST*
D10*
%TO.C,J1*%
X157129248Y-96648130D03*
X151349248Y-96648130D03*
D11*
X157489248Y-98093130D03*
X156689248Y-98093130D03*
D12*
X155489248Y-98093130D03*
X154489248Y-98093130D03*
X153989248Y-98093130D03*
X152989248Y-98093130D03*
D11*
X151789248Y-98093130D03*
X150989248Y-98093130D03*
X150989248Y-98093130D03*
X151789248Y-98093130D03*
D12*
X152489248Y-98093130D03*
X153489248Y-98093130D03*
X154989248Y-98093130D03*
X155989248Y-98093130D03*
D11*
X156689248Y-98093130D03*
X157489248Y-98093130D03*
D13*
X158559248Y-97178130D03*
D14*
X158559248Y-92998130D03*
D13*
X149919248Y-97178130D03*
D14*
X149919248Y-92998130D03*
%TD*%
D15*
%TO.C,R3*%
X155500000Y-101510000D03*
X155500000Y-100490000D03*
%TD*%
D16*
%TO.C,R15*%
X158500000Y-107990000D03*
X158500000Y-109010000D03*
%TD*%
D17*
%TO.C,U1*%
X155862500Y-103075000D03*
X155862500Y-103725000D03*
X155862500Y-104375000D03*
X155862500Y-105025000D03*
X155862500Y-105675000D03*
X155862500Y-106325000D03*
X155862500Y-106975000D03*
X155862500Y-107625000D03*
X155862500Y-108275000D03*
X155862500Y-108925000D03*
X150137500Y-108925000D03*
X150137500Y-108275000D03*
X150137500Y-107625000D03*
X150137500Y-106975000D03*
X150137500Y-106325000D03*
X150137500Y-105675000D03*
X150137500Y-105025000D03*
X150137500Y-104375000D03*
X150137500Y-103725000D03*
X150137500Y-103075000D03*
%TD*%
D16*
%TO.C,R_1_3*%
X134874000Y-108716000D03*
X134874000Y-107696000D03*
%TD*%
%TO.C,R16*%
X176210000Y-93770100D03*
X176210000Y-92750100D03*
%TD*%
D18*
%TO.C,H1*%
X96000000Y-93000000D03*
%TD*%
D19*
%TO.C,L_1_1*%
X106775000Y-104250000D03*
X104725000Y-104250000D03*
%TD*%
D20*
%TO.C,R8*%
X152260000Y-101750100D03*
X151240000Y-101750100D03*
%TD*%
D21*
%TO.C,C1*%
X148500000Y-105770000D03*
X148500000Y-106730000D03*
%TD*%
D22*
%TO.C,SW1*%
X178710000Y-104650100D03*
X178710000Y-101250100D03*
%TD*%
D23*
%TO.C,SW_1_2*%
X115590000Y-100000000D03*
D24*
X120670000Y-100000000D03*
D23*
X125750000Y-100000000D03*
D18*
X123210000Y-94920000D03*
X116860000Y-97460000D03*
%TD*%
D19*
%TO.C,L_1_2*%
X121800000Y-104250000D03*
X119750000Y-104250000D03*
%TD*%
D20*
%TO.C,R13*%
X145760000Y-107750000D03*
X144740000Y-107750000D03*
%TD*%
D18*
%TO.C,H3*%
X189750000Y-93000000D03*
%TD*%
D25*
%TO.C,J3*%
X177630000Y-107750100D03*
D23*
X180170000Y-107750100D03*
X182710000Y-107750100D03*
X185250000Y-107750100D03*
%TD*%
D26*
%TO.C,Q4*%
X144250000Y-106000000D03*
X146150000Y-106000000D03*
X145200000Y-104125000D03*
%TD*%
D16*
%TO.C,R6*%
X147750000Y-101760000D03*
X147750000Y-100740000D03*
%TD*%
D27*
%TO.C,SW2*%
X178710000Y-91300100D03*
X178710000Y-94700100D03*
%TD*%
D16*
%TO.C,R11*%
X143510000Y-103126000D03*
X143510000Y-102106000D03*
%TD*%
D28*
%TO.C,J2*%
X185485000Y-92500100D03*
D23*
X182945000Y-92500100D03*
%TD*%
D29*
%TO.C,D2*%
X183460000Y-101450100D03*
X183460000Y-104250100D03*
%TD*%
D18*
%TO.C,H4*%
X189750000Y-107250000D03*
%TD*%
D15*
%TO.C,R14*%
X158500000Y-105990000D03*
X158500000Y-107010000D03*
%TD*%
D30*
%TO.C,D_1_1*%
X109350000Y-91750000D03*
X112650000Y-91750000D03*
%TD*%
D18*
%TO.C,H2*%
X96000000Y-107000000D03*
%TD*%
D20*
%TO.C,R_1_1*%
X112260000Y-107750000D03*
X111240000Y-107750000D03*
%TD*%
%TO.C,R1*%
X159010000Y-103000000D03*
X157990000Y-103000000D03*
%TD*%
D31*
%TO.C,D_1_3*%
X132650000Y-91750000D03*
X129350000Y-91750000D03*
%TD*%
D19*
%TO.C,L_1_3*%
X136775000Y-104250000D03*
X134725000Y-104250000D03*
%TD*%
D15*
%TO.C,R10*%
X147500000Y-105740000D03*
X147500000Y-106760000D03*
%TD*%
D32*
%TO.C,Q3*%
X145937500Y-101450000D03*
X145937500Y-99550000D03*
X144062500Y-100500000D03*
%TD*%
D29*
%TO.C,D1*%
X187710000Y-101450100D03*
X187710000Y-104250100D03*
%TD*%
D23*
%TO.C,SW_1_1*%
X100670000Y-100000000D03*
D24*
X105750000Y-100000000D03*
D23*
X110830000Y-100000000D03*
D18*
X108290000Y-94920000D03*
X101940000Y-97460000D03*
%TD*%
D32*
%TO.C,Q1*%
X145937500Y-93200000D03*
X145937500Y-91300000D03*
X144062500Y-92250000D03*
%TD*%
D30*
%TO.C,D_1_2*%
X123850000Y-91750000D03*
X127150000Y-91750000D03*
%TD*%
D16*
%TO.C,R_1_2*%
X119888000Y-108716000D03*
X119888000Y-107696000D03*
%TD*%
D33*
%TO.C,C3*%
X157960000Y-100750100D03*
X158920000Y-100750100D03*
%TD*%
%TO.C,C2*%
X157980000Y-101750100D03*
X158940000Y-101750100D03*
%TD*%
D34*
%TO.C,R2*%
X151240000Y-100750000D03*
X152260000Y-100750000D03*
%TD*%
D35*
%TO.C,SW3*%
X165209995Y-107250064D03*
X170290005Y-107250064D03*
X167750000Y-107250064D03*
D36*
X173349949Y-99749936D03*
X162150051Y-99749936D03*
%TD*%
D32*
%TO.C,Q2*%
X145937500Y-97200000D03*
X145937500Y-95300000D03*
X144062500Y-96250000D03*
%TD*%
D15*
%TO.C,R7*%
X148960000Y-100750100D03*
X148960000Y-101770100D03*
%TD*%
D16*
%TO.C,R4*%
X185710000Y-105260100D03*
X185710000Y-104240100D03*
%TD*%
%TO.C,R9*%
X150250000Y-101760000D03*
X150250000Y-100740000D03*
%TD*%
%TO.C,R5*%
X181250000Y-105260100D03*
X181250000Y-104240100D03*
%TD*%
D23*
%TO.C,SW_1_3*%
X130590000Y-100000000D03*
D24*
X135670000Y-100000000D03*
D23*
X140750000Y-100000000D03*
D18*
X138210000Y-94920000D03*
X131860000Y-97460000D03*
%TD*%
D15*
%TO.C,R12*%
X157500000Y-108500000D03*
X157500000Y-109520000D03*
%TD*%
M02*
