%TF.GenerationSoftware,KiCad,Pcbnew,9.0.2*%
%TF.CreationDate,2025-05-22T15:05:22+08:00*%
%TF.ProjectId,tsubaki_lite,74737562-616b-4695-9f6c-6974652e6b69,2025.4*%
%TF.SameCoordinates,Original*%
%TF.FileFunction,Legend,Bot*%
%TF.FilePolarity,Positive*%
%FSLAX46Y46*%
G04 Gerber Fmt 4.6, Leading zero omitted, Abs format (unit mm)*
G04 Created by KiCad (PCBNEW 9.0.2) date 2025-05-22 15:05:22*
%MOMM*%
%LPD*%
G01*
G04 APERTURE LIST*
%ADD10C,0.100000*%
%ADD11C,0.125000*%
G04 APERTURE END LIST*
D10*
X182673408Y-93853204D02*
X182406741Y-94234157D01*
X182216265Y-93853204D02*
X182216265Y-94653204D01*
X182216265Y-94653204D02*
X182521027Y-94653204D01*
X182521027Y-94653204D02*
X182597217Y-94615109D01*
X182597217Y-94615109D02*
X182635312Y-94577014D01*
X182635312Y-94577014D02*
X182673408Y-94500823D01*
X182673408Y-94500823D02*
X182673408Y-94386538D01*
X182673408Y-94386538D02*
X182635312Y-94310347D01*
X182635312Y-94310347D02*
X182597217Y-94272252D01*
X182597217Y-94272252D02*
X182521027Y-94234157D01*
X182521027Y-94234157D02*
X182216265Y-94234157D01*
X182940074Y-94653204D02*
X183473408Y-93853204D01*
X183473408Y-94653204D02*
X182940074Y-93853204D01*
X184882932Y-94653204D02*
X185340075Y-94653204D01*
X185111503Y-93853204D02*
X185111503Y-94653204D01*
X185530551Y-94653204D02*
X186063885Y-93853204D01*
X186063885Y-94653204D02*
X185530551Y-93853204D01*
X176101979Y-109653204D02*
X176368646Y-108853204D01*
X176368646Y-108853204D02*
X176635312Y-109653204D01*
X176901979Y-108853204D02*
X176901979Y-109653204D01*
X176901979Y-109653204D02*
X177092455Y-109653204D01*
X177092455Y-109653204D02*
X177206741Y-109615109D01*
X177206741Y-109615109D02*
X177282931Y-109538919D01*
X177282931Y-109538919D02*
X177321026Y-109462728D01*
X177321026Y-109462728D02*
X177359122Y-109310347D01*
X177359122Y-109310347D02*
X177359122Y-109196061D01*
X177359122Y-109196061D02*
X177321026Y-109043680D01*
X177321026Y-109043680D02*
X177282931Y-108967490D01*
X177282931Y-108967490D02*
X177206741Y-108891300D01*
X177206741Y-108891300D02*
X177092455Y-108853204D01*
X177092455Y-108853204D02*
X176901979Y-108853204D01*
X177701979Y-108853204D02*
X177701979Y-109653204D01*
X177701979Y-109653204D02*
X177892455Y-109653204D01*
X177892455Y-109653204D02*
X178006741Y-109615109D01*
X178006741Y-109615109D02*
X178082931Y-109538919D01*
X178082931Y-109538919D02*
X178121026Y-109462728D01*
X178121026Y-109462728D02*
X178159122Y-109310347D01*
X178159122Y-109310347D02*
X178159122Y-109196061D01*
X178159122Y-109196061D02*
X178121026Y-109043680D01*
X178121026Y-109043680D02*
X178082931Y-108967490D01*
X178082931Y-108967490D02*
X178006741Y-108891300D01*
X178006741Y-108891300D02*
X177892455Y-108853204D01*
X177892455Y-108853204D02*
X177701979Y-108853204D01*
X179530550Y-109615109D02*
X179454360Y-109653204D01*
X179454360Y-109653204D02*
X179340074Y-109653204D01*
X179340074Y-109653204D02*
X179225788Y-109615109D01*
X179225788Y-109615109D02*
X179149598Y-109538919D01*
X179149598Y-109538919D02*
X179111503Y-109462728D01*
X179111503Y-109462728D02*
X179073407Y-109310347D01*
X179073407Y-109310347D02*
X179073407Y-109196061D01*
X179073407Y-109196061D02*
X179111503Y-109043680D01*
X179111503Y-109043680D02*
X179149598Y-108967490D01*
X179149598Y-108967490D02*
X179225788Y-108891300D01*
X179225788Y-108891300D02*
X179340074Y-108853204D01*
X179340074Y-108853204D02*
X179416265Y-108853204D01*
X179416265Y-108853204D02*
X179530550Y-108891300D01*
X179530550Y-108891300D02*
X179568646Y-108929395D01*
X179568646Y-108929395D02*
X179568646Y-109196061D01*
X179568646Y-109196061D02*
X179416265Y-109196061D01*
X179911503Y-108853204D02*
X179911503Y-109653204D01*
X179911503Y-109653204D02*
X180368646Y-108853204D01*
X180368646Y-108853204D02*
X180368646Y-109653204D01*
X180749598Y-108853204D02*
X180749598Y-109653204D01*
X180749598Y-109653204D02*
X180940074Y-109653204D01*
X180940074Y-109653204D02*
X181054360Y-109615109D01*
X181054360Y-109615109D02*
X181130550Y-109538919D01*
X181130550Y-109538919D02*
X181168645Y-109462728D01*
X181168645Y-109462728D02*
X181206741Y-109310347D01*
X181206741Y-109310347D02*
X181206741Y-109196061D01*
X181206741Y-109196061D02*
X181168645Y-109043680D01*
X181168645Y-109043680D02*
X181130550Y-108967490D01*
X181130550Y-108967490D02*
X181054360Y-108891300D01*
X181054360Y-108891300D02*
X180940074Y-108853204D01*
X180940074Y-108853204D02*
X180749598Y-108853204D01*
X182159122Y-108853204D02*
X182159122Y-109653204D01*
X182159122Y-109653204D02*
X182349598Y-109653204D01*
X182349598Y-109653204D02*
X182463884Y-109615109D01*
X182463884Y-109615109D02*
X182540074Y-109538919D01*
X182540074Y-109538919D02*
X182578169Y-109462728D01*
X182578169Y-109462728D02*
X182616265Y-109310347D01*
X182616265Y-109310347D02*
X182616265Y-109196061D01*
X182616265Y-109196061D02*
X182578169Y-109043680D01*
X182578169Y-109043680D02*
X182540074Y-108967490D01*
X182540074Y-108967490D02*
X182463884Y-108891300D01*
X182463884Y-108891300D02*
X182349598Y-108853204D01*
X182349598Y-108853204D02*
X182159122Y-108853204D01*
X183416265Y-108929395D02*
X183378169Y-108891300D01*
X183378169Y-108891300D02*
X183263884Y-108853204D01*
X183263884Y-108853204D02*
X183187693Y-108853204D01*
X183187693Y-108853204D02*
X183073407Y-108891300D01*
X183073407Y-108891300D02*
X182997217Y-108967490D01*
X182997217Y-108967490D02*
X182959122Y-109043680D01*
X182959122Y-109043680D02*
X182921026Y-109196061D01*
X182921026Y-109196061D02*
X182921026Y-109310347D01*
X182921026Y-109310347D02*
X182959122Y-109462728D01*
X182959122Y-109462728D02*
X182997217Y-109538919D01*
X182997217Y-109538919D02*
X183073407Y-109615109D01*
X183073407Y-109615109D02*
X183187693Y-109653204D01*
X183187693Y-109653204D02*
X183263884Y-109653204D01*
X183263884Y-109653204D02*
X183378169Y-109615109D01*
X183378169Y-109615109D02*
X183416265Y-109577014D01*
X183759122Y-108853204D02*
X183759122Y-109653204D01*
X184216265Y-108853204D02*
X183873407Y-109310347D01*
X184216265Y-109653204D02*
X183759122Y-109196061D01*
X185168646Y-108853204D02*
X185168646Y-109653204D01*
X185168646Y-109653204D02*
X185359122Y-109653204D01*
X185359122Y-109653204D02*
X185473408Y-109615109D01*
X185473408Y-109615109D02*
X185549598Y-109538919D01*
X185549598Y-109538919D02*
X185587693Y-109462728D01*
X185587693Y-109462728D02*
X185625789Y-109310347D01*
X185625789Y-109310347D02*
X185625789Y-109196061D01*
X185625789Y-109196061D02*
X185587693Y-109043680D01*
X185587693Y-109043680D02*
X185549598Y-108967490D01*
X185549598Y-108967490D02*
X185473408Y-108891300D01*
X185473408Y-108891300D02*
X185359122Y-108853204D01*
X185359122Y-108853204D02*
X185168646Y-108853204D01*
X185968646Y-108853204D02*
X185968646Y-109653204D01*
X186501979Y-109653204D02*
X186654360Y-109653204D01*
X186654360Y-109653204D02*
X186730550Y-109615109D01*
X186730550Y-109615109D02*
X186806741Y-109538919D01*
X186806741Y-109538919D02*
X186844836Y-109386538D01*
X186844836Y-109386538D02*
X186844836Y-109119871D01*
X186844836Y-109119871D02*
X186806741Y-108967490D01*
X186806741Y-108967490D02*
X186730550Y-108891300D01*
X186730550Y-108891300D02*
X186654360Y-108853204D01*
X186654360Y-108853204D02*
X186501979Y-108853204D01*
X186501979Y-108853204D02*
X186425788Y-108891300D01*
X186425788Y-108891300D02*
X186349598Y-108967490D01*
X186349598Y-108967490D02*
X186311502Y-109119871D01*
X186311502Y-109119871D02*
X186311502Y-109386538D01*
X186311502Y-109386538D02*
X186349598Y-109538919D01*
X186349598Y-109538919D02*
X186425788Y-109615109D01*
X186425788Y-109615109D02*
X186501979Y-109653204D01*
D11*
X170185093Y-109545647D02*
X170375569Y-108878980D01*
X170375569Y-108878980D02*
X170566045Y-109355171D01*
X170566045Y-109355171D02*
X170756521Y-108878980D01*
X170756521Y-108878980D02*
X170946997Y-109545647D01*
X171756521Y-108926600D02*
X171661283Y-108878980D01*
X171661283Y-108878980D02*
X171470807Y-108878980D01*
X171470807Y-108878980D02*
X171375569Y-108926600D01*
X171375569Y-108926600D02*
X171327950Y-108974219D01*
X171327950Y-108974219D02*
X171280331Y-109069457D01*
X171280331Y-109069457D02*
X171280331Y-109355171D01*
X171280331Y-109355171D02*
X171327950Y-109450409D01*
X171327950Y-109450409D02*
X171375569Y-109498028D01*
X171375569Y-109498028D02*
X171470807Y-109545647D01*
X171470807Y-109545647D02*
X171661283Y-109545647D01*
X171661283Y-109545647D02*
X171756521Y-109498028D01*
X172185093Y-108878980D02*
X172185093Y-109878980D01*
X172613664Y-108878980D02*
X172613664Y-109402790D01*
X172613664Y-109402790D02*
X172566045Y-109498028D01*
X172566045Y-109498028D02*
X172470807Y-109545647D01*
X172470807Y-109545647D02*
X172327950Y-109545647D01*
X172327950Y-109545647D02*
X172232712Y-109498028D01*
X172232712Y-109498028D02*
X172185093Y-109450409D01*
X173232712Y-108878980D02*
X173137474Y-108926600D01*
X173137474Y-108926600D02*
X173089855Y-109021838D01*
X173089855Y-109021838D02*
X173089855Y-109878980D01*
X173613665Y-108878980D02*
X173613665Y-109545647D01*
X173613665Y-109878980D02*
X173566046Y-109831361D01*
X173566046Y-109831361D02*
X173613665Y-109783742D01*
X173613665Y-109783742D02*
X173661284Y-109831361D01*
X173661284Y-109831361D02*
X173613665Y-109878980D01*
X173613665Y-109878980D02*
X173613665Y-109783742D01*
X174089855Y-109545647D02*
X174089855Y-108878980D01*
X174089855Y-109450409D02*
X174137474Y-109498028D01*
X174137474Y-109498028D02*
X174232712Y-109545647D01*
X174232712Y-109545647D02*
X174375569Y-109545647D01*
X174375569Y-109545647D02*
X174470807Y-109498028D01*
X174470807Y-109498028D02*
X174518426Y-109402790D01*
X174518426Y-109402790D02*
X174518426Y-108878980D01*
X174994617Y-108878980D02*
X174994617Y-109878980D01*
X175089855Y-109259933D02*
X175375569Y-108878980D01*
X175375569Y-109545647D02*
X174994617Y-109164695D01*
M02*
