M48
; DRILL file {KiCad 9.0.2} date 2025-06-04T14:00:11+0800
; FORMAT={-:-/ absolute / inch / decimal}
; #@! TF.CreationDate,2025-06-04T14:00:11+08:00
; #@! TF.GenerationSoftware,Kicad,Pcbnew,9.0.2
; #@! TF.FileFunction,Plated,1,2,PTH
FMAT,2
INCH
; #@! TA.AperFunction,Plated,PTH,ViaDrill
T1C0.0118
; #@! TA.AperFunction,Plated,PTH,ComponentDrill
T2C0.0236
; #@! TA.AperFunction,Plated,PTH,ComponentDrill
T3C0.0394
; #@! TA.AperFunction,Plated,PTH,ComponentDrill
T4C0.0472
; #@! TA.AperFunction,Plated,PTH,ComponentDrill
T5C0.0591
; #@! TA.AperFunction,Plated,PTH,ComponentDrill
T6C0.0906
%
G90
G05
T1
X4.1831Y-4.1535
X4.3406Y-4.4291
X4.498Y-3.5728
X4.7933Y-3.9173
X5.1575Y-3.563
X5.2264Y-4.124
X5.2657Y-4.3504
X5.2756Y-4.5276
X5.4429Y-4.1339
X5.7283Y-4.5177
X5.7579Y-4.0945
X5.8071Y-3.5433
X5.9646Y-4.1732
X5.9843Y-3.9567
X6.0433Y-4.3209
X6.2402Y-3.9862
X6.2992Y-3.563
X6.3878Y-4.3307
X6.4272Y-3.9567
X6.4764Y-4.2126
X6.4961Y-4.5374
X6.5059Y-3.7303
X6.5256Y-4.0256
X6.5551Y-4.1142
X6.6732Y-3.878
X6.6929Y-3.5531
X6.7224Y-4.1142
X6.7413Y-4.2913
X6.752Y-4.1634
X6.752Y-4.1929
X6.8209Y-3.9173
X6.8209Y-4.0945
X6.8307Y-3.7697
X6.8406Y-3.6909
X6.8442Y-4.268
X6.8799Y-4.2224
X6.8799Y-4.4685
X6.8898Y-4.3799
X6.939Y-4.1634
X6.9587Y-3.7402
X6.9616Y-4.2815
X6.9783Y-4.1654
X6.9783Y-4.1929
X6.9882Y-4.0551
X7.0434Y-3.937
X7.0675Y-4.2293
X7.0687Y-3.9764
X7.0768Y-4.1929
X7.0768Y-4.4587
X7.0866Y-4.3209
X7.1263Y-4.2818
X7.185Y-4.3406
X7.185Y-4.4193
X7.1949Y-4.2913
X7.2411Y-3.7598
X7.2736Y-3.5433
X7.2933Y-3.7894
X7.2933Y-3.8386
X7.313Y-4.3799
X7.3425Y-4.2717
X7.4803Y-3.878
X7.5Y-4.4587
X7.5984Y-4.3209
T3
X6.8203Y-4.5571
X6.9203Y-4.5571
X7.1244Y-4.5571
X7.2244Y-4.5571
X7.3244Y-4.5571
X7.4244Y-4.5571
T4
X7.2622Y-4.3307
X7.3622Y-4.3307
X7.4622Y-4.3307
T5
X4.1937Y-3.9354
X4.4437Y-3.8354
X4.9614Y-3.9354
X5.2114Y-3.8354
X5.7291Y-3.9354
X5.9791Y-3.8354
X6.4969Y-3.9354
X6.7469Y-3.8354
T2
G00X7.1035Y-3.5098
M15
G01X7.1035Y-3.4862
M16
G05
G00X7.1035Y-3.6843
M15
G01X7.1035Y-3.6409
M16
G05
G00X7.4437Y-3.5098
M15
G01X7.4437Y-3.4862
M16
G05
G00X7.4437Y-3.6843
M15
G01X7.4437Y-3.6409
M16
G05
T6
G00X7.1417Y-4.0393
M15
G01X7.1417Y-4.0315
M16
G05
G00X7.5827Y-4.0393
M15
G01X7.5827Y-4.0315
M16
G05
M30
