%TF.GenerationSoftware,KiCad,Pcbnew,9.0.2*%
%TF.CreationDate,2025-06-04T14:00:08+08:00*%
%TF.ProjectId,tsubaki_lite,74737562-616b-4695-9f6c-6974652e6b69,4*%
%TF.SameCoordinates,Original*%
%TF.FileFunction,Legend,Top*%
%TF.FilePolarity,Positive*%
%FSLAX46Y46*%
G04 Gerber Fmt 4.6, Leading zero omitted, Abs format (unit mm)*
G04 Created by KiCad (PCBNEW 9.0.2) date 2025-06-04 14:00:08*
%MOMM*%
%LPD*%
G01*
G04 APERTURE LIST*
%ADD10C,0.100000*%
%ADD11C,0.240000*%
%ADD12C,0.150000*%
%ADD13C,0.120000*%
%ADD14C,0.254001*%
%ADD15C,0.059995*%
G04 APERTURE END LIST*
D10*
X166475313Y-88825606D02*
X167084837Y-89054178D01*
X167084837Y-89054178D02*
X166475313Y-89282749D01*
X165713408Y-90646895D02*
X165446741Y-90265942D01*
X165256265Y-90646895D02*
X165256265Y-89846895D01*
X165256265Y-89846895D02*
X165561027Y-89846895D01*
X165561027Y-89846895D02*
X165637217Y-89884990D01*
X165637217Y-89884990D02*
X165675312Y-89923085D01*
X165675312Y-89923085D02*
X165713408Y-89999276D01*
X165713408Y-89999276D02*
X165713408Y-90113561D01*
X165713408Y-90113561D02*
X165675312Y-90189752D01*
X165675312Y-90189752D02*
X165637217Y-90227847D01*
X165637217Y-90227847D02*
X165561027Y-90265942D01*
X165561027Y-90265942D02*
X165256265Y-90265942D01*
X166018169Y-90608800D02*
X166132455Y-90646895D01*
X166132455Y-90646895D02*
X166322931Y-90646895D01*
X166322931Y-90646895D02*
X166399122Y-90608800D01*
X166399122Y-90608800D02*
X166437217Y-90570704D01*
X166437217Y-90570704D02*
X166475312Y-90494514D01*
X166475312Y-90494514D02*
X166475312Y-90418323D01*
X166475312Y-90418323D02*
X166437217Y-90342133D01*
X166437217Y-90342133D02*
X166399122Y-90304038D01*
X166399122Y-90304038D02*
X166322931Y-90265942D01*
X166322931Y-90265942D02*
X166170550Y-90227847D01*
X166170550Y-90227847D02*
X166094360Y-90189752D01*
X166094360Y-90189752D02*
X166056265Y-90151657D01*
X166056265Y-90151657D02*
X166018169Y-90075466D01*
X166018169Y-90075466D02*
X166018169Y-89999276D01*
X166018169Y-89999276D02*
X166056265Y-89923085D01*
X166056265Y-89923085D02*
X166094360Y-89884990D01*
X166094360Y-89884990D02*
X166170550Y-89846895D01*
X166170550Y-89846895D02*
X166361027Y-89846895D01*
X166361027Y-89846895D02*
X166475312Y-89884990D01*
X166703884Y-89846895D02*
X167161027Y-89846895D01*
X166932455Y-90646895D02*
X166932455Y-89846895D01*
X155394232Y-93847088D02*
X155757733Y-94266053D01*
X155757733Y-94266053D02*
X155734839Y-93856394D01*
X155734839Y-93856394D02*
X156033941Y-94137255D01*
X156033941Y-94137255D02*
X155946648Y-93589492D01*
X156551831Y-93895759D02*
X156466679Y-93893432D01*
X156466679Y-93893432D02*
X156416053Y-93875006D01*
X156416053Y-93875006D02*
X156349328Y-93822054D01*
X156349328Y-93822054D02*
X156252729Y-93614898D01*
X156252729Y-93614898D02*
X156255056Y-93529746D01*
X156255056Y-93529746D02*
X156273482Y-93479120D01*
X156273482Y-93479120D02*
X156326434Y-93412395D01*
X156326434Y-93412395D02*
X156430012Y-93364096D01*
X156430012Y-93364096D02*
X156515164Y-93366422D01*
X156515164Y-93366422D02*
X156565790Y-93384848D01*
X156565790Y-93384848D02*
X156632515Y-93437801D01*
X156632515Y-93437801D02*
X156729114Y-93644957D01*
X156729114Y-93644957D02*
X156726787Y-93730109D01*
X156726787Y-93730109D02*
X156708361Y-93780734D01*
X156708361Y-93780734D02*
X156655409Y-93847460D01*
X156655409Y-93847460D02*
X156551831Y-93895759D01*
X156809799Y-93186998D02*
X157173299Y-93605963D01*
X157173299Y-93605963D02*
X157150406Y-93196304D01*
X157150406Y-93196304D02*
X157449507Y-93477165D01*
X157449507Y-93477165D02*
X157362215Y-92929402D01*
X158365610Y-93007946D02*
X158450762Y-93010273D01*
X158450762Y-93010273D02*
X158588866Y-92945874D01*
X158588866Y-92945874D02*
X158641818Y-92879148D01*
X158641818Y-92879148D02*
X158644145Y-92793997D01*
X158644145Y-92793997D02*
X158628045Y-92759471D01*
X158628045Y-92759471D02*
X158561319Y-92706518D01*
X158561319Y-92706518D02*
X158476168Y-92704192D01*
X158476168Y-92704192D02*
X158372590Y-92752491D01*
X158372590Y-92752491D02*
X158287438Y-92750165D01*
X158287438Y-92750165D02*
X158220712Y-92697212D01*
X158220712Y-92697212D02*
X158204613Y-92662686D01*
X158204613Y-92662686D02*
X158206939Y-92577535D01*
X158206939Y-92577535D02*
X158259891Y-92510809D01*
X158259891Y-92510809D02*
X158363469Y-92462510D01*
X158363469Y-92462510D02*
X158448621Y-92464836D01*
X158777781Y-92269313D02*
X159115876Y-92994359D01*
X158793881Y-92303839D02*
X158846833Y-92237113D01*
X158846833Y-92237113D02*
X158984938Y-92172714D01*
X158984938Y-92172714D02*
X159070089Y-92175041D01*
X159070089Y-92175041D02*
X159120715Y-92193467D01*
X159120715Y-92193467D02*
X159187441Y-92246420D01*
X159187441Y-92246420D02*
X159284039Y-92453576D01*
X159284039Y-92453576D02*
X159281712Y-92538727D01*
X159281712Y-92538727D02*
X159263286Y-92589353D01*
X159263286Y-92589353D02*
X159210334Y-92656079D01*
X159210334Y-92656079D02*
X159072230Y-92720478D01*
X159072230Y-92720478D02*
X158987078Y-92718151D01*
X159969907Y-92301884D02*
X159792809Y-91922098D01*
X159792809Y-91922098D02*
X159726084Y-91869146D01*
X159726084Y-91869146D02*
X159640932Y-91866819D01*
X159640932Y-91866819D02*
X159502828Y-91931218D01*
X159502828Y-91931218D02*
X159449876Y-91997944D01*
X159953807Y-92267358D02*
X159900855Y-92334084D01*
X159900855Y-92334084D02*
X159728225Y-92414582D01*
X159728225Y-92414582D02*
X159643073Y-92412256D01*
X159643073Y-92412256D02*
X159576347Y-92359303D01*
X159576347Y-92359303D02*
X159544148Y-92290251D01*
X159544148Y-92290251D02*
X159546474Y-92205100D01*
X159546474Y-92205100D02*
X159599427Y-92138374D01*
X159599427Y-92138374D02*
X159772057Y-92057875D01*
X159772057Y-92057875D02*
X159825009Y-91991150D01*
X160609801Y-91961463D02*
X160556849Y-92028188D01*
X160556849Y-92028188D02*
X160418745Y-92092587D01*
X160418745Y-92092587D02*
X160333593Y-92090261D01*
X160333593Y-92090261D02*
X160282968Y-92071834D01*
X160282968Y-92071834D02*
X160216242Y-92018882D01*
X160216242Y-92018882D02*
X160119644Y-91811726D01*
X160119644Y-91811726D02*
X160121970Y-91726574D01*
X160121970Y-91726574D02*
X160140396Y-91675949D01*
X160140396Y-91675949D02*
X160193349Y-91609223D01*
X160193349Y-91609223D02*
X160331453Y-91544824D01*
X160331453Y-91544824D02*
X160416605Y-91547151D01*
X160936635Y-91851091D02*
X160711239Y-91367727D01*
X160598540Y-91126045D02*
X160580114Y-91176671D01*
X160580114Y-91176671D02*
X160630740Y-91195097D01*
X160630740Y-91195097D02*
X160649166Y-91144471D01*
X160649166Y-91144471D02*
X160598540Y-91126045D01*
X160598540Y-91126045D02*
X160630740Y-91195097D01*
X161385473Y-91641795D02*
X161300321Y-91639468D01*
X161300321Y-91639468D02*
X161249695Y-91621042D01*
X161249695Y-91621042D02*
X161182970Y-91568090D01*
X161182970Y-91568090D02*
X161086371Y-91360934D01*
X161086371Y-91360934D02*
X161088698Y-91275782D01*
X161088698Y-91275782D02*
X161107124Y-91225156D01*
X161107124Y-91225156D02*
X161160076Y-91158431D01*
X161160076Y-91158431D02*
X161263655Y-91110131D01*
X161263655Y-91110131D02*
X161348806Y-91112458D01*
X161348806Y-91112458D02*
X161399432Y-91130884D01*
X161399432Y-91130884D02*
X161466158Y-91183836D01*
X161466158Y-91183836D02*
X161562756Y-91390992D01*
X161562756Y-91390992D02*
X161560429Y-91476144D01*
X161560429Y-91476144D02*
X161542003Y-91526770D01*
X161542003Y-91526770D02*
X161489051Y-91593495D01*
X161489051Y-91593495D02*
X161385473Y-91641795D01*
X162023227Y-90755937D02*
X162248624Y-91239301D01*
X161712493Y-90900834D02*
X161889590Y-91280621D01*
X161889590Y-91280621D02*
X161956316Y-91333573D01*
X161956316Y-91333573D02*
X162041468Y-91335899D01*
X162041468Y-91335899D02*
X162145046Y-91287600D01*
X162145046Y-91287600D02*
X162197998Y-91220875D01*
X162197998Y-91220875D02*
X162216424Y-91170249D01*
X162543258Y-91059877D02*
X162628410Y-91062204D01*
X162628410Y-91062204D02*
X162766514Y-90997805D01*
X162766514Y-90997805D02*
X162819466Y-90931079D01*
X162819466Y-90931079D02*
X162821793Y-90845927D01*
X162821793Y-90845927D02*
X162805693Y-90811401D01*
X162805693Y-90811401D02*
X162738968Y-90758449D01*
X162738968Y-90758449D02*
X162653816Y-90756122D01*
X162653816Y-90756122D02*
X162550238Y-90804422D01*
X162550238Y-90804422D02*
X162465086Y-90802095D01*
X162465086Y-90802095D02*
X162398361Y-90749143D01*
X162398361Y-90749143D02*
X162382261Y-90714617D01*
X162382261Y-90714617D02*
X162384587Y-90629465D01*
X162384587Y-90629465D02*
X162437540Y-90562740D01*
X162437540Y-90562740D02*
X162541118Y-90514440D01*
X162541118Y-90514440D02*
X162626270Y-90516767D01*
D11*
X111386465Y-113140662D02*
X111386465Y-113369234D01*
X111843608Y-113140662D02*
X111843608Y-113369234D01*
X112186465Y-113540662D02*
X112643608Y-113540662D01*
X112357894Y-113140662D02*
X112357894Y-114169234D01*
X112357894Y-114169234D02*
X112415037Y-114283520D01*
X112415037Y-114283520D02*
X112529322Y-114340662D01*
X112529322Y-114340662D02*
X112643608Y-114340662D01*
X112986465Y-114283520D02*
X113100751Y-114340662D01*
X113100751Y-114340662D02*
X113329322Y-114340662D01*
X113329322Y-114340662D02*
X113443608Y-114283520D01*
X113443608Y-114283520D02*
X113500751Y-114169234D01*
X113500751Y-114169234D02*
X113500751Y-114112091D01*
X113500751Y-114112091D02*
X113443608Y-113997805D01*
X113443608Y-113997805D02*
X113329322Y-113940662D01*
X113329322Y-113940662D02*
X113157894Y-113940662D01*
X113157894Y-113940662D02*
X113043608Y-113883520D01*
X113043608Y-113883520D02*
X112986465Y-113769234D01*
X112986465Y-113769234D02*
X112986465Y-113712091D01*
X112986465Y-113712091D02*
X113043608Y-113597805D01*
X113043608Y-113597805D02*
X113157894Y-113540662D01*
X113157894Y-113540662D02*
X113329322Y-113540662D01*
X113329322Y-113540662D02*
X113443608Y-113597805D01*
X114529323Y-113540662D02*
X114529323Y-114340662D01*
X114015037Y-113540662D02*
X114015037Y-114169234D01*
X114015037Y-114169234D02*
X114072180Y-114283520D01*
X114072180Y-114283520D02*
X114186465Y-114340662D01*
X114186465Y-114340662D02*
X114357894Y-114340662D01*
X114357894Y-114340662D02*
X114472180Y-114283520D01*
X114472180Y-114283520D02*
X114529323Y-114226377D01*
X115100751Y-114340662D02*
X115100751Y-113140662D01*
X115100751Y-113597805D02*
X115215037Y-113540662D01*
X115215037Y-113540662D02*
X115443608Y-113540662D01*
X115443608Y-113540662D02*
X115557894Y-113597805D01*
X115557894Y-113597805D02*
X115615037Y-113654948D01*
X115615037Y-113654948D02*
X115672179Y-113769234D01*
X115672179Y-113769234D02*
X115672179Y-114112091D01*
X115672179Y-114112091D02*
X115615037Y-114226377D01*
X115615037Y-114226377D02*
X115557894Y-114283520D01*
X115557894Y-114283520D02*
X115443608Y-114340662D01*
X115443608Y-114340662D02*
X115215037Y-114340662D01*
X115215037Y-114340662D02*
X115100751Y-114283520D01*
X116700751Y-114340662D02*
X116700751Y-113712091D01*
X116700751Y-113712091D02*
X116643608Y-113597805D01*
X116643608Y-113597805D02*
X116529322Y-113540662D01*
X116529322Y-113540662D02*
X116300751Y-113540662D01*
X116300751Y-113540662D02*
X116186465Y-113597805D01*
X116700751Y-114283520D02*
X116586465Y-114340662D01*
X116586465Y-114340662D02*
X116300751Y-114340662D01*
X116300751Y-114340662D02*
X116186465Y-114283520D01*
X116186465Y-114283520D02*
X116129322Y-114169234D01*
X116129322Y-114169234D02*
X116129322Y-114054948D01*
X116129322Y-114054948D02*
X116186465Y-113940662D01*
X116186465Y-113940662D02*
X116300751Y-113883520D01*
X116300751Y-113883520D02*
X116586465Y-113883520D01*
X116586465Y-113883520D02*
X116700751Y-113826377D01*
X117272179Y-114340662D02*
X117272179Y-113140662D01*
X117386465Y-113883520D02*
X117729322Y-114340662D01*
X117729322Y-113540662D02*
X117272179Y-113997805D01*
X118243608Y-114340662D02*
X118243608Y-113540662D01*
X118243608Y-113140662D02*
X118186465Y-113197805D01*
X118186465Y-113197805D02*
X118243608Y-113254948D01*
X118243608Y-113254948D02*
X118300751Y-113197805D01*
X118300751Y-113197805D02*
X118243608Y-113140662D01*
X118243608Y-113140662D02*
X118243608Y-113254948D01*
X119900751Y-114340662D02*
X119786466Y-114283520D01*
X119786466Y-114283520D02*
X119729323Y-114169234D01*
X119729323Y-114169234D02*
X119729323Y-113140662D01*
X120357894Y-114340662D02*
X120357894Y-113540662D01*
X120357894Y-113140662D02*
X120300751Y-113197805D01*
X120300751Y-113197805D02*
X120357894Y-113254948D01*
X120357894Y-113254948D02*
X120415037Y-113197805D01*
X120415037Y-113197805D02*
X120357894Y-113140662D01*
X120357894Y-113140662D02*
X120357894Y-113254948D01*
X120757894Y-113540662D02*
X121215037Y-113540662D01*
X120929323Y-113140662D02*
X120929323Y-114169234D01*
X120929323Y-114169234D02*
X120986466Y-114283520D01*
X120986466Y-114283520D02*
X121100751Y-114340662D01*
X121100751Y-114340662D02*
X121215037Y-114340662D01*
X122072180Y-114283520D02*
X121957894Y-114340662D01*
X121957894Y-114340662D02*
X121729323Y-114340662D01*
X121729323Y-114340662D02*
X121615037Y-114283520D01*
X121615037Y-114283520D02*
X121557894Y-114169234D01*
X121557894Y-114169234D02*
X121557894Y-113712091D01*
X121557894Y-113712091D02*
X121615037Y-113597805D01*
X121615037Y-113597805D02*
X121729323Y-113540662D01*
X121729323Y-113540662D02*
X121957894Y-113540662D01*
X121957894Y-113540662D02*
X122072180Y-113597805D01*
X122072180Y-113597805D02*
X122129323Y-113712091D01*
X122129323Y-113712091D02*
X122129323Y-113826377D01*
X122129323Y-113826377D02*
X121557894Y-113940662D01*
X122586465Y-113140662D02*
X122586465Y-113369234D01*
X123043608Y-113140662D02*
X123043608Y-113369234D01*
D10*
X106949122Y-115663561D02*
X106949122Y-116196895D01*
X106758646Y-115358800D02*
X106568169Y-115930228D01*
X106568169Y-115930228D02*
X107063408Y-115930228D01*
X107368170Y-116196895D02*
X107368170Y-115396895D01*
X107444360Y-115892133D02*
X107672932Y-116196895D01*
X107672932Y-115663561D02*
X107368170Y-115968323D01*
X108320551Y-116158800D02*
X108244360Y-116196895D01*
X108244360Y-116196895D02*
X108091979Y-116196895D01*
X108091979Y-116196895D02*
X108015789Y-116158800D01*
X108015789Y-116158800D02*
X107977693Y-116082609D01*
X107977693Y-116082609D02*
X107977693Y-115777847D01*
X107977693Y-115777847D02*
X108015789Y-115701657D01*
X108015789Y-115701657D02*
X108091979Y-115663561D01*
X108091979Y-115663561D02*
X108244360Y-115663561D01*
X108244360Y-115663561D02*
X108320551Y-115701657D01*
X108320551Y-115701657D02*
X108358646Y-115777847D01*
X108358646Y-115777847D02*
X108358646Y-115854038D01*
X108358646Y-115854038D02*
X107977693Y-115930228D01*
X108625312Y-115663561D02*
X108815788Y-116196895D01*
X109006265Y-115663561D02*
X108815788Y-116196895D01*
X108815788Y-116196895D02*
X108739598Y-116387371D01*
X108739598Y-116387371D02*
X108701503Y-116425466D01*
X108701503Y-116425466D02*
X108625312Y-116463561D01*
X109311027Y-115892133D02*
X109920551Y-115892133D01*
X109615789Y-116196895D02*
X109615789Y-115587371D01*
X110301503Y-116196895D02*
X110301503Y-115396895D01*
X110377693Y-115892133D02*
X110606265Y-116196895D01*
X110606265Y-115663561D02*
X110301503Y-115968323D01*
X110949122Y-115663561D02*
X110949122Y-116196895D01*
X110949122Y-115739752D02*
X110987217Y-115701657D01*
X110987217Y-115701657D02*
X111063407Y-115663561D01*
X111063407Y-115663561D02*
X111177693Y-115663561D01*
X111177693Y-115663561D02*
X111253884Y-115701657D01*
X111253884Y-115701657D02*
X111291979Y-115777847D01*
X111291979Y-115777847D02*
X111291979Y-116196895D01*
X111787217Y-116196895D02*
X111711027Y-116158800D01*
X111711027Y-116158800D02*
X111672932Y-116120704D01*
X111672932Y-116120704D02*
X111634836Y-116044514D01*
X111634836Y-116044514D02*
X111634836Y-115815942D01*
X111634836Y-115815942D02*
X111672932Y-115739752D01*
X111672932Y-115739752D02*
X111711027Y-115701657D01*
X111711027Y-115701657D02*
X111787217Y-115663561D01*
X111787217Y-115663561D02*
X111901503Y-115663561D01*
X111901503Y-115663561D02*
X111977694Y-115701657D01*
X111977694Y-115701657D02*
X112015789Y-115739752D01*
X112015789Y-115739752D02*
X112053884Y-115815942D01*
X112053884Y-115815942D02*
X112053884Y-116044514D01*
X112053884Y-116044514D02*
X112015789Y-116120704D01*
X112015789Y-116120704D02*
X111977694Y-116158800D01*
X111977694Y-116158800D02*
X111901503Y-116196895D01*
X111901503Y-116196895D02*
X111787217Y-116196895D01*
X112396742Y-116196895D02*
X112396742Y-115396895D01*
X112396742Y-115701657D02*
X112472932Y-115663561D01*
X112472932Y-115663561D02*
X112625313Y-115663561D01*
X112625313Y-115663561D02*
X112701504Y-115701657D01*
X112701504Y-115701657D02*
X112739599Y-115739752D01*
X112739599Y-115739752D02*
X112777694Y-115815942D01*
X112777694Y-115815942D02*
X112777694Y-116044514D01*
X112777694Y-116044514D02*
X112739599Y-116120704D01*
X112739599Y-116120704D02*
X112701504Y-116158800D01*
X112701504Y-116158800D02*
X112625313Y-116196895D01*
X112625313Y-116196895D02*
X112472932Y-116196895D01*
X112472932Y-116196895D02*
X112396742Y-116158800D01*
X113844361Y-116196895D02*
X113768171Y-116158800D01*
X113768171Y-116158800D02*
X113730076Y-116120704D01*
X113730076Y-116120704D02*
X113691980Y-116044514D01*
X113691980Y-116044514D02*
X113691980Y-115815942D01*
X113691980Y-115815942D02*
X113730076Y-115739752D01*
X113730076Y-115739752D02*
X113768171Y-115701657D01*
X113768171Y-115701657D02*
X113844361Y-115663561D01*
X113844361Y-115663561D02*
X113958647Y-115663561D01*
X113958647Y-115663561D02*
X114034838Y-115701657D01*
X114034838Y-115701657D02*
X114072933Y-115739752D01*
X114072933Y-115739752D02*
X114111028Y-115815942D01*
X114111028Y-115815942D02*
X114111028Y-116044514D01*
X114111028Y-116044514D02*
X114072933Y-116120704D01*
X114072933Y-116120704D02*
X114034838Y-116158800D01*
X114034838Y-116158800D02*
X113958647Y-116196895D01*
X113958647Y-116196895D02*
X113844361Y-116196895D01*
X114415790Y-116158800D02*
X114491981Y-116196895D01*
X114491981Y-116196895D02*
X114644362Y-116196895D01*
X114644362Y-116196895D02*
X114720552Y-116158800D01*
X114720552Y-116158800D02*
X114758648Y-116082609D01*
X114758648Y-116082609D02*
X114758648Y-116044514D01*
X114758648Y-116044514D02*
X114720552Y-115968323D01*
X114720552Y-115968323D02*
X114644362Y-115930228D01*
X114644362Y-115930228D02*
X114530076Y-115930228D01*
X114530076Y-115930228D02*
X114453886Y-115892133D01*
X114453886Y-115892133D02*
X114415790Y-115815942D01*
X114415790Y-115815942D02*
X114415790Y-115777847D01*
X114415790Y-115777847D02*
X114453886Y-115701657D01*
X114453886Y-115701657D02*
X114530076Y-115663561D01*
X114530076Y-115663561D02*
X114644362Y-115663561D01*
X114644362Y-115663561D02*
X114720552Y-115701657D01*
X115444362Y-115663561D02*
X115444362Y-116196895D01*
X115101505Y-115663561D02*
X115101505Y-116082609D01*
X115101505Y-116082609D02*
X115139600Y-116158800D01*
X115139600Y-116158800D02*
X115215790Y-116196895D01*
X115215790Y-116196895D02*
X115330076Y-116196895D01*
X115330076Y-116196895D02*
X115406267Y-116158800D01*
X115406267Y-116158800D02*
X115444362Y-116120704D01*
X115825315Y-116120704D02*
X115863410Y-116158800D01*
X115863410Y-116158800D02*
X115825315Y-116196895D01*
X115825315Y-116196895D02*
X115787219Y-116158800D01*
X115787219Y-116158800D02*
X115825315Y-116120704D01*
X115825315Y-116120704D02*
X115825315Y-116196895D01*
X115825315Y-115892133D02*
X115787219Y-115434990D01*
X115787219Y-115434990D02*
X115825315Y-115396895D01*
X115825315Y-115396895D02*
X115863410Y-115434990D01*
X115863410Y-115434990D02*
X115825315Y-115892133D01*
X115825315Y-115892133D02*
X115825315Y-115396895D01*
X116815791Y-116196895D02*
X116815791Y-115396895D01*
X116891981Y-115892133D02*
X117120553Y-116196895D01*
X117120553Y-115663561D02*
X116815791Y-115968323D01*
X117768172Y-116158800D02*
X117691981Y-116196895D01*
X117691981Y-116196895D02*
X117539600Y-116196895D01*
X117539600Y-116196895D02*
X117463410Y-116158800D01*
X117463410Y-116158800D02*
X117425314Y-116082609D01*
X117425314Y-116082609D02*
X117425314Y-115777847D01*
X117425314Y-115777847D02*
X117463410Y-115701657D01*
X117463410Y-115701657D02*
X117539600Y-115663561D01*
X117539600Y-115663561D02*
X117691981Y-115663561D01*
X117691981Y-115663561D02*
X117768172Y-115701657D01*
X117768172Y-115701657D02*
X117806267Y-115777847D01*
X117806267Y-115777847D02*
X117806267Y-115854038D01*
X117806267Y-115854038D02*
X117425314Y-115930228D01*
X118072933Y-115663561D02*
X118263409Y-116196895D01*
X118453886Y-115663561D02*
X118263409Y-116196895D01*
X118263409Y-116196895D02*
X118187219Y-116387371D01*
X118187219Y-116387371D02*
X118149124Y-116425466D01*
X118149124Y-116425466D02*
X118072933Y-116463561D01*
X118758648Y-116196895D02*
X118758648Y-115396895D01*
X118758648Y-115701657D02*
X118834838Y-115663561D01*
X118834838Y-115663561D02*
X118987219Y-115663561D01*
X118987219Y-115663561D02*
X119063410Y-115701657D01*
X119063410Y-115701657D02*
X119101505Y-115739752D01*
X119101505Y-115739752D02*
X119139600Y-115815942D01*
X119139600Y-115815942D02*
X119139600Y-116044514D01*
X119139600Y-116044514D02*
X119101505Y-116120704D01*
X119101505Y-116120704D02*
X119063410Y-116158800D01*
X119063410Y-116158800D02*
X118987219Y-116196895D01*
X118987219Y-116196895D02*
X118834838Y-116196895D01*
X118834838Y-116196895D02*
X118758648Y-116158800D01*
X119596743Y-116196895D02*
X119520553Y-116158800D01*
X119520553Y-116158800D02*
X119482458Y-116120704D01*
X119482458Y-116120704D02*
X119444362Y-116044514D01*
X119444362Y-116044514D02*
X119444362Y-115815942D01*
X119444362Y-115815942D02*
X119482458Y-115739752D01*
X119482458Y-115739752D02*
X119520553Y-115701657D01*
X119520553Y-115701657D02*
X119596743Y-115663561D01*
X119596743Y-115663561D02*
X119711029Y-115663561D01*
X119711029Y-115663561D02*
X119787220Y-115701657D01*
X119787220Y-115701657D02*
X119825315Y-115739752D01*
X119825315Y-115739752D02*
X119863410Y-115815942D01*
X119863410Y-115815942D02*
X119863410Y-116044514D01*
X119863410Y-116044514D02*
X119825315Y-116120704D01*
X119825315Y-116120704D02*
X119787220Y-116158800D01*
X119787220Y-116158800D02*
X119711029Y-116196895D01*
X119711029Y-116196895D02*
X119596743Y-116196895D01*
X120549125Y-116196895D02*
X120549125Y-115777847D01*
X120549125Y-115777847D02*
X120511030Y-115701657D01*
X120511030Y-115701657D02*
X120434839Y-115663561D01*
X120434839Y-115663561D02*
X120282458Y-115663561D01*
X120282458Y-115663561D02*
X120206268Y-115701657D01*
X120549125Y-116158800D02*
X120472934Y-116196895D01*
X120472934Y-116196895D02*
X120282458Y-116196895D01*
X120282458Y-116196895D02*
X120206268Y-116158800D01*
X120206268Y-116158800D02*
X120168172Y-116082609D01*
X120168172Y-116082609D02*
X120168172Y-116006419D01*
X120168172Y-116006419D02*
X120206268Y-115930228D01*
X120206268Y-115930228D02*
X120282458Y-115892133D01*
X120282458Y-115892133D02*
X120472934Y-115892133D01*
X120472934Y-115892133D02*
X120549125Y-115854038D01*
X120930078Y-116196895D02*
X120930078Y-115663561D01*
X120930078Y-115815942D02*
X120968173Y-115739752D01*
X120968173Y-115739752D02*
X121006268Y-115701657D01*
X121006268Y-115701657D02*
X121082459Y-115663561D01*
X121082459Y-115663561D02*
X121158649Y-115663561D01*
X121768173Y-116196895D02*
X121768173Y-115396895D01*
X121768173Y-116158800D02*
X121691982Y-116196895D01*
X121691982Y-116196895D02*
X121539601Y-116196895D01*
X121539601Y-116196895D02*
X121463411Y-116158800D01*
X121463411Y-116158800D02*
X121425316Y-116120704D01*
X121425316Y-116120704D02*
X121387220Y-116044514D01*
X121387220Y-116044514D02*
X121387220Y-115815942D01*
X121387220Y-115815942D02*
X121425316Y-115739752D01*
X121425316Y-115739752D02*
X121463411Y-115701657D01*
X121463411Y-115701657D02*
X121539601Y-115663561D01*
X121539601Y-115663561D02*
X121691982Y-115663561D01*
X121691982Y-115663561D02*
X121768173Y-115701657D01*
X122339602Y-116463561D02*
X122339602Y-115320704D01*
X122911031Y-116196895D02*
X122911031Y-115663561D01*
X122911031Y-115815942D02*
X122949126Y-115739752D01*
X122949126Y-115739752D02*
X122987221Y-115701657D01*
X122987221Y-115701657D02*
X123063412Y-115663561D01*
X123063412Y-115663561D02*
X123139602Y-115663561D01*
X123711031Y-116158800D02*
X123634840Y-116196895D01*
X123634840Y-116196895D02*
X123482459Y-116196895D01*
X123482459Y-116196895D02*
X123406269Y-116158800D01*
X123406269Y-116158800D02*
X123368173Y-116082609D01*
X123368173Y-116082609D02*
X123368173Y-115777847D01*
X123368173Y-115777847D02*
X123406269Y-115701657D01*
X123406269Y-115701657D02*
X123482459Y-115663561D01*
X123482459Y-115663561D02*
X123634840Y-115663561D01*
X123634840Y-115663561D02*
X123711031Y-115701657D01*
X123711031Y-115701657D02*
X123749126Y-115777847D01*
X123749126Y-115777847D02*
X123749126Y-115854038D01*
X123749126Y-115854038D02*
X123368173Y-115930228D01*
X124015792Y-115663561D02*
X124206268Y-116196895D01*
X124206268Y-116196895D02*
X124396745Y-115663561D01*
X125044364Y-115663561D02*
X125044364Y-116196895D01*
X124853888Y-115358800D02*
X124663411Y-115930228D01*
X124663411Y-115930228D02*
X125158650Y-115930228D01*
X126034840Y-115473085D02*
X126072936Y-115434990D01*
X126072936Y-115434990D02*
X126149126Y-115396895D01*
X126149126Y-115396895D02*
X126339602Y-115396895D01*
X126339602Y-115396895D02*
X126415793Y-115434990D01*
X126415793Y-115434990D02*
X126453888Y-115473085D01*
X126453888Y-115473085D02*
X126491983Y-115549276D01*
X126491983Y-115549276D02*
X126491983Y-115625466D01*
X126491983Y-115625466D02*
X126453888Y-115739752D01*
X126453888Y-115739752D02*
X125996745Y-116196895D01*
X125996745Y-116196895D02*
X126491983Y-116196895D01*
X126987222Y-115396895D02*
X127063412Y-115396895D01*
X127063412Y-115396895D02*
X127139603Y-115434990D01*
X127139603Y-115434990D02*
X127177698Y-115473085D01*
X127177698Y-115473085D02*
X127215793Y-115549276D01*
X127215793Y-115549276D02*
X127253888Y-115701657D01*
X127253888Y-115701657D02*
X127253888Y-115892133D01*
X127253888Y-115892133D02*
X127215793Y-116044514D01*
X127215793Y-116044514D02*
X127177698Y-116120704D01*
X127177698Y-116120704D02*
X127139603Y-116158800D01*
X127139603Y-116158800D02*
X127063412Y-116196895D01*
X127063412Y-116196895D02*
X126987222Y-116196895D01*
X126987222Y-116196895D02*
X126911031Y-116158800D01*
X126911031Y-116158800D02*
X126872936Y-116120704D01*
X126872936Y-116120704D02*
X126834841Y-116044514D01*
X126834841Y-116044514D02*
X126796745Y-115892133D01*
X126796745Y-115892133D02*
X126796745Y-115701657D01*
X126796745Y-115701657D02*
X126834841Y-115549276D01*
X126834841Y-115549276D02*
X126872936Y-115473085D01*
X126872936Y-115473085D02*
X126911031Y-115434990D01*
X126911031Y-115434990D02*
X126987222Y-115396895D01*
X127558650Y-115473085D02*
X127596746Y-115434990D01*
X127596746Y-115434990D02*
X127672936Y-115396895D01*
X127672936Y-115396895D02*
X127863412Y-115396895D01*
X127863412Y-115396895D02*
X127939603Y-115434990D01*
X127939603Y-115434990D02*
X127977698Y-115473085D01*
X127977698Y-115473085D02*
X128015793Y-115549276D01*
X128015793Y-115549276D02*
X128015793Y-115625466D01*
X128015793Y-115625466D02*
X127977698Y-115739752D01*
X127977698Y-115739752D02*
X127520555Y-116196895D01*
X127520555Y-116196895D02*
X128015793Y-116196895D01*
X128739603Y-115396895D02*
X128358651Y-115396895D01*
X128358651Y-115396895D02*
X128320555Y-115777847D01*
X128320555Y-115777847D02*
X128358651Y-115739752D01*
X128358651Y-115739752D02*
X128434841Y-115701657D01*
X128434841Y-115701657D02*
X128625317Y-115701657D01*
X128625317Y-115701657D02*
X128701508Y-115739752D01*
X128701508Y-115739752D02*
X128739603Y-115777847D01*
X128739603Y-115777847D02*
X128777698Y-115854038D01*
X128777698Y-115854038D02*
X128777698Y-116044514D01*
X128777698Y-116044514D02*
X128739603Y-116120704D01*
X128739603Y-116120704D02*
X128701508Y-116158800D01*
X128701508Y-116158800D02*
X128625317Y-116196895D01*
X128625317Y-116196895D02*
X128434841Y-116196895D01*
X128434841Y-116196895D02*
X128358651Y-116158800D01*
X128358651Y-116158800D02*
X128320555Y-116120704D01*
X129272937Y-115396895D02*
X129349127Y-115396895D01*
X129349127Y-115396895D02*
X129425318Y-115434990D01*
X129425318Y-115434990D02*
X129463413Y-115473085D01*
X129463413Y-115473085D02*
X129501508Y-115549276D01*
X129501508Y-115549276D02*
X129539603Y-115701657D01*
X129539603Y-115701657D02*
X129539603Y-115892133D01*
X129539603Y-115892133D02*
X129501508Y-116044514D01*
X129501508Y-116044514D02*
X129463413Y-116120704D01*
X129463413Y-116120704D02*
X129425318Y-116158800D01*
X129425318Y-116158800D02*
X129349127Y-116196895D01*
X129349127Y-116196895D02*
X129272937Y-116196895D01*
X129272937Y-116196895D02*
X129196746Y-116158800D01*
X129196746Y-116158800D02*
X129158651Y-116120704D01*
X129158651Y-116120704D02*
X129120556Y-116044514D01*
X129120556Y-116044514D02*
X129082460Y-115892133D01*
X129082460Y-115892133D02*
X129082460Y-115701657D01*
X129082460Y-115701657D02*
X129120556Y-115549276D01*
X129120556Y-115549276D02*
X129158651Y-115473085D01*
X129158651Y-115473085D02*
X129196746Y-115434990D01*
X129196746Y-115434990D02*
X129272937Y-115396895D01*
X130225318Y-115396895D02*
X130072937Y-115396895D01*
X130072937Y-115396895D02*
X129996746Y-115434990D01*
X129996746Y-115434990D02*
X129958651Y-115473085D01*
X129958651Y-115473085D02*
X129882461Y-115587371D01*
X129882461Y-115587371D02*
X129844365Y-115739752D01*
X129844365Y-115739752D02*
X129844365Y-116044514D01*
X129844365Y-116044514D02*
X129882461Y-116120704D01*
X129882461Y-116120704D02*
X129920556Y-116158800D01*
X129920556Y-116158800D02*
X129996746Y-116196895D01*
X129996746Y-116196895D02*
X130149127Y-116196895D01*
X130149127Y-116196895D02*
X130225318Y-116158800D01*
X130225318Y-116158800D02*
X130263413Y-116120704D01*
X130263413Y-116120704D02*
X130301508Y-116044514D01*
X130301508Y-116044514D02*
X130301508Y-115854038D01*
X130301508Y-115854038D02*
X130263413Y-115777847D01*
X130263413Y-115777847D02*
X130225318Y-115739752D01*
X130225318Y-115739752D02*
X130149127Y-115701657D01*
X130149127Y-115701657D02*
X129996746Y-115701657D01*
X129996746Y-115701657D02*
X129920556Y-115739752D01*
X129920556Y-115739752D02*
X129882461Y-115777847D01*
X129882461Y-115777847D02*
X129844365Y-115854038D01*
X130796747Y-115396895D02*
X130872937Y-115396895D01*
X130872937Y-115396895D02*
X130949128Y-115434990D01*
X130949128Y-115434990D02*
X130987223Y-115473085D01*
X130987223Y-115473085D02*
X131025318Y-115549276D01*
X131025318Y-115549276D02*
X131063413Y-115701657D01*
X131063413Y-115701657D02*
X131063413Y-115892133D01*
X131063413Y-115892133D02*
X131025318Y-116044514D01*
X131025318Y-116044514D02*
X130987223Y-116120704D01*
X130987223Y-116120704D02*
X130949128Y-116158800D01*
X130949128Y-116158800D02*
X130872937Y-116196895D01*
X130872937Y-116196895D02*
X130796747Y-116196895D01*
X130796747Y-116196895D02*
X130720556Y-116158800D01*
X130720556Y-116158800D02*
X130682461Y-116120704D01*
X130682461Y-116120704D02*
X130644366Y-116044514D01*
X130644366Y-116044514D02*
X130606270Y-115892133D01*
X130606270Y-115892133D02*
X130606270Y-115701657D01*
X130606270Y-115701657D02*
X130644366Y-115549276D01*
X130644366Y-115549276D02*
X130682461Y-115473085D01*
X130682461Y-115473085D02*
X130720556Y-115434990D01*
X130720556Y-115434990D02*
X130796747Y-115396895D01*
X131368175Y-115473085D02*
X131406271Y-115434990D01*
X131406271Y-115434990D02*
X131482461Y-115396895D01*
X131482461Y-115396895D02*
X131672937Y-115396895D01*
X131672937Y-115396895D02*
X131749128Y-115434990D01*
X131749128Y-115434990D02*
X131787223Y-115473085D01*
X131787223Y-115473085D02*
X131825318Y-115549276D01*
X131825318Y-115549276D02*
X131825318Y-115625466D01*
X131825318Y-115625466D02*
X131787223Y-115739752D01*
X131787223Y-115739752D02*
X131330080Y-116196895D01*
X131330080Y-116196895D02*
X131825318Y-116196895D01*
X178615789Y-88825606D02*
X178006265Y-89054178D01*
X178006265Y-89054178D02*
X178615789Y-89282749D01*
X178006265Y-90646895D02*
X178006265Y-89846895D01*
X178006265Y-89846895D02*
X178196741Y-89846895D01*
X178196741Y-89846895D02*
X178311027Y-89884990D01*
X178311027Y-89884990D02*
X178387217Y-89961180D01*
X178387217Y-89961180D02*
X178425312Y-90037371D01*
X178425312Y-90037371D02*
X178463408Y-90189752D01*
X178463408Y-90189752D02*
X178463408Y-90304038D01*
X178463408Y-90304038D02*
X178425312Y-90456419D01*
X178425312Y-90456419D02*
X178387217Y-90532609D01*
X178387217Y-90532609D02*
X178311027Y-90608800D01*
X178311027Y-90608800D02*
X178196741Y-90646895D01*
X178196741Y-90646895D02*
X178006265Y-90646895D01*
X179187217Y-90646895D02*
X178806265Y-90646895D01*
X178806265Y-90646895D02*
X178806265Y-89846895D01*
X106656265Y-113763561D02*
X106656265Y-114563561D01*
X106656265Y-113801657D02*
X106732455Y-113763561D01*
X106732455Y-113763561D02*
X106884836Y-113763561D01*
X106884836Y-113763561D02*
X106961027Y-113801657D01*
X106961027Y-113801657D02*
X106999122Y-113839752D01*
X106999122Y-113839752D02*
X107037217Y-113915942D01*
X107037217Y-113915942D02*
X107037217Y-114144514D01*
X107037217Y-114144514D02*
X106999122Y-114220704D01*
X106999122Y-114220704D02*
X106961027Y-114258800D01*
X106961027Y-114258800D02*
X106884836Y-114296895D01*
X106884836Y-114296895D02*
X106732455Y-114296895D01*
X106732455Y-114296895D02*
X106656265Y-114258800D01*
X107380075Y-114296895D02*
X107380075Y-113763561D01*
X107380075Y-113915942D02*
X107418170Y-113839752D01*
X107418170Y-113839752D02*
X107456265Y-113801657D01*
X107456265Y-113801657D02*
X107532456Y-113763561D01*
X107532456Y-113763561D02*
X107608646Y-113763561D01*
X107989598Y-114296895D02*
X107913408Y-114258800D01*
X107913408Y-114258800D02*
X107875313Y-114220704D01*
X107875313Y-114220704D02*
X107837217Y-114144514D01*
X107837217Y-114144514D02*
X107837217Y-113915942D01*
X107837217Y-113915942D02*
X107875313Y-113839752D01*
X107875313Y-113839752D02*
X107913408Y-113801657D01*
X107913408Y-113801657D02*
X107989598Y-113763561D01*
X107989598Y-113763561D02*
X108103884Y-113763561D01*
X108103884Y-113763561D02*
X108180075Y-113801657D01*
X108180075Y-113801657D02*
X108218170Y-113839752D01*
X108218170Y-113839752D02*
X108256265Y-113915942D01*
X108256265Y-113915942D02*
X108256265Y-114144514D01*
X108256265Y-114144514D02*
X108218170Y-114220704D01*
X108218170Y-114220704D02*
X108180075Y-114258800D01*
X108180075Y-114258800D02*
X108103884Y-114296895D01*
X108103884Y-114296895D02*
X107989598Y-114296895D01*
X108599123Y-113763561D02*
X108599123Y-114449276D01*
X108599123Y-114449276D02*
X108561027Y-114525466D01*
X108561027Y-114525466D02*
X108484837Y-114563561D01*
X108484837Y-114563561D02*
X108446742Y-114563561D01*
X108599123Y-113496895D02*
X108561027Y-113534990D01*
X108561027Y-113534990D02*
X108599123Y-113573085D01*
X108599123Y-113573085D02*
X108637218Y-113534990D01*
X108637218Y-113534990D02*
X108599123Y-113496895D01*
X108599123Y-113496895D02*
X108599123Y-113573085D01*
X109284837Y-114258800D02*
X109208646Y-114296895D01*
X109208646Y-114296895D02*
X109056265Y-114296895D01*
X109056265Y-114296895D02*
X108980075Y-114258800D01*
X108980075Y-114258800D02*
X108941979Y-114182609D01*
X108941979Y-114182609D02*
X108941979Y-113877847D01*
X108941979Y-113877847D02*
X108980075Y-113801657D01*
X108980075Y-113801657D02*
X109056265Y-113763561D01*
X109056265Y-113763561D02*
X109208646Y-113763561D01*
X109208646Y-113763561D02*
X109284837Y-113801657D01*
X109284837Y-113801657D02*
X109322932Y-113877847D01*
X109322932Y-113877847D02*
X109322932Y-113954038D01*
X109322932Y-113954038D02*
X108941979Y-114030228D01*
X110008646Y-114258800D02*
X109932455Y-114296895D01*
X109932455Y-114296895D02*
X109780074Y-114296895D01*
X109780074Y-114296895D02*
X109703884Y-114258800D01*
X109703884Y-114258800D02*
X109665789Y-114220704D01*
X109665789Y-114220704D02*
X109627693Y-114144514D01*
X109627693Y-114144514D02*
X109627693Y-113915942D01*
X109627693Y-113915942D02*
X109665789Y-113839752D01*
X109665789Y-113839752D02*
X109703884Y-113801657D01*
X109703884Y-113801657D02*
X109780074Y-113763561D01*
X109780074Y-113763561D02*
X109932455Y-113763561D01*
X109932455Y-113763561D02*
X110008646Y-113801657D01*
X110237217Y-113763561D02*
X110541979Y-113763561D01*
X110351503Y-113496895D02*
X110351503Y-114182609D01*
X110351503Y-114182609D02*
X110389598Y-114258800D01*
X110389598Y-114258800D02*
X110465788Y-114296895D01*
X110465788Y-114296895D02*
X110541979Y-114296895D01*
D12*
X146758571Y-95033200D02*
X146901428Y-95080819D01*
X146901428Y-95080819D02*
X147139523Y-95080819D01*
X147139523Y-95080819D02*
X147234761Y-95033200D01*
X147234761Y-95033200D02*
X147282380Y-94985580D01*
X147282380Y-94985580D02*
X147329999Y-94890342D01*
X147329999Y-94890342D02*
X147329999Y-94795104D01*
X147329999Y-94795104D02*
X147282380Y-94699866D01*
X147282380Y-94699866D02*
X147234761Y-94652247D01*
X147234761Y-94652247D02*
X147139523Y-94604628D01*
X147139523Y-94604628D02*
X146949047Y-94557009D01*
X146949047Y-94557009D02*
X146853809Y-94509390D01*
X146853809Y-94509390D02*
X146806190Y-94461771D01*
X146806190Y-94461771D02*
X146758571Y-94366533D01*
X146758571Y-94366533D02*
X146758571Y-94271295D01*
X146758571Y-94271295D02*
X146806190Y-94176057D01*
X146806190Y-94176057D02*
X146853809Y-94128438D01*
X146853809Y-94128438D02*
X146949047Y-94080819D01*
X146949047Y-94080819D02*
X147187142Y-94080819D01*
X147187142Y-94080819D02*
X147329999Y-94128438D01*
X147663333Y-94080819D02*
X147901428Y-95080819D01*
X147901428Y-95080819D02*
X148091904Y-94366533D01*
X148091904Y-94366533D02*
X148282380Y-95080819D01*
X148282380Y-95080819D02*
X148520476Y-94080819D01*
X148663333Y-95176057D02*
X149425237Y-95176057D01*
X150187142Y-95080819D02*
X149615714Y-95080819D01*
X149901428Y-95080819D02*
X149901428Y-94080819D01*
X149901428Y-94080819D02*
X149806190Y-94223676D01*
X149806190Y-94223676D02*
X149710952Y-94318914D01*
X149710952Y-94318914D02*
X149615714Y-94366533D01*
X150377619Y-95176057D02*
X151139523Y-95176057D01*
X151282381Y-94080819D02*
X151901428Y-94080819D01*
X151901428Y-94080819D02*
X151568095Y-94461771D01*
X151568095Y-94461771D02*
X151710952Y-94461771D01*
X151710952Y-94461771D02*
X151806190Y-94509390D01*
X151806190Y-94509390D02*
X151853809Y-94557009D01*
X151853809Y-94557009D02*
X151901428Y-94652247D01*
X151901428Y-94652247D02*
X151901428Y-94890342D01*
X151901428Y-94890342D02*
X151853809Y-94985580D01*
X151853809Y-94985580D02*
X151806190Y-95033200D01*
X151806190Y-95033200D02*
X151710952Y-95080819D01*
X151710952Y-95080819D02*
X151425238Y-95080819D01*
X151425238Y-95080819D02*
X151330000Y-95033200D01*
X151330000Y-95033200D02*
X151282381Y-94985580D01*
X107758571Y-95033200D02*
X107901428Y-95080819D01*
X107901428Y-95080819D02*
X108139523Y-95080819D01*
X108139523Y-95080819D02*
X108234761Y-95033200D01*
X108234761Y-95033200D02*
X108282380Y-94985580D01*
X108282380Y-94985580D02*
X108329999Y-94890342D01*
X108329999Y-94890342D02*
X108329999Y-94795104D01*
X108329999Y-94795104D02*
X108282380Y-94699866D01*
X108282380Y-94699866D02*
X108234761Y-94652247D01*
X108234761Y-94652247D02*
X108139523Y-94604628D01*
X108139523Y-94604628D02*
X107949047Y-94557009D01*
X107949047Y-94557009D02*
X107853809Y-94509390D01*
X107853809Y-94509390D02*
X107806190Y-94461771D01*
X107806190Y-94461771D02*
X107758571Y-94366533D01*
X107758571Y-94366533D02*
X107758571Y-94271295D01*
X107758571Y-94271295D02*
X107806190Y-94176057D01*
X107806190Y-94176057D02*
X107853809Y-94128438D01*
X107853809Y-94128438D02*
X107949047Y-94080819D01*
X107949047Y-94080819D02*
X108187142Y-94080819D01*
X108187142Y-94080819D02*
X108329999Y-94128438D01*
X108663333Y-94080819D02*
X108901428Y-95080819D01*
X108901428Y-95080819D02*
X109091904Y-94366533D01*
X109091904Y-94366533D02*
X109282380Y-95080819D01*
X109282380Y-95080819D02*
X109520476Y-94080819D01*
X109663333Y-95176057D02*
X110425237Y-95176057D01*
X111187142Y-95080819D02*
X110615714Y-95080819D01*
X110901428Y-95080819D02*
X110901428Y-94080819D01*
X110901428Y-94080819D02*
X110806190Y-94223676D01*
X110806190Y-94223676D02*
X110710952Y-94318914D01*
X110710952Y-94318914D02*
X110615714Y-94366533D01*
X111377619Y-95176057D02*
X112139523Y-95176057D01*
X112901428Y-95080819D02*
X112330000Y-95080819D01*
X112615714Y-95080819D02*
X112615714Y-94080819D01*
X112615714Y-94080819D02*
X112520476Y-94223676D01*
X112520476Y-94223676D02*
X112425238Y-94318914D01*
X112425238Y-94318914D02*
X112330000Y-94366533D01*
X166258571Y-95033200D02*
X166401428Y-95080819D01*
X166401428Y-95080819D02*
X166639523Y-95080819D01*
X166639523Y-95080819D02*
X166734761Y-95033200D01*
X166734761Y-95033200D02*
X166782380Y-94985580D01*
X166782380Y-94985580D02*
X166829999Y-94890342D01*
X166829999Y-94890342D02*
X166829999Y-94795104D01*
X166829999Y-94795104D02*
X166782380Y-94699866D01*
X166782380Y-94699866D02*
X166734761Y-94652247D01*
X166734761Y-94652247D02*
X166639523Y-94604628D01*
X166639523Y-94604628D02*
X166449047Y-94557009D01*
X166449047Y-94557009D02*
X166353809Y-94509390D01*
X166353809Y-94509390D02*
X166306190Y-94461771D01*
X166306190Y-94461771D02*
X166258571Y-94366533D01*
X166258571Y-94366533D02*
X166258571Y-94271295D01*
X166258571Y-94271295D02*
X166306190Y-94176057D01*
X166306190Y-94176057D02*
X166353809Y-94128438D01*
X166353809Y-94128438D02*
X166449047Y-94080819D01*
X166449047Y-94080819D02*
X166687142Y-94080819D01*
X166687142Y-94080819D02*
X166829999Y-94128438D01*
X167163333Y-94080819D02*
X167401428Y-95080819D01*
X167401428Y-95080819D02*
X167591904Y-94366533D01*
X167591904Y-94366533D02*
X167782380Y-95080819D01*
X167782380Y-95080819D02*
X168020476Y-94080819D01*
X168163333Y-95176057D02*
X168925237Y-95176057D01*
X169687142Y-95080819D02*
X169115714Y-95080819D01*
X169401428Y-95080819D02*
X169401428Y-94080819D01*
X169401428Y-94080819D02*
X169306190Y-94223676D01*
X169306190Y-94223676D02*
X169210952Y-94318914D01*
X169210952Y-94318914D02*
X169115714Y-94366533D01*
X169877619Y-95176057D02*
X170639523Y-95176057D01*
X171306190Y-94414152D02*
X171306190Y-95080819D01*
X171068095Y-94033200D02*
X170830000Y-94747485D01*
X170830000Y-94747485D02*
X171449047Y-94747485D01*
X127258571Y-95033200D02*
X127401428Y-95080819D01*
X127401428Y-95080819D02*
X127639523Y-95080819D01*
X127639523Y-95080819D02*
X127734761Y-95033200D01*
X127734761Y-95033200D02*
X127782380Y-94985580D01*
X127782380Y-94985580D02*
X127829999Y-94890342D01*
X127829999Y-94890342D02*
X127829999Y-94795104D01*
X127829999Y-94795104D02*
X127782380Y-94699866D01*
X127782380Y-94699866D02*
X127734761Y-94652247D01*
X127734761Y-94652247D02*
X127639523Y-94604628D01*
X127639523Y-94604628D02*
X127449047Y-94557009D01*
X127449047Y-94557009D02*
X127353809Y-94509390D01*
X127353809Y-94509390D02*
X127306190Y-94461771D01*
X127306190Y-94461771D02*
X127258571Y-94366533D01*
X127258571Y-94366533D02*
X127258571Y-94271295D01*
X127258571Y-94271295D02*
X127306190Y-94176057D01*
X127306190Y-94176057D02*
X127353809Y-94128438D01*
X127353809Y-94128438D02*
X127449047Y-94080819D01*
X127449047Y-94080819D02*
X127687142Y-94080819D01*
X127687142Y-94080819D02*
X127829999Y-94128438D01*
X128163333Y-94080819D02*
X128401428Y-95080819D01*
X128401428Y-95080819D02*
X128591904Y-94366533D01*
X128591904Y-94366533D02*
X128782380Y-95080819D01*
X128782380Y-95080819D02*
X129020476Y-94080819D01*
X129163333Y-95176057D02*
X129925237Y-95176057D01*
X130687142Y-95080819D02*
X130115714Y-95080819D01*
X130401428Y-95080819D02*
X130401428Y-94080819D01*
X130401428Y-94080819D02*
X130306190Y-94223676D01*
X130306190Y-94223676D02*
X130210952Y-94318914D01*
X130210952Y-94318914D02*
X130115714Y-94366533D01*
X130877619Y-95176057D02*
X131639523Y-95176057D01*
X131830000Y-94176057D02*
X131877619Y-94128438D01*
X131877619Y-94128438D02*
X131972857Y-94080819D01*
X131972857Y-94080819D02*
X132210952Y-94080819D01*
X132210952Y-94080819D02*
X132306190Y-94128438D01*
X132306190Y-94128438D02*
X132353809Y-94176057D01*
X132353809Y-94176057D02*
X132401428Y-94271295D01*
X132401428Y-94271295D02*
X132401428Y-94366533D01*
X132401428Y-94366533D02*
X132353809Y-94509390D01*
X132353809Y-94509390D02*
X131782381Y-95080819D01*
X131782381Y-95080819D02*
X132401428Y-95080819D01*
D13*
%TO.C,SW_1_3*%
X142345000Y-95515000D02*
X156315000Y-95515000D01*
X142345000Y-109485000D02*
X142345000Y-95515000D01*
X156315000Y-95515000D02*
X156315000Y-109485000D01*
X156315000Y-109485000D02*
X142345000Y-109485000D01*
%TO.C,SW_1_1*%
X103345000Y-95515000D02*
X117315000Y-95515000D01*
X103345000Y-109485000D02*
X103345000Y-95515000D01*
X117315000Y-95515000D02*
X117315000Y-109485000D01*
X117315000Y-109485000D02*
X103345000Y-109485000D01*
%TO.C,L_1_2*%
X128165000Y-106040000D02*
X128165000Y-107960000D01*
X128165000Y-107960000D02*
X130850000Y-107960000D01*
X130850000Y-106040000D02*
X128165000Y-106040000D01*
%TO.C,D1*%
X190900000Y-94885000D02*
X194785000Y-94885000D01*
X194785000Y-92615000D02*
X190900000Y-92615000D01*
X194785000Y-94885000D02*
X194785000Y-92615000D01*
%TO.C,R5*%
X177110436Y-92265000D02*
X177564564Y-92265000D01*
X177110436Y-93735000D02*
X177564564Y-93735000D01*
%TO.C,R_1_2*%
X139393641Y-106620000D02*
X139086359Y-106620000D01*
X139393641Y-107380000D02*
X139086359Y-107380000D01*
%TO.C,R16*%
X173522936Y-92265000D02*
X173977064Y-92265000D01*
X173522936Y-93735000D02*
X173977064Y-93735000D01*
%TO.C,R3*%
X177814564Y-98015000D02*
X177360436Y-98015000D01*
X177814564Y-99485000D02*
X177360436Y-99485000D01*
%TO.C,R2*%
X177360436Y-96015000D02*
X177814564Y-96015000D01*
X177360436Y-97485000D02*
X177814564Y-97485000D01*
D14*
%TO.C,SW3*%
X180400000Y-95900000D02*
X193600000Y-95900000D01*
X180400000Y-100807163D02*
X180400000Y-95900000D01*
X180400000Y-109100000D02*
X180400000Y-104192838D01*
X183776632Y-109100000D02*
X180400000Y-109100000D01*
X184750013Y-101500000D02*
X189250013Y-101500000D01*
X185250013Y-100750013D02*
X188750013Y-100750013D01*
X186316637Y-109100000D02*
X185143358Y-109100000D01*
X188856642Y-109100000D02*
X187683363Y-109100000D01*
X193500000Y-95900000D02*
X193600000Y-95900000D01*
X193600000Y-100807163D02*
X193600000Y-95900000D01*
X193600000Y-109100000D02*
X190223368Y-109100000D01*
X193600000Y-109100000D02*
X193600000Y-104192838D01*
X184750012Y-101500002D02*
G75*
G02*
X189250013Y-101500000I2250001J-1028958D01*
G01*
X185250013Y-100750013D02*
G75*
G02*
X188750013Y-100750013I1750000J-1509024D01*
G01*
D15*
X179780061Y-110900128D02*
G75*
G02*
X179720067Y-110900128I-29997J0D01*
G01*
X179720067Y-110900128D02*
G75*
G02*
X179780061Y-110900128I29997J0D01*
G01*
D14*
X183801372Y-97399924D02*
G75*
G02*
X181998476Y-97399924I-901448J0D01*
G01*
X181998476Y-97399924D02*
G75*
G02*
X183801372Y-97399924I901448J0D01*
G01*
X183801372Y-107600077D02*
G75*
G02*
X181998476Y-107600077I-901448J0D01*
G01*
X181998476Y-107600077D02*
G75*
G02*
X183801372Y-107600077I901448J0D01*
G01*
X190500127Y-102500000D02*
G75*
G02*
X183499873Y-102500000I-3500127J0D01*
G01*
X183499873Y-102500000D02*
G75*
G02*
X190500127Y-102500000I3500127J0D01*
G01*
X190004064Y-102501525D02*
G75*
G02*
X184000000Y-102501525I-3002032J0D01*
G01*
X184000000Y-102501525D02*
G75*
G02*
X190004064Y-102501525I3002032J0D01*
G01*
X192001524Y-97399924D02*
G75*
G02*
X190198628Y-97399924I-901448J0D01*
G01*
X190198628Y-97399924D02*
G75*
G02*
X192001524Y-97399924I901448J0D01*
G01*
X192001524Y-107600077D02*
G75*
G02*
X190198628Y-107600077I-901448J0D01*
G01*
X190198628Y-107600077D02*
G75*
G02*
X192001524Y-107600077I901448J0D01*
G01*
D13*
%TO.C,SW2*%
X173350000Y-88600000D02*
X173350000Y-88900000D01*
X173350000Y-91400000D02*
X173350000Y-91100000D01*
X176650000Y-88600000D02*
X173350000Y-88600000D01*
X176650000Y-88900000D02*
X176650000Y-88600000D01*
X176650000Y-91100000D02*
X176650000Y-91400000D01*
X176650000Y-91400000D02*
X173350000Y-91400000D01*
%TO.C,J3*%
X179580000Y-114370000D02*
X179580000Y-117130000D01*
X187310000Y-114370000D02*
X179580000Y-114370000D01*
X187310000Y-114370000D02*
X187310000Y-117130000D01*
X187310000Y-117130000D02*
X179580000Y-117130000D01*
X188580000Y-114370000D02*
X189960000Y-114370000D01*
X189960000Y-114370000D02*
X189960000Y-115750000D01*
%TO.C,R1*%
X170022936Y-92265000D02*
X170477064Y-92265000D01*
X170022936Y-93735000D02*
X170477064Y-93735000D01*
%TO.C,R_1_1*%
X120163641Y-106620000D02*
X119856359Y-106620000D01*
X120163641Y-107380000D02*
X119856359Y-107380000D01*
%TO.C,J2*%
X171855000Y-114370000D02*
X171855000Y-117130000D01*
X174505000Y-114370000D02*
X171855000Y-114370000D01*
X174505000Y-114370000D02*
X174505000Y-117130000D01*
X174505000Y-117130000D02*
X171855000Y-117130000D01*
X175775000Y-114370000D02*
X177155000Y-114370000D01*
X177155000Y-114370000D02*
X177155000Y-115750000D01*
%TO.C,L_1_3*%
X147665000Y-106040000D02*
X147665000Y-107960000D01*
X147665000Y-107960000D02*
X150350000Y-107960000D01*
X150350000Y-106040000D02*
X147665000Y-106040000D01*
%TO.C,SW_1_4*%
X161845000Y-95515000D02*
X175815000Y-95515000D01*
X161845000Y-109485000D02*
X161845000Y-95515000D01*
X175815000Y-95515000D02*
X175815000Y-109485000D01*
X175815000Y-109485000D02*
X161845000Y-109485000D01*
%TO.C,L_1_1*%
X108665000Y-106040000D02*
X108665000Y-107960000D01*
X108665000Y-107960000D02*
X111350000Y-107960000D01*
X111350000Y-106040000D02*
X108665000Y-106040000D01*
%TO.C,SW1*%
X168350000Y-88600000D02*
X171650000Y-88600000D01*
X168350000Y-88900000D02*
X168350000Y-88600000D01*
X168350000Y-91100000D02*
X168350000Y-91400000D01*
X168350000Y-91400000D02*
X171650000Y-91400000D01*
X171650000Y-88600000D02*
X171650000Y-88900000D01*
X171650000Y-91400000D02*
X171650000Y-91100000D01*
%TO.C,R_1_3*%
X157653641Y-106620000D02*
X157346359Y-106620000D01*
X157653641Y-107380000D02*
X157346359Y-107380000D01*
%TO.C,D_1_5*%
X180390000Y-111500000D02*
X180390000Y-113500000D01*
X180390000Y-111500000D02*
X184400000Y-111500000D01*
X180390000Y-113500000D02*
X184400000Y-113500000D01*
%TO.C,SW_1_2*%
X122845000Y-95515000D02*
X136815000Y-95515000D01*
X122845000Y-109485000D02*
X122845000Y-95515000D01*
X136815000Y-95515000D02*
X136815000Y-109485000D01*
X136815000Y-109485000D02*
X122845000Y-109485000D01*
%TO.C,D_1_6*%
X185390000Y-111500000D02*
X185390000Y-113500000D01*
X185390000Y-111500000D02*
X189400000Y-111500000D01*
X185390000Y-113500000D02*
X189400000Y-113500000D01*
%TO.C,J1*%
X180050000Y-87900000D02*
X180050000Y-86000000D01*
X180050000Y-91800000D02*
X180050000Y-89800000D01*
X189450000Y-86000000D02*
X180050000Y-86000000D01*
X189450000Y-87900000D02*
X189450000Y-86000000D01*
X189450000Y-91800000D02*
X189450000Y-89800000D01*
%TO.C,L_1_4*%
X167165000Y-106040000D02*
X167165000Y-107960000D01*
X167165000Y-107960000D02*
X169850000Y-107960000D01*
X169850000Y-106040000D02*
X167165000Y-106040000D01*
%TO.C,R_1_4*%
X160596359Y-106620000D02*
X160903641Y-106620000D01*
X160596359Y-107380000D02*
X160903641Y-107380000D01*
%TD*%
M02*
