M48
; DRILL file {KiCad 9.0.2} date 2025-05-22T15:05:24+0800
; FORMAT={-:-/ absolute / inch / decimal}
; #@! TF.CreationDate,2025-05-22T15:05:24+08:00
; #@! TF.GenerationSoftware,Kicad,Pcbnew,9.0.2
; #@! TF.FileFunction,Plated,1,2,PTH
FMAT,2
INCH
; #@! TA.AperFunction,Plated,PTH,ViaDrill
T1C0.0118
; #@! TA.AperFunction,Plated,PTH,ViaDrill
T2C0.0157
; #@! TA.AperFunction,Plated,PTH,ComponentDrill
T3C0.0236
; #@! TA.AperFunction,Plated,PTH,ComponentDrill
T4C0.0394
; #@! TA.AperFunction,Plated,PTH,ComponentDrill
T5C0.0472
; #@! TA.AperFunction,Plated,PTH,ComponentDrill
T6C0.0591
; #@! TA.AperFunction,Plated,PTH,ComponentDrill
T7C0.0906
%
G90
G05
T1
X3.78Y-3.82
X3.78Y-4.02
X3.92Y-4.26
X3.96Y-3.6
X4.02Y-4.06
X4.16Y-3.8
X4.18Y-3.58
X4.2Y-4.28
X4.36Y-4.12
X4.4Y-3.76
X4.6Y-4.1
X4.76Y-3.8
X4.88Y-4.24
X4.92Y-4.14
X4.98Y-3.82
X5.0492Y-4.1043
X5.06Y-3.58
X5.12Y-3.76
X5.22Y-4.04
X5.3Y-3.7
X5.34Y-3.8
X5.42Y-4.24
X5.48Y-4.08
X5.52Y-3.6319
X5.52Y-3.82
X5.5271Y-4.0471
X5.54Y-3.6
X5.58Y-4.1
X5.61Y-3.6319
X5.6501Y-3.84
X5.66Y-3.72
X5.6802Y-3.9202
X5.7019Y-4.0581
X5.72Y-3.96
X5.7682Y-3.9567
X5.78Y-4.06
X5.78Y-4.2421
X5.7963Y-4.2687
X5.82Y-3.8
X5.84Y-3.66
X5.843Y-4.2934
X5.87Y-4.06
X5.94Y-3.6
X5.9793Y-4.2372
X5.98Y-4.2
X5.9981Y-4.0781
X6.0Y-4.04
X6.02Y-3.68
X6.0322Y-3.9278
X6.0369Y-3.8
X6.06Y-4.16
X6.0823Y-3.8
X6.0827Y-4.3111
X6.12Y-3.6
X6.198Y-4.1719
X6.2Y-4.14
X6.24Y-4.1319
X6.28Y-4.03
X6.38Y-3.58
X6.38Y-3.78
X6.394Y-4.214
X6.46Y-4.04
X6.64Y-3.72
X6.64Y-3.96
X6.7Y-3.6
X6.86Y-4.22
X6.8889Y-4.07
X6.89Y-3.6516
X6.9Y-3.62
X6.94Y-3.96
X6.95Y-3.7303
X7.12Y-3.58
X7.12Y-3.72
X7.14Y-3.82
X7.14Y-4.06
X7.38Y-4.28
X7.4Y-3.58
X7.48Y-4.08
X7.54Y-3.86
X7.56Y-3.7
T2
X5.78Y-4.1703
X5.8534Y-3.9339
X6.0183Y-4.2313
X6.1682Y-3.9882
X7.0965Y-4.1447
T4
X6.9933Y-4.2421
X7.0933Y-4.2421
X7.1933Y-4.2421
X7.2026Y-3.6417
X7.2933Y-4.2421
X7.3026Y-3.6417
T5
X6.5043Y-4.2224
X6.6043Y-4.2224
X6.7043Y-4.2224
T6
X4.0134Y-3.837
X4.2634Y-3.737
X4.6008Y-3.837
X4.8508Y-3.737
X5.1913Y-3.837
X5.4413Y-3.737
T3
G00X5.9023Y-3.6732
M15
G01X5.9023Y-3.6495
M16
G05
G00X5.9023Y-3.8476
M15
G01X5.9023Y-3.8043
M16
G05
G00X6.2425Y-3.6732
M15
G01X6.2425Y-3.6495
M16
G05
G00X6.2425Y-3.8476
M15
G01X6.2425Y-3.8043
M16
G05
T7
G00X6.3839Y-3.9311
M15
G01X6.3839Y-3.9233
M16
G05
G00X6.8248Y-3.9311
M15
G01X6.8248Y-3.9233
M16
G05
M30
