%TF.GenerationSoftware,KiCad,Pcbnew,9.0.2*%
%TF.CreationDate,2025-05-22T15:05:22+08:00*%
%TF.ProjectId,tsubaki_lite,74737562-616b-4695-9f6c-6974652e6b69,2025.4*%
%TF.SameCoordinates,Original*%
%TF.FileFunction,Copper,L1,Top*%
%TF.FilePolarity,Positive*%
%FSLAX46Y46*%
G04 Gerber Fmt 4.6, Leading zero omitted, Abs format (unit mm)*
G04 Created by KiCad (PCBNEW 9.0.2) date 2025-05-22 15:05:22*
%MOMM*%
%LPD*%
G01*
G04 APERTURE LIST*
G04 Aperture macros list*
%AMRoundRect*
0 Rectangle with rounded corners*
0 $1 Rounding radius*
0 $2 $3 $4 $5 $6 $7 $8 $9 X,Y pos of 4 corners*
0 Add a 4 corners polygon primitive as box body*
4,1,4,$2,$3,$4,$5,$6,$7,$8,$9,$2,$3,0*
0 Add four circle primitives for the rounded corners*
1,1,$1+$1,$2,$3*
1,1,$1+$1,$4,$5*
1,1,$1+$1,$6,$7*
1,1,$1+$1,$8,$9*
0 Add four rect primitives between the rounded corners*
20,1,$1+$1,$2,$3,$4,$5,0*
20,1,$1+$1,$4,$5,$6,$7,0*
20,1,$1+$1,$6,$7,$8,$9,0*
20,1,$1+$1,$8,$9,$2,$3,0*%
G04 Aperture macros list end*
%TA.AperFunction,SMDPad,CuDef*%
%ADD10R,0.600000X1.450000*%
%TD*%
%TA.AperFunction,SMDPad,CuDef*%
%ADD11R,0.300000X1.450000*%
%TD*%
%TA.AperFunction,HeatsinkPad*%
%ADD12O,1.000000X2.100000*%
%TD*%
%TA.AperFunction,HeatsinkPad*%
%ADD13O,1.000000X1.600000*%
%TD*%
%TA.AperFunction,SMDPad,CuDef*%
%ADD14RoundRect,0.135000X-0.185000X0.135000X-0.185000X-0.135000X0.185000X-0.135000X0.185000X0.135000X0*%
%TD*%
%TA.AperFunction,SMDPad,CuDef*%
%ADD15RoundRect,0.135000X0.185000X-0.135000X0.185000X0.135000X-0.185000X0.135000X-0.185000X-0.135000X0*%
%TD*%
%TA.AperFunction,SMDPad,CuDef*%
%ADD16RoundRect,0.100000X-0.637500X-0.100000X0.637500X-0.100000X0.637500X0.100000X-0.637500X0.100000X0*%
%TD*%
%TA.AperFunction,SMDPad,CuDef*%
%ADD17RoundRect,0.250000X0.325000X0.450000X-0.325000X0.450000X-0.325000X-0.450000X0.325000X-0.450000X0*%
%TD*%
%TA.AperFunction,SMDPad,CuDef*%
%ADD18RoundRect,0.135000X0.135000X0.185000X-0.135000X0.185000X-0.135000X-0.185000X0.135000X-0.185000X0*%
%TD*%
%TA.AperFunction,SMDPad,CuDef*%
%ADD19RoundRect,0.140000X-0.170000X0.140000X-0.170000X-0.140000X0.170000X-0.140000X0.170000X0.140000X0*%
%TD*%
%TA.AperFunction,SMDPad,CuDef*%
%ADD20R,1.700000X0.900000*%
%TD*%
%TA.AperFunction,ComponentPad*%
%ADD21C,2.200000*%
%TD*%
%TA.AperFunction,ComponentPad*%
%ADD22R,1.700000X1.700000*%
%TD*%
%TA.AperFunction,ComponentPad*%
%ADD23C,1.700000*%
%TD*%
%TA.AperFunction,SMDPad,CuDef*%
%ADD24RoundRect,0.150000X0.150000X-0.587500X0.150000X0.587500X-0.150000X0.587500X-0.150000X-0.587500X0*%
%TD*%
%TA.AperFunction,SMDPad,CuDef*%
%ADD25RoundRect,0.250000X-0.625000X0.375000X-0.625000X-0.375000X0.625000X-0.375000X0.625000X0.375000X0*%
%TD*%
%TA.AperFunction,SMDPad,CuDef*%
%ADD26RoundRect,0.225000X-0.225000X-0.375000X0.225000X-0.375000X0.225000X0.375000X-0.225000X0.375000X0*%
%TD*%
%TA.AperFunction,SMDPad,CuDef*%
%ADD27RoundRect,0.225000X0.225000X0.375000X-0.225000X0.375000X-0.225000X-0.375000X0.225000X-0.375000X0*%
%TD*%
%TA.AperFunction,SMDPad,CuDef*%
%ADD28RoundRect,0.150000X0.587500X0.150000X-0.587500X0.150000X-0.587500X-0.150000X0.587500X-0.150000X0*%
%TD*%
%TA.AperFunction,SMDPad,CuDef*%
%ADD29RoundRect,0.140000X-0.140000X-0.170000X0.140000X-0.170000X0.140000X0.170000X-0.140000X0.170000X0*%
%TD*%
%TA.AperFunction,SMDPad,CuDef*%
%ADD30RoundRect,0.135000X-0.135000X-0.185000X0.135000X-0.185000X0.135000X0.185000X-0.135000X0.185000X0*%
%TD*%
%TA.AperFunction,ComponentPad*%
%ADD31C,1.800000*%
%TD*%
%TA.AperFunction,ComponentPad*%
%ADD32O,3.300000X3.500000*%
%TD*%
%TA.AperFunction,ViaPad*%
%ADD33C,0.500000*%
%TD*%
%TA.AperFunction,ViaPad*%
%ADD34C,0.800000*%
%TD*%
%TA.AperFunction,Conductor*%
%ADD35C,0.250000*%
%TD*%
%TA.AperFunction,Conductor*%
%ADD36C,0.304800*%
%TD*%
%TA.AperFunction,Conductor*%
%ADD37C,0.508000*%
%TD*%
%TA.AperFunction,Conductor*%
%ADD38C,0.381000*%
%TD*%
%TA.AperFunction,Conductor*%
%ADD39C,0.406400*%
%TD*%
G04 APERTURE END LIST*
D10*
%TO.P,J1,A1,GND*%
%TO.N,GND*%
X157489248Y-98093130D03*
%TO.P,J1,A4,VBUS*%
%TO.N,VDD*%
X156689248Y-98093130D03*
D11*
%TO.P,J1,A5,CC1*%
%TO.N,Net-(J1-CC1)*%
X155489248Y-98093130D03*
%TO.P,J1,A6,D+*%
%TO.N,/DP*%
X154489248Y-98093130D03*
%TO.P,J1,A7,D-*%
%TO.N,/DM*%
X153989248Y-98093130D03*
%TO.P,J1,A8,SBU1*%
%TO.N,unconnected-(J1-SBU1-PadA8)*%
X152989248Y-98093130D03*
D10*
%TO.P,J1,A9,VBUS*%
%TO.N,VDD*%
X151789248Y-98093130D03*
%TO.P,J1,A12,GND*%
%TO.N,GND*%
X150989248Y-98093130D03*
%TO.P,J1,B1,GND*%
X150989248Y-98093130D03*
%TO.P,J1,B4,VBUS*%
%TO.N,VDD*%
X151789248Y-98093130D03*
D11*
%TO.P,J1,B5,CC2*%
%TO.N,Net-(J1-CC2)*%
X152489248Y-98093130D03*
%TO.P,J1,B6,D+*%
%TO.N,/DP*%
X153489248Y-98093130D03*
%TO.P,J1,B7,D-*%
%TO.N,/DM*%
X154989248Y-98093130D03*
%TO.P,J1,B8,SBU2*%
%TO.N,unconnected-(J1-SBU2-PadB8)*%
X155989248Y-98093130D03*
D10*
%TO.P,J1,B9,VBUS*%
%TO.N,VDD*%
X156689248Y-98093130D03*
%TO.P,J1,B12,GND*%
%TO.N,GND*%
X157489248Y-98093130D03*
D12*
%TO.P,J1,S1,SHIELD*%
X158559248Y-97178130D03*
D13*
X158559248Y-92998130D03*
D12*
X149919248Y-97178130D03*
D13*
X149919248Y-92998130D03*
%TD*%
D14*
%TO.P,R3,2*%
%TO.N,GND*%
X155500000Y-101510000D03*
%TO.P,R3,1*%
%TO.N,Net-(J1-CC1)*%
X155500000Y-100490000D03*
%TD*%
D15*
%TO.P,R15,2*%
%TO.N,/ROT_DOWN*%
X158500000Y-107990000D03*
%TO.P,R15,1*%
%TO.N,GND*%
X158500000Y-109010000D03*
%TD*%
D16*
%TO.P,U1,20,PA5*%
%TO.N,unconnected-(U1-PA5-Pad20)*%
X155862500Y-103075000D03*
%TO.P,U1,19,PA4*%
%TO.N,/ROW1*%
X155862500Y-103725000D03*
%TO.P,U1,18,PC19*%
%TO.N,/DCK*%
X155862500Y-104375000D03*
%TO.P,U1,17,PA3*%
%TO.N,/RX*%
X155862500Y-105025000D03*
%TO.P,U1,16,PA2*%
%TO.N,/TX*%
X155862500Y-105675000D03*
%TO.P,U1,15,PA1*%
%TO.N,/LED_CTRL*%
X155862500Y-106325000D03*
%TO.P,U1,14,PA0*%
%TO.N,/ROT_UP*%
X155862500Y-106975000D03*
%TO.P,U1,13,PC3*%
%TO.N,/ROT_DOWN*%
X155862500Y-107625000D03*
%TO.P,U1,12,PA10*%
%TO.N,unconnected-(U1-PA10-Pad12)*%
X155862500Y-108275000D03*
%TO.P,U1,11,PA11*%
%TO.N,unconnected-(U1-PA11-Pad11)*%
X155862500Y-108925000D03*
%TO.P,U1,10,PA9*%
%TO.N,/COL3*%
X150137500Y-108925000D03*
%TO.P,U1,9,VDD*%
%TO.N,VDD*%
X150137500Y-108275000D03*
%TO.P,U1,8,PC18*%
%TO.N,/DIO*%
X150137500Y-107625000D03*
%TO.P,U1,7,GND*%
%TO.N,GND*%
X150137500Y-106975000D03*
%TO.P,U1,6,PC17*%
%TO.N,/DP*%
X150137500Y-106325000D03*
%TO.P,U1,5,PC16*%
%TO.N,/DM*%
X150137500Y-105675000D03*
%TO.P,U1,4,PB7*%
%TO.N,/RESET*%
X150137500Y-105025000D03*
%TO.P,U1,3,PB1*%
%TO.N,/COL1*%
X150137500Y-104375000D03*
%TO.P,U1,2,PA7*%
%TO.N,unconnected-(U1-PA7-Pad2)*%
X150137500Y-103725000D03*
%TO.P,U1,1,PA6*%
%TO.N,/COL2*%
X150137500Y-103075000D03*
%TD*%
D15*
%TO.P,R_1_3,1*%
%TO.N,VDD*%
X134874000Y-108716000D03*
%TO.P,R_1_3,2*%
%TO.N,Net-(L_1_3-A)*%
X134874000Y-107696000D03*
%TD*%
%TO.P,R16,1*%
%TO.N,GND*%
X176210000Y-93770100D03*
%TO.P,R16,2*%
%TO.N,/DP*%
X176210000Y-92750100D03*
%TD*%
D17*
%TO.P,L_1_1,1,K*%
%TO.N,Net-(L_1_1-K)*%
X106775000Y-104250000D03*
%TO.P,L_1_1,2,A*%
%TO.N,Net-(L_1_1-A)*%
X104725000Y-104250000D03*
%TD*%
D18*
%TO.P,R8,1*%
%TO.N,GND*%
X152260000Y-101750100D03*
%TO.P,R8,2*%
%TO.N,/COL2*%
X151240000Y-101750100D03*
%TD*%
D19*
%TO.P,C1,1*%
%TO.N,/RESET*%
X148500000Y-105770000D03*
%TO.P,C1,2*%
%TO.N,GND*%
X148500000Y-106730000D03*
%TD*%
D20*
%TO.P,SW1,1,A*%
%TO.N,/RESET*%
X178710000Y-104650100D03*
%TO.P,SW1,2,B*%
%TO.N,GND*%
X178710000Y-101250100D03*
%TD*%
D21*
%TO.P,SW_1_2,1,1*%
%TO.N,/COL2*%
X123210000Y-94920000D03*
%TO.P,SW_1_2,2,2*%
%TO.N,Net-(D_1_2-K)*%
X116860000Y-97460000D03*
%TD*%
D17*
%TO.P,L_1_2,1,K*%
%TO.N,Net-(L_1_2-K)*%
X121800000Y-104250000D03*
%TO.P,L_1_2,2,A*%
%TO.N,Net-(L_1_2-A)*%
X119750000Y-104250000D03*
%TD*%
D18*
%TO.P,R13,1*%
%TO.N,/LED_CTRL*%
X145760000Y-107750000D03*
%TO.P,R13,2*%
%TO.N,Net-(Q4-G)*%
X144740000Y-107750000D03*
%TD*%
D22*
%TO.P,J3,1,Pin_1*%
%TO.N,VDD*%
X177630000Y-107750100D03*
D23*
%TO.P,J3,2,Pin_2*%
%TO.N,GND*%
X180170000Y-107750100D03*
%TO.P,J3,3,Pin_3*%
%TO.N,/DCK*%
X182710000Y-107750100D03*
%TO.P,J3,4,Pin_4*%
%TO.N,/DIO*%
X185250000Y-107750100D03*
%TD*%
D24*
%TO.P,Q4,1,G*%
%TO.N,Net-(Q4-G)*%
X144250000Y-106000000D03*
%TO.P,Q4,2,S*%
%TO.N,GND*%
X146150000Y-106000000D03*
%TO.P,Q4,3,D*%
%TO.N,Net-(Q1-S)*%
X145200000Y-104125000D03*
%TD*%
D15*
%TO.P,R6,1*%
%TO.N,/COL1*%
X147750000Y-101760000D03*
%TO.P,R6,2*%
%TO.N,Net-(Q1-G)*%
X147750000Y-100740000D03*
%TD*%
D20*
%TO.P,SW2,1,A*%
%TO.N,/DP*%
X178710000Y-91300100D03*
%TO.P,SW2,2,B*%
%TO.N,Net-(SW2-B)*%
X178710000Y-94700100D03*
%TD*%
D15*
%TO.P,R11,1*%
%TO.N,/COL3*%
X143510000Y-103126000D03*
%TO.P,R11,2*%
%TO.N,Net-(Q3-G)*%
X143510000Y-102106000D03*
%TD*%
D22*
%TO.P,J2,1,Pin_1*%
%TO.N,/TX*%
X185485000Y-92500100D03*
D23*
%TO.P,J2,2,Pin_2*%
%TO.N,/RX*%
X182945000Y-92500100D03*
%TD*%
D25*
%TO.P,D2,1,K*%
%TO.N,GND*%
X183460000Y-101450100D03*
%TO.P,D2,2,A*%
%TO.N,Net-(D2-A)*%
X183460000Y-104250100D03*
%TD*%
D14*
%TO.P,R14,1*%
%TO.N,GND*%
X158500000Y-105990000D03*
%TO.P,R14,2*%
%TO.N,/ROT_UP*%
X158500000Y-107010000D03*
%TD*%
D26*
%TO.P,D_1_1,1,K*%
%TO.N,Net-(D_1_1-K)*%
X109350000Y-91750000D03*
%TO.P,D_1_1,2,A*%
%TO.N,/ROW1*%
X112650000Y-91750000D03*
%TD*%
D18*
%TO.P,R_1_1,1*%
%TO.N,VDD*%
X112260000Y-107750000D03*
%TO.P,R_1_1,2*%
%TO.N,Net-(L_1_1-A)*%
X111240000Y-107750000D03*
%TD*%
%TO.P,R1,1*%
%TO.N,Net-(SW2-B)*%
X159010000Y-103000000D03*
%TO.P,R1,2*%
%TO.N,VDD*%
X157990000Y-103000000D03*
%TD*%
D27*
%TO.P,D_1_3,1,K*%
%TO.N,Net-(D_1_3-K)*%
X132650000Y-91750000D03*
%TO.P,D_1_3,2,A*%
%TO.N,/ROW1*%
X129350000Y-91750000D03*
%TD*%
D17*
%TO.P,L_1_3,1,K*%
%TO.N,Net-(L_1_3-K)*%
X136775000Y-104250000D03*
%TO.P,L_1_3,2,A*%
%TO.N,Net-(L_1_3-A)*%
X134725000Y-104250000D03*
%TD*%
D14*
%TO.P,R10,1*%
%TO.N,GND*%
X147500000Y-105740000D03*
%TO.P,R10,2*%
%TO.N,/COL3*%
X147500000Y-106760000D03*
%TD*%
D28*
%TO.P,Q3,1,G*%
%TO.N,Net-(Q3-G)*%
X145937500Y-101450000D03*
%TO.P,Q3,2,S*%
%TO.N,Net-(Q1-S)*%
X145937500Y-99550000D03*
%TO.P,Q3,3,D*%
%TO.N,Net-(L_1_3-K)*%
X144062500Y-100500000D03*
%TD*%
D25*
%TO.P,D1,1,K*%
%TO.N,GND*%
X187710000Y-101450100D03*
%TO.P,D1,2,A*%
%TO.N,Net-(D1-A)*%
X187710000Y-104250100D03*
%TD*%
D21*
%TO.P,SW_1_1,1,1*%
%TO.N,/COL1*%
X108290000Y-94920000D03*
%TO.P,SW_1_1,2,2*%
%TO.N,Net-(D_1_1-K)*%
X101940000Y-97460000D03*
%TD*%
D28*
%TO.P,Q1,1,G*%
%TO.N,Net-(Q1-G)*%
X145937500Y-93200000D03*
%TO.P,Q1,2,S*%
%TO.N,Net-(Q1-S)*%
X145937500Y-91300000D03*
%TO.P,Q1,3,D*%
%TO.N,Net-(L_1_1-K)*%
X144062500Y-92250000D03*
%TD*%
D26*
%TO.P,D_1_2,1,K*%
%TO.N,Net-(D_1_2-K)*%
X123850000Y-91750000D03*
%TO.P,D_1_2,2,A*%
%TO.N,/ROW1*%
X127150000Y-91750000D03*
%TD*%
D15*
%TO.P,R_1_2,1*%
%TO.N,VDD*%
X119888000Y-108716000D03*
%TO.P,R_1_2,2*%
%TO.N,Net-(L_1_2-A)*%
X119888000Y-107696000D03*
%TD*%
D29*
%TO.P,C3,1*%
%TO.N,VDD*%
X157960000Y-100750100D03*
%TO.P,C3,2*%
%TO.N,GND*%
X158920000Y-100750100D03*
%TD*%
%TO.P,C2,1*%
%TO.N,VDD*%
X157980000Y-101750100D03*
%TO.P,C2,2*%
%TO.N,GND*%
X158940000Y-101750100D03*
%TD*%
D30*
%TO.P,R2,1*%
%TO.N,GND*%
X151240000Y-100750000D03*
%TO.P,R2,2*%
%TO.N,Net-(J1-CC2)*%
X152260000Y-100750000D03*
%TD*%
D31*
%TO.P,SW3,A,A*%
%TO.N,/ROT_UP*%
X165209995Y-107250064D03*
%TO.P,SW3,B,B*%
%TO.N,/ROT_DOWN*%
X170290005Y-107250064D03*
%TO.P,SW3,C,C*%
%TO.N,VDD*%
X167750000Y-107250064D03*
D32*
%TO.P,SW3,D,D*%
%TO.N,GND*%
X173349949Y-99749936D03*
%TO.P,SW3,E,E*%
X162150051Y-99749936D03*
%TD*%
D28*
%TO.P,Q2,1,G*%
%TO.N,Net-(Q2-G)*%
X145937500Y-97200000D03*
%TO.P,Q2,2,S*%
%TO.N,Net-(Q1-S)*%
X145937500Y-95300000D03*
%TO.P,Q2,3,D*%
%TO.N,Net-(L_1_2-K)*%
X144062500Y-96250000D03*
%TD*%
D14*
%TO.P,R7,1*%
%TO.N,GND*%
X148960000Y-100750100D03*
%TO.P,R7,2*%
%TO.N,/COL1*%
X148960000Y-101770100D03*
%TD*%
D15*
%TO.P,R4,1*%
%TO.N,/LED_CTRL*%
X185710000Y-105260100D03*
%TO.P,R4,2*%
%TO.N,Net-(D1-A)*%
X185710000Y-104240100D03*
%TD*%
%TO.P,R9,1*%
%TO.N,/COL2*%
X150250000Y-101760000D03*
%TO.P,R9,2*%
%TO.N,Net-(Q2-G)*%
X150250000Y-100740000D03*
%TD*%
%TO.P,R5,1*%
%TO.N,VDD*%
X181250000Y-105260100D03*
%TO.P,R5,2*%
%TO.N,Net-(D2-A)*%
X181250000Y-104240100D03*
%TD*%
D21*
%TO.P,SW_1_3,1,1*%
%TO.N,/COL3*%
X138210000Y-94920000D03*
%TO.P,SW_1_3,2,2*%
%TO.N,Net-(D_1_3-K)*%
X131860000Y-97460000D03*
%TD*%
D14*
%TO.P,R12,1*%
%TO.N,GND*%
X157500000Y-108500000D03*
%TO.P,R12,2*%
%TO.N,/LED_CTRL*%
X157500000Y-109520000D03*
%TD*%
D33*
%TO.N,GND*%
X139192000Y-103632000D03*
X153218316Y-99765892D03*
%TO.N,/DP*%
X153338248Y-96520000D03*
X154489248Y-96520000D03*
%TO.N,GND*%
X116840000Y-104140000D03*
X102108000Y-103124000D03*
X176276000Y-100584000D03*
X164084000Y-102616000D03*
X145288000Y-100584000D03*
X143764000Y-94488000D03*
X140208000Y-97028000D03*
X141732000Y-104140000D03*
X111760000Y-95504000D03*
X181356000Y-97028000D03*
X134620000Y-93980000D03*
X130048000Y-95504000D03*
X126492000Y-97028000D03*
X152908000Y-93472000D03*
X153924000Y-105664000D03*
X152400000Y-102616000D03*
X132588000Y-102616000D03*
X124968000Y-105156000D03*
X110744000Y-104648000D03*
X140716000Y-91440000D03*
X128524000Y-90932000D03*
X137668000Y-107696000D03*
X123952000Y-107696000D03*
X135636000Y-96520000D03*
X120904000Y-96520000D03*
X105664000Y-96520000D03*
X106172000Y-90932000D03*
X100584000Y-91440000D03*
X106680000Y-108712000D03*
X99568000Y-108204000D03*
X96012000Y-102108000D03*
X96012000Y-97028000D03*
X180848000Y-94488000D03*
X181356000Y-103124000D03*
X174244000Y-107188000D03*
X168656000Y-94488000D03*
X162052000Y-96012000D03*
X151892000Y-106680000D03*
X146812000Y-103124000D03*
X148336000Y-92964000D03*
X147828000Y-96520000D03*
X150876000Y-91440000D03*
X155448000Y-91440000D03*
X162052000Y-90932000D03*
X170180000Y-91440000D03*
X175260000Y-91948000D03*
X180848000Y-90932000D03*
X187960000Y-90932000D03*
X192024000Y-93980000D03*
X191516000Y-98044000D03*
X189992000Y-103632000D03*
X187452000Y-108712000D03*
X168656000Y-100584000D03*
%TO.N,Net-(L_1_2-K)*%
X128250000Y-104250000D03*
D34*
%TO.N,GND*%
X148676256Y-99921860D03*
D33*
%TO.N,Net-(SW2-B)*%
X159512000Y-102362000D03*
%TO.N,/COL3*%
X140389413Y-102797413D03*
%TO.N,/DIO*%
X151875000Y-107625000D03*
%TO.N,Net-(Q1-S)*%
X144827000Y-103077000D03*
X144277000Y-99573000D03*
%TO.N,/COL2*%
X149098000Y-103124000D03*
%TO.N,/RX*%
X157480000Y-105156000D03*
%TO.N,/TX*%
X157429070Y-105965524D03*
%TO.N,/RESET*%
X174978000Y-103378000D03*
X152352413Y-103584413D03*
%TO.N,Net-(L_1_1-K)*%
X140208000Y-92250000D03*
X142494000Y-92250000D03*
%TO.N,/COL1*%
X146512810Y-100500000D03*
%TO.N,/LED_CTRL*%
X154500000Y-109501100D03*
%TO.N,/ROT_UP*%
X162407413Y-107035413D03*
%TO.N,Net-(L_1_2-K)*%
X143512653Y-97536000D03*
%TO.N,Net-(SW2-B)*%
X176530000Y-94750000D03*
%TO.N,/DP*%
X175006000Y-92750000D03*
%TO.N,/COL3*%
X148411762Y-109051770D03*
X147225508Y-108425000D03*
%TO.N,/LED_CTRL*%
X146812000Y-107750000D03*
D34*
%TO.N,GND*%
X156673347Y-101301347D03*
X146812000Y-105926000D03*
%TO.N,VDD*%
X180250000Y-105275000D03*
D33*
%TO.N,GND*%
X158496000Y-104950000D03*
D34*
%TO.N,VDD*%
X152863688Y-107475000D03*
%TD*%
D35*
%TO.N,Net-(J1-CC1)*%
X155489248Y-98093130D02*
X155489248Y-100479248D01*
X155489248Y-100479248D02*
X155500000Y-100490000D01*
%TO.N,/ROW1*%
X155862500Y-103725000D02*
X159260694Y-103725000D01*
X160088000Y-102897694D02*
X160088000Y-100582371D01*
X159260694Y-103725000D02*
X160088000Y-102897694D01*
X153867412Y-90674000D02*
X131826000Y-90674000D01*
X160088000Y-100582371D02*
X159750000Y-100244371D01*
X159750000Y-100244371D02*
X159750000Y-96556588D01*
X159750000Y-96556588D02*
X153867412Y-90674000D01*
X131826000Y-90674000D02*
X130750000Y-91750000D01*
X130750000Y-91750000D02*
X129350000Y-91750000D01*
%TO.N,/DP*%
X153338248Y-96803752D02*
X153338248Y-96520000D01*
X153489248Y-96954752D02*
X153338248Y-96803752D01*
X153489248Y-98093130D02*
X153489248Y-96954752D01*
%TO.N,/DM*%
X154989248Y-98093130D02*
X154989248Y-96834588D01*
X154989248Y-96834588D02*
X155065248Y-96758588D01*
X155065248Y-96758588D02*
X155065248Y-96281412D01*
X155065248Y-96281412D02*
X154727836Y-95944000D01*
X153989248Y-96816942D02*
X153989248Y-98093130D01*
X154727836Y-95944000D02*
X154250660Y-95944000D01*
X153913248Y-96281412D02*
X153913248Y-96740942D01*
X154250660Y-95944000D02*
X153913248Y-96281412D01*
X153913248Y-96740942D02*
X153989248Y-96816942D01*
D36*
%TO.N,VDD*%
X151789248Y-98093130D02*
X151789248Y-97207979D01*
X156422248Y-96940979D02*
X156689248Y-97207979D01*
X151789248Y-97207979D02*
X152056248Y-96940979D01*
X152056248Y-96940979D02*
X152056248Y-96355752D01*
X152056248Y-96355752D02*
X153416000Y-94996000D01*
X153416000Y-94996000D02*
X154962634Y-94996000D01*
X154962634Y-94996000D02*
X156422248Y-96455614D01*
X156422248Y-96455614D02*
X156422248Y-96940979D01*
X156689248Y-97207979D02*
X156689248Y-98093130D01*
D35*
%TO.N,/DP*%
X154489248Y-96520000D02*
X154489248Y-98093130D01*
X150137500Y-106325000D02*
X151062810Y-106325000D01*
X154489248Y-102148562D02*
X154489248Y-98093130D01*
X151062810Y-106325000D02*
X154201000Y-103186810D01*
X154201000Y-103186810D02*
X154201000Y-102436810D01*
X154201000Y-102436810D02*
X154489248Y-102148562D01*
%TO.N,/DM*%
X150137500Y-105675000D02*
X151075000Y-105675000D01*
X151075000Y-105675000D02*
X153750000Y-103000000D01*
X153750000Y-103000000D02*
X153750000Y-102250000D01*
X153750000Y-102250000D02*
X153989248Y-102010752D01*
X153989248Y-102010752D02*
X153989248Y-98093130D01*
%TO.N,/ROT_UP*%
X158500000Y-107010000D02*
X162382000Y-107010000D01*
X162382000Y-107010000D02*
X162407413Y-107035413D01*
%TO.N,/ROT_DOWN*%
X170290005Y-107250064D02*
X168195941Y-105156000D01*
X168195941Y-105156000D02*
X165100000Y-105156000D01*
X165100000Y-105156000D02*
X162560000Y-107696000D01*
X162560000Y-107696000D02*
X160304100Y-107696000D01*
X160010100Y-107990000D02*
X158500000Y-107990000D01*
X160304100Y-107696000D02*
X160010100Y-107990000D01*
%TO.N,Net-(D_1_2-K)*%
X123850000Y-91750000D02*
X122570000Y-91750000D01*
X122570000Y-91750000D02*
X116860000Y-97460000D01*
%TO.N,Net-(D_1_1-K)*%
X109350000Y-91750000D02*
X107650000Y-91750000D01*
X107650000Y-91750000D02*
X101940000Y-97460000D01*
%TO.N,/ROW1*%
X127150000Y-91750000D02*
X126224000Y-90824000D01*
X113576000Y-90824000D02*
X112650000Y-91750000D01*
X126224000Y-90824000D02*
X113576000Y-90824000D01*
D37*
%TO.N,Net-(L_1_2-A)*%
X119888000Y-107696000D02*
X119888000Y-104388000D01*
X119888000Y-104388000D02*
X119750000Y-104250000D01*
%TO.N,Net-(L_1_3-A)*%
X134874000Y-107696000D02*
X134874000Y-104399000D01*
X134874000Y-104399000D02*
X134725000Y-104250000D01*
D38*
%TO.N,VDD*%
X150137500Y-108275000D02*
X148282727Y-108275000D01*
X148282727Y-108275000D02*
X147491227Y-109066500D01*
X147491227Y-109066500D02*
X142855429Y-109066500D01*
X142855429Y-109066500D02*
X142504930Y-108716000D01*
X142504930Y-108716000D02*
X134874000Y-108716000D01*
D37*
X119888000Y-108716000D02*
X134874000Y-108716000D01*
X112260000Y-107750000D02*
X114862000Y-107750000D01*
X114862000Y-107750000D02*
X115828000Y-108716000D01*
X115828000Y-108716000D02*
X119888000Y-108716000D01*
D35*
%TO.N,/COL3*%
X143510000Y-103126000D02*
X143510000Y-108274306D01*
X143510000Y-108274306D02*
X143660694Y-108425000D01*
X147225508Y-108425000D02*
X143660694Y-108425000D01*
X140389413Y-102797413D02*
X140718000Y-103126000D01*
X140718000Y-103126000D02*
X143510000Y-103126000D01*
%TO.N,Net-(Q3-G)*%
X143510000Y-102106000D02*
X143510000Y-101854000D01*
X143510000Y-101854000D02*
X143914000Y-101450000D01*
X143914000Y-101450000D02*
X145937500Y-101450000D01*
%TO.N,/RESET*%
X148500000Y-105770000D02*
X149245000Y-105025000D01*
X149245000Y-105025000D02*
X150137500Y-105025000D01*
%TO.N,GND*%
X147500000Y-105740000D02*
X147376161Y-105740000D01*
X147376161Y-105740000D02*
X146916791Y-106199370D01*
X146916791Y-106199370D02*
X146322212Y-106199370D01*
X146322212Y-106199370D02*
X146322212Y-106172212D01*
X146322212Y-106172212D02*
X146150000Y-106000000D01*
%TO.N,/COL1*%
X148960000Y-101770100D02*
X148960000Y-102381000D01*
X148960000Y-102381000D02*
X148471000Y-102870000D01*
X148471000Y-102870000D02*
X148471000Y-103445999D01*
X148471000Y-103445999D02*
X149400001Y-104375000D01*
X149400001Y-104375000D02*
X150137500Y-104375000D01*
X147750000Y-101760000D02*
X148949900Y-101760000D01*
X148949900Y-101760000D02*
X148960000Y-101770100D01*
%TO.N,/COL3*%
X148411762Y-109051770D02*
X148486941Y-108976591D01*
X148486941Y-108976591D02*
X150085909Y-108976591D01*
X150085909Y-108976591D02*
X150137500Y-108925000D01*
X147225508Y-108425000D02*
X147500000Y-108150508D01*
X147500000Y-108150508D02*
X147500000Y-106760000D01*
D38*
%TO.N,VDD*%
X150137500Y-108275000D02*
X152251720Y-108275000D01*
X152251720Y-108275000D02*
X152863688Y-107663032D01*
X152863688Y-107663032D02*
X152863688Y-107475000D01*
D35*
%TO.N,/DCK*%
X155862500Y-104375000D02*
X176606900Y-104375000D01*
X176606900Y-104375000D02*
X178231900Y-106000000D01*
X182710000Y-106710000D02*
X182710000Y-107750100D01*
%TO.N,Net-(SW2-B)*%
X159010000Y-102864000D02*
X159512000Y-102362000D01*
X159010000Y-103000000D02*
X159010000Y-102864000D01*
%TO.N,Net-(L_1_1-A)*%
X104725000Y-104250000D02*
X105476000Y-104250000D01*
X105476000Y-104250000D02*
X105874000Y-104648000D01*
X105874000Y-104648000D02*
X105874000Y-106890000D01*
X105874000Y-106890000D02*
X106734000Y-107750000D01*
X106734000Y-107750000D02*
X111240000Y-107750000D01*
%TO.N,Net-(L_1_3-K)*%
X144062500Y-100500000D02*
X141953562Y-100500000D01*
X141953562Y-100500000D02*
X141248962Y-101204600D01*
X141248962Y-101204600D02*
X140603400Y-101204600D01*
X140603400Y-101204600D02*
X137558000Y-104250000D01*
X137558000Y-104250000D02*
X136775000Y-104250000D01*
%TO.N,Net-(Q1-S)*%
X144827000Y-103077000D02*
X145200000Y-103450000D01*
X145200000Y-103450000D02*
X145200000Y-104125000D01*
X144277000Y-99573000D02*
X144250000Y-99600000D01*
%TO.N,/COL2*%
X150137500Y-103075000D02*
X150925000Y-103075000D01*
X150925000Y-103075000D02*
X151240000Y-102760000D01*
X151240000Y-102760000D02*
X151240000Y-101750100D01*
X149147000Y-103075000D02*
X149098000Y-103124000D01*
X150137500Y-103075000D02*
X149147000Y-103075000D01*
%TO.N,GND*%
X158500000Y-104954000D02*
X158496000Y-104950000D01*
%TO.N,/RX*%
X157349000Y-105025000D02*
X157480000Y-105156000D01*
X155862500Y-105025000D02*
X157349000Y-105025000D01*
%TO.N,/TX*%
X157138546Y-105675000D02*
X157429070Y-105965524D01*
X156925000Y-105675000D02*
X157138546Y-105675000D01*
%TO.N,/COL2*%
X151250000Y-101760100D02*
X151240000Y-101750100D01*
%TO.N,/RESET*%
X174978000Y-103378000D02*
X176247710Y-103378000D01*
X176247710Y-103378000D02*
X177519810Y-104650100D01*
X177519810Y-104650100D02*
X178710000Y-104650100D01*
X152315586Y-103584413D02*
X152352413Y-103584413D01*
X150874999Y-105025000D02*
X152315586Y-103584413D01*
%TO.N,Net-(L_1_1-K)*%
X140208000Y-92250000D02*
X138500000Y-92250000D01*
%TO.N,/COL1*%
X146512810Y-100500000D02*
X147750000Y-101737190D01*
X147750000Y-101737190D02*
X147750000Y-101760000D01*
D39*
%TO.N,VDD*%
X156660000Y-97981791D02*
X156660000Y-98795100D01*
D35*
%TO.N,/LED_CTRL*%
X157500000Y-109520000D02*
X157586000Y-109606000D01*
X186750000Y-107913216D02*
X186750000Y-105500000D01*
X157586000Y-109606000D02*
X185057216Y-109606000D01*
X185057216Y-109606000D02*
X186750000Y-107913216D01*
X186750000Y-105500000D02*
X186510100Y-105260100D01*
X186510100Y-105260100D02*
X185710000Y-105260100D01*
X154500000Y-109501100D02*
X154518900Y-109520000D01*
X154518900Y-109520000D02*
X157500000Y-109520000D01*
X154500000Y-109500000D02*
X154500000Y-109501100D01*
%TO.N,Net-(SW2-B)*%
X176530000Y-94750000D02*
X178660100Y-94750000D01*
%TO.N,/DP*%
X175006000Y-92750000D02*
X176209900Y-92750000D01*
X175000000Y-92750000D02*
X175006000Y-92750000D01*
%TO.N,Net-(SW2-B)*%
X176500000Y-94750000D02*
X176530000Y-94750000D01*
%TO.N,Net-(L_1_1-K)*%
X140250000Y-92250000D02*
X140208000Y-92250000D01*
%TO.N,/ROT_UP*%
X158500000Y-107010000D02*
X155897500Y-107010000D01*
X155897500Y-107010000D02*
X155862500Y-106975000D01*
%TO.N,/ROT_DOWN*%
X158500000Y-107990000D02*
X158135000Y-107625000D01*
X158135000Y-107625000D02*
X155862500Y-107625000D01*
%TO.N,GND*%
X157500000Y-108500000D02*
X157990000Y-108500000D01*
X157990000Y-108500000D02*
X158500000Y-109010000D01*
X158500000Y-109010000D02*
X158500000Y-108980000D01*
%TO.N,/LED_CTRL*%
X154250000Y-106825000D02*
X154250000Y-109250000D01*
X154250000Y-109250000D02*
X154500000Y-109500000D01*
%TO.N,Net-(J1-CC1)*%
X155500000Y-100490000D02*
X155460000Y-100450000D01*
%TO.N,GND*%
X148500000Y-106730000D02*
X148745000Y-106975000D01*
X148745000Y-106975000D02*
X150137500Y-106975000D01*
X148960000Y-100750100D02*
X148960000Y-100794406D01*
X151240000Y-100750000D02*
X151240000Y-100602190D01*
X151240000Y-100750000D02*
X150960000Y-100470000D01*
X150960000Y-100470000D02*
X150960000Y-98795100D01*
X152260000Y-101750100D02*
X152240100Y-101750100D01*
X152240100Y-101750100D02*
X151240000Y-100750000D01*
%TO.N,VDD*%
X181235100Y-105275000D02*
X181250000Y-105260100D01*
X180250000Y-105275000D02*
X181235100Y-105275000D01*
X152863688Y-107663032D02*
X152601000Y-107925720D01*
X152863688Y-107475000D02*
X152863688Y-107262688D01*
X152863688Y-107262688D02*
X152601000Y-107000000D01*
X152601000Y-107000000D02*
X152601000Y-105899000D01*
X156750000Y-102250000D02*
X157249900Y-101750100D01*
X157249900Y-101750100D02*
X157980000Y-101750100D01*
X152601000Y-105899000D02*
X154250000Y-104250000D01*
%TO.N,/COL3*%
X150062500Y-109000000D02*
X150137500Y-108925000D01*
%TO.N,GND*%
X147500000Y-105740000D02*
X147500000Y-105750000D01*
X147500000Y-105750000D02*
X148480000Y-106730000D01*
X148480000Y-106730000D02*
X148500000Y-106730000D01*
%TO.N,/ROW1*%
X127150000Y-91750000D02*
X129350000Y-91750000D01*
D39*
%TO.N,VDD*%
X157235800Y-100025900D02*
X157960000Y-100750100D01*
D35*
X154250000Y-104250000D02*
X154652000Y-103848000D01*
D39*
X156857400Y-100025900D02*
X157235800Y-100025900D01*
D35*
X154652000Y-102942774D02*
X155344774Y-102250000D01*
D39*
X156660000Y-98795100D02*
X156660000Y-99828500D01*
X156660000Y-99828500D02*
X156857400Y-100025900D01*
X157960000Y-100750100D02*
X157960000Y-101730100D01*
D35*
X154652000Y-103848000D02*
X154652000Y-102942774D01*
X155344774Y-102250000D02*
X156750000Y-102250000D01*
X150137500Y-108275000D02*
X150213500Y-108351000D01*
D39*
X157960000Y-101730100D02*
X157980000Y-101750100D01*
X157980000Y-101750100D02*
X157980000Y-102990000D01*
X157980000Y-102990000D02*
X157990000Y-103000000D01*
D35*
%TO.N,/DP*%
X176209900Y-92750000D02*
X176210000Y-92750100D01*
X176949900Y-91300100D02*
X176210000Y-92040000D01*
X176210000Y-92040000D02*
X176210000Y-92750100D01*
X178710000Y-91300100D02*
X176949900Y-91300100D01*
%TO.N,/TX*%
X155862500Y-105675000D02*
X156925000Y-105675000D01*
%TO.N,Net-(L_1_1-K)*%
X144062500Y-92250000D02*
X142500000Y-92250000D01*
X106775000Y-104250000D02*
X107801000Y-103224000D01*
X107801000Y-103224000D02*
X129069562Y-103224000D01*
X133500000Y-98793562D02*
X133500000Y-97250000D01*
X133500000Y-97250000D02*
X138500000Y-92250000D01*
X129069562Y-103224000D02*
X133500000Y-98793562D01*
%TO.N,Net-(Q1-S)*%
X141750000Y-97387810D02*
X141750000Y-91750000D01*
X141750000Y-91750000D02*
X142200000Y-91300000D01*
X145937500Y-99550000D02*
X144300000Y-99550000D01*
X144250000Y-99600000D02*
X143962190Y-99600000D01*
X147050000Y-91300000D02*
X145937500Y-91300000D01*
X143962190Y-99600000D02*
X141750000Y-97387810D01*
X147250000Y-95000000D02*
X147250000Y-91500000D01*
X145937500Y-95300000D02*
X146950000Y-95300000D01*
X142200000Y-91300000D02*
X143250000Y-91300000D01*
X146950000Y-95300000D02*
X147250000Y-95000000D01*
X147250000Y-91500000D02*
X147050000Y-91300000D01*
X144300000Y-99550000D02*
X144277000Y-99573000D01*
X143250000Y-91300000D02*
X145937500Y-91300000D01*
%TO.N,Net-(Q1-G)*%
X143550000Y-93200000D02*
X145937500Y-93200000D01*
X147750000Y-100740000D02*
X147750000Y-99000000D01*
X147750000Y-99000000D02*
X147250000Y-98500000D01*
X142500000Y-94250000D02*
X143550000Y-93200000D01*
X147250000Y-98500000D02*
X143500000Y-98500000D01*
X142500000Y-97500000D02*
X142500000Y-94250000D01*
X143500000Y-98500000D02*
X142500000Y-97500000D01*
%TO.N,Net-(Q2-G)*%
X150250000Y-100250000D02*
X150250000Y-100740000D01*
X147200000Y-97200000D02*
X150250000Y-100250000D01*
X145937500Y-97200000D02*
X147200000Y-97200000D01*
%TO.N,Net-(Q3-G)*%
X145937500Y-101450000D02*
X146210000Y-101450000D01*
%TO.N,Net-(Q4-G)*%
X144250000Y-107260000D02*
X144250000Y-106000000D01*
X144740000Y-107750000D02*
X144250000Y-107260000D01*
%TO.N,/LED_CTRL*%
X154750000Y-106325000D02*
X154250000Y-106825000D01*
X145760000Y-107750000D02*
X146750000Y-107750000D01*
X155862500Y-106325000D02*
X154750000Y-106325000D01*
%TO.N,/COL2*%
X150250000Y-101760000D02*
X151230100Y-101760000D01*
X151230100Y-101760000D02*
X151240000Y-101750100D01*
%TO.N,Net-(J1-CC2)*%
X152260000Y-100750000D02*
X152460000Y-100550000D01*
X152460000Y-100550000D02*
X152460000Y-98795100D01*
%TO.N,Net-(D1-A)*%
X187710000Y-104250100D02*
X185720000Y-104250100D01*
X185720000Y-104250100D02*
X185710000Y-104240100D01*
%TO.N,Net-(SW2-B)*%
X178660100Y-94750000D02*
X178710000Y-94700100D01*
%TO.N,Net-(D2-A)*%
X181260000Y-104250100D02*
X181250000Y-104240100D01*
X183460000Y-104250100D02*
X181260000Y-104250100D01*
%TO.N,/DIO*%
X151875000Y-107625000D02*
X150137500Y-107625000D01*
%TO.N,/RESET*%
X150137500Y-105025000D02*
X150874999Y-105025000D01*
%TO.N,VDD*%
X152601000Y-107925720D02*
X152601000Y-107000000D01*
%TO.N,/ROT_UP*%
X164969931Y-107010000D02*
X165209995Y-107250064D01*
%TO.N,/DCK*%
X178231900Y-106000000D02*
X182000000Y-106000000D01*
X182000000Y-106000000D02*
X182710000Y-106710000D01*
%TO.N,Net-(L_1_2-K)*%
X128250000Y-104250000D02*
X121800000Y-104250000D01*
%TO.N,Net-(D_1_3-K)*%
X131860000Y-97460000D02*
X131860000Y-94390000D01*
X132650000Y-93600000D02*
X132000000Y-94250000D01*
X132650000Y-91750000D02*
X132650000Y-93600000D01*
X131860000Y-94390000D02*
X132000000Y-94250000D01*
%TO.N,Net-(L_1_2-K)*%
X143512653Y-96250000D02*
X144062500Y-96250000D01*
X143512653Y-97536000D02*
X143512653Y-96250000D01*
%TD*%
%TA.AperFunction,Conductor*%
%TO.N,GND*%
G36*
X131574335Y-90172902D02*
G01*
X131620828Y-90226558D01*
X131630932Y-90296832D01*
X131601438Y-90361412D01*
X131595310Y-90367995D01*
X131592981Y-90370323D01*
X131592981Y-90370324D01*
X131522324Y-90440981D01*
X130629710Y-91333595D01*
X130567398Y-91367621D01*
X130540615Y-91370500D01*
X130171325Y-91370500D01*
X130103204Y-91350498D01*
X130056711Y-91296842D01*
X130048702Y-91273475D01*
X130048360Y-91272029D01*
X130048360Y-91272027D01*
X130000175Y-91142837D01*
X130000173Y-91142835D01*
X130000173Y-91142833D01*
X130000172Y-91142832D01*
X129964949Y-91095781D01*
X129917544Y-91032456D01*
X129869409Y-90996422D01*
X129807167Y-90949827D01*
X129807166Y-90949826D01*
X129728804Y-90920599D01*
X129677973Y-90901640D01*
X129670834Y-90900872D01*
X129620871Y-90895500D01*
X129620864Y-90895500D01*
X129079136Y-90895500D01*
X129079128Y-90895500D01*
X129022027Y-90901640D01*
X128892833Y-90949826D01*
X128892832Y-90949827D01*
X128782456Y-91032456D01*
X128699827Y-91142832D01*
X128699826Y-91142833D01*
X128651639Y-91272029D01*
X128651298Y-91273475D01*
X128650725Y-91274481D01*
X128648886Y-91279412D01*
X128648087Y-91279114D01*
X128616167Y-91335171D01*
X128553258Y-91368079D01*
X128528675Y-91370500D01*
X127971325Y-91370500D01*
X127903204Y-91350498D01*
X127856711Y-91296842D01*
X127848702Y-91273475D01*
X127848360Y-91272029D01*
X127848360Y-91272027D01*
X127800175Y-91142837D01*
X127800173Y-91142835D01*
X127800173Y-91142833D01*
X127800172Y-91142832D01*
X127764949Y-91095781D01*
X127717544Y-91032456D01*
X127669409Y-90996422D01*
X127607167Y-90949827D01*
X127607166Y-90949826D01*
X127528804Y-90920599D01*
X127477973Y-90901640D01*
X127470834Y-90900872D01*
X127420871Y-90895500D01*
X127420864Y-90895500D01*
X126884384Y-90895500D01*
X126816263Y-90875498D01*
X126795289Y-90858595D01*
X126534864Y-90598170D01*
X126534852Y-90598156D01*
X126457025Y-90520329D01*
X126457015Y-90520321D01*
X126386316Y-90479504D01*
X126370482Y-90470362D01*
X126370481Y-90470361D01*
X126370480Y-90470361D01*
X126359121Y-90467317D01*
X126359116Y-90467316D01*
X126350084Y-90464896D01*
X126273962Y-90444499D01*
X126174038Y-90444499D01*
X126174034Y-90444500D01*
X113633696Y-90444500D01*
X113633680Y-90444499D01*
X113625962Y-90444499D01*
X113526038Y-90444499D01*
X113493866Y-90453119D01*
X113449916Y-90464895D01*
X113449915Y-90464896D01*
X113429518Y-90470362D01*
X113429517Y-90470362D01*
X113429515Y-90470363D01*
X113429514Y-90470363D01*
X113342984Y-90520321D01*
X113342979Y-90520325D01*
X113307652Y-90555653D01*
X113272324Y-90590981D01*
X113004710Y-90858595D01*
X112942398Y-90892621D01*
X112915615Y-90895500D01*
X112379128Y-90895500D01*
X112322027Y-90901640D01*
X112192833Y-90949826D01*
X112192832Y-90949827D01*
X112082456Y-91032456D01*
X111999827Y-91142832D01*
X111999826Y-91142833D01*
X111951640Y-91272027D01*
X111945500Y-91329128D01*
X111945500Y-92170871D01*
X111948972Y-92203158D01*
X111951640Y-92227973D01*
X111979773Y-92303400D01*
X111999826Y-92357166D01*
X111999827Y-92357167D01*
X112041755Y-92413174D01*
X112082456Y-92467544D01*
X112144413Y-92513925D01*
X112192832Y-92550172D01*
X112192833Y-92550173D01*
X112192835Y-92550173D01*
X112192837Y-92550175D01*
X112322027Y-92598360D01*
X112379136Y-92604500D01*
X112379141Y-92604500D01*
X112920859Y-92604500D01*
X112920864Y-92604500D01*
X112977973Y-92598360D01*
X113107163Y-92550175D01*
X113217544Y-92467544D01*
X113300175Y-92357163D01*
X113348360Y-92227973D01*
X113354500Y-92170864D01*
X113354500Y-91634384D01*
X113374502Y-91566263D01*
X113391405Y-91545289D01*
X113696289Y-91240405D01*
X113758601Y-91206379D01*
X113785384Y-91203500D01*
X122287326Y-91203500D01*
X122355447Y-91223502D01*
X122401940Y-91277158D01*
X122412044Y-91347432D01*
X122382550Y-91412012D01*
X122371284Y-91423452D01*
X122361585Y-91432118D01*
X122336981Y-91446324D01*
X122266324Y-91516981D01*
X122266322Y-91516983D01*
X122263828Y-91519476D01*
X122263819Y-91519485D01*
X117576257Y-96207047D01*
X117513945Y-96241073D01*
X117443130Y-96236008D01*
X117429966Y-96230222D01*
X117379947Y-96204736D01*
X117379944Y-96204735D01*
X117379942Y-96204734D01*
X117177183Y-96138854D01*
X117177181Y-96138853D01*
X117177179Y-96138853D01*
X116966601Y-96105500D01*
X116753399Y-96105500D01*
X116542821Y-96138853D01*
X116542819Y-96138853D01*
X116542816Y-96138854D01*
X116340057Y-96204734D01*
X116340051Y-96204737D01*
X116150083Y-96301530D01*
X115977600Y-96426847D01*
X115826847Y-96577600D01*
X115701530Y-96750083D01*
X115604737Y-96940051D01*
X115604734Y-96940057D01*
X115538854Y-97142816D01*
X115538853Y-97142819D01*
X115538853Y-97142821D01*
X115505500Y-97353399D01*
X115505500Y-97566601D01*
X115538853Y-97777179D01*
X115538854Y-97777183D01*
X115594376Y-97948064D01*
X115604736Y-97979947D01*
X115701528Y-98169913D01*
X115701530Y-98169916D01*
X115826847Y-98342399D01*
X115977600Y-98493152D01*
X115977603Y-98493154D01*
X116150087Y-98618472D01*
X116340053Y-98715264D01*
X116542821Y-98781147D01*
X116753399Y-98814500D01*
X116753402Y-98814500D01*
X116966598Y-98814500D01*
X116966601Y-98814500D01*
X117177179Y-98781147D01*
X117379947Y-98715264D01*
X117569913Y-98618472D01*
X117742397Y-98493154D01*
X117893154Y-98342397D01*
X118018472Y-98169913D01*
X118115264Y-97979947D01*
X118181147Y-97777179D01*
X118214500Y-97566601D01*
X118214500Y-97353399D01*
X118181147Y-97142821D01*
X118115264Y-96940053D01*
X118110643Y-96930983D01*
X118089780Y-96890037D01*
X118076676Y-96820260D01*
X118103377Y-96754476D01*
X118112943Y-96743749D01*
X120043294Y-94813399D01*
X121855500Y-94813399D01*
X121855500Y-95026601D01*
X121888194Y-95233019D01*
X121888854Y-95237183D01*
X121954689Y-95439805D01*
X121954736Y-95439947D01*
X122047236Y-95621489D01*
X122051530Y-95629916D01*
X122176847Y-95802399D01*
X122327600Y-95953152D01*
X122355531Y-95973445D01*
X122500087Y-96078472D01*
X122690053Y-96175264D01*
X122892821Y-96241147D01*
X123103399Y-96274500D01*
X123103402Y-96274500D01*
X123316598Y-96274500D01*
X123316601Y-96274500D01*
X123527179Y-96241147D01*
X123729947Y-96175264D01*
X123919913Y-96078472D01*
X124092397Y-95953154D01*
X124243154Y-95802397D01*
X124368472Y-95629913D01*
X124465264Y-95439947D01*
X124531147Y-95237179D01*
X124564500Y-95026601D01*
X124564500Y-94813399D01*
X124531147Y-94602821D01*
X124465264Y-94400053D01*
X124368472Y-94210087D01*
X124291045Y-94103519D01*
X124243152Y-94037600D01*
X124092399Y-93886847D01*
X123919916Y-93761530D01*
X123919915Y-93761529D01*
X123919913Y-93761528D01*
X123729947Y-93664736D01*
X123729944Y-93664735D01*
X123729942Y-93664734D01*
X123527183Y-93598854D01*
X123527181Y-93598853D01*
X123527179Y-93598853D01*
X123316601Y-93565500D01*
X123103399Y-93565500D01*
X122892821Y-93598853D01*
X122892819Y-93598853D01*
X122892816Y-93598854D01*
X122690057Y-93664734D01*
X122690051Y-93664737D01*
X122500083Y-93761530D01*
X122327600Y-93886847D01*
X122176847Y-94037600D01*
X122051530Y-94210083D01*
X121954737Y-94400051D01*
X121954734Y-94400057D01*
X121888854Y-94602816D01*
X121888853Y-94602819D01*
X121888853Y-94602821D01*
X121855500Y-94813399D01*
X120043294Y-94813399D01*
X122690289Y-92166405D01*
X122717657Y-92151460D01*
X122743886Y-92134604D01*
X122750184Y-92133698D01*
X122752601Y-92132379D01*
X122779384Y-92129500D01*
X123028675Y-92129500D01*
X123096796Y-92149502D01*
X123143289Y-92203158D01*
X123151298Y-92226525D01*
X123151639Y-92227970D01*
X123151639Y-92227972D01*
X123151640Y-92227973D01*
X123158177Y-92245500D01*
X123199826Y-92357166D01*
X123199827Y-92357167D01*
X123241755Y-92413174D01*
X123282456Y-92467544D01*
X123344413Y-92513925D01*
X123392832Y-92550172D01*
X123392833Y-92550173D01*
X123392835Y-92550173D01*
X123392837Y-92550175D01*
X123522027Y-92598360D01*
X123579136Y-92604500D01*
X123579141Y-92604500D01*
X124120859Y-92604500D01*
X124120864Y-92604500D01*
X124177973Y-92598360D01*
X124307163Y-92550175D01*
X124417544Y-92467544D01*
X124500175Y-92357163D01*
X124548360Y-92227973D01*
X124554500Y-92170864D01*
X124554500Y-91329500D01*
X124574502Y-91261379D01*
X124628158Y-91214886D01*
X124680500Y-91203500D01*
X126014616Y-91203500D01*
X126082737Y-91223502D01*
X126103711Y-91240405D01*
X126408595Y-91545289D01*
X126442621Y-91607601D01*
X126445500Y-91634384D01*
X126445500Y-92170871D01*
X126448972Y-92203158D01*
X126451640Y-92227973D01*
X126479773Y-92303400D01*
X126499826Y-92357166D01*
X126499827Y-92357167D01*
X126541755Y-92413174D01*
X126582456Y-92467544D01*
X126644413Y-92513925D01*
X126692832Y-92550172D01*
X126692833Y-92550173D01*
X126692835Y-92550173D01*
X126692837Y-92550175D01*
X126822027Y-92598360D01*
X126879136Y-92604500D01*
X126879141Y-92604500D01*
X127420859Y-92604500D01*
X127420864Y-92604500D01*
X127477973Y-92598360D01*
X127607163Y-92550175D01*
X127717544Y-92467544D01*
X127800175Y-92357163D01*
X127848360Y-92227973D01*
X127848360Y-92227967D01*
X127848702Y-92226525D01*
X127849274Y-92225518D01*
X127851114Y-92220588D01*
X127851912Y-92220885D01*
X127883833Y-92164829D01*
X127946742Y-92131921D01*
X127971325Y-92129500D01*
X128528675Y-92129500D01*
X128596796Y-92149502D01*
X128643289Y-92203158D01*
X128651298Y-92226525D01*
X128651639Y-92227970D01*
X128651639Y-92227972D01*
X128651640Y-92227973D01*
X128658177Y-92245500D01*
X128699826Y-92357166D01*
X128699827Y-92357167D01*
X128741755Y-92413174D01*
X128782456Y-92467544D01*
X128844413Y-92513925D01*
X128892832Y-92550172D01*
X128892833Y-92550173D01*
X128892835Y-92550173D01*
X128892837Y-92550175D01*
X129022027Y-92598360D01*
X129079136Y-92604500D01*
X129079141Y-92604500D01*
X129620859Y-92604500D01*
X129620864Y-92604500D01*
X129677973Y-92598360D01*
X129807163Y-92550175D01*
X129917544Y-92467544D01*
X130000175Y-92357163D01*
X130048360Y-92227973D01*
X130048360Y-92227967D01*
X130048702Y-92226525D01*
X130049274Y-92225518D01*
X130051114Y-92220588D01*
X130051912Y-92220885D01*
X130083833Y-92164829D01*
X130146742Y-92131921D01*
X130171325Y-92129500D01*
X130700034Y-92129500D01*
X130700038Y-92129501D01*
X130799962Y-92129501D01*
X130876084Y-92109103D01*
X130896482Y-92103638D01*
X130983019Y-92053676D01*
X131053676Y-91983019D01*
X131064042Y-91972653D01*
X131064049Y-91972643D01*
X131730406Y-91306287D01*
X131792717Y-91272263D01*
X131863533Y-91277328D01*
X131920368Y-91319875D01*
X131945179Y-91386395D01*
X131945500Y-91395384D01*
X131945500Y-92170871D01*
X131948972Y-92203158D01*
X131951640Y-92227973D01*
X131979773Y-92303400D01*
X131999826Y-92357166D01*
X131999827Y-92357167D01*
X132041755Y-92413174D01*
X132082456Y-92467544D01*
X132137799Y-92508974D01*
X132192833Y-92550173D01*
X132200745Y-92554493D01*
X132199496Y-92556779D01*
X132245362Y-92591108D01*
X132270178Y-92657626D01*
X132270500Y-92666625D01*
X132270500Y-93390616D01*
X132250498Y-93458737D01*
X132233599Y-93479706D01*
X131766982Y-93946324D01*
X131626983Y-94086322D01*
X131626981Y-94086324D01*
X131591653Y-94121652D01*
X131556325Y-94156979D01*
X131556321Y-94156984D01*
X131513170Y-94231726D01*
X131506362Y-94243518D01*
X131506362Y-94243519D01*
X131480499Y-94340038D01*
X131480499Y-94439962D01*
X131480500Y-94439965D01*
X131480500Y-94458038D01*
X131480500Y-96067557D01*
X131460498Y-96135678D01*
X131406842Y-96182171D01*
X131393438Y-96187389D01*
X131340062Y-96204732D01*
X131340051Y-96204737D01*
X131150083Y-96301530D01*
X130977600Y-96426847D01*
X130826847Y-96577600D01*
X130701530Y-96750083D01*
X130604737Y-96940051D01*
X130604734Y-96940057D01*
X130538854Y-97142816D01*
X130538853Y-97142819D01*
X130538853Y-97142821D01*
X130505500Y-97353399D01*
X130505500Y-97566601D01*
X130538853Y-97777179D01*
X130538854Y-97777183D01*
X130594376Y-97948064D01*
X130604736Y-97979947D01*
X130701528Y-98169913D01*
X130701530Y-98169916D01*
X130826847Y-98342399D01*
X130977600Y-98493152D01*
X130977603Y-98493154D01*
X131150087Y-98618472D01*
X131340053Y-98715264D01*
X131542821Y-98781147D01*
X131753399Y-98814500D01*
X131753402Y-98814500D01*
X131966598Y-98814500D01*
X131966601Y-98814500D01*
X132177179Y-98781147D01*
X132379947Y-98715264D01*
X132569913Y-98618472D01*
X132742397Y-98493154D01*
X132893154Y-98342397D01*
X132893158Y-98342391D01*
X132896367Y-98338635D01*
X132897378Y-98339499D01*
X132948772Y-98299860D01*
X133019508Y-98293776D01*
X133082303Y-98326900D01*
X133117222Y-98388716D01*
X133120500Y-98417269D01*
X133120500Y-98584177D01*
X133100498Y-98652298D01*
X133083595Y-98673272D01*
X131867571Y-99889295D01*
X131805259Y-99923321D01*
X131734443Y-99918256D01*
X131677608Y-99875709D01*
X131654028Y-99819912D01*
X131642529Y-99747310D01*
X131590041Y-99585769D01*
X131512929Y-99434428D01*
X131464788Y-99368167D01*
X131413091Y-99297011D01*
X131292988Y-99176908D01*
X131155574Y-99077072D01*
X131138750Y-99068500D01*
X131004231Y-98999959D01*
X130842690Y-98947471D01*
X130674927Y-98920900D01*
X130505073Y-98920900D01*
X130337310Y-98947471D01*
X130337307Y-98947471D01*
X130337306Y-98947472D01*
X130175769Y-98999959D01*
X130175767Y-98999960D01*
X130024425Y-99077072D01*
X129887011Y-99176908D01*
X129766908Y-99297011D01*
X129667072Y-99434425D01*
X129600950Y-99564198D01*
X129589959Y-99585769D01*
X129537471Y-99747310D01*
X129510900Y-99915073D01*
X129510900Y-100084927D01*
X129537471Y-100252690D01*
X129589959Y-100414231D01*
X129625304Y-100483600D01*
X129667072Y-100565574D01*
X129766908Y-100702988D01*
X129887011Y-100823091D01*
X130011539Y-100913565D01*
X130024428Y-100922929D01*
X130175769Y-101000041D01*
X130337310Y-101052529D01*
X130409912Y-101064028D01*
X130474064Y-101094439D01*
X130511591Y-101154707D01*
X130510577Y-101225697D01*
X130479295Y-101277571D01*
X128949271Y-102807596D01*
X128886961Y-102841620D01*
X128860178Y-102844500D01*
X107850966Y-102844500D01*
X107850962Y-102844499D01*
X107751038Y-102844499D01*
X107678889Y-102863832D01*
X107669686Y-102866297D01*
X107669684Y-102866298D01*
X107662018Y-102868352D01*
X107654518Y-102870362D01*
X107654516Y-102870362D01*
X107654512Y-102870364D01*
X107567984Y-102920321D01*
X107567979Y-102920325D01*
X107546953Y-102941352D01*
X107497324Y-102990981D01*
X107497322Y-102990983D01*
X107357596Y-103130709D01*
X107229709Y-103258596D01*
X107167397Y-103292621D01*
X107140614Y-103295500D01*
X106401753Y-103295500D01*
X106401729Y-103295502D01*
X106341660Y-103301959D01*
X106341658Y-103301959D01*
X106205733Y-103352657D01*
X106089596Y-103439596D01*
X106002657Y-103555734D01*
X105951962Y-103691650D01*
X105951960Y-103691658D01*
X105945500Y-103751737D01*
X105945500Y-103878614D01*
X105925498Y-103946735D01*
X105871842Y-103993228D01*
X105801568Y-104003332D01*
X105748788Y-103982901D01*
X105738873Y-103976178D01*
X105709019Y-103946324D01*
X105622482Y-103896362D01*
X105620292Y-103895775D01*
X105609787Y-103888652D01*
X105589990Y-103864634D01*
X105568505Y-103842101D01*
X105567290Y-103837094D01*
X105564631Y-103833868D01*
X105562832Y-103818716D01*
X105554499Y-103784365D01*
X105554499Y-103751753D01*
X105554499Y-103751749D01*
X105554499Y-103751746D01*
X105548040Y-103691658D01*
X105497342Y-103555733D01*
X105410404Y-103439596D01*
X105294267Y-103352658D01*
X105294265Y-103352657D01*
X105294266Y-103352657D01*
X105158349Y-103301962D01*
X105158344Y-103301960D01*
X105158342Y-103301960D01*
X105128298Y-103298730D01*
X105098256Y-103295500D01*
X104351753Y-103295500D01*
X104351729Y-103295502D01*
X104291660Y-103301959D01*
X104291658Y-103301959D01*
X104155733Y-103352657D01*
X104039596Y-103439596D01*
X103952657Y-103555734D01*
X103901962Y-103691650D01*
X103901960Y-103691658D01*
X103895500Y-103751737D01*
X103895500Y-104748246D01*
X103895502Y-104748270D01*
X103901959Y-104808339D01*
X103901959Y-104808341D01*
X103952657Y-104944266D01*
X103959362Y-104953223D01*
X104039596Y-105060404D01*
X104155733Y-105147342D01*
X104291658Y-105198040D01*
X104351745Y-105204500D01*
X105098254Y-105204499D01*
X105158342Y-105198040D01*
X105294267Y-105147342D01*
X105294269Y-105147339D01*
X105302177Y-105143023D01*
X105303015Y-105144558D01*
X105359510Y-105123486D01*
X105428884Y-105138577D01*
X105479087Y-105188778D01*
X105494500Y-105249165D01*
X105494500Y-106840034D01*
X105494499Y-106840038D01*
X105494499Y-106939962D01*
X105508443Y-106992000D01*
X105511174Y-107002193D01*
X105511175Y-107002200D01*
X105518776Y-107030564D01*
X105520362Y-107036482D01*
X105520363Y-107036484D01*
X105520364Y-107036486D01*
X105570321Y-107123015D01*
X105570329Y-107123025D01*
X105648156Y-107200852D01*
X105648170Y-107200864D01*
X106425913Y-107978607D01*
X106425934Y-107978630D01*
X106500974Y-108053670D01*
X106500979Y-108053674D01*
X106500981Y-108053676D01*
X106500982Y-108053677D01*
X106500984Y-108053678D01*
X106587514Y-108103636D01*
X106587515Y-108103636D01*
X106587518Y-108103638D01*
X106601894Y-108107490D01*
X106684038Y-108129501D01*
X106783962Y-108129501D01*
X106783966Y-108129500D01*
X110696473Y-108129500D01*
X110764594Y-108149502D01*
X110785568Y-108166404D01*
X110785959Y-108166795D01*
X110785960Y-108166796D01*
X110873204Y-108254040D01*
X110983138Y-108310054D01*
X111074347Y-108324500D01*
X111405652Y-108324499D01*
X111496862Y-108310054D01*
X111606796Y-108254040D01*
X111660905Y-108199931D01*
X111723217Y-108165905D01*
X111794032Y-108170970D01*
X111839095Y-108199931D01*
X111893204Y-108254040D01*
X112003138Y-108310054D01*
X112094347Y-108324500D01*
X112425652Y-108324499D01*
X112516862Y-108310054D01*
X112591090Y-108272232D01*
X112648293Y-108258500D01*
X114599182Y-108258500D01*
X114667303Y-108278502D01*
X114688272Y-108295400D01*
X115515773Y-109122901D01*
X115558314Y-109147462D01*
X115558315Y-109147463D01*
X115605548Y-109174733D01*
X115631726Y-109189847D01*
X115761055Y-109224500D01*
X119561407Y-109224500D01*
X119581117Y-109226051D01*
X119601155Y-109229224D01*
X119672347Y-109240500D01*
X120103652Y-109240499D01*
X120194862Y-109226054D01*
X120194861Y-109226054D01*
X120194881Y-109226051D01*
X120214590Y-109224500D01*
X134547407Y-109224500D01*
X134567117Y-109226051D01*
X134587155Y-109229224D01*
X134658347Y-109240500D01*
X135089652Y-109240499D01*
X135180862Y-109226054D01*
X135281585Y-109174732D01*
X135338788Y-109161000D01*
X142268414Y-109161000D01*
X142298329Y-109169783D01*
X142328799Y-109176412D01*
X142333894Y-109180226D01*
X142336535Y-109181002D01*
X142357495Y-109197894D01*
X142357510Y-109197905D01*
X142406104Y-109246500D01*
X142499339Y-109339735D01*
X142499340Y-109339736D01*
X142582193Y-109422589D01*
X142640530Y-109456270D01*
X142683665Y-109481174D01*
X142796842Y-109511500D01*
X142796844Y-109511500D01*
X147549812Y-109511500D01*
X147549813Y-109511500D01*
X147606401Y-109496337D01*
X147662991Y-109481174D01*
X147764463Y-109422589D01*
X147794056Y-109392996D01*
X147827692Y-109359361D01*
X147890004Y-109325335D01*
X147960819Y-109330400D01*
X148005882Y-109359361D01*
X148101985Y-109455464D01*
X148101990Y-109455468D01*
X148101992Y-109455470D01*
X148101993Y-109455471D01*
X148101995Y-109455472D01*
X148146507Y-109481171D01*
X148217032Y-109521889D01*
X148345343Y-109556270D01*
X148345345Y-109556270D01*
X148478179Y-109556270D01*
X148478181Y-109556270D01*
X148606492Y-109521889D01*
X148721532Y-109455470D01*
X148721538Y-109455464D01*
X148784007Y-109392996D01*
X148846319Y-109358970D01*
X148873102Y-109356091D01*
X149340952Y-109356091D01*
X149387979Y-109366971D01*
X149388103Y-109366573D01*
X149393603Y-109368272D01*
X149396291Y-109368894D01*
X149397450Y-109369461D01*
X149466354Y-109379500D01*
X150012534Y-109379500D01*
X150012538Y-109379501D01*
X150112462Y-109379501D01*
X150112466Y-109379500D01*
X150808646Y-109379500D01*
X150877550Y-109369461D01*
X150983840Y-109317499D01*
X151067499Y-109233840D01*
X151119461Y-109127550D01*
X151129500Y-109058646D01*
X151129500Y-108846000D01*
X151149502Y-108777879D01*
X151203158Y-108731386D01*
X151255500Y-108720000D01*
X152310304Y-108720000D01*
X152310306Y-108720000D01*
X152387182Y-108699401D01*
X152423484Y-108689674D01*
X152524956Y-108631089D01*
X152607809Y-108548236D01*
X153031923Y-108124120D01*
X153072797Y-108096809D01*
X153173710Y-108055011D01*
X153280908Y-107983383D01*
X153372071Y-107892220D01*
X153443699Y-107785022D01*
X153493036Y-107665911D01*
X153518188Y-107539463D01*
X153518188Y-107410537D01*
X153493036Y-107284089D01*
X153443699Y-107164978D01*
X153372071Y-107057780D01*
X153372066Y-107057774D01*
X153280913Y-106966621D01*
X153280907Y-106966616D01*
X153229081Y-106931987D01*
X153173710Y-106894989D01*
X153123416Y-106874156D01*
X153058282Y-106847177D01*
X153003001Y-106802628D01*
X152980580Y-106735265D01*
X152980500Y-106730768D01*
X152980500Y-106108384D01*
X153000502Y-106040263D01*
X153017405Y-106019289D01*
X154553675Y-104483019D01*
X154595988Y-104440706D01*
X154655405Y-104381288D01*
X154717716Y-104347264D01*
X154788532Y-104352328D01*
X154845368Y-104394875D01*
X154866955Y-104440706D01*
X154870500Y-104455332D01*
X154870500Y-104508646D01*
X154880539Y-104577550D01*
X154919372Y-104656985D01*
X154922605Y-104670322D01*
X154921537Y-104692630D01*
X154925296Y-104714645D01*
X154919546Y-104734224D01*
X154919211Y-104741237D01*
X154916279Y-104745352D01*
X154913347Y-104755338D01*
X154880540Y-104822444D01*
X154880539Y-104822449D01*
X154870500Y-104891352D01*
X154870500Y-105158647D01*
X154880539Y-105227550D01*
X154880540Y-105227555D01*
X154913347Y-105294662D01*
X154925296Y-105364645D01*
X154913347Y-105405338D01*
X154880540Y-105472444D01*
X154880539Y-105472449D01*
X154870500Y-105541352D01*
X154870500Y-105808641D01*
X154870627Y-105810394D01*
X154870500Y-105810980D01*
X154870500Y-105813205D01*
X154870018Y-105813205D01*
X154855599Y-105879782D01*
X154805444Y-105930031D01*
X154744956Y-105945499D01*
X154700038Y-105945499D01*
X154669704Y-105953627D01*
X154623916Y-105965895D01*
X154623915Y-105965896D01*
X154603518Y-105971362D01*
X154603517Y-105971362D01*
X154603515Y-105971363D01*
X154603514Y-105971363D01*
X154516984Y-106021321D01*
X154516979Y-106021325D01*
X154498042Y-106040263D01*
X154446324Y-106091981D01*
X154446322Y-106091983D01*
X154016983Y-106521322D01*
X154016981Y-106521324D01*
X153990668Y-106547637D01*
X153946325Y-106591979D01*
X153946321Y-106591984D01*
X153896361Y-106678519D01*
X153892068Y-106694542D01*
X153870499Y-106775034D01*
X153870499Y-106885112D01*
X153870500Y-106885125D01*
X153870500Y-109200034D01*
X153870499Y-109200038D01*
X153870499Y-109299962D01*
X153886999Y-109361540D01*
X153891812Y-109379500D01*
X153896362Y-109396482D01*
X153946321Y-109483015D01*
X153946322Y-109483016D01*
X153946324Y-109483019D01*
X153959899Y-109496594D01*
X153993925Y-109558904D01*
X153995289Y-109566732D01*
X154027914Y-109688489D01*
X154026224Y-109759466D01*
X153986430Y-109818261D01*
X153921165Y-109846209D01*
X153906207Y-109847100D01*
X93278900Y-109847100D01*
X93210779Y-109827098D01*
X93164286Y-109773442D01*
X93152900Y-109721100D01*
X93152900Y-106895398D01*
X94670900Y-106895398D01*
X94670900Y-107104602D01*
X94703069Y-107307706D01*
X94703628Y-107311237D01*
X94768273Y-107510193D01*
X94863253Y-107696602D01*
X94986219Y-107865852D01*
X95134147Y-108013780D01*
X95293424Y-108129500D01*
X95303400Y-108136748D01*
X95489803Y-108231725D01*
X95688768Y-108296373D01*
X95895398Y-108329100D01*
X95895401Y-108329100D01*
X96104599Y-108329100D01*
X96104602Y-108329100D01*
X96311232Y-108296373D01*
X96510197Y-108231725D01*
X96696600Y-108136748D01*
X96865851Y-108013781D01*
X97013781Y-107865851D01*
X97136748Y-107696600D01*
X97231725Y-107510197D01*
X97296373Y-107311232D01*
X97329100Y-107104602D01*
X97329100Y-106895398D01*
X97296373Y-106688768D01*
X97231725Y-106489803D01*
X97136748Y-106303400D01*
X97136746Y-106303397D01*
X97013780Y-106134147D01*
X96865852Y-105986219D01*
X96696602Y-105863253D01*
X96542235Y-105784599D01*
X96510197Y-105768275D01*
X96510196Y-105768274D01*
X96510193Y-105768273D01*
X96311237Y-105703628D01*
X96311233Y-105703627D01*
X96311232Y-105703627D01*
X96104602Y-105670900D01*
X95895398Y-105670900D01*
X95688768Y-105703627D01*
X95688762Y-105703628D01*
X95489806Y-105768273D01*
X95303397Y-105863253D01*
X95134147Y-105986219D01*
X94986219Y-106134147D01*
X94863253Y-106303397D01*
X94768273Y-106489806D01*
X94703628Y-106688762D01*
X94703627Y-106688767D01*
X94703627Y-106688768D01*
X94670900Y-106895398D01*
X93152900Y-106895398D01*
X93152900Y-99915073D01*
X99590900Y-99915073D01*
X99590900Y-100084927D01*
X99617471Y-100252690D01*
X99669959Y-100414231D01*
X99705304Y-100483600D01*
X99747072Y-100565574D01*
X99846908Y-100702988D01*
X99967011Y-100823091D01*
X100091539Y-100913565D01*
X100104428Y-100922929D01*
X100255769Y-101000041D01*
X100417310Y-101052529D01*
X100585073Y-101079100D01*
X100585076Y-101079100D01*
X100754924Y-101079100D01*
X100754927Y-101079100D01*
X100922690Y-101052529D01*
X101084231Y-101000041D01*
X101235572Y-100922929D01*
X101372987Y-100823092D01*
X101493092Y-100702987D01*
X101592929Y-100565572D01*
X101670041Y-100414231D01*
X101722529Y-100252690D01*
X101749100Y-100084927D01*
X101749100Y-99915073D01*
X101739410Y-99853894D01*
X103520900Y-99853894D01*
X103520900Y-100146105D01*
X103559038Y-100435801D01*
X103559039Y-100435807D01*
X103559040Y-100435809D01*
X103563488Y-100452408D01*
X103634667Y-100718053D01*
X103634668Y-100718055D01*
X103634669Y-100718058D01*
X103746491Y-100988021D01*
X103746492Y-100988022D01*
X103746497Y-100988033D01*
X103892591Y-101241075D01*
X103892596Y-101241082D01*
X104070470Y-101472892D01*
X104070489Y-101472913D01*
X104277086Y-101679510D01*
X104277107Y-101679529D01*
X104508917Y-101857403D01*
X104508924Y-101857408D01*
X104761966Y-102003502D01*
X104761970Y-102003503D01*
X104761979Y-102003509D01*
X105031942Y-102115331D01*
X105314191Y-102190960D01*
X105314197Y-102190960D01*
X105314198Y-102190961D01*
X105343367Y-102194801D01*
X105603897Y-102229100D01*
X105603904Y-102229100D01*
X105896096Y-102229100D01*
X105896103Y-102229100D01*
X106185809Y-102190960D01*
X106468058Y-102115331D01*
X106738021Y-102003509D01*
X106991079Y-101857406D01*
X107222901Y-101679522D01*
X107429522Y-101472901D01*
X107441974Y-101456674D01*
X107503646Y-101376301D01*
X107607406Y-101241079D01*
X107753509Y-100988021D01*
X107865331Y-100718058D01*
X107940960Y-100435809D01*
X107979100Y-100146103D01*
X107979100Y-99915073D01*
X109750900Y-99915073D01*
X109750900Y-100084927D01*
X109777471Y-100252690D01*
X109829959Y-100414231D01*
X109865304Y-100483600D01*
X109907072Y-100565574D01*
X110006908Y-100702988D01*
X110127011Y-100823091D01*
X110251539Y-100913565D01*
X110264428Y-100922929D01*
X110415769Y-101000041D01*
X110577310Y-101052529D01*
X110745073Y-101079100D01*
X110745076Y-101079100D01*
X110914924Y-101079100D01*
X110914927Y-101079100D01*
X111082690Y-101052529D01*
X111244231Y-101000041D01*
X111395572Y-100922929D01*
X111532987Y-100823092D01*
X111653092Y-100702987D01*
X111752929Y-100565572D01*
X111830041Y-100414231D01*
X111882529Y-100252690D01*
X111909100Y-100084927D01*
X111909100Y-99915073D01*
X114510900Y-99915073D01*
X114510900Y-100084927D01*
X114537471Y-100252690D01*
X114589959Y-100414231D01*
X114625304Y-100483600D01*
X114667072Y-100565574D01*
X114766908Y-100702988D01*
X114887011Y-100823091D01*
X115011539Y-100913565D01*
X115024428Y-100922929D01*
X115175769Y-101000041D01*
X115337310Y-101052529D01*
X115505073Y-101079100D01*
X115505076Y-101079100D01*
X115674924Y-101079100D01*
X115674927Y-101079100D01*
X115842690Y-101052529D01*
X116004231Y-101000041D01*
X116155572Y-100922929D01*
X116292987Y-100823092D01*
X116413092Y-100702987D01*
X116512929Y-100565572D01*
X116590041Y-100414231D01*
X116642529Y-100252690D01*
X116669100Y-100084927D01*
X116669100Y-99915073D01*
X116659410Y-99853894D01*
X118440900Y-99853894D01*
X118440900Y-100146105D01*
X118479038Y-100435801D01*
X118479039Y-100435807D01*
X118479040Y-100435809D01*
X118483488Y-100452408D01*
X118554667Y-100718053D01*
X118554668Y-100718055D01*
X118554669Y-100718058D01*
X118666491Y-100988021D01*
X118666492Y-100988022D01*
X118666497Y-100988033D01*
X118812591Y-101241075D01*
X118812596Y-101241082D01*
X118990470Y-101472892D01*
X118990489Y-101472913D01*
X119197086Y-101679510D01*
X119197107Y-101679529D01*
X119428917Y-101857403D01*
X119428924Y-101857408D01*
X119681966Y-102003502D01*
X119681970Y-102003503D01*
X119681979Y-102003509D01*
X119951942Y-102115331D01*
X120234191Y-102190960D01*
X120234197Y-102190960D01*
X120234198Y-102190961D01*
X120263367Y-102194801D01*
X120523897Y-102229100D01*
X120523904Y-102229100D01*
X120816096Y-102229100D01*
X120816103Y-102229100D01*
X121105809Y-102190960D01*
X121388058Y-102115331D01*
X121658021Y-102003509D01*
X121911079Y-101857406D01*
X122142901Y-101679522D01*
X122349522Y-101472901D01*
X122361974Y-101456674D01*
X122423646Y-101376301D01*
X122527406Y-101241079D01*
X122673509Y-100988021D01*
X122785331Y-100718058D01*
X122860960Y-100435809D01*
X122899100Y-100146103D01*
X122899100Y-99915073D01*
X124670900Y-99915073D01*
X124670900Y-100084927D01*
X124697471Y-100252690D01*
X124749959Y-100414231D01*
X124785304Y-100483600D01*
X124827072Y-100565574D01*
X124926908Y-100702988D01*
X125047011Y-100823091D01*
X125171539Y-100913565D01*
X125184428Y-100922929D01*
X125335769Y-101000041D01*
X125497310Y-101052529D01*
X125665073Y-101079100D01*
X125665076Y-101079100D01*
X125834924Y-101079100D01*
X125834927Y-101079100D01*
X126002690Y-101052529D01*
X126164231Y-101000041D01*
X126315572Y-100922929D01*
X126452987Y-100823092D01*
X126573092Y-100702987D01*
X126672929Y-100565572D01*
X126750041Y-100414231D01*
X126802529Y-100252690D01*
X126829100Y-100084927D01*
X126829100Y-99915073D01*
X126802529Y-99747310D01*
X126750041Y-99585769D01*
X126672929Y-99434428D01*
X126624788Y-99368167D01*
X126573091Y-99297011D01*
X126452988Y-99176908D01*
X126315574Y-99077072D01*
X126298750Y-99068500D01*
X126164231Y-98999959D01*
X126002690Y-98947471D01*
X125834927Y-98920900D01*
X125665073Y-98920900D01*
X125497310Y-98947471D01*
X125497307Y-98947471D01*
X125497306Y-98947472D01*
X125335769Y-98999959D01*
X125335767Y-98999960D01*
X125184425Y-99077072D01*
X125047011Y-99176908D01*
X124926908Y-99297011D01*
X124827072Y-99434425D01*
X124760950Y-99564198D01*
X124749959Y-99585769D01*
X124697471Y-99747310D01*
X124670900Y-99915073D01*
X122899100Y-99915073D01*
X122899100Y-99853897D01*
X122863801Y-99585769D01*
X122860961Y-99564198D01*
X122860960Y-99564197D01*
X122860960Y-99564191D01*
X122785331Y-99281942D01*
X122673509Y-99011979D01*
X122673503Y-99011970D01*
X122673502Y-99011966D01*
X122527408Y-98758924D01*
X122527403Y-98758917D01*
X122349529Y-98527107D01*
X122349510Y-98527086D01*
X122142913Y-98320489D01*
X122142892Y-98320470D01*
X121911082Y-98142596D01*
X121911075Y-98142591D01*
X121658033Y-97996497D01*
X121658025Y-97996493D01*
X121658021Y-97996491D01*
X121388058Y-97884669D01*
X121388055Y-97884668D01*
X121388053Y-97884667D01*
X121156226Y-97822549D01*
X121105809Y-97809040D01*
X121105807Y-97809039D01*
X121105801Y-97809038D01*
X120816105Y-97770900D01*
X120816103Y-97770900D01*
X120523897Y-97770900D01*
X120523894Y-97770900D01*
X120234198Y-97809038D01*
X119951946Y-97884667D01*
X119951942Y-97884669D01*
X119721918Y-97979948D01*
X119681977Y-97996492D01*
X119681966Y-97996497D01*
X119428924Y-98142591D01*
X119428917Y-98142596D01*
X119197107Y-98320470D01*
X119197086Y-98320489D01*
X118990489Y-98527086D01*
X118990470Y-98527107D01*
X118812596Y-98758917D01*
X118812591Y-98758924D01*
X118666497Y-99011966D01*
X118666492Y-99011977D01*
X118666491Y-99011979D01*
X118606341Y-99157194D01*
X118554669Y-99281942D01*
X118554667Y-99281946D01*
X118479038Y-99564198D01*
X118440900Y-99853894D01*
X116659410Y-99853894D01*
X116642529Y-99747310D01*
X116590041Y-99585769D01*
X116512929Y-99434428D01*
X116464788Y-99368167D01*
X116413091Y-99297011D01*
X116292988Y-99176908D01*
X116155574Y-99077072D01*
X116138750Y-99068500D01*
X116004231Y-98999959D01*
X115842690Y-98947471D01*
X115674927Y-98920900D01*
X115505073Y-98920900D01*
X115337310Y-98947471D01*
X115337307Y-98947471D01*
X115337306Y-98947472D01*
X115175769Y-98999959D01*
X115175767Y-98999960D01*
X115024425Y-99077072D01*
X114887011Y-99176908D01*
X114766908Y-99297011D01*
X114667072Y-99434425D01*
X114600950Y-99564198D01*
X114589959Y-99585769D01*
X114537471Y-99747310D01*
X114510900Y-99915073D01*
X111909100Y-99915073D01*
X111882529Y-99747310D01*
X111830041Y-99585769D01*
X111752929Y-99434428D01*
X111704788Y-99368167D01*
X111653091Y-99297011D01*
X111532988Y-99176908D01*
X111395574Y-99077072D01*
X111378750Y-99068500D01*
X111244231Y-98999959D01*
X111082690Y-98947471D01*
X110914927Y-98920900D01*
X110745073Y-98920900D01*
X110577310Y-98947471D01*
X110577307Y-98947471D01*
X110577306Y-98947472D01*
X110415769Y-98999959D01*
X110415767Y-98999960D01*
X110264425Y-99077072D01*
X110127011Y-99176908D01*
X110006908Y-99297011D01*
X109907072Y-99434425D01*
X109840950Y-99564198D01*
X109829959Y-99585769D01*
X109777471Y-99747310D01*
X109750900Y-99915073D01*
X107979100Y-99915073D01*
X107979100Y-99853897D01*
X107943801Y-99585769D01*
X107940961Y-99564198D01*
X107940960Y-99564197D01*
X107940960Y-99564191D01*
X107865331Y-99281942D01*
X107753509Y-99011979D01*
X107753503Y-99011970D01*
X107753502Y-99011966D01*
X107607408Y-98758924D01*
X107607403Y-98758917D01*
X107429529Y-98527107D01*
X107429510Y-98527086D01*
X107222913Y-98320489D01*
X107222892Y-98320470D01*
X106991082Y-98142596D01*
X106991075Y-98142591D01*
X106738033Y-97996497D01*
X106738025Y-97996493D01*
X106738021Y-97996491D01*
X106468058Y-97884669D01*
X106468055Y-97884668D01*
X106468053Y-97884667D01*
X106236226Y-97822549D01*
X106185809Y-97809040D01*
X106185807Y-97809039D01*
X106185801Y-97809038D01*
X105896105Y-97770900D01*
X105896103Y-97770900D01*
X105603897Y-97770900D01*
X105603894Y-97770900D01*
X105314198Y-97809038D01*
X105031946Y-97884667D01*
X105031942Y-97884669D01*
X104801918Y-97979948D01*
X104761977Y-97996492D01*
X104761966Y-97996497D01*
X104508924Y-98142591D01*
X104508917Y-98142596D01*
X104277107Y-98320470D01*
X104277086Y-98320489D01*
X104070489Y-98527086D01*
X104070470Y-98527107D01*
X103892596Y-98758917D01*
X103892591Y-98758924D01*
X103746497Y-99011966D01*
X103746492Y-99011977D01*
X103746491Y-99011979D01*
X103686341Y-99157194D01*
X103634669Y-99281942D01*
X103634667Y-99281946D01*
X103559038Y-99564198D01*
X103520900Y-99853894D01*
X101739410Y-99853894D01*
X101722529Y-99747310D01*
X101670041Y-99585769D01*
X101592929Y-99434428D01*
X101544788Y-99368167D01*
X101493091Y-99297011D01*
X101372988Y-99176908D01*
X101235574Y-99077072D01*
X101218750Y-99068500D01*
X101084231Y-98999959D01*
X100922690Y-98947471D01*
X100754927Y-98920900D01*
X100585073Y-98920900D01*
X100417310Y-98947471D01*
X100417307Y-98947471D01*
X100417306Y-98947472D01*
X100255769Y-98999959D01*
X100255767Y-98999960D01*
X100104425Y-99077072D01*
X99967011Y-99176908D01*
X99846908Y-99297011D01*
X99747072Y-99434425D01*
X99680950Y-99564198D01*
X99669959Y-99585769D01*
X99617471Y-99747310D01*
X99590900Y-99915073D01*
X93152900Y-99915073D01*
X93152900Y-97353399D01*
X100585500Y-97353399D01*
X100585500Y-97566601D01*
X100618853Y-97777179D01*
X100618854Y-97777183D01*
X100674376Y-97948064D01*
X100684736Y-97979947D01*
X100781528Y-98169913D01*
X100781530Y-98169916D01*
X100906847Y-98342399D01*
X101057600Y-98493152D01*
X101057603Y-98493154D01*
X101230087Y-98618472D01*
X101420053Y-98715264D01*
X101622821Y-98781147D01*
X101833399Y-98814500D01*
X101833402Y-98814500D01*
X102046598Y-98814500D01*
X102046601Y-98814500D01*
X102257179Y-98781147D01*
X102459947Y-98715264D01*
X102649913Y-98618472D01*
X102822397Y-98493154D01*
X102973154Y-98342397D01*
X103098472Y-98169913D01*
X103195264Y-97979947D01*
X103261147Y-97777179D01*
X103294500Y-97566601D01*
X103294500Y-97353399D01*
X103261147Y-97142821D01*
X103195264Y-96940053D01*
X103190643Y-96930983D01*
X103169780Y-96890037D01*
X103156676Y-96820260D01*
X103183377Y-96754476D01*
X103192943Y-96743749D01*
X105123294Y-94813399D01*
X106935500Y-94813399D01*
X106935500Y-95026601D01*
X106968194Y-95233019D01*
X106968854Y-95237183D01*
X107034689Y-95439805D01*
X107034736Y-95439947D01*
X107127236Y-95621489D01*
X107131530Y-95629916D01*
X107256847Y-95802399D01*
X107407600Y-95953152D01*
X107435531Y-95973445D01*
X107580087Y-96078472D01*
X107770053Y-96175264D01*
X107972821Y-96241147D01*
X108183399Y-96274500D01*
X108183402Y-96274500D01*
X108396598Y-96274500D01*
X108396601Y-96274500D01*
X108607179Y-96241147D01*
X108809947Y-96175264D01*
X108999913Y-96078472D01*
X109172397Y-95953154D01*
X109323154Y-95802397D01*
X109448472Y-95629913D01*
X109545264Y-95439947D01*
X109611147Y-95237179D01*
X109644500Y-95026601D01*
X109644500Y-94813399D01*
X109611147Y-94602821D01*
X109545264Y-94400053D01*
X109448472Y-94210087D01*
X109371045Y-94103519D01*
X109323152Y-94037600D01*
X109172399Y-93886847D01*
X108999916Y-93761530D01*
X108999915Y-93761529D01*
X108999913Y-93761528D01*
X108809947Y-93664736D01*
X108809944Y-93664735D01*
X108809942Y-93664734D01*
X108607183Y-93598854D01*
X108607181Y-93598853D01*
X108607179Y-93598853D01*
X108396601Y-93565500D01*
X108183399Y-93565500D01*
X107972821Y-93598853D01*
X107972819Y-93598853D01*
X107972816Y-93598854D01*
X107770057Y-93664734D01*
X107770051Y-93664737D01*
X107580083Y-93761530D01*
X107407600Y-93886847D01*
X107256847Y-94037600D01*
X107131530Y-94210083D01*
X107034737Y-94400051D01*
X107034734Y-94400057D01*
X106968854Y-94602816D01*
X106968853Y-94602819D01*
X106968853Y-94602821D01*
X106935500Y-94813399D01*
X105123294Y-94813399D01*
X107770289Y-92166405D01*
X107832601Y-92132379D01*
X107859384Y-92129500D01*
X108528675Y-92129500D01*
X108596796Y-92149502D01*
X108643289Y-92203158D01*
X108651298Y-92226525D01*
X108651639Y-92227970D01*
X108651639Y-92227972D01*
X108651640Y-92227973D01*
X108658177Y-92245500D01*
X108699826Y-92357166D01*
X108699827Y-92357167D01*
X108741755Y-92413174D01*
X108782456Y-92467544D01*
X108844413Y-92513925D01*
X108892832Y-92550172D01*
X108892833Y-92550173D01*
X108892835Y-92550173D01*
X108892837Y-92550175D01*
X109022027Y-92598360D01*
X109079136Y-92604500D01*
X109079141Y-92604500D01*
X109620859Y-92604500D01*
X109620864Y-92604500D01*
X109677973Y-92598360D01*
X109807163Y-92550175D01*
X109917544Y-92467544D01*
X110000175Y-92357163D01*
X110048360Y-92227973D01*
X110054500Y-92170864D01*
X110054500Y-91329136D01*
X110048360Y-91272027D01*
X110000175Y-91142837D01*
X110000173Y-91142835D01*
X110000173Y-91142833D01*
X110000172Y-91142832D01*
X109964949Y-91095781D01*
X109917544Y-91032456D01*
X109869409Y-90996422D01*
X109807167Y-90949827D01*
X109807166Y-90949826D01*
X109728804Y-90920599D01*
X109677973Y-90901640D01*
X109670834Y-90900872D01*
X109620871Y-90895500D01*
X109620864Y-90895500D01*
X109079136Y-90895500D01*
X109079128Y-90895500D01*
X109022027Y-90901640D01*
X108892833Y-90949826D01*
X108892832Y-90949827D01*
X108782456Y-91032456D01*
X108699827Y-91142832D01*
X108699826Y-91142833D01*
X108651639Y-91272029D01*
X108651298Y-91273475D01*
X108650725Y-91274481D01*
X108648886Y-91279412D01*
X108648087Y-91279114D01*
X108616167Y-91335171D01*
X108553258Y-91368079D01*
X108528675Y-91370500D01*
X107600038Y-91370500D01*
X107540963Y-91386328D01*
X107503513Y-91396363D01*
X107416984Y-91446321D01*
X107416979Y-91446325D01*
X107396690Y-91466615D01*
X107346324Y-91516981D01*
X107346322Y-91516983D01*
X102656257Y-96207047D01*
X102593945Y-96241073D01*
X102523130Y-96236008D01*
X102509966Y-96230222D01*
X102459947Y-96204736D01*
X102459944Y-96204735D01*
X102459942Y-96204734D01*
X102257183Y-96138854D01*
X102257181Y-96138853D01*
X102257179Y-96138853D01*
X102046601Y-96105500D01*
X101833399Y-96105500D01*
X101622821Y-96138853D01*
X101622819Y-96138853D01*
X101622816Y-96138854D01*
X101420057Y-96204734D01*
X101420051Y-96204737D01*
X101230083Y-96301530D01*
X101057600Y-96426847D01*
X100906847Y-96577600D01*
X100781530Y-96750083D01*
X100684737Y-96940051D01*
X100684734Y-96940057D01*
X100618854Y-97142816D01*
X100618853Y-97142819D01*
X100618853Y-97142821D01*
X100585500Y-97353399D01*
X93152900Y-97353399D01*
X93152900Y-92895398D01*
X94670900Y-92895398D01*
X94670900Y-93104602D01*
X94694642Y-93254500D01*
X94703628Y-93311237D01*
X94768273Y-93510193D01*
X94863253Y-93696602D01*
X94986219Y-93865852D01*
X95134147Y-94013780D01*
X95303397Y-94136746D01*
X95303400Y-94136748D01*
X95489803Y-94231725D01*
X95688768Y-94296373D01*
X95895398Y-94329100D01*
X95895401Y-94329100D01*
X96104599Y-94329100D01*
X96104602Y-94329100D01*
X96311232Y-94296373D01*
X96510197Y-94231725D01*
X96696600Y-94136748D01*
X96865851Y-94013781D01*
X97013781Y-93865851D01*
X97136748Y-93696600D01*
X97231725Y-93510197D01*
X97296373Y-93311232D01*
X97329100Y-93104602D01*
X97329100Y-92895398D01*
X97296373Y-92688768D01*
X97231725Y-92489803D01*
X97136748Y-92303400D01*
X97115892Y-92274694D01*
X97013780Y-92134147D01*
X96865852Y-91986219D01*
X96696602Y-91863253D01*
X96534321Y-91780567D01*
X96510197Y-91768275D01*
X96510196Y-91768274D01*
X96510193Y-91768273D01*
X96311237Y-91703628D01*
X96311233Y-91703627D01*
X96311232Y-91703627D01*
X96104602Y-91670900D01*
X95895398Y-91670900D01*
X95688768Y-91703627D01*
X95688762Y-91703628D01*
X95489806Y-91768273D01*
X95303397Y-91863253D01*
X95134147Y-91986219D01*
X94986219Y-92134147D01*
X94863253Y-92303397D01*
X94768273Y-92489806D01*
X94703628Y-92688762D01*
X94703627Y-92688767D01*
X94703627Y-92688768D01*
X94670900Y-92895398D01*
X93152900Y-92895398D01*
X93152900Y-90278900D01*
X93172902Y-90210779D01*
X93226558Y-90164286D01*
X93278900Y-90152900D01*
X131506214Y-90152900D01*
X131574335Y-90172902D01*
G37*
%TD.AperFunction*%
%TA.AperFunction,Conductor*%
G36*
X192789221Y-90172902D02*
G01*
X192835714Y-90226558D01*
X192847100Y-90278900D01*
X192847100Y-109721100D01*
X192827098Y-109789221D01*
X192773442Y-109835714D01*
X192721100Y-109847100D01*
X185656999Y-109847100D01*
X185588878Y-109827098D01*
X185542385Y-109773442D01*
X185532281Y-109703168D01*
X185561775Y-109638588D01*
X185567904Y-109632005D01*
X186209435Y-108990474D01*
X186972642Y-108227266D01*
X186972652Y-108227259D01*
X187053670Y-108146241D01*
X187053676Y-108146235D01*
X187103638Y-108059698D01*
X187109103Y-108039300D01*
X187129501Y-107963178D01*
X187129501Y-107863254D01*
X187129500Y-107863250D01*
X187129500Y-107145398D01*
X188420900Y-107145398D01*
X188420900Y-107354602D01*
X188452974Y-107557107D01*
X188453628Y-107561237D01*
X188518273Y-107760193D01*
X188518274Y-107760196D01*
X188518275Y-107760197D01*
X188569292Y-107860323D01*
X188613253Y-107946602D01*
X188736219Y-108115852D01*
X188884147Y-108263780D01*
X189048971Y-108383530D01*
X189053400Y-108386748D01*
X189239803Y-108481725D01*
X189438768Y-108546373D01*
X189645398Y-108579100D01*
X189645401Y-108579100D01*
X189854599Y-108579100D01*
X189854602Y-108579100D01*
X190061232Y-108546373D01*
X190260197Y-108481725D01*
X190446600Y-108386748D01*
X190615851Y-108263781D01*
X190763781Y-108115851D01*
X190886748Y-107946600D01*
X190981725Y-107760197D01*
X191046373Y-107561232D01*
X191079100Y-107354602D01*
X191079100Y-107145398D01*
X191046373Y-106938768D01*
X190981725Y-106739803D01*
X190886748Y-106553400D01*
X190886746Y-106553397D01*
X190763780Y-106384147D01*
X190615852Y-106236219D01*
X190446602Y-106113253D01*
X190260193Y-106018273D01*
X190061237Y-105953628D01*
X190061233Y-105953627D01*
X190061232Y-105953627D01*
X189854602Y-105920900D01*
X189645398Y-105920900D01*
X189468222Y-105948962D01*
X189438762Y-105953628D01*
X189239806Y-106018273D01*
X189053397Y-106113253D01*
X188884147Y-106236219D01*
X188736219Y-106384147D01*
X188613253Y-106553397D01*
X188518273Y-106739806D01*
X188453628Y-106938762D01*
X188453627Y-106938767D01*
X188453627Y-106938768D01*
X188420900Y-107145398D01*
X187129500Y-107145398D01*
X187129500Y-105560125D01*
X187129501Y-105560112D01*
X187129501Y-105450038D01*
X187129500Y-105450034D01*
X187103928Y-105354600D01*
X187103928Y-105354599D01*
X187103638Y-105353518D01*
X187083477Y-105318598D01*
X187066740Y-105249602D01*
X187089961Y-105182511D01*
X187145769Y-105138624D01*
X187192592Y-105129599D01*
X188383254Y-105129599D01*
X188443342Y-105123140D01*
X188579267Y-105072442D01*
X188695404Y-104985504D01*
X188782342Y-104869367D01*
X188833040Y-104733442D01*
X188839500Y-104673355D01*
X188839499Y-103826846D01*
X188833040Y-103766758D01*
X188782342Y-103630833D01*
X188695404Y-103514696D01*
X188579267Y-103427758D01*
X188579265Y-103427757D01*
X188579266Y-103427757D01*
X188443349Y-103377062D01*
X188443344Y-103377060D01*
X188443342Y-103377060D01*
X188413298Y-103373830D01*
X188383256Y-103370600D01*
X187036753Y-103370600D01*
X187036729Y-103370602D01*
X186976660Y-103377059D01*
X186976658Y-103377059D01*
X186840733Y-103427757D01*
X186724596Y-103514696D01*
X186637657Y-103630834D01*
X186586961Y-103766753D01*
X186585349Y-103773576D01*
X186570454Y-103799731D01*
X186557950Y-103827112D01*
X186553081Y-103830240D01*
X186550217Y-103835271D01*
X186523542Y-103849224D01*
X186498224Y-103865496D01*
X186490243Y-103866643D01*
X186487308Y-103868179D01*
X186462726Y-103870600D01*
X186263526Y-103870600D01*
X186195405Y-103850598D01*
X186174431Y-103833695D01*
X186126795Y-103786059D01*
X186069154Y-103756690D01*
X186016862Y-103730046D01*
X185925653Y-103715600D01*
X185925649Y-103715600D01*
X185494348Y-103715600D01*
X185403139Y-103730045D01*
X185293204Y-103786059D01*
X185205959Y-103873304D01*
X185153890Y-103975498D01*
X185149946Y-103983238D01*
X185137269Y-104063280D01*
X185135500Y-104074450D01*
X185135500Y-104405751D01*
X185149945Y-104496960D01*
X185205959Y-104606895D01*
X185260069Y-104661005D01*
X185294095Y-104723317D01*
X185289030Y-104794132D01*
X185260069Y-104839195D01*
X185205961Y-104893302D01*
X185205959Y-104893304D01*
X185158982Y-104985503D01*
X185149946Y-105003238D01*
X185136271Y-105089581D01*
X185135500Y-105094450D01*
X185135500Y-105425751D01*
X185149945Y-105516960D01*
X185202700Y-105620499D01*
X185205960Y-105626896D01*
X185293204Y-105714140D01*
X185403138Y-105770154D01*
X185494347Y-105784600D01*
X185925652Y-105784599D01*
X186016862Y-105770154D01*
X186126796Y-105714140D01*
X186155405Y-105685531D01*
X186217717Y-105651505D01*
X186288532Y-105656570D01*
X186345368Y-105699117D01*
X186370179Y-105765637D01*
X186370500Y-105774626D01*
X186370500Y-107025461D01*
X186350498Y-107093582D01*
X186296842Y-107140075D01*
X186226568Y-107150179D01*
X186161988Y-107120685D01*
X186142564Y-107099522D01*
X186092463Y-107030564D01*
X185969535Y-106907636D01*
X185828887Y-106805449D01*
X185828886Y-106805448D01*
X185828884Y-106805447D01*
X185673981Y-106726520D01*
X185673978Y-106726519D01*
X185673976Y-106726518D01*
X185508642Y-106672798D01*
X185508640Y-106672797D01*
X185508638Y-106672797D01*
X185336926Y-106645600D01*
X185163074Y-106645600D01*
X184991362Y-106672797D01*
X184991360Y-106672797D01*
X184991357Y-106672798D01*
X184826023Y-106726518D01*
X184826017Y-106726521D01*
X184671112Y-106805449D01*
X184530464Y-106907636D01*
X184407536Y-107030564D01*
X184305349Y-107171212D01*
X184226421Y-107326117D01*
X184226418Y-107326123D01*
X184172698Y-107491457D01*
X184172697Y-107491460D01*
X184172697Y-107491462D01*
X184145500Y-107663174D01*
X184145500Y-107837026D01*
X184168681Y-107983383D01*
X184172698Y-108008742D01*
X184223925Y-108166404D01*
X184226420Y-108174081D01*
X184305347Y-108328984D01*
X184305349Y-108328987D01*
X184407536Y-108469635D01*
X184530464Y-108592563D01*
X184575342Y-108625169D01*
X184671116Y-108694753D01*
X184826019Y-108773680D01*
X184880408Y-108791352D01*
X184991358Y-108827402D01*
X184991359Y-108827402D01*
X184991362Y-108827403D01*
X185012795Y-108830797D01*
X185076948Y-108861209D01*
X185114475Y-108921476D01*
X185113462Y-108992466D01*
X185082181Y-109044341D01*
X184936925Y-109189596D01*
X184874616Y-109223620D01*
X184847832Y-109226500D01*
X158118599Y-109226500D01*
X158050478Y-109206498D01*
X158006332Y-109157703D01*
X158004040Y-109153204D01*
X157916795Y-109065959D01*
X157861829Y-109037953D01*
X157806862Y-109009946D01*
X157715653Y-108995500D01*
X157715649Y-108995500D01*
X157284348Y-108995500D01*
X157193139Y-109009945D01*
X157083204Y-109065959D01*
X157083202Y-109065961D01*
X157069595Y-109079569D01*
X157007283Y-109113595D01*
X156936468Y-109108530D01*
X156879632Y-109065983D01*
X156854821Y-108999463D01*
X156854500Y-108990474D01*
X156854500Y-108791360D01*
X156854500Y-108791354D01*
X156844461Y-108722450D01*
X156811651Y-108655337D01*
X156799703Y-108585356D01*
X156811650Y-108544664D01*
X156844461Y-108477550D01*
X156854500Y-108408646D01*
X156854500Y-108141354D01*
X156854499Y-108141352D01*
X156854373Y-108139603D01*
X156854500Y-108139016D01*
X156854500Y-108136795D01*
X156854981Y-108136795D01*
X156869401Y-108070216D01*
X156919558Y-108019968D01*
X156980044Y-108004500D01*
X157799501Y-108004500D01*
X157867622Y-108024502D01*
X157914115Y-108078158D01*
X157925501Y-108130500D01*
X157925501Y-108155651D01*
X157939945Y-108246860D01*
X157989255Y-108343638D01*
X157995960Y-108356796D01*
X158083204Y-108444040D01*
X158193138Y-108500054D01*
X158284347Y-108514500D01*
X158715652Y-108514499D01*
X158806862Y-108500054D01*
X158916796Y-108444040D01*
X158954431Y-108406405D01*
X159016743Y-108372379D01*
X159043526Y-108369500D01*
X159960134Y-108369500D01*
X159960138Y-108369501D01*
X160060062Y-108369501D01*
X160136184Y-108349103D01*
X160156582Y-108343638D01*
X160243119Y-108293676D01*
X160313776Y-108223019D01*
X160324141Y-108212654D01*
X160324148Y-108212644D01*
X160424390Y-108112404D01*
X160486703Y-108078379D01*
X160513485Y-108075500D01*
X162502304Y-108075500D01*
X162502320Y-108075501D01*
X162510038Y-108075501D01*
X162609961Y-108075501D01*
X162609962Y-108075501D01*
X162686429Y-108055011D01*
X162706482Y-108049638D01*
X162706484Y-108049637D01*
X162706486Y-108049636D01*
X162777323Y-108008738D01*
X162793019Y-107999676D01*
X162863676Y-107929019D01*
X162874043Y-107918652D01*
X162874050Y-107918642D01*
X163860706Y-106931986D01*
X163923018Y-106897961D01*
X163993834Y-106903026D01*
X164050669Y-106945573D01*
X164075480Y-107012093D01*
X164074250Y-107040789D01*
X164055495Y-107159203D01*
X164055495Y-107340925D01*
X164083923Y-107520410D01*
X164083924Y-107520415D01*
X164137165Y-107684274D01*
X164140078Y-107693238D01*
X164216121Y-107842481D01*
X164222580Y-107855157D01*
X164329393Y-108002172D01*
X164457886Y-108130665D01*
X164483813Y-108149502D01*
X164604905Y-108237481D01*
X164766821Y-108319981D01*
X164939649Y-108376136D01*
X165119134Y-108404564D01*
X165119137Y-108404564D01*
X165300853Y-108404564D01*
X165300856Y-108404564D01*
X165480341Y-108376136D01*
X165653169Y-108319981D01*
X165815085Y-108237481D01*
X165962101Y-108130667D01*
X166090598Y-108002170D01*
X166197412Y-107855154D01*
X166279912Y-107693238D01*
X166336067Y-107520410D01*
X166355549Y-107397403D01*
X166385960Y-107333253D01*
X166446228Y-107295726D01*
X166517218Y-107296740D01*
X166576390Y-107335973D01*
X166604445Y-107397405D01*
X166622310Y-107510197D01*
X166623929Y-107520415D01*
X166677170Y-107684274D01*
X166680083Y-107693238D01*
X166756126Y-107842481D01*
X166762585Y-107855157D01*
X166869398Y-108002172D01*
X166997891Y-108130665D01*
X167023818Y-108149502D01*
X167144910Y-108237481D01*
X167306826Y-108319981D01*
X167479654Y-108376136D01*
X167659139Y-108404564D01*
X167659142Y-108404564D01*
X167840858Y-108404564D01*
X167840861Y-108404564D01*
X168020346Y-108376136D01*
X168193174Y-108319981D01*
X168355090Y-108237481D01*
X168502106Y-108130667D01*
X168630603Y-108002170D01*
X168737417Y-107855154D01*
X168819917Y-107693238D01*
X168876072Y-107520410D01*
X168895554Y-107397403D01*
X168925965Y-107333253D01*
X168986233Y-107295726D01*
X169057223Y-107296740D01*
X169116395Y-107335973D01*
X169144450Y-107397405D01*
X169162315Y-107510197D01*
X169163934Y-107520415D01*
X169217175Y-107684274D01*
X169220088Y-107693238D01*
X169296131Y-107842481D01*
X169302590Y-107855157D01*
X169409403Y-108002172D01*
X169537896Y-108130665D01*
X169563823Y-108149502D01*
X169684915Y-108237481D01*
X169846831Y-108319981D01*
X170019659Y-108376136D01*
X170199144Y-108404564D01*
X170199147Y-108404564D01*
X170380863Y-108404564D01*
X170380866Y-108404564D01*
X170560351Y-108376136D01*
X170733179Y-108319981D01*
X170895095Y-108237481D01*
X171042111Y-108130667D01*
X171170608Y-108002170D01*
X171277422Y-107855154D01*
X171359922Y-107693238D01*
X171416077Y-107520410D01*
X171444505Y-107340925D01*
X171444505Y-107159203D01*
X171416077Y-106979718D01*
X171411820Y-106966616D01*
X171392703Y-106907779D01*
X171382062Y-106875030D01*
X176525500Y-106875030D01*
X176525500Y-108625163D01*
X176525501Y-108625173D01*
X176540265Y-108699400D01*
X176596516Y-108783584D01*
X176680697Y-108839833D01*
X176680699Y-108839834D01*
X176754933Y-108854600D01*
X178505066Y-108854599D01*
X178505069Y-108854598D01*
X178505073Y-108854598D01*
X178554326Y-108844801D01*
X178579301Y-108839834D01*
X178663484Y-108783584D01*
X178719734Y-108699401D01*
X178734500Y-108625167D01*
X178734499Y-107663216D01*
X179066000Y-107663216D01*
X179066000Y-107836983D01*
X179093185Y-108008624D01*
X179146883Y-108173888D01*
X179146884Y-108173890D01*
X179225776Y-108328725D01*
X179304042Y-108436449D01*
X179304043Y-108436449D01*
X179738234Y-108002258D01*
X179769901Y-108057107D01*
X179862993Y-108150199D01*
X179917840Y-108181865D01*
X179483649Y-108616055D01*
X179483649Y-108616056D01*
X179591374Y-108694323D01*
X179746209Y-108773215D01*
X179746211Y-108773216D01*
X179911475Y-108826914D01*
X180083116Y-108854100D01*
X180256884Y-108854100D01*
X180428524Y-108826914D01*
X180593788Y-108773216D01*
X180593790Y-108773215D01*
X180748621Y-108694325D01*
X180856349Y-108616055D01*
X180856349Y-108616054D01*
X180422159Y-108181864D01*
X180477007Y-108150199D01*
X180570099Y-108057107D01*
X180601764Y-108002259D01*
X181035954Y-108436449D01*
X181035955Y-108436449D01*
X181114225Y-108328721D01*
X181193115Y-108173890D01*
X181193116Y-108173888D01*
X181246814Y-108008624D01*
X181274000Y-107836983D01*
X181274000Y-107663216D01*
X181246814Y-107491575D01*
X181193116Y-107326311D01*
X181193115Y-107326309D01*
X181114223Y-107171474D01*
X181035955Y-107063749D01*
X180601764Y-107497939D01*
X180570099Y-107443093D01*
X180477007Y-107350001D01*
X180422158Y-107318334D01*
X180856349Y-106884143D01*
X180856349Y-106884142D01*
X180748625Y-106805876D01*
X180593790Y-106726984D01*
X180593788Y-106726983D01*
X180428524Y-106673285D01*
X180256884Y-106646100D01*
X180083116Y-106646100D01*
X179911475Y-106673285D01*
X179746211Y-106726983D01*
X179746209Y-106726984D01*
X179591379Y-106805873D01*
X179591379Y-106805874D01*
X179483649Y-106884142D01*
X179483649Y-106884144D01*
X179917840Y-107318335D01*
X179862993Y-107350001D01*
X179769901Y-107443093D01*
X179738235Y-107497940D01*
X179304044Y-107063749D01*
X179304042Y-107063749D01*
X179225774Y-107171479D01*
X179225773Y-107171479D01*
X179146884Y-107326309D01*
X179146883Y-107326311D01*
X179093185Y-107491575D01*
X179066000Y-107663216D01*
X178734499Y-107663216D01*
X178734499Y-106875034D01*
X178734498Y-106875030D01*
X178734498Y-106875026D01*
X178719734Y-106800799D01*
X178702518Y-106775034D01*
X178663484Y-106716616D01*
X178663270Y-106716473D01*
X178579302Y-106660366D01*
X178505067Y-106645600D01*
X176754936Y-106645600D01*
X176754926Y-106645601D01*
X176680699Y-106660365D01*
X176596515Y-106716616D01*
X176540266Y-106800797D01*
X176525500Y-106875030D01*
X171382062Y-106875030D01*
X171371181Y-106841543D01*
X171359922Y-106806890D01*
X171277422Y-106644974D01*
X171212749Y-106555960D01*
X171170606Y-106497955D01*
X171042113Y-106369462D01*
X170895098Y-106262649D01*
X170895097Y-106262648D01*
X170895095Y-106262647D01*
X170733179Y-106180147D01*
X170733176Y-106180146D01*
X170733174Y-106180145D01*
X170560356Y-106123993D01*
X170560352Y-106123992D01*
X170560351Y-106123992D01*
X170380866Y-106095564D01*
X170199144Y-106095564D01*
X170029395Y-106122450D01*
X170019653Y-106123993D01*
X169852298Y-106178370D01*
X169781330Y-106180397D01*
X169724267Y-106147632D01*
X168546230Y-104969595D01*
X168512204Y-104907283D01*
X168517269Y-104836468D01*
X168559816Y-104779632D01*
X168626336Y-104754821D01*
X168635325Y-104754500D01*
X176397516Y-104754500D01*
X176465637Y-104774502D01*
X176486611Y-104791405D01*
X177923813Y-106228607D01*
X177923834Y-106228630D01*
X177998874Y-106303670D01*
X177998879Y-106303674D01*
X177998881Y-106303676D01*
X177998882Y-106303677D01*
X177998884Y-106303678D01*
X178085414Y-106353636D01*
X178085418Y-106353638D01*
X178105815Y-106359103D01*
X178181938Y-106379501D01*
X178281862Y-106379501D01*
X178281866Y-106379500D01*
X181790616Y-106379500D01*
X181858737Y-106399502D01*
X181879711Y-106416405D01*
X182106517Y-106643211D01*
X182140543Y-106705523D01*
X182135478Y-106776338D01*
X182092931Y-106833174D01*
X182091483Y-106834242D01*
X181990464Y-106907636D01*
X181867536Y-107030564D01*
X181765349Y-107171212D01*
X181686421Y-107326117D01*
X181686418Y-107326123D01*
X181632698Y-107491457D01*
X181632697Y-107491460D01*
X181632697Y-107491462D01*
X181605500Y-107663174D01*
X181605500Y-107837026D01*
X181628681Y-107983383D01*
X181632698Y-108008742D01*
X181683925Y-108166404D01*
X181686420Y-108174081D01*
X181765347Y-108328984D01*
X181765349Y-108328987D01*
X181867536Y-108469635D01*
X181990464Y-108592563D01*
X182035342Y-108625169D01*
X182131116Y-108694753D01*
X182286019Y-108773680D01*
X182451362Y-108827403D01*
X182623074Y-108854600D01*
X182623077Y-108854600D01*
X182796923Y-108854600D01*
X182796926Y-108854600D01*
X182968638Y-108827403D01*
X183133981Y-108773680D01*
X183288884Y-108694753D01*
X183429533Y-108592565D01*
X183552465Y-108469633D01*
X183654653Y-108328984D01*
X183733580Y-108174081D01*
X183787303Y-108008738D01*
X183814500Y-107837026D01*
X183814500Y-107663174D01*
X183787303Y-107491462D01*
X183733580Y-107326119D01*
X183654653Y-107171216D01*
X183566559Y-107049965D01*
X183552463Y-107030564D01*
X183429535Y-106907636D01*
X183288887Y-106805449D01*
X183288886Y-106805448D01*
X183288884Y-106805447D01*
X183153080Y-106736251D01*
X183101467Y-106687505D01*
X183088580Y-106656603D01*
X183063639Y-106563519D01*
X183038802Y-106520500D01*
X183026935Y-106499946D01*
X183013678Y-106476984D01*
X183013670Y-106476974D01*
X182938630Y-106401934D01*
X182938607Y-106401913D01*
X182310864Y-105774170D01*
X182310852Y-105774156D01*
X182233025Y-105696329D01*
X182233015Y-105696321D01*
X182146480Y-105646361D01*
X182135121Y-105643317D01*
X182135116Y-105643316D01*
X182126084Y-105640896D01*
X182049962Y-105620499D01*
X181950038Y-105620499D01*
X181950034Y-105620500D01*
X181935137Y-105620500D01*
X181928020Y-105619688D01*
X181904215Y-105609645D01*
X181873061Y-105600498D01*
X181867604Y-105594200D01*
X181862606Y-105592092D01*
X181850662Y-105574648D01*
X181826568Y-105546842D01*
X181825224Y-105537496D01*
X181822496Y-105533512D01*
X181821946Y-105514698D01*
X181816464Y-105476568D01*
X181816722Y-105474859D01*
X181824500Y-105425753D01*
X181824499Y-105094448D01*
X181810054Y-105003238D01*
X181754040Y-104893304D01*
X181705431Y-104844695D01*
X181671406Y-104782382D01*
X181676472Y-104711566D01*
X181719019Y-104654731D01*
X181785539Y-104629921D01*
X181794527Y-104629600D01*
X182212726Y-104629600D01*
X182280847Y-104649602D01*
X182327340Y-104703258D01*
X182335349Y-104726622D01*
X182336959Y-104733435D01*
X182336960Y-104733442D01*
X182341022Y-104744332D01*
X182387657Y-104869366D01*
X182409416Y-104898432D01*
X182474596Y-104985504D01*
X182590733Y-105072442D01*
X182726658Y-105123140D01*
X182786745Y-105129600D01*
X184133254Y-105129599D01*
X184193342Y-105123140D01*
X184329267Y-105072442D01*
X184445404Y-104985504D01*
X184532342Y-104869367D01*
X184583040Y-104733442D01*
X184589500Y-104673355D01*
X184589499Y-103826846D01*
X184583040Y-103766758D01*
X184532342Y-103630833D01*
X184445404Y-103514696D01*
X184329267Y-103427758D01*
X184329265Y-103427757D01*
X184329266Y-103427757D01*
X184193349Y-103377062D01*
X184193344Y-103377060D01*
X184193342Y-103377060D01*
X184163298Y-103373830D01*
X184133256Y-103370600D01*
X182786753Y-103370600D01*
X182786729Y-103370602D01*
X182726660Y-103377059D01*
X182726658Y-103377059D01*
X182590733Y-103427757D01*
X182474596Y-103514696D01*
X182387657Y-103630834D01*
X182336961Y-103766753D01*
X182335349Y-103773576D01*
X182300217Y-103835271D01*
X182237308Y-103868179D01*
X182212726Y-103870600D01*
X181803526Y-103870600D01*
X181735405Y-103850598D01*
X181714431Y-103833695D01*
X181666795Y-103786059D01*
X181609154Y-103756690D01*
X181556862Y-103730046D01*
X181465653Y-103715600D01*
X181465649Y-103715600D01*
X181034348Y-103715600D01*
X180943139Y-103730045D01*
X180833204Y-103786059D01*
X180745959Y-103873304D01*
X180693890Y-103975498D01*
X180689946Y-103983238D01*
X180677269Y-104063280D01*
X180675500Y-104074450D01*
X180675500Y-104405751D01*
X180689945Y-104496961D01*
X180697539Y-104511865D01*
X180710642Y-104581643D01*
X180683940Y-104647427D01*
X180625912Y-104688332D01*
X180554980Y-104691371D01*
X180537053Y-104685475D01*
X180440916Y-104645654D01*
X180440911Y-104645652D01*
X180314465Y-104620500D01*
X180314463Y-104620500D01*
X180185537Y-104620500D01*
X180185534Y-104620500D01*
X180059088Y-104645652D01*
X180059078Y-104645655D01*
X179988716Y-104674800D01*
X179918126Y-104682389D01*
X179854639Y-104650609D01*
X179818413Y-104589550D01*
X179814499Y-104558391D01*
X179814499Y-104175036D01*
X179814498Y-104175027D01*
X179799734Y-104100799D01*
X179774664Y-104063280D01*
X179743484Y-104016616D01*
X179743483Y-104016615D01*
X179659302Y-103960366D01*
X179585067Y-103945600D01*
X177834936Y-103945600D01*
X177834926Y-103945601D01*
X177760699Y-103960365D01*
X177676515Y-104016616D01*
X177660274Y-104040922D01*
X177605796Y-104086448D01*
X177535353Y-104095294D01*
X177471310Y-104064651D01*
X177466416Y-104060012D01*
X176558574Y-103152170D01*
X176558562Y-103152156D01*
X176480735Y-103074329D01*
X176480725Y-103074321D01*
X176394190Y-103024361D01*
X176382831Y-103021317D01*
X176382826Y-103021316D01*
X176373794Y-103018896D01*
X176297672Y-102998499D01*
X176197748Y-102998499D01*
X176197744Y-102998500D01*
X175362079Y-102998500D01*
X175293958Y-102978498D01*
X175288988Y-102975003D01*
X175172730Y-102907881D01*
X175167509Y-102906482D01*
X175044419Y-102873500D01*
X174911581Y-102873500D01*
X174826040Y-102896420D01*
X174783269Y-102907881D01*
X174668233Y-102974297D01*
X174668223Y-102974305D01*
X174574305Y-103068223D01*
X174574297Y-103068233D01*
X174507881Y-103183269D01*
X174501082Y-103208643D01*
X174473679Y-103310915D01*
X174473500Y-103311582D01*
X174473500Y-103444417D01*
X174473499Y-103444417D01*
X174507881Y-103572730D01*
X174574297Y-103687766D01*
X174574305Y-103687776D01*
X174666934Y-103780405D01*
X174700960Y-103842717D01*
X174695895Y-103913532D01*
X174653348Y-103970368D01*
X174586828Y-103995179D01*
X174577839Y-103995500D01*
X159831077Y-103995500D01*
X159762956Y-103975498D01*
X159716463Y-103921842D01*
X159706359Y-103851568D01*
X159735853Y-103786988D01*
X159741967Y-103780419D01*
X160310645Y-103211741D01*
X160310654Y-103211735D01*
X160391670Y-103130719D01*
X160391676Y-103130713D01*
X160427749Y-103068233D01*
X160441636Y-103044180D01*
X160441636Y-103044179D01*
X160441638Y-103044176D01*
X160467500Y-102947656D01*
X160467500Y-101156037D01*
X160487502Y-101087916D01*
X160541158Y-101041423D01*
X160611432Y-101031319D01*
X160676012Y-101060813D01*
X160693463Y-101079333D01*
X160715481Y-101108027D01*
X160715491Y-101108039D01*
X160891947Y-101284495D01*
X160891961Y-101284508D01*
X161089974Y-101436450D01*
X161306114Y-101561238D01*
X161306125Y-101561243D01*
X161536717Y-101656758D01*
X161536721Y-101656760D01*
X161777809Y-101721359D01*
X162023050Y-101753645D01*
X162023051Y-101753644D01*
X162023051Y-100993229D01*
X162059543Y-100999009D01*
X162240559Y-100999009D01*
X162277051Y-100993229D01*
X162277051Y-101753645D01*
X162522292Y-101721359D01*
X162763380Y-101656760D01*
X162763384Y-101656758D01*
X162993976Y-101561243D01*
X162993987Y-101561238D01*
X163210127Y-101436450D01*
X163408140Y-101284508D01*
X163408154Y-101284495D01*
X163584610Y-101108039D01*
X163584623Y-101108025D01*
X163736565Y-100910012D01*
X163861353Y-100693872D01*
X163861358Y-100693861D01*
X163956873Y-100463269D01*
X163956875Y-100463265D01*
X164021474Y-100222177D01*
X164054050Y-99974733D01*
X164054051Y-99974724D01*
X164054051Y-99876936D01*
X163300064Y-99876936D01*
X163300064Y-99622936D01*
X164054051Y-99622936D01*
X164054051Y-99525148D01*
X164054050Y-99525138D01*
X171445949Y-99525138D01*
X171445949Y-99622936D01*
X172199936Y-99622936D01*
X172199936Y-99876936D01*
X171445949Y-99876936D01*
X171445949Y-99974733D01*
X171478525Y-100222177D01*
X171543124Y-100463265D01*
X171543126Y-100463269D01*
X171638641Y-100693861D01*
X171638646Y-100693872D01*
X171763434Y-100910012D01*
X171915376Y-101108025D01*
X171915389Y-101108039D01*
X172091845Y-101284495D01*
X172091859Y-101284508D01*
X172289872Y-101436450D01*
X172506012Y-101561238D01*
X172506023Y-101561243D01*
X172736615Y-101656758D01*
X172736619Y-101656760D01*
X172977707Y-101721359D01*
X173222948Y-101753645D01*
X173222949Y-101753644D01*
X173222949Y-100993229D01*
X173259441Y-100999009D01*
X173440457Y-100999009D01*
X173476949Y-100993229D01*
X173476949Y-101753645D01*
X173722190Y-101721359D01*
X173963278Y-101656760D01*
X173963282Y-101656758D01*
X174193874Y-101561243D01*
X174193885Y-101561238D01*
X174410025Y-101436450D01*
X174608038Y-101284508D01*
X174608052Y-101284495D01*
X174784508Y-101108039D01*
X174784521Y-101108025D01*
X174936463Y-100910012D01*
X175061251Y-100693872D01*
X175061256Y-100693861D01*
X175156771Y-100463269D01*
X175156773Y-100463265D01*
X175221372Y-100222177D01*
X175253948Y-99974733D01*
X175253949Y-99974724D01*
X175253949Y-99876936D01*
X174499962Y-99876936D01*
X174499962Y-99622936D01*
X175253949Y-99622936D01*
X175253949Y-99525148D01*
X175253948Y-99525138D01*
X175221372Y-99277694D01*
X175156773Y-99036606D01*
X175156771Y-99036602D01*
X175061256Y-98806010D01*
X175061251Y-98805999D01*
X174936463Y-98589859D01*
X174784521Y-98391846D01*
X174784508Y-98391832D01*
X174608052Y-98215376D01*
X174608038Y-98215363D01*
X174410025Y-98063421D01*
X174193885Y-97938633D01*
X174193874Y-97938628D01*
X173963282Y-97843113D01*
X173963278Y-97843111D01*
X173722190Y-97778512D01*
X173476949Y-97746225D01*
X173476949Y-98506642D01*
X173440457Y-98500863D01*
X173259441Y-98500863D01*
X173222949Y-98506642D01*
X173222949Y-97746226D01*
X173222948Y-97746225D01*
X172977707Y-97778512D01*
X172736619Y-97843111D01*
X172736615Y-97843113D01*
X172506023Y-97938628D01*
X172506012Y-97938633D01*
X172289872Y-98063421D01*
X172091859Y-98215363D01*
X172091845Y-98215376D01*
X171915389Y-98391832D01*
X171915376Y-98391846D01*
X171763434Y-98589859D01*
X171638646Y-98805999D01*
X171638641Y-98806010D01*
X171543126Y-99036602D01*
X171543124Y-99036606D01*
X171478525Y-99277694D01*
X171445949Y-99525138D01*
X164054050Y-99525138D01*
X164021474Y-99277694D01*
X163956875Y-99036606D01*
X163956873Y-99036602D01*
X163861358Y-98806010D01*
X163861353Y-98805999D01*
X163736565Y-98589859D01*
X163584623Y-98391846D01*
X163584610Y-98391832D01*
X163408154Y-98215376D01*
X163408140Y-98215363D01*
X163210127Y-98063421D01*
X162993987Y-97938633D01*
X162993976Y-97938628D01*
X162763384Y-97843113D01*
X162763380Y-97843111D01*
X162522292Y-97778512D01*
X162277051Y-97746225D01*
X162277051Y-98506642D01*
X162240559Y-98500863D01*
X162059543Y-98500863D01*
X162023051Y-98506642D01*
X162023051Y-97746226D01*
X162023050Y-97746225D01*
X161777809Y-97778512D01*
X161536721Y-97843111D01*
X161536717Y-97843113D01*
X161306125Y-97938628D01*
X161306114Y-97938633D01*
X161089974Y-98063421D01*
X160891961Y-98215363D01*
X160891947Y-98215376D01*
X160715491Y-98391832D01*
X160715478Y-98391846D01*
X160563536Y-98589859D01*
X160438748Y-98805999D01*
X160438742Y-98806010D01*
X160371909Y-98967361D01*
X160327360Y-99022642D01*
X160259997Y-99045063D01*
X160191206Y-99027505D01*
X160142827Y-98975542D01*
X160129500Y-98919143D01*
X160129500Y-96624589D01*
X160129500Y-96606553D01*
X160129501Y-96606550D01*
X160129501Y-96506626D01*
X160103638Y-96410107D01*
X160103638Y-96410106D01*
X160058182Y-96331374D01*
X160053678Y-96323572D01*
X160053670Y-96323562D01*
X159978630Y-96248522D01*
X159978607Y-96248501D01*
X158546523Y-94816417D01*
X176025499Y-94816417D01*
X176059881Y-94944730D01*
X176126297Y-95059766D01*
X176126305Y-95059776D01*
X176220223Y-95153694D01*
X176220228Y-95153698D01*
X176220230Y-95153700D01*
X176335270Y-95220119D01*
X176463581Y-95254500D01*
X176463583Y-95254500D01*
X176596417Y-95254500D01*
X176596419Y-95254500D01*
X176724730Y-95220119D01*
X176839770Y-95153700D01*
X176839769Y-95153700D01*
X176846922Y-95149571D01*
X176847996Y-95151432D01*
X176903591Y-95129937D01*
X176914079Y-95129500D01*
X177493011Y-95129500D01*
X177561132Y-95149502D01*
X177607625Y-95203158D01*
X177616590Y-95230920D01*
X177620265Y-95249400D01*
X177676516Y-95333584D01*
X177760697Y-95389833D01*
X177760699Y-95389834D01*
X177834933Y-95404600D01*
X179585066Y-95404599D01*
X179585069Y-95404598D01*
X179585073Y-95404598D01*
X179634326Y-95394801D01*
X179659301Y-95389834D01*
X179743484Y-95333584D01*
X179799734Y-95249401D01*
X179814500Y-95175167D01*
X179814499Y-94225034D01*
X179814498Y-94225030D01*
X179814498Y-94225026D01*
X179799734Y-94150799D01*
X179756653Y-94086325D01*
X179743484Y-94066616D01*
X179700064Y-94037603D01*
X179659302Y-94010366D01*
X179585067Y-93995600D01*
X177834936Y-93995600D01*
X177834926Y-93995601D01*
X177760699Y-94010365D01*
X177676515Y-94066616D01*
X177620266Y-94150797D01*
X177605500Y-94225030D01*
X177605500Y-94244500D01*
X177585498Y-94312621D01*
X177531842Y-94359114D01*
X177479500Y-94370500D01*
X176914079Y-94370500D01*
X176845958Y-94350498D01*
X176840988Y-94347003D01*
X176724730Y-94279881D01*
X176596419Y-94245500D01*
X176463581Y-94245500D01*
X176378040Y-94268420D01*
X176335269Y-94279881D01*
X176220233Y-94346297D01*
X176220223Y-94346305D01*
X176126305Y-94440223D01*
X176126297Y-94440233D01*
X176059881Y-94555269D01*
X176043386Y-94616829D01*
X176029033Y-94670398D01*
X176025500Y-94683582D01*
X176025500Y-94816417D01*
X176025499Y-94816417D01*
X158546523Y-94816417D01*
X156353971Y-92623865D01*
X157805248Y-92623865D01*
X157805248Y-92871130D01*
X158259248Y-92871130D01*
X158259248Y-93125130D01*
X157805248Y-93125130D01*
X157805248Y-93372394D01*
X157834224Y-93518064D01*
X157834226Y-93518069D01*
X157891062Y-93655282D01*
X157973575Y-93778772D01*
X157973580Y-93778779D01*
X158078598Y-93883797D01*
X158078605Y-93883802D01*
X158202095Y-93966315D01*
X158339315Y-94023154D01*
X158339318Y-94023155D01*
X158432247Y-94041639D01*
X158432248Y-94041639D01*
X158432248Y-93571217D01*
X158443452Y-93577686D01*
X158519752Y-93598130D01*
X158598744Y-93598130D01*
X158675044Y-93577686D01*
X158686248Y-93571217D01*
X158686248Y-94041639D01*
X158779177Y-94023155D01*
X158779180Y-94023154D01*
X158916400Y-93966315D01*
X159039890Y-93883802D01*
X159039897Y-93883797D01*
X159144915Y-93778779D01*
X159144920Y-93778772D01*
X159227433Y-93655282D01*
X159284269Y-93518069D01*
X159284271Y-93518064D01*
X159313247Y-93372394D01*
X159313248Y-93372390D01*
X159313248Y-93125130D01*
X158859248Y-93125130D01*
X158859248Y-92871130D01*
X159313248Y-92871130D01*
X159313248Y-92816417D01*
X174501499Y-92816417D01*
X174535881Y-92944730D01*
X174602297Y-93059766D01*
X174602305Y-93059776D01*
X174696223Y-93153694D01*
X174696228Y-93153698D01*
X174696230Y-93153700D01*
X174811270Y-93220119D01*
X174939581Y-93254500D01*
X174939583Y-93254500D01*
X175072417Y-93254500D01*
X175072419Y-93254500D01*
X175200730Y-93220119D01*
X175315770Y-93153700D01*
X175315769Y-93153700D01*
X175322922Y-93149571D01*
X175323996Y-93151432D01*
X175379591Y-93129937D01*
X175390079Y-93129500D01*
X175666374Y-93129500D01*
X175734495Y-93149502D01*
X175755469Y-93166405D01*
X175793204Y-93204140D01*
X175903138Y-93260154D01*
X175994347Y-93274600D01*
X176425652Y-93274599D01*
X176516862Y-93260154D01*
X176626796Y-93204140D01*
X176714040Y-93116896D01*
X176770054Y-93006962D01*
X176784500Y-92915753D01*
X176784499Y-92584448D01*
X176770054Y-92493238D01*
X176729259Y-92413174D01*
X181840500Y-92413174D01*
X181840500Y-92587026D01*
X181867026Y-92754500D01*
X181867698Y-92758742D01*
X181918712Y-92915749D01*
X181921420Y-92924081D01*
X182000347Y-93078984D01*
X182000349Y-93078987D01*
X182102536Y-93219635D01*
X182225464Y-93342563D01*
X182270342Y-93375169D01*
X182366116Y-93444753D01*
X182521019Y-93523680D01*
X182686362Y-93577403D01*
X182858074Y-93604600D01*
X182858077Y-93604600D01*
X183031923Y-93604600D01*
X183031926Y-93604600D01*
X183203638Y-93577403D01*
X183368981Y-93523680D01*
X183523884Y-93444753D01*
X183664533Y-93342565D01*
X183787465Y-93219633D01*
X183889653Y-93078984D01*
X183968580Y-92924081D01*
X184022303Y-92758738D01*
X184049500Y-92587026D01*
X184049500Y-92413174D01*
X184022303Y-92241462D01*
X183968580Y-92076119D01*
X183889653Y-91921216D01*
X183801559Y-91799965D01*
X183787463Y-91780564D01*
X183664535Y-91657636D01*
X183619657Y-91625030D01*
X184380500Y-91625030D01*
X184380500Y-93375163D01*
X184380501Y-93375173D01*
X184395265Y-93449400D01*
X184451516Y-93533584D01*
X184535697Y-93589833D01*
X184535699Y-93589834D01*
X184609933Y-93604600D01*
X186360066Y-93604599D01*
X186360069Y-93604598D01*
X186360073Y-93604598D01*
X186409326Y-93594801D01*
X186434301Y-93589834D01*
X186518484Y-93533584D01*
X186574734Y-93449401D01*
X186589500Y-93375167D01*
X186589499Y-92895398D01*
X188420900Y-92895398D01*
X188420900Y-93104602D01*
X188444642Y-93254500D01*
X188453628Y-93311237D01*
X188518273Y-93510193D01*
X188613253Y-93696602D01*
X188736219Y-93865852D01*
X188884147Y-94013780D01*
X189053397Y-94136746D01*
X189053400Y-94136748D01*
X189239803Y-94231725D01*
X189438768Y-94296373D01*
X189645398Y-94329100D01*
X189645401Y-94329100D01*
X189854599Y-94329100D01*
X189854602Y-94329100D01*
X190061232Y-94296373D01*
X190260197Y-94231725D01*
X190446600Y-94136748D01*
X190615851Y-94013781D01*
X190763781Y-93865851D01*
X190886748Y-93696600D01*
X190981725Y-93510197D01*
X191046373Y-93311232D01*
X191079100Y-93104602D01*
X191079100Y-92895398D01*
X191046373Y-92688768D01*
X190981725Y-92489803D01*
X190886748Y-92303400D01*
X190865892Y-92274694D01*
X190763780Y-92134147D01*
X190615852Y-91986219D01*
X190446602Y-91863253D01*
X190284321Y-91780567D01*
X190260197Y-91768275D01*
X190260196Y-91768274D01*
X190260193Y-91768273D01*
X190061237Y-91703628D01*
X190061233Y-91703627D01*
X190061232Y-91703627D01*
X189854602Y-91670900D01*
X189645398Y-91670900D01*
X189438768Y-91703627D01*
X189438762Y-91703628D01*
X189239806Y-91768273D01*
X189053397Y-91863253D01*
X188884147Y-91986219D01*
X188736219Y-92134147D01*
X188613253Y-92303397D01*
X188518273Y-92489806D01*
X188453628Y-92688762D01*
X188453627Y-92688767D01*
X188453627Y-92688768D01*
X188420900Y-92895398D01*
X186589499Y-92895398D01*
X186589499Y-92493239D01*
X186589499Y-91625036D01*
X186589498Y-91625026D01*
X186574734Y-91550799D01*
X186553810Y-91519485D01*
X186518484Y-91466616D01*
X186488117Y-91446325D01*
X186434302Y-91410366D01*
X186360067Y-91395600D01*
X184609936Y-91395600D01*
X184609926Y-91395601D01*
X184535699Y-91410365D01*
X184451515Y-91466616D01*
X184395266Y-91550797D01*
X184380500Y-91625030D01*
X183619657Y-91625030D01*
X183523887Y-91555449D01*
X183523886Y-91555448D01*
X183523884Y-91555447D01*
X183368981Y-91476520D01*
X183368978Y-91476519D01*
X183368976Y-91476518D01*
X183203642Y-91422798D01*
X183203640Y-91422797D01*
X183203638Y-91422797D01*
X183031926Y-91395600D01*
X182858074Y-91395600D01*
X182686362Y-91422797D01*
X182686360Y-91422797D01*
X182686357Y-91422798D01*
X182521023Y-91476518D01*
X182521017Y-91476521D01*
X182366112Y-91555449D01*
X182225464Y-91657636D01*
X182102536Y-91780564D01*
X182000349Y-91921212D01*
X181921421Y-92076117D01*
X181921418Y-92076123D01*
X181867698Y-92241457D01*
X181867697Y-92241460D01*
X181867697Y-92241462D01*
X181840500Y-92413174D01*
X176729259Y-92413174D01*
X176714040Y-92383304D01*
X176640845Y-92310109D01*
X176635047Y-92302146D01*
X176626268Y-92277623D01*
X176613784Y-92254760D01*
X176614500Y-92244750D01*
X176611118Y-92235303D01*
X176616991Y-92209924D01*
X176618850Y-92183945D01*
X176625342Y-92173843D01*
X176627126Y-92166135D01*
X176635598Y-92157883D01*
X176647806Y-92138887D01*
X177070191Y-91716502D01*
X177132501Y-91682479D01*
X177159284Y-91679600D01*
X177483086Y-91679600D01*
X177551207Y-91699602D01*
X177597700Y-91753258D01*
X177606665Y-91781020D01*
X177620265Y-91849400D01*
X177676516Y-91933584D01*
X177760697Y-91989833D01*
X177760699Y-91989834D01*
X177834933Y-92004600D01*
X179585066Y-92004599D01*
X179585069Y-92004598D01*
X179585073Y-92004598D01*
X179634326Y-91994801D01*
X179659301Y-91989834D01*
X179743484Y-91933584D01*
X179799734Y-91849401D01*
X179814500Y-91775167D01*
X179814499Y-90825034D01*
X179814498Y-90825031D01*
X179814498Y-90825026D01*
X179799734Y-90750799D01*
X179743483Y-90666615D01*
X179659302Y-90610366D01*
X179585067Y-90595600D01*
X177834936Y-90595600D01*
X177834926Y-90595601D01*
X177760699Y-90610365D01*
X177676515Y-90666616D01*
X177620266Y-90750797D01*
X177606664Y-90819181D01*
X177573757Y-90882091D01*
X177512062Y-90917223D01*
X177483085Y-90920600D01*
X177007596Y-90920600D01*
X177007580Y-90920599D01*
X176999862Y-90920599D01*
X176899938Y-90920599D01*
X176851678Y-90933530D01*
X176803417Y-90946461D01*
X176776643Y-90961919D01*
X176766844Y-90967577D01*
X176736266Y-90985231D01*
X176716884Y-90996422D01*
X176716877Y-90996427D01*
X176681551Y-91031754D01*
X176646224Y-91067081D01*
X176646222Y-91067083D01*
X175976983Y-91736322D01*
X175976981Y-91736324D01*
X175945032Y-91768273D01*
X175906325Y-91806979D01*
X175906321Y-91806984D01*
X175856361Y-91893519D01*
X175856115Y-91894435D01*
X175856113Y-91894445D01*
X175830499Y-91990038D01*
X175830499Y-92089962D01*
X175830500Y-92089965D01*
X175830500Y-92107669D01*
X175830500Y-92206573D01*
X175810498Y-92274694D01*
X175793597Y-92295667D01*
X175793204Y-92296059D01*
X175793204Y-92296060D01*
X175755668Y-92333595D01*
X175693359Y-92367620D01*
X175666574Y-92370500D01*
X175390079Y-92370500D01*
X175321958Y-92350498D01*
X175316988Y-92347003D01*
X175200730Y-92279881D01*
X175181372Y-92274694D01*
X175072419Y-92245500D01*
X174939581Y-92245500D01*
X174854040Y-92268420D01*
X174811269Y-92279881D01*
X174696233Y-92346297D01*
X174696223Y-92346305D01*
X174602305Y-92440223D01*
X174602297Y-92440233D01*
X174535881Y-92555269D01*
X174522690Y-92604499D01*
X174502805Y-92678713D01*
X174501500Y-92683582D01*
X174501500Y-92816417D01*
X174501499Y-92816417D01*
X159313248Y-92816417D01*
X159313248Y-92623869D01*
X159313247Y-92623865D01*
X159284271Y-92478195D01*
X159284269Y-92478190D01*
X159227433Y-92340977D01*
X159144920Y-92217487D01*
X159144915Y-92217480D01*
X159039897Y-92112462D01*
X159039890Y-92112457D01*
X158916400Y-92029944D01*
X158779185Y-91973107D01*
X158779182Y-91973106D01*
X158686248Y-91954620D01*
X158686248Y-92425042D01*
X158675044Y-92418574D01*
X158598744Y-92398130D01*
X158519752Y-92398130D01*
X158443452Y-92418574D01*
X158432248Y-92425042D01*
X158432248Y-91954620D01*
X158339313Y-91973106D01*
X158339310Y-91973107D01*
X158202095Y-92029944D01*
X158078605Y-92112457D01*
X158078598Y-92112462D01*
X157973580Y-92217480D01*
X157973575Y-92217487D01*
X157891062Y-92340977D01*
X157834226Y-92478190D01*
X157834224Y-92478195D01*
X157805248Y-92623865D01*
X156353971Y-92623865D01*
X154178276Y-90448170D01*
X154171089Y-90440983D01*
X154171088Y-90440981D01*
X154100431Y-90370324D01*
X154100430Y-90370323D01*
X154098101Y-90367994D01*
X154071075Y-90318499D01*
X154064077Y-90305683D01*
X154069142Y-90234868D01*
X154075363Y-90226558D01*
X154111690Y-90178031D01*
X154148543Y-90164286D01*
X154178209Y-90153221D01*
X154187198Y-90152900D01*
X192721100Y-90152900D01*
X192789221Y-90172902D01*
G37*
%TD.AperFunction*%
%TA.AperFunction,Conductor*%
G36*
X141673736Y-91073502D02*
G01*
X141720229Y-91127158D01*
X141730333Y-91197432D01*
X141700839Y-91262012D01*
X141694710Y-91268595D01*
X141516983Y-91446322D01*
X141516981Y-91446324D01*
X141496690Y-91466615D01*
X141446325Y-91516979D01*
X141446323Y-91516983D01*
X141396361Y-91603519D01*
X141392068Y-91619542D01*
X141370499Y-91700034D01*
X141370499Y-91810112D01*
X141370500Y-91810125D01*
X141370500Y-97337844D01*
X141370499Y-97337848D01*
X141370499Y-97437772D01*
X141389843Y-97509962D01*
X141396362Y-97534292D01*
X141396363Y-97534294D01*
X141396364Y-97534297D01*
X141446321Y-97620825D01*
X141446329Y-97620835D01*
X141524156Y-97698662D01*
X141524170Y-97698674D01*
X143555901Y-99730405D01*
X143589927Y-99792717D01*
X143584862Y-99863532D01*
X143542315Y-99920368D01*
X143475795Y-99945179D01*
X143466806Y-99945500D01*
X143443166Y-99945500D01*
X143417266Y-99949602D01*
X143348446Y-99960501D01*
X143234276Y-100018673D01*
X143234274Y-100018675D01*
X143169355Y-100083595D01*
X143107043Y-100117621D01*
X143080260Y-100120500D01*
X142011256Y-100120500D01*
X142003527Y-100120499D01*
X142003524Y-100120499D01*
X141955098Y-100120499D01*
X141909038Y-100106974D01*
X141886979Y-100100497D01*
X141886978Y-100100496D01*
X141886977Y-100100496D01*
X141849433Y-100057166D01*
X141840486Y-100046841D01*
X141840485Y-100046839D01*
X141840483Y-100046831D01*
X141829100Y-99994499D01*
X141829100Y-99915076D01*
X141829100Y-99915073D01*
X141802529Y-99747310D01*
X141750041Y-99585769D01*
X141672929Y-99434428D01*
X141624788Y-99368167D01*
X141573091Y-99297011D01*
X141452988Y-99176908D01*
X141315574Y-99077072D01*
X141298750Y-99068500D01*
X141164231Y-98999959D01*
X141002690Y-98947471D01*
X140834927Y-98920900D01*
X140665073Y-98920900D01*
X140497310Y-98947471D01*
X140497307Y-98947471D01*
X140497306Y-98947472D01*
X140335769Y-98999959D01*
X140335767Y-98999960D01*
X140184425Y-99077072D01*
X140047011Y-99176908D01*
X139926908Y-99297011D01*
X139827072Y-99434425D01*
X139760950Y-99564198D01*
X139749959Y-99585769D01*
X139697471Y-99747310D01*
X139670900Y-99915073D01*
X139670900Y-100084927D01*
X139697471Y-100252690D01*
X139749959Y-100414231D01*
X139785304Y-100483600D01*
X139827072Y-100565574D01*
X139926908Y-100702988D01*
X140047011Y-100823091D01*
X140093403Y-100856796D01*
X140160032Y-100905204D01*
X140203386Y-100961426D01*
X140209463Y-101032162D01*
X140176331Y-101094954D01*
X140175067Y-101096236D01*
X137722184Y-103549120D01*
X137659872Y-103583145D01*
X137589057Y-103578081D01*
X137532221Y-103535534D01*
X137460404Y-103439596D01*
X137344267Y-103352658D01*
X137344265Y-103352657D01*
X137344266Y-103352657D01*
X137208349Y-103301962D01*
X137208344Y-103301960D01*
X137208342Y-103301960D01*
X137178298Y-103298730D01*
X137148256Y-103295500D01*
X136401753Y-103295500D01*
X136401729Y-103295502D01*
X136341660Y-103301959D01*
X136341658Y-103301959D01*
X136205733Y-103352657D01*
X136089596Y-103439596D01*
X136002657Y-103555734D01*
X135951962Y-103691650D01*
X135951960Y-103691658D01*
X135945500Y-103751737D01*
X135945500Y-104748246D01*
X135945502Y-104748270D01*
X135951959Y-104808339D01*
X135951959Y-104808341D01*
X136002657Y-104944266D01*
X136009362Y-104953223D01*
X136089596Y-105060404D01*
X136205733Y-105147342D01*
X136341658Y-105198040D01*
X136401745Y-105204500D01*
X137148254Y-105204499D01*
X137208342Y-105198040D01*
X137344267Y-105147342D01*
X137460404Y-105060404D01*
X137547342Y-104944267D01*
X137598040Y-104808342D01*
X137604500Y-104748255D01*
X137604500Y-104727111D01*
X137624502Y-104658990D01*
X137678158Y-104612497D01*
X137697889Y-104605404D01*
X137704482Y-104603638D01*
X137791019Y-104553676D01*
X137861676Y-104483019D01*
X137872041Y-104472654D01*
X137872047Y-104472645D01*
X139669820Y-102674873D01*
X139732130Y-102640850D01*
X139802946Y-102645915D01*
X139859781Y-102688462D01*
X139884592Y-102754982D01*
X139884913Y-102763971D01*
X139884913Y-102863830D01*
X139884912Y-102863830D01*
X139919294Y-102992143D01*
X139985710Y-103107179D01*
X139985718Y-103107189D01*
X140079636Y-103201107D01*
X140079641Y-103201111D01*
X140079643Y-103201113D01*
X140079644Y-103201114D01*
X140079646Y-103201115D01*
X140098063Y-103211748D01*
X140194683Y-103267532D01*
X140322994Y-103301913D01*
X140322996Y-103301913D01*
X140330971Y-103304050D01*
X140330414Y-103306125D01*
X140341244Y-103310915D01*
X140363942Y-103315853D01*
X140380601Y-103328324D01*
X140384927Y-103330238D01*
X140392652Y-103337346D01*
X140409913Y-103354607D01*
X140409934Y-103354630D01*
X140484974Y-103429670D01*
X140484981Y-103429676D01*
X140550493Y-103467499D01*
X140550494Y-103467500D01*
X140571512Y-103479635D01*
X140571514Y-103479636D01*
X140571518Y-103479638D01*
X140571521Y-103479638D01*
X140571524Y-103479640D01*
X140668034Y-103505500D01*
X140668038Y-103505501D01*
X140775680Y-103505501D01*
X140775696Y-103505500D01*
X142966474Y-103505500D01*
X142996389Y-103514283D01*
X143026859Y-103520912D01*
X143031954Y-103524726D01*
X143034595Y-103525502D01*
X143055569Y-103542405D01*
X143093595Y-103580431D01*
X143127621Y-103642743D01*
X143130500Y-103669526D01*
X143130500Y-108216609D01*
X143130499Y-108216627D01*
X143130499Y-108324271D01*
X143146377Y-108383525D01*
X143146379Y-108383530D01*
X143150803Y-108400043D01*
X143150419Y-108416137D01*
X143150671Y-108416137D01*
X143150671Y-108416138D01*
X143150419Y-108416138D01*
X143149111Y-108471020D01*
X143133999Y-108493345D01*
X143109316Y-108529813D01*
X143044051Y-108557759D01*
X143044049Y-108557758D01*
X143044049Y-108557759D01*
X142974036Y-108545984D01*
X142974028Y-108545977D01*
X142939999Y-108521745D01*
X142899980Y-108481726D01*
X142778167Y-108359912D01*
X142778166Y-108359911D01*
X142778165Y-108359910D01*
X142778162Y-108359908D01*
X142676698Y-108301328D01*
X142676696Y-108301327D01*
X142676694Y-108301326D01*
X142676687Y-108301324D01*
X142644562Y-108292715D01*
X142644562Y-108292716D01*
X142617546Y-108285477D01*
X142563517Y-108271000D01*
X142563515Y-108271000D01*
X135474026Y-108271000D01*
X135405905Y-108250998D01*
X135359412Y-108197342D01*
X135349308Y-108127068D01*
X135374304Y-108072334D01*
X135372213Y-108070815D01*
X135378037Y-108062798D01*
X135378040Y-108062796D01*
X135434054Y-107952862D01*
X135448500Y-107861653D01*
X135448499Y-107530348D01*
X135434054Y-107439138D01*
X135434054Y-107439137D01*
X135396233Y-107364908D01*
X135382500Y-107307706D01*
X135382500Y-105139616D01*
X135402502Y-105071495D01*
X135407631Y-105064108D01*
X135410404Y-105060404D01*
X135497342Y-104944267D01*
X135548040Y-104808342D01*
X135554500Y-104748255D01*
X135554499Y-103751746D01*
X135548040Y-103691658D01*
X135497342Y-103555733D01*
X135410404Y-103439596D01*
X135294267Y-103352658D01*
X135294265Y-103352657D01*
X135294266Y-103352657D01*
X135158349Y-103301962D01*
X135158344Y-103301960D01*
X135158342Y-103301960D01*
X135128298Y-103298730D01*
X135098256Y-103295500D01*
X134351753Y-103295500D01*
X134351729Y-103295502D01*
X134291660Y-103301959D01*
X134291658Y-103301959D01*
X134155733Y-103352657D01*
X134039596Y-103439596D01*
X133952657Y-103555734D01*
X133901962Y-103691650D01*
X133901960Y-103691658D01*
X133895500Y-103751737D01*
X133895500Y-104748246D01*
X133895502Y-104748270D01*
X133901959Y-104808339D01*
X133901959Y-104808341D01*
X133952657Y-104944266D01*
X133959362Y-104953223D01*
X134039596Y-105060404D01*
X134155733Y-105147342D01*
X134283534Y-105195010D01*
X134340368Y-105237555D01*
X134365179Y-105304075D01*
X134365500Y-105313064D01*
X134365500Y-107307706D01*
X134351767Y-107364908D01*
X134313947Y-107439134D01*
X134313946Y-107439136D01*
X134313946Y-107439138D01*
X134301074Y-107520415D01*
X134299500Y-107530350D01*
X134299500Y-107861651D01*
X134313945Y-107952860D01*
X134350344Y-108024297D01*
X134363448Y-108094074D01*
X134336748Y-108159859D01*
X134278720Y-108200765D01*
X134238077Y-108207500D01*
X120523923Y-108207500D01*
X120455802Y-108187498D01*
X120409309Y-108133842D01*
X120399205Y-108063568D01*
X120411656Y-108024297D01*
X120417014Y-108013781D01*
X120448054Y-107952862D01*
X120462500Y-107861653D01*
X120462499Y-107530348D01*
X120448054Y-107439138D01*
X120448054Y-107439137D01*
X120410233Y-107364908D01*
X120396500Y-107307706D01*
X120396500Y-105151499D01*
X120416502Y-105083378D01*
X120433405Y-105062404D01*
X120435401Y-105060407D01*
X120435402Y-105060405D01*
X120435404Y-105060404D01*
X120522342Y-104944267D01*
X120573040Y-104808342D01*
X120579500Y-104748255D01*
X120579499Y-103751746D01*
X120578555Y-103742963D01*
X120581379Y-103727311D01*
X120579116Y-103711568D01*
X120587555Y-103693088D01*
X120591164Y-103673095D01*
X120602003Y-103661453D01*
X120608610Y-103646988D01*
X120625698Y-103636005D01*
X120639545Y-103621135D01*
X120655757Y-103616687D01*
X120668336Y-103608604D01*
X120703834Y-103603500D01*
X120846165Y-103603500D01*
X120914286Y-103623502D01*
X120960779Y-103677158D01*
X120971443Y-103742967D01*
X120970501Y-103751730D01*
X120970500Y-103751749D01*
X120970500Y-104748246D01*
X120970502Y-104748270D01*
X120976959Y-104808339D01*
X120976959Y-104808341D01*
X121027657Y-104944266D01*
X121034362Y-104953223D01*
X121114596Y-105060404D01*
X121230733Y-105147342D01*
X121366658Y-105198040D01*
X121426745Y-105204500D01*
X122173254Y-105204499D01*
X122233342Y-105198040D01*
X122369267Y-105147342D01*
X122485404Y-105060404D01*
X122572342Y-104944267D01*
X122623040Y-104808342D01*
X122629302Y-104750100D01*
X122629861Y-104744899D01*
X122630796Y-104744999D01*
X122653099Y-104681796D01*
X122709169Y-104638246D01*
X122755293Y-104629500D01*
X127865921Y-104629500D01*
X127934042Y-104649502D01*
X127939011Y-104652996D01*
X127940229Y-104653699D01*
X127940230Y-104653700D01*
X128055270Y-104720119D01*
X128183581Y-104754500D01*
X128183583Y-104754500D01*
X128316417Y-104754500D01*
X128316419Y-104754500D01*
X128444730Y-104720119D01*
X128559770Y-104653700D01*
X128653700Y-104559770D01*
X128720119Y-104444730D01*
X128754500Y-104316419D01*
X128754500Y-104183581D01*
X128720119Y-104055270D01*
X128657219Y-103946325D01*
X128653702Y-103940233D01*
X128653694Y-103940223D01*
X128559776Y-103846305D01*
X128559772Y-103846302D01*
X128559770Y-103846300D01*
X128546465Y-103838618D01*
X128497473Y-103787235D01*
X128484038Y-103717522D01*
X128510425Y-103651611D01*
X128568258Y-103610429D01*
X128609467Y-103603500D01*
X129019596Y-103603500D01*
X129019600Y-103603501D01*
X129119524Y-103603501D01*
X129195646Y-103583103D01*
X129216044Y-103577638D01*
X129302581Y-103527676D01*
X129373238Y-103457019D01*
X129383605Y-103446652D01*
X129383612Y-103446642D01*
X133248865Y-99581389D01*
X133311175Y-99547365D01*
X133381990Y-99552430D01*
X133438826Y-99594977D01*
X133463637Y-99661497D01*
X133462880Y-99686931D01*
X133440900Y-99853892D01*
X133440900Y-100146105D01*
X133479038Y-100435801D01*
X133479039Y-100435807D01*
X133479040Y-100435809D01*
X133483488Y-100452408D01*
X133554667Y-100718053D01*
X133554668Y-100718055D01*
X133554669Y-100718058D01*
X133666491Y-100988021D01*
X133666492Y-100988022D01*
X133666497Y-100988033D01*
X133812591Y-101241075D01*
X133812596Y-101241082D01*
X133990470Y-101472892D01*
X133990489Y-101472913D01*
X134197086Y-101679510D01*
X134197107Y-101679529D01*
X134428917Y-101857403D01*
X134428924Y-101857408D01*
X134681966Y-102003502D01*
X134681970Y-102003503D01*
X134681979Y-102003509D01*
X134951942Y-102115331D01*
X135234191Y-102190960D01*
X135234197Y-102190960D01*
X135234198Y-102190961D01*
X135263367Y-102194801D01*
X135523897Y-102229100D01*
X135523904Y-102229100D01*
X135816096Y-102229100D01*
X135816103Y-102229100D01*
X136105809Y-102190960D01*
X136388058Y-102115331D01*
X136658021Y-102003509D01*
X136911079Y-101857406D01*
X137142901Y-101679522D01*
X137349522Y-101472901D01*
X137361974Y-101456674D01*
X137423646Y-101376301D01*
X137527406Y-101241079D01*
X137673509Y-100988021D01*
X137785331Y-100718058D01*
X137860960Y-100435809D01*
X137899100Y-100146103D01*
X137899100Y-99853897D01*
X137863801Y-99585769D01*
X137860961Y-99564198D01*
X137860960Y-99564197D01*
X137860960Y-99564191D01*
X137785331Y-99281942D01*
X137673509Y-99011979D01*
X137673503Y-99011970D01*
X137673502Y-99011966D01*
X137527408Y-98758924D01*
X137527403Y-98758917D01*
X137349529Y-98527107D01*
X137349510Y-98527086D01*
X137142913Y-98320489D01*
X137142892Y-98320470D01*
X136911082Y-98142596D01*
X136911075Y-98142591D01*
X136658033Y-97996497D01*
X136658025Y-97996493D01*
X136658021Y-97996491D01*
X136388058Y-97884669D01*
X136388055Y-97884668D01*
X136388053Y-97884667D01*
X136156226Y-97822549D01*
X136105809Y-97809040D01*
X136105807Y-97809039D01*
X136105801Y-97809038D01*
X135816105Y-97770900D01*
X135816103Y-97770900D01*
X135523897Y-97770900D01*
X135523894Y-97770900D01*
X135234198Y-97809038D01*
X134951946Y-97884667D01*
X134951942Y-97884669D01*
X134721918Y-97979948D01*
X134681977Y-97996492D01*
X134681966Y-97996497D01*
X134428924Y-98142591D01*
X134428917Y-98142596D01*
X134197107Y-98320470D01*
X134197086Y-98320489D01*
X134094595Y-98422981D01*
X134032283Y-98457007D01*
X133961468Y-98451942D01*
X133904632Y-98409395D01*
X133879821Y-98342875D01*
X133879500Y-98333886D01*
X133879500Y-97459383D01*
X133899502Y-97391262D01*
X133916400Y-97370293D01*
X136653223Y-94633469D01*
X136715533Y-94599445D01*
X136786348Y-94604510D01*
X136843184Y-94647057D01*
X136867995Y-94713577D01*
X136866765Y-94742275D01*
X136855500Y-94813399D01*
X136855500Y-95026601D01*
X136888194Y-95233019D01*
X136888854Y-95237183D01*
X136954689Y-95439805D01*
X136954736Y-95439947D01*
X137047236Y-95621489D01*
X137051530Y-95629916D01*
X137176847Y-95802399D01*
X137327600Y-95953152D01*
X137355531Y-95973445D01*
X137500087Y-96078472D01*
X137690053Y-96175264D01*
X137892821Y-96241147D01*
X138103399Y-96274500D01*
X138103402Y-96274500D01*
X138316598Y-96274500D01*
X138316601Y-96274500D01*
X138527179Y-96241147D01*
X138729947Y-96175264D01*
X138919913Y-96078472D01*
X139092397Y-95953154D01*
X139243154Y-95802397D01*
X139368472Y-95629913D01*
X139465264Y-95439947D01*
X139531147Y-95237179D01*
X139564500Y-95026601D01*
X139564500Y-94813399D01*
X139531147Y-94602821D01*
X139465264Y-94400053D01*
X139368472Y-94210087D01*
X139291045Y-94103519D01*
X139243152Y-94037600D01*
X139092399Y-93886847D01*
X138919916Y-93761530D01*
X138919915Y-93761529D01*
X138919913Y-93761528D01*
X138729947Y-93664736D01*
X138729944Y-93664735D01*
X138729942Y-93664734D01*
X138527183Y-93598854D01*
X138527181Y-93598853D01*
X138527179Y-93598853D01*
X138316601Y-93565500D01*
X138103399Y-93565500D01*
X138032276Y-93576764D01*
X137961867Y-93567665D01*
X137907553Y-93521943D01*
X137886580Y-93454115D01*
X137905607Y-93385716D01*
X137923466Y-93363226D01*
X138620291Y-92666402D01*
X138682601Y-92632379D01*
X138709384Y-92629500D01*
X139823921Y-92629500D01*
X139892042Y-92649502D01*
X139897011Y-92652996D01*
X139898229Y-92653699D01*
X139898230Y-92653700D01*
X140013270Y-92720119D01*
X140141581Y-92754500D01*
X140141583Y-92754500D01*
X140274417Y-92754500D01*
X140274419Y-92754500D01*
X140402730Y-92720119D01*
X140517770Y-92653700D01*
X140611700Y-92559770D01*
X140678119Y-92444730D01*
X140712500Y-92316419D01*
X140712500Y-92183581D01*
X140678119Y-92055270D01*
X140615219Y-91946325D01*
X140611702Y-91940233D01*
X140611694Y-91940223D01*
X140517776Y-91846305D01*
X140517766Y-91846297D01*
X140402730Y-91779881D01*
X140274419Y-91745500D01*
X140141581Y-91745500D01*
X140056591Y-91768273D01*
X140013269Y-91779881D01*
X139891078Y-91850429D01*
X139890003Y-91848567D01*
X139834409Y-91870063D01*
X139823921Y-91870500D01*
X138557696Y-91870500D01*
X138557680Y-91870499D01*
X138549962Y-91870499D01*
X138450038Y-91870499D01*
X138417866Y-91879119D01*
X138373916Y-91890895D01*
X138373915Y-91890896D01*
X138353518Y-91896362D01*
X138353517Y-91896362D01*
X138353515Y-91896363D01*
X138353514Y-91896363D01*
X138266984Y-91946321D01*
X138266979Y-91946325D01*
X138243275Y-91970030D01*
X138196324Y-92016981D01*
X138196322Y-92016983D01*
X133291220Y-96922084D01*
X133228908Y-96956110D01*
X133158093Y-96951045D01*
X133101257Y-96908498D01*
X133089858Y-96890191D01*
X133088441Y-96887409D01*
X133018472Y-96750087D01*
X132927292Y-96624589D01*
X132893152Y-96577600D01*
X132742399Y-96426847D01*
X132569916Y-96301530D01*
X132569915Y-96301529D01*
X132569913Y-96301528D01*
X132379947Y-96204736D01*
X132379942Y-96204734D01*
X132379937Y-96204732D01*
X132326562Y-96187389D01*
X132267957Y-96147315D01*
X132240321Y-96081918D01*
X132239500Y-96067557D01*
X132239500Y-94599384D01*
X132259502Y-94531263D01*
X132276405Y-94510289D01*
X132303676Y-94483018D01*
X132872643Y-93914049D01*
X132872653Y-93914042D01*
X132953670Y-93833025D01*
X132953676Y-93833019D01*
X133003638Y-93746482D01*
X133017004Y-93696600D01*
X133029501Y-93649962D01*
X133029501Y-93550038D01*
X133029500Y-93550034D01*
X133029500Y-92666625D01*
X133049502Y-92598504D01*
X133099588Y-92555103D01*
X133099255Y-92554493D01*
X133102063Y-92552959D01*
X133103158Y-92552011D01*
X133105818Y-92550909D01*
X133107160Y-92550175D01*
X133107163Y-92550175D01*
X133217544Y-92467544D01*
X133300175Y-92357163D01*
X133348360Y-92227973D01*
X133354500Y-92170864D01*
X133354500Y-91329136D01*
X133348360Y-91272027D01*
X133330271Y-91223530D01*
X133325208Y-91152716D01*
X133359233Y-91090404D01*
X133421545Y-91056379D01*
X133448328Y-91053500D01*
X141605615Y-91053500D01*
X141673736Y-91073502D01*
G37*
%TD.AperFunction*%
%TA.AperFunction,Conductor*%
G36*
X118864286Y-103623502D02*
G01*
X118910779Y-103677158D01*
X118921443Y-103742967D01*
X118920501Y-103751730D01*
X118920500Y-103751749D01*
X118920500Y-104748246D01*
X118920502Y-104748270D01*
X118926959Y-104808339D01*
X118926959Y-104808341D01*
X118977657Y-104944266D01*
X118984362Y-104953223D01*
X119064596Y-105060404D01*
X119180733Y-105147342D01*
X119297533Y-105190907D01*
X119354369Y-105233454D01*
X119379179Y-105299974D01*
X119379500Y-105308962D01*
X119379500Y-107307706D01*
X119365767Y-107364908D01*
X119327947Y-107439134D01*
X119327946Y-107439136D01*
X119327946Y-107439138D01*
X119315074Y-107520415D01*
X119313500Y-107530350D01*
X119313500Y-107861651D01*
X119327945Y-107952860D01*
X119364344Y-108024297D01*
X119377448Y-108094074D01*
X119350748Y-108159859D01*
X119292720Y-108200765D01*
X119252077Y-108207500D01*
X116090818Y-108207500D01*
X116022697Y-108187498D01*
X116001727Y-108170599D01*
X115174227Y-107343099D01*
X115174225Y-107343098D01*
X115174223Y-107343096D01*
X115058278Y-107276155D01*
X115058276Y-107276154D01*
X115058274Y-107276153D01*
X114928945Y-107241500D01*
X114928943Y-107241500D01*
X112648293Y-107241500D01*
X112591090Y-107227767D01*
X112516862Y-107189946D01*
X112425653Y-107175500D01*
X112425649Y-107175500D01*
X112094348Y-107175500D01*
X112003139Y-107189945D01*
X111893204Y-107245959D01*
X111893202Y-107245961D01*
X111839095Y-107300069D01*
X111776783Y-107334095D01*
X111705968Y-107329030D01*
X111660905Y-107300069D01*
X111606795Y-107245959D01*
X111544149Y-107214040D01*
X111496862Y-107189946D01*
X111405653Y-107175500D01*
X111405649Y-107175500D01*
X111074348Y-107175500D01*
X110983139Y-107189945D01*
X110873205Y-107245959D01*
X110785568Y-107333596D01*
X110723256Y-107367621D01*
X110696473Y-107370500D01*
X106943384Y-107370500D01*
X106875263Y-107350498D01*
X106854289Y-107333595D01*
X106290405Y-106769711D01*
X106256379Y-106707399D01*
X106253500Y-106680616D01*
X106253500Y-105328834D01*
X106273502Y-105260713D01*
X106327158Y-105214220D01*
X106392975Y-105203557D01*
X106401745Y-105204500D01*
X107148254Y-105204499D01*
X107208342Y-105198040D01*
X107344267Y-105147342D01*
X107460404Y-105060404D01*
X107547342Y-104944267D01*
X107598040Y-104808342D01*
X107604500Y-104748255D01*
X107604499Y-104009384D01*
X107624501Y-103941264D01*
X107641404Y-103920289D01*
X107921290Y-103640404D01*
X107983602Y-103606379D01*
X108010385Y-103603500D01*
X118796165Y-103603500D01*
X118864286Y-103623502D01*
G37*
%TD.AperFunction*%
%TA.AperFunction,Conductor*%
G36*
X152139533Y-105889137D02*
G01*
X152196368Y-105931684D01*
X152221179Y-105998204D01*
X152221500Y-106007193D01*
X152221500Y-106950034D01*
X152221499Y-106950038D01*
X152221499Y-106992000D01*
X152221499Y-107031341D01*
X152215939Y-107050277D01*
X152201497Y-107099461D01*
X152147841Y-107145954D01*
X152077567Y-107156058D01*
X152062889Y-107153047D01*
X151941419Y-107120500D01*
X151808581Y-107120500D01*
X151723040Y-107143420D01*
X151680269Y-107154881D01*
X151558078Y-107225429D01*
X151557003Y-107223567D01*
X151501409Y-107245063D01*
X151490921Y-107245500D01*
X151039581Y-107245500D01*
X150984242Y-107232697D01*
X150877552Y-107180540D01*
X150877550Y-107180539D01*
X150808647Y-107170500D01*
X150808646Y-107170500D01*
X149466354Y-107170500D01*
X149466352Y-107170500D01*
X149397449Y-107180539D01*
X149397447Y-107180540D01*
X149291160Y-107232500D01*
X149291158Y-107232501D01*
X149207501Y-107316158D01*
X149207500Y-107316160D01*
X149155540Y-107422447D01*
X149155539Y-107422449D01*
X149145500Y-107491352D01*
X149145500Y-107704000D01*
X149125498Y-107772121D01*
X149071842Y-107818614D01*
X149019500Y-107830000D01*
X148224140Y-107830000D01*
X148177560Y-107842481D01*
X148177559Y-107842480D01*
X148110970Y-107860323D01*
X148110958Y-107860328D01*
X148068500Y-107884842D01*
X147999504Y-107901580D01*
X147932412Y-107878359D01*
X147888525Y-107822552D01*
X147879500Y-107775723D01*
X147879500Y-107303526D01*
X147899502Y-107235405D01*
X147916405Y-107214431D01*
X147959624Y-107171212D01*
X148004040Y-107126796D01*
X148060054Y-107016862D01*
X148074500Y-106925653D01*
X148074499Y-106594348D01*
X148060054Y-106503138D01*
X148060054Y-106503137D01*
X148037959Y-106459773D01*
X148024855Y-106389997D01*
X148051555Y-106324212D01*
X148109583Y-106283306D01*
X148180515Y-106280266D01*
X148204120Y-106289071D01*
X148206569Y-106289866D01*
X148206573Y-106289868D01*
X148298955Y-106304500D01*
X148701044Y-106304499D01*
X148793427Y-106289868D01*
X148904771Y-106233135D01*
X148916818Y-106221088D01*
X148930405Y-106207502D01*
X148992717Y-106173476D01*
X149063532Y-106178541D01*
X149120368Y-106221088D01*
X149145179Y-106287608D01*
X149145500Y-106296597D01*
X149145500Y-106458647D01*
X149155539Y-106527550D01*
X149155540Y-106527552D01*
X149207500Y-106633839D01*
X149207501Y-106633841D01*
X149291158Y-106717498D01*
X149291160Y-106717499D01*
X149397450Y-106769461D01*
X149466354Y-106779500D01*
X149466360Y-106779500D01*
X150808640Y-106779500D01*
X150808646Y-106779500D01*
X150877550Y-106769461D01*
X150962724Y-106727822D01*
X150984240Y-106717304D01*
X150986975Y-106716473D01*
X150988144Y-106715477D01*
X150995252Y-106713960D01*
X151022633Y-106705646D01*
X151031069Y-106704501D01*
X151112772Y-106704501D01*
X151188894Y-106684103D01*
X151209292Y-106678638D01*
X151295829Y-106628676D01*
X151366486Y-106558019D01*
X151376851Y-106547654D01*
X151376857Y-106547645D01*
X152006407Y-105918095D01*
X152068717Y-105884072D01*
X152139533Y-105889137D01*
G37*
%TD.AperFunction*%
%TA.AperFunction,Conductor*%
G36*
X147076882Y-101621360D02*
G01*
X147128759Y-101652643D01*
X147138595Y-101662479D01*
X147172621Y-101724791D01*
X147175500Y-101751573D01*
X147175500Y-101925651D01*
X147189945Y-102016860D01*
X147240118Y-102115332D01*
X147245960Y-102126796D01*
X147333204Y-102214040D01*
X147443138Y-102270054D01*
X147534347Y-102284500D01*
X147965652Y-102284499D01*
X148056862Y-102270054D01*
X148166796Y-102214040D01*
X148204431Y-102176405D01*
X148231799Y-102161460D01*
X148258028Y-102144604D01*
X148264326Y-102143698D01*
X148266743Y-102142379D01*
X148293526Y-102139500D01*
X148360615Y-102139500D01*
X148428736Y-102159502D01*
X148475229Y-102213158D01*
X148485333Y-102283432D01*
X148455839Y-102348012D01*
X148449710Y-102354595D01*
X148237983Y-102566322D01*
X148237981Y-102566324D01*
X148215088Y-102589217D01*
X148167325Y-102636979D01*
X148167321Y-102636984D01*
X148117361Y-102723519D01*
X148116563Y-102726498D01*
X148113231Y-102738934D01*
X148091499Y-102820038D01*
X148091499Y-102919962D01*
X148091500Y-102919965D01*
X148091500Y-102937429D01*
X148091500Y-103388302D01*
X148091499Y-103388320D01*
X148091499Y-103495962D01*
X148098597Y-103522450D01*
X148108673Y-103560054D01*
X148117060Y-103591354D01*
X148117362Y-103592481D01*
X148167321Y-103679014D01*
X148167329Y-103679024D01*
X148245156Y-103756851D01*
X148245170Y-103756863D01*
X149022222Y-104533915D01*
X149026823Y-104542341D01*
X149034473Y-104548144D01*
X149043564Y-104572999D01*
X149056248Y-104596227D01*
X149055563Y-104605803D01*
X149058861Y-104614820D01*
X149053071Y-104640642D01*
X149051183Y-104667042D01*
X149045015Y-104676572D01*
X149043328Y-104684097D01*
X149030536Y-104698944D01*
X149021654Y-104712670D01*
X149014167Y-104720061D01*
X149011981Y-104721324D01*
X148941324Y-104791981D01*
X148941322Y-104791983D01*
X148941072Y-104792233D01*
X148534709Y-105198596D01*
X148472397Y-105232621D01*
X148445615Y-105235500D01*
X148298957Y-105235500D01*
X148206574Y-105250131D01*
X148095228Y-105306864D01*
X148006866Y-105395226D01*
X148006864Y-105395229D01*
X147950133Y-105506570D01*
X147950132Y-105506571D01*
X147950132Y-105506573D01*
X147935500Y-105598955D01*
X147935500Y-105598958D01*
X147935500Y-105941042D01*
X147950131Y-106033425D01*
X147950131Y-106033426D01*
X147950132Y-106033427D01*
X147961732Y-106056194D01*
X147973324Y-106078943D01*
X147986428Y-106148719D01*
X147959728Y-106214504D01*
X147901701Y-106255411D01*
X147830769Y-106258452D01*
X147815388Y-106252715D01*
X147806868Y-106249947D01*
X147806862Y-106249946D01*
X147715653Y-106235500D01*
X147715649Y-106235500D01*
X147284348Y-106235500D01*
X147193139Y-106249945D01*
X147083204Y-106305959D01*
X146995959Y-106393204D01*
X146946739Y-106489806D01*
X146939946Y-106503138D01*
X146925500Y-106594347D01*
X146925500Y-106594350D01*
X146925500Y-106925651D01*
X146939945Y-107016861D01*
X146939945Y-107016862D01*
X146963096Y-107062298D01*
X146976200Y-107132075D01*
X146949499Y-107197859D01*
X146891472Y-107238765D01*
X146850829Y-107245500D01*
X146745581Y-107245500D01*
X146660040Y-107268420D01*
X146617269Y-107279881D01*
X146495078Y-107350429D01*
X146494003Y-107348567D01*
X146482959Y-107352837D01*
X146463419Y-107365396D01*
X146442818Y-107368357D01*
X146438409Y-107370063D01*
X146427921Y-107370500D01*
X146303527Y-107370500D01*
X146235406Y-107350498D01*
X146214432Y-107333596D01*
X146176562Y-107295726D01*
X146126796Y-107245960D01*
X146126794Y-107245959D01*
X146126795Y-107245959D01*
X146064149Y-107214040D01*
X146016862Y-107189946D01*
X145925653Y-107175500D01*
X145925649Y-107175500D01*
X145594348Y-107175500D01*
X145503139Y-107189945D01*
X145393204Y-107245959D01*
X145393202Y-107245961D01*
X145339095Y-107300069D01*
X145276783Y-107334095D01*
X145205968Y-107329030D01*
X145160905Y-107300069D01*
X145106795Y-107245959D01*
X145044149Y-107214040D01*
X144996862Y-107189946D01*
X144905653Y-107175500D01*
X144905650Y-107175500D01*
X144755500Y-107175500D01*
X144746674Y-107172908D01*
X144737568Y-107174218D01*
X144713142Y-107163062D01*
X144687379Y-107155498D01*
X144681354Y-107148544D01*
X144672988Y-107144724D01*
X144658473Y-107122138D01*
X144640886Y-107101842D01*
X144638561Y-107091155D01*
X144634604Y-107084998D01*
X144629500Y-107049500D01*
X144629500Y-106982240D01*
X144649502Y-106914119D01*
X144666405Y-106893145D01*
X144731324Y-106828225D01*
X144731326Y-106828223D01*
X144745300Y-106800797D01*
X144789498Y-106714055D01*
X144804500Y-106619334D01*
X144804500Y-105380666D01*
X144789498Y-105285945D01*
X144788052Y-105283107D01*
X144787333Y-105279281D01*
X144786435Y-105276516D01*
X144786792Y-105276399D01*
X144774949Y-105213330D01*
X144801650Y-105147546D01*
X144859678Y-105106641D01*
X144920030Y-105101457D01*
X144923444Y-105101997D01*
X144923445Y-105101998D01*
X145018166Y-105117000D01*
X145018168Y-105117000D01*
X145381832Y-105117000D01*
X145381834Y-105117000D01*
X145476555Y-105101998D01*
X145590723Y-105043826D01*
X145681326Y-104953223D01*
X145739498Y-104839055D01*
X145754500Y-104744334D01*
X145754500Y-103505666D01*
X145739498Y-103410945D01*
X145700350Y-103334114D01*
X145681326Y-103296776D01*
X145590725Y-103206175D01*
X145590722Y-103206173D01*
X145476556Y-103148002D01*
X145467245Y-103146527D01*
X145447707Y-103137263D01*
X145426578Y-103132667D01*
X145406823Y-103117878D01*
X145403094Y-103116110D01*
X145397868Y-103111174D01*
X145366933Y-103080239D01*
X145332907Y-103017927D01*
X145331863Y-103011940D01*
X145331500Y-103010585D01*
X145331500Y-103010581D01*
X145297119Y-102882270D01*
X145244201Y-102790614D01*
X145230702Y-102767233D01*
X145230694Y-102767223D01*
X145136776Y-102673305D01*
X145136766Y-102673297D01*
X145021730Y-102606881D01*
X144893419Y-102572500D01*
X144760581Y-102572500D01*
X144698193Y-102589217D01*
X144632269Y-102606881D01*
X144517233Y-102673297D01*
X144517223Y-102673305D01*
X144423305Y-102767223D01*
X144423297Y-102767233D01*
X144356881Y-102882268D01*
X144346685Y-102920321D01*
X144332223Y-102974297D01*
X144331341Y-102977587D01*
X144294389Y-103038209D01*
X144230528Y-103069231D01*
X144160034Y-103060802D01*
X144105287Y-103015599D01*
X144085185Y-102964683D01*
X144084499Y-102960351D01*
X144084499Y-102960348D01*
X144070054Y-102869138D01*
X144014040Y-102759204D01*
X143959931Y-102705095D01*
X143925905Y-102642783D01*
X143930970Y-102571968D01*
X143959931Y-102526905D01*
X143986922Y-102499914D01*
X144014040Y-102472796D01*
X144070054Y-102362862D01*
X144084500Y-102271653D01*
X144084499Y-101955499D01*
X144104501Y-101887380D01*
X144158156Y-101840887D01*
X144210499Y-101829500D01*
X144955260Y-101829500D01*
X145023381Y-101849502D01*
X145044355Y-101866405D01*
X145109276Y-101931326D01*
X145156721Y-101955500D01*
X145223445Y-101989498D01*
X145318166Y-102004500D01*
X145318168Y-102004500D01*
X146556832Y-102004500D01*
X146556834Y-102004500D01*
X146651555Y-101989498D01*
X146765723Y-101931326D01*
X146856326Y-101840723D01*
X146914498Y-101726555D01*
X146915215Y-101722030D01*
X146945625Y-101657877D01*
X147005892Y-101620348D01*
X147076882Y-101621360D01*
G37*
%TD.AperFunction*%
%TA.AperFunction,Conductor*%
G36*
X164728736Y-104774502D02*
G01*
X164775229Y-104828158D01*
X164785333Y-104898432D01*
X164755839Y-104963012D01*
X164749710Y-104969595D01*
X162991483Y-106727822D01*
X162929171Y-106761848D01*
X162858356Y-106756783D01*
X162813293Y-106727822D01*
X162717189Y-106631718D01*
X162717179Y-106631710D01*
X162602143Y-106565294D01*
X162574981Y-106558016D01*
X162473832Y-106530913D01*
X162340994Y-106530913D01*
X162286764Y-106545443D01*
X162212684Y-106565293D01*
X162185673Y-106580888D01*
X162128981Y-106613619D01*
X162065983Y-106630500D01*
X159043526Y-106630500D01*
X158975405Y-106610498D01*
X158954431Y-106593595D01*
X158916795Y-106555959D01*
X158848815Y-106521322D01*
X158806862Y-106499946D01*
X158715653Y-106485500D01*
X158715649Y-106485500D01*
X158284348Y-106485500D01*
X158193139Y-106499945D01*
X158083204Y-106555959D01*
X158083202Y-106555961D01*
X158045569Y-106593595D01*
X158018200Y-106608539D01*
X157991972Y-106625396D01*
X157985673Y-106626301D01*
X157983257Y-106627621D01*
X157956474Y-106630500D01*
X157756535Y-106630500D01*
X157688414Y-106610498D01*
X157641921Y-106556842D01*
X157631817Y-106486568D01*
X157661311Y-106421988D01*
X157693535Y-106395381D01*
X157712993Y-106384147D01*
X157738840Y-106369224D01*
X157832770Y-106275294D01*
X157899189Y-106160254D01*
X157933570Y-106031943D01*
X157933570Y-105899105D01*
X157899189Y-105770794D01*
X157832770Y-105655754D01*
X157832769Y-105655753D01*
X157830214Y-105651327D01*
X157813476Y-105582332D01*
X157836696Y-105515240D01*
X157850233Y-105499236D01*
X157883700Y-105465770D01*
X157950119Y-105350730D01*
X157984500Y-105222419D01*
X157984500Y-105089581D01*
X157950119Y-104961270D01*
X157939858Y-104943498D01*
X157923121Y-104874506D01*
X157946341Y-104807414D01*
X158002148Y-104763526D01*
X158048978Y-104754500D01*
X164660615Y-104754500D01*
X164728736Y-104774502D01*
G37*
%TD.AperFunction*%
%TA.AperFunction,Conductor*%
G36*
X153263825Y-99062613D02*
G01*
X153314181Y-99072630D01*
X153483748Y-99072629D01*
X153551868Y-99092631D01*
X153598361Y-99146286D01*
X153609748Y-99198629D01*
X153609748Y-101801366D01*
X153600963Y-101831284D01*
X153594336Y-101861750D01*
X153590521Y-101866845D01*
X153589746Y-101869487D01*
X153572844Y-101890461D01*
X153551848Y-101911456D01*
X153516983Y-101946322D01*
X153516981Y-101946324D01*
X153497556Y-101965749D01*
X153446325Y-102016979D01*
X153446321Y-102016984D01*
X153396362Y-102103518D01*
X153395193Y-102107878D01*
X153395192Y-102107882D01*
X153392832Y-102116691D01*
X153370499Y-102200038D01*
X153370499Y-102299962D01*
X153370500Y-102299965D01*
X153370500Y-102317521D01*
X153370500Y-102790614D01*
X153350498Y-102858735D01*
X153333595Y-102879710D01*
X152936482Y-103276822D01*
X152874170Y-103310847D01*
X152803354Y-103305782D01*
X152758292Y-103276821D01*
X152662189Y-103180718D01*
X152662179Y-103180710D01*
X152547143Y-103114294D01*
X152535499Y-103111174D01*
X152418832Y-103079913D01*
X152285994Y-103079913D01*
X152219833Y-103097641D01*
X152157682Y-103114294D01*
X152042646Y-103180710D01*
X152042636Y-103180718D01*
X151948718Y-103274636D01*
X151948710Y-103274646D01*
X151882292Y-103389685D01*
X151857602Y-103481829D01*
X151824991Y-103538312D01*
X151334049Y-104029254D01*
X151271737Y-104063280D01*
X151200922Y-104058215D01*
X151144086Y-104015668D01*
X151119275Y-103949148D01*
X151120269Y-103921998D01*
X151129500Y-103858646D01*
X151129500Y-103591354D01*
X151119461Y-103522450D01*
X151119460Y-103522449D01*
X151119460Y-103522445D01*
X151116828Y-103513928D01*
X151116617Y-103499040D01*
X151111487Y-103485062D01*
X151116126Y-103464255D01*
X151115826Y-103442939D01*
X151123974Y-103429065D01*
X151126940Y-103415767D01*
X151142187Y-103398055D01*
X151148581Y-103387169D01*
X151155964Y-103379862D01*
X151158019Y-103378676D01*
X151228676Y-103308019D01*
X151228677Y-103308016D01*
X151462642Y-103074050D01*
X151462652Y-103074043D01*
X151543670Y-102993025D01*
X151543676Y-102993019D01*
X151585646Y-102920325D01*
X151593636Y-102906486D01*
X151593636Y-102906485D01*
X151593638Y-102906482D01*
X151619500Y-102809962D01*
X151619500Y-102293626D01*
X151639502Y-102225505D01*
X151656405Y-102204531D01*
X151671605Y-102189331D01*
X151694040Y-102166896D01*
X151750054Y-102056962D01*
X151764500Y-101965753D01*
X151764499Y-101534448D01*
X151750054Y-101443238D01*
X151750053Y-101443236D01*
X151745705Y-101434701D01*
X151732602Y-101364924D01*
X151759304Y-101299140D01*
X151817332Y-101258235D01*
X151888264Y-101255196D01*
X151915171Y-101265232D01*
X152003138Y-101310054D01*
X152094347Y-101324500D01*
X152425652Y-101324499D01*
X152516862Y-101310054D01*
X152626796Y-101254040D01*
X152714040Y-101166796D01*
X152770054Y-101056862D01*
X152784500Y-100965653D01*
X152784499Y-100780713D01*
X152792994Y-100735231D01*
X152796509Y-100726149D01*
X152813638Y-100696482D01*
X152824578Y-100655652D01*
X152839501Y-100599962D01*
X152839501Y-100500038D01*
X152839501Y-100492321D01*
X152839500Y-100492303D01*
X152839500Y-99198629D01*
X152859502Y-99130508D01*
X152913158Y-99084015D01*
X152965500Y-99072629D01*
X153164312Y-99072629D01*
X153164314Y-99072629D01*
X153164317Y-99072628D01*
X153164320Y-99072628D01*
X153214667Y-99062614D01*
X153223138Y-99062614D01*
X153228018Y-99060694D01*
X153263825Y-99062613D01*
G37*
%TD.AperFunction*%
%TA.AperFunction,Conductor*%
G36*
X157757135Y-96956657D02*
G01*
X157798318Y-97014489D01*
X157804324Y-97050207D01*
X157805247Y-97051130D01*
X158259248Y-97051130D01*
X158259248Y-97305130D01*
X157805248Y-97305130D01*
X157805248Y-97802394D01*
X157834224Y-97948064D01*
X157834226Y-97948069D01*
X157891062Y-98085282D01*
X157973575Y-98208772D01*
X157973580Y-98208779D01*
X158078598Y-98313797D01*
X158078605Y-98313802D01*
X158202095Y-98396315D01*
X158339315Y-98453154D01*
X158339318Y-98453155D01*
X158432247Y-98471639D01*
X158432248Y-98471639D01*
X158432248Y-98001217D01*
X158443452Y-98007686D01*
X158519752Y-98028130D01*
X158598744Y-98028130D01*
X158675044Y-98007686D01*
X158686248Y-98001217D01*
X158686248Y-98471639D01*
X158779177Y-98453155D01*
X158779180Y-98453154D01*
X158916400Y-98396315D01*
X159039890Y-98313802D01*
X159039897Y-98313797D01*
X159144913Y-98208781D01*
X159147101Y-98206116D01*
X159148600Y-98205094D01*
X159149295Y-98204400D01*
X159149426Y-98204531D01*
X159205778Y-98166147D01*
X159276749Y-98164247D01*
X159337482Y-98201018D01*
X159368693Y-98264786D01*
X159370500Y-98286050D01*
X159370500Y-100194405D01*
X159370499Y-100194409D01*
X159370499Y-100294333D01*
X159390896Y-100370455D01*
X159393316Y-100379487D01*
X159393317Y-100379492D01*
X159396361Y-100390851D01*
X159396362Y-100390853D01*
X159397113Y-100392153D01*
X159446321Y-100477386D01*
X159446329Y-100477396D01*
X159524156Y-100555223D01*
X159524170Y-100555235D01*
X159671595Y-100702660D01*
X159705621Y-100764972D01*
X159708500Y-100791755D01*
X159708500Y-101731500D01*
X159688498Y-101799621D01*
X159634842Y-101846114D01*
X159582500Y-101857500D01*
X159578419Y-101857500D01*
X159445581Y-101857500D01*
X159397065Y-101870500D01*
X159317269Y-101891881D01*
X159202233Y-101958297D01*
X159202223Y-101958305D01*
X159108305Y-102052223D01*
X159108297Y-102052233D01*
X159041881Y-102167269D01*
X159029585Y-102213158D01*
X159010470Y-102284500D01*
X159005363Y-102303558D01*
X159003291Y-102303002D01*
X158998493Y-102313841D01*
X158993559Y-102336527D01*
X158981066Y-102353214D01*
X158979154Y-102357535D01*
X158972066Y-102365237D01*
X158948708Y-102388595D01*
X158886396Y-102422621D01*
X158859619Y-102425500D01*
X158844350Y-102425500D01*
X158753139Y-102439945D01*
X158643205Y-102495959D01*
X158637763Y-102499914D01*
X158625711Y-102504213D01*
X158616042Y-102512593D01*
X158592906Y-102515919D01*
X158570896Y-102523773D01*
X158558435Y-102520875D01*
X158545768Y-102522697D01*
X158524506Y-102512986D01*
X158501744Y-102507694D01*
X158492826Y-102498518D01*
X158481188Y-102493203D01*
X158468552Y-102473541D01*
X158452263Y-102456781D01*
X158448803Y-102442812D01*
X158442804Y-102433477D01*
X158437700Y-102397979D01*
X158437700Y-102195788D01*
X158451434Y-102138584D01*
X158499866Y-102043532D01*
X158499866Y-102043530D01*
X158499868Y-102043527D01*
X158514500Y-101951145D01*
X158514499Y-101549056D01*
X158499868Y-101456673D01*
X158443135Y-101345329D01*
X158443134Y-101345328D01*
X158443133Y-101345326D01*
X158441764Y-101343441D01*
X158440807Y-101340761D01*
X158438633Y-101336493D01*
X158439184Y-101336211D01*
X158434495Y-101323070D01*
X158422804Y-101304878D01*
X158419293Y-101280465D01*
X158417905Y-101276573D01*
X158417700Y-101269380D01*
X158417700Y-101195788D01*
X158431434Y-101138584D01*
X158479866Y-101043532D01*
X158479866Y-101043530D01*
X158479868Y-101043527D01*
X158494500Y-100951145D01*
X158494499Y-100549056D01*
X158479868Y-100456673D01*
X158436240Y-100371048D01*
X158423135Y-100345328D01*
X158334773Y-100256966D01*
X158334770Y-100256964D01*
X158223429Y-100200233D01*
X158223430Y-100200233D01*
X158223428Y-100200232D01*
X158223427Y-100200232D01*
X158131045Y-100185600D01*
X158131042Y-100185600D01*
X158094976Y-100185600D01*
X158026855Y-100165598D01*
X158005885Y-100148699D01*
X157516835Y-99659649D01*
X157516833Y-99659648D01*
X157516831Y-99659646D01*
X157412468Y-99599392D01*
X157412465Y-99599391D01*
X157296061Y-99568200D01*
X157296058Y-99568200D01*
X157296057Y-99568200D01*
X157243700Y-99568200D01*
X157175579Y-99548198D01*
X157129086Y-99494542D01*
X157117700Y-99442200D01*
X157117700Y-99105733D01*
X157137702Y-99037612D01*
X157164202Y-99010635D01*
X157163957Y-99010390D01*
X157172731Y-99001615D01*
X157205110Y-98953158D01*
X157228982Y-98917431D01*
X157243748Y-98843197D01*
X157243747Y-97343064D01*
X157238071Y-97314527D01*
X157244399Y-97243816D01*
X157287953Y-97187749D01*
X157329038Y-97168242D01*
X157343122Y-97164469D01*
X157469473Y-97091520D01*
X157572638Y-96988355D01*
X157572642Y-96988347D01*
X157577665Y-96981803D01*
X157579822Y-96983458D01*
X157621510Y-96943708D01*
X157691224Y-96930271D01*
X157757135Y-96956657D01*
G37*
%TD.AperFunction*%
%TA.AperFunction,Conductor*%
G36*
X156144421Y-99092631D02*
G01*
X156190914Y-99146287D01*
X156202300Y-99198629D01*
X156202300Y-99888761D01*
X156233491Y-100005165D01*
X156233492Y-100005168D01*
X156293746Y-100109531D01*
X156293748Y-100109533D01*
X156293749Y-100109535D01*
X156576366Y-100392151D01*
X156576367Y-100392152D01*
X156576369Y-100392153D01*
X156614608Y-100414230D01*
X156680734Y-100452408D01*
X156797143Y-100483600D01*
X156917658Y-100483600D01*
X156994024Y-100483600D01*
X157062145Y-100503602D01*
X157083119Y-100520505D01*
X157388595Y-100825981D01*
X157422621Y-100888293D01*
X157425500Y-100915073D01*
X157425500Y-100951141D01*
X157440131Y-101043525D01*
X157440131Y-101043526D01*
X157440132Y-101043527D01*
X157486830Y-101135177D01*
X157488567Y-101138585D01*
X157491739Y-101151799D01*
X157497196Y-101160290D01*
X157502300Y-101195788D01*
X157502300Y-101244600D01*
X157482298Y-101312721D01*
X157428642Y-101359214D01*
X157376300Y-101370600D01*
X157199938Y-101370600D01*
X157140863Y-101386428D01*
X157103413Y-101396463D01*
X157016884Y-101446421D01*
X157016879Y-101446425D01*
X156991214Y-101472091D01*
X156946224Y-101517081D01*
X156946222Y-101517083D01*
X156946219Y-101517085D01*
X156629711Y-101833595D01*
X156567398Y-101867620D01*
X156540615Y-101870500D01*
X155294812Y-101870500D01*
X155240174Y-101885140D01*
X155198287Y-101896363D01*
X155111758Y-101946321D01*
X155111748Y-101946329D01*
X155083843Y-101974235D01*
X155021531Y-102008261D01*
X154950716Y-102003196D01*
X154893880Y-101960649D01*
X154869069Y-101894129D01*
X154868748Y-101885140D01*
X154868748Y-101033774D01*
X154888750Y-100965653D01*
X154942406Y-100919160D01*
X155012680Y-100909056D01*
X155077260Y-100938550D01*
X155082985Y-100943880D01*
X155083204Y-100944040D01*
X155193138Y-101000054D01*
X155284347Y-101014500D01*
X155715652Y-101014499D01*
X155806862Y-101000054D01*
X155916796Y-100944040D01*
X156004040Y-100856796D01*
X156060054Y-100746862D01*
X156074500Y-100655653D01*
X156074499Y-100324348D01*
X156060054Y-100233138D01*
X156004040Y-100123204D01*
X155916796Y-100035960D01*
X155916795Y-100035959D01*
X155909784Y-100028948D01*
X155911654Y-100027077D01*
X155877326Y-99982547D01*
X155868748Y-99936850D01*
X155868748Y-99198629D01*
X155871339Y-99189803D01*
X155870030Y-99180697D01*
X155881185Y-99156271D01*
X155888750Y-99130508D01*
X155895703Y-99124483D01*
X155899524Y-99116117D01*
X155922109Y-99101602D01*
X155942406Y-99084015D01*
X155953092Y-99081690D01*
X155959250Y-99077733D01*
X155994748Y-99072629D01*
X156076300Y-99072629D01*
X156144421Y-99092631D01*
G37*
%TD.AperFunction*%
%TA.AperFunction,Conductor*%
G36*
X148281578Y-98849387D02*
G01*
X148338015Y-98875161D01*
X148338017Y-98875165D01*
X148344596Y-98881290D01*
X149711792Y-100248486D01*
X149745818Y-100310798D01*
X149740753Y-100381613D01*
X149734964Y-100394783D01*
X149689947Y-100483134D01*
X149689946Y-100483136D01*
X149689946Y-100483138D01*
X149676890Y-100565574D01*
X149675500Y-100574350D01*
X149675500Y-100905651D01*
X149689945Y-100996860D01*
X149745959Y-101106795D01*
X149800069Y-101160905D01*
X149834095Y-101223217D01*
X149829030Y-101294032D01*
X149812423Y-101324727D01*
X149806790Y-101332373D01*
X149745960Y-101393204D01*
X149710006Y-101463766D01*
X149703875Y-101472091D01*
X149683509Y-101487583D01*
X149665943Y-101506183D01*
X149655738Y-101508709D01*
X149647370Y-101515076D01*
X149621861Y-101517098D01*
X149597028Y-101523248D01*
X149587077Y-101519856D01*
X149576595Y-101520688D01*
X149554041Y-101508598D01*
X149529827Y-101500346D01*
X149522177Y-101491517D01*
X149514022Y-101487146D01*
X149506196Y-101473074D01*
X149490159Y-101454566D01*
X149486010Y-101446424D01*
X149464040Y-101403304D01*
X149376796Y-101316060D01*
X149376795Y-101316059D01*
X149321829Y-101288053D01*
X149266862Y-101260046D01*
X149175653Y-101245600D01*
X149175649Y-101245600D01*
X148744348Y-101245600D01*
X148653139Y-101260045D01*
X148543204Y-101316059D01*
X148543202Y-101316061D01*
X148515669Y-101343595D01*
X148488300Y-101358539D01*
X148462072Y-101375396D01*
X148455773Y-101376301D01*
X148453357Y-101377621D01*
X148426574Y-101380500D01*
X148293526Y-101380500D01*
X148225405Y-101360498D01*
X148204431Y-101343595D01*
X148199931Y-101339095D01*
X148188124Y-101317474D01*
X148178912Y-101306842D01*
X148177694Y-101298372D01*
X148165905Y-101276783D01*
X148170970Y-101205968D01*
X148199931Y-101160905D01*
X148225659Y-101135177D01*
X148254040Y-101106796D01*
X148310054Y-100996862D01*
X148324500Y-100905653D01*
X148324499Y-100574348D01*
X148310054Y-100483138D01*
X148254040Y-100373204D01*
X148166796Y-100285960D01*
X148166795Y-100285959D01*
X148166404Y-100285568D01*
X148132379Y-100223256D01*
X148129500Y-100196473D01*
X148129500Y-99060124D01*
X148129500Y-99049964D01*
X148129501Y-99049962D01*
X148129501Y-98970384D01*
X148141683Y-98928897D01*
X148149503Y-98902264D01*
X148152691Y-98899502D01*
X148156667Y-98896056D01*
X148203159Y-98855771D01*
X148273433Y-98845667D01*
X148281578Y-98849387D01*
G37*
%TD.AperFunction*%
%TA.AperFunction,Conductor*%
G36*
X153726149Y-91073502D02*
G01*
X153747123Y-91090405D01*
X158361897Y-95705179D01*
X158395923Y-95767491D01*
X158390858Y-95838306D01*
X158348311Y-95895142D01*
X158321021Y-95910683D01*
X158202093Y-95959945D01*
X158078605Y-96042457D01*
X158078598Y-96042462D01*
X157973580Y-96147480D01*
X157973575Y-96147487D01*
X157891061Y-96270977D01*
X157891059Y-96270982D01*
X157846913Y-96377558D01*
X157802365Y-96432839D01*
X157735001Y-96455259D01*
X157666210Y-96437700D01*
X157621386Y-96392339D01*
X157615634Y-96382377D01*
X157582664Y-96325270D01*
X157572640Y-96307908D01*
X157572639Y-96307906D01*
X157572638Y-96307905D01*
X157572636Y-96307903D01*
X157572632Y-96307898D01*
X157469479Y-96204745D01*
X157469469Y-96204737D01*
X157343126Y-96131793D01*
X157343123Y-96131792D01*
X157343122Y-96131791D01*
X157343120Y-96131790D01*
X157343119Y-96131790D01*
X157285309Y-96116300D01*
X157202197Y-96094030D01*
X157056299Y-96094030D01*
X156996128Y-96110153D01*
X156915376Y-96131790D01*
X156915371Y-96131792D01*
X156845995Y-96171847D01*
X156777000Y-96188584D01*
X156709908Y-96165363D01*
X156693901Y-96151822D01*
X155212483Y-94670404D01*
X155212473Y-94670396D01*
X155119694Y-94616830D01*
X155119691Y-94616829D01*
X155016207Y-94589100D01*
X155016204Y-94589100D01*
X155016203Y-94589100D01*
X153469570Y-94589100D01*
X153362430Y-94589100D01*
X153362426Y-94589100D01*
X153258946Y-94616828D01*
X153258941Y-94616830D01*
X153206587Y-94647057D01*
X153166157Y-94670399D01*
X153166155Y-94670400D01*
X153166149Y-94670405D01*
X151724807Y-96111748D01*
X151723212Y-96110153D01*
X151675366Y-96145080D01*
X151604495Y-96149292D01*
X151569757Y-96135622D01*
X151568560Y-96134931D01*
X151566722Y-96133870D01*
X151563126Y-96131793D01*
X151563123Y-96131792D01*
X151563122Y-96131791D01*
X151563120Y-96131790D01*
X151563119Y-96131790D01*
X151505309Y-96116300D01*
X151422197Y-96094030D01*
X151276299Y-96094030D01*
X151216128Y-96110153D01*
X151135376Y-96131790D01*
X151135369Y-96131793D01*
X151009026Y-96204737D01*
X151009016Y-96204745D01*
X150905863Y-96307898D01*
X150905857Y-96307906D01*
X150857109Y-96392340D01*
X150805726Y-96441333D01*
X150736012Y-96454768D01*
X150670101Y-96428381D01*
X150631581Y-96377557D01*
X150587433Y-96270977D01*
X150504920Y-96147487D01*
X150504915Y-96147480D01*
X150399897Y-96042462D01*
X150399890Y-96042457D01*
X150276400Y-95959944D01*
X150139185Y-95903107D01*
X150139182Y-95903106D01*
X150046248Y-95884620D01*
X150046248Y-96355042D01*
X150035044Y-96348574D01*
X149958744Y-96328130D01*
X149879752Y-96328130D01*
X149803452Y-96348574D01*
X149792248Y-96355042D01*
X149792248Y-95884620D01*
X149699313Y-95903106D01*
X149699310Y-95903107D01*
X149562095Y-95959944D01*
X149438605Y-96042457D01*
X149438598Y-96042462D01*
X149333580Y-96147480D01*
X149333575Y-96147487D01*
X149251062Y-96270977D01*
X149194226Y-96408190D01*
X149194224Y-96408195D01*
X149165248Y-96553865D01*
X149165248Y-97051130D01*
X149619248Y-97051130D01*
X149619248Y-97305130D01*
X149165248Y-97305130D01*
X149165248Y-97802394D01*
X149194224Y-97948064D01*
X149194226Y-97948069D01*
X149251062Y-98085282D01*
X149333575Y-98208772D01*
X149333580Y-98208779D01*
X149438598Y-98313797D01*
X149438605Y-98313802D01*
X149562095Y-98396315D01*
X149699315Y-98453154D01*
X149699318Y-98453155D01*
X149792247Y-98471639D01*
X149792248Y-98471639D01*
X149792248Y-98001217D01*
X149803452Y-98007686D01*
X149879752Y-98028130D01*
X149958744Y-98028130D01*
X150035044Y-98007686D01*
X150046248Y-98001217D01*
X150046248Y-98471639D01*
X150139177Y-98453155D01*
X150139180Y-98453154D01*
X150276400Y-98396315D01*
X150399890Y-98313802D01*
X150399897Y-98313797D01*
X150504915Y-98208779D01*
X150504920Y-98208772D01*
X150587433Y-98085282D01*
X150644269Y-97948069D01*
X150644271Y-97948064D01*
X150673247Y-97802394D01*
X150673248Y-97802390D01*
X150673248Y-97305130D01*
X150219248Y-97305130D01*
X150219248Y-97051130D01*
X150673249Y-97051130D01*
X150675147Y-97049231D01*
X150693250Y-96987580D01*
X150746906Y-96941087D01*
X150817180Y-96930983D01*
X150881760Y-96960477D01*
X150899935Y-96982489D01*
X150900831Y-96981803D01*
X150905863Y-96988361D01*
X151009016Y-97091514D01*
X151009021Y-97091518D01*
X151009023Y-97091520D01*
X151009024Y-97091521D01*
X151009026Y-97091522D01*
X151047320Y-97113631D01*
X151135374Y-97164469D01*
X151149454Y-97168241D01*
X151210076Y-97205191D01*
X151241099Y-97269051D01*
X151240423Y-97314528D01*
X151234748Y-97343055D01*
X151234748Y-98843193D01*
X151234749Y-98843203D01*
X151249513Y-98917430D01*
X151305764Y-99001614D01*
X151389945Y-99057863D01*
X151389947Y-99057864D01*
X151464181Y-99072630D01*
X151954500Y-99072629D01*
X152022621Y-99092631D01*
X152069114Y-99146286D01*
X152080500Y-99198629D01*
X152080500Y-100073315D01*
X152060498Y-100141436D01*
X152011703Y-100185582D01*
X151893204Y-100245959D01*
X151805959Y-100333204D01*
X151750822Y-100441419D01*
X151749946Y-100443138D01*
X151735807Y-100532409D01*
X151735500Y-100534350D01*
X151735500Y-100965651D01*
X151749945Y-101056861D01*
X151749946Y-101056864D01*
X151754295Y-101065400D01*
X151767396Y-101135177D01*
X151740693Y-101200961D01*
X151682664Y-101241865D01*
X151611733Y-101244902D01*
X151584828Y-101234867D01*
X151496862Y-101190046D01*
X151405653Y-101175600D01*
X151405649Y-101175600D01*
X151074348Y-101175600D01*
X150983138Y-101190045D01*
X150961932Y-101200850D01*
X150892155Y-101213952D01*
X150826371Y-101187249D01*
X150785467Y-101129221D01*
X150782428Y-101058289D01*
X150792463Y-101031385D01*
X150810054Y-100996862D01*
X150824500Y-100905653D01*
X150824499Y-100574348D01*
X150810054Y-100483138D01*
X150754040Y-100373204D01*
X150666796Y-100285960D01*
X150666795Y-100285959D01*
X150666404Y-100285568D01*
X150632379Y-100223256D01*
X150630760Y-100208202D01*
X150630578Y-100208227D01*
X150629500Y-100200040D01*
X150629500Y-100200038D01*
X150603638Y-100103518D01*
X150603636Y-100103515D01*
X150603636Y-100103513D01*
X150553678Y-100016984D01*
X150553670Y-100016974D01*
X150478630Y-99941934D01*
X150478607Y-99941913D01*
X147510864Y-96974170D01*
X147510852Y-96974156D01*
X147433025Y-96896329D01*
X147433015Y-96896321D01*
X147346480Y-96846361D01*
X147335121Y-96843317D01*
X147335116Y-96843316D01*
X147326084Y-96840896D01*
X147249962Y-96820499D01*
X147150038Y-96820499D01*
X147150034Y-96820500D01*
X146919740Y-96820500D01*
X146851619Y-96800498D01*
X146830645Y-96783595D01*
X146765723Y-96718673D01*
X146651553Y-96660501D01*
X146582500Y-96649565D01*
X146556834Y-96645500D01*
X145318166Y-96645500D01*
X145287714Y-96650323D01*
X145223442Y-96660502D01*
X145220600Y-96661950D01*
X145216778Y-96662667D01*
X145214016Y-96663565D01*
X145213899Y-96663207D01*
X145150822Y-96675049D01*
X145085039Y-96648344D01*
X145044138Y-96590313D01*
X145038957Y-96529969D01*
X145039498Y-96526555D01*
X145054500Y-96431834D01*
X145054500Y-96068166D01*
X145039498Y-95973445D01*
X145039497Y-95973444D01*
X145038957Y-95970030D01*
X145048057Y-95899619D01*
X145093779Y-95845305D01*
X145161607Y-95824333D01*
X145213990Y-95836513D01*
X145214016Y-95836435D01*
X145214929Y-95836731D01*
X145220607Y-95838052D01*
X145223445Y-95839498D01*
X145318166Y-95854500D01*
X145318168Y-95854500D01*
X146556832Y-95854500D01*
X146556834Y-95854500D01*
X146651555Y-95839498D01*
X146765723Y-95781326D01*
X146779558Y-95767491D01*
X146830644Y-95716406D01*
X146851081Y-95705245D01*
X146868875Y-95690224D01*
X146884701Y-95686887D01*
X146892956Y-95682380D01*
X146903413Y-95680563D01*
X146911540Y-95679501D01*
X146999962Y-95679501D01*
X147076084Y-95659103D01*
X147096482Y-95653638D01*
X147183019Y-95603676D01*
X147253676Y-95533019D01*
X147264043Y-95522652D01*
X147264050Y-95522642D01*
X147472642Y-95314050D01*
X147472652Y-95314043D01*
X147553670Y-95233025D01*
X147553676Y-95233019D01*
X147603638Y-95146482D01*
X147615118Y-95103638D01*
X147629501Y-95049962D01*
X147629501Y-94950038D01*
X147629500Y-94950034D01*
X147629500Y-92623865D01*
X149165248Y-92623865D01*
X149165248Y-92871130D01*
X149619248Y-92871130D01*
X149619248Y-93125130D01*
X149165248Y-93125130D01*
X149165248Y-93372394D01*
X149194224Y-93518064D01*
X149194226Y-93518069D01*
X149251062Y-93655282D01*
X149333575Y-93778772D01*
X149333580Y-93778779D01*
X149438598Y-93883797D01*
X149438605Y-93883802D01*
X149562095Y-93966315D01*
X149699315Y-94023154D01*
X149699318Y-94023155D01*
X149792247Y-94041639D01*
X149792248Y-94041639D01*
X149792248Y-93571217D01*
X149803452Y-93577686D01*
X149879752Y-93598130D01*
X149958744Y-93598130D01*
X150035044Y-93577686D01*
X150046248Y-93571217D01*
X150046248Y-94041639D01*
X150139177Y-94023155D01*
X150139180Y-94023154D01*
X150276400Y-93966315D01*
X150399890Y-93883802D01*
X150399897Y-93883797D01*
X150504915Y-93778779D01*
X150504920Y-93778772D01*
X150587433Y-93655282D01*
X150644269Y-93518069D01*
X150644271Y-93518064D01*
X150673247Y-93372394D01*
X150673248Y-93372390D01*
X150673248Y-93125130D01*
X150219248Y-93125130D01*
X150219248Y-92871130D01*
X150673248Y-92871130D01*
X150673248Y-92623869D01*
X150673247Y-92623865D01*
X150644271Y-92478195D01*
X150644269Y-92478190D01*
X150587433Y-92340977D01*
X150504920Y-92217487D01*
X150504915Y-92217480D01*
X150399897Y-92112462D01*
X150399890Y-92112457D01*
X150276400Y-92029944D01*
X150139185Y-91973107D01*
X150139182Y-91973106D01*
X150046248Y-91954620D01*
X150046248Y-92425042D01*
X150035044Y-92418574D01*
X149958744Y-92398130D01*
X149879752Y-92398130D01*
X149803452Y-92418574D01*
X149792248Y-92425042D01*
X149792248Y-91954620D01*
X149699313Y-91973106D01*
X149699310Y-91973107D01*
X149562095Y-92029944D01*
X149438605Y-92112457D01*
X149438598Y-92112462D01*
X149333580Y-92217480D01*
X149333575Y-92217487D01*
X149251062Y-92340977D01*
X149194226Y-92478190D01*
X149194224Y-92478195D01*
X149165248Y-92623865D01*
X147629500Y-92623865D01*
X147629500Y-91549965D01*
X147629501Y-91549962D01*
X147629501Y-91450038D01*
X147603638Y-91353519D01*
X147603638Y-91353518D01*
X147556726Y-91272263D01*
X147553678Y-91266984D01*
X147548648Y-91260429D01*
X147550187Y-91259248D01*
X147521265Y-91206283D01*
X147526330Y-91135468D01*
X147568877Y-91078632D01*
X147635397Y-91053821D01*
X147644386Y-91053500D01*
X153658028Y-91053500D01*
X153726149Y-91073502D01*
G37*
%TD.AperFunction*%
%TA.AperFunction,Conductor*%
G36*
X145213990Y-100086513D02*
G01*
X145214016Y-100086435D01*
X145214929Y-100086731D01*
X145220607Y-100088052D01*
X145223445Y-100089498D01*
X145318166Y-100104500D01*
X145940368Y-100104500D01*
X146008489Y-100124502D01*
X146054982Y-100178158D01*
X146065086Y-100248432D01*
X146049487Y-100293499D01*
X146042691Y-100305270D01*
X146011775Y-100420652D01*
X146008310Y-100433582D01*
X146008310Y-100566417D01*
X146008309Y-100566417D01*
X146010435Y-100574350D01*
X146042691Y-100694730D01*
X146049486Y-100706500D01*
X146066225Y-100775493D01*
X146043006Y-100842586D01*
X145987199Y-100886474D01*
X145940368Y-100895500D01*
X145318166Y-100895500D01*
X145292898Y-100899502D01*
X145223442Y-100910502D01*
X145220600Y-100911950D01*
X145216778Y-100912667D01*
X145214016Y-100913565D01*
X145213899Y-100913207D01*
X145150822Y-100925049D01*
X145085039Y-100898344D01*
X145044138Y-100840313D01*
X145038957Y-100779969D01*
X145039666Y-100775493D01*
X145054500Y-100681834D01*
X145054500Y-100318166D01*
X145039498Y-100223445D01*
X145039497Y-100223444D01*
X145038957Y-100220030D01*
X145048057Y-100149619D01*
X145093779Y-100095305D01*
X145161607Y-100074333D01*
X145213990Y-100086513D01*
G37*
%TD.AperFunction*%
%TA.AperFunction,Conductor*%
G36*
X145023381Y-93599502D02*
G01*
X145044355Y-93616405D01*
X145109276Y-93681326D01*
X145159888Y-93707114D01*
X145223445Y-93739498D01*
X145318166Y-93754500D01*
X145318168Y-93754500D01*
X146556832Y-93754500D01*
X146556834Y-93754500D01*
X146651555Y-93739498D01*
X146687296Y-93721287D01*
X146757073Y-93708182D01*
X146822858Y-93734882D01*
X146863765Y-93792909D01*
X146870500Y-93833553D01*
X146870500Y-94666446D01*
X146850498Y-94734567D01*
X146796842Y-94781060D01*
X146726568Y-94791164D01*
X146687298Y-94778713D01*
X146651555Y-94760501D01*
X146579618Y-94749108D01*
X146556834Y-94745500D01*
X145318166Y-94745500D01*
X145292266Y-94749602D01*
X145223446Y-94760501D01*
X145109276Y-94818673D01*
X145018673Y-94909276D01*
X144960501Y-95023446D01*
X144945500Y-95118167D01*
X144945500Y-95481833D01*
X144961042Y-95579970D01*
X144951942Y-95650381D01*
X144906219Y-95704694D01*
X144838391Y-95725666D01*
X144786009Y-95713486D01*
X144785984Y-95713565D01*
X144785065Y-95713266D01*
X144779395Y-95711948D01*
X144776556Y-95710501D01*
X144702172Y-95698721D01*
X144681834Y-95695500D01*
X143443166Y-95695500D01*
X143417266Y-95699602D01*
X143348446Y-95710501D01*
X143234276Y-95768673D01*
X143143675Y-95859274D01*
X143143671Y-95859279D01*
X143117766Y-95910122D01*
X143069018Y-95961737D01*
X143000103Y-95978802D01*
X142932901Y-95955901D01*
X142888750Y-95900303D01*
X142879500Y-95852918D01*
X142879500Y-94459384D01*
X142899502Y-94391263D01*
X142916405Y-94370289D01*
X143670289Y-93616405D01*
X143732601Y-93582379D01*
X143759384Y-93579500D01*
X144955260Y-93579500D01*
X145023381Y-93599502D01*
G37*
%TD.AperFunction*%
%TD*%
M02*
