%TF.GenerationSoftware,KiCad,Pcbnew,9.0.2*%
%TF.CreationDate,2025-05-27T14:22:58+08:00*%
%TF.ProjectId,tsubaki_lite,74737562-616b-4695-9f6c-6974652e6b69,3*%
%TF.SameCoordinates,Original*%
%TF.FileFunction,Copper,L1,Top*%
%TF.FilePolarity,Positive*%
%FSLAX46Y46*%
G04 Gerber Fmt 4.6, Leading zero omitted, Abs format (unit mm)*
G04 Created by KiCad (PCBNEW 9.0.2) date 2025-05-27 14:22:58*
%MOMM*%
%LPD*%
G01*
G04 APERTURE LIST*
G04 Aperture macros list*
%AMRoundRect*
0 Rectangle with rounded corners*
0 $1 Rounding radius*
0 $2 $3 $4 $5 $6 $7 $8 $9 X,Y pos of 4 corners*
0 Add a 4 corners polygon primitive as box body*
4,1,4,$2,$3,$4,$5,$6,$7,$8,$9,$2,$3,0*
0 Add four circle primitives for the rounded corners*
1,1,$1+$1,$2,$3*
1,1,$1+$1,$4,$5*
1,1,$1+$1,$6,$7*
1,1,$1+$1,$8,$9*
0 Add four rect primitives between the rounded corners*
20,1,$1+$1,$2,$3,$4,$5,0*
20,1,$1+$1,$4,$5,$6,$7,0*
20,1,$1+$1,$6,$7,$8,$9,0*
20,1,$1+$1,$8,$9,$2,$3,0*%
G04 Aperture macros list end*
%TA.AperFunction,SMDPad,CuDef*%
%ADD10RoundRect,0.150000X0.587500X0.150000X-0.587500X0.150000X-0.587500X-0.150000X0.587500X-0.150000X0*%
%TD*%
%TA.AperFunction,SMDPad,CuDef*%
%ADD11RoundRect,0.250000X-0.262500X-0.450000X0.262500X-0.450000X0.262500X0.450000X-0.262500X0.450000X0*%
%TD*%
%TA.AperFunction,SMDPad,CuDef*%
%ADD12RoundRect,0.250000X0.250000X0.475000X-0.250000X0.475000X-0.250000X-0.475000X0.250000X-0.475000X0*%
%TD*%
%TA.AperFunction,SMDPad,CuDef*%
%ADD13RoundRect,0.243750X-0.243750X-0.456250X0.243750X-0.456250X0.243750X0.456250X-0.243750X0.456250X0*%
%TD*%
%TA.AperFunction,SMDPad,CuDef*%
%ADD14RoundRect,0.250000X-0.450000X0.262500X-0.450000X-0.262500X0.450000X-0.262500X0.450000X0.262500X0*%
%TD*%
%TA.AperFunction,ComponentPad*%
%ADD15C,2.200000*%
%TD*%
%TA.AperFunction,SMDPad,CuDef*%
%ADD16RoundRect,0.250000X-0.375000X-0.625000X0.375000X-0.625000X0.375000X0.625000X-0.375000X0.625000X0*%
%TD*%
%TA.AperFunction,SMDPad,CuDef*%
%ADD17RoundRect,0.135000X0.135000X0.185000X-0.135000X0.185000X-0.135000X-0.185000X0.135000X-0.185000X0*%
%TD*%
%TA.AperFunction,SMDPad,CuDef*%
%ADD18R,0.900000X1.700000*%
%TD*%
%TA.AperFunction,ComponentPad*%
%ADD19R,1.700000X1.700000*%
%TD*%
%TA.AperFunction,ComponentPad*%
%ADD20C,1.700000*%
%TD*%
%TA.AperFunction,SMDPad,CuDef*%
%ADD21RoundRect,0.225000X-0.225000X-0.375000X0.225000X-0.375000X0.225000X0.375000X-0.225000X0.375000X0*%
%TD*%
%TA.AperFunction,SMDPad,CuDef*%
%ADD22RoundRect,0.250000X0.262500X0.450000X-0.262500X0.450000X-0.262500X-0.450000X0.262500X-0.450000X0*%
%TD*%
%TA.AperFunction,SMDPad,CuDef*%
%ADD23RoundRect,0.243750X0.243750X0.456250X-0.243750X0.456250X-0.243750X-0.456250X0.243750X-0.456250X0*%
%TD*%
%TA.AperFunction,SMDPad,CuDef*%
%ADD24RoundRect,0.250000X-0.250000X-0.475000X0.250000X-0.475000X0.250000X0.475000X-0.250000X0.475000X0*%
%TD*%
%TA.AperFunction,ComponentPad*%
%ADD25C,1.800000*%
%TD*%
%TA.AperFunction,ComponentPad*%
%ADD26O,3.300000X3.500000*%
%TD*%
%TA.AperFunction,SMDPad,CuDef*%
%ADD27RoundRect,0.135000X-0.185000X0.135000X-0.185000X-0.135000X0.185000X-0.135000X0.185000X0.135000X0*%
%TD*%
%TA.AperFunction,SMDPad,CuDef*%
%ADD28RoundRect,0.250000X0.450000X-0.262500X0.450000X0.262500X-0.450000X0.262500X-0.450000X-0.262500X0*%
%TD*%
%TA.AperFunction,SMDPad,CuDef*%
%ADD29RoundRect,0.100000X-0.637500X-0.100000X0.637500X-0.100000X0.637500X0.100000X-0.637500X0.100000X0*%
%TD*%
%TA.AperFunction,SMDPad,CuDef*%
%ADD30R,0.600000X1.450000*%
%TD*%
%TA.AperFunction,SMDPad,CuDef*%
%ADD31R,0.300000X1.450000*%
%TD*%
%TA.AperFunction,HeatsinkPad*%
%ADD32O,1.000000X2.100000*%
%TD*%
%TA.AperFunction,HeatsinkPad*%
%ADD33O,1.000000X1.600000*%
%TD*%
%TA.AperFunction,ViaPad*%
%ADD34C,0.500000*%
%TD*%
%TA.AperFunction,ViaPad*%
%ADD35C,0.800000*%
%TD*%
%TA.AperFunction,Conductor*%
%ADD36C,0.250000*%
%TD*%
%TA.AperFunction,Conductor*%
%ADD37C,0.254000*%
%TD*%
%TA.AperFunction,Conductor*%
%ADD38C,0.381000*%
%TD*%
%TA.AperFunction,Conductor*%
%ADD39C,0.508000*%
%TD*%
G04 APERTURE END LIST*
D10*
%TO.P,Q2,1,G*%
%TO.N,Net-(Q2-G)*%
X134937500Y-113950000D03*
%TO.P,Q2,2,S*%
%TO.N,Net-(Q1-S)*%
X134937500Y-112050000D03*
%TO.P,Q2,3,D*%
%TO.N,Net-(L_1_2-K)*%
X133062500Y-113000000D03*
%TD*%
D11*
%TO.P,R3,1*%
%TO.N,Net-(J1-CC1)*%
X157387500Y-101750000D03*
%TO.P,R3,2*%
%TO.N,GND*%
X159212500Y-101750000D03*
%TD*%
D12*
%TO.P,C1,1*%
%TO.N,/RESET*%
X163950000Y-92250000D03*
%TO.P,C1,2*%
%TO.N,GND*%
X162050000Y-92250000D03*
%TD*%
D13*
%TO.P,L_1_2,1,K*%
%TO.N,Net-(L_1_2-K)*%
X123262500Y-106900000D03*
%TO.P,L_1_2,2,A*%
%TO.N,Net-(L_1_2-A)*%
X125137500Y-106900000D03*
%TD*%
D14*
%TO.P,R10,1*%
%TO.N,GND*%
X148300000Y-98200000D03*
%TO.P,R10,2*%
%TO.N,/COL3*%
X148300000Y-100025000D03*
%TD*%
%TO.P,R15,1*%
%TO.N,GND*%
X162100000Y-107337500D03*
%TO.P,R15,2*%
%TO.N,/ROT_DOWN*%
X162100000Y-109162500D03*
%TD*%
D15*
%TO.P,SW_1_3,1,1*%
%TO.N,/COL3*%
X142740000Y-97320000D03*
%TO.P,SW_1_3,2,2*%
%TO.N,Net-(D_1_3-K)*%
X136390000Y-99860000D03*
%TD*%
D16*
%TO.P,D1,1,K*%
%TO.N,GND*%
X157100000Y-113000000D03*
%TO.P,D1,2,A*%
%TO.N,Net-(D1-A)*%
X159900000Y-113000000D03*
%TD*%
D14*
%TO.P,R8,1*%
%TO.N,GND*%
X148300000Y-101787500D03*
%TO.P,R8,2*%
%TO.N,/COL2*%
X148300000Y-103612500D03*
%TD*%
%TO.P,R7,1*%
%TO.N,GND*%
X148300000Y-105287500D03*
%TO.P,R7,2*%
%TO.N,/COL1*%
X148300000Y-107112500D03*
%TD*%
D17*
%TO.P,R_1_1,1*%
%TO.N,VDD*%
X116710000Y-106900000D03*
%TO.P,R_1_1,2*%
%TO.N,Net-(L_1_1-A)*%
X115690000Y-106900000D03*
%TD*%
D18*
%TO.P,SW2,1,A*%
%TO.N,/DP*%
X176050000Y-92250000D03*
%TO.P,SW2,2,B*%
%TO.N,Net-(SW2-B)*%
X179450000Y-92250000D03*
%TD*%
D17*
%TO.P,R13,1*%
%TO.N,/LED_CTRL*%
X148020000Y-111000000D03*
%TO.P,R13,2*%
%TO.N,Net-(Q4-G)*%
X147000000Y-111000000D03*
%TD*%
D19*
%TO.P,J2,1,Pin_1*%
%TO.N,/TX*%
X169675000Y-112900000D03*
D20*
%TO.P,J2,2,Pin_2*%
%TO.N,/RX*%
X167135000Y-112900000D03*
%TD*%
D21*
%TO.P,D_1_1,1,K*%
%TO.N,Net-(D_1_1-K)*%
X111250000Y-94000000D03*
%TO.P,D_1_1,2,A*%
%TO.N,/ROW1*%
X114550000Y-94000000D03*
%TD*%
D17*
%TO.P,R6,1*%
%TO.N,/COL1*%
X138510000Y-110000000D03*
%TO.P,R6,2*%
%TO.N,Net-(Q1-G)*%
X137490000Y-110000000D03*
%TD*%
D22*
%TO.P,R4,1*%
%TO.N,/LED_CTRL*%
X163912500Y-113000000D03*
%TO.P,R4,2*%
%TO.N,Net-(D1-A)*%
X162087500Y-113000000D03*
%TD*%
%TO.P,R12,1*%
%TO.N,GND*%
X163912500Y-111000000D03*
%TO.P,R12,2*%
%TO.N,/LED_CTRL*%
X162087500Y-111000000D03*
%TD*%
D14*
%TO.P,R5,1*%
%TO.N,VDD*%
X149750000Y-108925000D03*
%TO.P,R5,2*%
%TO.N,Net-(D2-A)*%
X149750000Y-110750000D03*
%TD*%
D21*
%TO.P,D_1_2,1,K*%
%TO.N,Net-(D_1_2-K)*%
X127150000Y-93900000D03*
%TO.P,D_1_2,2,A*%
%TO.N,/ROW1*%
X130450000Y-93900000D03*
%TD*%
D13*
%TO.P,L_1_3,1,K*%
%TO.N,Net-(L_1_3-K)*%
X139325000Y-106900000D03*
%TO.P,L_1_3,2,A*%
%TO.N,Net-(L_1_3-A)*%
X141200000Y-106900000D03*
%TD*%
D23*
%TO.P,L_1_1,1,K*%
%TO.N,Net-(L_1_1-K)*%
X109137500Y-106900000D03*
%TO.P,L_1_1,2,A*%
%TO.N,Net-(L_1_1-A)*%
X107262500Y-106900000D03*
%TD*%
D17*
%TO.P,R11,1*%
%TO.N,/COL3*%
X144210000Y-110000000D03*
%TO.P,R11,2*%
%TO.N,Net-(Q3-G)*%
X143190000Y-110000000D03*
%TD*%
D10*
%TO.P,Q3,1,G*%
%TO.N,Net-(Q3-G)*%
X139937500Y-113950000D03*
%TO.P,Q3,2,S*%
%TO.N,Net-(Q1-S)*%
X139937500Y-112050000D03*
%TO.P,Q3,3,D*%
%TO.N,Net-(L_1_3-K)*%
X138062500Y-113000000D03*
%TD*%
D18*
%TO.P,SW1,1,A*%
%TO.N,/RESET*%
X166000000Y-92250000D03*
%TO.P,SW1,2,B*%
%TO.N,GND*%
X169400000Y-92250000D03*
%TD*%
D24*
%TO.P,C2,1*%
%TO.N,VDD*%
X162050000Y-97250000D03*
%TO.P,C2,2*%
%TO.N,GND*%
X163950000Y-97250000D03*
%TD*%
D15*
%TO.P,SW_1_2,1,1*%
%TO.N,/COL2*%
X126740000Y-97320000D03*
%TO.P,SW_1_2,2,2*%
%TO.N,Net-(D_1_2-K)*%
X120390000Y-99860000D03*
%TD*%
D14*
%TO.P,R14,1*%
%TO.N,GND*%
X160000000Y-107337500D03*
%TO.P,R14,2*%
%TO.N,/ROT_UP*%
X160000000Y-109162500D03*
%TD*%
D10*
%TO.P,Q1,1,G*%
%TO.N,Net-(Q1-G)*%
X129687500Y-113950000D03*
%TO.P,Q1,2,S*%
%TO.N,Net-(Q1-S)*%
X129687500Y-112050000D03*
%TO.P,Q1,3,D*%
%TO.N,Net-(L_1_1-K)*%
X127812500Y-113000000D03*
%TD*%
D25*
%TO.P,SW3,A,A*%
%TO.N,/ROT_UP*%
X170209995Y-109250064D03*
%TO.P,SW3,B,B*%
%TO.N,/ROT_DOWN*%
X175290005Y-109250064D03*
%TO.P,SW3,C,C*%
%TO.N,VDD*%
X172750000Y-109250064D03*
D26*
%TO.P,SW3,D,D*%
%TO.N,GND*%
X178349949Y-101749936D03*
%TO.P,SW3,E,E*%
X167150051Y-101749936D03*
%TD*%
D16*
%TO.P,D2,1,K*%
%TO.N,GND*%
X148100000Y-113000000D03*
%TO.P,D2,2,A*%
%TO.N,Net-(D2-A)*%
X150900000Y-113000000D03*
%TD*%
D27*
%TO.P,R_1_3,1*%
%TO.N,VDD*%
X147900000Y-108790000D03*
%TO.P,R_1_3,2*%
%TO.N,Net-(L_1_3-A)*%
X147900000Y-109810000D03*
%TD*%
D10*
%TO.P,Q4,1,G*%
%TO.N,Net-(Q4-G)*%
X145837500Y-113950000D03*
%TO.P,Q4,2,S*%
%TO.N,GND*%
X145837500Y-112050000D03*
%TO.P,Q4,3,D*%
%TO.N,Net-(Q1-S)*%
X143962500Y-113000000D03*
%TD*%
D11*
%TO.P,R2,1*%
%TO.N,GND*%
X150587500Y-101750000D03*
%TO.P,R2,2*%
%TO.N,Net-(J1-CC2)*%
X152412500Y-101750000D03*
%TD*%
D17*
%TO.P,R9,1*%
%TO.N,/COL2*%
X141410000Y-110000000D03*
%TO.P,R9,2*%
%TO.N,Net-(Q2-G)*%
X140390000Y-110000000D03*
%TD*%
D28*
%TO.P,R1,1*%
%TO.N,Net-(SW2-B)*%
X164000000Y-100912500D03*
%TO.P,R1,2*%
%TO.N,VDD*%
X164000000Y-99087500D03*
%TD*%
D21*
%TO.P,D_1_3,1,K*%
%TO.N,Net-(D_1_3-K)*%
X143250000Y-93900000D03*
%TO.P,D_1_3,2,A*%
%TO.N,/ROW1*%
X146550000Y-93900000D03*
%TD*%
D15*
%TO.P,SW_1_1,1,1*%
%TO.N,/COL1*%
X110740000Y-97320000D03*
%TO.P,SW_1_1,2,2*%
%TO.N,Net-(D_1_1-K)*%
X104390000Y-99860000D03*
%TD*%
D24*
%TO.P,C3,1*%
%TO.N,VDD*%
X162050000Y-94750000D03*
%TO.P,C3,2*%
%TO.N,GND*%
X163950000Y-94750000D03*
%TD*%
D29*
%TO.P,U1,1,PB12*%
%TO.N,/COL3*%
X151887500Y-104825000D03*
%TO.P,U1,2,PC14*%
%TO.N,/COL2*%
X151887500Y-105475000D03*
%TO.P,U1,3,PC15*%
%TO.N,/COL1*%
X151887500Y-106125000D03*
%TO.P,U1,4,PC3*%
%TO.N,/RESET*%
X151887500Y-106775000D03*
%TO.P,U1,5,PC1*%
%TO.N,/RX*%
X151887500Y-107425000D03*
%TO.P,U1,6,PA0*%
%TO.N,/ROW1*%
X151887500Y-108075000D03*
%TO.P,U1,7,PA1*%
%TO.N,unconnected-(U1-PA1-Pad7)*%
X151887500Y-108725000D03*
%TO.P,U1,8,PA2*%
%TO.N,/TX*%
X151887500Y-109375000D03*
%TO.P,U1,9,PA3*%
%TO.N,unconnected-(U1-PA3-Pad9)*%
X151887500Y-110025000D03*
%TO.P,U1,10,PA4*%
%TO.N,unconnected-(U1-PA4-Pad10)*%
X151887500Y-110675000D03*
%TO.P,U1,11,PA5*%
%TO.N,/LED_CTRL*%
X157612500Y-110675000D03*
%TO.P,U1,12,PA6*%
%TO.N,unconnected-(U1-PA6-Pad12)*%
X157612500Y-110025000D03*
%TO.P,U1,13,PA7*%
%TO.N,/ROT_DOWN*%
X157612500Y-109375000D03*
%TO.P,U1,14,PB1*%
%TO.N,/ROT_UP*%
X157612500Y-108725000D03*
%TO.P,U1,15,GND*%
%TO.N,GND*%
X157612500Y-108075000D03*
%TO.P,U1,16,VDD*%
%TO.N,VDD*%
X157612500Y-107425000D03*
%TO.P,U1,17,PC16*%
%TO.N,/DM*%
X157612500Y-106775000D03*
%TO.P,U1,18,PC17*%
%TO.N,/DP*%
X157612500Y-106125000D03*
%TO.P,U1,19,PC18*%
%TO.N,/DIO*%
X157612500Y-105475000D03*
%TO.P,U1,20,PC19*%
%TO.N,/DCK*%
X157612500Y-104825000D03*
%TD*%
D14*
%TO.P,R16,1*%
%TO.N,GND*%
X162000000Y-99087500D03*
%TO.P,R16,2*%
%TO.N,/DP*%
X162000000Y-100912500D03*
%TD*%
D30*
%TO.P,J1,A1,GND*%
%TO.N,GND*%
X158250000Y-98295000D03*
%TO.P,J1,A4,VBUS*%
%TO.N,VDD*%
X157450000Y-98295000D03*
D31*
%TO.P,J1,A5,CC1*%
%TO.N,Net-(J1-CC1)*%
X156250000Y-98295000D03*
%TO.P,J1,A6,D+*%
%TO.N,/DP*%
X155250000Y-98295000D03*
%TO.P,J1,A7,D-*%
%TO.N,/DM*%
X154750000Y-98295000D03*
%TO.P,J1,A8,SBU1*%
%TO.N,unconnected-(J1-SBU1-PadA8)*%
X153750000Y-98295000D03*
D30*
%TO.P,J1,A9,VBUS*%
%TO.N,VDD*%
X152550000Y-98295000D03*
%TO.P,J1,A12,GND*%
%TO.N,GND*%
X151750000Y-98295000D03*
%TO.P,J1,B1,GND*%
X151750000Y-98295000D03*
%TO.P,J1,B4,VBUS*%
%TO.N,VDD*%
X152550000Y-98295000D03*
D31*
%TO.P,J1,B5,CC2*%
%TO.N,Net-(J1-CC2)*%
X153250000Y-98295000D03*
%TO.P,J1,B6,D+*%
%TO.N,/DP*%
X154250000Y-98295000D03*
%TO.P,J1,B7,D-*%
%TO.N,/DM*%
X155750000Y-98295000D03*
%TO.P,J1,B8,SBU2*%
%TO.N,unconnected-(J1-SBU2-PadB8)*%
X156750000Y-98295000D03*
D30*
%TO.P,J1,B9,VBUS*%
%TO.N,VDD*%
X157450000Y-98295000D03*
%TO.P,J1,B12,GND*%
%TO.N,GND*%
X158250000Y-98295000D03*
D32*
%TO.P,J1,S1,SHIELD*%
X159320000Y-97380000D03*
D33*
X159320000Y-93200000D03*
D32*
X150680000Y-97380000D03*
D33*
X150680000Y-93200000D03*
%TD*%
D17*
%TO.P,R_1_2,1*%
%TO.N,VDD*%
X132700000Y-106900000D03*
%TO.P,R_1_2,2*%
%TO.N,Net-(L_1_2-A)*%
X131680000Y-106900000D03*
%TD*%
D19*
%TO.P,J3,1,Pin_1*%
%TO.N,VDD*%
X183000000Y-98890000D03*
D20*
%TO.P,J3,2,Pin_2*%
%TO.N,GND*%
X183000000Y-101430000D03*
%TO.P,J3,3,Pin_3*%
%TO.N,/DCK*%
X183000000Y-103970000D03*
%TO.P,J3,4,Pin_4*%
%TO.N,/DIO*%
X183000000Y-106510000D03*
%TD*%
D34*
%TO.N,GND*%
X139250000Y-109000000D03*
X114000000Y-96500000D03*
X129750000Y-96750000D03*
X165000000Y-107500000D03*
X165500000Y-96000000D03*
%TO.N,Net-(L_1_3-K)*%
X138000000Y-107000000D03*
X136250000Y-112750000D03*
%TO.N,GND*%
X166000000Y-110000000D03*
X158500000Y-111750000D03*
X149750000Y-105250000D03*
X146750000Y-104000000D03*
X150750000Y-99250000D03*
X151250000Y-103750000D03*
X159000000Y-100500000D03*
X145500000Y-97250000D03*
X124500000Y-109500000D03*
X142500000Y-108500000D03*
X131750000Y-109250000D03*
X127500000Y-105000000D03*
X155250000Y-92250000D03*
X143500000Y-103500000D03*
X134750000Y-97000000D03*
X118750000Y-97500000D03*
X111250000Y-100500000D03*
X102500000Y-97000000D03*
X103500000Y-106000000D03*
X109000000Y-110000000D03*
X118500000Y-108750000D03*
X124000000Y-111750000D03*
X126500000Y-114250000D03*
X137750000Y-114250000D03*
X143500000Y-112000000D03*
X152250000Y-113750000D03*
X149250000Y-113250000D03*
X154250000Y-102250000D03*
X154750000Y-108500000D03*
X163250000Y-103500000D03*
X173000000Y-96500000D03*
X173000000Y-107000000D03*
X174500000Y-112750000D03*
X178750000Y-110000000D03*
X180500000Y-106250000D03*
X180750000Y-100250000D03*
X180500000Y-96000000D03*
X177750000Y-92000000D03*
X167750000Y-92250000D03*
X160750000Y-91500000D03*
X148250000Y-91500000D03*
X141500000Y-91750000D03*
X132250000Y-91750000D03*
X123750000Y-91750000D03*
X113250000Y-92000000D03*
X105000000Y-92000000D03*
%TO.N,/RESET*%
X162000000Y-93500000D03*
X153500000Y-106000000D03*
%TO.N,/DM*%
X155974000Y-103750000D03*
X156000000Y-102000000D03*
D35*
%TO.N,VDD*%
X132750000Y-107750000D03*
X120197347Y-107802653D03*
X150111596Y-108061901D03*
X152232429Y-103517571D03*
D34*
%TO.N,/ROW1*%
X150500000Y-106700000D03*
X150500000Y-100400000D03*
%TO.N,Net-(L_1_2-K)*%
X128200000Y-110000000D03*
X131300000Y-112750000D03*
%TO.N,Net-(L_1_3-A)*%
X142400000Y-106900000D03*
X147200000Y-109800000D03*
%TO.N,Net-(Q1-G)*%
X136800000Y-110000000D03*
X130750000Y-114000000D03*
%TO.N,Net-(Q2-G)*%
X139700000Y-110000000D03*
X136300000Y-114000000D03*
%TO.N,Net-(Q3-G)*%
X142606587Y-109993413D03*
X141200000Y-114000000D03*
%TO.N,/LED_CTRL*%
X149175000Y-111800000D03*
X156000000Y-110700000D03*
%TD*%
D36*
%TO.N,/DIO*%
X157612500Y-105475000D02*
X158750000Y-105475000D01*
X158750000Y-105475000D02*
X158976000Y-105249000D01*
X158976000Y-105249000D02*
X181739000Y-105249000D01*
X181739000Y-105249000D02*
X183000000Y-106510000D01*
%TO.N,/DM*%
X156000000Y-102000000D02*
X156000000Y-101425000D01*
X156000000Y-101425000D02*
X155750000Y-101175000D01*
X155750000Y-101175000D02*
X155750000Y-98295000D01*
%TO.N,/DP*%
X155250000Y-101146514D02*
X155250000Y-102387721D01*
X155250000Y-102387721D02*
X155638279Y-102776000D01*
X155638279Y-102776000D02*
X156276000Y-102776000D01*
D37*
%TO.N,Net-(L_1_3-K)*%
X139225000Y-107000000D02*
X139325000Y-106900000D01*
X138000000Y-107000000D02*
X139225000Y-107000000D01*
X136500000Y-113000000D02*
X136250000Y-112750000D01*
X138062500Y-113000000D02*
X136500000Y-113000000D01*
D36*
%TO.N,Net-(L_1_2-K)*%
X131300000Y-112750000D02*
X131550000Y-113000000D01*
X131550000Y-113000000D02*
X133062500Y-113000000D01*
%TO.N,Net-(Q1-G)*%
X130750000Y-114000000D02*
X129287500Y-114000000D01*
X129287500Y-114000000D02*
X129237500Y-113950000D01*
D37*
%TO.N,/RESET*%
X162700000Y-93500000D02*
X163950000Y-92250000D01*
X151887500Y-106775000D02*
X152725000Y-106775000D01*
X152725000Y-106775000D02*
X153500000Y-106000000D01*
X162000000Y-93500000D02*
X162700000Y-93500000D01*
D36*
%TO.N,/DM*%
X156671774Y-106775000D02*
X157612500Y-106775000D01*
X155974000Y-106077226D02*
X156671774Y-106775000D01*
X155974000Y-103750000D02*
X155974000Y-106077226D01*
%TO.N,/DP*%
X156549000Y-103106486D02*
X156549000Y-103049000D01*
X156549000Y-103049000D02*
X156276000Y-102776000D01*
X156276000Y-102776000D02*
X156879486Y-102776000D01*
X155250000Y-100500000D02*
X155250000Y-100750000D01*
D37*
X154853486Y-100750000D02*
X155000000Y-100750000D01*
D36*
X155250000Y-100500000D02*
X155000000Y-100750000D01*
D37*
X154801743Y-100698257D02*
X155250000Y-101146514D01*
D36*
X155250000Y-98295000D02*
X155250000Y-100500000D01*
D37*
X154801743Y-100698257D02*
X154853486Y-100750000D01*
X155000000Y-100750000D02*
X155250000Y-100750000D01*
X154250000Y-98295000D02*
X154250000Y-100146514D01*
X154250000Y-100146514D02*
X154801743Y-100698257D01*
D38*
%TO.N,VDD*%
X150111596Y-108061901D02*
X149750000Y-108423497D01*
X149750000Y-108423497D02*
X149750000Y-108925000D01*
D37*
X116710000Y-106900000D02*
X119294694Y-106900000D01*
X119294694Y-106900000D02*
X120197347Y-107802653D01*
X132750000Y-107750000D02*
X132750000Y-106950000D01*
X132750000Y-106950000D02*
X132700000Y-106900000D01*
D36*
%TO.N,/ROW1*%
X151150001Y-108075000D02*
X151887500Y-108075000D01*
X150500000Y-106700000D02*
X150500000Y-107424999D01*
X150500000Y-107424999D02*
X151150001Y-108075000D01*
%TO.N,/COL1*%
X151887500Y-106125000D02*
X149625000Y-106125000D01*
X149625000Y-106125000D02*
X148637500Y-107112500D01*
X148637500Y-107112500D02*
X148300000Y-107112500D01*
D38*
%TO.N,VDD*%
X152232429Y-103517571D02*
X156139858Y-107425000D01*
D37*
%TO.N,/ROT_DOWN*%
X162100000Y-109162500D02*
X168385776Y-109162500D01*
X168385776Y-109162500D02*
X169701340Y-110478064D01*
X169701340Y-110478064D02*
X174062005Y-110478064D01*
X174062005Y-110478064D02*
X175290005Y-109250064D01*
%TO.N,/ROT_UP*%
X160000000Y-109162500D02*
X160840500Y-108322000D01*
X160840500Y-108322000D02*
X169281931Y-108322000D01*
X169281931Y-108322000D02*
X170209995Y-109250064D01*
%TO.N,/ROT_DOWN*%
X157612500Y-109375000D02*
X158625000Y-109375000D01*
X158625000Y-109375000D02*
X159472000Y-110222000D01*
X159472000Y-110222000D02*
X161040500Y-110222000D01*
X161040500Y-110222000D02*
X162100000Y-109162500D01*
%TO.N,/ROT_UP*%
X157612500Y-108725000D02*
X158725000Y-108725000D01*
X158725000Y-108725000D02*
X159162500Y-109162500D01*
X159162500Y-109162500D02*
X160000000Y-109162500D01*
D38*
%TO.N,VDD*%
X157612500Y-107425000D02*
X158460856Y-107425000D01*
X169933436Y-106433500D02*
X172750000Y-109250064D01*
X158460856Y-107425000D02*
X158908500Y-106977356D01*
X158908500Y-106977356D02*
X158908500Y-106802356D01*
X158908500Y-106802356D02*
X159277356Y-106433500D01*
X159277356Y-106433500D02*
X169933436Y-106433500D01*
D36*
%TO.N,/LED_CTRL*%
X157612500Y-110675000D02*
X161762500Y-110675000D01*
X161762500Y-110675000D02*
X162087500Y-111000000D01*
X163912500Y-113000000D02*
X163912500Y-112825000D01*
X163912500Y-112825000D02*
X162087500Y-111000000D01*
D38*
%TO.N,VDD*%
X157450000Y-98295000D02*
X157450000Y-99200000D01*
X157450000Y-99200000D02*
X157750000Y-99500000D01*
X157750000Y-99500000D02*
X159800000Y-99500000D01*
X159800000Y-99500000D02*
X162050000Y-97250000D01*
D39*
X162050000Y-97250000D02*
X162050000Y-94750000D01*
X164000000Y-99087500D02*
X163887500Y-99087500D01*
X163887500Y-99087500D02*
X162050000Y-97250000D01*
D36*
X147900000Y-108790000D02*
X149615000Y-108790000D01*
X149615000Y-108790000D02*
X149750000Y-108925000D01*
%TO.N,/ROW1*%
X130450000Y-93900000D02*
X131450000Y-92900000D01*
X114550000Y-94000000D02*
X115650000Y-92900000D01*
X131450000Y-92900000D02*
X145550000Y-92900000D01*
X149700000Y-97050000D02*
X149700000Y-99600000D01*
X149700000Y-99600000D02*
X150500000Y-100400000D01*
X115650000Y-92900000D02*
X129450000Y-92900000D01*
X149700000Y-97050000D02*
X146550000Y-93900000D01*
X145550000Y-92900000D02*
X146550000Y-93900000D01*
X129450000Y-92900000D02*
X130450000Y-93900000D01*
%TO.N,Net-(D_1_1-K)*%
X111250000Y-94000000D02*
X110250000Y-94000000D01*
X110250000Y-94000000D02*
X104390000Y-99860000D01*
%TO.N,Net-(D_1_2-K)*%
X127150000Y-93900000D02*
X126350000Y-93900000D01*
X126350000Y-93900000D02*
X120390000Y-99860000D01*
%TO.N,Net-(D_1_3-K)*%
X142350000Y-93900000D02*
X136390000Y-99860000D01*
X143250000Y-93900000D02*
X142350000Y-93900000D01*
D38*
%TO.N,VDD*%
X157450000Y-97463731D02*
X157450000Y-98295000D01*
X152550000Y-98295000D02*
X152550000Y-97463731D01*
X155900000Y-95913731D02*
X157450000Y-97463731D01*
X152550000Y-97463731D02*
X154113731Y-95900000D01*
X155900000Y-95900000D02*
X155900000Y-95913731D01*
X154113731Y-95900000D02*
X155900000Y-95900000D01*
D36*
%TO.N,/DP*%
X172371514Y-92250000D02*
X164547514Y-100074000D01*
X164547514Y-100074000D02*
X162838500Y-100074000D01*
X162838500Y-100074000D02*
X162000000Y-100912500D01*
X156919774Y-106125000D02*
X156549000Y-105754226D01*
X155250000Y-100750000D02*
X155250000Y-101146514D01*
X160136500Y-102776000D02*
X162000000Y-100912500D01*
X156879486Y-102776000D02*
X158318774Y-102776000D01*
X156549000Y-103106486D02*
X156879486Y-102776000D01*
X157612500Y-106125000D02*
X156919774Y-106125000D01*
X158318774Y-102776000D02*
X160136500Y-102776000D01*
X156549000Y-105754226D02*
X156549000Y-103106486D01*
X176050000Y-92250000D02*
X172371514Y-92250000D01*
%TO.N,/TX*%
X155698000Y-114057324D02*
X156291676Y-114651000D01*
X156291676Y-114651000D02*
X167924000Y-114651000D01*
X167924000Y-114651000D02*
X169675000Y-112900000D01*
X151887500Y-109375000D02*
X152775000Y-109375000D01*
X155698000Y-112298000D02*
X155698000Y-114057324D01*
X152775000Y-109375000D02*
X155698000Y-112298000D01*
%TO.N,/RX*%
X153200000Y-107700000D02*
X153200000Y-109162190D01*
X152925000Y-107425000D02*
X153200000Y-107700000D01*
X165835000Y-114200000D02*
X167135000Y-112900000D01*
X151887500Y-107425000D02*
X152925000Y-107425000D01*
X156478486Y-114200000D02*
X165835000Y-114200000D01*
X156149000Y-112111190D02*
X156149000Y-113870514D01*
X156149000Y-113870514D02*
X156478486Y-114200000D01*
X153200000Y-109162190D02*
X156149000Y-112111190D01*
%TO.N,Net-(L_1_1-K)*%
X114000000Y-106900000D02*
X120100000Y-113000000D01*
X120100000Y-113000000D02*
X127362500Y-113000000D01*
X109137500Y-106900000D02*
X114000000Y-106900000D01*
%TO.N,Net-(L_1_1-A)*%
X108288500Y-105874000D02*
X114664000Y-105874000D01*
X114664000Y-105874000D02*
X115690000Y-106900000D01*
X107262500Y-106900000D02*
X108288500Y-105874000D01*
%TO.N,Net-(L_1_2-A)*%
X131680000Y-106900000D02*
X125137500Y-106900000D01*
%TO.N,Net-(L_1_2-K)*%
X126362500Y-110000000D02*
X123262500Y-106900000D01*
X128200000Y-110000000D02*
X126362500Y-110000000D01*
%TO.N,Net-(L_1_3-A)*%
X142400000Y-106900000D02*
X141200000Y-106900000D01*
X147210000Y-109810000D02*
X147200000Y-109800000D01*
X147900000Y-109810000D02*
X147210000Y-109810000D01*
%TO.N,Net-(Q1-S)*%
X142600000Y-113000000D02*
X143962500Y-113000000D01*
X139937500Y-112050000D02*
X141650000Y-112050000D01*
X129237500Y-112050000D02*
X134937500Y-112050000D01*
X134937500Y-112050000D02*
X139937500Y-112050000D01*
X141650000Y-112050000D02*
X142600000Y-113000000D01*
%TO.N,Net-(Q1-G)*%
X137490000Y-110000000D02*
X136800000Y-110000000D01*
%TO.N,Net-(Q2-G)*%
X136300000Y-114000000D02*
X134987500Y-114000000D01*
X134987500Y-114000000D02*
X134937500Y-113950000D01*
X140390000Y-110000000D02*
X139700000Y-110000000D01*
%TO.N,Net-(Q3-G)*%
X142613174Y-110000000D02*
X142606587Y-109993413D01*
X143190000Y-110000000D02*
X142613174Y-110000000D01*
X139987500Y-114000000D02*
X139937500Y-113950000D01*
X141200000Y-114000000D02*
X139987500Y-114000000D01*
%TO.N,Net-(Q4-G)*%
X147000000Y-112787500D02*
X147000000Y-111000000D01*
X145837500Y-113950000D02*
X147000000Y-112787500D01*
%TO.N,/LED_CTRL*%
X163912500Y-112636171D02*
X163912500Y-113000000D01*
X148400000Y-111800000D02*
X148020000Y-111420000D01*
X149175000Y-111800000D02*
X148400000Y-111800000D01*
X148020000Y-111420000D02*
X148020000Y-111000000D01*
X161725000Y-110675000D02*
X162000000Y-110400000D01*
X156025000Y-110675000D02*
X156000000Y-110700000D01*
X157612500Y-110675000D02*
X156025000Y-110675000D01*
X162000000Y-110400000D02*
X162000000Y-110723671D01*
%TO.N,/COL1*%
X146902000Y-107698000D02*
X146902000Y-109273620D01*
X138800000Y-110000000D02*
X138510000Y-110000000D01*
X146902000Y-109273620D02*
X145024620Y-111151000D01*
X110740000Y-97320000D02*
X124066000Y-110646000D01*
X139951000Y-111151000D02*
X138800000Y-110000000D01*
X145024620Y-111151000D02*
X139951000Y-111151000D01*
X147487500Y-107112500D02*
X146902000Y-107698000D01*
X148300000Y-107112500D02*
X147487500Y-107112500D01*
X137864000Y-110646000D02*
X138510000Y-110000000D01*
X124066000Y-110646000D02*
X137864000Y-110646000D01*
%TO.N,/COL2*%
X151887500Y-105475000D02*
X151150001Y-105475000D01*
X146451000Y-109086810D02*
X146451000Y-105461500D01*
X144837810Y-110700000D02*
X146451000Y-109086810D01*
X141410000Y-110000000D02*
X141800000Y-110000000D01*
X139510000Y-108100000D02*
X137520000Y-108100000D01*
X146451000Y-105461500D02*
X148300000Y-103612500D01*
X149287501Y-103612500D02*
X148300000Y-103612500D01*
X141410000Y-110000000D02*
X139510000Y-108100000D01*
X141800000Y-110000000D02*
X142500000Y-110700000D01*
X137520000Y-108100000D02*
X126740000Y-97320000D01*
X151150001Y-105475000D02*
X149287501Y-103612500D01*
X142500000Y-110700000D02*
X144837810Y-110700000D01*
%TO.N,/COL3*%
X145445000Y-100025000D02*
X148300000Y-100025000D01*
X144210000Y-110000000D02*
X144900000Y-110000000D01*
X148300000Y-100025000D02*
X148175000Y-100025000D01*
X146000000Y-108900000D02*
X146000000Y-103383562D01*
X149326000Y-103013189D02*
X149326000Y-100526000D01*
X142740000Y-97320000D02*
X145445000Y-100025000D01*
X146484600Y-102898962D02*
X146484600Y-101840400D01*
X149326000Y-100526000D02*
X148825000Y-100025000D01*
X151887500Y-104825000D02*
X151137811Y-104825000D01*
X148825000Y-100025000D02*
X148300000Y-100025000D01*
X146000000Y-103383562D02*
X146484600Y-102898962D01*
X146484600Y-101840400D02*
X148300000Y-100025000D01*
X144900000Y-110000000D02*
X146000000Y-108900000D01*
X151137811Y-104825000D02*
X149326000Y-103013189D01*
%TO.N,Net-(J1-CC1)*%
X156250000Y-100612500D02*
X157387500Y-101750000D01*
X157250000Y-101750000D02*
X157587500Y-101750000D01*
X156250000Y-98295000D02*
X156250000Y-100612500D01*
%TO.N,/DM*%
X155750000Y-97050000D02*
X155750000Y-98295000D01*
X154750000Y-97050000D02*
X155000000Y-96800000D01*
X154750000Y-98295000D02*
X154750000Y-97050000D01*
X155500000Y-96800000D02*
X155750000Y-97050000D01*
X155000000Y-96800000D02*
X155500000Y-96800000D01*
%TO.N,Net-(J1-CC2)*%
X152412500Y-101668750D02*
X152412500Y-101750000D01*
X153250000Y-98295000D02*
X153250000Y-100831250D01*
X153250000Y-100831250D02*
X152412500Y-101668750D01*
%TO.N,/RESET*%
X166000000Y-92250000D02*
X163950000Y-92250000D01*
%TO.N,Net-(D1-A)*%
X162087500Y-113000000D02*
X159900000Y-113000000D01*
%TO.N,Net-(SW2-B)*%
X164346824Y-100912500D02*
X171833324Y-93426000D01*
X178274000Y-93426000D02*
X179450000Y-92250000D01*
X171833324Y-93426000D02*
X178274000Y-93426000D01*
X164000000Y-100912500D02*
X164346824Y-100912500D01*
%TO.N,Net-(D2-A)*%
X149750000Y-110750000D02*
X149750000Y-111850000D01*
X149750000Y-111850000D02*
X150900000Y-113000000D01*
D38*
%TO.N,VDD*%
X152550000Y-98295000D02*
X152550000Y-99200000D01*
X152550000Y-99200000D02*
X151508500Y-100241500D01*
X151508500Y-100241500D02*
X151508500Y-102793642D01*
X151508500Y-102793642D02*
X152232429Y-103517571D01*
X156139858Y-107425000D02*
X157612500Y-107425000D01*
D36*
%TO.N,/DCK*%
X157612500Y-104825000D02*
X157639500Y-104798000D01*
X157639500Y-104798000D02*
X182172000Y-104798000D01*
X182172000Y-104798000D02*
X183000000Y-103970000D01*
%TD*%
%TA.AperFunction,Conductor*%
%TO.N,GND*%
G36*
X185789221Y-90172902D02*
G01*
X185835714Y-90226558D01*
X185847100Y-90278900D01*
X185847100Y-114721100D01*
X185827098Y-114789221D01*
X185773442Y-114835714D01*
X185721100Y-114847100D01*
X168568785Y-114847100D01*
X168500664Y-114827098D01*
X168454171Y-114773442D01*
X168444067Y-114703168D01*
X168473561Y-114638588D01*
X168479689Y-114632005D01*
X169070289Y-114041404D01*
X169132602Y-114007379D01*
X169159385Y-114004499D01*
X170550064Y-114004499D01*
X170550066Y-114004499D01*
X170550069Y-114004498D01*
X170550072Y-114004498D01*
X170586663Y-113997219D01*
X170624301Y-113989734D01*
X170708484Y-113933484D01*
X170764734Y-113849301D01*
X170779500Y-113775067D01*
X170779499Y-112024934D01*
X170779498Y-112024930D01*
X170779498Y-112024926D01*
X170768450Y-111969386D01*
X170764734Y-111950699D01*
X170727783Y-111895398D01*
X181670900Y-111895398D01*
X181670900Y-112104602D01*
X181702561Y-112304500D01*
X181703628Y-112311237D01*
X181768273Y-112510193D01*
X181863253Y-112696602D01*
X181986219Y-112865852D01*
X182134147Y-113013780D01*
X182197456Y-113059776D01*
X182303400Y-113136748D01*
X182489803Y-113231725D01*
X182489805Y-113231725D01*
X182489806Y-113231726D01*
X182556124Y-113253274D01*
X182688768Y-113296373D01*
X182895398Y-113329100D01*
X182895401Y-113329100D01*
X183104599Y-113329100D01*
X183104602Y-113329100D01*
X183311232Y-113296373D01*
X183510197Y-113231725D01*
X183696600Y-113136748D01*
X183865851Y-113013781D01*
X184013781Y-112865851D01*
X184136748Y-112696600D01*
X184231725Y-112510197D01*
X184296373Y-112311232D01*
X184329100Y-112104602D01*
X184329100Y-111895398D01*
X184296373Y-111688768D01*
X184231725Y-111489803D01*
X184136748Y-111303400D01*
X184123726Y-111285477D01*
X184013780Y-111134147D01*
X183865852Y-110986219D01*
X183696602Y-110863253D01*
X183510193Y-110768273D01*
X183311237Y-110703628D01*
X183311233Y-110703627D01*
X183311232Y-110703627D01*
X183104602Y-110670900D01*
X182895398Y-110670900D01*
X182688768Y-110703627D01*
X182688762Y-110703628D01*
X182489806Y-110768273D01*
X182303397Y-110863253D01*
X182134147Y-110986219D01*
X181986219Y-111134147D01*
X181863253Y-111303397D01*
X181768273Y-111489806D01*
X181703628Y-111688762D01*
X181703627Y-111688767D01*
X181703627Y-111688768D01*
X181670900Y-111895398D01*
X170727783Y-111895398D01*
X170708484Y-111866516D01*
X170708482Y-111866515D01*
X170708482Y-111866514D01*
X170624302Y-111810266D01*
X170550067Y-111795500D01*
X168799936Y-111795500D01*
X168799926Y-111795501D01*
X168725699Y-111810265D01*
X168641515Y-111866516D01*
X168585266Y-111950697D01*
X168570500Y-112024930D01*
X168570500Y-113415613D01*
X168550498Y-113483734D01*
X168533596Y-113504708D01*
X168350392Y-113687913D01*
X167971887Y-114066419D01*
X167803711Y-114234595D01*
X167741398Y-114268620D01*
X167714615Y-114271500D01*
X166604384Y-114271500D01*
X166536263Y-114251498D01*
X166489770Y-114197842D01*
X166479666Y-114127568D01*
X166509160Y-114062988D01*
X166515289Y-114056405D01*
X166608943Y-113962751D01*
X166671255Y-113928725D01*
X166736973Y-113932012D01*
X166876362Y-113977303D01*
X167048074Y-114004500D01*
X167048077Y-114004500D01*
X167221923Y-114004500D01*
X167221926Y-114004500D01*
X167393638Y-113977303D01*
X167558981Y-113923580D01*
X167713884Y-113844653D01*
X167854533Y-113742465D01*
X167977465Y-113619533D01*
X168079653Y-113478884D01*
X168158580Y-113323981D01*
X168212303Y-113158638D01*
X168239500Y-112986926D01*
X168239500Y-112813074D01*
X168212303Y-112641362D01*
X168158580Y-112476019D01*
X168079653Y-112321116D01*
X168022146Y-112241965D01*
X167977463Y-112180464D01*
X167854535Y-112057536D01*
X167713887Y-111955349D01*
X167713886Y-111955348D01*
X167713884Y-111955347D01*
X167558981Y-111876420D01*
X167558978Y-111876419D01*
X167558976Y-111876418D01*
X167393642Y-111822698D01*
X167393640Y-111822697D01*
X167393638Y-111822697D01*
X167221926Y-111795500D01*
X167048074Y-111795500D01*
X166876362Y-111822697D01*
X166876360Y-111822697D01*
X166876357Y-111822698D01*
X166711023Y-111876418D01*
X166711017Y-111876421D01*
X166556112Y-111955349D01*
X166415464Y-112057536D01*
X166292536Y-112180464D01*
X166190349Y-112321112D01*
X166111421Y-112476017D01*
X166111418Y-112476023D01*
X166057698Y-112641357D01*
X166057697Y-112641360D01*
X166057697Y-112641362D01*
X166030500Y-112813074D01*
X166030500Y-112986926D01*
X166035821Y-113020519D01*
X166057698Y-113158644D01*
X166102985Y-113298026D01*
X166105012Y-113368994D01*
X166072248Y-113426056D01*
X165714711Y-113783595D01*
X165652399Y-113817620D01*
X165625615Y-113820500D01*
X164756734Y-113820500D01*
X164688613Y-113800498D01*
X164642120Y-113746842D01*
X164632016Y-113676568D01*
X164638679Y-113650467D01*
X164658883Y-113596297D01*
X164673040Y-113558342D01*
X164679500Y-113498255D01*
X164679499Y-112501746D01*
X164673040Y-112441658D01*
X164622342Y-112305733D01*
X164535404Y-112189596D01*
X164419267Y-112102658D01*
X164419265Y-112102657D01*
X164419266Y-112102657D01*
X164283349Y-112051962D01*
X164283344Y-112051960D01*
X164283342Y-112051960D01*
X164275831Y-112051152D01*
X164223262Y-112045500D01*
X164223255Y-112045500D01*
X163721884Y-112045500D01*
X163653763Y-112025498D01*
X163632789Y-112008595D01*
X162891404Y-111267210D01*
X162857378Y-111204898D01*
X162854499Y-111178115D01*
X162854499Y-110501753D01*
X162854499Y-110501746D01*
X162848040Y-110441658D01*
X162797342Y-110305733D01*
X162710404Y-110189596D01*
X162640151Y-110137006D01*
X162597606Y-110080173D01*
X162592540Y-110009357D01*
X162626565Y-109947045D01*
X162671624Y-109918085D01*
X162794267Y-109872342D01*
X162910404Y-109785404D01*
X162997342Y-109669267D01*
X163013492Y-109625965D01*
X163056038Y-109569132D01*
X163122558Y-109544321D01*
X163131547Y-109544000D01*
X168175563Y-109544000D01*
X168243684Y-109564002D01*
X168264658Y-109580905D01*
X169391653Y-110707899D01*
X169391674Y-110707922D01*
X169467086Y-110783334D01*
X169467091Y-110783338D01*
X169467093Y-110783340D01*
X169467094Y-110783341D01*
X169467096Y-110783342D01*
X169554081Y-110833563D01*
X169554083Y-110833563D01*
X169554086Y-110833565D01*
X169651115Y-110859564D01*
X169651117Y-110859564D01*
X174112228Y-110859564D01*
X174112230Y-110859564D01*
X174209259Y-110833565D01*
X174209262Y-110833563D01*
X174209263Y-110833563D01*
X174252755Y-110808452D01*
X174296252Y-110783340D01*
X174367281Y-110712311D01*
X174384990Y-110694602D01*
X174384996Y-110694594D01*
X174726403Y-110353186D01*
X174788714Y-110319163D01*
X174854429Y-110322449D01*
X175019659Y-110376136D01*
X175199144Y-110404564D01*
X175199147Y-110404564D01*
X175380863Y-110404564D01*
X175380866Y-110404564D01*
X175560351Y-110376136D01*
X175733179Y-110319981D01*
X175895095Y-110237481D01*
X176042111Y-110130667D01*
X176170608Y-110002170D01*
X176277422Y-109855154D01*
X176359922Y-109693238D01*
X176416077Y-109520410D01*
X176444505Y-109340925D01*
X176444505Y-109159203D01*
X176416077Y-108979718D01*
X176359922Y-108806890D01*
X176277422Y-108644974D01*
X176205712Y-108546274D01*
X176170606Y-108497955D01*
X176042113Y-108369462D01*
X175895098Y-108262649D01*
X175895097Y-108262648D01*
X175895095Y-108262647D01*
X175733179Y-108180147D01*
X175733176Y-108180146D01*
X175733174Y-108180145D01*
X175560356Y-108123993D01*
X175560352Y-108123992D01*
X175560351Y-108123992D01*
X175380866Y-108095564D01*
X175199144Y-108095564D01*
X175019659Y-108123992D01*
X175019653Y-108123993D01*
X174846835Y-108180145D01*
X174846829Y-108180148D01*
X174684911Y-108262649D01*
X174537896Y-108369462D01*
X174409403Y-108497955D01*
X174302590Y-108644970D01*
X174220089Y-108806888D01*
X174220086Y-108806894D01*
X174163934Y-108979711D01*
X174144451Y-109102722D01*
X174114038Y-109166874D01*
X174053770Y-109204401D01*
X173982780Y-109203387D01*
X173923608Y-109164154D01*
X173895554Y-109102724D01*
X173876072Y-108979718D01*
X173819917Y-108806890D01*
X173737417Y-108644974D01*
X173665707Y-108546274D01*
X173630601Y-108497955D01*
X173502108Y-108369462D01*
X173355093Y-108262649D01*
X173355092Y-108262648D01*
X173355090Y-108262647D01*
X173193174Y-108180147D01*
X173193171Y-108180146D01*
X173193169Y-108180145D01*
X173020351Y-108123993D01*
X173020347Y-108123992D01*
X173020346Y-108123992D01*
X172840861Y-108095564D01*
X172659139Y-108095564D01*
X172479654Y-108123992D01*
X172382206Y-108155654D01*
X172311238Y-108157680D01*
X172254176Y-108124915D01*
X170206673Y-106077412D01*
X170206668Y-106077408D01*
X170105204Y-106018828D01*
X170105202Y-106018827D01*
X170105200Y-106018826D01*
X170105197Y-106018825D01*
X170105192Y-106018823D01*
X170042214Y-106001948D01*
X170042214Y-106001949D01*
X169992022Y-105988500D01*
X169992021Y-105988500D01*
X159335942Y-105988500D01*
X159218770Y-105988500D01*
X159168578Y-106001949D01*
X159168577Y-106001948D01*
X159105599Y-106018823D01*
X159105587Y-106018828D01*
X159004123Y-106077408D01*
X159004118Y-106077412D01*
X159004119Y-106077412D01*
X158819595Y-106261936D01*
X158757283Y-106295962D01*
X158686468Y-106290897D01*
X158629632Y-106248350D01*
X158604821Y-106181830D01*
X158604500Y-106172841D01*
X158604500Y-105991358D01*
X158604373Y-105989606D01*
X158604500Y-105989019D01*
X158604500Y-105986795D01*
X158604982Y-105986795D01*
X158619401Y-105920218D01*
X158669556Y-105869969D01*
X158730044Y-105854501D01*
X158799961Y-105854501D01*
X158799962Y-105854501D01*
X158876080Y-105834104D01*
X158876082Y-105834104D01*
X158883548Y-105832102D01*
X158896482Y-105828638D01*
X158983019Y-105778676D01*
X159053676Y-105708019D01*
X159064043Y-105697652D01*
X159064054Y-105697639D01*
X159096291Y-105665403D01*
X159158604Y-105631379D01*
X159185385Y-105628500D01*
X181529616Y-105628500D01*
X181597737Y-105648502D01*
X181618711Y-105665405D01*
X181937248Y-105983942D01*
X181971274Y-106046254D01*
X181967986Y-106111972D01*
X181922698Y-106251355D01*
X181922697Y-106251362D01*
X181895500Y-106423074D01*
X181895500Y-106596926D01*
X181922346Y-106766419D01*
X181922698Y-106768642D01*
X181963666Y-106894730D01*
X181976420Y-106933981D01*
X182055347Y-107088884D01*
X182055349Y-107088887D01*
X182157536Y-107229535D01*
X182280464Y-107352463D01*
X182363758Y-107412980D01*
X182421116Y-107454653D01*
X182576019Y-107533580D01*
X182741362Y-107587303D01*
X182913074Y-107614500D01*
X182913077Y-107614500D01*
X183086923Y-107614500D01*
X183086926Y-107614500D01*
X183258638Y-107587303D01*
X183423981Y-107533580D01*
X183578884Y-107454653D01*
X183719533Y-107352465D01*
X183842465Y-107229533D01*
X183944653Y-107088884D01*
X184023580Y-106933981D01*
X184077303Y-106768638D01*
X184104500Y-106596926D01*
X184104500Y-106423074D01*
X184077303Y-106251362D01*
X184023580Y-106086019D01*
X183944653Y-105931116D01*
X183842465Y-105790467D01*
X183842463Y-105790464D01*
X183719535Y-105667536D01*
X183578887Y-105565349D01*
X183578886Y-105565348D01*
X183578884Y-105565347D01*
X183423981Y-105486420D01*
X183423978Y-105486419D01*
X183423976Y-105486418D01*
X183258642Y-105432698D01*
X183258640Y-105432697D01*
X183258638Y-105432697D01*
X183086926Y-105405500D01*
X182913074Y-105405500D01*
X182773327Y-105427634D01*
X182741355Y-105432698D01*
X182601972Y-105477986D01*
X182586515Y-105478427D01*
X182572026Y-105483832D01*
X182551746Y-105479420D01*
X182531005Y-105480013D01*
X182516693Y-105471795D01*
X182502652Y-105468741D01*
X182473942Y-105447248D01*
X182345741Y-105319047D01*
X182311715Y-105256735D01*
X182316780Y-105185920D01*
X182359327Y-105129084D01*
X182371821Y-105120842D01*
X182405019Y-105101676D01*
X182473945Y-105032749D01*
X182536255Y-104998726D01*
X182601972Y-105002012D01*
X182741362Y-105047303D01*
X182913074Y-105074500D01*
X182913077Y-105074500D01*
X183086923Y-105074500D01*
X183086926Y-105074500D01*
X183258638Y-105047303D01*
X183423981Y-104993580D01*
X183578884Y-104914653D01*
X183719533Y-104812465D01*
X183842465Y-104689533D01*
X183944653Y-104548884D01*
X184023580Y-104393981D01*
X184077303Y-104228638D01*
X184104500Y-104056926D01*
X184104500Y-103883074D01*
X184077303Y-103711362D01*
X184023580Y-103546019D01*
X183944653Y-103391116D01*
X183842465Y-103250467D01*
X183842463Y-103250464D01*
X183719535Y-103127536D01*
X183578887Y-103025349D01*
X183578886Y-103025348D01*
X183578884Y-103025347D01*
X183423981Y-102946420D01*
X183423978Y-102946419D01*
X183423976Y-102946418D01*
X183258642Y-102892698D01*
X183258640Y-102892697D01*
X183258638Y-102892697D01*
X183086926Y-102865500D01*
X182913074Y-102865500D01*
X182741362Y-102892697D01*
X182741360Y-102892697D01*
X182741357Y-102892698D01*
X182576023Y-102946418D01*
X182576017Y-102946421D01*
X182421112Y-103025349D01*
X182280464Y-103127536D01*
X182157536Y-103250464D01*
X182055349Y-103391112D01*
X181976421Y-103546017D01*
X181976418Y-103546023D01*
X181922698Y-103711357D01*
X181922697Y-103711360D01*
X181922697Y-103711362D01*
X181895500Y-103883074D01*
X181895500Y-104056926D01*
X181911617Y-104158683D01*
X181922697Y-104228640D01*
X181930796Y-104253563D01*
X181932824Y-104324530D01*
X181896162Y-104385329D01*
X181832450Y-104416654D01*
X181810963Y-104418500D01*
X158459350Y-104418500D01*
X158404012Y-104405697D01*
X158352550Y-104380539D01*
X158283647Y-104370500D01*
X158283646Y-104370500D01*
X157054500Y-104370500D01*
X156986379Y-104350498D01*
X156939886Y-104296842D01*
X156928500Y-104244500D01*
X156928500Y-103315870D01*
X156937283Y-103285954D01*
X156943912Y-103255485D01*
X156947726Y-103250389D01*
X156948502Y-103247749D01*
X156965405Y-103226775D01*
X156999775Y-103192405D01*
X157062087Y-103158379D01*
X157088870Y-103155500D01*
X158268812Y-103155500D01*
X160078804Y-103155500D01*
X160078820Y-103155501D01*
X160086538Y-103155501D01*
X160186461Y-103155501D01*
X160186462Y-103155501D01*
X160262580Y-103135104D01*
X160262582Y-103135104D01*
X160270048Y-103133102D01*
X160282982Y-103129638D01*
X160369519Y-103079676D01*
X160440176Y-103009019D01*
X160450543Y-102998652D01*
X160450550Y-102998642D01*
X161732789Y-101716404D01*
X161795101Y-101682378D01*
X161821884Y-101679499D01*
X162498247Y-101679499D01*
X162498254Y-101679499D01*
X162558342Y-101673040D01*
X162694267Y-101622342D01*
X162810404Y-101535404D01*
X162897342Y-101419267D01*
X162897342Y-101419264D01*
X162899131Y-101416876D01*
X162955966Y-101374329D01*
X163026782Y-101369263D01*
X163089095Y-101403288D01*
X163100869Y-101416876D01*
X163102657Y-101419264D01*
X163102658Y-101419267D01*
X163189596Y-101535404D01*
X163305733Y-101622342D01*
X163441658Y-101673040D01*
X163501745Y-101679500D01*
X164498254Y-101679499D01*
X164558342Y-101673040D01*
X164694267Y-101622342D01*
X164810404Y-101535404D01*
X164897342Y-101419267D01*
X164948040Y-101283342D01*
X164954500Y-101223255D01*
X164954499Y-100893706D01*
X164974501Y-100825587D01*
X164991399Y-100804617D01*
X165382799Y-100413217D01*
X165445109Y-100379193D01*
X165515924Y-100384258D01*
X165572760Y-100426805D01*
X165597571Y-100493325D01*
X165582480Y-100562699D01*
X165571857Y-100579014D01*
X165563540Y-100589853D01*
X165563539Y-100589854D01*
X165438748Y-100805999D01*
X165438743Y-100806010D01*
X165343228Y-101036602D01*
X165343226Y-101036606D01*
X165278627Y-101277694D01*
X165246051Y-101525138D01*
X165246051Y-101622936D01*
X166000038Y-101622936D01*
X166000038Y-101876936D01*
X165246051Y-101876936D01*
X165246051Y-101974733D01*
X165278627Y-102222177D01*
X165343226Y-102463265D01*
X165343228Y-102463269D01*
X165438743Y-102693861D01*
X165438748Y-102693872D01*
X165563536Y-102910012D01*
X165715478Y-103108025D01*
X165715491Y-103108039D01*
X165891947Y-103284495D01*
X165891961Y-103284508D01*
X166089974Y-103436450D01*
X166306114Y-103561238D01*
X166306125Y-103561243D01*
X166536717Y-103656758D01*
X166536721Y-103656760D01*
X166777809Y-103721359D01*
X167023050Y-103753645D01*
X167023051Y-103753644D01*
X167023051Y-102993229D01*
X167059543Y-102999009D01*
X167240559Y-102999009D01*
X167277051Y-102993229D01*
X167277051Y-103753645D01*
X167522292Y-103721359D01*
X167763380Y-103656760D01*
X167763384Y-103656758D01*
X167993976Y-103561243D01*
X167993987Y-103561238D01*
X168210127Y-103436450D01*
X168408140Y-103284508D01*
X168408154Y-103284495D01*
X168584610Y-103108039D01*
X168584623Y-103108025D01*
X168736565Y-102910012D01*
X168861353Y-102693872D01*
X168861358Y-102693861D01*
X168956873Y-102463269D01*
X168956875Y-102463265D01*
X169021474Y-102222177D01*
X169054050Y-101974733D01*
X169054051Y-101974724D01*
X169054051Y-101876936D01*
X168300064Y-101876936D01*
X168300064Y-101622936D01*
X169054051Y-101622936D01*
X169054051Y-101525148D01*
X169054050Y-101525138D01*
X176445949Y-101525138D01*
X176445949Y-101622936D01*
X177199936Y-101622936D01*
X177199936Y-101876936D01*
X176445949Y-101876936D01*
X176445949Y-101974733D01*
X176478525Y-102222177D01*
X176543124Y-102463265D01*
X176543126Y-102463269D01*
X176638641Y-102693861D01*
X176638646Y-102693872D01*
X176763434Y-102910012D01*
X176915376Y-103108025D01*
X176915389Y-103108039D01*
X177091845Y-103284495D01*
X177091859Y-103284508D01*
X177289872Y-103436450D01*
X177506012Y-103561238D01*
X177506023Y-103561243D01*
X177736615Y-103656758D01*
X177736619Y-103656760D01*
X177977707Y-103721359D01*
X178222948Y-103753645D01*
X178222949Y-103753644D01*
X178222949Y-102993229D01*
X178259441Y-102999009D01*
X178440457Y-102999009D01*
X178476949Y-102993229D01*
X178476949Y-103753645D01*
X178722190Y-103721359D01*
X178963278Y-103656760D01*
X178963282Y-103656758D01*
X179193874Y-103561243D01*
X179193885Y-103561238D01*
X179410025Y-103436450D01*
X179608038Y-103284508D01*
X179608052Y-103284495D01*
X179784508Y-103108039D01*
X179784521Y-103108025D01*
X179936463Y-102910012D01*
X180061251Y-102693872D01*
X180061256Y-102693861D01*
X180156771Y-102463269D01*
X180156773Y-102463265D01*
X180221372Y-102222178D01*
X180221372Y-102222177D01*
X180253948Y-101974733D01*
X180253949Y-101974724D01*
X180253949Y-101876936D01*
X179499962Y-101876936D01*
X179499962Y-101622936D01*
X180253949Y-101622936D01*
X180253949Y-101525148D01*
X180253948Y-101525138D01*
X180231498Y-101354608D01*
X180229985Y-101343116D01*
X181896000Y-101343116D01*
X181896000Y-101516883D01*
X181923185Y-101688524D01*
X181976883Y-101853788D01*
X181976884Y-101853790D01*
X182055776Y-102008625D01*
X182134042Y-102116349D01*
X182134043Y-102116349D01*
X182568234Y-101682158D01*
X182599901Y-101737007D01*
X182692993Y-101830099D01*
X182747840Y-101861765D01*
X182313649Y-102295955D01*
X182313649Y-102295956D01*
X182421374Y-102374223D01*
X182576209Y-102453115D01*
X182576211Y-102453116D01*
X182741475Y-102506814D01*
X182913116Y-102534000D01*
X183086884Y-102534000D01*
X183258524Y-102506814D01*
X183423788Y-102453116D01*
X183423790Y-102453115D01*
X183578621Y-102374225D01*
X183686349Y-102295955D01*
X183686349Y-102295954D01*
X183252159Y-101861764D01*
X183307007Y-101830099D01*
X183400099Y-101737007D01*
X183431764Y-101682159D01*
X183865954Y-102116349D01*
X183865955Y-102116349D01*
X183944225Y-102008621D01*
X184023115Y-101853790D01*
X184023116Y-101853788D01*
X184076814Y-101688524D01*
X184104000Y-101516883D01*
X184104000Y-101343116D01*
X184076814Y-101171475D01*
X184023116Y-101006211D01*
X184023115Y-101006209D01*
X183944223Y-100851374D01*
X183865955Y-100743649D01*
X183431764Y-101177839D01*
X183400099Y-101122993D01*
X183307007Y-101029901D01*
X183252158Y-100998234D01*
X183686349Y-100564043D01*
X183686349Y-100564042D01*
X183578625Y-100485776D01*
X183423790Y-100406884D01*
X183423788Y-100406883D01*
X183258524Y-100353185D01*
X183086884Y-100326000D01*
X182913116Y-100326000D01*
X182741475Y-100353185D01*
X182576211Y-100406883D01*
X182576209Y-100406884D01*
X182421379Y-100485773D01*
X182421379Y-100485774D01*
X182313649Y-100564042D01*
X182313649Y-100564044D01*
X182747840Y-100998235D01*
X182692993Y-101029901D01*
X182599901Y-101122993D01*
X182568235Y-101177840D01*
X182134044Y-100743649D01*
X182134042Y-100743649D01*
X182055774Y-100851379D01*
X182055773Y-100851379D01*
X181976884Y-101006209D01*
X181976883Y-101006211D01*
X181923185Y-101171475D01*
X181896000Y-101343116D01*
X180229985Y-101343116D01*
X180221372Y-101277694D01*
X180156773Y-101036606D01*
X180156771Y-101036602D01*
X180061256Y-100806010D01*
X180061251Y-100805999D01*
X179985657Y-100675065D01*
X179936463Y-100589859D01*
X179784521Y-100391846D01*
X179784508Y-100391832D01*
X179608052Y-100215376D01*
X179608038Y-100215363D01*
X179410025Y-100063421D01*
X179193885Y-99938633D01*
X179193874Y-99938628D01*
X178963282Y-99843113D01*
X178963278Y-99843111D01*
X178722190Y-99778512D01*
X178476949Y-99746225D01*
X178476949Y-100506642D01*
X178440457Y-100500863D01*
X178259441Y-100500863D01*
X178222949Y-100506642D01*
X178222949Y-99746226D01*
X178222948Y-99746225D01*
X177977707Y-99778512D01*
X177736619Y-99843111D01*
X177736615Y-99843113D01*
X177506023Y-99938628D01*
X177506012Y-99938633D01*
X177289872Y-100063421D01*
X177091859Y-100215363D01*
X177091845Y-100215376D01*
X176915389Y-100391832D01*
X176915376Y-100391846D01*
X176763434Y-100589859D01*
X176638646Y-100805999D01*
X176638641Y-100806010D01*
X176543126Y-101036602D01*
X176543124Y-101036606D01*
X176478525Y-101277694D01*
X176445949Y-101525138D01*
X169054050Y-101525138D01*
X169021474Y-101277694D01*
X168956875Y-101036606D01*
X168956873Y-101036602D01*
X168861358Y-100806010D01*
X168861353Y-100805999D01*
X168736565Y-100589859D01*
X168584623Y-100391846D01*
X168584610Y-100391832D01*
X168408154Y-100215376D01*
X168408140Y-100215363D01*
X168210127Y-100063421D01*
X167993987Y-99938633D01*
X167993976Y-99938628D01*
X167763384Y-99843113D01*
X167763380Y-99843111D01*
X167522292Y-99778512D01*
X167277051Y-99746225D01*
X167277051Y-100506642D01*
X167240559Y-100500863D01*
X167059543Y-100500863D01*
X167023051Y-100506642D01*
X167023051Y-99746226D01*
X167023050Y-99746225D01*
X166777809Y-99778512D01*
X166536721Y-99843111D01*
X166536717Y-99843113D01*
X166306125Y-99938628D01*
X166306114Y-99938633D01*
X166089969Y-100063424D01*
X166089968Y-100063425D01*
X166079129Y-100071742D01*
X166012908Y-100097340D01*
X165943360Y-100083073D01*
X165892566Y-100033470D01*
X165876652Y-99964280D01*
X165900672Y-99897470D01*
X165913327Y-99882689D01*
X167781087Y-98014930D01*
X181895500Y-98014930D01*
X181895500Y-99765063D01*
X181895501Y-99765073D01*
X181910265Y-99839300D01*
X181966516Y-99923484D01*
X182050697Y-99979733D01*
X182050699Y-99979734D01*
X182124933Y-99994500D01*
X183875066Y-99994499D01*
X183875069Y-99994498D01*
X183875073Y-99994498D01*
X183924326Y-99984701D01*
X183949301Y-99979734D01*
X184033484Y-99923484D01*
X184089734Y-99839301D01*
X184104500Y-99765067D01*
X184104499Y-98014934D01*
X184104498Y-98014930D01*
X184104498Y-98014926D01*
X184089734Y-97940699D01*
X184075668Y-97919648D01*
X184033484Y-97856516D01*
X184033483Y-97856515D01*
X183949302Y-97800266D01*
X183875067Y-97785500D01*
X182124936Y-97785500D01*
X182124926Y-97785501D01*
X182050699Y-97800265D01*
X181966515Y-97856516D01*
X181910266Y-97940697D01*
X181895500Y-98014930D01*
X167781087Y-98014930D01*
X171953613Y-93842405D01*
X172015925Y-93808379D01*
X172042708Y-93805500D01*
X178224034Y-93805500D01*
X178224038Y-93805501D01*
X178323962Y-93805501D01*
X178400084Y-93785103D01*
X178420482Y-93779638D01*
X178507019Y-93729676D01*
X178577676Y-93659019D01*
X178588043Y-93648652D01*
X178588050Y-93648642D01*
X178849958Y-93386734D01*
X178912268Y-93352710D01*
X178963636Y-93352253D01*
X178965934Y-93352710D01*
X178974933Y-93354500D01*
X179925066Y-93354499D01*
X179925069Y-93354498D01*
X179925073Y-93354498D01*
X179974326Y-93344701D01*
X179999301Y-93339734D01*
X180083484Y-93283484D01*
X180139734Y-93199301D01*
X180154500Y-93125067D01*
X180154500Y-92895398D01*
X181670900Y-92895398D01*
X181670900Y-93104602D01*
X181699232Y-93283483D01*
X181703628Y-93311237D01*
X181768273Y-93510193D01*
X181768274Y-93510196D01*
X181768275Y-93510197D01*
X181796922Y-93566419D01*
X181863253Y-93696602D01*
X181986219Y-93865852D01*
X182134147Y-94013780D01*
X182233092Y-94085667D01*
X182303400Y-94136748D01*
X182489803Y-94231725D01*
X182688768Y-94296373D01*
X182895398Y-94329100D01*
X182895401Y-94329100D01*
X183104599Y-94329100D01*
X183104602Y-94329100D01*
X183311232Y-94296373D01*
X183510197Y-94231725D01*
X183696600Y-94136748D01*
X183865851Y-94013781D01*
X184013781Y-93865851D01*
X184136748Y-93696600D01*
X184231725Y-93510197D01*
X184296373Y-93311232D01*
X184329100Y-93104602D01*
X184329100Y-92895398D01*
X184296373Y-92688768D01*
X184231725Y-92489803D01*
X184136748Y-92303400D01*
X184043444Y-92174977D01*
X184013780Y-92134147D01*
X183865852Y-91986219D01*
X183696602Y-91863253D01*
X183510193Y-91768273D01*
X183311237Y-91703628D01*
X183311233Y-91703627D01*
X183311232Y-91703627D01*
X183104602Y-91670900D01*
X182895398Y-91670900D01*
X182688768Y-91703627D01*
X182688762Y-91703628D01*
X182489806Y-91768273D01*
X182303397Y-91863253D01*
X182134147Y-91986219D01*
X181986219Y-92134147D01*
X181863253Y-92303397D01*
X181768273Y-92489806D01*
X181703628Y-92688762D01*
X181703627Y-92688767D01*
X181703627Y-92688768D01*
X181670900Y-92895398D01*
X180154500Y-92895398D01*
X180154499Y-92231814D01*
X180154499Y-91374936D01*
X180154498Y-91374926D01*
X180139734Y-91300699D01*
X180083483Y-91216515D01*
X179999302Y-91160266D01*
X179925067Y-91145500D01*
X178974936Y-91145500D01*
X178974926Y-91145501D01*
X178900699Y-91160265D01*
X178816515Y-91216516D01*
X178760266Y-91300697D01*
X178745500Y-91374930D01*
X178745500Y-92365614D01*
X178725498Y-92433735D01*
X178708596Y-92454709D01*
X178153711Y-93009595D01*
X178091398Y-93043620D01*
X178064615Y-93046500D01*
X176880500Y-93046500D01*
X176812379Y-93026498D01*
X176765886Y-92972842D01*
X176754500Y-92920500D01*
X176754499Y-91374936D01*
X176754498Y-91374926D01*
X176739734Y-91300699D01*
X176683483Y-91216515D01*
X176599302Y-91160266D01*
X176525067Y-91145500D01*
X175574936Y-91145500D01*
X175574926Y-91145501D01*
X175500699Y-91160265D01*
X175416515Y-91216516D01*
X175360266Y-91300697D01*
X175345500Y-91374930D01*
X175345500Y-91744500D01*
X175325498Y-91812621D01*
X175271842Y-91859114D01*
X175219500Y-91870500D01*
X172429210Y-91870500D01*
X172429194Y-91870499D01*
X172421476Y-91870499D01*
X172321552Y-91870499D01*
X172289380Y-91879119D01*
X172245430Y-91890895D01*
X172245429Y-91890896D01*
X172225032Y-91896362D01*
X172225031Y-91896362D01*
X172225029Y-91896363D01*
X172225028Y-91896363D01*
X172138498Y-91946321D01*
X172138493Y-91946325D01*
X172103166Y-91981653D01*
X172067838Y-92016981D01*
X165169594Y-98915225D01*
X165107282Y-98949251D01*
X165036467Y-98944186D01*
X164979631Y-98901639D01*
X164954820Y-98835119D01*
X164954499Y-98826130D01*
X164954499Y-98776753D01*
X164954499Y-98776746D01*
X164948040Y-98716658D01*
X164897342Y-98580733D01*
X164810404Y-98464596D01*
X164694267Y-98377658D01*
X164694265Y-98377657D01*
X164694266Y-98377657D01*
X164558349Y-98326962D01*
X164558344Y-98326960D01*
X164558342Y-98326960D01*
X164550831Y-98326152D01*
X164498262Y-98320500D01*
X164498255Y-98320500D01*
X163891818Y-98320500D01*
X163823697Y-98300498D01*
X163802723Y-98283595D01*
X162841404Y-97322276D01*
X162807378Y-97259964D01*
X162804499Y-97233181D01*
X162804499Y-96726753D01*
X162804499Y-96726746D01*
X162798040Y-96666658D01*
X162747342Y-96530733D01*
X162660404Y-96414596D01*
X162649732Y-96406607D01*
X162608991Y-96376108D01*
X162566444Y-96319272D01*
X162558500Y-96275240D01*
X162558500Y-95724758D01*
X162578502Y-95656637D01*
X162608989Y-95623891D01*
X162660404Y-95585404D01*
X162747342Y-95469267D01*
X162798040Y-95333342D01*
X162804500Y-95273255D01*
X162804499Y-94226746D01*
X162798040Y-94166658D01*
X162747342Y-94030733D01*
X162747340Y-94030731D01*
X162745437Y-94025627D01*
X162740371Y-93954812D01*
X162774396Y-93892499D01*
X162830880Y-93859888D01*
X162847254Y-93855501D01*
X162934247Y-93805276D01*
X163005276Y-93734247D01*
X163481165Y-93258356D01*
X163543476Y-93224333D01*
X163583553Y-93224695D01*
X163583822Y-93222197D01*
X163591655Y-93223039D01*
X163591658Y-93223040D01*
X163651745Y-93229500D01*
X164248254Y-93229499D01*
X164308342Y-93223040D01*
X164444267Y-93172342D01*
X164560404Y-93085404D01*
X164647342Y-92969267D01*
X164698040Y-92833342D01*
X164704500Y-92773255D01*
X164704500Y-92755500D01*
X164724502Y-92687379D01*
X164778158Y-92640886D01*
X164830500Y-92629500D01*
X165169501Y-92629500D01*
X165237622Y-92649502D01*
X165284115Y-92703158D01*
X165295501Y-92755500D01*
X165295501Y-93125072D01*
X165310265Y-93199300D01*
X165366516Y-93283484D01*
X165450697Y-93339733D01*
X165450699Y-93339734D01*
X165524933Y-93354500D01*
X166475066Y-93354499D01*
X166475069Y-93354498D01*
X166475073Y-93354498D01*
X166524326Y-93344701D01*
X166549301Y-93339734D01*
X166633484Y-93283484D01*
X166689734Y-93199301D01*
X166704500Y-93125067D01*
X166704499Y-91374934D01*
X166704498Y-91374930D01*
X166704498Y-91374926D01*
X166689734Y-91300699D01*
X166633483Y-91216515D01*
X166549302Y-91160266D01*
X166475067Y-91145500D01*
X165524936Y-91145500D01*
X165524926Y-91145501D01*
X165450699Y-91160265D01*
X165366515Y-91216516D01*
X165310266Y-91300697D01*
X165295500Y-91374930D01*
X165295500Y-91744500D01*
X165275498Y-91812621D01*
X165221842Y-91859114D01*
X165169500Y-91870500D01*
X164830499Y-91870500D01*
X164762378Y-91850498D01*
X164715885Y-91796842D01*
X164704499Y-91744500D01*
X164704499Y-91726753D01*
X164704499Y-91726746D01*
X164698040Y-91666658D01*
X164647342Y-91530733D01*
X164560404Y-91414596D01*
X164444267Y-91327658D01*
X164444265Y-91327657D01*
X164444266Y-91327657D01*
X164308349Y-91276962D01*
X164308344Y-91276960D01*
X164308342Y-91276960D01*
X164278298Y-91273730D01*
X164248256Y-91270500D01*
X163651753Y-91270500D01*
X163651729Y-91270502D01*
X163591660Y-91276959D01*
X163591658Y-91276959D01*
X163455733Y-91327657D01*
X163339596Y-91414596D01*
X163252657Y-91530734D01*
X163201962Y-91666650D01*
X163201960Y-91666658D01*
X163195500Y-91726737D01*
X163195500Y-92412785D01*
X163175498Y-92480906D01*
X163158596Y-92501880D01*
X162578882Y-93081595D01*
X162551513Y-93096539D01*
X162525284Y-93113396D01*
X162518982Y-93114302D01*
X162516569Y-93115620D01*
X162489786Y-93118500D01*
X162381473Y-93118500D01*
X162317357Y-93099674D01*
X162316922Y-93100429D01*
X162313810Y-93098632D01*
X162313352Y-93098498D01*
X162312317Y-93097770D01*
X162194730Y-93029881D01*
X162066419Y-92995500D01*
X161933581Y-92995500D01*
X161848040Y-93018420D01*
X161805269Y-93029881D01*
X161690233Y-93096297D01*
X161690223Y-93096305D01*
X161596305Y-93190223D01*
X161596297Y-93190233D01*
X161529881Y-93305269D01*
X161520646Y-93339734D01*
X161498220Y-93423432D01*
X161495500Y-93433582D01*
X161495500Y-93566417D01*
X161495499Y-93566417D01*
X161509342Y-93618079D01*
X161529881Y-93694730D01*
X161530802Y-93696325D01*
X161535353Y-93704207D01*
X161552090Y-93773202D01*
X161528869Y-93840294D01*
X161501742Y-93868074D01*
X161439596Y-93914595D01*
X161352657Y-94030734D01*
X161301962Y-94166650D01*
X161301960Y-94166658D01*
X161295500Y-94226737D01*
X161295500Y-95273246D01*
X161295502Y-95273270D01*
X161301959Y-95333339D01*
X161301959Y-95333341D01*
X161352657Y-95469266D01*
X161364679Y-95485325D01*
X161439596Y-95585404D01*
X161491008Y-95623890D01*
X161533555Y-95680723D01*
X161541500Y-95724758D01*
X161541500Y-96275240D01*
X161521498Y-96343361D01*
X161491009Y-96376108D01*
X161439596Y-96414595D01*
X161352657Y-96530734D01*
X161301962Y-96666650D01*
X161301960Y-96666658D01*
X161295500Y-96726737D01*
X161295500Y-97322984D01*
X161275498Y-97391105D01*
X161258595Y-97412079D01*
X160096709Y-98573963D01*
X160096710Y-98573964D01*
X160029602Y-98641073D01*
X159652578Y-99018096D01*
X159590268Y-99052120D01*
X159563485Y-99055000D01*
X158130500Y-99055000D01*
X158062379Y-99034998D01*
X158015886Y-98981342D01*
X158004500Y-98929000D01*
X158004499Y-97544936D01*
X158004499Y-97544934D01*
X157998823Y-97516397D01*
X158005151Y-97445686D01*
X158048705Y-97389619D01*
X158069628Y-97377402D01*
X158079388Y-97372899D01*
X158103874Y-97366339D01*
X158230225Y-97293390D01*
X158333390Y-97190225D01*
X158333394Y-97190217D01*
X158338417Y-97183673D01*
X158339611Y-97184589D01*
X158358651Y-97168090D01*
X158382262Y-97145578D01*
X158385311Y-97144990D01*
X158387658Y-97142957D01*
X158419945Y-97138314D01*
X158451976Y-97132141D01*
X158454858Y-97133294D01*
X158457932Y-97132853D01*
X158487595Y-97146400D01*
X158517887Y-97158527D01*
X158519689Y-97161057D01*
X158522512Y-97162347D01*
X158540138Y-97189774D01*
X158559070Y-97216359D01*
X158559724Y-97220249D01*
X158560896Y-97222073D01*
X158565232Y-97252233D01*
X158565999Y-97253000D01*
X159020000Y-97253000D01*
X159020000Y-97507000D01*
X158566000Y-97507000D01*
X158566000Y-98004264D01*
X158594976Y-98149934D01*
X158594978Y-98149939D01*
X158651814Y-98287152D01*
X158734327Y-98410642D01*
X158734332Y-98410649D01*
X158839350Y-98515667D01*
X158839357Y-98515672D01*
X158962847Y-98598185D01*
X159100067Y-98655024D01*
X159100070Y-98655025D01*
X159192999Y-98673509D01*
X159193000Y-98673509D01*
X159193000Y-98203087D01*
X159204204Y-98209556D01*
X159280504Y-98230000D01*
X159359496Y-98230000D01*
X159435796Y-98209556D01*
X159447000Y-98203087D01*
X159447000Y-98673509D01*
X159539929Y-98655025D01*
X159539932Y-98655024D01*
X159677152Y-98598185D01*
X159794548Y-98519744D01*
X159909743Y-98404548D01*
X159988185Y-98287152D01*
X160045021Y-98149939D01*
X160045023Y-98149934D01*
X160073999Y-98004264D01*
X160074000Y-98004260D01*
X160074000Y-97507000D01*
X159620000Y-97507000D01*
X159620000Y-97253000D01*
X160074000Y-97253000D01*
X160074000Y-96755739D01*
X160073999Y-96755735D01*
X160045023Y-96610065D01*
X160045021Y-96610060D01*
X159988185Y-96472847D01*
X159905672Y-96349357D01*
X159905667Y-96349350D01*
X159800649Y-96244332D01*
X159800642Y-96244327D01*
X159677152Y-96161814D01*
X159539937Y-96104977D01*
X159539934Y-96104976D01*
X159447000Y-96086490D01*
X159447000Y-96556912D01*
X159435796Y-96550444D01*
X159359496Y-96530000D01*
X159280504Y-96530000D01*
X159204204Y-96550444D01*
X159193000Y-96556912D01*
X159193000Y-96086490D01*
X159100065Y-96104976D01*
X159100062Y-96104977D01*
X158962847Y-96161814D01*
X158839357Y-96244327D01*
X158839350Y-96244332D01*
X158734332Y-96349350D01*
X158734327Y-96349357D01*
X158651813Y-96472847D01*
X158651811Y-96472852D01*
X158607665Y-96579428D01*
X158563117Y-96634709D01*
X158495753Y-96657129D01*
X158426962Y-96639570D01*
X158382138Y-96594209D01*
X158333392Y-96509778D01*
X158333391Y-96509776D01*
X158333390Y-96509775D01*
X158333388Y-96509773D01*
X158333384Y-96509768D01*
X158230231Y-96406615D01*
X158230221Y-96406607D01*
X158103878Y-96333663D01*
X158103875Y-96333662D01*
X158103874Y-96333661D01*
X158103872Y-96333660D01*
X158103871Y-96333660D01*
X158050174Y-96319272D01*
X157962949Y-96295900D01*
X157817051Y-96295900D01*
X157741531Y-96316135D01*
X157676128Y-96333660D01*
X157676121Y-96333663D01*
X157549778Y-96406607D01*
X157549768Y-96406615D01*
X157446615Y-96509768D01*
X157446609Y-96509775D01*
X157411130Y-96571228D01*
X157359747Y-96620221D01*
X157290033Y-96633656D01*
X157224122Y-96607269D01*
X157212916Y-96597322D01*
X156286576Y-95670982D01*
X156266552Y-95644887D01*
X156256090Y-95626766D01*
X156256089Y-95626764D01*
X156256086Y-95626761D01*
X156256082Y-95626756D01*
X156173242Y-95543916D01*
X156173232Y-95543908D01*
X156071768Y-95485328D01*
X156071765Y-95485327D01*
X156071764Y-95485326D01*
X156071762Y-95485325D01*
X156071761Y-95485325D01*
X156041434Y-95477199D01*
X155958585Y-95455000D01*
X154172317Y-95455000D01*
X154055145Y-95455000D01*
X153941968Y-95485325D01*
X153941966Y-95485326D01*
X153941963Y-95485327D01*
X153840498Y-95543908D01*
X153840488Y-95543916D01*
X152787083Y-96597321D01*
X152724771Y-96631347D01*
X152653955Y-96626282D01*
X152597120Y-96583735D01*
X152588869Y-96571226D01*
X152553392Y-96509778D01*
X152553391Y-96509776D01*
X152553390Y-96509775D01*
X152553388Y-96509773D01*
X152553384Y-96509768D01*
X152450231Y-96406615D01*
X152450221Y-96406607D01*
X152323878Y-96333663D01*
X152323875Y-96333662D01*
X152323874Y-96333661D01*
X152323872Y-96333660D01*
X152323871Y-96333660D01*
X152270174Y-96319272D01*
X152182949Y-96295900D01*
X152037051Y-96295900D01*
X151961531Y-96316135D01*
X151896128Y-96333660D01*
X151896121Y-96333663D01*
X151769778Y-96406607D01*
X151769768Y-96406615D01*
X151666615Y-96509768D01*
X151666609Y-96509776D01*
X151617861Y-96594210D01*
X151566478Y-96643203D01*
X151496764Y-96656638D01*
X151430853Y-96630251D01*
X151392333Y-96579427D01*
X151348185Y-96472847D01*
X151265672Y-96349357D01*
X151265667Y-96349350D01*
X151160649Y-96244332D01*
X151160642Y-96244327D01*
X151037152Y-96161814D01*
X150899937Y-96104977D01*
X150899934Y-96104976D01*
X150807000Y-96086490D01*
X150807000Y-96556912D01*
X150795796Y-96550444D01*
X150719496Y-96530000D01*
X150640504Y-96530000D01*
X150564204Y-96550444D01*
X150553000Y-96556912D01*
X150553000Y-96086490D01*
X150460065Y-96104976D01*
X150460062Y-96104977D01*
X150322847Y-96161814D01*
X150199357Y-96244327D01*
X150199350Y-96244332D01*
X150094332Y-96349350D01*
X150094327Y-96349357D01*
X150011813Y-96472847D01*
X150011813Y-96472848D01*
X149980797Y-96547725D01*
X149936248Y-96603005D01*
X149868884Y-96625425D01*
X149800093Y-96607866D01*
X149775294Y-96588600D01*
X147291405Y-94104711D01*
X147257379Y-94042399D01*
X147254500Y-94015616D01*
X147254500Y-93479140D01*
X147254499Y-93479128D01*
X147248360Y-93422027D01*
X147200175Y-93292837D01*
X147200174Y-93292835D01*
X147200172Y-93292832D01*
X147132636Y-93202617D01*
X147117544Y-93182456D01*
X147040885Y-93125069D01*
X147007167Y-93099827D01*
X147007166Y-93099826D01*
X146958286Y-93081595D01*
X146877973Y-93051640D01*
X146870834Y-93050872D01*
X146820871Y-93045500D01*
X146820864Y-93045500D01*
X146284384Y-93045500D01*
X146254468Y-93036716D01*
X146223999Y-93030088D01*
X146218903Y-93026273D01*
X146216263Y-93025498D01*
X146195289Y-93008595D01*
X146012429Y-92825735D01*
X149926000Y-92825735D01*
X149926000Y-93073000D01*
X150380000Y-93073000D01*
X150380000Y-93327000D01*
X149926000Y-93327000D01*
X149926000Y-93574264D01*
X149954976Y-93719934D01*
X149954978Y-93719939D01*
X150011814Y-93857152D01*
X150094327Y-93980642D01*
X150094332Y-93980649D01*
X150199350Y-94085667D01*
X150199357Y-94085672D01*
X150322847Y-94168185D01*
X150460067Y-94225024D01*
X150460070Y-94225025D01*
X150552999Y-94243509D01*
X150553000Y-94243509D01*
X150553000Y-93773087D01*
X150564204Y-93779556D01*
X150640504Y-93800000D01*
X150719496Y-93800000D01*
X150795796Y-93779556D01*
X150807000Y-93773087D01*
X150807000Y-94243509D01*
X150899929Y-94225025D01*
X150899932Y-94225024D01*
X151037152Y-94168185D01*
X151160642Y-94085672D01*
X151160649Y-94085667D01*
X151265667Y-93980649D01*
X151265672Y-93980642D01*
X151348185Y-93857152D01*
X151405021Y-93719939D01*
X151405023Y-93719934D01*
X151433999Y-93574264D01*
X151434000Y-93574260D01*
X151434000Y-93327000D01*
X150980000Y-93327000D01*
X150980000Y-93073000D01*
X151434000Y-93073000D01*
X151434000Y-92825739D01*
X151433999Y-92825735D01*
X158566000Y-92825735D01*
X158566000Y-93073000D01*
X159020000Y-93073000D01*
X159020000Y-93327000D01*
X158566000Y-93327000D01*
X158566000Y-93574264D01*
X158594976Y-93719934D01*
X158594978Y-93719939D01*
X158651814Y-93857152D01*
X158734327Y-93980642D01*
X158734332Y-93980649D01*
X158839350Y-94085667D01*
X158839357Y-94085672D01*
X158962847Y-94168185D01*
X159100067Y-94225024D01*
X159100070Y-94225025D01*
X159192999Y-94243509D01*
X159193000Y-94243509D01*
X159193000Y-93773087D01*
X159204204Y-93779556D01*
X159280504Y-93800000D01*
X159359496Y-93800000D01*
X159435796Y-93779556D01*
X159447000Y-93773087D01*
X159447000Y-94243509D01*
X159539929Y-94225025D01*
X159539932Y-94225024D01*
X159677152Y-94168185D01*
X159800642Y-94085672D01*
X159800649Y-94085667D01*
X159905667Y-93980649D01*
X159905672Y-93980642D01*
X159988185Y-93857152D01*
X160045021Y-93719939D01*
X160045023Y-93719934D01*
X160073999Y-93574264D01*
X160074000Y-93574260D01*
X160074000Y-93327000D01*
X159620000Y-93327000D01*
X159620000Y-93073000D01*
X160074000Y-93073000D01*
X160074000Y-92825739D01*
X160073999Y-92825735D01*
X160045023Y-92680065D01*
X160045021Y-92680060D01*
X159988185Y-92542847D01*
X159905672Y-92419357D01*
X159905667Y-92419350D01*
X159800649Y-92314332D01*
X159800642Y-92314327D01*
X159677152Y-92231814D01*
X159539937Y-92174977D01*
X159539934Y-92174976D01*
X159447000Y-92156490D01*
X159447000Y-92626912D01*
X159435796Y-92620444D01*
X159359496Y-92600000D01*
X159280504Y-92600000D01*
X159204204Y-92620444D01*
X159193000Y-92626912D01*
X159193000Y-92156490D01*
X159100065Y-92174976D01*
X159100062Y-92174977D01*
X158962847Y-92231814D01*
X158839357Y-92314327D01*
X158839350Y-92314332D01*
X158734332Y-92419350D01*
X158734327Y-92419357D01*
X158651814Y-92542847D01*
X158594978Y-92680060D01*
X158594976Y-92680065D01*
X158566000Y-92825735D01*
X151433999Y-92825735D01*
X151405023Y-92680065D01*
X151405021Y-92680060D01*
X151348185Y-92542847D01*
X151265672Y-92419357D01*
X151265667Y-92419350D01*
X151160649Y-92314332D01*
X151160642Y-92314327D01*
X151037152Y-92231814D01*
X150899937Y-92174977D01*
X150899934Y-92174976D01*
X150807000Y-92156490D01*
X150807000Y-92626912D01*
X150795796Y-92620444D01*
X150719496Y-92600000D01*
X150640504Y-92600000D01*
X150564204Y-92620444D01*
X150553000Y-92626912D01*
X150553000Y-92156490D01*
X150460065Y-92174976D01*
X150460062Y-92174977D01*
X150322847Y-92231814D01*
X150199357Y-92314327D01*
X150199350Y-92314332D01*
X150094332Y-92419350D01*
X150094327Y-92419357D01*
X150011814Y-92542847D01*
X149954978Y-92680060D01*
X149954976Y-92680065D01*
X149926000Y-92825735D01*
X146012429Y-92825735D01*
X145860864Y-92674170D01*
X145860852Y-92674156D01*
X145783025Y-92596329D01*
X145783015Y-92596321D01*
X145712316Y-92555504D01*
X145696482Y-92546362D01*
X145696481Y-92546361D01*
X145696480Y-92546361D01*
X145685121Y-92543317D01*
X145685116Y-92543316D01*
X145676084Y-92540896D01*
X145599962Y-92520499D01*
X145500038Y-92520499D01*
X145500034Y-92520500D01*
X131507696Y-92520500D01*
X131507680Y-92520499D01*
X131499962Y-92520499D01*
X131400038Y-92520499D01*
X131351778Y-92533430D01*
X131303517Y-92546361D01*
X131276743Y-92561819D01*
X131266944Y-92567477D01*
X131236366Y-92585131D01*
X131216984Y-92596322D01*
X131216977Y-92596327D01*
X131192861Y-92620444D01*
X131146324Y-92666981D01*
X130804710Y-93008595D01*
X130742398Y-93042621D01*
X130715615Y-93045500D01*
X130184384Y-93045500D01*
X130116263Y-93025498D01*
X130095289Y-93008595D01*
X129760864Y-92674170D01*
X129760852Y-92674156D01*
X129683025Y-92596329D01*
X129683015Y-92596321D01*
X129612316Y-92555504D01*
X129596482Y-92546362D01*
X129596481Y-92546361D01*
X129596480Y-92546361D01*
X129585121Y-92543317D01*
X129585116Y-92543316D01*
X129576084Y-92540896D01*
X129499962Y-92520499D01*
X129400038Y-92520499D01*
X129400034Y-92520500D01*
X115707696Y-92520500D01*
X115707680Y-92520499D01*
X115699962Y-92520499D01*
X115600038Y-92520499D01*
X115567866Y-92529119D01*
X115523916Y-92540895D01*
X115523915Y-92540896D01*
X115503518Y-92546362D01*
X115503517Y-92546362D01*
X115503515Y-92546363D01*
X115503514Y-92546363D01*
X115416984Y-92596321D01*
X115416979Y-92596325D01*
X115392861Y-92620444D01*
X115346324Y-92666981D01*
X114904710Y-93108595D01*
X114842398Y-93142621D01*
X114815615Y-93145500D01*
X114279128Y-93145500D01*
X114222027Y-93151640D01*
X114092833Y-93199826D01*
X114092832Y-93199827D01*
X113982456Y-93282456D01*
X113899827Y-93392832D01*
X113899826Y-93392833D01*
X113851640Y-93522027D01*
X113845500Y-93579128D01*
X113845500Y-94420871D01*
X113849141Y-94454729D01*
X113851640Y-94477973D01*
X113862529Y-94507167D01*
X113899826Y-94607166D01*
X113899827Y-94607167D01*
X113946967Y-94670137D01*
X113982456Y-94717544D01*
X114023620Y-94748359D01*
X114092832Y-94800172D01*
X114092833Y-94800173D01*
X114092835Y-94800173D01*
X114092837Y-94800175D01*
X114222027Y-94848360D01*
X114279136Y-94854500D01*
X114279141Y-94854500D01*
X114820859Y-94854500D01*
X114820864Y-94854500D01*
X114877973Y-94848360D01*
X115007163Y-94800175D01*
X115117544Y-94717544D01*
X115200175Y-94607163D01*
X115248360Y-94477973D01*
X115254500Y-94420864D01*
X115254500Y-93884384D01*
X115274502Y-93816263D01*
X115291405Y-93795289D01*
X115770289Y-93316405D01*
X115832601Y-93282379D01*
X115859384Y-93279500D01*
X126242394Y-93279500D01*
X126310515Y-93299502D01*
X126357008Y-93353158D01*
X126367112Y-93423432D01*
X126337618Y-93488012D01*
X126277892Y-93526396D01*
X126275040Y-93527197D01*
X126255301Y-93532485D01*
X126223916Y-93540895D01*
X126223915Y-93540896D01*
X126203518Y-93546362D01*
X126203517Y-93546362D01*
X126203515Y-93546363D01*
X126203514Y-93546363D01*
X126116984Y-93596321D01*
X126116979Y-93596325D01*
X126097509Y-93615796D01*
X126046324Y-93666981D01*
X126046322Y-93666983D01*
X121106257Y-98607047D01*
X121043945Y-98641073D01*
X120973130Y-98636008D01*
X120959966Y-98630222D01*
X120909947Y-98604736D01*
X120909944Y-98604735D01*
X120909942Y-98604734D01*
X120707183Y-98538854D01*
X120707181Y-98538853D01*
X120707179Y-98538853D01*
X120496601Y-98505500D01*
X120283399Y-98505500D01*
X120072821Y-98538853D01*
X120072819Y-98538853D01*
X120072816Y-98538854D01*
X119870057Y-98604734D01*
X119870051Y-98604737D01*
X119680083Y-98701530D01*
X119507600Y-98826847D01*
X119356847Y-98977600D01*
X119231530Y-99150083D01*
X119134737Y-99340051D01*
X119134734Y-99340057D01*
X119068854Y-99542816D01*
X119068853Y-99542819D01*
X119068853Y-99542821D01*
X119035500Y-99753399D01*
X119035500Y-99966601D01*
X119068090Y-100172362D01*
X119068854Y-100177183D01*
X119134596Y-100379518D01*
X119134736Y-100379947D01*
X119228538Y-100564044D01*
X119231530Y-100569916D01*
X119356847Y-100742399D01*
X119507600Y-100893152D01*
X119555706Y-100928103D01*
X119680087Y-101018472D01*
X119870053Y-101115264D01*
X120072821Y-101181147D01*
X120283399Y-101214500D01*
X120283402Y-101214500D01*
X120496598Y-101214500D01*
X120496601Y-101214500D01*
X120707179Y-101181147D01*
X120909947Y-101115264D01*
X121099913Y-101018472D01*
X121272397Y-100893154D01*
X121423154Y-100742397D01*
X121548472Y-100569913D01*
X121645264Y-100379947D01*
X121711147Y-100177179D01*
X121744500Y-99966601D01*
X121744500Y-99753399D01*
X121711147Y-99542821D01*
X121645264Y-99340053D01*
X121645260Y-99340045D01*
X121619780Y-99290037D01*
X121606676Y-99220260D01*
X121633377Y-99154476D01*
X121642943Y-99143749D01*
X126303004Y-94483688D01*
X126365314Y-94449664D01*
X126436129Y-94454729D01*
X126492965Y-94497276D01*
X126496249Y-94502387D01*
X126537776Y-94557859D01*
X126582456Y-94617544D01*
X126645781Y-94664949D01*
X126692832Y-94700172D01*
X126692833Y-94700173D01*
X126692835Y-94700173D01*
X126692837Y-94700175D01*
X126822027Y-94748360D01*
X126879136Y-94754500D01*
X126879141Y-94754500D01*
X127420859Y-94754500D01*
X127420864Y-94754500D01*
X127477973Y-94748360D01*
X127607163Y-94700175D01*
X127717544Y-94617544D01*
X127800175Y-94507163D01*
X127848360Y-94377973D01*
X127854500Y-94320864D01*
X127854500Y-93479136D01*
X127848360Y-93422027D01*
X127848359Y-93422025D01*
X127848031Y-93418970D01*
X127860636Y-93349101D01*
X127909014Y-93297139D01*
X127973309Y-93279500D01*
X129240616Y-93279500D01*
X129308737Y-93299502D01*
X129329711Y-93316405D01*
X129708595Y-93695289D01*
X129742621Y-93757601D01*
X129745500Y-93784384D01*
X129745500Y-94320871D01*
X129750872Y-94370834D01*
X129751640Y-94377973D01*
X129767640Y-94420871D01*
X129799826Y-94507166D01*
X129799827Y-94507167D01*
X129846967Y-94570137D01*
X129882456Y-94617544D01*
X129945781Y-94664949D01*
X129992832Y-94700172D01*
X129992833Y-94700173D01*
X129992835Y-94700173D01*
X129992837Y-94700175D01*
X130122027Y-94748360D01*
X130179136Y-94754500D01*
X130179141Y-94754500D01*
X130720859Y-94754500D01*
X130720864Y-94754500D01*
X130777973Y-94748360D01*
X130907163Y-94700175D01*
X131017544Y-94617544D01*
X131100175Y-94507163D01*
X131148360Y-94377973D01*
X131154500Y-94320864D01*
X131154500Y-93784384D01*
X131174502Y-93716263D01*
X131191405Y-93695289D01*
X131570289Y-93316405D01*
X131632601Y-93282379D01*
X131659384Y-93279500D01*
X142242394Y-93279500D01*
X142310515Y-93299502D01*
X142357008Y-93353158D01*
X142367112Y-93423432D01*
X142337618Y-93488012D01*
X142277892Y-93526396D01*
X142275040Y-93527197D01*
X142255301Y-93532485D01*
X142223916Y-93540895D01*
X142223915Y-93540896D01*
X142203518Y-93546362D01*
X142203517Y-93546362D01*
X142203515Y-93546363D01*
X142203514Y-93546363D01*
X142116984Y-93596321D01*
X142116979Y-93596325D01*
X142097509Y-93615796D01*
X142046324Y-93666981D01*
X142046322Y-93666983D01*
X137106257Y-98607047D01*
X137043945Y-98641073D01*
X136973130Y-98636008D01*
X136959966Y-98630222D01*
X136909947Y-98604736D01*
X136909944Y-98604735D01*
X136909942Y-98604734D01*
X136707183Y-98538854D01*
X136707181Y-98538853D01*
X136707179Y-98538853D01*
X136496601Y-98505500D01*
X136283399Y-98505500D01*
X136072821Y-98538853D01*
X136072819Y-98538853D01*
X136072816Y-98538854D01*
X135870057Y-98604734D01*
X135870051Y-98604737D01*
X135680083Y-98701530D01*
X135507600Y-98826847D01*
X135356847Y-98977600D01*
X135231530Y-99150083D01*
X135134737Y-99340051D01*
X135134734Y-99340057D01*
X135068854Y-99542816D01*
X135068853Y-99542819D01*
X135068853Y-99542821D01*
X135035500Y-99753399D01*
X135035500Y-99966601D01*
X135068090Y-100172362D01*
X135068854Y-100177183D01*
X135134596Y-100379518D01*
X135134736Y-100379947D01*
X135228538Y-100564044D01*
X135231530Y-100569916D01*
X135356847Y-100742399D01*
X135507600Y-100893152D01*
X135555706Y-100928103D01*
X135680087Y-101018472D01*
X135870053Y-101115264D01*
X136072821Y-101181147D01*
X136283399Y-101214500D01*
X136283402Y-101214500D01*
X136496598Y-101214500D01*
X136496601Y-101214500D01*
X136707179Y-101181147D01*
X136909947Y-101115264D01*
X137099913Y-101018472D01*
X137272397Y-100893154D01*
X137423154Y-100742397D01*
X137548472Y-100569913D01*
X137645264Y-100379947D01*
X137711147Y-100177179D01*
X137744500Y-99966601D01*
X137744500Y-99753399D01*
X137711147Y-99542821D01*
X137645264Y-99340053D01*
X137645260Y-99340045D01*
X137619780Y-99290037D01*
X137606676Y-99220260D01*
X137633377Y-99154476D01*
X137642943Y-99143749D01*
X142374182Y-94412511D01*
X142436492Y-94378487D01*
X142507307Y-94383552D01*
X142564143Y-94426099D01*
X142581328Y-94457571D01*
X142596137Y-94497276D01*
X142599826Y-94507166D01*
X142599827Y-94507167D01*
X142646967Y-94570137D01*
X142682456Y-94617544D01*
X142745781Y-94664949D01*
X142792832Y-94700172D01*
X142792833Y-94700173D01*
X142792835Y-94700173D01*
X142792837Y-94700175D01*
X142922027Y-94748360D01*
X142979136Y-94754500D01*
X142979141Y-94754500D01*
X143520859Y-94754500D01*
X143520864Y-94754500D01*
X143577973Y-94748360D01*
X143707163Y-94700175D01*
X143817544Y-94617544D01*
X143900175Y-94507163D01*
X143948360Y-94377973D01*
X143954500Y-94320864D01*
X143954500Y-93479136D01*
X143948360Y-93422027D01*
X143948359Y-93422025D01*
X143948031Y-93418970D01*
X143960636Y-93349101D01*
X144009014Y-93297139D01*
X144073309Y-93279500D01*
X145340616Y-93279500D01*
X145408737Y-93299502D01*
X145429711Y-93316405D01*
X145808595Y-93695289D01*
X145842621Y-93757601D01*
X145845500Y-93784384D01*
X145845500Y-94320871D01*
X145850872Y-94370834D01*
X145851640Y-94377973D01*
X145867640Y-94420871D01*
X145899826Y-94507166D01*
X145899827Y-94507167D01*
X145946967Y-94570137D01*
X145982456Y-94617544D01*
X146045781Y-94664949D01*
X146092832Y-94700172D01*
X146092833Y-94700173D01*
X146092835Y-94700173D01*
X146092837Y-94700175D01*
X146222027Y-94748360D01*
X146279136Y-94754500D01*
X146279141Y-94754500D01*
X146815616Y-94754500D01*
X146883737Y-94774502D01*
X146904711Y-94791405D01*
X149283595Y-97170289D01*
X149317621Y-97232601D01*
X149320500Y-97259384D01*
X149320500Y-99308001D01*
X149300498Y-99376122D01*
X149246842Y-99422615D01*
X149176568Y-99432719D01*
X149118567Y-99406229D01*
X149117619Y-99407497D01*
X149069887Y-99371766D01*
X148994267Y-99315158D01*
X148994265Y-99315157D01*
X148994266Y-99315157D01*
X148858349Y-99264462D01*
X148858344Y-99264460D01*
X148858342Y-99264460D01*
X148814384Y-99259734D01*
X148798256Y-99258000D01*
X147801753Y-99258000D01*
X147801729Y-99258002D01*
X147741660Y-99264459D01*
X147741658Y-99264459D01*
X147605733Y-99315157D01*
X147489596Y-99402096D01*
X147402658Y-99518232D01*
X147402658Y-99518233D01*
X147385761Y-99563534D01*
X147343216Y-99620368D01*
X147276696Y-99645179D01*
X147267707Y-99645500D01*
X145654384Y-99645500D01*
X145586263Y-99625498D01*
X145565289Y-99608595D01*
X143992952Y-98036258D01*
X143958926Y-97973946D01*
X143963991Y-97903131D01*
X143969781Y-97889959D01*
X143969782Y-97889957D01*
X143995264Y-97839947D01*
X144061147Y-97637179D01*
X144094500Y-97426601D01*
X144094500Y-97213399D01*
X144061147Y-97002821D01*
X143995264Y-96800053D01*
X143898472Y-96610087D01*
X143825591Y-96509776D01*
X143773152Y-96437600D01*
X143622399Y-96286847D01*
X143449916Y-96161530D01*
X143449915Y-96161529D01*
X143449913Y-96161528D01*
X143259947Y-96064736D01*
X143259944Y-96064735D01*
X143259942Y-96064734D01*
X143057183Y-95998854D01*
X143057181Y-95998853D01*
X143057179Y-95998853D01*
X142846601Y-95965500D01*
X142633399Y-95965500D01*
X142422821Y-95998853D01*
X142422819Y-95998853D01*
X142422816Y-95998854D01*
X142220057Y-96064734D01*
X142220051Y-96064737D01*
X142030083Y-96161530D01*
X141857600Y-96286847D01*
X141706847Y-96437600D01*
X141581530Y-96610083D01*
X141484737Y-96800051D01*
X141484734Y-96800057D01*
X141418854Y-97002816D01*
X141418853Y-97002819D01*
X141418853Y-97002821D01*
X141385500Y-97213399D01*
X141385500Y-97426601D01*
X141404243Y-97544934D01*
X141418854Y-97637183D01*
X141471842Y-97800265D01*
X141484736Y-97839947D01*
X141573896Y-98014934D01*
X141581530Y-98029916D01*
X141706847Y-98202399D01*
X141857600Y-98353152D01*
X141928340Y-98404548D01*
X142030087Y-98478472D01*
X142220053Y-98575264D01*
X142422821Y-98641147D01*
X142633399Y-98674500D01*
X142633402Y-98674500D01*
X142846598Y-98674500D01*
X142846601Y-98674500D01*
X143057179Y-98641147D01*
X143259947Y-98575264D01*
X143309959Y-98549780D01*
X143379736Y-98536676D01*
X143445521Y-98563376D01*
X143456258Y-98572952D01*
X145136913Y-100253607D01*
X145136934Y-100253630D01*
X145211974Y-100328670D01*
X145211979Y-100328674D01*
X145211981Y-100328676D01*
X145211982Y-100328677D01*
X145211984Y-100328678D01*
X145298514Y-100378636D01*
X145298518Y-100378638D01*
X145318915Y-100384103D01*
X145395038Y-100404501D01*
X145494962Y-100404501D01*
X145494966Y-100404500D01*
X147079615Y-100404500D01*
X147147736Y-100424502D01*
X147194229Y-100478158D01*
X147204333Y-100548432D01*
X147174839Y-100613012D01*
X147168710Y-100619595D01*
X146251583Y-101536722D01*
X146251581Y-101536724D01*
X146211397Y-101576908D01*
X146186287Y-101602018D01*
X146123974Y-101636043D01*
X146053159Y-101630977D01*
X146008097Y-101602017D01*
X145982988Y-101576908D01*
X145845574Y-101477072D01*
X145769762Y-101438444D01*
X145694231Y-101399959D01*
X145532690Y-101347471D01*
X145364927Y-101320900D01*
X145195073Y-101320900D01*
X145027310Y-101347471D01*
X145027307Y-101347471D01*
X145027306Y-101347472D01*
X144865769Y-101399959D01*
X144865767Y-101399960D01*
X144714425Y-101477072D01*
X144577011Y-101576908D01*
X144456908Y-101697011D01*
X144357072Y-101834425D01*
X144279960Y-101985767D01*
X144279959Y-101985769D01*
X144259160Y-102049783D01*
X144227471Y-102147310D01*
X144200900Y-102315073D01*
X144200900Y-102484927D01*
X144227471Y-102652690D01*
X144279959Y-102814231D01*
X144341628Y-102935264D01*
X144357072Y-102965574D01*
X144456908Y-103102988D01*
X144577011Y-103223091D01*
X144685259Y-103301737D01*
X144714428Y-103322929D01*
X144865769Y-103400041D01*
X145027310Y-103452529D01*
X145195073Y-103479100D01*
X145195076Y-103479100D01*
X145364923Y-103479100D01*
X145364927Y-103479100D01*
X145474794Y-103461698D01*
X145545199Y-103470797D01*
X145599514Y-103516519D01*
X145620487Y-103584347D01*
X145620500Y-103586147D01*
X145620500Y-108690616D01*
X145600498Y-108758737D01*
X145583599Y-108779706D01*
X145196432Y-109166874D01*
X144811166Y-109552140D01*
X144748854Y-109586165D01*
X144678038Y-109581100D01*
X144632976Y-109552140D01*
X144610717Y-109529881D01*
X144576796Y-109495960D01*
X144576794Y-109495959D01*
X144576795Y-109495959D01*
X144495263Y-109454417D01*
X144466862Y-109439946D01*
X144375653Y-109425500D01*
X144375649Y-109425500D01*
X144044348Y-109425500D01*
X143953139Y-109439945D01*
X143843204Y-109495959D01*
X143843202Y-109495961D01*
X143789095Y-109550069D01*
X143726783Y-109584095D01*
X143655968Y-109579030D01*
X143610905Y-109550069D01*
X143556795Y-109495959D01*
X143475263Y-109454417D01*
X143446862Y-109439946D01*
X143355653Y-109425500D01*
X143355649Y-109425500D01*
X143024348Y-109425500D01*
X142933138Y-109439945D01*
X142933137Y-109439945D01*
X142823598Y-109495758D01*
X142753821Y-109508862D01*
X142733787Y-109505198D01*
X142673008Y-109488913D01*
X142673006Y-109488913D01*
X142540168Y-109488913D01*
X142479392Y-109505198D01*
X142411856Y-109523294D01*
X142296820Y-109589710D01*
X142296814Y-109589715D01*
X142200093Y-109686436D01*
X142137781Y-109720461D01*
X142066965Y-109715395D01*
X142050900Y-109708084D01*
X142037515Y-109700820D01*
X142033019Y-109696324D01*
X141946482Y-109646362D01*
X141928072Y-109641429D01*
X141914974Y-109634321D01*
X141899938Y-109619363D01*
X141881831Y-109608324D01*
X141869971Y-109591156D01*
X141869871Y-109591230D01*
X141865210Y-109584815D01*
X141864642Y-109584250D01*
X141864573Y-109583939D01*
X141864041Y-109583206D01*
X141864040Y-109583204D01*
X141776796Y-109495960D01*
X141776795Y-109495959D01*
X141695263Y-109454417D01*
X141666862Y-109439946D01*
X141575653Y-109425500D01*
X141575650Y-109425500D01*
X141424384Y-109425500D01*
X141356263Y-109405498D01*
X141335289Y-109388595D01*
X139875499Y-107928805D01*
X139841473Y-107866493D01*
X139846538Y-107795678D01*
X139889085Y-107738842D01*
X139924689Y-107712189D01*
X140010549Y-107597494D01*
X140010549Y-107597493D01*
X140010551Y-107597491D01*
X140060620Y-107463250D01*
X140067000Y-107403909D01*
X140066999Y-106396092D01*
X140066998Y-106396083D01*
X140458000Y-106396083D01*
X140458000Y-107403900D01*
X140458002Y-107403921D01*
X140464379Y-107463246D01*
X140464379Y-107463248D01*
X140464380Y-107463250D01*
X140497910Y-107553147D01*
X140514450Y-107597494D01*
X140600310Y-107712189D01*
X140715005Y-107798049D01*
X140715007Y-107798049D01*
X140715009Y-107798051D01*
X140849250Y-107848120D01*
X140908591Y-107854500D01*
X141491408Y-107854499D01*
X141550750Y-107848120D01*
X141684991Y-107798051D01*
X141716050Y-107774801D01*
X141799689Y-107712189D01*
X141885549Y-107597494D01*
X141885549Y-107597493D01*
X141885551Y-107597491D01*
X141935620Y-107463250D01*
X141940121Y-107421385D01*
X141967289Y-107355795D01*
X142025607Y-107315304D01*
X142096558Y-107312770D01*
X142128398Y-107325737D01*
X142169574Y-107349509D01*
X142205270Y-107370119D01*
X142333581Y-107404500D01*
X142333583Y-107404500D01*
X142466417Y-107404500D01*
X142466419Y-107404500D01*
X142594730Y-107370119D01*
X142709770Y-107303700D01*
X142803700Y-107209770D01*
X142870119Y-107094730D01*
X142904500Y-106966419D01*
X142904500Y-106833581D01*
X142870119Y-106705270D01*
X142814790Y-106609438D01*
X142803702Y-106590233D01*
X142803694Y-106590223D01*
X142709776Y-106496305D01*
X142709766Y-106496297D01*
X142594730Y-106429881D01*
X142569326Y-106423074D01*
X142466419Y-106395500D01*
X142333581Y-106395500D01*
X142248040Y-106418420D01*
X142205269Y-106429881D01*
X142128398Y-106474263D01*
X142059402Y-106491001D01*
X141992311Y-106467780D01*
X141948424Y-106411973D01*
X141940120Y-106378610D01*
X141937255Y-106351959D01*
X141935620Y-106336750D01*
X141885551Y-106202509D01*
X141885549Y-106202507D01*
X141885549Y-106202505D01*
X141799689Y-106087810D01*
X141684994Y-106001950D01*
X141636712Y-105983942D01*
X141550750Y-105951880D01*
X141521079Y-105948690D01*
X141491410Y-105945500D01*
X140908599Y-105945500D01*
X140908578Y-105945502D01*
X140849253Y-105951879D01*
X140715005Y-106001950D01*
X140600310Y-106087810D01*
X140514450Y-106202505D01*
X140464380Y-106336750D01*
X140458000Y-106396083D01*
X140066998Y-106396083D01*
X140066997Y-106396078D01*
X140062255Y-106351959D01*
X140060620Y-106336750D01*
X140010551Y-106202509D01*
X140010549Y-106202507D01*
X140010549Y-106202505D01*
X139924689Y-106087810D01*
X139809994Y-106001950D01*
X139761712Y-105983942D01*
X139675750Y-105951880D01*
X139646079Y-105948690D01*
X139616410Y-105945500D01*
X139033599Y-105945500D01*
X139033578Y-105945502D01*
X138974253Y-105951879D01*
X138840005Y-106001950D01*
X138725310Y-106087810D01*
X138639450Y-106202505D01*
X138589380Y-106336750D01*
X138583000Y-106396083D01*
X138583000Y-106492500D01*
X138580408Y-106501325D01*
X138581718Y-106510432D01*
X138570562Y-106534857D01*
X138562998Y-106560621D01*
X138556044Y-106566645D01*
X138552224Y-106575012D01*
X138529638Y-106589526D01*
X138509342Y-106607114D01*
X138498655Y-106609438D01*
X138492498Y-106613396D01*
X138457000Y-106618500D01*
X138381473Y-106618500D01*
X138317357Y-106599674D01*
X138316922Y-106600429D01*
X138313810Y-106598632D01*
X138313352Y-106598498D01*
X138312317Y-106597770D01*
X138194730Y-106529881D01*
X138174655Y-106524502D01*
X138066419Y-106495500D01*
X137933581Y-106495500D01*
X137851025Y-106517621D01*
X137805269Y-106529881D01*
X137690233Y-106596297D01*
X137690223Y-106596305D01*
X137596305Y-106690223D01*
X137596297Y-106690233D01*
X137529881Y-106805269D01*
X137522295Y-106833581D01*
X137504900Y-106898502D01*
X137495500Y-106933582D01*
X137495500Y-107066417D01*
X137495499Y-107066417D01*
X137529881Y-107194730D01*
X137568332Y-107261329D01*
X137585070Y-107330325D01*
X137561849Y-107397416D01*
X137506042Y-107441303D01*
X137435367Y-107448052D01*
X137372263Y-107415519D01*
X137370118Y-107413424D01*
X132271767Y-102315073D01*
X134040900Y-102315073D01*
X134040900Y-102484927D01*
X134067471Y-102652690D01*
X134119959Y-102814231D01*
X134181628Y-102935264D01*
X134197072Y-102965574D01*
X134296908Y-103102988D01*
X134417011Y-103223091D01*
X134525259Y-103301737D01*
X134554428Y-103322929D01*
X134705769Y-103400041D01*
X134867310Y-103452529D01*
X135035073Y-103479100D01*
X135035076Y-103479100D01*
X135204924Y-103479100D01*
X135204927Y-103479100D01*
X135372690Y-103452529D01*
X135534231Y-103400041D01*
X135685572Y-103322929D01*
X135822987Y-103223092D01*
X135943092Y-103102987D01*
X136042929Y-102965572D01*
X136120041Y-102814231D01*
X136172529Y-102652690D01*
X136199100Y-102484927D01*
X136199100Y-102315073D01*
X136189410Y-102253894D01*
X137970900Y-102253894D01*
X137970900Y-102546105D01*
X138009038Y-102835801D01*
X138009039Y-102835807D01*
X138009040Y-102835809D01*
X138014449Y-102855995D01*
X138084667Y-103118053D01*
X138084668Y-103118055D01*
X138084669Y-103118058D01*
X138196491Y-103388021D01*
X138196492Y-103388022D01*
X138196497Y-103388033D01*
X138342591Y-103641075D01*
X138342596Y-103641082D01*
X138520470Y-103872892D01*
X138520489Y-103872913D01*
X138727086Y-104079510D01*
X138727107Y-104079529D01*
X138958917Y-104257403D01*
X138958924Y-104257408D01*
X139211966Y-104403502D01*
X139211970Y-104403503D01*
X139211979Y-104403509D01*
X139481942Y-104515331D01*
X139764191Y-104590960D01*
X139764197Y-104590960D01*
X139764198Y-104590961D01*
X139797446Y-104595338D01*
X140053897Y-104629100D01*
X140053904Y-104629100D01*
X140346096Y-104629100D01*
X140346103Y-104629100D01*
X140635809Y-104590960D01*
X140918058Y-104515331D01*
X141188021Y-104403509D01*
X141441079Y-104257406D01*
X141672901Y-104079522D01*
X141879522Y-103872901D01*
X142057406Y-103641079D01*
X142203509Y-103388021D01*
X142315331Y-103118058D01*
X142390960Y-102835809D01*
X142429100Y-102546103D01*
X142429100Y-102253897D01*
X142393801Y-101985769D01*
X142390961Y-101964198D01*
X142390960Y-101964197D01*
X142390960Y-101964191D01*
X142315331Y-101681942D01*
X142203509Y-101411979D01*
X142203503Y-101411970D01*
X142203502Y-101411966D01*
X142057408Y-101158924D01*
X142057403Y-101158917D01*
X141879529Y-100927107D01*
X141879510Y-100927086D01*
X141672913Y-100720489D01*
X141672892Y-100720470D01*
X141441082Y-100542596D01*
X141441075Y-100542591D01*
X141188033Y-100396497D01*
X141188025Y-100396493D01*
X141188021Y-100396491D01*
X140918058Y-100284669D01*
X140918055Y-100284668D01*
X140918053Y-100284667D01*
X140659455Y-100215376D01*
X140635809Y-100209040D01*
X140635807Y-100209039D01*
X140635801Y-100209038D01*
X140346105Y-100170900D01*
X140346103Y-100170900D01*
X140053897Y-100170900D01*
X140053894Y-100170900D01*
X139764198Y-100209038D01*
X139481946Y-100284667D01*
X139481942Y-100284669D01*
X139241513Y-100384258D01*
X139211977Y-100396492D01*
X139211966Y-100396497D01*
X138958924Y-100542591D01*
X138958917Y-100542596D01*
X138727107Y-100720470D01*
X138727086Y-100720489D01*
X138520489Y-100927086D01*
X138520470Y-100927107D01*
X138342596Y-101158917D01*
X138342591Y-101158924D01*
X138196497Y-101411966D01*
X138196492Y-101411977D01*
X138196491Y-101411979D01*
X138109356Y-101622342D01*
X138084669Y-101681942D01*
X138084667Y-101681946D01*
X138009038Y-101964198D01*
X137970900Y-102253894D01*
X136189410Y-102253894D01*
X136172529Y-102147310D01*
X136120041Y-101985769D01*
X136042929Y-101834428D01*
X135972149Y-101737007D01*
X135943091Y-101697011D01*
X135822988Y-101576908D01*
X135685574Y-101477072D01*
X135609762Y-101438444D01*
X135534231Y-101399959D01*
X135372690Y-101347471D01*
X135204927Y-101320900D01*
X135035073Y-101320900D01*
X134867310Y-101347471D01*
X134867307Y-101347471D01*
X134867306Y-101347472D01*
X134705769Y-101399959D01*
X134705767Y-101399960D01*
X134554425Y-101477072D01*
X134417011Y-101576908D01*
X134296908Y-101697011D01*
X134197072Y-101834425D01*
X134119960Y-101985767D01*
X134119959Y-101985769D01*
X134099160Y-102049783D01*
X134067471Y-102147310D01*
X134040900Y-102315073D01*
X132271767Y-102315073D01*
X127992952Y-98036258D01*
X127958926Y-97973946D01*
X127963991Y-97903131D01*
X127969781Y-97889959D01*
X127969782Y-97889957D01*
X127995264Y-97839947D01*
X128061147Y-97637179D01*
X128094500Y-97426601D01*
X128094500Y-97213399D01*
X128061147Y-97002821D01*
X127995264Y-96800053D01*
X127898472Y-96610087D01*
X127825591Y-96509776D01*
X127773152Y-96437600D01*
X127622399Y-96286847D01*
X127449916Y-96161530D01*
X127449915Y-96161529D01*
X127449913Y-96161528D01*
X127259947Y-96064736D01*
X127259944Y-96064735D01*
X127259942Y-96064734D01*
X127057183Y-95998854D01*
X127057181Y-95998853D01*
X127057179Y-95998853D01*
X126846601Y-95965500D01*
X126633399Y-95965500D01*
X126422821Y-95998853D01*
X126422819Y-95998853D01*
X126422816Y-95998854D01*
X126220057Y-96064734D01*
X126220051Y-96064737D01*
X126030083Y-96161530D01*
X125857600Y-96286847D01*
X125706847Y-96437600D01*
X125581530Y-96610083D01*
X125484737Y-96800051D01*
X125484734Y-96800057D01*
X125418854Y-97002816D01*
X125418853Y-97002819D01*
X125418853Y-97002821D01*
X125385500Y-97213399D01*
X125385500Y-97426601D01*
X125404243Y-97544934D01*
X125418854Y-97637183D01*
X125471842Y-97800265D01*
X125484736Y-97839947D01*
X125573896Y-98014934D01*
X125581530Y-98029916D01*
X125706847Y-98202399D01*
X125857600Y-98353152D01*
X125928340Y-98404548D01*
X126030087Y-98478472D01*
X126220053Y-98575264D01*
X126422821Y-98641147D01*
X126633399Y-98674500D01*
X126633402Y-98674500D01*
X126846598Y-98674500D01*
X126846601Y-98674500D01*
X127057179Y-98641147D01*
X127259947Y-98575264D01*
X127309959Y-98549780D01*
X127379736Y-98536676D01*
X127445521Y-98563376D01*
X127456258Y-98572952D01*
X137216322Y-108333016D01*
X137216324Y-108333019D01*
X137286981Y-108403676D01*
X137371821Y-108452658D01*
X137373518Y-108453638D01*
X137375737Y-108454232D01*
X137375738Y-108454233D01*
X137470034Y-108479500D01*
X137470038Y-108479501D01*
X137577680Y-108479501D01*
X137577696Y-108479500D01*
X139300616Y-108479500D01*
X139368737Y-108499502D01*
X139389711Y-108516405D01*
X140129826Y-109256520D01*
X140141854Y-109278547D01*
X140157469Y-109298200D01*
X140158571Y-109309161D01*
X140163852Y-109318832D01*
X140162061Y-109343869D01*
X140164572Y-109368840D01*
X140159573Y-109378657D01*
X140158787Y-109389647D01*
X140143745Y-109409740D01*
X140132356Y-109432107D01*
X140120172Y-109441229D01*
X140116240Y-109446483D01*
X140104277Y-109454417D01*
X140101132Y-109456253D01*
X140023204Y-109495960D01*
X140009240Y-109509923D01*
X139995191Y-109518129D01*
X139975882Y-109522915D01*
X139958422Y-109532449D01*
X139939270Y-109531992D01*
X139926281Y-109535213D01*
X139915134Y-109531417D01*
X139899034Y-109531034D01*
X139816286Y-109508862D01*
X139766419Y-109495500D01*
X139633581Y-109495500D01*
X139583714Y-109508862D01*
X139505269Y-109529881D01*
X139390233Y-109596297D01*
X139390223Y-109596305D01*
X139296305Y-109690223D01*
X139296297Y-109690233D01*
X139279803Y-109718802D01*
X139261650Y-109736109D01*
X139246722Y-109756271D01*
X139236403Y-109760181D01*
X139228419Y-109767794D01*
X139203789Y-109772540D01*
X139180332Y-109781430D01*
X139169538Y-109779141D01*
X139158706Y-109781229D01*
X139135421Y-109771906D01*
X139110880Y-109766703D01*
X139097453Y-109756705D01*
X139092795Y-109754841D01*
X139082058Y-109745361D01*
X139081866Y-109745171D01*
X139033019Y-109696324D01*
X139031783Y-109695610D01*
X139025093Y-109688990D01*
X139018609Y-109677262D01*
X139001453Y-109656632D01*
X138996220Y-109646362D01*
X138964040Y-109583204D01*
X138876796Y-109495960D01*
X138876795Y-109495959D01*
X138795263Y-109454417D01*
X138766862Y-109439946D01*
X138675653Y-109425500D01*
X138675649Y-109425500D01*
X138344348Y-109425500D01*
X138253139Y-109439945D01*
X138143204Y-109495959D01*
X138143202Y-109495961D01*
X138089095Y-109550069D01*
X138026783Y-109584095D01*
X137955968Y-109579030D01*
X137910905Y-109550069D01*
X137856795Y-109495959D01*
X137775263Y-109454417D01*
X137746862Y-109439946D01*
X137655653Y-109425500D01*
X137655649Y-109425500D01*
X137324348Y-109425500D01*
X137233139Y-109439945D01*
X137123201Y-109495961D01*
X137120736Y-109498427D01*
X137116999Y-109500466D01*
X137115180Y-109501789D01*
X137115009Y-109501553D01*
X137058422Y-109532449D01*
X136999034Y-109531034D01*
X136916286Y-109508862D01*
X136866419Y-109495500D01*
X136733581Y-109495500D01*
X136683714Y-109508862D01*
X136605269Y-109529881D01*
X136490233Y-109596297D01*
X136490223Y-109596305D01*
X136396305Y-109690223D01*
X136396297Y-109690233D01*
X136329881Y-109805269D01*
X136316514Y-109855157D01*
X136295500Y-109933581D01*
X136295500Y-110066419D01*
X136306612Y-110107889D01*
X136304922Y-110178866D01*
X136265127Y-110237662D01*
X136199863Y-110265609D01*
X136184905Y-110266500D01*
X128815095Y-110266500D01*
X128746974Y-110246498D01*
X128700481Y-110192842D01*
X128690377Y-110122568D01*
X128693388Y-110107889D01*
X128704500Y-110066419D01*
X128704500Y-109933581D01*
X128670119Y-109805270D01*
X128609341Y-109700000D01*
X128603702Y-109690233D01*
X128603694Y-109690223D01*
X128509776Y-109596305D01*
X128509766Y-109596297D01*
X128394730Y-109529881D01*
X128370147Y-109523294D01*
X128266419Y-109495500D01*
X128133581Y-109495500D01*
X128083714Y-109508862D01*
X128005269Y-109529881D01*
X127883078Y-109600429D01*
X127882003Y-109598567D01*
X127826409Y-109620063D01*
X127815921Y-109620500D01*
X126571884Y-109620500D01*
X126503763Y-109600498D01*
X126482789Y-109583595D01*
X124968788Y-108069594D01*
X124934762Y-108007282D01*
X124939827Y-107936467D01*
X124982374Y-107879631D01*
X125048894Y-107854820D01*
X125057865Y-107854499D01*
X125428908Y-107854499D01*
X125488250Y-107848120D01*
X125622491Y-107798051D01*
X125653550Y-107774801D01*
X125737189Y-107712189D01*
X125823049Y-107597494D01*
X125823049Y-107597493D01*
X125823051Y-107597491D01*
X125873120Y-107463250D01*
X125879500Y-107403909D01*
X125879500Y-107403897D01*
X125879680Y-107400544D01*
X125879860Y-107400553D01*
X125879861Y-107400553D01*
X125879873Y-107400554D01*
X125880935Y-107400611D01*
X125899502Y-107337379D01*
X125953158Y-107290886D01*
X126005500Y-107279500D01*
X131136473Y-107279500D01*
X131204594Y-107299502D01*
X131225568Y-107316404D01*
X131225959Y-107316795D01*
X131225960Y-107316796D01*
X131313204Y-107404040D01*
X131423138Y-107460054D01*
X131514347Y-107474500D01*
X131845652Y-107474499D01*
X131936862Y-107460054D01*
X131936863Y-107460053D01*
X131946293Y-107456990D01*
X131947184Y-107459735D01*
X132001585Y-107449505D01*
X132067376Y-107476189D01*
X132108297Y-107534206D01*
X132112621Y-107599460D01*
X132095500Y-107685531D01*
X132095500Y-107814465D01*
X132109502Y-107884857D01*
X132120652Y-107940911D01*
X132169989Y-108060022D01*
X132217849Y-108131649D01*
X132241616Y-108167219D01*
X132241621Y-108167225D01*
X132332774Y-108258378D01*
X132332780Y-108258383D01*
X132439978Y-108330011D01*
X132559089Y-108379348D01*
X132685537Y-108404500D01*
X132685538Y-108404500D01*
X132814462Y-108404500D01*
X132814463Y-108404500D01*
X132940911Y-108379348D01*
X133060022Y-108330011D01*
X133167220Y-108258383D01*
X133258383Y-108167220D01*
X133330011Y-108060022D01*
X133379348Y-107940911D01*
X133404500Y-107814463D01*
X133404500Y-107685537D01*
X133379348Y-107559089D01*
X133330011Y-107439978D01*
X133258383Y-107332780D01*
X133244841Y-107319238D01*
X133210816Y-107256930D01*
X133209487Y-107210431D01*
X133210051Y-107206866D01*
X133210054Y-107206862D01*
X133224500Y-107115653D01*
X133224499Y-106684348D01*
X133210054Y-106593138D01*
X133154040Y-106483204D01*
X133066796Y-106395960D01*
X133066795Y-106395959D01*
X132982042Y-106352776D01*
X132956862Y-106339946D01*
X132865653Y-106325500D01*
X132865649Y-106325500D01*
X132534348Y-106325500D01*
X132443139Y-106339945D01*
X132333204Y-106395959D01*
X132333202Y-106395961D01*
X132279095Y-106450069D01*
X132216783Y-106484095D01*
X132145968Y-106479030D01*
X132100905Y-106450069D01*
X132046795Y-106395959D01*
X131962042Y-106352776D01*
X131936862Y-106339946D01*
X131845653Y-106325500D01*
X131845649Y-106325500D01*
X131514348Y-106325500D01*
X131423139Y-106339945D01*
X131313205Y-106395959D01*
X131225568Y-106483596D01*
X131163256Y-106517621D01*
X131136473Y-106520500D01*
X126005499Y-106520500D01*
X125937378Y-106500498D01*
X125890885Y-106446842D01*
X125880567Y-106399411D01*
X125879679Y-106399459D01*
X125879499Y-106396115D01*
X125879499Y-106396092D01*
X125873120Y-106336750D01*
X125823051Y-106202509D01*
X125823049Y-106202507D01*
X125823049Y-106202505D01*
X125737189Y-106087810D01*
X125622494Y-106001950D01*
X125574212Y-105983942D01*
X125488250Y-105951880D01*
X125458579Y-105948690D01*
X125428910Y-105945500D01*
X124846099Y-105945500D01*
X124846078Y-105945502D01*
X124786753Y-105951879D01*
X124652505Y-106001950D01*
X124537810Y-106087810D01*
X124451950Y-106202505D01*
X124401880Y-106336750D01*
X124395500Y-106396083D01*
X124395500Y-107192116D01*
X124389161Y-107213703D01*
X124387556Y-107236148D01*
X124379354Y-107247104D01*
X124375498Y-107260237D01*
X124358492Y-107274972D01*
X124345009Y-107292984D01*
X124332186Y-107297766D01*
X124321842Y-107306730D01*
X124299569Y-107309932D01*
X124278489Y-107317795D01*
X124265116Y-107314886D01*
X124251568Y-107316834D01*
X124231101Y-107307486D01*
X124209115Y-107302704D01*
X124191101Y-107289218D01*
X124186988Y-107287340D01*
X124180405Y-107281211D01*
X124041404Y-107142210D01*
X124007378Y-107079898D01*
X124004499Y-107053115D01*
X124004499Y-106396099D01*
X124004499Y-106396092D01*
X123998120Y-106336750D01*
X123948051Y-106202509D01*
X123948049Y-106202507D01*
X123948049Y-106202505D01*
X123862189Y-106087810D01*
X123747494Y-106001950D01*
X123699212Y-105983942D01*
X123613250Y-105951880D01*
X123583579Y-105948690D01*
X123553910Y-105945500D01*
X122971099Y-105945500D01*
X122971078Y-105945502D01*
X122911753Y-105951879D01*
X122777505Y-106001950D01*
X122662810Y-106087810D01*
X122576950Y-106202505D01*
X122526880Y-106336750D01*
X122520500Y-106396083D01*
X122520500Y-107403900D01*
X122520502Y-107403921D01*
X122526879Y-107463246D01*
X122526879Y-107463248D01*
X122526880Y-107463250D01*
X122560410Y-107553147D01*
X122576950Y-107597494D01*
X122662810Y-107712189D01*
X122777505Y-107798049D01*
X122777507Y-107798049D01*
X122777509Y-107798051D01*
X122911750Y-107848120D01*
X122971091Y-107854500D01*
X123553908Y-107854499D01*
X123583384Y-107851330D01*
X123608101Y-107848674D01*
X123677970Y-107861281D01*
X123710663Y-107884857D01*
X125877211Y-110051405D01*
X125911237Y-110113717D01*
X125906172Y-110184532D01*
X125863625Y-110241368D01*
X125797105Y-110266179D01*
X125788116Y-110266500D01*
X124275385Y-110266500D01*
X124207264Y-110246498D01*
X124186290Y-110229595D01*
X116271768Y-102315073D01*
X118040900Y-102315073D01*
X118040900Y-102484927D01*
X118067471Y-102652690D01*
X118119959Y-102814231D01*
X118181628Y-102935264D01*
X118197072Y-102965574D01*
X118296908Y-103102988D01*
X118417011Y-103223091D01*
X118525259Y-103301737D01*
X118554428Y-103322929D01*
X118705769Y-103400041D01*
X118867310Y-103452529D01*
X119035073Y-103479100D01*
X119035076Y-103479100D01*
X119204924Y-103479100D01*
X119204927Y-103479100D01*
X119372690Y-103452529D01*
X119534231Y-103400041D01*
X119685572Y-103322929D01*
X119822987Y-103223092D01*
X119943092Y-103102987D01*
X120042929Y-102965572D01*
X120120041Y-102814231D01*
X120172529Y-102652690D01*
X120199100Y-102484927D01*
X120199100Y-102315073D01*
X120189410Y-102253894D01*
X121970900Y-102253894D01*
X121970900Y-102546105D01*
X122009038Y-102835801D01*
X122009039Y-102835807D01*
X122009040Y-102835809D01*
X122014449Y-102855995D01*
X122084667Y-103118053D01*
X122084668Y-103118055D01*
X122084669Y-103118058D01*
X122196491Y-103388021D01*
X122196492Y-103388022D01*
X122196497Y-103388033D01*
X122342591Y-103641075D01*
X122342596Y-103641082D01*
X122520470Y-103872892D01*
X122520489Y-103872913D01*
X122727086Y-104079510D01*
X122727107Y-104079529D01*
X122958917Y-104257403D01*
X122958924Y-104257408D01*
X123211966Y-104403502D01*
X123211970Y-104403503D01*
X123211979Y-104403509D01*
X123481942Y-104515331D01*
X123764191Y-104590960D01*
X123764197Y-104590960D01*
X123764198Y-104590961D01*
X123797446Y-104595338D01*
X124053897Y-104629100D01*
X124053904Y-104629100D01*
X124346096Y-104629100D01*
X124346103Y-104629100D01*
X124635809Y-104590960D01*
X124918058Y-104515331D01*
X125188021Y-104403509D01*
X125441079Y-104257406D01*
X125672901Y-104079522D01*
X125879522Y-103872901D01*
X126057406Y-103641079D01*
X126203509Y-103388021D01*
X126315331Y-103118058D01*
X126390960Y-102835809D01*
X126429100Y-102546103D01*
X126429100Y-102315073D01*
X128200900Y-102315073D01*
X128200900Y-102484927D01*
X128227471Y-102652690D01*
X128279959Y-102814231D01*
X128341628Y-102935264D01*
X128357072Y-102965574D01*
X128456908Y-103102988D01*
X128577011Y-103223091D01*
X128685259Y-103301737D01*
X128714428Y-103322929D01*
X128865769Y-103400041D01*
X129027310Y-103452529D01*
X129195073Y-103479100D01*
X129195076Y-103479100D01*
X129364924Y-103479100D01*
X129364927Y-103479100D01*
X129532690Y-103452529D01*
X129694231Y-103400041D01*
X129845572Y-103322929D01*
X129982987Y-103223092D01*
X130103092Y-103102987D01*
X130202929Y-102965572D01*
X130280041Y-102814231D01*
X130332529Y-102652690D01*
X130359100Y-102484927D01*
X130359100Y-102315073D01*
X130332529Y-102147310D01*
X130280041Y-101985769D01*
X130202929Y-101834428D01*
X130132149Y-101737007D01*
X130103091Y-101697011D01*
X129982988Y-101576908D01*
X129845574Y-101477072D01*
X129769762Y-101438444D01*
X129694231Y-101399959D01*
X129532690Y-101347471D01*
X129364927Y-101320900D01*
X129195073Y-101320900D01*
X129027310Y-101347471D01*
X129027307Y-101347471D01*
X129027306Y-101347472D01*
X128865769Y-101399959D01*
X128865767Y-101399960D01*
X128714425Y-101477072D01*
X128577011Y-101576908D01*
X128456908Y-101697011D01*
X128357072Y-101834425D01*
X128279960Y-101985767D01*
X128279959Y-101985769D01*
X128259160Y-102049783D01*
X128227471Y-102147310D01*
X128200900Y-102315073D01*
X126429100Y-102315073D01*
X126429100Y-102253897D01*
X126393801Y-101985769D01*
X126390961Y-101964198D01*
X126390960Y-101964197D01*
X126390960Y-101964191D01*
X126315331Y-101681942D01*
X126203509Y-101411979D01*
X126203503Y-101411970D01*
X126203502Y-101411966D01*
X126057408Y-101158924D01*
X126057403Y-101158917D01*
X125879529Y-100927107D01*
X125879510Y-100927086D01*
X125672913Y-100720489D01*
X125672892Y-100720470D01*
X125441082Y-100542596D01*
X125441075Y-100542591D01*
X125188033Y-100396497D01*
X125188025Y-100396493D01*
X125188021Y-100396491D01*
X124918058Y-100284669D01*
X124918055Y-100284668D01*
X124918053Y-100284667D01*
X124659455Y-100215376D01*
X124635809Y-100209040D01*
X124635807Y-100209039D01*
X124635801Y-100209038D01*
X124346105Y-100170900D01*
X124346103Y-100170900D01*
X124053897Y-100170900D01*
X124053894Y-100170900D01*
X123764198Y-100209038D01*
X123481946Y-100284667D01*
X123481942Y-100284669D01*
X123241513Y-100384258D01*
X123211977Y-100396492D01*
X123211966Y-100396497D01*
X122958924Y-100542591D01*
X122958917Y-100542596D01*
X122727107Y-100720470D01*
X122727086Y-100720489D01*
X122520489Y-100927086D01*
X122520470Y-100927107D01*
X122342596Y-101158917D01*
X122342591Y-101158924D01*
X122196497Y-101411966D01*
X122196492Y-101411977D01*
X122196491Y-101411979D01*
X122109356Y-101622342D01*
X122084669Y-101681942D01*
X122084667Y-101681946D01*
X122009038Y-101964198D01*
X121970900Y-102253894D01*
X120189410Y-102253894D01*
X120172529Y-102147310D01*
X120120041Y-101985769D01*
X120042929Y-101834428D01*
X119972149Y-101737007D01*
X119943091Y-101697011D01*
X119822988Y-101576908D01*
X119685574Y-101477072D01*
X119609762Y-101438444D01*
X119534231Y-101399959D01*
X119372690Y-101347471D01*
X119204927Y-101320900D01*
X119035073Y-101320900D01*
X118867310Y-101347471D01*
X118867307Y-101347471D01*
X118867306Y-101347472D01*
X118705769Y-101399959D01*
X118705767Y-101399960D01*
X118554425Y-101477072D01*
X118417011Y-101576908D01*
X118296908Y-101697011D01*
X118197072Y-101834425D01*
X118119960Y-101985767D01*
X118119959Y-101985769D01*
X118099160Y-102049783D01*
X118067471Y-102147310D01*
X118040900Y-102315073D01*
X116271768Y-102315073D01*
X111992952Y-98036257D01*
X111958926Y-97973945D01*
X111963991Y-97903130D01*
X111969771Y-97889979D01*
X111995264Y-97839947D01*
X112061147Y-97637179D01*
X112094500Y-97426601D01*
X112094500Y-97213399D01*
X112061147Y-97002821D01*
X111995264Y-96800053D01*
X111898472Y-96610087D01*
X111825591Y-96509776D01*
X111773152Y-96437600D01*
X111622399Y-96286847D01*
X111449916Y-96161530D01*
X111449915Y-96161529D01*
X111449913Y-96161528D01*
X111259947Y-96064736D01*
X111259944Y-96064735D01*
X111259942Y-96064734D01*
X111057183Y-95998854D01*
X111057181Y-95998853D01*
X111057179Y-95998853D01*
X110846601Y-95965500D01*
X110633399Y-95965500D01*
X110422821Y-95998853D01*
X110422819Y-95998853D01*
X110422816Y-95998854D01*
X110220057Y-96064734D01*
X110220051Y-96064737D01*
X110030083Y-96161530D01*
X109857600Y-96286847D01*
X109706847Y-96437600D01*
X109581530Y-96610083D01*
X109484737Y-96800051D01*
X109484734Y-96800057D01*
X109418854Y-97002816D01*
X109418853Y-97002819D01*
X109418853Y-97002821D01*
X109385500Y-97213399D01*
X109385500Y-97426601D01*
X109404243Y-97544934D01*
X109418854Y-97637183D01*
X109471842Y-97800265D01*
X109484736Y-97839947D01*
X109573896Y-98014934D01*
X109581530Y-98029916D01*
X109706847Y-98202399D01*
X109857600Y-98353152D01*
X109928340Y-98404548D01*
X110030087Y-98478472D01*
X110220053Y-98575264D01*
X110422821Y-98641147D01*
X110633399Y-98674500D01*
X110633402Y-98674500D01*
X110846598Y-98674500D01*
X110846601Y-98674500D01*
X111057179Y-98641147D01*
X111259947Y-98575264D01*
X111309961Y-98549780D01*
X111379734Y-98536676D01*
X111445519Y-98563375D01*
X111456257Y-98572952D01*
X119186710Y-106303405D01*
X119220736Y-106365717D01*
X119215671Y-106436532D01*
X119173124Y-106493368D01*
X119106604Y-106518179D01*
X119097615Y-106518500D01*
X117251527Y-106518500D01*
X117183406Y-106498498D01*
X117162432Y-106481596D01*
X117127103Y-106446267D01*
X117076796Y-106395960D01*
X117076794Y-106395959D01*
X117076795Y-106395959D01*
X116992042Y-106352776D01*
X116966862Y-106339946D01*
X116875653Y-106325500D01*
X116875649Y-106325500D01*
X116544348Y-106325500D01*
X116453139Y-106339945D01*
X116343204Y-106395959D01*
X116343202Y-106395961D01*
X116289095Y-106450069D01*
X116226783Y-106484095D01*
X116155968Y-106479030D01*
X116110905Y-106450069D01*
X116056795Y-106395959D01*
X115972042Y-106352776D01*
X115946862Y-106339946D01*
X115855653Y-106325500D01*
X115855650Y-106325500D01*
X115704384Y-106325500D01*
X115636263Y-106305498D01*
X115615289Y-106288595D01*
X114974864Y-105648170D01*
X114974852Y-105648156D01*
X114897025Y-105570329D01*
X114897015Y-105570321D01*
X114811280Y-105520823D01*
X114810482Y-105520362D01*
X114810481Y-105520361D01*
X114810480Y-105520361D01*
X114799121Y-105517317D01*
X114799116Y-105517316D01*
X114790084Y-105514896D01*
X114713962Y-105494499D01*
X114614038Y-105494499D01*
X114614034Y-105494500D01*
X108346196Y-105494500D01*
X108346180Y-105494499D01*
X108338462Y-105494499D01*
X108238538Y-105494499D01*
X108206366Y-105503119D01*
X108162416Y-105514895D01*
X108162415Y-105514896D01*
X108142018Y-105520362D01*
X108142017Y-105520362D01*
X108142015Y-105520363D01*
X108142014Y-105520363D01*
X108055484Y-105570321D01*
X108055479Y-105570325D01*
X108033088Y-105592717D01*
X107984824Y-105640981D01*
X107984822Y-105640983D01*
X107847135Y-105778670D01*
X107710661Y-105915144D01*
X107648349Y-105949169D01*
X107608096Y-105951325D01*
X107578628Y-105948157D01*
X107553910Y-105945500D01*
X106971099Y-105945500D01*
X106971078Y-105945502D01*
X106911753Y-105951879D01*
X106777505Y-106001950D01*
X106662810Y-106087810D01*
X106576950Y-106202505D01*
X106526880Y-106336750D01*
X106520500Y-106396083D01*
X106520500Y-107403900D01*
X106520502Y-107403921D01*
X106526879Y-107463246D01*
X106526879Y-107463248D01*
X106526880Y-107463250D01*
X106560410Y-107553147D01*
X106576950Y-107597494D01*
X106662810Y-107712189D01*
X106777505Y-107798049D01*
X106777507Y-107798049D01*
X106777509Y-107798051D01*
X106911750Y-107848120D01*
X106971091Y-107854500D01*
X107553908Y-107854499D01*
X107613250Y-107848120D01*
X107747491Y-107798051D01*
X107778550Y-107774801D01*
X107862189Y-107712189D01*
X107948049Y-107597494D01*
X107948049Y-107597493D01*
X107948051Y-107597491D01*
X107998120Y-107463250D01*
X108004500Y-107403909D01*
X108004499Y-106746882D01*
X108013282Y-106716967D01*
X108019911Y-106686498D01*
X108023725Y-106681402D01*
X108024501Y-106678762D01*
X108041399Y-106657793D01*
X108180407Y-106518785D01*
X108242717Y-106484761D01*
X108313532Y-106489826D01*
X108370368Y-106532373D01*
X108395179Y-106598893D01*
X108395500Y-106607882D01*
X108395500Y-107403900D01*
X108395502Y-107403921D01*
X108401879Y-107463246D01*
X108401879Y-107463248D01*
X108401880Y-107463250D01*
X108435410Y-107553147D01*
X108451950Y-107597494D01*
X108537810Y-107712189D01*
X108652505Y-107798049D01*
X108652507Y-107798049D01*
X108652509Y-107798051D01*
X108786750Y-107848120D01*
X108846091Y-107854500D01*
X109428908Y-107854499D01*
X109488250Y-107848120D01*
X109622491Y-107798051D01*
X109653550Y-107774801D01*
X109737189Y-107712189D01*
X109823049Y-107597494D01*
X109823049Y-107597493D01*
X109823051Y-107597491D01*
X109873120Y-107463250D01*
X109879500Y-107403909D01*
X109879500Y-107403897D01*
X109879680Y-107400544D01*
X109879860Y-107400553D01*
X109879861Y-107400553D01*
X109879873Y-107400554D01*
X109880935Y-107400611D01*
X109899502Y-107337379D01*
X109953158Y-107290886D01*
X110005500Y-107279500D01*
X113790616Y-107279500D01*
X113858737Y-107299502D01*
X113879711Y-107316405D01*
X119791913Y-113228607D01*
X119791934Y-113228630D01*
X119866974Y-113303670D01*
X119866979Y-113303674D01*
X119866981Y-113303676D01*
X119866982Y-113303677D01*
X119866984Y-113303678D01*
X119953514Y-113353636D01*
X119953518Y-113353638D01*
X119973915Y-113359103D01*
X120050038Y-113379501D01*
X120149962Y-113379501D01*
X120149966Y-113379500D01*
X126830260Y-113379500D01*
X126898381Y-113399502D01*
X126919355Y-113416405D01*
X126984276Y-113481326D01*
X127030710Y-113504985D01*
X127098445Y-113539498D01*
X127193166Y-113554500D01*
X127193168Y-113554500D01*
X128431832Y-113554500D01*
X128431834Y-113554500D01*
X128526555Y-113539498D01*
X128529389Y-113538053D01*
X128533211Y-113537335D01*
X128535984Y-113536435D01*
X128536100Y-113536793D01*
X128599164Y-113524949D01*
X128664949Y-113551647D01*
X128705857Y-113609674D01*
X128711042Y-113670029D01*
X128695500Y-113768166D01*
X128695500Y-114131832D01*
X128710501Y-114226553D01*
X128768673Y-114340723D01*
X128859276Y-114431326D01*
X128916361Y-114460412D01*
X128973445Y-114489498D01*
X129068166Y-114504500D01*
X129068168Y-114504500D01*
X130306832Y-114504500D01*
X130306834Y-114504500D01*
X130401555Y-114489498D01*
X130440081Y-114469867D01*
X130509855Y-114456762D01*
X130546916Y-114468706D01*
X130547641Y-114466958D01*
X130555264Y-114470116D01*
X130555270Y-114470119D01*
X130683581Y-114504500D01*
X130683583Y-114504500D01*
X130816417Y-114504500D01*
X130816419Y-114504500D01*
X130944730Y-114470119D01*
X131059770Y-114403700D01*
X131153700Y-114309770D01*
X131220119Y-114194730D01*
X131254500Y-114066419D01*
X131254500Y-113933581D01*
X131220119Y-113805270D01*
X131171629Y-113721283D01*
X131153702Y-113690233D01*
X131153694Y-113690223D01*
X131059776Y-113596305D01*
X131059766Y-113596297D01*
X130944730Y-113529881D01*
X130933202Y-113526792D01*
X130816419Y-113495500D01*
X130683581Y-113495500D01*
X130683575Y-113495500D01*
X130642616Y-113506475D01*
X130571640Y-113504784D01*
X130520913Y-113473863D01*
X130515723Y-113468673D01*
X130401553Y-113410501D01*
X130332102Y-113399502D01*
X130306834Y-113395500D01*
X129068166Y-113395500D01*
X129042898Y-113399502D01*
X128973442Y-113410502D01*
X128970600Y-113411950D01*
X128966778Y-113412667D01*
X128964016Y-113413565D01*
X128963899Y-113413207D01*
X128900822Y-113425049D01*
X128835039Y-113398344D01*
X128794138Y-113340313D01*
X128788957Y-113279969D01*
X128792324Y-113258712D01*
X128804500Y-113181834D01*
X128804500Y-112818166D01*
X128789498Y-112723445D01*
X128789497Y-112723444D01*
X128788957Y-112720030D01*
X128798057Y-112649619D01*
X128843779Y-112595305D01*
X128911607Y-112574333D01*
X128963990Y-112586513D01*
X128964016Y-112586435D01*
X128964929Y-112586731D01*
X128970607Y-112588052D01*
X128973445Y-112589498D01*
X129068166Y-112604500D01*
X129068168Y-112604500D01*
X130306832Y-112604500D01*
X130306834Y-112604500D01*
X130401555Y-112589498D01*
X130515723Y-112531326D01*
X130545320Y-112501729D01*
X130580645Y-112466405D01*
X130608013Y-112451460D01*
X130634242Y-112434604D01*
X130640540Y-112433698D01*
X130642957Y-112432379D01*
X130669740Y-112429500D01*
X130699375Y-112429500D01*
X130767496Y-112449502D01*
X130813989Y-112503158D01*
X130824093Y-112573432D01*
X130821085Y-112588095D01*
X130795500Y-112683581D01*
X130795500Y-112683583D01*
X130795500Y-112816417D01*
X130795499Y-112816417D01*
X130829881Y-112944730D01*
X130896297Y-113059766D01*
X130896305Y-113059776D01*
X130990223Y-113153694D01*
X130990228Y-113153698D01*
X130990230Y-113153700D01*
X130990231Y-113153701D01*
X130990233Y-113153702D01*
X130998793Y-113158644D01*
X131105270Y-113220119D01*
X131233581Y-113254500D01*
X131233583Y-113254500D01*
X131241558Y-113256637D01*
X131241001Y-113258712D01*
X131295517Y-113282829D01*
X131303237Y-113289933D01*
X131316974Y-113303670D01*
X131316979Y-113303674D01*
X131316981Y-113303676D01*
X131316982Y-113303677D01*
X131316984Y-113303678D01*
X131403513Y-113353636D01*
X131403515Y-113353636D01*
X131403518Y-113353638D01*
X131500038Y-113379500D01*
X132080260Y-113379500D01*
X132148381Y-113399502D01*
X132169355Y-113416405D01*
X132234276Y-113481326D01*
X132280710Y-113504985D01*
X132348445Y-113539498D01*
X132443166Y-113554500D01*
X132443168Y-113554500D01*
X133681832Y-113554500D01*
X133681834Y-113554500D01*
X133776555Y-113539498D01*
X133779389Y-113538053D01*
X133783211Y-113537335D01*
X133785984Y-113536435D01*
X133786100Y-113536793D01*
X133849164Y-113524949D01*
X133914949Y-113551647D01*
X133955857Y-113609674D01*
X133961042Y-113670029D01*
X133945500Y-113768166D01*
X133945500Y-114131832D01*
X133960501Y-114226553D01*
X134018673Y-114340723D01*
X134109276Y-114431326D01*
X134166361Y-114460412D01*
X134223445Y-114489498D01*
X134318166Y-114504500D01*
X134318168Y-114504500D01*
X135556832Y-114504500D01*
X135556834Y-114504500D01*
X135651555Y-114489498D01*
X135765723Y-114431326D01*
X135771550Y-114425499D01*
X135780645Y-114416405D01*
X135808013Y-114401460D01*
X135834242Y-114384604D01*
X135840540Y-114383698D01*
X135842957Y-114382379D01*
X135869740Y-114379500D01*
X135915921Y-114379500D01*
X135984042Y-114399502D01*
X135989011Y-114402996D01*
X135990229Y-114403699D01*
X135990230Y-114403700D01*
X136105270Y-114470119D01*
X136233581Y-114504500D01*
X136233583Y-114504500D01*
X136366417Y-114504500D01*
X136366419Y-114504500D01*
X136494730Y-114470119D01*
X136609770Y-114403700D01*
X136703700Y-114309770D01*
X136770119Y-114194730D01*
X136804500Y-114066419D01*
X136804500Y-113933581D01*
X136770119Y-113805270D01*
X136721629Y-113721283D01*
X136703702Y-113690233D01*
X136703694Y-113690223D01*
X136610066Y-113596595D01*
X136576040Y-113534283D01*
X136581105Y-113463468D01*
X136623652Y-113406632D01*
X136690172Y-113381821D01*
X136699161Y-113381500D01*
X137082260Y-113381500D01*
X137150381Y-113401502D01*
X137171355Y-113418405D01*
X137234276Y-113481326D01*
X137280710Y-113504985D01*
X137348445Y-113539498D01*
X137443166Y-113554500D01*
X137443168Y-113554500D01*
X138681832Y-113554500D01*
X138681834Y-113554500D01*
X138776555Y-113539498D01*
X138779389Y-113538053D01*
X138783211Y-113537335D01*
X138785984Y-113536435D01*
X138786100Y-113536793D01*
X138849164Y-113524949D01*
X138914949Y-113551647D01*
X138955857Y-113609674D01*
X138961042Y-113670029D01*
X138945500Y-113768166D01*
X138945500Y-114131832D01*
X138960501Y-114226553D01*
X139018673Y-114340723D01*
X139109276Y-114431326D01*
X139166361Y-114460412D01*
X139223445Y-114489498D01*
X139318166Y-114504500D01*
X139318168Y-114504500D01*
X140556832Y-114504500D01*
X140556834Y-114504500D01*
X140651555Y-114489498D01*
X140765723Y-114431326D01*
X140773743Y-114425499D01*
X140775745Y-114428254D01*
X140822721Y-114402586D01*
X140893538Y-114407631D01*
X140912528Y-114416573D01*
X141005270Y-114470119D01*
X141133581Y-114504500D01*
X141133583Y-114504500D01*
X141266417Y-114504500D01*
X141266419Y-114504500D01*
X141394730Y-114470119D01*
X141509770Y-114403700D01*
X141603700Y-114309770D01*
X141670119Y-114194730D01*
X141704500Y-114066419D01*
X141704500Y-113933581D01*
X141670119Y-113805270D01*
X141621629Y-113721283D01*
X141603702Y-113690233D01*
X141603694Y-113690223D01*
X141509776Y-113596305D01*
X141509766Y-113596297D01*
X141394730Y-113529881D01*
X141383202Y-113526792D01*
X141266419Y-113495500D01*
X141133581Y-113495500D01*
X141016798Y-113526792D01*
X141005270Y-113529881D01*
X140975936Y-113546817D01*
X140906940Y-113563554D01*
X140839849Y-113540333D01*
X140823842Y-113526792D01*
X140765723Y-113468673D01*
X140651553Y-113410501D01*
X140582102Y-113399502D01*
X140556834Y-113395500D01*
X139318166Y-113395500D01*
X139292898Y-113399502D01*
X139223442Y-113410502D01*
X139220600Y-113411950D01*
X139216778Y-113412667D01*
X139214016Y-113413565D01*
X139213899Y-113413207D01*
X139150822Y-113425049D01*
X139085039Y-113398344D01*
X139044138Y-113340313D01*
X139038957Y-113279969D01*
X139042324Y-113258712D01*
X139054500Y-113181834D01*
X139054500Y-112818166D01*
X139039498Y-112723445D01*
X139039497Y-112723444D01*
X139038957Y-112720030D01*
X139048057Y-112649619D01*
X139093779Y-112595305D01*
X139161607Y-112574333D01*
X139213990Y-112586513D01*
X139214016Y-112586435D01*
X139214929Y-112586731D01*
X139220607Y-112588052D01*
X139223445Y-112589498D01*
X139318166Y-112604500D01*
X139318168Y-112604500D01*
X140556832Y-112604500D01*
X140556834Y-112604500D01*
X140651555Y-112589498D01*
X140765723Y-112531326D01*
X140795320Y-112501729D01*
X140830645Y-112466405D01*
X140892957Y-112432379D01*
X140919740Y-112429500D01*
X141440616Y-112429500D01*
X141508737Y-112449502D01*
X141529711Y-112466405D01*
X142291913Y-113228607D01*
X142291934Y-113228630D01*
X142366974Y-113303670D01*
X142366979Y-113303674D01*
X142366981Y-113303676D01*
X142366982Y-113303677D01*
X142366984Y-113303678D01*
X142453514Y-113353636D01*
X142453518Y-113353638D01*
X142473915Y-113359103D01*
X142550038Y-113379501D01*
X142649962Y-113379501D01*
X142649966Y-113379500D01*
X142980260Y-113379500D01*
X143048381Y-113399502D01*
X143069355Y-113416405D01*
X143134276Y-113481326D01*
X143180710Y-113504985D01*
X143248445Y-113539498D01*
X143343166Y-113554500D01*
X143343168Y-113554500D01*
X144581832Y-113554500D01*
X144581834Y-113554500D01*
X144676555Y-113539498D01*
X144679389Y-113538053D01*
X144683211Y-113537335D01*
X144685984Y-113536435D01*
X144686100Y-113536793D01*
X144749164Y-113524949D01*
X144814949Y-113551647D01*
X144855857Y-113609674D01*
X144861042Y-113670029D01*
X144845500Y-113768166D01*
X144845500Y-114131832D01*
X144860501Y-114226553D01*
X144918673Y-114340723D01*
X145009276Y-114431326D01*
X145066361Y-114460412D01*
X145123445Y-114489498D01*
X145218166Y-114504500D01*
X145218168Y-114504500D01*
X146456832Y-114504500D01*
X146456834Y-114504500D01*
X146551555Y-114489498D01*
X146665723Y-114431326D01*
X146756326Y-114340723D01*
X146814498Y-114226555D01*
X146829500Y-114131834D01*
X146829500Y-113768166D01*
X146814498Y-113673445D01*
X146800785Y-113646533D01*
X146787681Y-113576759D01*
X146814379Y-113510974D01*
X146823948Y-113500244D01*
X147222642Y-113101550D01*
X147222652Y-113101543D01*
X147303670Y-113020525D01*
X147303676Y-113020519D01*
X147353638Y-112933982D01*
X147379500Y-112837462D01*
X147379500Y-111543526D01*
X147388283Y-111513612D01*
X147394906Y-111483153D01*
X147398725Y-111478049D01*
X147399502Y-111475405D01*
X147416390Y-111454445D01*
X147420898Y-111449937D01*
X147483202Y-111415908D01*
X147554018Y-111420965D01*
X147599093Y-111449929D01*
X147624449Y-111475285D01*
X147657061Y-111531770D01*
X147666361Y-111566480D01*
X147666363Y-111566485D01*
X147716321Y-111653015D01*
X147716329Y-111653025D01*
X147794156Y-111730852D01*
X147794170Y-111730864D01*
X148096322Y-112033016D01*
X148096324Y-112033019D01*
X148166981Y-112103676D01*
X148239423Y-112145500D01*
X148253518Y-112153638D01*
X148253522Y-112153639D01*
X148253524Y-112153640D01*
X148350034Y-112179500D01*
X148350038Y-112179501D01*
X148457680Y-112179501D01*
X148457696Y-112179500D01*
X148790921Y-112179500D01*
X148859042Y-112199502D01*
X148864011Y-112202996D01*
X148865229Y-112203699D01*
X148865230Y-112203700D01*
X148980270Y-112270119D01*
X149108581Y-112304500D01*
X149108583Y-112304500D01*
X149241417Y-112304500D01*
X149241419Y-112304500D01*
X149369730Y-112270119D01*
X149453176Y-112221941D01*
X149522171Y-112205203D01*
X149589263Y-112228423D01*
X149605271Y-112241965D01*
X149983595Y-112620289D01*
X150017621Y-112682601D01*
X150020500Y-112709384D01*
X150020500Y-113673246D01*
X150020502Y-113673270D01*
X150026959Y-113733339D01*
X150026959Y-113733341D01*
X150077657Y-113869266D01*
X150077658Y-113869267D01*
X150164596Y-113985404D01*
X150280733Y-114072342D01*
X150416658Y-114123040D01*
X150476745Y-114129500D01*
X151323254Y-114129499D01*
X151383342Y-114123040D01*
X151519267Y-114072342D01*
X151635404Y-113985404D01*
X151722342Y-113869267D01*
X151773040Y-113733342D01*
X151779500Y-113673255D01*
X151779499Y-112326746D01*
X151773040Y-112266658D01*
X151722342Y-112130733D01*
X151635404Y-112014596D01*
X151519267Y-111927658D01*
X151519265Y-111927657D01*
X151519266Y-111927657D01*
X151383349Y-111876962D01*
X151383344Y-111876960D01*
X151383342Y-111876960D01*
X151346732Y-111873024D01*
X151323256Y-111870500D01*
X150476753Y-111870500D01*
X150476729Y-111870502D01*
X150416660Y-111876959D01*
X150408990Y-111878772D01*
X150408637Y-111877281D01*
X150399427Y-111877938D01*
X150382461Y-111884267D01*
X150364750Y-111880414D01*
X150346674Y-111881705D01*
X150330779Y-111873024D01*
X150313087Y-111869176D01*
X150284377Y-111847683D01*
X150168469Y-111731775D01*
X150134443Y-111669463D01*
X150139508Y-111598648D01*
X150182055Y-111541812D01*
X150245004Y-111518332D01*
X150244900Y-111517360D01*
X150282546Y-111513312D01*
X150308342Y-111510540D01*
X150444267Y-111459842D01*
X150560404Y-111372904D01*
X150647342Y-111256767D01*
X150698040Y-111120842D01*
X150704500Y-111060755D01*
X150704499Y-111010941D01*
X150724500Y-110942824D01*
X150778155Y-110896330D01*
X150848428Y-110886225D01*
X150913010Y-110915717D01*
X150943695Y-110955603D01*
X150957498Y-110983836D01*
X150957501Y-110983841D01*
X151041158Y-111067498D01*
X151041160Y-111067499D01*
X151147450Y-111119461D01*
X151216354Y-111129500D01*
X151216360Y-111129500D01*
X152558640Y-111129500D01*
X152558646Y-111129500D01*
X152627550Y-111119461D01*
X152733840Y-111067499D01*
X152817499Y-110983840D01*
X152869461Y-110877550D01*
X152879500Y-110808646D01*
X152879500Y-110541354D01*
X152869461Y-110472450D01*
X152836651Y-110405337D01*
X152836074Y-110401959D01*
X152833899Y-110399311D01*
X152830142Y-110367214D01*
X152824703Y-110335356D01*
X152825926Y-110331189D01*
X152825646Y-110328795D01*
X152836649Y-110294667D01*
X152864651Y-110237388D01*
X152912536Y-110184978D01*
X152981159Y-110166774D01*
X153048730Y-110188560D01*
X153066941Y-110203635D01*
X155281595Y-112418289D01*
X155315621Y-112480601D01*
X155318500Y-112507384D01*
X155318500Y-113999627D01*
X155318499Y-113999645D01*
X155318499Y-114107287D01*
X155324451Y-114129499D01*
X155338792Y-114183019D01*
X155344362Y-114203806D01*
X155357495Y-114226553D01*
X155394321Y-114290339D01*
X155394329Y-114290349D01*
X155472156Y-114368176D01*
X155472170Y-114368188D01*
X155735987Y-114632005D01*
X155770013Y-114694317D01*
X155764948Y-114765132D01*
X155722401Y-114821968D01*
X155655881Y-114846779D01*
X155646892Y-114847100D01*
X96278900Y-114847100D01*
X96210779Y-114827098D01*
X96164286Y-114773442D01*
X96152900Y-114721100D01*
X96152900Y-111895398D01*
X97670900Y-111895398D01*
X97670900Y-112104602D01*
X97702561Y-112304500D01*
X97703628Y-112311237D01*
X97768273Y-112510193D01*
X97863253Y-112696602D01*
X97986219Y-112865852D01*
X98134147Y-113013780D01*
X98197456Y-113059776D01*
X98303400Y-113136748D01*
X98489803Y-113231725D01*
X98489805Y-113231725D01*
X98489806Y-113231726D01*
X98556124Y-113253274D01*
X98688768Y-113296373D01*
X98895398Y-113329100D01*
X98895401Y-113329100D01*
X99104599Y-113329100D01*
X99104602Y-113329100D01*
X99311232Y-113296373D01*
X99510197Y-113231725D01*
X99696600Y-113136748D01*
X99865851Y-113013781D01*
X100013781Y-112865851D01*
X100136748Y-112696600D01*
X100231725Y-112510197D01*
X100296373Y-112311232D01*
X100329100Y-112104602D01*
X100329100Y-111895398D01*
X100296373Y-111688768D01*
X100231725Y-111489803D01*
X100136748Y-111303400D01*
X100123726Y-111285477D01*
X100013780Y-111134147D01*
X99865852Y-110986219D01*
X99696602Y-110863253D01*
X99510193Y-110768273D01*
X99311237Y-110703628D01*
X99311233Y-110703627D01*
X99311232Y-110703627D01*
X99104602Y-110670900D01*
X98895398Y-110670900D01*
X98688768Y-110703627D01*
X98688762Y-110703628D01*
X98489806Y-110768273D01*
X98303397Y-110863253D01*
X98134147Y-110986219D01*
X97986219Y-111134147D01*
X97863253Y-111303397D01*
X97768273Y-111489806D01*
X97703628Y-111688762D01*
X97703627Y-111688767D01*
X97703627Y-111688768D01*
X97670900Y-111895398D01*
X96152900Y-111895398D01*
X96152900Y-102315073D01*
X102040900Y-102315073D01*
X102040900Y-102484927D01*
X102067471Y-102652690D01*
X102119959Y-102814231D01*
X102181628Y-102935264D01*
X102197072Y-102965574D01*
X102296908Y-103102988D01*
X102417011Y-103223091D01*
X102525259Y-103301737D01*
X102554428Y-103322929D01*
X102705769Y-103400041D01*
X102867310Y-103452529D01*
X103035073Y-103479100D01*
X103035076Y-103479100D01*
X103204924Y-103479100D01*
X103204927Y-103479100D01*
X103372690Y-103452529D01*
X103534231Y-103400041D01*
X103685572Y-103322929D01*
X103822987Y-103223092D01*
X103943092Y-103102987D01*
X104042929Y-102965572D01*
X104120041Y-102814231D01*
X104172529Y-102652690D01*
X104199100Y-102484927D01*
X104199100Y-102315073D01*
X104189410Y-102253894D01*
X105970900Y-102253894D01*
X105970900Y-102546105D01*
X106009038Y-102835801D01*
X106009039Y-102835807D01*
X106009040Y-102835809D01*
X106014449Y-102855995D01*
X106084667Y-103118053D01*
X106084668Y-103118055D01*
X106084669Y-103118058D01*
X106196491Y-103388021D01*
X106196492Y-103388022D01*
X106196497Y-103388033D01*
X106342591Y-103641075D01*
X106342596Y-103641082D01*
X106520470Y-103872892D01*
X106520489Y-103872913D01*
X106727086Y-104079510D01*
X106727107Y-104079529D01*
X106958917Y-104257403D01*
X106958924Y-104257408D01*
X107211966Y-104403502D01*
X107211970Y-104403503D01*
X107211979Y-104403509D01*
X107481942Y-104515331D01*
X107764191Y-104590960D01*
X107764197Y-104590960D01*
X107764198Y-104590961D01*
X107797446Y-104595338D01*
X108053897Y-104629100D01*
X108053904Y-104629100D01*
X108346096Y-104629100D01*
X108346103Y-104629100D01*
X108635809Y-104590960D01*
X108918058Y-104515331D01*
X109188021Y-104403509D01*
X109441079Y-104257406D01*
X109672901Y-104079522D01*
X109879522Y-103872901D01*
X110057406Y-103641079D01*
X110203509Y-103388021D01*
X110315331Y-103118058D01*
X110390960Y-102835809D01*
X110429100Y-102546103D01*
X110429100Y-102315073D01*
X112200900Y-102315073D01*
X112200900Y-102484927D01*
X112227471Y-102652690D01*
X112279959Y-102814231D01*
X112341628Y-102935264D01*
X112357072Y-102965574D01*
X112456908Y-103102988D01*
X112577011Y-103223091D01*
X112685259Y-103301737D01*
X112714428Y-103322929D01*
X112865769Y-103400041D01*
X113027310Y-103452529D01*
X113195073Y-103479100D01*
X113195076Y-103479100D01*
X113364924Y-103479100D01*
X113364927Y-103479100D01*
X113532690Y-103452529D01*
X113694231Y-103400041D01*
X113845572Y-103322929D01*
X113982987Y-103223092D01*
X114103092Y-103102987D01*
X114202929Y-102965572D01*
X114280041Y-102814231D01*
X114332529Y-102652690D01*
X114359100Y-102484927D01*
X114359100Y-102315073D01*
X114332529Y-102147310D01*
X114280041Y-101985769D01*
X114202929Y-101834428D01*
X114132149Y-101737007D01*
X114103091Y-101697011D01*
X113982988Y-101576908D01*
X113845574Y-101477072D01*
X113769762Y-101438444D01*
X113694231Y-101399959D01*
X113532690Y-101347471D01*
X113364927Y-101320900D01*
X113195073Y-101320900D01*
X113027310Y-101347471D01*
X113027307Y-101347471D01*
X113027306Y-101347472D01*
X112865769Y-101399959D01*
X112865767Y-101399960D01*
X112714425Y-101477072D01*
X112577011Y-101576908D01*
X112456908Y-101697011D01*
X112357072Y-101834425D01*
X112279960Y-101985767D01*
X112279959Y-101985769D01*
X112259160Y-102049783D01*
X112227471Y-102147310D01*
X112200900Y-102315073D01*
X110429100Y-102315073D01*
X110429100Y-102253897D01*
X110393801Y-101985769D01*
X110390961Y-101964198D01*
X110390960Y-101964197D01*
X110390960Y-101964191D01*
X110315331Y-101681942D01*
X110203509Y-101411979D01*
X110203503Y-101411970D01*
X110203502Y-101411966D01*
X110057408Y-101158924D01*
X110057403Y-101158917D01*
X109879529Y-100927107D01*
X109879510Y-100927086D01*
X109672913Y-100720489D01*
X109672892Y-100720470D01*
X109441082Y-100542596D01*
X109441075Y-100542591D01*
X109188033Y-100396497D01*
X109188025Y-100396493D01*
X109188021Y-100396491D01*
X108918058Y-100284669D01*
X108918055Y-100284668D01*
X108918053Y-100284667D01*
X108659455Y-100215376D01*
X108635809Y-100209040D01*
X108635807Y-100209039D01*
X108635801Y-100209038D01*
X108346105Y-100170900D01*
X108346103Y-100170900D01*
X108053897Y-100170900D01*
X108053894Y-100170900D01*
X107764198Y-100209038D01*
X107481946Y-100284667D01*
X107481942Y-100284669D01*
X107241513Y-100384258D01*
X107211977Y-100396492D01*
X107211966Y-100396497D01*
X106958924Y-100542591D01*
X106958917Y-100542596D01*
X106727107Y-100720470D01*
X106727086Y-100720489D01*
X106520489Y-100927086D01*
X106520470Y-100927107D01*
X106342596Y-101158917D01*
X106342591Y-101158924D01*
X106196497Y-101411966D01*
X106196492Y-101411977D01*
X106196491Y-101411979D01*
X106109356Y-101622342D01*
X106084669Y-101681942D01*
X106084667Y-101681946D01*
X106009038Y-101964198D01*
X105970900Y-102253894D01*
X104189410Y-102253894D01*
X104172529Y-102147310D01*
X104120041Y-101985769D01*
X104042929Y-101834428D01*
X103972149Y-101737007D01*
X103943091Y-101697011D01*
X103822988Y-101576908D01*
X103685574Y-101477072D01*
X103609762Y-101438444D01*
X103534231Y-101399959D01*
X103372690Y-101347471D01*
X103204927Y-101320900D01*
X103035073Y-101320900D01*
X102867310Y-101347471D01*
X102867307Y-101347471D01*
X102867306Y-101347472D01*
X102705769Y-101399959D01*
X102705767Y-101399960D01*
X102554425Y-101477072D01*
X102417011Y-101576908D01*
X102296908Y-101697011D01*
X102197072Y-101834425D01*
X102119960Y-101985767D01*
X102119959Y-101985769D01*
X102099160Y-102049783D01*
X102067471Y-102147310D01*
X102040900Y-102315073D01*
X96152900Y-102315073D01*
X96152900Y-99753399D01*
X103035500Y-99753399D01*
X103035500Y-99966601D01*
X103068090Y-100172362D01*
X103068854Y-100177183D01*
X103134596Y-100379518D01*
X103134736Y-100379947D01*
X103228538Y-100564044D01*
X103231530Y-100569916D01*
X103356847Y-100742399D01*
X103507600Y-100893152D01*
X103555706Y-100928103D01*
X103680087Y-101018472D01*
X103870053Y-101115264D01*
X104072821Y-101181147D01*
X104283399Y-101214500D01*
X104283402Y-101214500D01*
X104496598Y-101214500D01*
X104496601Y-101214500D01*
X104707179Y-101181147D01*
X104909947Y-101115264D01*
X105099913Y-101018472D01*
X105272397Y-100893154D01*
X105423154Y-100742397D01*
X105548472Y-100569913D01*
X105645264Y-100379947D01*
X105711147Y-100177179D01*
X105744500Y-99966601D01*
X105744500Y-99753399D01*
X105711147Y-99542821D01*
X105645264Y-99340053D01*
X105645260Y-99340045D01*
X105619780Y-99290037D01*
X105606676Y-99220260D01*
X105633377Y-99154476D01*
X105642943Y-99143749D01*
X110347016Y-94439677D01*
X110409326Y-94405653D01*
X110480141Y-94410718D01*
X110536977Y-94453265D01*
X110554164Y-94484740D01*
X110562529Y-94507167D01*
X110599826Y-94607165D01*
X110599827Y-94607167D01*
X110646967Y-94670137D01*
X110682456Y-94717544D01*
X110723620Y-94748359D01*
X110792832Y-94800172D01*
X110792833Y-94800173D01*
X110792835Y-94800173D01*
X110792837Y-94800175D01*
X110922027Y-94848360D01*
X110979136Y-94854500D01*
X110979141Y-94854500D01*
X111520859Y-94854500D01*
X111520864Y-94854500D01*
X111577973Y-94848360D01*
X111707163Y-94800175D01*
X111817544Y-94717544D01*
X111900175Y-94607163D01*
X111948360Y-94477973D01*
X111954500Y-94420864D01*
X111954500Y-93579136D01*
X111948360Y-93522027D01*
X111900175Y-93392837D01*
X111900173Y-93392835D01*
X111900173Y-93392833D01*
X111900172Y-93392832D01*
X111859301Y-93338236D01*
X111817544Y-93282456D01*
X111746804Y-93229500D01*
X111707167Y-93199827D01*
X111707166Y-93199826D01*
X111675929Y-93188175D01*
X111577973Y-93151640D01*
X111570834Y-93150872D01*
X111520871Y-93145500D01*
X111520864Y-93145500D01*
X110979136Y-93145500D01*
X110979128Y-93145500D01*
X110922027Y-93151640D01*
X110792833Y-93199826D01*
X110792832Y-93199827D01*
X110682456Y-93282456D01*
X110599827Y-93392832D01*
X110599826Y-93392833D01*
X110551639Y-93522029D01*
X110551298Y-93523475D01*
X110550725Y-93524481D01*
X110548886Y-93529412D01*
X110548087Y-93529114D01*
X110516167Y-93585171D01*
X110453258Y-93618079D01*
X110428675Y-93620500D01*
X110200038Y-93620500D01*
X110140963Y-93636328D01*
X110103513Y-93646363D01*
X110016984Y-93696321D01*
X110016979Y-93696325D01*
X109997042Y-93716263D01*
X109946324Y-93766981D01*
X109946322Y-93766983D01*
X105106257Y-98607047D01*
X105043945Y-98641073D01*
X104973130Y-98636008D01*
X104959966Y-98630222D01*
X104909947Y-98604736D01*
X104909944Y-98604735D01*
X104909942Y-98604734D01*
X104707183Y-98538854D01*
X104707181Y-98538853D01*
X104707179Y-98538853D01*
X104496601Y-98505500D01*
X104283399Y-98505500D01*
X104072821Y-98538853D01*
X104072819Y-98538853D01*
X104072816Y-98538854D01*
X103870057Y-98604734D01*
X103870051Y-98604737D01*
X103680083Y-98701530D01*
X103507600Y-98826847D01*
X103356847Y-98977600D01*
X103231530Y-99150083D01*
X103134737Y-99340051D01*
X103134734Y-99340057D01*
X103068854Y-99542816D01*
X103068853Y-99542819D01*
X103068853Y-99542821D01*
X103035500Y-99753399D01*
X96152900Y-99753399D01*
X96152900Y-92895398D01*
X97670900Y-92895398D01*
X97670900Y-93104602D01*
X97699232Y-93283483D01*
X97703628Y-93311237D01*
X97768273Y-93510193D01*
X97768274Y-93510196D01*
X97768275Y-93510197D01*
X97796922Y-93566419D01*
X97863253Y-93696602D01*
X97986219Y-93865852D01*
X98134147Y-94013780D01*
X98233092Y-94085667D01*
X98303400Y-94136748D01*
X98489803Y-94231725D01*
X98688768Y-94296373D01*
X98895398Y-94329100D01*
X98895401Y-94329100D01*
X99104599Y-94329100D01*
X99104602Y-94329100D01*
X99311232Y-94296373D01*
X99510197Y-94231725D01*
X99696600Y-94136748D01*
X99865851Y-94013781D01*
X100013781Y-93865851D01*
X100136748Y-93696600D01*
X100231725Y-93510197D01*
X100296373Y-93311232D01*
X100329100Y-93104602D01*
X100329100Y-92895398D01*
X100296373Y-92688768D01*
X100231725Y-92489803D01*
X100136748Y-92303400D01*
X100043444Y-92174977D01*
X100013780Y-92134147D01*
X99865852Y-91986219D01*
X99696602Y-91863253D01*
X99510193Y-91768273D01*
X99311237Y-91703628D01*
X99311233Y-91703627D01*
X99311232Y-91703627D01*
X99104602Y-91670900D01*
X98895398Y-91670900D01*
X98688768Y-91703627D01*
X98688762Y-91703628D01*
X98489806Y-91768273D01*
X98303397Y-91863253D01*
X98134147Y-91986219D01*
X97986219Y-92134147D01*
X97863253Y-92303397D01*
X97768273Y-92489806D01*
X97703628Y-92688762D01*
X97703627Y-92688767D01*
X97703627Y-92688768D01*
X97670900Y-92895398D01*
X96152900Y-92895398D01*
X96152900Y-90278900D01*
X96172902Y-90210779D01*
X96226558Y-90164286D01*
X96278900Y-90152900D01*
X185721100Y-90152900D01*
X185789221Y-90172902D01*
G37*
%TD.AperFunction*%
%TA.AperFunction,Conductor*%
G36*
X156765758Y-111067303D02*
G01*
X156818718Y-111093193D01*
X156872450Y-111119461D01*
X156941354Y-111129500D01*
X156941360Y-111129500D01*
X158283640Y-111129500D01*
X158283646Y-111129500D01*
X158352550Y-111119461D01*
X158423006Y-111085017D01*
X158459242Y-111067303D01*
X158514581Y-111054500D01*
X161194501Y-111054500D01*
X161262622Y-111074502D01*
X161309115Y-111128158D01*
X161320501Y-111180500D01*
X161320501Y-111498246D01*
X161320502Y-111498270D01*
X161326959Y-111558339D01*
X161326959Y-111558341D01*
X161377657Y-111694266D01*
X161377658Y-111694267D01*
X161464596Y-111810404D01*
X161552785Y-111876421D01*
X161583123Y-111899131D01*
X161625670Y-111955967D01*
X161630736Y-112026782D01*
X161596711Y-112089095D01*
X161583123Y-112100869D01*
X161580733Y-112102657D01*
X161580733Y-112102658D01*
X161578136Y-112104602D01*
X161464596Y-112189595D01*
X161377657Y-112305734D01*
X161326962Y-112441650D01*
X161326960Y-112441658D01*
X161320139Y-112505101D01*
X161319203Y-112505000D01*
X161296901Y-112568204D01*
X161240831Y-112611754D01*
X161194707Y-112620500D01*
X160905499Y-112620500D01*
X160837378Y-112600498D01*
X160790885Y-112546842D01*
X160779499Y-112494500D01*
X160779499Y-112326753D01*
X160779499Y-112326746D01*
X160773040Y-112266658D01*
X160722342Y-112130733D01*
X160635404Y-112014596D01*
X160519267Y-111927658D01*
X160519265Y-111927657D01*
X160519266Y-111927657D01*
X160383349Y-111876962D01*
X160383344Y-111876960D01*
X160383342Y-111876960D01*
X160346732Y-111873024D01*
X160323256Y-111870500D01*
X159476753Y-111870500D01*
X159476729Y-111870502D01*
X159416660Y-111876959D01*
X159416658Y-111876959D01*
X159280733Y-111927657D01*
X159164596Y-112014596D01*
X159077657Y-112130734D01*
X159026962Y-112266650D01*
X159026960Y-112266658D01*
X159020500Y-112326737D01*
X159020500Y-113673246D01*
X159020501Y-113673265D01*
X159021337Y-113681032D01*
X159008731Y-113750900D01*
X158960353Y-113802862D01*
X158896059Y-113820500D01*
X156687870Y-113820500D01*
X156657954Y-113811716D01*
X156627485Y-113805088D01*
X156622389Y-113801273D01*
X156619749Y-113800498D01*
X156598775Y-113783595D01*
X156565405Y-113750225D01*
X156531379Y-113687913D01*
X156528500Y-113661130D01*
X156528500Y-112171315D01*
X156528501Y-112171302D01*
X156528501Y-112061228D01*
X156528500Y-112061224D01*
X156506932Y-111980732D01*
X156502638Y-111964709D01*
X156502638Y-111964708D01*
X156456196Y-111884267D01*
X156452678Y-111878174D01*
X156452670Y-111878164D01*
X156377630Y-111803124D01*
X156377607Y-111803103D01*
X155993108Y-111418604D01*
X155959082Y-111356292D01*
X155964147Y-111285477D01*
X156006694Y-111228641D01*
X156058666Y-111207475D01*
X156058442Y-111206637D01*
X156065114Y-111204849D01*
X156065758Y-111204587D01*
X156066415Y-111204500D01*
X156066419Y-111204500D01*
X156194730Y-111170119D01*
X156309770Y-111103700D01*
X156309776Y-111103694D01*
X156322066Y-111091405D01*
X156384378Y-111057379D01*
X156411161Y-111054500D01*
X156710419Y-111054500D01*
X156765758Y-111067303D01*
G37*
%TD.AperFunction*%
%TA.AperFunction,Conductor*%
G36*
X146724890Y-110071424D02*
G01*
X146743708Y-110072770D01*
X146757955Y-110083301D01*
X146773954Y-110089048D01*
X146789839Y-110104551D01*
X146790460Y-110103931D01*
X146896069Y-110209540D01*
X146894489Y-110211119D01*
X146929464Y-110259011D01*
X146933691Y-110329881D01*
X146898932Y-110391787D01*
X146836221Y-110425073D01*
X146830606Y-110426093D01*
X146743138Y-110439945D01*
X146633204Y-110495959D01*
X146545959Y-110583204D01*
X146516227Y-110641558D01*
X146489946Y-110693138D01*
X146475500Y-110784347D01*
X146475500Y-110784350D01*
X146475500Y-111215651D01*
X146489945Y-111306860D01*
X146545959Y-111416795D01*
X146583595Y-111454431D01*
X146617621Y-111516743D01*
X146620500Y-111543526D01*
X146620500Y-112578116D01*
X146600498Y-112646237D01*
X146583595Y-112667211D01*
X145892211Y-113358595D01*
X145829899Y-113392621D01*
X145803116Y-113395500D01*
X145218166Y-113395500D01*
X145192898Y-113399502D01*
X145123442Y-113410502D01*
X145120600Y-113411950D01*
X145116778Y-113412667D01*
X145114016Y-113413565D01*
X145113899Y-113413207D01*
X145050822Y-113425049D01*
X144985039Y-113398344D01*
X144944138Y-113340313D01*
X144938957Y-113279969D01*
X144942324Y-113258712D01*
X144954500Y-113181834D01*
X144954500Y-112818166D01*
X144939498Y-112723445D01*
X144903358Y-112652517D01*
X144881326Y-112609276D01*
X144790723Y-112518673D01*
X144676553Y-112460501D01*
X144607102Y-112449502D01*
X144581834Y-112445500D01*
X143343166Y-112445500D01*
X143317898Y-112449502D01*
X143248446Y-112460501D01*
X143134276Y-112518673D01*
X143134274Y-112518675D01*
X143069355Y-112583595D01*
X143041986Y-112598539D01*
X143015758Y-112615396D01*
X143009459Y-112616301D01*
X143007043Y-112617621D01*
X142980260Y-112620500D01*
X142809384Y-112620500D01*
X142741263Y-112600498D01*
X142720289Y-112583595D01*
X141960864Y-111824170D01*
X141960852Y-111824156D01*
X141882291Y-111745595D01*
X141848265Y-111683283D01*
X141853330Y-111612468D01*
X141895877Y-111555632D01*
X141962397Y-111530821D01*
X141971386Y-111530500D01*
X144974654Y-111530500D01*
X144974658Y-111530501D01*
X145074582Y-111530501D01*
X145150704Y-111510103D01*
X145171102Y-111504638D01*
X145257639Y-111454676D01*
X145328296Y-111384019D01*
X145338663Y-111373652D01*
X145338670Y-111373642D01*
X146610583Y-110101729D01*
X146625820Y-110093409D01*
X146637951Y-110080980D01*
X146656336Y-110076746D01*
X146672893Y-110067705D01*
X146690215Y-110068943D01*
X146707137Y-110065047D01*
X146724890Y-110071424D01*
G37*
%TD.AperFunction*%
%TA.AperFunction,Conductor*%
G36*
X119152602Y-107301502D02*
G01*
X119173576Y-107318405D01*
X119505942Y-107650771D01*
X119539968Y-107713083D01*
X119542847Y-107739866D01*
X119542847Y-107867118D01*
X119562615Y-107966499D01*
X119567999Y-107993564D01*
X119617336Y-108112675D01*
X119656355Y-108171070D01*
X119688963Y-108219872D01*
X119688968Y-108219878D01*
X119780121Y-108311031D01*
X119780127Y-108311036D01*
X119887325Y-108382664D01*
X120006436Y-108432001D01*
X120132884Y-108457153D01*
X120132885Y-108457153D01*
X120261809Y-108457153D01*
X120261810Y-108457153D01*
X120388258Y-108432001D01*
X120507369Y-108382664D01*
X120614567Y-108311036D01*
X120705730Y-108219873D01*
X120705731Y-108219870D01*
X120705734Y-108219868D01*
X120779628Y-108109277D01*
X120834104Y-108063749D01*
X120904547Y-108054900D01*
X120968592Y-108085541D01*
X120973488Y-108090183D01*
X123762323Y-110879018D01*
X123762324Y-110879019D01*
X123832981Y-110949676D01*
X123832982Y-110949677D01*
X123832984Y-110949678D01*
X123919514Y-110999636D01*
X123919518Y-110999638D01*
X123939915Y-111005103D01*
X124016038Y-111025501D01*
X124115962Y-111025501D01*
X124115966Y-111025500D01*
X137806304Y-111025500D01*
X137806320Y-111025501D01*
X137814038Y-111025501D01*
X137913961Y-111025501D01*
X137913962Y-111025501D01*
X137990080Y-111005104D01*
X137990082Y-111005104D01*
X137997548Y-111003102D01*
X138010482Y-110999638D01*
X138097019Y-110949676D01*
X138167676Y-110879019D01*
X138178041Y-110868654D01*
X138178047Y-110868645D01*
X138435291Y-110611401D01*
X138459723Y-110598060D01*
X138482270Y-110581746D01*
X138492975Y-110579903D01*
X138497601Y-110577378D01*
X138517432Y-110574691D01*
X138520907Y-110574499D01*
X138675652Y-110574499D01*
X138758577Y-110561365D01*
X138764984Y-110561012D01*
X138793543Y-110567710D01*
X138822637Y-110571471D01*
X138829457Y-110576134D01*
X138834105Y-110577225D01*
X138840085Y-110583402D01*
X138861031Y-110597725D01*
X139543711Y-111280405D01*
X139577737Y-111342717D01*
X139572672Y-111413532D01*
X139530125Y-111470368D01*
X139463605Y-111495179D01*
X139454616Y-111495500D01*
X139318166Y-111495500D01*
X139300778Y-111498254D01*
X139223446Y-111510501D01*
X139109276Y-111568673D01*
X139109274Y-111568675D01*
X139044355Y-111633595D01*
X138982043Y-111667621D01*
X138955260Y-111670500D01*
X135919740Y-111670500D01*
X135851619Y-111650498D01*
X135830645Y-111633595D01*
X135765723Y-111568673D01*
X135651553Y-111510501D01*
X135574222Y-111498254D01*
X135556834Y-111495500D01*
X134318166Y-111495500D01*
X134300778Y-111498254D01*
X134223446Y-111510501D01*
X134109276Y-111568673D01*
X134109274Y-111568675D01*
X134044355Y-111633595D01*
X133982043Y-111667621D01*
X133955260Y-111670500D01*
X130669740Y-111670500D01*
X130601619Y-111650498D01*
X130580645Y-111633595D01*
X130515723Y-111568673D01*
X130401553Y-111510501D01*
X130324222Y-111498254D01*
X130306834Y-111495500D01*
X129068166Y-111495500D01*
X129050778Y-111498254D01*
X128973446Y-111510501D01*
X128859276Y-111568673D01*
X128768673Y-111659276D01*
X128710501Y-111773446D01*
X128695500Y-111868167D01*
X128695500Y-112231833D01*
X128711042Y-112329970D01*
X128701942Y-112400381D01*
X128656219Y-112454694D01*
X128588391Y-112475666D01*
X128536009Y-112463486D01*
X128535984Y-112463565D01*
X128535065Y-112463266D01*
X128529395Y-112461948D01*
X128526556Y-112460501D01*
X128452172Y-112448721D01*
X128431834Y-112445500D01*
X127193166Y-112445500D01*
X127167898Y-112449502D01*
X127098446Y-112460501D01*
X126984276Y-112518673D01*
X126984274Y-112518675D01*
X126919355Y-112583595D01*
X126857043Y-112617621D01*
X126830260Y-112620500D01*
X120309384Y-112620500D01*
X120241263Y-112600498D01*
X120220289Y-112583595D01*
X115305949Y-107669255D01*
X115271923Y-107606943D01*
X115276988Y-107536128D01*
X115319535Y-107479292D01*
X115386055Y-107454481D01*
X115423261Y-107459020D01*
X115423344Y-107458502D01*
X115433135Y-107460052D01*
X115433138Y-107460054D01*
X115524347Y-107474500D01*
X115855652Y-107474499D01*
X115946862Y-107460054D01*
X116056796Y-107404040D01*
X116110905Y-107349931D01*
X116173217Y-107315905D01*
X116244032Y-107320970D01*
X116289095Y-107349931D01*
X116343204Y-107404040D01*
X116453138Y-107460054D01*
X116544347Y-107474500D01*
X116875652Y-107474499D01*
X116966862Y-107460054D01*
X117076796Y-107404040D01*
X117162432Y-107318404D01*
X117224744Y-107284379D01*
X117251527Y-107281500D01*
X119084481Y-107281500D01*
X119152602Y-107301502D01*
G37*
%TD.AperFunction*%
%TA.AperFunction,Conductor*%
G36*
X154150480Y-106077711D02*
G01*
X154189977Y-106104444D01*
X155783769Y-107698236D01*
X155866622Y-107781089D01*
X155866623Y-107781090D01*
X155866625Y-107781091D01*
X155896001Y-107798051D01*
X155968094Y-107839674D01*
X155968100Y-107839675D01*
X155968101Y-107839676D01*
X156017371Y-107852878D01*
X156017372Y-107852878D01*
X156081272Y-107870000D01*
X156081273Y-107870000D01*
X156867016Y-107870000D01*
X156885181Y-107871316D01*
X156895023Y-107872749D01*
X156941354Y-107879500D01*
X156941360Y-107879500D01*
X158283640Y-107879500D01*
X158283646Y-107879500D01*
X158332177Y-107872429D01*
X158339819Y-107871316D01*
X158357984Y-107870000D01*
X158519440Y-107870000D01*
X158519442Y-107870000D01*
X158583342Y-107852878D01*
X158632620Y-107839674D01*
X158734092Y-107781089D01*
X158816945Y-107698236D01*
X159264588Y-107250593D01*
X159266457Y-107247356D01*
X159266603Y-107247104D01*
X159274057Y-107234192D01*
X159323174Y-107149120D01*
X159332142Y-107115652D01*
X159345335Y-107066418D01*
X159353499Y-107035946D01*
X159354578Y-107027752D01*
X159356683Y-107028029D01*
X159362283Y-107008955D01*
X159368912Y-106978486D01*
X159372726Y-106973390D01*
X159373502Y-106970750D01*
X159390405Y-106949776D01*
X159424776Y-106915405D01*
X159487088Y-106881379D01*
X159513871Y-106878500D01*
X169696921Y-106878500D01*
X169765042Y-106898502D01*
X169786016Y-106915405D01*
X170901264Y-108030653D01*
X170935290Y-108092965D01*
X170930225Y-108163780D01*
X170887678Y-108220616D01*
X170821158Y-108245427D01*
X170754967Y-108232015D01*
X170653176Y-108180150D01*
X170653164Y-108180145D01*
X170480346Y-108123993D01*
X170480342Y-108123992D01*
X170480341Y-108123992D01*
X170300856Y-108095564D01*
X170119134Y-108095564D01*
X169939649Y-108123992D01*
X169939643Y-108123993D01*
X169774424Y-108177676D01*
X169761810Y-108178036D01*
X169750200Y-108182981D01*
X169726988Y-108179030D01*
X169703456Y-108179703D01*
X169690953Y-108172898D01*
X169680209Y-108171070D01*
X169656483Y-108154138D01*
X169650549Y-108150909D01*
X169648419Y-108148965D01*
X169516178Y-108016724D01*
X169493578Y-108003676D01*
X169429185Y-107966499D01*
X169332156Y-107940500D01*
X160790275Y-107940500D01*
X160730890Y-107956412D01*
X160693241Y-107966500D01*
X160606256Y-108016721D01*
X160606251Y-108016725D01*
X160570738Y-108052239D01*
X160535224Y-108087753D01*
X160535222Y-108087755D01*
X160390962Y-108232015D01*
X160264381Y-108358596D01*
X160202069Y-108392621D01*
X160175286Y-108395500D01*
X159501753Y-108395500D01*
X159501729Y-108395502D01*
X159441660Y-108401959D01*
X159441658Y-108401959D01*
X159305733Y-108452657D01*
X159213817Y-108521464D01*
X159184199Y-108532510D01*
X159155347Y-108545438D01*
X159151212Y-108544813D01*
X159147296Y-108546274D01*
X159116407Y-108539554D01*
X159085147Y-108534831D01*
X159080838Y-108531816D01*
X159077922Y-108531182D01*
X159055117Y-108515226D01*
X159052068Y-108512545D01*
X158959247Y-108419724D01*
X158932878Y-108404500D01*
X158872254Y-108369499D01*
X158775225Y-108343500D01*
X158775223Y-108343500D01*
X158510490Y-108343500D01*
X158455151Y-108330697D01*
X158352552Y-108280540D01*
X158352550Y-108280539D01*
X158283647Y-108270500D01*
X158283646Y-108270500D01*
X156941354Y-108270500D01*
X156941352Y-108270500D01*
X156872449Y-108280539D01*
X156872447Y-108280540D01*
X156766160Y-108332500D01*
X156766158Y-108332501D01*
X156682501Y-108416158D01*
X156682500Y-108416160D01*
X156630540Y-108522447D01*
X156630539Y-108522449D01*
X156620500Y-108591352D01*
X156620500Y-108858647D01*
X156630539Y-108927550D01*
X156630540Y-108927555D01*
X156663347Y-108994662D01*
X156675296Y-109064645D01*
X156663347Y-109105338D01*
X156630540Y-109172444D01*
X156630539Y-109172449D01*
X156620500Y-109241352D01*
X156620500Y-109508647D01*
X156630539Y-109577550D01*
X156630540Y-109577555D01*
X156663347Y-109644662D01*
X156675296Y-109714645D01*
X156663347Y-109755338D01*
X156630540Y-109822444D01*
X156630539Y-109822449D01*
X156620500Y-109891352D01*
X156620500Y-110158643D01*
X156620627Y-110160397D01*
X156620500Y-110160983D01*
X156620500Y-110163205D01*
X156620019Y-110163205D01*
X156617718Y-110173828D01*
X156619674Y-110187432D01*
X156610349Y-110207847D01*
X156605599Y-110229784D01*
X156595888Y-110239511D01*
X156590180Y-110252012D01*
X156571299Y-110264146D01*
X156555442Y-110280032D01*
X156540723Y-110283795D01*
X156530454Y-110290396D01*
X156494956Y-110295500D01*
X156342146Y-110295500D01*
X156279146Y-110278619D01*
X156194730Y-110229881D01*
X156193663Y-110229595D01*
X156066419Y-110195500D01*
X155933581Y-110195500D01*
X155848040Y-110218420D01*
X155805269Y-110229881D01*
X155690233Y-110296297D01*
X155690223Y-110296305D01*
X155596305Y-110390223D01*
X155596297Y-110390233D01*
X155529881Y-110505269D01*
X155495497Y-110633591D01*
X155495410Y-110634256D01*
X155495180Y-110634774D01*
X155493363Y-110641558D01*
X155492304Y-110641274D01*
X155466680Y-110699180D01*
X155407411Y-110738265D01*
X155336419Y-110739102D01*
X155281395Y-110706891D01*
X153616405Y-109041901D01*
X153582379Y-108979589D01*
X153579500Y-108952806D01*
X153579500Y-107767751D01*
X153579500Y-107749965D01*
X153579501Y-107749962D01*
X153579501Y-107650038D01*
X153553638Y-107553519D01*
X153553638Y-107553518D01*
X153542488Y-107534206D01*
X153503678Y-107466984D01*
X153503670Y-107466974D01*
X153428630Y-107391934D01*
X153428607Y-107391913D01*
X153237969Y-107201275D01*
X153228677Y-107191983D01*
X153228676Y-107191981D01*
X153158019Y-107121324D01*
X153136419Y-107108853D01*
X153126375Y-107099712D01*
X153114694Y-107080523D01*
X153099192Y-107064266D01*
X153096594Y-107050789D01*
X153089459Y-107039068D01*
X153090006Y-107016612D01*
X153085754Y-106994552D01*
X153090854Y-106981810D01*
X153091189Y-106968093D01*
X153103790Y-106949496D01*
X153112140Y-106928641D01*
X153122081Y-106917440D01*
X153500019Y-106539502D01*
X153558667Y-106507477D01*
X153558442Y-106506637D01*
X153561906Y-106505708D01*
X153562329Y-106505478D01*
X153563581Y-106505259D01*
X153566414Y-106504500D01*
X153566419Y-106504500D01*
X153694730Y-106470119D01*
X153809770Y-106403700D01*
X153903700Y-106309770D01*
X153970119Y-106194730D01*
X153979176Y-106160927D01*
X154016125Y-106100307D01*
X154079985Y-106069284D01*
X154150480Y-106077711D01*
G37*
%TD.AperFunction*%
%TA.AperFunction,Conductor*%
G36*
X149325946Y-104187639D02*
G01*
X150668712Y-105530405D01*
X150702738Y-105592717D01*
X150697673Y-105663532D01*
X150655126Y-105720368D01*
X150588606Y-105745179D01*
X150579617Y-105745500D01*
X149682696Y-105745500D01*
X149682680Y-105745499D01*
X149674962Y-105745499D01*
X149575038Y-105745499D01*
X149499451Y-105765752D01*
X149478522Y-105771360D01*
X149478513Y-105771364D01*
X149391984Y-105821321D01*
X149391979Y-105821325D01*
X149358805Y-105854500D01*
X149321324Y-105891981D01*
X149321322Y-105891983D01*
X149108861Y-106104444D01*
X148903680Y-106309625D01*
X148841368Y-106343650D01*
X148801122Y-106345808D01*
X148798255Y-106345500D01*
X147801753Y-106345500D01*
X147801729Y-106345502D01*
X147741660Y-106351959D01*
X147741658Y-106351959D01*
X147605733Y-106402657D01*
X147489596Y-106489596D01*
X147402658Y-106605733D01*
X147362613Y-106713094D01*
X147323851Y-106766981D01*
X147316138Y-106773225D01*
X147254481Y-106808824D01*
X147183824Y-106879481D01*
X147183822Y-106879483D01*
X147179157Y-106884147D01*
X147179147Y-106884156D01*
X147045595Y-107017709D01*
X146983283Y-107051735D01*
X146912468Y-107046670D01*
X146855632Y-107004123D01*
X146830821Y-106937603D01*
X146830500Y-106928614D01*
X146830500Y-105670883D01*
X146850502Y-105602762D01*
X146867400Y-105581792D01*
X148032789Y-104416403D01*
X148095101Y-104382378D01*
X148121884Y-104379499D01*
X148798247Y-104379499D01*
X148798254Y-104379499D01*
X148858342Y-104373040D01*
X148994267Y-104322342D01*
X149110404Y-104235404D01*
X149135988Y-104201227D01*
X149192818Y-104158683D01*
X149263633Y-104153616D01*
X149325946Y-104187639D01*
G37*
%TD.AperFunction*%
%TA.AperFunction,Conductor*%
G36*
X153756954Y-100139493D02*
G01*
X153773432Y-100137124D01*
X153791246Y-100145259D01*
X153810555Y-100148507D01*
X153822871Y-100159703D01*
X153838012Y-100166618D01*
X153848598Y-100183089D01*
X153863089Y-100196263D01*
X153875121Y-100224360D01*
X153876396Y-100226344D01*
X153877190Y-100229173D01*
X153894499Y-100293768D01*
X153928995Y-100353517D01*
X153928995Y-100353519D01*
X153944721Y-100380757D01*
X153944726Y-100380763D01*
X154492061Y-100928097D01*
X154492066Y-100928103D01*
X154496466Y-100932503D01*
X154496467Y-100932504D01*
X154833596Y-101269633D01*
X154867620Y-101331944D01*
X154870500Y-101358727D01*
X154870500Y-102337755D01*
X154870499Y-102337759D01*
X154870499Y-102437683D01*
X154888403Y-102504500D01*
X154890933Y-102513942D01*
X154890934Y-102513951D01*
X154896361Y-102534201D01*
X154946321Y-102620736D01*
X154946329Y-102620746D01*
X155024156Y-102698573D01*
X155024170Y-102698585D01*
X155330192Y-103004607D01*
X155330213Y-103004630D01*
X155405253Y-103079670D01*
X155405258Y-103079674D01*
X155405260Y-103079676D01*
X155405261Y-103079677D01*
X155405263Y-103079678D01*
X155491792Y-103129636D01*
X155491794Y-103129636D01*
X155491797Y-103129638D01*
X155587865Y-103155379D01*
X155648486Y-103192329D01*
X155679508Y-103256190D01*
X155671080Y-103326684D01*
X155644349Y-103366180D01*
X155570302Y-103440227D01*
X155570297Y-103440233D01*
X155503881Y-103555269D01*
X155496709Y-103582036D01*
X155480889Y-103641079D01*
X155469500Y-103683582D01*
X155469500Y-103816417D01*
X155469499Y-103816417D01*
X155503881Y-103944730D01*
X155574429Y-104066922D01*
X155572567Y-104067996D01*
X155594063Y-104123591D01*
X155594500Y-104134079D01*
X155594500Y-105946127D01*
X155574498Y-106014248D01*
X155520842Y-106060741D01*
X155450568Y-106070845D01*
X155385988Y-106041351D01*
X155379405Y-106035222D01*
X152923834Y-103579651D01*
X152889808Y-103517339D01*
X152886929Y-103490556D01*
X152886929Y-103453109D01*
X152886928Y-103453105D01*
X152861777Y-103326660D01*
X152812440Y-103207549D01*
X152740812Y-103100351D01*
X152740807Y-103100345D01*
X152649654Y-103009192D01*
X152649648Y-103009187D01*
X152592036Y-102970692D01*
X152542451Y-102937560D01*
X152542448Y-102937559D01*
X152539014Y-102935264D01*
X152493486Y-102880787D01*
X152484638Y-102810344D01*
X152515279Y-102746300D01*
X152575681Y-102708989D01*
X152609014Y-102704499D01*
X152723254Y-102704499D01*
X152783342Y-102698040D01*
X152919267Y-102647342D01*
X153035404Y-102560404D01*
X153122342Y-102444267D01*
X153173040Y-102308342D01*
X153179500Y-102248255D01*
X153179499Y-101490632D01*
X153199501Y-101422512D01*
X153216399Y-101401543D01*
X153472642Y-101145300D01*
X153472652Y-101145293D01*
X153553670Y-101064275D01*
X153553676Y-101064269D01*
X153603638Y-100977732D01*
X153613217Y-100941981D01*
X153629501Y-100881212D01*
X153629501Y-100781288D01*
X153629501Y-100773571D01*
X153629500Y-100773553D01*
X153629500Y-100261842D01*
X153635016Y-100243053D01*
X153635483Y-100223477D01*
X153644812Y-100209692D01*
X153649502Y-100193721D01*
X153664301Y-100180896D01*
X153675277Y-100164681D01*
X153690577Y-100158128D01*
X153703158Y-100147228D01*
X153722542Y-100144440D01*
X153740542Y-100136733D01*
X153756954Y-100139493D01*
G37*
%TD.AperFunction*%
%TA.AperFunction,Conductor*%
G36*
X148876896Y-100803659D02*
G01*
X148928859Y-100852035D01*
X148946500Y-100916333D01*
X148946500Y-102721165D01*
X148926498Y-102789286D01*
X148872842Y-102835779D01*
X148807033Y-102846443D01*
X148798269Y-102845501D01*
X148798259Y-102845500D01*
X148798255Y-102845500D01*
X148798250Y-102845500D01*
X147801753Y-102845500D01*
X147801729Y-102845502D01*
X147741660Y-102851959D01*
X147741658Y-102851959D01*
X147605733Y-102902657D01*
X147489596Y-102989596D01*
X147402657Y-103105734D01*
X147351962Y-103241650D01*
X147351960Y-103241658D01*
X147345500Y-103301737D01*
X147345500Y-103923246D01*
X147345502Y-103923270D01*
X147349448Y-103959978D01*
X147336841Y-104029846D01*
X147313266Y-104062539D01*
X146594596Y-104781210D01*
X146532283Y-104815235D01*
X146461468Y-104810171D01*
X146404632Y-104767624D01*
X146379821Y-104701104D01*
X146379500Y-104692115D01*
X146379500Y-103592946D01*
X146399502Y-103524825D01*
X146416400Y-103503855D01*
X146707243Y-103213011D01*
X146707253Y-103213004D01*
X146788270Y-103131987D01*
X146788276Y-103131981D01*
X146825863Y-103066878D01*
X146838236Y-103045448D01*
X146838236Y-103045447D01*
X146838238Y-103045444D01*
X146849326Y-103004062D01*
X146864101Y-102948924D01*
X146864101Y-102849000D01*
X146864100Y-102848996D01*
X146864100Y-102049783D01*
X146884102Y-101981662D01*
X146901000Y-101960692D01*
X148032789Y-100828903D01*
X148095101Y-100794878D01*
X148121884Y-100791999D01*
X148798247Y-100791999D01*
X148798254Y-100791999D01*
X148807030Y-100791055D01*
X148876896Y-100803659D01*
G37*
%TD.AperFunction*%
%TA.AperFunction,Conductor*%
G36*
X149849598Y-100322855D02*
G01*
X149881764Y-100328262D01*
X149884980Y-100330552D01*
X149887103Y-100331014D01*
X149915813Y-100352507D01*
X149960066Y-100396760D01*
X149994092Y-100459072D01*
X149995134Y-100465054D01*
X150029881Y-100594730D01*
X150096297Y-100709766D01*
X150096305Y-100709776D01*
X150190223Y-100803694D01*
X150190228Y-100803698D01*
X150190230Y-100803700D01*
X150190231Y-100803701D01*
X150190233Y-100803702D01*
X150194212Y-100805999D01*
X150305270Y-100870119D01*
X150433581Y-100904500D01*
X150433583Y-100904500D01*
X150566417Y-100904500D01*
X150566419Y-100904500D01*
X150694730Y-100870119D01*
X150809770Y-100803700D01*
X150827930Y-100785540D01*
X150848405Y-100765066D01*
X150910717Y-100731040D01*
X150981532Y-100736105D01*
X151038368Y-100778652D01*
X151063179Y-100845172D01*
X151063500Y-100854161D01*
X151063500Y-102735056D01*
X151063500Y-102852228D01*
X151067056Y-102865500D01*
X151077013Y-102902658D01*
X151093826Y-102965407D01*
X151152408Y-103066874D01*
X151152412Y-103066879D01*
X151541024Y-103455491D01*
X151575050Y-103517803D01*
X151577929Y-103544586D01*
X151577929Y-103582036D01*
X151589673Y-103641075D01*
X151603081Y-103708482D01*
X151652418Y-103827593D01*
X151682686Y-103872892D01*
X151724045Y-103934790D01*
X151724050Y-103934796D01*
X151815203Y-104025949D01*
X151815209Y-104025954D01*
X151922407Y-104097582D01*
X151974760Y-104119267D01*
X151996063Y-104128091D01*
X152051344Y-104172639D01*
X152073765Y-104240002D01*
X152056207Y-104308794D01*
X152004245Y-104357172D01*
X151947845Y-104370500D01*
X151272195Y-104370500D01*
X151204074Y-104350498D01*
X151183100Y-104333595D01*
X149742405Y-102892900D01*
X149708379Y-102830588D01*
X149705500Y-102803805D01*
X149705500Y-100586125D01*
X149705501Y-100586112D01*
X149705501Y-100476039D01*
X149705501Y-100476038D01*
X149705014Y-100474220D01*
X149705051Y-100472626D01*
X149704778Y-100470548D01*
X149703597Y-100468385D01*
X149705924Y-100435841D01*
X149706698Y-100403246D01*
X149708440Y-100400671D01*
X149708662Y-100397570D01*
X149728204Y-100371464D01*
X149746487Y-100344447D01*
X149749346Y-100343222D01*
X149751209Y-100340734D01*
X149781763Y-100329337D01*
X149811750Y-100316494D01*
X149814816Y-100317009D01*
X149817729Y-100315923D01*
X149849598Y-100322855D01*
G37*
%TD.AperFunction*%
%TA.AperFunction,Conductor*%
G36*
X162326302Y-98249501D02*
G01*
X162347276Y-98266404D01*
X163008595Y-98927723D01*
X163042621Y-98990035D01*
X163045500Y-99016818D01*
X163045500Y-99398246D01*
X163045502Y-99398270D01*
X163051959Y-99458338D01*
X163051959Y-99458340D01*
X163051960Y-99458342D01*
X163076624Y-99524468D01*
X163078848Y-99555562D01*
X163083287Y-99586432D01*
X163081358Y-99590653D01*
X163081690Y-99595282D01*
X163066745Y-99622650D01*
X163053793Y-99651012D01*
X163049889Y-99653520D01*
X163047665Y-99657595D01*
X163020294Y-99672540D01*
X162994067Y-99689396D01*
X162987767Y-99690301D01*
X162985353Y-99691620D01*
X162958569Y-99694500D01*
X162896196Y-99694500D01*
X162896180Y-99694499D01*
X162888462Y-99694499D01*
X162788538Y-99694499D01*
X162788534Y-99694499D01*
X162729183Y-99710403D01*
X162692016Y-99720362D01*
X162605484Y-99770321D01*
X162605479Y-99770325D01*
X162571779Y-99804026D01*
X162534824Y-99840981D01*
X162534822Y-99840983D01*
X162396072Y-99979733D01*
X162267209Y-100108596D01*
X162204897Y-100142621D01*
X162178114Y-100145500D01*
X161501753Y-100145500D01*
X161501729Y-100145502D01*
X161441660Y-100151959D01*
X161441658Y-100151959D01*
X161305733Y-100202657D01*
X161189596Y-100289596D01*
X161102657Y-100405734D01*
X161051962Y-100541650D01*
X161051960Y-100541658D01*
X161045500Y-100601737D01*
X161045500Y-101223246D01*
X161045502Y-101223270D01*
X161049448Y-101259978D01*
X161036841Y-101329846D01*
X161013265Y-101362539D01*
X160016209Y-102359596D01*
X159953899Y-102393620D01*
X159927116Y-102396500D01*
X158278835Y-102396500D01*
X158210714Y-102376498D01*
X158164221Y-102322842D01*
X158153557Y-102257033D01*
X158154498Y-102248269D01*
X158154500Y-102248255D01*
X158154499Y-101251746D01*
X158148040Y-101191658D01*
X158097342Y-101055733D01*
X158010404Y-100939596D01*
X157894267Y-100852658D01*
X157894265Y-100852657D01*
X157894266Y-100852657D01*
X157758349Y-100801962D01*
X157758344Y-100801960D01*
X157758342Y-100801960D01*
X157721546Y-100798004D01*
X157698256Y-100795500D01*
X157076753Y-100795500D01*
X157076729Y-100795502D01*
X157040021Y-100799448D01*
X156970153Y-100786841D01*
X156937459Y-100763265D01*
X156666404Y-100492209D01*
X156632379Y-100429897D01*
X156629500Y-100403114D01*
X156629500Y-99400499D01*
X156632091Y-99391673D01*
X156630782Y-99382567D01*
X156641937Y-99358141D01*
X156649502Y-99332378D01*
X156656455Y-99326353D01*
X156660276Y-99317987D01*
X156682861Y-99303472D01*
X156703158Y-99285885D01*
X156713844Y-99283560D01*
X156720002Y-99279603D01*
X156755500Y-99274499D01*
X156912581Y-99274499D01*
X156980702Y-99294501D01*
X157027195Y-99348157D01*
X157034285Y-99367881D01*
X157035057Y-99370760D01*
X157035325Y-99371761D01*
X157035327Y-99371766D01*
X157085309Y-99458338D01*
X157085312Y-99458342D01*
X157093912Y-99473237D01*
X157393911Y-99773236D01*
X157476764Y-99856089D01*
X157578236Y-99914674D01*
X157611116Y-99923484D01*
X157691414Y-99945000D01*
X157691415Y-99945000D01*
X159858585Y-99945000D01*
X159858586Y-99945000D01*
X159938884Y-99923484D01*
X159971764Y-99914674D01*
X160073236Y-99856089D01*
X160156089Y-99773236D01*
X161662922Y-98266401D01*
X161725231Y-98232379D01*
X161752004Y-98229499D01*
X162258181Y-98229499D01*
X162326302Y-98249501D01*
G37*
%TD.AperFunction*%
%TA.AperFunction,Conductor*%
G36*
X151642512Y-97162347D02*
G01*
X151660687Y-97184359D01*
X151661583Y-97183673D01*
X151666615Y-97190231D01*
X151769768Y-97293384D01*
X151769773Y-97293388D01*
X151769775Y-97293390D01*
X151769776Y-97293391D01*
X151769778Y-97293392D01*
X151808072Y-97315501D01*
X151896126Y-97366339D01*
X151910206Y-97370111D01*
X151970828Y-97407061D01*
X152001851Y-97470921D01*
X152001175Y-97516398D01*
X151995500Y-97544925D01*
X151995500Y-99045062D01*
X151995501Y-99045072D01*
X151995654Y-99045837D01*
X151995617Y-99046245D01*
X151996108Y-99051227D01*
X151995162Y-99051320D01*
X151989320Y-99116551D01*
X151961169Y-99159504D01*
X151235264Y-99885411D01*
X151235263Y-99885411D01*
X151152416Y-99968257D01*
X151152410Y-99968265D01*
X151098836Y-100061057D01*
X151047452Y-100110050D01*
X150977739Y-100123485D01*
X150911828Y-100097098D01*
X150900622Y-100087151D01*
X150809776Y-99996305D01*
X150809766Y-99996297D01*
X150694730Y-99929881D01*
X150670852Y-99923483D01*
X150566419Y-99895500D01*
X150566417Y-99895500D01*
X150558442Y-99893363D01*
X150558997Y-99891290D01*
X150504469Y-99867160D01*
X150496760Y-99860066D01*
X150116405Y-99479711D01*
X150082379Y-99417399D01*
X150079500Y-99390616D01*
X150079500Y-98671316D01*
X150099502Y-98603195D01*
X150153158Y-98556702D01*
X150223432Y-98546598D01*
X150275502Y-98566551D01*
X150322847Y-98598185D01*
X150460067Y-98655024D01*
X150460070Y-98655025D01*
X150552999Y-98673509D01*
X150553000Y-98673509D01*
X150553000Y-98203087D01*
X150564204Y-98209556D01*
X150640504Y-98230000D01*
X150719496Y-98230000D01*
X150795796Y-98209556D01*
X150807000Y-98203087D01*
X150807000Y-98673509D01*
X150899929Y-98655025D01*
X150899932Y-98655024D01*
X151037152Y-98598185D01*
X151160642Y-98515672D01*
X151160649Y-98515667D01*
X151265667Y-98410649D01*
X151265672Y-98410642D01*
X151348185Y-98287152D01*
X151405021Y-98149939D01*
X151405023Y-98149934D01*
X151433999Y-98004264D01*
X151434000Y-98004260D01*
X151434000Y-97507000D01*
X150980000Y-97507000D01*
X150980000Y-97253000D01*
X151434001Y-97253000D01*
X151435899Y-97251101D01*
X151454002Y-97189450D01*
X151507658Y-97142957D01*
X151577932Y-97132853D01*
X151642512Y-97162347D01*
G37*
%TD.AperFunction*%
%TD*%
M02*
