%TF.GenerationSoftware,KiCad,Pcbnew,9.0.2*%
%TF.CreationDate,2025-05-27T14:22:58+08:00*%
%TF.ProjectId,tsubaki_lite,74737562-616b-4695-9f6c-6974652e6b69,3*%
%TF.SameCoordinates,Original*%
%TF.FileFunction,Legend,Top*%
%TF.FilePolarity,Positive*%
%FSLAX46Y46*%
G04 Gerber Fmt 4.6, Leading zero omitted, Abs format (unit mm)*
G04 Created by KiCad (PCBNEW 9.0.2) date 2025-05-27 14:22:58*
%MOMM*%
%LPD*%
G01*
G04 APERTURE LIST*
%ADD10C,0.100000*%
%ADD11C,0.240000*%
%ADD12C,0.150000*%
%ADD13C,0.120000*%
%ADD14C,0.254001*%
%ADD15C,0.059995*%
G04 APERTURE END LIST*
D10*
X185646895Y-107743734D02*
X184846895Y-107743734D01*
X184846895Y-107743734D02*
X184846895Y-107553258D01*
X184846895Y-107553258D02*
X184884990Y-107438972D01*
X184884990Y-107438972D02*
X184961180Y-107362782D01*
X184961180Y-107362782D02*
X185037371Y-107324687D01*
X185037371Y-107324687D02*
X185189752Y-107286591D01*
X185189752Y-107286591D02*
X185304038Y-107286591D01*
X185304038Y-107286591D02*
X185456419Y-107324687D01*
X185456419Y-107324687D02*
X185532609Y-107362782D01*
X185532609Y-107362782D02*
X185608800Y-107438972D01*
X185608800Y-107438972D02*
X185646895Y-107553258D01*
X185646895Y-107553258D02*
X185646895Y-107743734D01*
X185646895Y-106943734D02*
X184846895Y-106943734D01*
X184846895Y-106410401D02*
X184846895Y-106258020D01*
X184846895Y-106258020D02*
X184884990Y-106181830D01*
X184884990Y-106181830D02*
X184961180Y-106105639D01*
X184961180Y-106105639D02*
X185113561Y-106067544D01*
X185113561Y-106067544D02*
X185380228Y-106067544D01*
X185380228Y-106067544D02*
X185532609Y-106105639D01*
X185532609Y-106105639D02*
X185608800Y-106181830D01*
X185608800Y-106181830D02*
X185646895Y-106258020D01*
X185646895Y-106258020D02*
X185646895Y-106410401D01*
X185646895Y-106410401D02*
X185608800Y-106486592D01*
X185608800Y-106486592D02*
X185532609Y-106562782D01*
X185532609Y-106562782D02*
X185380228Y-106600878D01*
X185380228Y-106600878D02*
X185113561Y-106600878D01*
X185113561Y-106600878D02*
X184961180Y-106562782D01*
X184961180Y-106562782D02*
X184884990Y-106486592D01*
X184884990Y-106486592D02*
X184846895Y-106410401D01*
X185646895Y-105115163D02*
X184846895Y-105115163D01*
X184846895Y-105115163D02*
X184846895Y-104924687D01*
X184846895Y-104924687D02*
X184884990Y-104810401D01*
X184884990Y-104810401D02*
X184961180Y-104734211D01*
X184961180Y-104734211D02*
X185037371Y-104696116D01*
X185037371Y-104696116D02*
X185189752Y-104658020D01*
X185189752Y-104658020D02*
X185304038Y-104658020D01*
X185304038Y-104658020D02*
X185456419Y-104696116D01*
X185456419Y-104696116D02*
X185532609Y-104734211D01*
X185532609Y-104734211D02*
X185608800Y-104810401D01*
X185608800Y-104810401D02*
X185646895Y-104924687D01*
X185646895Y-104924687D02*
X185646895Y-105115163D01*
X185570704Y-103858020D02*
X185608800Y-103896116D01*
X185608800Y-103896116D02*
X185646895Y-104010401D01*
X185646895Y-104010401D02*
X185646895Y-104086592D01*
X185646895Y-104086592D02*
X185608800Y-104200878D01*
X185608800Y-104200878D02*
X185532609Y-104277068D01*
X185532609Y-104277068D02*
X185456419Y-104315163D01*
X185456419Y-104315163D02*
X185304038Y-104353259D01*
X185304038Y-104353259D02*
X185189752Y-104353259D01*
X185189752Y-104353259D02*
X185037371Y-104315163D01*
X185037371Y-104315163D02*
X184961180Y-104277068D01*
X184961180Y-104277068D02*
X184884990Y-104200878D01*
X184884990Y-104200878D02*
X184846895Y-104086592D01*
X184846895Y-104086592D02*
X184846895Y-104010401D01*
X184846895Y-104010401D02*
X184884990Y-103896116D01*
X184884990Y-103896116D02*
X184923085Y-103858020D01*
X185646895Y-103515163D02*
X184846895Y-103515163D01*
X185646895Y-103058020D02*
X185189752Y-103400878D01*
X184846895Y-103058020D02*
X185304038Y-103515163D01*
X184884990Y-101686592D02*
X184846895Y-101762782D01*
X184846895Y-101762782D02*
X184846895Y-101877068D01*
X184846895Y-101877068D02*
X184884990Y-101991354D01*
X184884990Y-101991354D02*
X184961180Y-102067544D01*
X184961180Y-102067544D02*
X185037371Y-102105639D01*
X185037371Y-102105639D02*
X185189752Y-102143735D01*
X185189752Y-102143735D02*
X185304038Y-102143735D01*
X185304038Y-102143735D02*
X185456419Y-102105639D01*
X185456419Y-102105639D02*
X185532609Y-102067544D01*
X185532609Y-102067544D02*
X185608800Y-101991354D01*
X185608800Y-101991354D02*
X185646895Y-101877068D01*
X185646895Y-101877068D02*
X185646895Y-101800877D01*
X185646895Y-101800877D02*
X185608800Y-101686592D01*
X185608800Y-101686592D02*
X185570704Y-101648496D01*
X185570704Y-101648496D02*
X185304038Y-101648496D01*
X185304038Y-101648496D02*
X185304038Y-101800877D01*
X185646895Y-101305639D02*
X184846895Y-101305639D01*
X184846895Y-101305639D02*
X185646895Y-100848496D01*
X185646895Y-100848496D02*
X184846895Y-100848496D01*
X185646895Y-100467544D02*
X184846895Y-100467544D01*
X184846895Y-100467544D02*
X184846895Y-100277068D01*
X184846895Y-100277068D02*
X184884990Y-100162782D01*
X184884990Y-100162782D02*
X184961180Y-100086592D01*
X184961180Y-100086592D02*
X185037371Y-100048497D01*
X185037371Y-100048497D02*
X185189752Y-100010401D01*
X185189752Y-100010401D02*
X185304038Y-100010401D01*
X185304038Y-100010401D02*
X185456419Y-100048497D01*
X185456419Y-100048497D02*
X185532609Y-100086592D01*
X185532609Y-100086592D02*
X185608800Y-100162782D01*
X185608800Y-100162782D02*
X185646895Y-100277068D01*
X185646895Y-100277068D02*
X185646895Y-100467544D01*
X184846895Y-99172306D02*
X185646895Y-98905639D01*
X185646895Y-98905639D02*
X184846895Y-98638973D01*
X185646895Y-98372306D02*
X184846895Y-98372306D01*
X184846895Y-98372306D02*
X184846895Y-98181830D01*
X184846895Y-98181830D02*
X184884990Y-98067544D01*
X184884990Y-98067544D02*
X184961180Y-97991354D01*
X184961180Y-97991354D02*
X185037371Y-97953259D01*
X185037371Y-97953259D02*
X185189752Y-97915163D01*
X185189752Y-97915163D02*
X185304038Y-97915163D01*
X185304038Y-97915163D02*
X185456419Y-97953259D01*
X185456419Y-97953259D02*
X185532609Y-97991354D01*
X185532609Y-97991354D02*
X185608800Y-98067544D01*
X185608800Y-98067544D02*
X185646895Y-98181830D01*
X185646895Y-98181830D02*
X185646895Y-98372306D01*
X185646895Y-97572306D02*
X184846895Y-97572306D01*
X184846895Y-97572306D02*
X184846895Y-97381830D01*
X184846895Y-97381830D02*
X184884990Y-97267544D01*
X184884990Y-97267544D02*
X184961180Y-97191354D01*
X184961180Y-97191354D02*
X185037371Y-97153259D01*
X185037371Y-97153259D02*
X185189752Y-97115163D01*
X185189752Y-97115163D02*
X185304038Y-97115163D01*
X185304038Y-97115163D02*
X185456419Y-97153259D01*
X185456419Y-97153259D02*
X185532609Y-97191354D01*
X185532609Y-97191354D02*
X185608800Y-97267544D01*
X185608800Y-97267544D02*
X185646895Y-97381830D01*
X185646895Y-97381830D02*
X185646895Y-97572306D01*
X167213408Y-111146895D02*
X166946741Y-110765942D01*
X166756265Y-111146895D02*
X166756265Y-110346895D01*
X166756265Y-110346895D02*
X167061027Y-110346895D01*
X167061027Y-110346895D02*
X167137217Y-110384990D01*
X167137217Y-110384990D02*
X167175312Y-110423085D01*
X167175312Y-110423085D02*
X167213408Y-110499276D01*
X167213408Y-110499276D02*
X167213408Y-110613561D01*
X167213408Y-110613561D02*
X167175312Y-110689752D01*
X167175312Y-110689752D02*
X167137217Y-110727847D01*
X167137217Y-110727847D02*
X167061027Y-110765942D01*
X167061027Y-110765942D02*
X166756265Y-110765942D01*
X167480074Y-110346895D02*
X168013408Y-111146895D01*
X168013408Y-110346895D02*
X167480074Y-111146895D01*
X168813408Y-110346895D02*
X169270551Y-110346895D01*
X169041979Y-111146895D02*
X169041979Y-110346895D01*
X169461027Y-110346895D02*
X169994361Y-111146895D01*
X169994361Y-110346895D02*
X169461027Y-111146895D01*
X171365789Y-90575606D02*
X170756265Y-90804178D01*
X170756265Y-90804178D02*
X171365789Y-91032749D01*
X172203884Y-91108940D02*
X171937217Y-90727987D01*
X171746741Y-91108940D02*
X171746741Y-90308940D01*
X171746741Y-90308940D02*
X172051503Y-90308940D01*
X172051503Y-90308940D02*
X172127693Y-90347035D01*
X172127693Y-90347035D02*
X172165788Y-90385130D01*
X172165788Y-90385130D02*
X172203884Y-90461321D01*
X172203884Y-90461321D02*
X172203884Y-90575606D01*
X172203884Y-90575606D02*
X172165788Y-90651797D01*
X172165788Y-90651797D02*
X172127693Y-90689892D01*
X172127693Y-90689892D02*
X172051503Y-90727987D01*
X172051503Y-90727987D02*
X171746741Y-90727987D01*
X172508645Y-91070845D02*
X172622931Y-91108940D01*
X172622931Y-91108940D02*
X172813407Y-91108940D01*
X172813407Y-91108940D02*
X172889598Y-91070845D01*
X172889598Y-91070845D02*
X172927693Y-91032749D01*
X172927693Y-91032749D02*
X172965788Y-90956559D01*
X172965788Y-90956559D02*
X172965788Y-90880368D01*
X172965788Y-90880368D02*
X172927693Y-90804178D01*
X172927693Y-90804178D02*
X172889598Y-90766083D01*
X172889598Y-90766083D02*
X172813407Y-90727987D01*
X172813407Y-90727987D02*
X172661026Y-90689892D01*
X172661026Y-90689892D02*
X172584836Y-90651797D01*
X172584836Y-90651797D02*
X172546741Y-90613702D01*
X172546741Y-90613702D02*
X172508645Y-90537511D01*
X172508645Y-90537511D02*
X172508645Y-90461321D01*
X172508645Y-90461321D02*
X172546741Y-90385130D01*
X172546741Y-90385130D02*
X172584836Y-90347035D01*
X172584836Y-90347035D02*
X172661026Y-90308940D01*
X172661026Y-90308940D02*
X172851503Y-90308940D01*
X172851503Y-90308940D02*
X172965788Y-90347035D01*
X173194360Y-90308940D02*
X173651503Y-90308940D01*
X173422931Y-91108940D02*
X173422931Y-90308940D01*
X172584837Y-92396895D02*
X172584837Y-91596895D01*
X172584837Y-91596895D02*
X172775313Y-91596895D01*
X172775313Y-91596895D02*
X172889599Y-91634990D01*
X172889599Y-91634990D02*
X172965789Y-91711180D01*
X172965789Y-91711180D02*
X173003884Y-91787371D01*
X173003884Y-91787371D02*
X173041980Y-91939752D01*
X173041980Y-91939752D02*
X173041980Y-92054038D01*
X173041980Y-92054038D02*
X173003884Y-92206419D01*
X173003884Y-92206419D02*
X172965789Y-92282609D01*
X172965789Y-92282609D02*
X172889599Y-92358800D01*
X172889599Y-92358800D02*
X172775313Y-92396895D01*
X172775313Y-92396895D02*
X172584837Y-92396895D01*
X173765789Y-92396895D02*
X173384837Y-92396895D01*
X173384837Y-92396895D02*
X173384837Y-91596895D01*
X174032456Y-91863561D02*
X174641980Y-92092133D01*
X174641980Y-92092133D02*
X174032456Y-92320704D01*
D11*
X106286465Y-111040662D02*
X106286465Y-111269234D01*
X106743608Y-111040662D02*
X106743608Y-111269234D01*
X107086465Y-111440662D02*
X107543608Y-111440662D01*
X107257894Y-111040662D02*
X107257894Y-112069234D01*
X107257894Y-112069234D02*
X107315037Y-112183520D01*
X107315037Y-112183520D02*
X107429322Y-112240662D01*
X107429322Y-112240662D02*
X107543608Y-112240662D01*
X107886465Y-112183520D02*
X108000751Y-112240662D01*
X108000751Y-112240662D02*
X108229322Y-112240662D01*
X108229322Y-112240662D02*
X108343608Y-112183520D01*
X108343608Y-112183520D02*
X108400751Y-112069234D01*
X108400751Y-112069234D02*
X108400751Y-112012091D01*
X108400751Y-112012091D02*
X108343608Y-111897805D01*
X108343608Y-111897805D02*
X108229322Y-111840662D01*
X108229322Y-111840662D02*
X108057894Y-111840662D01*
X108057894Y-111840662D02*
X107943608Y-111783520D01*
X107943608Y-111783520D02*
X107886465Y-111669234D01*
X107886465Y-111669234D02*
X107886465Y-111612091D01*
X107886465Y-111612091D02*
X107943608Y-111497805D01*
X107943608Y-111497805D02*
X108057894Y-111440662D01*
X108057894Y-111440662D02*
X108229322Y-111440662D01*
X108229322Y-111440662D02*
X108343608Y-111497805D01*
X109429323Y-111440662D02*
X109429323Y-112240662D01*
X108915037Y-111440662D02*
X108915037Y-112069234D01*
X108915037Y-112069234D02*
X108972180Y-112183520D01*
X108972180Y-112183520D02*
X109086465Y-112240662D01*
X109086465Y-112240662D02*
X109257894Y-112240662D01*
X109257894Y-112240662D02*
X109372180Y-112183520D01*
X109372180Y-112183520D02*
X109429323Y-112126377D01*
X110000751Y-112240662D02*
X110000751Y-111040662D01*
X110000751Y-111497805D02*
X110115037Y-111440662D01*
X110115037Y-111440662D02*
X110343608Y-111440662D01*
X110343608Y-111440662D02*
X110457894Y-111497805D01*
X110457894Y-111497805D02*
X110515037Y-111554948D01*
X110515037Y-111554948D02*
X110572179Y-111669234D01*
X110572179Y-111669234D02*
X110572179Y-112012091D01*
X110572179Y-112012091D02*
X110515037Y-112126377D01*
X110515037Y-112126377D02*
X110457894Y-112183520D01*
X110457894Y-112183520D02*
X110343608Y-112240662D01*
X110343608Y-112240662D02*
X110115037Y-112240662D01*
X110115037Y-112240662D02*
X110000751Y-112183520D01*
X111600751Y-112240662D02*
X111600751Y-111612091D01*
X111600751Y-111612091D02*
X111543608Y-111497805D01*
X111543608Y-111497805D02*
X111429322Y-111440662D01*
X111429322Y-111440662D02*
X111200751Y-111440662D01*
X111200751Y-111440662D02*
X111086465Y-111497805D01*
X111600751Y-112183520D02*
X111486465Y-112240662D01*
X111486465Y-112240662D02*
X111200751Y-112240662D01*
X111200751Y-112240662D02*
X111086465Y-112183520D01*
X111086465Y-112183520D02*
X111029322Y-112069234D01*
X111029322Y-112069234D02*
X111029322Y-111954948D01*
X111029322Y-111954948D02*
X111086465Y-111840662D01*
X111086465Y-111840662D02*
X111200751Y-111783520D01*
X111200751Y-111783520D02*
X111486465Y-111783520D01*
X111486465Y-111783520D02*
X111600751Y-111726377D01*
X112172179Y-112240662D02*
X112172179Y-111040662D01*
X112286465Y-111783520D02*
X112629322Y-112240662D01*
X112629322Y-111440662D02*
X112172179Y-111897805D01*
X113143608Y-112240662D02*
X113143608Y-111440662D01*
X113143608Y-111040662D02*
X113086465Y-111097805D01*
X113086465Y-111097805D02*
X113143608Y-111154948D01*
X113143608Y-111154948D02*
X113200751Y-111097805D01*
X113200751Y-111097805D02*
X113143608Y-111040662D01*
X113143608Y-111040662D02*
X113143608Y-111154948D01*
X114800751Y-112240662D02*
X114686466Y-112183520D01*
X114686466Y-112183520D02*
X114629323Y-112069234D01*
X114629323Y-112069234D02*
X114629323Y-111040662D01*
X115257894Y-112240662D02*
X115257894Y-111440662D01*
X115257894Y-111040662D02*
X115200751Y-111097805D01*
X115200751Y-111097805D02*
X115257894Y-111154948D01*
X115257894Y-111154948D02*
X115315037Y-111097805D01*
X115315037Y-111097805D02*
X115257894Y-111040662D01*
X115257894Y-111040662D02*
X115257894Y-111154948D01*
X115657894Y-111440662D02*
X116115037Y-111440662D01*
X115829323Y-111040662D02*
X115829323Y-112069234D01*
X115829323Y-112069234D02*
X115886466Y-112183520D01*
X115886466Y-112183520D02*
X116000751Y-112240662D01*
X116000751Y-112240662D02*
X116115037Y-112240662D01*
X116972180Y-112183520D02*
X116857894Y-112240662D01*
X116857894Y-112240662D02*
X116629323Y-112240662D01*
X116629323Y-112240662D02*
X116515037Y-112183520D01*
X116515037Y-112183520D02*
X116457894Y-112069234D01*
X116457894Y-112069234D02*
X116457894Y-111612091D01*
X116457894Y-111612091D02*
X116515037Y-111497805D01*
X116515037Y-111497805D02*
X116629323Y-111440662D01*
X116629323Y-111440662D02*
X116857894Y-111440662D01*
X116857894Y-111440662D02*
X116972180Y-111497805D01*
X116972180Y-111497805D02*
X117029323Y-111612091D01*
X117029323Y-111612091D02*
X117029323Y-111726377D01*
X117029323Y-111726377D02*
X116457894Y-111840662D01*
X117486465Y-111040662D02*
X117486465Y-111269234D01*
X117943608Y-111040662D02*
X117943608Y-111269234D01*
D10*
X152865789Y-112325606D02*
X152256265Y-112554178D01*
X152256265Y-112554178D02*
X152865789Y-112782749D01*
X153246741Y-112858940D02*
X153246741Y-112058940D01*
X153246741Y-112058940D02*
X153551503Y-112058940D01*
X153551503Y-112058940D02*
X153627693Y-112097035D01*
X153627693Y-112097035D02*
X153665788Y-112135130D01*
X153665788Y-112135130D02*
X153703884Y-112211321D01*
X153703884Y-112211321D02*
X153703884Y-112325606D01*
X153703884Y-112325606D02*
X153665788Y-112401797D01*
X153665788Y-112401797D02*
X153627693Y-112439892D01*
X153627693Y-112439892D02*
X153551503Y-112477987D01*
X153551503Y-112477987D02*
X153246741Y-112477987D01*
X153970550Y-112058940D02*
X154161026Y-112858940D01*
X154161026Y-112858940D02*
X154313407Y-112287511D01*
X154313407Y-112287511D02*
X154465788Y-112858940D01*
X154465788Y-112858940D02*
X154656265Y-112058940D01*
X155418170Y-112858940D02*
X155151503Y-112477987D01*
X154961027Y-112858940D02*
X154961027Y-112058940D01*
X154961027Y-112058940D02*
X155265789Y-112058940D01*
X155265789Y-112058940D02*
X155341979Y-112097035D01*
X155341979Y-112097035D02*
X155380074Y-112135130D01*
X155380074Y-112135130D02*
X155418170Y-112211321D01*
X155418170Y-112211321D02*
X155418170Y-112325606D01*
X155418170Y-112325606D02*
X155380074Y-112401797D01*
X155380074Y-112401797D02*
X155341979Y-112439892D01*
X155341979Y-112439892D02*
X155265789Y-112477987D01*
X155265789Y-112477987D02*
X154961027Y-112477987D01*
X153246741Y-114146895D02*
X152865789Y-114146895D01*
X152865789Y-114146895D02*
X152865789Y-113346895D01*
X153513408Y-113727847D02*
X153780074Y-113727847D01*
X153894360Y-114146895D02*
X153513408Y-114146895D01*
X153513408Y-114146895D02*
X153513408Y-113346895D01*
X153513408Y-113346895D02*
X153894360Y-113346895D01*
X154237218Y-114146895D02*
X154237218Y-113346895D01*
X154237218Y-113346895D02*
X154427694Y-113346895D01*
X154427694Y-113346895D02*
X154541980Y-113384990D01*
X154541980Y-113384990D02*
X154618170Y-113461180D01*
X154618170Y-113461180D02*
X154656265Y-113537371D01*
X154656265Y-113537371D02*
X154694361Y-113689752D01*
X154694361Y-113689752D02*
X154694361Y-113804038D01*
X154694361Y-113804038D02*
X154656265Y-113956419D01*
X154656265Y-113956419D02*
X154618170Y-114032609D01*
X154618170Y-114032609D02*
X154541980Y-114108800D01*
X154541980Y-114108800D02*
X154427694Y-114146895D01*
X154427694Y-114146895D02*
X154237218Y-114146895D01*
X155037218Y-113613561D02*
X155646742Y-113842133D01*
X155646742Y-113842133D02*
X155037218Y-114070704D01*
X101430074Y-113296895D02*
X101925312Y-113296895D01*
X101925312Y-113296895D02*
X101658646Y-113601657D01*
X101658646Y-113601657D02*
X101772931Y-113601657D01*
X101772931Y-113601657D02*
X101849122Y-113639752D01*
X101849122Y-113639752D02*
X101887217Y-113677847D01*
X101887217Y-113677847D02*
X101925312Y-113754038D01*
X101925312Y-113754038D02*
X101925312Y-113944514D01*
X101925312Y-113944514D02*
X101887217Y-114020704D01*
X101887217Y-114020704D02*
X101849122Y-114058800D01*
X101849122Y-114058800D02*
X101772931Y-114096895D01*
X101772931Y-114096895D02*
X101544360Y-114096895D01*
X101544360Y-114096895D02*
X101468169Y-114058800D01*
X101468169Y-114058800D02*
X101430074Y-114020704D01*
X102268170Y-114096895D02*
X102268170Y-113296895D01*
X102344360Y-113792133D02*
X102572932Y-114096895D01*
X102572932Y-113563561D02*
X102268170Y-113868323D01*
X103220551Y-114058800D02*
X103144360Y-114096895D01*
X103144360Y-114096895D02*
X102991979Y-114096895D01*
X102991979Y-114096895D02*
X102915789Y-114058800D01*
X102915789Y-114058800D02*
X102877693Y-113982609D01*
X102877693Y-113982609D02*
X102877693Y-113677847D01*
X102877693Y-113677847D02*
X102915789Y-113601657D01*
X102915789Y-113601657D02*
X102991979Y-113563561D01*
X102991979Y-113563561D02*
X103144360Y-113563561D01*
X103144360Y-113563561D02*
X103220551Y-113601657D01*
X103220551Y-113601657D02*
X103258646Y-113677847D01*
X103258646Y-113677847D02*
X103258646Y-113754038D01*
X103258646Y-113754038D02*
X102877693Y-113830228D01*
X103525312Y-113563561D02*
X103715788Y-114096895D01*
X103906265Y-113563561D02*
X103715788Y-114096895D01*
X103715788Y-114096895D02*
X103639598Y-114287371D01*
X103639598Y-114287371D02*
X103601503Y-114325466D01*
X103601503Y-114325466D02*
X103525312Y-114363561D01*
X104211027Y-113792133D02*
X104820551Y-113792133D01*
X104515789Y-114096895D02*
X104515789Y-113487371D01*
X105201503Y-114096895D02*
X105201503Y-113296895D01*
X105277693Y-113792133D02*
X105506265Y-114096895D01*
X105506265Y-113563561D02*
X105201503Y-113868323D01*
X105849122Y-113563561D02*
X105849122Y-114096895D01*
X105849122Y-113639752D02*
X105887217Y-113601657D01*
X105887217Y-113601657D02*
X105963407Y-113563561D01*
X105963407Y-113563561D02*
X106077693Y-113563561D01*
X106077693Y-113563561D02*
X106153884Y-113601657D01*
X106153884Y-113601657D02*
X106191979Y-113677847D01*
X106191979Y-113677847D02*
X106191979Y-114096895D01*
X106687217Y-114096895D02*
X106611027Y-114058800D01*
X106611027Y-114058800D02*
X106572932Y-114020704D01*
X106572932Y-114020704D02*
X106534836Y-113944514D01*
X106534836Y-113944514D02*
X106534836Y-113715942D01*
X106534836Y-113715942D02*
X106572932Y-113639752D01*
X106572932Y-113639752D02*
X106611027Y-113601657D01*
X106611027Y-113601657D02*
X106687217Y-113563561D01*
X106687217Y-113563561D02*
X106801503Y-113563561D01*
X106801503Y-113563561D02*
X106877694Y-113601657D01*
X106877694Y-113601657D02*
X106915789Y-113639752D01*
X106915789Y-113639752D02*
X106953884Y-113715942D01*
X106953884Y-113715942D02*
X106953884Y-113944514D01*
X106953884Y-113944514D02*
X106915789Y-114020704D01*
X106915789Y-114020704D02*
X106877694Y-114058800D01*
X106877694Y-114058800D02*
X106801503Y-114096895D01*
X106801503Y-114096895D02*
X106687217Y-114096895D01*
X107296742Y-114096895D02*
X107296742Y-113296895D01*
X107296742Y-113601657D02*
X107372932Y-113563561D01*
X107372932Y-113563561D02*
X107525313Y-113563561D01*
X107525313Y-113563561D02*
X107601504Y-113601657D01*
X107601504Y-113601657D02*
X107639599Y-113639752D01*
X107639599Y-113639752D02*
X107677694Y-113715942D01*
X107677694Y-113715942D02*
X107677694Y-113944514D01*
X107677694Y-113944514D02*
X107639599Y-114020704D01*
X107639599Y-114020704D02*
X107601504Y-114058800D01*
X107601504Y-114058800D02*
X107525313Y-114096895D01*
X107525313Y-114096895D02*
X107372932Y-114096895D01*
X107372932Y-114096895D02*
X107296742Y-114058800D01*
X108744361Y-114096895D02*
X108668171Y-114058800D01*
X108668171Y-114058800D02*
X108630076Y-114020704D01*
X108630076Y-114020704D02*
X108591980Y-113944514D01*
X108591980Y-113944514D02*
X108591980Y-113715942D01*
X108591980Y-113715942D02*
X108630076Y-113639752D01*
X108630076Y-113639752D02*
X108668171Y-113601657D01*
X108668171Y-113601657D02*
X108744361Y-113563561D01*
X108744361Y-113563561D02*
X108858647Y-113563561D01*
X108858647Y-113563561D02*
X108934838Y-113601657D01*
X108934838Y-113601657D02*
X108972933Y-113639752D01*
X108972933Y-113639752D02*
X109011028Y-113715942D01*
X109011028Y-113715942D02*
X109011028Y-113944514D01*
X109011028Y-113944514D02*
X108972933Y-114020704D01*
X108972933Y-114020704D02*
X108934838Y-114058800D01*
X108934838Y-114058800D02*
X108858647Y-114096895D01*
X108858647Y-114096895D02*
X108744361Y-114096895D01*
X109315790Y-114058800D02*
X109391981Y-114096895D01*
X109391981Y-114096895D02*
X109544362Y-114096895D01*
X109544362Y-114096895D02*
X109620552Y-114058800D01*
X109620552Y-114058800D02*
X109658648Y-113982609D01*
X109658648Y-113982609D02*
X109658648Y-113944514D01*
X109658648Y-113944514D02*
X109620552Y-113868323D01*
X109620552Y-113868323D02*
X109544362Y-113830228D01*
X109544362Y-113830228D02*
X109430076Y-113830228D01*
X109430076Y-113830228D02*
X109353886Y-113792133D01*
X109353886Y-113792133D02*
X109315790Y-113715942D01*
X109315790Y-113715942D02*
X109315790Y-113677847D01*
X109315790Y-113677847D02*
X109353886Y-113601657D01*
X109353886Y-113601657D02*
X109430076Y-113563561D01*
X109430076Y-113563561D02*
X109544362Y-113563561D01*
X109544362Y-113563561D02*
X109620552Y-113601657D01*
X110344362Y-113563561D02*
X110344362Y-114096895D01*
X110001505Y-113563561D02*
X110001505Y-113982609D01*
X110001505Y-113982609D02*
X110039600Y-114058800D01*
X110039600Y-114058800D02*
X110115790Y-114096895D01*
X110115790Y-114096895D02*
X110230076Y-114096895D01*
X110230076Y-114096895D02*
X110306267Y-114058800D01*
X110306267Y-114058800D02*
X110344362Y-114020704D01*
X110725315Y-114020704D02*
X110763410Y-114058800D01*
X110763410Y-114058800D02*
X110725315Y-114096895D01*
X110725315Y-114096895D02*
X110687219Y-114058800D01*
X110687219Y-114058800D02*
X110725315Y-114020704D01*
X110725315Y-114020704D02*
X110725315Y-114096895D01*
X110725315Y-113792133D02*
X110687219Y-113334990D01*
X110687219Y-113334990D02*
X110725315Y-113296895D01*
X110725315Y-113296895D02*
X110763410Y-113334990D01*
X110763410Y-113334990D02*
X110725315Y-113792133D01*
X110725315Y-113792133D02*
X110725315Y-113296895D01*
X111715791Y-114096895D02*
X111715791Y-113296895D01*
X111791981Y-113792133D02*
X112020553Y-114096895D01*
X112020553Y-113563561D02*
X111715791Y-113868323D01*
X112668172Y-114058800D02*
X112591981Y-114096895D01*
X112591981Y-114096895D02*
X112439600Y-114096895D01*
X112439600Y-114096895D02*
X112363410Y-114058800D01*
X112363410Y-114058800D02*
X112325314Y-113982609D01*
X112325314Y-113982609D02*
X112325314Y-113677847D01*
X112325314Y-113677847D02*
X112363410Y-113601657D01*
X112363410Y-113601657D02*
X112439600Y-113563561D01*
X112439600Y-113563561D02*
X112591981Y-113563561D01*
X112591981Y-113563561D02*
X112668172Y-113601657D01*
X112668172Y-113601657D02*
X112706267Y-113677847D01*
X112706267Y-113677847D02*
X112706267Y-113754038D01*
X112706267Y-113754038D02*
X112325314Y-113830228D01*
X112972933Y-113563561D02*
X113163409Y-114096895D01*
X113353886Y-113563561D02*
X113163409Y-114096895D01*
X113163409Y-114096895D02*
X113087219Y-114287371D01*
X113087219Y-114287371D02*
X113049124Y-114325466D01*
X113049124Y-114325466D02*
X112972933Y-114363561D01*
X113658648Y-114096895D02*
X113658648Y-113296895D01*
X113658648Y-113601657D02*
X113734838Y-113563561D01*
X113734838Y-113563561D02*
X113887219Y-113563561D01*
X113887219Y-113563561D02*
X113963410Y-113601657D01*
X113963410Y-113601657D02*
X114001505Y-113639752D01*
X114001505Y-113639752D02*
X114039600Y-113715942D01*
X114039600Y-113715942D02*
X114039600Y-113944514D01*
X114039600Y-113944514D02*
X114001505Y-114020704D01*
X114001505Y-114020704D02*
X113963410Y-114058800D01*
X113963410Y-114058800D02*
X113887219Y-114096895D01*
X113887219Y-114096895D02*
X113734838Y-114096895D01*
X113734838Y-114096895D02*
X113658648Y-114058800D01*
X114496743Y-114096895D02*
X114420553Y-114058800D01*
X114420553Y-114058800D02*
X114382458Y-114020704D01*
X114382458Y-114020704D02*
X114344362Y-113944514D01*
X114344362Y-113944514D02*
X114344362Y-113715942D01*
X114344362Y-113715942D02*
X114382458Y-113639752D01*
X114382458Y-113639752D02*
X114420553Y-113601657D01*
X114420553Y-113601657D02*
X114496743Y-113563561D01*
X114496743Y-113563561D02*
X114611029Y-113563561D01*
X114611029Y-113563561D02*
X114687220Y-113601657D01*
X114687220Y-113601657D02*
X114725315Y-113639752D01*
X114725315Y-113639752D02*
X114763410Y-113715942D01*
X114763410Y-113715942D02*
X114763410Y-113944514D01*
X114763410Y-113944514D02*
X114725315Y-114020704D01*
X114725315Y-114020704D02*
X114687220Y-114058800D01*
X114687220Y-114058800D02*
X114611029Y-114096895D01*
X114611029Y-114096895D02*
X114496743Y-114096895D01*
X115449125Y-114096895D02*
X115449125Y-113677847D01*
X115449125Y-113677847D02*
X115411030Y-113601657D01*
X115411030Y-113601657D02*
X115334839Y-113563561D01*
X115334839Y-113563561D02*
X115182458Y-113563561D01*
X115182458Y-113563561D02*
X115106268Y-113601657D01*
X115449125Y-114058800D02*
X115372934Y-114096895D01*
X115372934Y-114096895D02*
X115182458Y-114096895D01*
X115182458Y-114096895D02*
X115106268Y-114058800D01*
X115106268Y-114058800D02*
X115068172Y-113982609D01*
X115068172Y-113982609D02*
X115068172Y-113906419D01*
X115068172Y-113906419D02*
X115106268Y-113830228D01*
X115106268Y-113830228D02*
X115182458Y-113792133D01*
X115182458Y-113792133D02*
X115372934Y-113792133D01*
X115372934Y-113792133D02*
X115449125Y-113754038D01*
X115830078Y-114096895D02*
X115830078Y-113563561D01*
X115830078Y-113715942D02*
X115868173Y-113639752D01*
X115868173Y-113639752D02*
X115906268Y-113601657D01*
X115906268Y-113601657D02*
X115982459Y-113563561D01*
X115982459Y-113563561D02*
X116058649Y-113563561D01*
X116668173Y-114096895D02*
X116668173Y-113296895D01*
X116668173Y-114058800D02*
X116591982Y-114096895D01*
X116591982Y-114096895D02*
X116439601Y-114096895D01*
X116439601Y-114096895D02*
X116363411Y-114058800D01*
X116363411Y-114058800D02*
X116325316Y-114020704D01*
X116325316Y-114020704D02*
X116287220Y-113944514D01*
X116287220Y-113944514D02*
X116287220Y-113715942D01*
X116287220Y-113715942D02*
X116325316Y-113639752D01*
X116325316Y-113639752D02*
X116363411Y-113601657D01*
X116363411Y-113601657D02*
X116439601Y-113563561D01*
X116439601Y-113563561D02*
X116591982Y-113563561D01*
X116591982Y-113563561D02*
X116668173Y-113601657D01*
X117239602Y-114363561D02*
X117239602Y-113220704D01*
X117811031Y-114096895D02*
X117811031Y-113563561D01*
X117811031Y-113715942D02*
X117849126Y-113639752D01*
X117849126Y-113639752D02*
X117887221Y-113601657D01*
X117887221Y-113601657D02*
X117963412Y-113563561D01*
X117963412Y-113563561D02*
X118039602Y-113563561D01*
X118611031Y-114058800D02*
X118534840Y-114096895D01*
X118534840Y-114096895D02*
X118382459Y-114096895D01*
X118382459Y-114096895D02*
X118306269Y-114058800D01*
X118306269Y-114058800D02*
X118268173Y-113982609D01*
X118268173Y-113982609D02*
X118268173Y-113677847D01*
X118268173Y-113677847D02*
X118306269Y-113601657D01*
X118306269Y-113601657D02*
X118382459Y-113563561D01*
X118382459Y-113563561D02*
X118534840Y-113563561D01*
X118534840Y-113563561D02*
X118611031Y-113601657D01*
X118611031Y-113601657D02*
X118649126Y-113677847D01*
X118649126Y-113677847D02*
X118649126Y-113754038D01*
X118649126Y-113754038D02*
X118268173Y-113830228D01*
X118915792Y-113563561D02*
X119106268Y-114096895D01*
X119106268Y-114096895D02*
X119296745Y-113563561D01*
X119525316Y-113296895D02*
X120020554Y-113296895D01*
X120020554Y-113296895D02*
X119753888Y-113601657D01*
X119753888Y-113601657D02*
X119868173Y-113601657D01*
X119868173Y-113601657D02*
X119944364Y-113639752D01*
X119944364Y-113639752D02*
X119982459Y-113677847D01*
X119982459Y-113677847D02*
X120020554Y-113754038D01*
X120020554Y-113754038D02*
X120020554Y-113944514D01*
X120020554Y-113944514D02*
X119982459Y-114020704D01*
X119982459Y-114020704D02*
X119944364Y-114058800D01*
X119944364Y-114058800D02*
X119868173Y-114096895D01*
X119868173Y-114096895D02*
X119639602Y-114096895D01*
X119639602Y-114096895D02*
X119563411Y-114058800D01*
X119563411Y-114058800D02*
X119525316Y-114020704D01*
X120934840Y-113373085D02*
X120972936Y-113334990D01*
X120972936Y-113334990D02*
X121049126Y-113296895D01*
X121049126Y-113296895D02*
X121239602Y-113296895D01*
X121239602Y-113296895D02*
X121315793Y-113334990D01*
X121315793Y-113334990D02*
X121353888Y-113373085D01*
X121353888Y-113373085D02*
X121391983Y-113449276D01*
X121391983Y-113449276D02*
X121391983Y-113525466D01*
X121391983Y-113525466D02*
X121353888Y-113639752D01*
X121353888Y-113639752D02*
X120896745Y-114096895D01*
X120896745Y-114096895D02*
X121391983Y-114096895D01*
X121887222Y-113296895D02*
X121963412Y-113296895D01*
X121963412Y-113296895D02*
X122039603Y-113334990D01*
X122039603Y-113334990D02*
X122077698Y-113373085D01*
X122077698Y-113373085D02*
X122115793Y-113449276D01*
X122115793Y-113449276D02*
X122153888Y-113601657D01*
X122153888Y-113601657D02*
X122153888Y-113792133D01*
X122153888Y-113792133D02*
X122115793Y-113944514D01*
X122115793Y-113944514D02*
X122077698Y-114020704D01*
X122077698Y-114020704D02*
X122039603Y-114058800D01*
X122039603Y-114058800D02*
X121963412Y-114096895D01*
X121963412Y-114096895D02*
X121887222Y-114096895D01*
X121887222Y-114096895D02*
X121811031Y-114058800D01*
X121811031Y-114058800D02*
X121772936Y-114020704D01*
X121772936Y-114020704D02*
X121734841Y-113944514D01*
X121734841Y-113944514D02*
X121696745Y-113792133D01*
X121696745Y-113792133D02*
X121696745Y-113601657D01*
X121696745Y-113601657D02*
X121734841Y-113449276D01*
X121734841Y-113449276D02*
X121772936Y-113373085D01*
X121772936Y-113373085D02*
X121811031Y-113334990D01*
X121811031Y-113334990D02*
X121887222Y-113296895D01*
X122458650Y-113373085D02*
X122496746Y-113334990D01*
X122496746Y-113334990D02*
X122572936Y-113296895D01*
X122572936Y-113296895D02*
X122763412Y-113296895D01*
X122763412Y-113296895D02*
X122839603Y-113334990D01*
X122839603Y-113334990D02*
X122877698Y-113373085D01*
X122877698Y-113373085D02*
X122915793Y-113449276D01*
X122915793Y-113449276D02*
X122915793Y-113525466D01*
X122915793Y-113525466D02*
X122877698Y-113639752D01*
X122877698Y-113639752D02*
X122420555Y-114096895D01*
X122420555Y-114096895D02*
X122915793Y-114096895D01*
X123639603Y-113296895D02*
X123258651Y-113296895D01*
X123258651Y-113296895D02*
X123220555Y-113677847D01*
X123220555Y-113677847D02*
X123258651Y-113639752D01*
X123258651Y-113639752D02*
X123334841Y-113601657D01*
X123334841Y-113601657D02*
X123525317Y-113601657D01*
X123525317Y-113601657D02*
X123601508Y-113639752D01*
X123601508Y-113639752D02*
X123639603Y-113677847D01*
X123639603Y-113677847D02*
X123677698Y-113754038D01*
X123677698Y-113754038D02*
X123677698Y-113944514D01*
X123677698Y-113944514D02*
X123639603Y-114020704D01*
X123639603Y-114020704D02*
X123601508Y-114058800D01*
X123601508Y-114058800D02*
X123525317Y-114096895D01*
X123525317Y-114096895D02*
X123334841Y-114096895D01*
X123334841Y-114096895D02*
X123258651Y-114058800D01*
X123258651Y-114058800D02*
X123220555Y-114020704D01*
X124172937Y-113296895D02*
X124249127Y-113296895D01*
X124249127Y-113296895D02*
X124325318Y-113334990D01*
X124325318Y-113334990D02*
X124363413Y-113373085D01*
X124363413Y-113373085D02*
X124401508Y-113449276D01*
X124401508Y-113449276D02*
X124439603Y-113601657D01*
X124439603Y-113601657D02*
X124439603Y-113792133D01*
X124439603Y-113792133D02*
X124401508Y-113944514D01*
X124401508Y-113944514D02*
X124363413Y-114020704D01*
X124363413Y-114020704D02*
X124325318Y-114058800D01*
X124325318Y-114058800D02*
X124249127Y-114096895D01*
X124249127Y-114096895D02*
X124172937Y-114096895D01*
X124172937Y-114096895D02*
X124096746Y-114058800D01*
X124096746Y-114058800D02*
X124058651Y-114020704D01*
X124058651Y-114020704D02*
X124020556Y-113944514D01*
X124020556Y-113944514D02*
X123982460Y-113792133D01*
X123982460Y-113792133D02*
X123982460Y-113601657D01*
X123982460Y-113601657D02*
X124020556Y-113449276D01*
X124020556Y-113449276D02*
X124058651Y-113373085D01*
X124058651Y-113373085D02*
X124096746Y-113334990D01*
X124096746Y-113334990D02*
X124172937Y-113296895D01*
X125163413Y-113296895D02*
X124782461Y-113296895D01*
X124782461Y-113296895D02*
X124744365Y-113677847D01*
X124744365Y-113677847D02*
X124782461Y-113639752D01*
X124782461Y-113639752D02*
X124858651Y-113601657D01*
X124858651Y-113601657D02*
X125049127Y-113601657D01*
X125049127Y-113601657D02*
X125125318Y-113639752D01*
X125125318Y-113639752D02*
X125163413Y-113677847D01*
X125163413Y-113677847D02*
X125201508Y-113754038D01*
X125201508Y-113754038D02*
X125201508Y-113944514D01*
X125201508Y-113944514D02*
X125163413Y-114020704D01*
X125163413Y-114020704D02*
X125125318Y-114058800D01*
X125125318Y-114058800D02*
X125049127Y-114096895D01*
X125049127Y-114096895D02*
X124858651Y-114096895D01*
X124858651Y-114096895D02*
X124782461Y-114058800D01*
X124782461Y-114058800D02*
X124744365Y-114020704D01*
X125506270Y-113373085D02*
X125544366Y-113334990D01*
X125544366Y-113334990D02*
X125620556Y-113296895D01*
X125620556Y-113296895D02*
X125811032Y-113296895D01*
X125811032Y-113296895D02*
X125887223Y-113334990D01*
X125887223Y-113334990D02*
X125925318Y-113373085D01*
X125925318Y-113373085D02*
X125963413Y-113449276D01*
X125963413Y-113449276D02*
X125963413Y-113525466D01*
X125963413Y-113525466D02*
X125925318Y-113639752D01*
X125925318Y-113639752D02*
X125468175Y-114096895D01*
X125468175Y-114096895D02*
X125963413Y-114096895D01*
X126230080Y-113296895D02*
X126763414Y-113296895D01*
X126763414Y-113296895D02*
X126420556Y-114096895D01*
X101556265Y-111663561D02*
X101556265Y-112463561D01*
X101556265Y-111701657D02*
X101632455Y-111663561D01*
X101632455Y-111663561D02*
X101784836Y-111663561D01*
X101784836Y-111663561D02*
X101861027Y-111701657D01*
X101861027Y-111701657D02*
X101899122Y-111739752D01*
X101899122Y-111739752D02*
X101937217Y-111815942D01*
X101937217Y-111815942D02*
X101937217Y-112044514D01*
X101937217Y-112044514D02*
X101899122Y-112120704D01*
X101899122Y-112120704D02*
X101861027Y-112158800D01*
X101861027Y-112158800D02*
X101784836Y-112196895D01*
X101784836Y-112196895D02*
X101632455Y-112196895D01*
X101632455Y-112196895D02*
X101556265Y-112158800D01*
X102280075Y-112196895D02*
X102280075Y-111663561D01*
X102280075Y-111815942D02*
X102318170Y-111739752D01*
X102318170Y-111739752D02*
X102356265Y-111701657D01*
X102356265Y-111701657D02*
X102432456Y-111663561D01*
X102432456Y-111663561D02*
X102508646Y-111663561D01*
X102889598Y-112196895D02*
X102813408Y-112158800D01*
X102813408Y-112158800D02*
X102775313Y-112120704D01*
X102775313Y-112120704D02*
X102737217Y-112044514D01*
X102737217Y-112044514D02*
X102737217Y-111815942D01*
X102737217Y-111815942D02*
X102775313Y-111739752D01*
X102775313Y-111739752D02*
X102813408Y-111701657D01*
X102813408Y-111701657D02*
X102889598Y-111663561D01*
X102889598Y-111663561D02*
X103003884Y-111663561D01*
X103003884Y-111663561D02*
X103080075Y-111701657D01*
X103080075Y-111701657D02*
X103118170Y-111739752D01*
X103118170Y-111739752D02*
X103156265Y-111815942D01*
X103156265Y-111815942D02*
X103156265Y-112044514D01*
X103156265Y-112044514D02*
X103118170Y-112120704D01*
X103118170Y-112120704D02*
X103080075Y-112158800D01*
X103080075Y-112158800D02*
X103003884Y-112196895D01*
X103003884Y-112196895D02*
X102889598Y-112196895D01*
X103499123Y-111663561D02*
X103499123Y-112349276D01*
X103499123Y-112349276D02*
X103461027Y-112425466D01*
X103461027Y-112425466D02*
X103384837Y-112463561D01*
X103384837Y-112463561D02*
X103346742Y-112463561D01*
X103499123Y-111396895D02*
X103461027Y-111434990D01*
X103461027Y-111434990D02*
X103499123Y-111473085D01*
X103499123Y-111473085D02*
X103537218Y-111434990D01*
X103537218Y-111434990D02*
X103499123Y-111396895D01*
X103499123Y-111396895D02*
X103499123Y-111473085D01*
X104184837Y-112158800D02*
X104108646Y-112196895D01*
X104108646Y-112196895D02*
X103956265Y-112196895D01*
X103956265Y-112196895D02*
X103880075Y-112158800D01*
X103880075Y-112158800D02*
X103841979Y-112082609D01*
X103841979Y-112082609D02*
X103841979Y-111777847D01*
X103841979Y-111777847D02*
X103880075Y-111701657D01*
X103880075Y-111701657D02*
X103956265Y-111663561D01*
X103956265Y-111663561D02*
X104108646Y-111663561D01*
X104108646Y-111663561D02*
X104184837Y-111701657D01*
X104184837Y-111701657D02*
X104222932Y-111777847D01*
X104222932Y-111777847D02*
X104222932Y-111854038D01*
X104222932Y-111854038D02*
X103841979Y-111930228D01*
X104908646Y-112158800D02*
X104832455Y-112196895D01*
X104832455Y-112196895D02*
X104680074Y-112196895D01*
X104680074Y-112196895D02*
X104603884Y-112158800D01*
X104603884Y-112158800D02*
X104565789Y-112120704D01*
X104565789Y-112120704D02*
X104527693Y-112044514D01*
X104527693Y-112044514D02*
X104527693Y-111815942D01*
X104527693Y-111815942D02*
X104565789Y-111739752D01*
X104565789Y-111739752D02*
X104603884Y-111701657D01*
X104603884Y-111701657D02*
X104680074Y-111663561D01*
X104680074Y-111663561D02*
X104832455Y-111663561D01*
X104832455Y-111663561D02*
X104908646Y-111701657D01*
X105137217Y-111663561D02*
X105441979Y-111663561D01*
X105251503Y-111396895D02*
X105251503Y-112082609D01*
X105251503Y-112082609D02*
X105289598Y-112158800D01*
X105289598Y-112158800D02*
X105365788Y-112196895D01*
X105365788Y-112196895D02*
X105441979Y-112196895D01*
D12*
X133328571Y-94807200D02*
X133471428Y-94854819D01*
X133471428Y-94854819D02*
X133709523Y-94854819D01*
X133709523Y-94854819D02*
X133804761Y-94807200D01*
X133804761Y-94807200D02*
X133852380Y-94759580D01*
X133852380Y-94759580D02*
X133899999Y-94664342D01*
X133899999Y-94664342D02*
X133899999Y-94569104D01*
X133899999Y-94569104D02*
X133852380Y-94473866D01*
X133852380Y-94473866D02*
X133804761Y-94426247D01*
X133804761Y-94426247D02*
X133709523Y-94378628D01*
X133709523Y-94378628D02*
X133519047Y-94331009D01*
X133519047Y-94331009D02*
X133423809Y-94283390D01*
X133423809Y-94283390D02*
X133376190Y-94235771D01*
X133376190Y-94235771D02*
X133328571Y-94140533D01*
X133328571Y-94140533D02*
X133328571Y-94045295D01*
X133328571Y-94045295D02*
X133376190Y-93950057D01*
X133376190Y-93950057D02*
X133423809Y-93902438D01*
X133423809Y-93902438D02*
X133519047Y-93854819D01*
X133519047Y-93854819D02*
X133757142Y-93854819D01*
X133757142Y-93854819D02*
X133899999Y-93902438D01*
X134233333Y-93854819D02*
X134471428Y-94854819D01*
X134471428Y-94854819D02*
X134661904Y-94140533D01*
X134661904Y-94140533D02*
X134852380Y-94854819D01*
X134852380Y-94854819D02*
X135090476Y-93854819D01*
X135233333Y-94950057D02*
X135995237Y-94950057D01*
X136757142Y-94854819D02*
X136185714Y-94854819D01*
X136471428Y-94854819D02*
X136471428Y-93854819D01*
X136471428Y-93854819D02*
X136376190Y-93997676D01*
X136376190Y-93997676D02*
X136280952Y-94092914D01*
X136280952Y-94092914D02*
X136185714Y-94140533D01*
X136947619Y-94950057D02*
X137709523Y-94950057D01*
X137852381Y-93854819D02*
X138471428Y-93854819D01*
X138471428Y-93854819D02*
X138138095Y-94235771D01*
X138138095Y-94235771D02*
X138280952Y-94235771D01*
X138280952Y-94235771D02*
X138376190Y-94283390D01*
X138376190Y-94283390D02*
X138423809Y-94331009D01*
X138423809Y-94331009D02*
X138471428Y-94426247D01*
X138471428Y-94426247D02*
X138471428Y-94664342D01*
X138471428Y-94664342D02*
X138423809Y-94759580D01*
X138423809Y-94759580D02*
X138376190Y-94807200D01*
X138376190Y-94807200D02*
X138280952Y-94854819D01*
X138280952Y-94854819D02*
X137995238Y-94854819D01*
X137995238Y-94854819D02*
X137900000Y-94807200D01*
X137900000Y-94807200D02*
X137852381Y-94759580D01*
X117328571Y-94807200D02*
X117471428Y-94854819D01*
X117471428Y-94854819D02*
X117709523Y-94854819D01*
X117709523Y-94854819D02*
X117804761Y-94807200D01*
X117804761Y-94807200D02*
X117852380Y-94759580D01*
X117852380Y-94759580D02*
X117899999Y-94664342D01*
X117899999Y-94664342D02*
X117899999Y-94569104D01*
X117899999Y-94569104D02*
X117852380Y-94473866D01*
X117852380Y-94473866D02*
X117804761Y-94426247D01*
X117804761Y-94426247D02*
X117709523Y-94378628D01*
X117709523Y-94378628D02*
X117519047Y-94331009D01*
X117519047Y-94331009D02*
X117423809Y-94283390D01*
X117423809Y-94283390D02*
X117376190Y-94235771D01*
X117376190Y-94235771D02*
X117328571Y-94140533D01*
X117328571Y-94140533D02*
X117328571Y-94045295D01*
X117328571Y-94045295D02*
X117376190Y-93950057D01*
X117376190Y-93950057D02*
X117423809Y-93902438D01*
X117423809Y-93902438D02*
X117519047Y-93854819D01*
X117519047Y-93854819D02*
X117757142Y-93854819D01*
X117757142Y-93854819D02*
X117899999Y-93902438D01*
X118233333Y-93854819D02*
X118471428Y-94854819D01*
X118471428Y-94854819D02*
X118661904Y-94140533D01*
X118661904Y-94140533D02*
X118852380Y-94854819D01*
X118852380Y-94854819D02*
X119090476Y-93854819D01*
X119233333Y-94950057D02*
X119995237Y-94950057D01*
X120757142Y-94854819D02*
X120185714Y-94854819D01*
X120471428Y-94854819D02*
X120471428Y-93854819D01*
X120471428Y-93854819D02*
X120376190Y-93997676D01*
X120376190Y-93997676D02*
X120280952Y-94092914D01*
X120280952Y-94092914D02*
X120185714Y-94140533D01*
X120947619Y-94950057D02*
X121709523Y-94950057D01*
X121900000Y-93950057D02*
X121947619Y-93902438D01*
X121947619Y-93902438D02*
X122042857Y-93854819D01*
X122042857Y-93854819D02*
X122280952Y-93854819D01*
X122280952Y-93854819D02*
X122376190Y-93902438D01*
X122376190Y-93902438D02*
X122423809Y-93950057D01*
X122423809Y-93950057D02*
X122471428Y-94045295D01*
X122471428Y-94045295D02*
X122471428Y-94140533D01*
X122471428Y-94140533D02*
X122423809Y-94283390D01*
X122423809Y-94283390D02*
X121852381Y-94854819D01*
X121852381Y-94854819D02*
X122471428Y-94854819D01*
X171416667Y-93907200D02*
X171559524Y-93954819D01*
X171559524Y-93954819D02*
X171797619Y-93954819D01*
X171797619Y-93954819D02*
X171892857Y-93907200D01*
X171892857Y-93907200D02*
X171940476Y-93859580D01*
X171940476Y-93859580D02*
X171988095Y-93764342D01*
X171988095Y-93764342D02*
X171988095Y-93669104D01*
X171988095Y-93669104D02*
X171940476Y-93573866D01*
X171940476Y-93573866D02*
X171892857Y-93526247D01*
X171892857Y-93526247D02*
X171797619Y-93478628D01*
X171797619Y-93478628D02*
X171607143Y-93431009D01*
X171607143Y-93431009D02*
X171511905Y-93383390D01*
X171511905Y-93383390D02*
X171464286Y-93335771D01*
X171464286Y-93335771D02*
X171416667Y-93240533D01*
X171416667Y-93240533D02*
X171416667Y-93145295D01*
X171416667Y-93145295D02*
X171464286Y-93050057D01*
X171464286Y-93050057D02*
X171511905Y-93002438D01*
X171511905Y-93002438D02*
X171607143Y-92954819D01*
X171607143Y-92954819D02*
X171845238Y-92954819D01*
X171845238Y-92954819D02*
X171988095Y-93002438D01*
X172321429Y-92954819D02*
X172559524Y-93954819D01*
X172559524Y-93954819D02*
X172750000Y-93240533D01*
X172750000Y-93240533D02*
X172940476Y-93954819D01*
X172940476Y-93954819D02*
X173178572Y-92954819D01*
X173464286Y-92954819D02*
X174083333Y-92954819D01*
X174083333Y-92954819D02*
X173750000Y-93335771D01*
X173750000Y-93335771D02*
X173892857Y-93335771D01*
X173892857Y-93335771D02*
X173988095Y-93383390D01*
X173988095Y-93383390D02*
X174035714Y-93431009D01*
X174035714Y-93431009D02*
X174083333Y-93526247D01*
X174083333Y-93526247D02*
X174083333Y-93764342D01*
X174083333Y-93764342D02*
X174035714Y-93859580D01*
X174035714Y-93859580D02*
X173988095Y-93907200D01*
X173988095Y-93907200D02*
X173892857Y-93954819D01*
X173892857Y-93954819D02*
X173607143Y-93954819D01*
X173607143Y-93954819D02*
X173511905Y-93907200D01*
X173511905Y-93907200D02*
X173464286Y-93859580D01*
X101328571Y-94807200D02*
X101471428Y-94854819D01*
X101471428Y-94854819D02*
X101709523Y-94854819D01*
X101709523Y-94854819D02*
X101804761Y-94807200D01*
X101804761Y-94807200D02*
X101852380Y-94759580D01*
X101852380Y-94759580D02*
X101899999Y-94664342D01*
X101899999Y-94664342D02*
X101899999Y-94569104D01*
X101899999Y-94569104D02*
X101852380Y-94473866D01*
X101852380Y-94473866D02*
X101804761Y-94426247D01*
X101804761Y-94426247D02*
X101709523Y-94378628D01*
X101709523Y-94378628D02*
X101519047Y-94331009D01*
X101519047Y-94331009D02*
X101423809Y-94283390D01*
X101423809Y-94283390D02*
X101376190Y-94235771D01*
X101376190Y-94235771D02*
X101328571Y-94140533D01*
X101328571Y-94140533D02*
X101328571Y-94045295D01*
X101328571Y-94045295D02*
X101376190Y-93950057D01*
X101376190Y-93950057D02*
X101423809Y-93902438D01*
X101423809Y-93902438D02*
X101519047Y-93854819D01*
X101519047Y-93854819D02*
X101757142Y-93854819D01*
X101757142Y-93854819D02*
X101899999Y-93902438D01*
X102233333Y-93854819D02*
X102471428Y-94854819D01*
X102471428Y-94854819D02*
X102661904Y-94140533D01*
X102661904Y-94140533D02*
X102852380Y-94854819D01*
X102852380Y-94854819D02*
X103090476Y-93854819D01*
X103233333Y-94950057D02*
X103995237Y-94950057D01*
X104757142Y-94854819D02*
X104185714Y-94854819D01*
X104471428Y-94854819D02*
X104471428Y-93854819D01*
X104471428Y-93854819D02*
X104376190Y-93997676D01*
X104376190Y-93997676D02*
X104280952Y-94092914D01*
X104280952Y-94092914D02*
X104185714Y-94140533D01*
X104947619Y-94950057D02*
X105709523Y-94950057D01*
X106471428Y-94854819D02*
X105900000Y-94854819D01*
X106185714Y-94854819D02*
X106185714Y-93854819D01*
X106185714Y-93854819D02*
X106090476Y-93997676D01*
X106090476Y-93997676D02*
X105995238Y-94092914D01*
X105995238Y-94092914D02*
X105900000Y-94140533D01*
X182666666Y-95964819D02*
X182666666Y-96679104D01*
X182666666Y-96679104D02*
X182619047Y-96821961D01*
X182619047Y-96821961D02*
X182523809Y-96917200D01*
X182523809Y-96917200D02*
X182380952Y-96964819D01*
X182380952Y-96964819D02*
X182285714Y-96964819D01*
X183047619Y-95964819D02*
X183666666Y-95964819D01*
X183666666Y-95964819D02*
X183333333Y-96345771D01*
X183333333Y-96345771D02*
X183476190Y-96345771D01*
X183476190Y-96345771D02*
X183571428Y-96393390D01*
X183571428Y-96393390D02*
X183619047Y-96441009D01*
X183619047Y-96441009D02*
X183666666Y-96536247D01*
X183666666Y-96536247D02*
X183666666Y-96774342D01*
X183666666Y-96774342D02*
X183619047Y-96869580D01*
X183619047Y-96869580D02*
X183571428Y-96917200D01*
X183571428Y-96917200D02*
X183476190Y-96964819D01*
X183476190Y-96964819D02*
X183190476Y-96964819D01*
X183190476Y-96964819D02*
X183095238Y-96917200D01*
X183095238Y-96917200D02*
X183047619Y-96869580D01*
D13*
%TO.C,Q2*%
X134000000Y-111440000D02*
X133350000Y-111440000D01*
X134000000Y-111440000D02*
X134650000Y-111440000D01*
X134000000Y-114560000D02*
X133350000Y-114560000D01*
X134000000Y-114560000D02*
X134650000Y-114560000D01*
X135402500Y-114840000D02*
X134922500Y-114840000D01*
X135162500Y-114510000D01*
X135402500Y-114840000D01*
G36*
X135402500Y-114840000D02*
G01*
X134922500Y-114840000D01*
X135162500Y-114510000D01*
X135402500Y-114840000D01*
G37*
%TO.C,R3*%
X158072936Y-101015000D02*
X158527064Y-101015000D01*
X158072936Y-102485000D02*
X158527064Y-102485000D01*
%TO.C,C1*%
X163261252Y-91515000D02*
X162738748Y-91515000D01*
X163261252Y-92985000D02*
X162738748Y-92985000D01*
%TO.C,L_1_2*%
X122515000Y-105940000D02*
X122515000Y-107860000D01*
X122515000Y-107860000D02*
X125200000Y-107860000D01*
X125200000Y-105940000D02*
X122515000Y-105940000D01*
%TO.C,R10*%
X147565000Y-98885436D02*
X147565000Y-99339564D01*
X149035000Y-98885436D02*
X149035000Y-99339564D01*
%TO.C,R15*%
X161365000Y-108022936D02*
X161365000Y-108477064D01*
X162835000Y-108022936D02*
X162835000Y-108477064D01*
%TO.C,SW_1_3*%
X133215000Y-95415000D02*
X147185000Y-95415000D01*
X133215000Y-109385000D02*
X133215000Y-95415000D01*
X147185000Y-95415000D02*
X147185000Y-109385000D01*
X147185000Y-109385000D02*
X133215000Y-109385000D01*
%TO.C,D1*%
X156215000Y-111865000D02*
X156215000Y-114135000D01*
X156215000Y-114135000D02*
X160100000Y-114135000D01*
X160100000Y-111865000D02*
X156215000Y-111865000D01*
%TO.C,R8*%
X147565000Y-102472936D02*
X147565000Y-102927064D01*
X149035000Y-102472936D02*
X149035000Y-102927064D01*
%TO.C,R7*%
X147565000Y-105972936D02*
X147565000Y-106427064D01*
X149035000Y-105972936D02*
X149035000Y-106427064D01*
%TO.C,R_1_1*%
X116353641Y-106520000D02*
X116046359Y-106520000D01*
X116353641Y-107280000D02*
X116046359Y-107280000D01*
%TO.C,SW2*%
X176100000Y-90850000D02*
X179400000Y-90850000D01*
X176100000Y-91150000D02*
X176100000Y-90850000D01*
X176100000Y-93350000D02*
X176100000Y-93650000D01*
X176100000Y-93650000D02*
X179400000Y-93650000D01*
X179400000Y-90850000D02*
X179400000Y-91150000D01*
X179400000Y-93650000D02*
X179400000Y-93350000D01*
%TO.C,R13*%
X147663641Y-110620000D02*
X147356359Y-110620000D01*
X147663641Y-111380000D02*
X147356359Y-111380000D01*
%TO.C,J2*%
X165755000Y-111520000D02*
X165755000Y-114280000D01*
X168405000Y-111520000D02*
X165755000Y-111520000D01*
X168405000Y-111520000D02*
X168405000Y-114280000D01*
X168405000Y-114280000D02*
X165755000Y-114280000D01*
X169675000Y-111520000D02*
X171055000Y-111520000D01*
X171055000Y-111520000D02*
X171055000Y-112900000D01*
%TO.C,D_1_1*%
X110540000Y-93000000D02*
X110540000Y-95000000D01*
X110540000Y-93000000D02*
X114550000Y-93000000D01*
X110540000Y-95000000D02*
X114550000Y-95000000D01*
%TO.C,R6*%
X138153641Y-109620000D02*
X137846359Y-109620000D01*
X138153641Y-110380000D02*
X137846359Y-110380000D01*
%TO.C,R4*%
X163227064Y-112265000D02*
X162772936Y-112265000D01*
X163227064Y-113735000D02*
X162772936Y-113735000D01*
%TO.C,R12*%
X163227064Y-110265000D02*
X162772936Y-110265000D01*
X163227064Y-111735000D02*
X162772936Y-111735000D01*
%TO.C,R5*%
X149015000Y-109610436D02*
X149015000Y-110064564D01*
X150485000Y-109610436D02*
X150485000Y-110064564D01*
%TO.C,D_1_2*%
X126440000Y-92900000D02*
X126440000Y-94900000D01*
X126440000Y-92900000D02*
X130450000Y-92900000D01*
X126440000Y-94900000D02*
X130450000Y-94900000D01*
%TO.C,L_1_3*%
X138577500Y-105940000D02*
X138577500Y-107860000D01*
X138577500Y-107860000D02*
X141262500Y-107860000D01*
X141262500Y-105940000D02*
X138577500Y-105940000D01*
%TO.C,L_1_1*%
X107200000Y-107860000D02*
X109885000Y-107860000D01*
X109885000Y-105940000D02*
X107200000Y-105940000D01*
X109885000Y-107860000D02*
X109885000Y-105940000D01*
%TO.C,R11*%
X143853641Y-109620000D02*
X143546359Y-109620000D01*
X143853641Y-110380000D02*
X143546359Y-110380000D01*
%TO.C,Q3*%
X139000000Y-111440000D02*
X138350000Y-111440000D01*
X139000000Y-111440000D02*
X139650000Y-111440000D01*
X139000000Y-114560000D02*
X138350000Y-114560000D01*
X139000000Y-114560000D02*
X139650000Y-114560000D01*
X140402500Y-114840000D02*
X139922500Y-114840000D01*
X140162500Y-114510000D01*
X140402500Y-114840000D01*
G36*
X140402500Y-114840000D02*
G01*
X139922500Y-114840000D01*
X140162500Y-114510000D01*
X140402500Y-114840000D01*
G37*
%TO.C,SW1*%
X166050000Y-90850000D02*
X169350000Y-90850000D01*
X166050000Y-91150000D02*
X166050000Y-90850000D01*
X166050000Y-93350000D02*
X166050000Y-93650000D01*
X166050000Y-93650000D02*
X169350000Y-93650000D01*
X169350000Y-90850000D02*
X169350000Y-91150000D01*
X169350000Y-93650000D02*
X169350000Y-93350000D01*
%TO.C,C2*%
X162738748Y-96515000D02*
X163261252Y-96515000D01*
X162738748Y-97985000D02*
X163261252Y-97985000D01*
%TO.C,SW_1_2*%
X117215000Y-95415000D02*
X131185000Y-95415000D01*
X117215000Y-109385000D02*
X117215000Y-95415000D01*
X131185000Y-95415000D02*
X131185000Y-109385000D01*
X131185000Y-109385000D02*
X117215000Y-109385000D01*
%TO.C,R14*%
X159265000Y-108022936D02*
X159265000Y-108477064D01*
X160735000Y-108022936D02*
X160735000Y-108477064D01*
%TO.C,Q1*%
X128750000Y-111440000D02*
X128100000Y-111440000D01*
X128750000Y-111440000D02*
X129400000Y-111440000D01*
X128750000Y-114560000D02*
X128100000Y-114560000D01*
X128750000Y-114560000D02*
X129400000Y-114560000D01*
X130152500Y-114840000D02*
X129672500Y-114840000D01*
X129912500Y-114510000D01*
X130152500Y-114840000D01*
G36*
X130152500Y-114840000D02*
G01*
X129672500Y-114840000D01*
X129912500Y-114510000D01*
X130152500Y-114840000D01*
G37*
D14*
%TO.C,SW3*%
X166150000Y-95149936D02*
X179350000Y-95149936D01*
X166150000Y-100057099D02*
X166150000Y-95149936D01*
X166150000Y-108349936D02*
X166150000Y-103442774D01*
X169526632Y-108349936D02*
X166150000Y-108349936D01*
X170500013Y-100749936D02*
X175000013Y-100749936D01*
X171000013Y-99999949D02*
X174500013Y-99999949D01*
X172066637Y-108349936D02*
X170893358Y-108349936D01*
X174606642Y-108349936D02*
X173433363Y-108349936D01*
X179250000Y-95149936D02*
X179350000Y-95149936D01*
X179350000Y-100057099D02*
X179350000Y-95149936D01*
X179350000Y-108349936D02*
X175973368Y-108349936D01*
X179350000Y-108349936D02*
X179350000Y-103442774D01*
X170500012Y-100749938D02*
G75*
G02*
X175000013Y-100749936I2250001J-1028958D01*
G01*
X171000013Y-99999949D02*
G75*
G02*
X174500013Y-99999949I1750000J-1509024D01*
G01*
D15*
X165530061Y-110150064D02*
G75*
G02*
X165470067Y-110150064I-29997J0D01*
G01*
X165470067Y-110150064D02*
G75*
G02*
X165530061Y-110150064I29997J0D01*
G01*
D14*
X169551372Y-96649860D02*
G75*
G02*
X167748476Y-96649860I-901448J0D01*
G01*
X167748476Y-96649860D02*
G75*
G02*
X169551372Y-96649860I901448J0D01*
G01*
X169551372Y-106850013D02*
G75*
G02*
X167748476Y-106850013I-901448J0D01*
G01*
X167748476Y-106850013D02*
G75*
G02*
X169551372Y-106850013I901448J0D01*
G01*
X176250127Y-101749936D02*
G75*
G02*
X169249873Y-101749936I-3500127J0D01*
G01*
X169249873Y-101749936D02*
G75*
G02*
X176250127Y-101749936I3500127J0D01*
G01*
X175754064Y-101751461D02*
G75*
G02*
X169750000Y-101751461I-3002032J0D01*
G01*
X169750000Y-101751461D02*
G75*
G02*
X175754064Y-101751461I3002032J0D01*
G01*
X177751524Y-96649860D02*
G75*
G02*
X175948628Y-96649860I-901448J0D01*
G01*
X175948628Y-96649860D02*
G75*
G02*
X177751524Y-96649860I901448J0D01*
G01*
X177751524Y-106850013D02*
G75*
G02*
X175948628Y-106850013I-901448J0D01*
G01*
X175948628Y-106850013D02*
G75*
G02*
X177751524Y-106850013I901448J0D01*
G01*
D13*
%TO.C,D2*%
X147215000Y-111865000D02*
X147215000Y-114135000D01*
X147215000Y-114135000D02*
X151100000Y-114135000D01*
X151100000Y-111865000D02*
X147215000Y-111865000D01*
%TO.C,R_1_3*%
X147520000Y-109146359D02*
X147520000Y-109453641D01*
X148280000Y-109146359D02*
X148280000Y-109453641D01*
%TO.C,Q4*%
X144900000Y-111440000D02*
X144250000Y-111440000D01*
X144900000Y-111440000D02*
X145550000Y-111440000D01*
X144900000Y-114560000D02*
X144250000Y-114560000D01*
X144900000Y-114560000D02*
X145550000Y-114560000D01*
X146302500Y-114840000D02*
X145822500Y-114840000D01*
X146062500Y-114510000D01*
X146302500Y-114840000D01*
G36*
X146302500Y-114840000D02*
G01*
X145822500Y-114840000D01*
X146062500Y-114510000D01*
X146302500Y-114840000D01*
G37*
%TO.C,R2*%
X151272936Y-101015000D02*
X151727064Y-101015000D01*
X151272936Y-102485000D02*
X151727064Y-102485000D01*
%TO.C,R9*%
X141053641Y-109620000D02*
X140746359Y-109620000D01*
X141053641Y-110380000D02*
X140746359Y-110380000D01*
%TO.C,R1*%
X163265000Y-100227064D02*
X163265000Y-99772936D01*
X164735000Y-100227064D02*
X164735000Y-99772936D01*
%TO.C,D_1_3*%
X142540000Y-92900000D02*
X142540000Y-94900000D01*
X142540000Y-92900000D02*
X146550000Y-92900000D01*
X142540000Y-94900000D02*
X146550000Y-94900000D01*
%TO.C,SW_1_1*%
X101215000Y-95415000D02*
X115185000Y-95415000D01*
X101215000Y-109385000D02*
X101215000Y-95415000D01*
X115185000Y-95415000D02*
X115185000Y-109385000D01*
X115185000Y-109385000D02*
X101215000Y-109385000D01*
%TO.C,C3*%
X162738748Y-94015000D02*
X163261252Y-94015000D01*
X162738748Y-95485000D02*
X163261252Y-95485000D01*
%TO.C,U1*%
X154750000Y-104365000D02*
X152550000Y-104365000D01*
X154750000Y-104365000D02*
X156950000Y-104365000D01*
X154750000Y-111135000D02*
X152550000Y-111135000D01*
X154750000Y-111135000D02*
X156950000Y-111135000D01*
X150890000Y-104825000D02*
X150560000Y-105065000D01*
X150560000Y-104585000D01*
X150890000Y-104825000D01*
G36*
X150890000Y-104825000D02*
G01*
X150560000Y-105065000D01*
X150560000Y-104585000D01*
X150890000Y-104825000D01*
G37*
%TO.C,R16*%
X161265000Y-99772936D02*
X161265000Y-100227064D01*
X162735000Y-99772936D02*
X162735000Y-100227064D01*
%TO.C,J1*%
X150300000Y-92250000D02*
X150300000Y-90350000D01*
X150300000Y-96150000D02*
X150300000Y-94150000D01*
X159700000Y-90350000D02*
X150300000Y-90350000D01*
X159700000Y-92250000D02*
X159700000Y-90350000D01*
X159700000Y-96150000D02*
X159700000Y-94150000D01*
%TO.C,R_1_2*%
X132343641Y-106520000D02*
X132036359Y-106520000D01*
X132343641Y-107280000D02*
X132036359Y-107280000D01*
%TO.C,J3*%
X181620000Y-97510000D02*
X183000000Y-97510000D01*
X181620000Y-98890000D02*
X181620000Y-97510000D01*
X181620000Y-100160000D02*
X181620000Y-107890000D01*
X181620000Y-100160000D02*
X184380000Y-100160000D01*
X181620000Y-107890000D02*
X184380000Y-107890000D01*
X184380000Y-100160000D02*
X184380000Y-107890000D01*
%TD*%
M02*
