%TF.GenerationSoftware,KiCad,Pcbnew,9.0.2*%
%TF.CreationDate,2025-06-04T14:00:08+08:00*%
%TF.ProjectId,tsubaki_lite,74737562-616b-4695-9f6c-6974652e6b69,4*%
%TF.SameCoordinates,Original*%
%TF.FileFunction,Legend,Bot*%
%TF.FilePolarity,Positive*%
%FSLAX46Y46*%
G04 Gerber Fmt 4.6, Leading zero omitted, Abs format (unit mm)*
G04 Created by KiCad (PCBNEW 9.0.2) date 2025-06-04 14:00:08*
%MOMM*%
%LPD*%
G01*
G04 APERTURE LIST*
%ADD10C,0.100000*%
%ADD11C,0.150000*%
%ADD12C,0.120000*%
G04 APERTURE END LIST*
D10*
X173463408Y-113103104D02*
X173196741Y-113484057D01*
X173006265Y-113103104D02*
X173006265Y-113903104D01*
X173006265Y-113903104D02*
X173311027Y-113903104D01*
X173311027Y-113903104D02*
X173387217Y-113865009D01*
X173387217Y-113865009D02*
X173425312Y-113826914D01*
X173425312Y-113826914D02*
X173463408Y-113750723D01*
X173463408Y-113750723D02*
X173463408Y-113636438D01*
X173463408Y-113636438D02*
X173425312Y-113560247D01*
X173425312Y-113560247D02*
X173387217Y-113522152D01*
X173387217Y-113522152D02*
X173311027Y-113484057D01*
X173311027Y-113484057D02*
X173006265Y-113484057D01*
X173730074Y-113903104D02*
X174263408Y-113103104D01*
X174263408Y-113903104D02*
X173730074Y-113103104D01*
X175063408Y-113903104D02*
X175520551Y-113903104D01*
X175291979Y-113103104D02*
X175291979Y-113903104D01*
X175711027Y-113903104D02*
X176244361Y-113103104D01*
X176244361Y-113903104D02*
X175711027Y-113103104D01*
X179506265Y-113353104D02*
X179506265Y-114153104D01*
X179506265Y-114153104D02*
X179696741Y-114153104D01*
X179696741Y-114153104D02*
X179811027Y-114115009D01*
X179811027Y-114115009D02*
X179887217Y-114038819D01*
X179887217Y-114038819D02*
X179925312Y-113962628D01*
X179925312Y-113962628D02*
X179963408Y-113810247D01*
X179963408Y-113810247D02*
X179963408Y-113695961D01*
X179963408Y-113695961D02*
X179925312Y-113543580D01*
X179925312Y-113543580D02*
X179887217Y-113467390D01*
X179887217Y-113467390D02*
X179811027Y-113391200D01*
X179811027Y-113391200D02*
X179696741Y-113353104D01*
X179696741Y-113353104D02*
X179506265Y-113353104D01*
X180306265Y-113353104D02*
X180306265Y-114153104D01*
X180839598Y-114153104D02*
X180991979Y-114153104D01*
X180991979Y-114153104D02*
X181068169Y-114115009D01*
X181068169Y-114115009D02*
X181144360Y-114038819D01*
X181144360Y-114038819D02*
X181182455Y-113886438D01*
X181182455Y-113886438D02*
X181182455Y-113619771D01*
X181182455Y-113619771D02*
X181144360Y-113467390D01*
X181144360Y-113467390D02*
X181068169Y-113391200D01*
X181068169Y-113391200D02*
X180991979Y-113353104D01*
X180991979Y-113353104D02*
X180839598Y-113353104D01*
X180839598Y-113353104D02*
X180763407Y-113391200D01*
X180763407Y-113391200D02*
X180687217Y-113467390D01*
X180687217Y-113467390D02*
X180649121Y-113619771D01*
X180649121Y-113619771D02*
X180649121Y-113886438D01*
X180649121Y-113886438D02*
X180687217Y-114038819D01*
X180687217Y-114038819D02*
X180763407Y-114115009D01*
X180763407Y-114115009D02*
X180839598Y-114153104D01*
X182134836Y-113353104D02*
X182134836Y-114153104D01*
X182134836Y-114153104D02*
X182325312Y-114153104D01*
X182325312Y-114153104D02*
X182439598Y-114115009D01*
X182439598Y-114115009D02*
X182515788Y-114038819D01*
X182515788Y-114038819D02*
X182553883Y-113962628D01*
X182553883Y-113962628D02*
X182591979Y-113810247D01*
X182591979Y-113810247D02*
X182591979Y-113695961D01*
X182591979Y-113695961D02*
X182553883Y-113543580D01*
X182553883Y-113543580D02*
X182515788Y-113467390D01*
X182515788Y-113467390D02*
X182439598Y-113391200D01*
X182439598Y-113391200D02*
X182325312Y-113353104D01*
X182325312Y-113353104D02*
X182134836Y-113353104D01*
X183391979Y-113429295D02*
X183353883Y-113391200D01*
X183353883Y-113391200D02*
X183239598Y-113353104D01*
X183239598Y-113353104D02*
X183163407Y-113353104D01*
X183163407Y-113353104D02*
X183049121Y-113391200D01*
X183049121Y-113391200D02*
X182972931Y-113467390D01*
X182972931Y-113467390D02*
X182934836Y-113543580D01*
X182934836Y-113543580D02*
X182896740Y-113695961D01*
X182896740Y-113695961D02*
X182896740Y-113810247D01*
X182896740Y-113810247D02*
X182934836Y-113962628D01*
X182934836Y-113962628D02*
X182972931Y-114038819D01*
X182972931Y-114038819D02*
X183049121Y-114115009D01*
X183049121Y-114115009D02*
X183163407Y-114153104D01*
X183163407Y-114153104D02*
X183239598Y-114153104D01*
X183239598Y-114153104D02*
X183353883Y-114115009D01*
X183353883Y-114115009D02*
X183391979Y-114076914D01*
X183734836Y-113353104D02*
X183734836Y-114153104D01*
X184191979Y-113353104D02*
X183849121Y-113810247D01*
X184191979Y-114153104D02*
X183734836Y-113695961D01*
X185563407Y-114115009D02*
X185487217Y-114153104D01*
X185487217Y-114153104D02*
X185372931Y-114153104D01*
X185372931Y-114153104D02*
X185258645Y-114115009D01*
X185258645Y-114115009D02*
X185182455Y-114038819D01*
X185182455Y-114038819D02*
X185144360Y-113962628D01*
X185144360Y-113962628D02*
X185106264Y-113810247D01*
X185106264Y-113810247D02*
X185106264Y-113695961D01*
X185106264Y-113695961D02*
X185144360Y-113543580D01*
X185144360Y-113543580D02*
X185182455Y-113467390D01*
X185182455Y-113467390D02*
X185258645Y-113391200D01*
X185258645Y-113391200D02*
X185372931Y-113353104D01*
X185372931Y-113353104D02*
X185449122Y-113353104D01*
X185449122Y-113353104D02*
X185563407Y-113391200D01*
X185563407Y-113391200D02*
X185601503Y-113429295D01*
X185601503Y-113429295D02*
X185601503Y-113695961D01*
X185601503Y-113695961D02*
X185449122Y-113695961D01*
X185944360Y-113353104D02*
X185944360Y-114153104D01*
X185944360Y-114153104D02*
X186401503Y-113353104D01*
X186401503Y-113353104D02*
X186401503Y-114153104D01*
X186782455Y-113353104D02*
X186782455Y-114153104D01*
X186782455Y-114153104D02*
X186972931Y-114153104D01*
X186972931Y-114153104D02*
X187087217Y-114115009D01*
X187087217Y-114115009D02*
X187163407Y-114038819D01*
X187163407Y-114038819D02*
X187201502Y-113962628D01*
X187201502Y-113962628D02*
X187239598Y-113810247D01*
X187239598Y-113810247D02*
X187239598Y-113695961D01*
X187239598Y-113695961D02*
X187201502Y-113543580D01*
X187201502Y-113543580D02*
X187163407Y-113467390D01*
X187163407Y-113467390D02*
X187087217Y-113391200D01*
X187087217Y-113391200D02*
X186972931Y-113353104D01*
X186972931Y-113353104D02*
X186782455Y-113353104D01*
X188077693Y-114153104D02*
X188344360Y-113353104D01*
X188344360Y-113353104D02*
X188611026Y-114153104D01*
X188877693Y-113353104D02*
X188877693Y-114153104D01*
X188877693Y-114153104D02*
X189068169Y-114153104D01*
X189068169Y-114153104D02*
X189182455Y-114115009D01*
X189182455Y-114115009D02*
X189258645Y-114038819D01*
X189258645Y-114038819D02*
X189296740Y-113962628D01*
X189296740Y-113962628D02*
X189334836Y-113810247D01*
X189334836Y-113810247D02*
X189334836Y-113695961D01*
X189334836Y-113695961D02*
X189296740Y-113543580D01*
X189296740Y-113543580D02*
X189258645Y-113467390D01*
X189258645Y-113467390D02*
X189182455Y-113391200D01*
X189182455Y-113391200D02*
X189068169Y-113353104D01*
X189068169Y-113353104D02*
X188877693Y-113353104D01*
X189677693Y-113353104D02*
X189677693Y-114153104D01*
X189677693Y-114153104D02*
X189868169Y-114153104D01*
X189868169Y-114153104D02*
X189982455Y-114115009D01*
X189982455Y-114115009D02*
X190058645Y-114038819D01*
X190058645Y-114038819D02*
X190096740Y-113962628D01*
X190096740Y-113962628D02*
X190134836Y-113810247D01*
X190134836Y-113810247D02*
X190134836Y-113695961D01*
X190134836Y-113695961D02*
X190096740Y-113543580D01*
X190096740Y-113543580D02*
X190058645Y-113467390D01*
X190058645Y-113467390D02*
X189982455Y-113391200D01*
X189982455Y-113391200D02*
X189868169Y-113353104D01*
X189868169Y-113353104D02*
X189677693Y-113353104D01*
D11*
X183649404Y-99404819D02*
X183649404Y-100214342D01*
X183649404Y-100214342D02*
X183601785Y-100309580D01*
X183601785Y-100309580D02*
X183554166Y-100357200D01*
X183554166Y-100357200D02*
X183458928Y-100404819D01*
X183458928Y-100404819D02*
X183268452Y-100404819D01*
X183268452Y-100404819D02*
X183173214Y-100357200D01*
X183173214Y-100357200D02*
X183125595Y-100309580D01*
X183125595Y-100309580D02*
X183077976Y-100214342D01*
X183077976Y-100214342D02*
X183077976Y-99404819D01*
X182649404Y-99500057D02*
X182601785Y-99452438D01*
X182601785Y-99452438D02*
X182506547Y-99404819D01*
X182506547Y-99404819D02*
X182268452Y-99404819D01*
X182268452Y-99404819D02*
X182173214Y-99452438D01*
X182173214Y-99452438D02*
X182125595Y-99500057D01*
X182125595Y-99500057D02*
X182077976Y-99595295D01*
X182077976Y-99595295D02*
X182077976Y-99690533D01*
X182077976Y-99690533D02*
X182125595Y-99833390D01*
X182125595Y-99833390D02*
X182697023Y-100404819D01*
X182697023Y-100404819D02*
X182077976Y-100404819D01*
X175511904Y-103954819D02*
X175511904Y-104764342D01*
X175511904Y-104764342D02*
X175464285Y-104859580D01*
X175464285Y-104859580D02*
X175416666Y-104907200D01*
X175416666Y-104907200D02*
X175321428Y-104954819D01*
X175321428Y-104954819D02*
X175130952Y-104954819D01*
X175130952Y-104954819D02*
X175035714Y-104907200D01*
X175035714Y-104907200D02*
X174988095Y-104859580D01*
X174988095Y-104859580D02*
X174940476Y-104764342D01*
X174940476Y-104764342D02*
X174940476Y-103954819D01*
X173940476Y-104954819D02*
X174511904Y-104954819D01*
X174226190Y-104954819D02*
X174226190Y-103954819D01*
X174226190Y-103954819D02*
X174321428Y-104097676D01*
X174321428Y-104097676D02*
X174416666Y-104192914D01*
X174416666Y-104192914D02*
X174511904Y-104240533D01*
D12*
%TO.C,C1*%
X167311252Y-108265000D02*
X166788748Y-108265000D01*
X167311252Y-109735000D02*
X166788748Y-109735000D01*
%TO.C,U2*%
X182887500Y-95640000D02*
X182087500Y-95640000D01*
X182887500Y-95640000D02*
X183687500Y-95640000D01*
X182887500Y-98760000D02*
X182087500Y-98760000D01*
X182887500Y-98760000D02*
X183687500Y-98760000D01*
X184187500Y-95690000D02*
X183947500Y-95360000D01*
X184427500Y-95360000D01*
X184187500Y-95690000D01*
G36*
X184187500Y-95690000D02*
G01*
X183947500Y-95360000D01*
X184427500Y-95360000D01*
X184187500Y-95690000D01*
G37*
%TO.C,D_1_4*%
X161110000Y-98500000D02*
X157100000Y-98500000D01*
X161110000Y-98500000D02*
X161110000Y-100500000D01*
X161110000Y-100500000D02*
X157100000Y-100500000D01*
%TO.C,D_1_3*%
X156890000Y-94500000D02*
X160900000Y-94500000D01*
X156890000Y-96500000D02*
X156890000Y-94500000D01*
X156890000Y-96500000D02*
X160900000Y-96500000D01*
%TO.C,D_1_2*%
X137390000Y-94500000D02*
X141400000Y-94500000D01*
X137390000Y-96500000D02*
X137390000Y-94500000D01*
X137390000Y-96500000D02*
X141400000Y-96500000D01*
%TO.C,D_1_1*%
X117890000Y-94500000D02*
X121900000Y-94500000D01*
X117890000Y-96500000D02*
X117890000Y-94500000D01*
X117890000Y-96500000D02*
X121900000Y-96500000D01*
%TO.C,U1*%
X175500000Y-105365000D02*
X173300000Y-105365000D01*
X175500000Y-105365000D02*
X177700000Y-105365000D01*
X175500000Y-112135000D02*
X173300000Y-112135000D01*
X175500000Y-112135000D02*
X177700000Y-112135000D01*
X171640000Y-111675000D02*
X171310000Y-111915000D01*
X171310000Y-111435000D01*
X171640000Y-111675000D01*
G36*
X171640000Y-111675000D02*
G01*
X171310000Y-111915000D01*
X171310000Y-111435000D01*
X171640000Y-111675000D01*
G37*
%TO.C,C2*%
X177761252Y-101265000D02*
X177238748Y-101265000D01*
X177761252Y-102735000D02*
X177238748Y-102735000D01*
%TO.C,C3*%
X177761252Y-103275000D02*
X177238748Y-103275000D01*
X177761252Y-104745000D02*
X177238748Y-104745000D01*
%TD*%
M02*
