%TF.GenerationSoftware,KiCad,Pcbnew,9.0.2*%
%TF.CreationDate,2025-06-04T14:00:07+08:00*%
%TF.ProjectId,tsubaki_lite,74737562-616b-4695-9f6c-6974652e6b69,4*%
%TF.SameCoordinates,Original*%
%TF.FileFunction,Copper,L2,Bot*%
%TF.FilePolarity,Positive*%
%FSLAX46Y46*%
G04 Gerber Fmt 4.6, Leading zero omitted, Abs format (unit mm)*
G04 Created by KiCad (PCBNEW 9.0.2) date 2025-06-04 14:00:07*
%MOMM*%
%LPD*%
G01*
G04 APERTURE LIST*
G04 Aperture macros list*
%AMRoundRect*
0 Rectangle with rounded corners*
0 $1 Rounding radius*
0 $2 $3 $4 $5 $6 $7 $8 $9 X,Y pos of 4 corners*
0 Add a 4 corners polygon primitive as box body*
4,1,4,$2,$3,$4,$5,$6,$7,$8,$9,$2,$3,0*
0 Add four circle primitives for the rounded corners*
1,1,$1+$1,$2,$3*
1,1,$1+$1,$4,$5*
1,1,$1+$1,$6,$7*
1,1,$1+$1,$8,$9*
0 Add four rect primitives between the rounded corners*
20,1,$1+$1,$2,$3,$4,$5,0*
20,1,$1+$1,$4,$5,$6,$7,0*
20,1,$1+$1,$6,$7,$8,$9,0*
20,1,$1+$1,$8,$9,$2,$3,0*%
G04 Aperture macros list end*
%TA.AperFunction,ComponentPad*%
%ADD10C,2.200000*%
%TD*%
%TA.AperFunction,ComponentPad*%
%ADD11C,1.800000*%
%TD*%
%TA.AperFunction,ComponentPad*%
%ADD12O,3.300000X3.500000*%
%TD*%
%TA.AperFunction,ComponentPad*%
%ADD13R,1.700000X1.700000*%
%TD*%
%TA.AperFunction,ComponentPad*%
%ADD14C,1.700000*%
%TD*%
%TA.AperFunction,HeatsinkPad*%
%ADD15O,1.000000X2.100000*%
%TD*%
%TA.AperFunction,HeatsinkPad*%
%ADD16O,1.000000X1.600000*%
%TD*%
%TA.AperFunction,SMDPad,CuDef*%
%ADD17RoundRect,0.250000X0.250000X0.475000X-0.250000X0.475000X-0.250000X-0.475000X0.250000X-0.475000X0*%
%TD*%
%TA.AperFunction,SMDPad,CuDef*%
%ADD18RoundRect,0.150000X0.512500X0.150000X-0.512500X0.150000X-0.512500X-0.150000X0.512500X-0.150000X0*%
%TD*%
%TA.AperFunction,SMDPad,CuDef*%
%ADD19RoundRect,0.225000X0.225000X0.375000X-0.225000X0.375000X-0.225000X-0.375000X0.225000X-0.375000X0*%
%TD*%
%TA.AperFunction,SMDPad,CuDef*%
%ADD20RoundRect,0.225000X-0.225000X-0.375000X0.225000X-0.375000X0.225000X0.375000X-0.225000X0.375000X0*%
%TD*%
%TA.AperFunction,SMDPad,CuDef*%
%ADD21RoundRect,0.100000X-0.637500X-0.100000X0.637500X-0.100000X0.637500X0.100000X-0.637500X0.100000X0*%
%TD*%
%TA.AperFunction,ViaPad*%
%ADD22C,0.500000*%
%TD*%
%TA.AperFunction,Conductor*%
%ADD23C,0.250000*%
%TD*%
%TA.AperFunction,Conductor*%
%ADD24C,0.381000*%
%TD*%
%TA.AperFunction,Conductor*%
%ADD25C,0.254000*%
%TD*%
G04 APERTURE END LIST*
D10*
%TO.P,SW_1_3,1,1*%
%TO.N,/COL3*%
X151870000Y-97420000D03*
%TO.P,SW_1_3,2,2*%
%TO.N,Net-(D_1_3-K)*%
X145520000Y-99960000D03*
%TD*%
%TO.P,SW_1_1,1,1*%
%TO.N,/COL1*%
X112870000Y-97420000D03*
%TO.P,SW_1_1,2,2*%
%TO.N,Net-(D_1_1-K)*%
X106520000Y-99960000D03*
%TD*%
D11*
%TO.P,SW3,A,A*%
%TO.N,Net-(D_1_5-A)*%
X184459995Y-110000128D03*
%TO.P,SW3,B,B*%
%TO.N,Net-(D_1_6-A)*%
X189540005Y-110000128D03*
%TO.P,SW3,C,C*%
%TO.N,/ROW1*%
X187000000Y-110000128D03*
D12*
%TO.P,SW3,D,D*%
%TO.N,GND*%
X192599949Y-102500000D03*
%TO.P,SW3,E,E*%
X181400051Y-102500000D03*
%TD*%
D13*
%TO.P,J3,1,Pin_1*%
%TO.N,VDD*%
X188580000Y-115750000D03*
D14*
%TO.P,J3,2,Pin_2*%
%TO.N,GND*%
X186040000Y-115750000D03*
%TO.P,J3,3,Pin_3*%
%TO.N,/DCK*%
X183500000Y-115750000D03*
%TO.P,J3,4,Pin_4*%
%TO.N,/DIO*%
X180960000Y-115750000D03*
%TD*%
D13*
%TO.P,J2,1,Pin_1*%
%TO.N,/TX*%
X175775000Y-115750000D03*
D14*
%TO.P,J2,2,Pin_2*%
%TO.N,/RX*%
X173235000Y-115750000D03*
%TD*%
D10*
%TO.P,SW_1_4,1,1*%
%TO.N,/COL4*%
X171370000Y-97420000D03*
%TO.P,SW_1_4,2,2*%
%TO.N,Net-(D_1_4-K)*%
X165020000Y-99960000D03*
%TD*%
%TO.P,SW_1_2,1,1*%
%TO.N,/COL2*%
X132370000Y-97420000D03*
%TO.P,SW_1_2,2,2*%
%TO.N,Net-(D_1_2-K)*%
X126020000Y-99960000D03*
%TD*%
D15*
%TO.P,J1,S1,SHIELD*%
%TO.N,GND*%
X189070000Y-93030000D03*
D16*
X189070000Y-88850000D03*
D15*
X180430000Y-93030000D03*
D16*
X180430000Y-88850000D03*
%TD*%
D17*
%TO.P,C1,1*%
%TO.N,/RESET*%
X168000000Y-109000000D03*
%TO.P,C1,2*%
%TO.N,GND*%
X166100000Y-109000000D03*
%TD*%
D18*
%TO.P,U2,1,I/O1*%
%TO.N,Net-(J1-D--PadA7)*%
X184025000Y-96250000D03*
%TO.P,U2,2,GND*%
%TO.N,GND*%
X184025000Y-97200000D03*
%TO.P,U2,3,I/O2*%
%TO.N,Net-(J1-D+-PadA6)*%
X184025000Y-98150000D03*
%TO.P,U2,4,I/O2*%
%TO.N,/DP*%
X181750000Y-98150000D03*
%TO.P,U2,5,VBUS*%
%TO.N,VDD*%
X181750000Y-97200000D03*
%TO.P,U2,6,I/O1*%
%TO.N,/DM*%
X181750000Y-96250000D03*
%TD*%
D19*
%TO.P,D_1_4,1,K*%
%TO.N,Net-(D_1_4-K)*%
X160400000Y-99500000D03*
%TO.P,D_1_4,2,A*%
%TO.N,/ROW1*%
X157100000Y-99500000D03*
%TD*%
D20*
%TO.P,D_1_3,1,K*%
%TO.N,Net-(D_1_3-K)*%
X157600000Y-95500000D03*
%TO.P,D_1_3,2,A*%
%TO.N,/ROW1*%
X160900000Y-95500000D03*
%TD*%
%TO.P,D_1_2,1,K*%
%TO.N,Net-(D_1_2-K)*%
X138100000Y-95500000D03*
%TO.P,D_1_2,2,A*%
%TO.N,/ROW1*%
X141400000Y-95500000D03*
%TD*%
%TO.P,D_1_1,1,K*%
%TO.N,Net-(D_1_1-K)*%
X118600000Y-95500000D03*
%TO.P,D_1_1,2,A*%
%TO.N,/ROW1*%
X121900000Y-95500000D03*
%TD*%
D21*
%TO.P,U1,1,PB12*%
%TO.N,/COL1*%
X172637500Y-111675000D03*
%TO.P,U1,2,PC14*%
%TO.N,/COL2*%
X172637500Y-111025000D03*
%TO.P,U1,3,PC15*%
%TO.N,/COL3*%
X172637500Y-110375000D03*
%TO.P,U1,4,PC3*%
%TO.N,/RESET*%
X172637500Y-109725000D03*
%TO.P,U1,5,PC1*%
%TO.N,/RX*%
X172637500Y-109075000D03*
%TO.P,U1,6,PA0*%
%TO.N,/ROW1*%
X172637500Y-108425000D03*
%TO.P,U1,7,PA1*%
%TO.N,/COL4*%
X172637500Y-107775000D03*
%TO.P,U1,8,PA2*%
%TO.N,/TX*%
X172637500Y-107125000D03*
%TO.P,U1,9,PA3*%
%TO.N,/LED4*%
X172637500Y-106475000D03*
%TO.P,U1,10,PA4*%
%TO.N,/LED3*%
X172637500Y-105825000D03*
%TO.P,U1,11,PA5*%
%TO.N,/LED2*%
X178362500Y-105825000D03*
%TO.P,U1,12,PA6*%
%TO.N,/LED1*%
X178362500Y-106475000D03*
%TO.P,U1,13,PA7*%
%TO.N,/ROT_DOWN*%
X178362500Y-107125000D03*
%TO.P,U1,14,PB1*%
%TO.N,/ROT_UP*%
X178362500Y-107775000D03*
%TO.P,U1,15,GND*%
%TO.N,GND*%
X178362500Y-108425000D03*
%TO.P,U1,16,VDD*%
%TO.N,VDD*%
X178362500Y-109075000D03*
%TO.P,U1,17,PC16*%
%TO.N,/DM*%
X178362500Y-109725000D03*
%TO.P,U1,18,PC17*%
%TO.N,/DP*%
X178362500Y-110375000D03*
%TO.P,U1,19,PC18*%
%TO.N,/DIO*%
X178362500Y-111025000D03*
%TO.P,U1,20,PC19*%
%TO.N,/DCK*%
X178362500Y-111675000D03*
%TD*%
D17*
%TO.P,C2,1*%
%TO.N,VDD*%
X178450000Y-102000000D03*
%TO.P,C2,2*%
%TO.N,GND*%
X176550000Y-102000000D03*
%TD*%
%TO.P,C3,1*%
%TO.N,VDD*%
X178450000Y-104010000D03*
%TO.P,C3,2*%
%TO.N,GND*%
X176550000Y-104010000D03*
%TD*%
D22*
%TO.N,*%
X131000000Y-90500000D03*
X106250000Y-105500000D03*
X121750000Y-99500000D03*
X114250000Y-90750000D03*
X132750000Y-104750000D03*
X147500000Y-90000000D03*
X160000000Y-90500000D03*
X110250000Y-112500000D03*
X134000000Y-115000000D03*
X146250000Y-104000000D03*
X165000000Y-115250000D03*
X145500000Y-114750000D03*
X133750000Y-110500000D03*
%TO.N,/ROW1*%
X173841998Y-108408001D03*
%TO.N,GND*%
X184750000Y-90000000D03*
X169500000Y-98500000D03*
X176750000Y-95000000D03*
X162250000Y-110000000D03*
X185750000Y-111250000D03*
X175000000Y-111250000D03*
X170000000Y-90250000D03*
X166500000Y-104500000D03*
X173500000Y-95750000D03*
X190000000Y-98500000D03*
X152000000Y-100500000D03*
X179750000Y-106500000D03*
X171228080Y-108999999D03*
X170750000Y-104500000D03*
X151500000Y-106000000D03*
X182500000Y-112250000D03*
X138250000Y-105000000D03*
X165250000Y-94750000D03*
X173250000Y-99500000D03*
X176250000Y-105750000D03*
X173250000Y-104000000D03*
X153500000Y-109750000D03*
X180000000Y-109750000D03*
X163250000Y-100500000D03*
X158500000Y-101250000D03*
X186500000Y-108500000D03*
X173750000Y-93750000D03*
X174750000Y-113500000D03*
X193000000Y-109750000D03*
X177500000Y-103000000D03*
X174750000Y-107250000D03*
X164500000Y-107000000D03*
X179750000Y-113250000D03*
X182750000Y-109000000D03*
X185250000Y-97500000D03*
X190500000Y-113250000D03*
%TO.N,VDD*%
X178903551Y-100000000D03*
X181008365Y-108758365D03*
X182500000Y-110250000D03*
%TO.N,/DP*%
X179544051Y-101000000D03*
%TO.N,Net-(J1-D+-PadA6)*%
X183923000Y-95500000D03*
%TO.N,Net-(J1-D--PadA7)*%
X185250000Y-96250000D03*
%TO.N,/LED1*%
X177250000Y-106500000D03*
%TO.N,/LED2*%
X177250000Y-105799997D03*
%TO.N,/LED3*%
X171500000Y-105750000D03*
%TO.N,/ROT_UP*%
X179514418Y-107425001D03*
%TO.N,/ROT_DOWN*%
X176825000Y-108750000D03*
%TO.N,/LED4*%
X171500000Y-106500000D03*
%TO.N,/RESET*%
X165750000Y-102250000D03*
%TD*%
D23*
%TO.N,/ROW1*%
X169000000Y-107750000D02*
X169675000Y-108425000D01*
X172637500Y-108425000D02*
X173824999Y-108425000D01*
X141400000Y-95500000D02*
X142326000Y-94574000D01*
X169675000Y-108425000D02*
X172637500Y-108425000D01*
X157100000Y-98900000D02*
X158500000Y-97500000D01*
X169000000Y-106000000D02*
X169000000Y-107750000D01*
X142326000Y-94574000D02*
X159974000Y-94574000D01*
X173824999Y-108425000D02*
X173841998Y-108408001D01*
X159974000Y-94574000D02*
X160900000Y-95500000D01*
X140474000Y-94574000D02*
X141400000Y-95500000D01*
X160900000Y-95500000D02*
X162576669Y-95500000D01*
X162576669Y-95500000D02*
X166475400Y-99398731D01*
X160900000Y-96600000D02*
X160900000Y-95500000D01*
X122826000Y-94574000D02*
X140474000Y-94574000D01*
X160000000Y-97500000D02*
X160900000Y-96600000D01*
X158500000Y-97500000D02*
X160000000Y-97500000D01*
X121900000Y-95500000D02*
X122826000Y-94574000D01*
X166475400Y-99398731D02*
X166475400Y-103475400D01*
X166475400Y-103475400D02*
X169000000Y-106000000D01*
X157100000Y-99500000D02*
X157100000Y-98900000D01*
%TO.N,Net-(D_1_1-K)*%
X110980000Y-95500000D02*
X118600000Y-95500000D01*
X106520000Y-99960000D02*
X110980000Y-95500000D01*
%TO.N,Net-(D_1_2-K)*%
X130230000Y-95750000D02*
X137850000Y-95750000D01*
X126020000Y-99960000D02*
X130230000Y-95750000D01*
X137850000Y-95750000D02*
X138100000Y-95500000D01*
%TO.N,Net-(D_1_3-K)*%
X145520000Y-99960000D02*
X149730000Y-95750000D01*
X157350000Y-95750000D02*
X157600000Y-95500000D01*
X149730000Y-95750000D02*
X157350000Y-95750000D01*
%TO.N,VDD*%
X188580000Y-115750000D02*
X188476041Y-115750000D01*
D24*
X178362500Y-109075000D02*
X180691730Y-109075000D01*
X178903551Y-99383950D02*
X181087501Y-97200000D01*
X181008365Y-108758365D02*
X181481500Y-108285230D01*
X178903551Y-100000000D02*
X178903551Y-99383950D01*
D23*
X182976041Y-110250000D02*
X182500000Y-110250000D01*
D24*
X181087501Y-97200000D02*
X181750000Y-97200000D01*
X181481500Y-107231500D02*
X178903551Y-104653551D01*
X181481500Y-108285230D02*
X181481500Y-107231500D01*
X178903551Y-104653551D02*
X178903551Y-100000000D01*
D23*
X188476041Y-115750000D02*
X182976041Y-110250000D01*
D24*
X180691730Y-109075000D02*
X181008365Y-108758365D01*
X178362500Y-109075000D02*
X177577142Y-109075000D01*
D25*
%TO.N,/DP*%
X182000000Y-106000000D02*
X182000000Y-109500000D01*
X181750000Y-98150000D02*
X179422051Y-100477949D01*
X179422051Y-103422051D02*
X182000000Y-106000000D01*
X181125000Y-110375000D02*
X178362500Y-110375000D01*
X182000000Y-109500000D02*
X181125000Y-110375000D01*
X179422051Y-100477949D02*
X179422051Y-103422051D01*
%TO.N,/TX*%
X173374999Y-107125000D02*
X175775000Y-109525001D01*
X175775000Y-109525001D02*
X175775000Y-115750000D01*
X172637500Y-107125000D02*
X173374999Y-107125000D01*
%TO.N,/RX*%
X174085000Y-114900000D02*
X173235000Y-115750000D01*
X172637500Y-109075000D02*
X173374999Y-109075000D01*
X173374999Y-109075000D02*
X174085000Y-109785001D01*
X174085000Y-109785001D02*
X174085000Y-114900000D01*
D23*
%TO.N,Net-(D_1_4-K)*%
X164410000Y-99350000D02*
X165020000Y-99960000D01*
X160500000Y-99350000D02*
X164410000Y-99350000D01*
D25*
%TO.N,Net-(J1-D+-PadA6)*%
X183034500Y-97552150D02*
X183034500Y-95715500D01*
X183632350Y-98150000D02*
X183034500Y-97552150D01*
X183034500Y-95715500D02*
X183250000Y-95500000D01*
X184025000Y-98150000D02*
X183632350Y-98150000D01*
X183250000Y-95500000D02*
X183923000Y-95500000D01*
%TO.N,Net-(J1-D--PadA7)*%
X185250000Y-96250000D02*
X184025000Y-96250000D01*
D23*
%TO.N,/LED1*%
X178362500Y-106475000D02*
X177275000Y-106475000D01*
X177275000Y-106475000D02*
X177250000Y-106500000D01*
%TO.N,/LED2*%
X177275003Y-105825000D02*
X177250000Y-105799997D01*
X178362500Y-105825000D02*
X177275003Y-105825000D01*
%TO.N,/LED3*%
X171500000Y-105750000D02*
X172562500Y-105750000D01*
X172562500Y-105750000D02*
X172637500Y-105825000D01*
%TO.N,/ROT_UP*%
X179164419Y-107775000D02*
X178362500Y-107775000D01*
X179514418Y-107425001D02*
X179164419Y-107775000D01*
%TO.N,/ROT_DOWN*%
X178362500Y-107125000D02*
X177625000Y-107125000D01*
X176825000Y-107925000D02*
X176825000Y-108750000D01*
X177625000Y-107125000D02*
X176825000Y-107925000D01*
%TO.N,/LED4*%
X172637500Y-106475000D02*
X171525000Y-106475000D01*
X171525000Y-106475000D02*
X171500000Y-106500000D01*
%TO.N,/COL4*%
X171370000Y-97420000D02*
X171370000Y-105065412D01*
X171370000Y-105065412D02*
X170924000Y-105511412D01*
X170924000Y-105511412D02*
X170924000Y-107276000D01*
X170924000Y-107276000D02*
X171423000Y-107775000D01*
X171423000Y-107775000D02*
X172637500Y-107775000D01*
%TO.N,/COL1*%
X112920000Y-97420000D02*
X127175000Y-111675000D01*
X127175000Y-111675000D02*
X172637500Y-111675000D01*
X112870000Y-97420000D02*
X112920000Y-97420000D01*
%TO.N,/COL2*%
X145975000Y-111025000D02*
X132370000Y-97420000D01*
X172637500Y-111025000D02*
X145975000Y-111025000D01*
%TO.N,/COL3*%
X164825000Y-110375000D02*
X172637500Y-110375000D01*
X151870000Y-97420000D02*
X164825000Y-110375000D01*
%TO.N,/DM*%
X181750000Y-96250000D02*
X181087501Y-96250000D01*
X180753486Y-96250000D02*
X175500000Y-101503486D01*
X175500000Y-101503486D02*
X175500000Y-108500000D01*
X181750000Y-96250000D02*
X180753486Y-96250000D01*
X176725000Y-109725000D02*
X178362500Y-109725000D01*
X175500000Y-108500000D02*
X176725000Y-109725000D01*
%TO.N,/RESET*%
X168000000Y-109000000D02*
X168725000Y-109725000D01*
X168725000Y-109725000D02*
X172637500Y-109725000D01*
X165750000Y-106750000D02*
X168000000Y-109000000D01*
X165750000Y-102250000D02*
X165750000Y-106750000D01*
%TO.N,/DIO*%
X177299000Y-111395774D02*
X177299000Y-112089000D01*
X178362500Y-111025000D02*
X177669774Y-111025000D01*
X177299000Y-112089000D02*
X180960000Y-115750000D01*
X177669774Y-111025000D02*
X177299000Y-111395774D01*
%TO.N,/DCK*%
X178362500Y-111675000D02*
X179425000Y-111675000D01*
X179425000Y-111675000D02*
X183500000Y-115750000D01*
%TD*%
%TA.AperFunction,Conductor*%
%TO.N,GND*%
G36*
X174381005Y-108686631D02*
G01*
X174426068Y-108715592D01*
X175356595Y-109646119D01*
X175390621Y-109708431D01*
X175393500Y-109735214D01*
X175393500Y-114519500D01*
X175373498Y-114587621D01*
X175319842Y-114634114D01*
X175267500Y-114645500D01*
X174899936Y-114645500D01*
X174899926Y-114645501D01*
X174825699Y-114660265D01*
X174741515Y-114716516D01*
X174697264Y-114782741D01*
X174642787Y-114828268D01*
X174572343Y-114837115D01*
X174508300Y-114806473D01*
X174470989Y-114746071D01*
X174466500Y-114712738D01*
X174466500Y-109734777D01*
X174466358Y-109734247D01*
X174440501Y-109637747D01*
X174440499Y-109637744D01*
X174440499Y-109637742D01*
X174390278Y-109550757D01*
X174390274Y-109550752D01*
X174359522Y-109520000D01*
X174319247Y-109479725D01*
X173939390Y-109099868D01*
X173905364Y-109037556D01*
X173910429Y-108966741D01*
X173952976Y-108909905D01*
X173995872Y-108889067D01*
X174036728Y-108878120D01*
X174151768Y-108811701D01*
X174185914Y-108777555D01*
X174247878Y-108715592D01*
X174310190Y-108681566D01*
X174381005Y-108686631D01*
G37*
%TD.AperFunction*%
%TA.AperFunction,Conductor*%
G36*
X140332737Y-94973502D02*
G01*
X140353711Y-94990405D01*
X140658595Y-95295289D01*
X140692621Y-95357601D01*
X140695500Y-95384384D01*
X140695500Y-95920871D01*
X140701640Y-95977972D01*
X140749826Y-96107166D01*
X140749827Y-96107167D01*
X140792924Y-96164736D01*
X140832456Y-96217544D01*
X140891211Y-96261528D01*
X140942832Y-96300172D01*
X140942833Y-96300173D01*
X140942835Y-96300173D01*
X140942837Y-96300175D01*
X141072027Y-96348360D01*
X141129136Y-96354500D01*
X141129141Y-96354500D01*
X141670859Y-96354500D01*
X141670864Y-96354500D01*
X141727973Y-96348360D01*
X141857163Y-96300175D01*
X141967544Y-96217544D01*
X142050175Y-96107163D01*
X142098360Y-95977973D01*
X142104500Y-95920864D01*
X142104500Y-95384384D01*
X142124502Y-95316263D01*
X142141405Y-95295289D01*
X142446289Y-94990405D01*
X142508601Y-94956379D01*
X142535384Y-94953500D01*
X156769500Y-94953500D01*
X156778325Y-94956091D01*
X156787432Y-94954782D01*
X156811857Y-94965937D01*
X156837621Y-94973502D01*
X156843645Y-94980455D01*
X156852012Y-94984276D01*
X156866526Y-95006861D01*
X156884114Y-95027158D01*
X156886438Y-95037844D01*
X156890396Y-95044002D01*
X156895500Y-95079500D01*
X156895500Y-95244500D01*
X156875498Y-95312621D01*
X156821842Y-95359114D01*
X156769500Y-95370500D01*
X149787696Y-95370500D01*
X149787680Y-95370499D01*
X149779962Y-95370499D01*
X149680038Y-95370499D01*
X149647866Y-95379119D01*
X149603916Y-95390895D01*
X149603915Y-95390896D01*
X149583518Y-95396362D01*
X149583517Y-95396362D01*
X149583515Y-95396363D01*
X149583514Y-95396363D01*
X149496984Y-95446321D01*
X149496979Y-95446325D01*
X149462054Y-95481251D01*
X149426324Y-95516981D01*
X149426322Y-95516983D01*
X146236257Y-98707047D01*
X146173945Y-98741073D01*
X146103129Y-98736008D01*
X146089966Y-98730222D01*
X146039947Y-98704736D01*
X146039944Y-98704735D01*
X146039942Y-98704734D01*
X145837183Y-98638854D01*
X145837181Y-98638853D01*
X145837179Y-98638853D01*
X145626601Y-98605500D01*
X145413399Y-98605500D01*
X145202821Y-98638853D01*
X145202819Y-98638853D01*
X145202816Y-98638854D01*
X145000057Y-98704734D01*
X145000051Y-98704737D01*
X144810083Y-98801530D01*
X144637600Y-98926847D01*
X144486847Y-99077600D01*
X144361530Y-99250083D01*
X144264737Y-99440051D01*
X144264734Y-99440057D01*
X144198854Y-99642816D01*
X144198853Y-99642819D01*
X144198853Y-99642821D01*
X144165500Y-99853399D01*
X144165500Y-100066601D01*
X144198853Y-100277179D01*
X144198854Y-100277183D01*
X144233777Y-100384667D01*
X144264736Y-100479947D01*
X144361528Y-100669913D01*
X144361530Y-100669916D01*
X144486847Y-100842399D01*
X144637600Y-100993152D01*
X144684306Y-101027086D01*
X144810087Y-101118472D01*
X145000053Y-101215264D01*
X145202821Y-101281147D01*
X145413399Y-101314500D01*
X145413402Y-101314500D01*
X145626598Y-101314500D01*
X145626601Y-101314500D01*
X145837179Y-101281147D01*
X146039947Y-101215264D01*
X146229913Y-101118472D01*
X146402397Y-100993154D01*
X146553154Y-100842397D01*
X146678472Y-100669913D01*
X146775264Y-100479947D01*
X146841147Y-100277179D01*
X146874500Y-100066601D01*
X146874500Y-99853399D01*
X146841147Y-99642821D01*
X146775264Y-99440053D01*
X146771966Y-99433581D01*
X146749780Y-99390037D01*
X146736676Y-99320260D01*
X146763377Y-99254476D01*
X146772943Y-99243749D01*
X149850289Y-96166405D01*
X149912601Y-96132379D01*
X149939384Y-96129500D01*
X150954021Y-96129500D01*
X151022142Y-96149502D01*
X151068635Y-96203158D01*
X151078739Y-96273432D01*
X151049245Y-96338012D01*
X151028086Y-96357432D01*
X150992102Y-96383576D01*
X150987596Y-96386851D01*
X150836847Y-96537600D01*
X150711530Y-96710083D01*
X150614737Y-96900051D01*
X150614734Y-96900057D01*
X150548854Y-97102816D01*
X150548853Y-97102819D01*
X150548853Y-97102821D01*
X150515500Y-97313399D01*
X150515500Y-97526601D01*
X150538003Y-97668674D01*
X150548854Y-97737183D01*
X150606223Y-97913749D01*
X150614736Y-97939947D01*
X150683012Y-98073946D01*
X150711530Y-98129916D01*
X150836847Y-98302399D01*
X150987600Y-98453152D01*
X150987603Y-98453154D01*
X151160087Y-98578472D01*
X151350053Y-98675264D01*
X151552821Y-98741147D01*
X151763399Y-98774500D01*
X151763402Y-98774500D01*
X151976598Y-98774500D01*
X151976601Y-98774500D01*
X152187179Y-98741147D01*
X152389947Y-98675264D01*
X152439959Y-98649780D01*
X152509736Y-98636676D01*
X152575521Y-98663376D01*
X152586258Y-98672952D01*
X164343711Y-110430405D01*
X164377737Y-110492717D01*
X164372672Y-110563532D01*
X164330125Y-110620368D01*
X164263605Y-110645179D01*
X164254616Y-110645500D01*
X146184384Y-110645500D01*
X146116263Y-110625498D01*
X146095289Y-110608595D01*
X139553111Y-104066417D01*
X145745499Y-104066417D01*
X145779881Y-104194730D01*
X145846297Y-104309766D01*
X145846305Y-104309776D01*
X145940223Y-104403694D01*
X145940228Y-104403698D01*
X145940230Y-104403700D01*
X145940231Y-104403701D01*
X145940233Y-104403702D01*
X145963328Y-104417036D01*
X146055270Y-104470119D01*
X146183581Y-104504500D01*
X146183583Y-104504500D01*
X146316417Y-104504500D01*
X146316419Y-104504500D01*
X146444730Y-104470119D01*
X146559770Y-104403700D01*
X146653700Y-104309770D01*
X146720119Y-104194730D01*
X146754500Y-104066419D01*
X146754500Y-103933581D01*
X146720119Y-103805270D01*
X146653700Y-103690230D01*
X146653698Y-103690228D01*
X146653694Y-103690223D01*
X146559776Y-103596305D01*
X146559766Y-103596297D01*
X146444730Y-103529881D01*
X146316419Y-103495500D01*
X146183581Y-103495500D01*
X146098040Y-103518420D01*
X146055269Y-103529881D01*
X145940233Y-103596297D01*
X145940223Y-103596305D01*
X145846305Y-103690223D01*
X145846297Y-103690233D01*
X145779881Y-103805269D01*
X145745500Y-103933582D01*
X145745500Y-104066417D01*
X145745499Y-104066417D01*
X139553111Y-104066417D01*
X137901767Y-102415073D01*
X143170900Y-102415073D01*
X143170900Y-102584927D01*
X143197471Y-102752690D01*
X143249959Y-102914231D01*
X143314302Y-103040512D01*
X143327072Y-103065574D01*
X143426908Y-103202988D01*
X143547011Y-103323091D01*
X143684425Y-103422927D01*
X143684428Y-103422929D01*
X143835769Y-103500041D01*
X143997310Y-103552529D01*
X144165073Y-103579100D01*
X144165076Y-103579100D01*
X144334924Y-103579100D01*
X144334927Y-103579100D01*
X144502690Y-103552529D01*
X144664231Y-103500041D01*
X144815572Y-103422929D01*
X144952987Y-103323092D01*
X145073092Y-103202987D01*
X145172929Y-103065572D01*
X145250041Y-102914231D01*
X145302529Y-102752690D01*
X145329100Y-102584927D01*
X145329100Y-102415073D01*
X145319410Y-102353894D01*
X147100900Y-102353894D01*
X147100900Y-102646105D01*
X147139038Y-102935801D01*
X147214667Y-103218053D01*
X147214668Y-103218055D01*
X147214669Y-103218058D01*
X147326491Y-103488021D01*
X147326492Y-103488022D01*
X147326497Y-103488033D01*
X147472591Y-103741075D01*
X147472596Y-103741082D01*
X147650470Y-103972892D01*
X147650489Y-103972913D01*
X147857086Y-104179510D01*
X147857107Y-104179529D01*
X148088917Y-104357403D01*
X148088924Y-104357408D01*
X148341966Y-104503502D01*
X148341970Y-104503503D01*
X148341979Y-104503509D01*
X148611942Y-104615331D01*
X148894191Y-104690960D01*
X148894197Y-104690960D01*
X148894198Y-104690961D01*
X148927446Y-104695338D01*
X149183897Y-104729100D01*
X149183904Y-104729100D01*
X149476096Y-104729100D01*
X149476103Y-104729100D01*
X149765809Y-104690960D01*
X150048058Y-104615331D01*
X150318021Y-104503509D01*
X150571079Y-104357406D01*
X150802901Y-104179522D01*
X151009522Y-103972901D01*
X151187406Y-103741079D01*
X151333509Y-103488021D01*
X151445331Y-103218058D01*
X151520960Y-102935809D01*
X151559100Y-102646103D01*
X151559100Y-102415073D01*
X153330900Y-102415073D01*
X153330900Y-102584927D01*
X153357471Y-102752690D01*
X153409959Y-102914231D01*
X153474302Y-103040512D01*
X153487072Y-103065574D01*
X153586908Y-103202988D01*
X153707011Y-103323091D01*
X153844425Y-103422927D01*
X153844428Y-103422929D01*
X153995769Y-103500041D01*
X154157310Y-103552529D01*
X154325073Y-103579100D01*
X154325076Y-103579100D01*
X154494924Y-103579100D01*
X154494927Y-103579100D01*
X154662690Y-103552529D01*
X154824231Y-103500041D01*
X154975572Y-103422929D01*
X155112987Y-103323092D01*
X155233092Y-103202987D01*
X155332929Y-103065572D01*
X155410041Y-102914231D01*
X155462529Y-102752690D01*
X155489100Y-102584927D01*
X155489100Y-102415073D01*
X155462529Y-102247310D01*
X155410041Y-102085769D01*
X155332929Y-101934428D01*
X155295151Y-101882430D01*
X155233091Y-101797011D01*
X155112988Y-101676908D01*
X154975574Y-101577072D01*
X154870941Y-101523759D01*
X154824231Y-101499959D01*
X154662690Y-101447471D01*
X154494927Y-101420900D01*
X154325073Y-101420900D01*
X154157310Y-101447471D01*
X154157307Y-101447471D01*
X154157306Y-101447472D01*
X153995769Y-101499959D01*
X153995767Y-101499960D01*
X153844425Y-101577072D01*
X153707011Y-101676908D01*
X153586908Y-101797011D01*
X153487072Y-101934425D01*
X153409960Y-102085767D01*
X153409959Y-102085769D01*
X153378178Y-102183582D01*
X153357471Y-102247310D01*
X153330900Y-102415073D01*
X151559100Y-102415073D01*
X151559100Y-102353897D01*
X151523801Y-102085769D01*
X151520961Y-102064198D01*
X151520960Y-102064197D01*
X151520960Y-102064191D01*
X151445331Y-101781942D01*
X151333509Y-101511979D01*
X151333503Y-101511970D01*
X151333502Y-101511966D01*
X151187408Y-101258924D01*
X151187403Y-101258917D01*
X151009529Y-101027107D01*
X151009510Y-101027086D01*
X150802913Y-100820489D01*
X150802892Y-100820470D01*
X150571082Y-100642596D01*
X150571075Y-100642591D01*
X150318033Y-100496497D01*
X150318025Y-100496493D01*
X150318021Y-100496491D01*
X150048058Y-100384669D01*
X150048055Y-100384668D01*
X150048053Y-100384667D01*
X149816226Y-100322549D01*
X149765809Y-100309040D01*
X149765807Y-100309039D01*
X149765801Y-100309038D01*
X149476105Y-100270900D01*
X149476103Y-100270900D01*
X149183897Y-100270900D01*
X149183894Y-100270900D01*
X148894198Y-100309038D01*
X148611946Y-100384667D01*
X148611942Y-100384669D01*
X148342465Y-100496290D01*
X148341977Y-100496492D01*
X148341966Y-100496497D01*
X148088924Y-100642591D01*
X148088917Y-100642596D01*
X147857107Y-100820470D01*
X147857086Y-100820489D01*
X147650489Y-101027086D01*
X147650470Y-101027107D01*
X147472596Y-101258917D01*
X147472591Y-101258924D01*
X147326497Y-101511966D01*
X147326492Y-101511977D01*
X147326491Y-101511979D01*
X147268593Y-101651757D01*
X147214669Y-101781942D01*
X147214667Y-101781946D01*
X147139038Y-102064198D01*
X147100900Y-102353894D01*
X145319410Y-102353894D01*
X145302529Y-102247310D01*
X145250041Y-102085769D01*
X145172929Y-101934428D01*
X145135151Y-101882430D01*
X145073091Y-101797011D01*
X144952988Y-101676908D01*
X144815574Y-101577072D01*
X144710941Y-101523759D01*
X144664231Y-101499959D01*
X144502690Y-101447471D01*
X144334927Y-101420900D01*
X144165073Y-101420900D01*
X143997310Y-101447471D01*
X143997307Y-101447471D01*
X143997306Y-101447472D01*
X143835769Y-101499959D01*
X143835767Y-101499960D01*
X143684425Y-101577072D01*
X143547011Y-101676908D01*
X143426908Y-101797011D01*
X143327072Y-101934425D01*
X143249960Y-102085767D01*
X143249959Y-102085769D01*
X143218178Y-102183582D01*
X143197471Y-102247310D01*
X143170900Y-102415073D01*
X137901767Y-102415073D01*
X133622952Y-98136258D01*
X133588926Y-98073946D01*
X133593991Y-98003131D01*
X133599781Y-97989959D01*
X133625264Y-97939947D01*
X133691147Y-97737179D01*
X133724500Y-97526601D01*
X133724500Y-97313399D01*
X133691147Y-97102821D01*
X133625264Y-96900053D01*
X133528472Y-96710087D01*
X133419264Y-96559776D01*
X133403152Y-96537600D01*
X133252403Y-96386851D01*
X133252399Y-96386848D01*
X133252397Y-96386846D01*
X133211915Y-96357434D01*
X133168564Y-96301213D01*
X133162489Y-96230477D01*
X133195621Y-96167685D01*
X133257441Y-96132774D01*
X133285979Y-96129500D01*
X137403475Y-96129500D01*
X137471596Y-96149502D01*
X137504342Y-96179989D01*
X137532455Y-96217543D01*
X137642835Y-96300174D01*
X137642836Y-96300174D01*
X137642837Y-96300175D01*
X137772027Y-96348360D01*
X137829136Y-96354500D01*
X137829141Y-96354500D01*
X138370859Y-96354500D01*
X138370864Y-96354500D01*
X138427973Y-96348360D01*
X138557163Y-96300175D01*
X138667544Y-96217544D01*
X138750175Y-96107163D01*
X138798360Y-95977973D01*
X138804500Y-95920864D01*
X138804500Y-95079500D01*
X138824502Y-95011379D01*
X138878158Y-94964886D01*
X138930500Y-94953500D01*
X140264616Y-94953500D01*
X140332737Y-94973502D01*
G37*
%TD.AperFunction*%
%TA.AperFunction,Conductor*%
G36*
X159832737Y-94973502D02*
G01*
X159853711Y-94990405D01*
X160158595Y-95295289D01*
X160192621Y-95357601D01*
X160195500Y-95384384D01*
X160195500Y-95920871D01*
X160201640Y-95977972D01*
X160249826Y-96107166D01*
X160249827Y-96107167D01*
X160292924Y-96164736D01*
X160332456Y-96217544D01*
X160391211Y-96261528D01*
X160450052Y-96305577D01*
X160448256Y-96307976D01*
X160487792Y-96347501D01*
X160502893Y-96416873D01*
X160478092Y-96483397D01*
X160466309Y-96496997D01*
X159879709Y-97083596D01*
X159817399Y-97117620D01*
X159790616Y-97120500D01*
X158557696Y-97120500D01*
X158557680Y-97120499D01*
X158549962Y-97120499D01*
X158450038Y-97120499D01*
X158417866Y-97129119D01*
X158373916Y-97140895D01*
X158373915Y-97140896D01*
X158360317Y-97144540D01*
X158353517Y-97146362D01*
X158332484Y-97158506D01*
X158311450Y-97170650D01*
X158289215Y-97183487D01*
X158266982Y-97196323D01*
X158266974Y-97196329D01*
X156866983Y-98596322D01*
X156866977Y-98596328D01*
X156847865Y-98615438D01*
X156847862Y-98615439D01*
X156847862Y-98615440D01*
X156827011Y-98626824D01*
X156785551Y-98649460D01*
X156785549Y-98649460D01*
X156785548Y-98649461D01*
X156785545Y-98649460D01*
X156772258Y-98651614D01*
X156772037Y-98651637D01*
X156772028Y-98651639D01*
X156642832Y-98699827D01*
X156532456Y-98782456D01*
X156449827Y-98892832D01*
X156449826Y-98892833D01*
X156401640Y-99022027D01*
X156395500Y-99079128D01*
X156395500Y-99920871D01*
X156401640Y-99977972D01*
X156449826Y-100107166D01*
X156449827Y-100107167D01*
X156496967Y-100170137D01*
X156532456Y-100217544D01*
X156595781Y-100264949D01*
X156642832Y-100300172D01*
X156642833Y-100300173D01*
X156642835Y-100300173D01*
X156642837Y-100300175D01*
X156772027Y-100348360D01*
X156829136Y-100354500D01*
X156829141Y-100354500D01*
X157370859Y-100354500D01*
X157370864Y-100354500D01*
X157427973Y-100348360D01*
X157557163Y-100300175D01*
X157667544Y-100217544D01*
X157750175Y-100107163D01*
X157798360Y-99977973D01*
X157804500Y-99920864D01*
X157804500Y-99079136D01*
X157798360Y-99022027D01*
X157750175Y-98892837D01*
X157750173Y-98892835D01*
X157749590Y-98891270D01*
X157744526Y-98820455D01*
X157778551Y-98758142D01*
X157945350Y-98591344D01*
X158620291Y-97916404D01*
X158682603Y-97882379D01*
X158709386Y-97879500D01*
X159950034Y-97879500D01*
X159950038Y-97879501D01*
X160049962Y-97879501D01*
X160126084Y-97859103D01*
X160146482Y-97853638D01*
X160233019Y-97803676D01*
X160303676Y-97733019D01*
X160314043Y-97722652D01*
X160314050Y-97722642D01*
X161122642Y-96914050D01*
X161122652Y-96914043D01*
X161203670Y-96833025D01*
X161203676Y-96833019D01*
X161253638Y-96746482D01*
X161263390Y-96710087D01*
X161279501Y-96649962D01*
X161279501Y-96550038D01*
X161279500Y-96550034D01*
X161279500Y-96416625D01*
X161299502Y-96348504D01*
X161349588Y-96305103D01*
X161349255Y-96304493D01*
X161352063Y-96302959D01*
X161353158Y-96302011D01*
X161355818Y-96300909D01*
X161357160Y-96300175D01*
X161357163Y-96300175D01*
X161467544Y-96217544D01*
X161550175Y-96107163D01*
X161598360Y-95977973D01*
X161598360Y-95977967D01*
X161598702Y-95976525D01*
X161599274Y-95975518D01*
X161601114Y-95970588D01*
X161601912Y-95970885D01*
X161633833Y-95914829D01*
X161696742Y-95881921D01*
X161721325Y-95879500D01*
X162367285Y-95879500D01*
X162435406Y-95899502D01*
X162456380Y-95916405D01*
X164938884Y-98398909D01*
X164972910Y-98461221D01*
X164967845Y-98532036D01*
X164925298Y-98588872D01*
X164869501Y-98612452D01*
X164750344Y-98631326D01*
X164702815Y-98638854D01*
X164500057Y-98704734D01*
X164500051Y-98704737D01*
X164310083Y-98801530D01*
X164137600Y-98926847D01*
X164137597Y-98926850D01*
X164130853Y-98933595D01*
X164068541Y-98967621D01*
X164041758Y-98970500D01*
X161166625Y-98970500D01*
X161098504Y-98950498D01*
X161055105Y-98900413D01*
X161054494Y-98900747D01*
X161052959Y-98897936D01*
X161052011Y-98896842D01*
X161050910Y-98894183D01*
X161050177Y-98892841D01*
X161050175Y-98892839D01*
X161050175Y-98892837D01*
X160967544Y-98782456D01*
X160935065Y-98758142D01*
X160857167Y-98699827D01*
X160857166Y-98699826D01*
X160825929Y-98688175D01*
X160727973Y-98651640D01*
X160720834Y-98650872D01*
X160670871Y-98645500D01*
X160670864Y-98645500D01*
X160129136Y-98645500D01*
X160129128Y-98645500D01*
X160072027Y-98651640D01*
X159942833Y-98699826D01*
X159942832Y-98699827D01*
X159832456Y-98782456D01*
X159749827Y-98892832D01*
X159749826Y-98892833D01*
X159701640Y-99022027D01*
X159695500Y-99079128D01*
X159695500Y-99920871D01*
X159701640Y-99977972D01*
X159749826Y-100107166D01*
X159749827Y-100107167D01*
X159796967Y-100170137D01*
X159832456Y-100217544D01*
X159895781Y-100264949D01*
X159942832Y-100300172D01*
X159942833Y-100300173D01*
X159942835Y-100300173D01*
X159942837Y-100300175D01*
X160072027Y-100348360D01*
X160129136Y-100354500D01*
X160129141Y-100354500D01*
X160670859Y-100354500D01*
X160670864Y-100354500D01*
X160727973Y-100348360D01*
X160857163Y-100300175D01*
X160967544Y-100217544D01*
X161050175Y-100107163D01*
X161098360Y-99977973D01*
X161104500Y-99920864D01*
X161104500Y-99855500D01*
X161124502Y-99787379D01*
X161178158Y-99740886D01*
X161230500Y-99729500D01*
X163539500Y-99729500D01*
X163607621Y-99749502D01*
X163654114Y-99803158D01*
X163665500Y-99855500D01*
X163665500Y-100066601D01*
X163698853Y-100277179D01*
X163698854Y-100277183D01*
X163733777Y-100384667D01*
X163764736Y-100479947D01*
X163861528Y-100669913D01*
X163861530Y-100669916D01*
X163986847Y-100842399D01*
X164137600Y-100993152D01*
X164184306Y-101027086D01*
X164310087Y-101118472D01*
X164500053Y-101215264D01*
X164702821Y-101281147D01*
X164913399Y-101314500D01*
X164913402Y-101314500D01*
X165126598Y-101314500D01*
X165126601Y-101314500D01*
X165337179Y-101281147D01*
X165539947Y-101215264D01*
X165729913Y-101118472D01*
X165895841Y-100997916D01*
X165962706Y-100974060D01*
X166031858Y-100990140D01*
X166081338Y-101041053D01*
X166095900Y-101099854D01*
X166095900Y-101656180D01*
X166075898Y-101724301D01*
X166022242Y-101770794D01*
X165951968Y-101780898D01*
X165937289Y-101777887D01*
X165906881Y-101769739D01*
X165816419Y-101745500D01*
X165683581Y-101745500D01*
X165598040Y-101768420D01*
X165555269Y-101779881D01*
X165440233Y-101846297D01*
X165440223Y-101846305D01*
X165346305Y-101940223D01*
X165346297Y-101940233D01*
X165279881Y-102055269D01*
X165245500Y-102183582D01*
X165245500Y-102316417D01*
X165245499Y-102316417D01*
X165279881Y-102444730D01*
X165350429Y-102566922D01*
X165348567Y-102567996D01*
X165370063Y-102623591D01*
X165370500Y-102634079D01*
X165370500Y-106700034D01*
X165370499Y-106700038D01*
X165370499Y-106799962D01*
X165384882Y-106853638D01*
X165387590Y-106863745D01*
X165387591Y-106863753D01*
X165396359Y-106896474D01*
X165396364Y-106896486D01*
X165446321Y-106983015D01*
X165446329Y-106983025D01*
X165524156Y-107060852D01*
X165524170Y-107060864D01*
X167208595Y-108745289D01*
X167242621Y-108807601D01*
X167245500Y-108834384D01*
X167245500Y-109523246D01*
X167245502Y-109523270D01*
X167251959Y-109583339D01*
X167251959Y-109583341D01*
X167284969Y-109671842D01*
X167302658Y-109719267D01*
X167314596Y-109735214D01*
X167358596Y-109793992D01*
X167383406Y-109860512D01*
X167368314Y-109929886D01*
X167318112Y-109980088D01*
X167257727Y-109995500D01*
X165034384Y-109995500D01*
X164966263Y-109975498D01*
X164945289Y-109958595D01*
X157401767Y-102415073D01*
X162670900Y-102415073D01*
X162670900Y-102584927D01*
X162697471Y-102752690D01*
X162749959Y-102914231D01*
X162814302Y-103040512D01*
X162827072Y-103065574D01*
X162926908Y-103202988D01*
X163047011Y-103323091D01*
X163184425Y-103422927D01*
X163184428Y-103422929D01*
X163335769Y-103500041D01*
X163497310Y-103552529D01*
X163665073Y-103579100D01*
X163665076Y-103579100D01*
X163834924Y-103579100D01*
X163834927Y-103579100D01*
X164002690Y-103552529D01*
X164164231Y-103500041D01*
X164315572Y-103422929D01*
X164452987Y-103323092D01*
X164573092Y-103202987D01*
X164672929Y-103065572D01*
X164750041Y-102914231D01*
X164802529Y-102752690D01*
X164829100Y-102584927D01*
X164829100Y-102415073D01*
X164802529Y-102247310D01*
X164750041Y-102085769D01*
X164672929Y-101934428D01*
X164635151Y-101882430D01*
X164573091Y-101797011D01*
X164452988Y-101676908D01*
X164315574Y-101577072D01*
X164210941Y-101523759D01*
X164164231Y-101499959D01*
X164002690Y-101447471D01*
X163834927Y-101420900D01*
X163665073Y-101420900D01*
X163497310Y-101447471D01*
X163497307Y-101447471D01*
X163497306Y-101447472D01*
X163335769Y-101499959D01*
X163335767Y-101499960D01*
X163184425Y-101577072D01*
X163047011Y-101676908D01*
X162926908Y-101797011D01*
X162827072Y-101934425D01*
X162749960Y-102085767D01*
X162749959Y-102085769D01*
X162718178Y-102183582D01*
X162697471Y-102247310D01*
X162670900Y-102415073D01*
X157401767Y-102415073D01*
X153122952Y-98136258D01*
X153088926Y-98073946D01*
X153093991Y-98003131D01*
X153099781Y-97989959D01*
X153125264Y-97939947D01*
X153191147Y-97737179D01*
X153224500Y-97526601D01*
X153224500Y-97313399D01*
X153191147Y-97102821D01*
X153125264Y-96900053D01*
X153028472Y-96710087D01*
X152919264Y-96559776D01*
X152903152Y-96537600D01*
X152752403Y-96386851D01*
X152752399Y-96386848D01*
X152752397Y-96386846D01*
X152711915Y-96357434D01*
X152668564Y-96301213D01*
X152662489Y-96230477D01*
X152695621Y-96167685D01*
X152757441Y-96132774D01*
X152785979Y-96129500D01*
X156903475Y-96129500D01*
X156971596Y-96149502D01*
X157004342Y-96179989D01*
X157032455Y-96217543D01*
X157142835Y-96300174D01*
X157142836Y-96300174D01*
X157142837Y-96300175D01*
X157272027Y-96348360D01*
X157329136Y-96354500D01*
X157329141Y-96354500D01*
X157870859Y-96354500D01*
X157870864Y-96354500D01*
X157927973Y-96348360D01*
X158057163Y-96300175D01*
X158167544Y-96217544D01*
X158250175Y-96107163D01*
X158298360Y-95977973D01*
X158304500Y-95920864D01*
X158304500Y-95079500D01*
X158324502Y-95011379D01*
X158378158Y-94964886D01*
X158430500Y-94953500D01*
X159764616Y-94953500D01*
X159832737Y-94973502D01*
G37*
%TD.AperFunction*%
%TA.AperFunction,Conductor*%
G36*
X181536532Y-109047835D02*
G01*
X181593368Y-109090382D01*
X181618179Y-109156902D01*
X181618500Y-109165891D01*
X181618500Y-109289787D01*
X181598498Y-109357908D01*
X181581595Y-109378882D01*
X181003882Y-109956595D01*
X180941570Y-109990621D01*
X180914787Y-109993500D01*
X179480189Y-109993500D01*
X179471276Y-109990883D01*
X179462082Y-109992192D01*
X179437752Y-109981039D01*
X179412068Y-109973498D01*
X179405984Y-109966477D01*
X179397543Y-109962608D01*
X179383104Y-109940072D01*
X179365575Y-109919842D01*
X179363238Y-109909065D01*
X179359243Y-109902829D01*
X179356697Y-109878893D01*
X179354189Y-109867323D01*
X179354198Y-109860716D01*
X179354500Y-109858646D01*
X179354500Y-109645823D01*
X179364522Y-109611867D01*
X179374502Y-109577879D01*
X179374571Y-109577818D01*
X179374598Y-109577730D01*
X179401318Y-109554642D01*
X179428158Y-109531386D01*
X179428260Y-109531363D01*
X179428319Y-109531313D01*
X179428824Y-109531241D01*
X179480500Y-109520000D01*
X180750314Y-109520000D01*
X180750316Y-109520000D01*
X180854880Y-109491982D01*
X180854880Y-109491983D01*
X180854885Y-109491980D01*
X180863494Y-109489674D01*
X180964966Y-109431089D01*
X181047819Y-109348236D01*
X181130694Y-109265359D01*
X181187181Y-109232747D01*
X181203095Y-109228484D01*
X181318135Y-109162065D01*
X181360675Y-109119525D01*
X181403405Y-109076796D01*
X181465717Y-109042770D01*
X181536532Y-109047835D01*
G37*
%TD.AperFunction*%
%TA.AperFunction,Conductor*%
G36*
X168885352Y-108188149D02*
G01*
X168930416Y-108217110D01*
X169366913Y-108653607D01*
X169366934Y-108653630D01*
X169441974Y-108728670D01*
X169441979Y-108728674D01*
X169441981Y-108728676D01*
X169441982Y-108728677D01*
X169441984Y-108728678D01*
X169528520Y-108778639D01*
X169625034Y-108804500D01*
X169625038Y-108804501D01*
X169732680Y-108804501D01*
X169732696Y-108804500D01*
X171519956Y-108804500D01*
X171588077Y-108824502D01*
X171634570Y-108878158D01*
X171645122Y-108936795D01*
X171645500Y-108936795D01*
X171645500Y-108938897D01*
X171645627Y-108939603D01*
X171645500Y-108941356D01*
X171645500Y-109208643D01*
X171645627Y-109210397D01*
X171645500Y-109210983D01*
X171645500Y-109213205D01*
X171645019Y-109213205D01*
X171630599Y-109279784D01*
X171580442Y-109330032D01*
X171519956Y-109345500D01*
X168934384Y-109345500D01*
X168904468Y-109336716D01*
X168873999Y-109330088D01*
X168868903Y-109326273D01*
X168866263Y-109325498D01*
X168845289Y-109308595D01*
X168791404Y-109254710D01*
X168757378Y-109192398D01*
X168754499Y-109165615D01*
X168754499Y-108476753D01*
X168754499Y-108476746D01*
X168748040Y-108416658D01*
X168723265Y-108350236D01*
X168718200Y-108279423D01*
X168752225Y-108217110D01*
X168814537Y-108183085D01*
X168885352Y-108188149D01*
G37*
%TD.AperFunction*%
%TA.AperFunction,Conductor*%
G36*
X179485396Y-105908212D02*
G01*
X179507293Y-105908254D01*
X179520977Y-105916390D01*
X179533244Y-105919210D01*
X179543672Y-105929885D01*
X179560663Y-105939988D01*
X180999595Y-107378920D01*
X181033621Y-107441232D01*
X181036500Y-107468015D01*
X181036500Y-108048713D01*
X181027716Y-108078628D01*
X181021088Y-108109098D01*
X181017273Y-108114193D01*
X181016498Y-108116834D01*
X180999595Y-108137808D01*
X180886033Y-108251370D01*
X180829550Y-108283981D01*
X180813641Y-108288243D01*
X180813629Y-108288248D01*
X180698598Y-108354662D01*
X180698588Y-108354670D01*
X180604670Y-108448588D01*
X180604662Y-108448598D01*
X180536303Y-108567000D01*
X180484920Y-108615993D01*
X180427184Y-108630000D01*
X179107984Y-108630000D01*
X179089819Y-108628684D01*
X179033649Y-108620500D01*
X179033646Y-108620500D01*
X177691354Y-108620500D01*
X177691350Y-108620500D01*
X177635181Y-108628684D01*
X177631183Y-108629201D01*
X177624122Y-108630000D01*
X177518557Y-108630000D01*
X177441388Y-108650677D01*
X177432031Y-108651736D01*
X177405959Y-108647182D01*
X177379497Y-108646552D01*
X177371547Y-108641171D01*
X177362093Y-108639520D01*
X177342621Y-108621593D01*
X177320702Y-108606757D01*
X177315457Y-108596583D01*
X177309862Y-108591432D01*
X177306843Y-108579872D01*
X177296157Y-108559144D01*
X177295119Y-108555270D01*
X177224571Y-108433078D01*
X177226429Y-108432004D01*
X177204936Y-108376393D01*
X177204500Y-108365920D01*
X177204500Y-108157817D01*
X177224502Y-108089696D01*
X177278158Y-108043203D01*
X177348432Y-108033099D01*
X177413012Y-108062593D01*
X177430837Y-108082177D01*
X177516158Y-108167498D01*
X177516160Y-108167499D01*
X177622450Y-108219461D01*
X177691354Y-108229500D01*
X177691360Y-108229500D01*
X179033640Y-108229500D01*
X179033646Y-108229500D01*
X179102550Y-108219461D01*
X179208840Y-108167499D01*
X179208848Y-108167490D01*
X179216083Y-108162326D01*
X179221429Y-108159802D01*
X179223723Y-108157280D01*
X179256687Y-108143164D01*
X179290499Y-108134104D01*
X179290501Y-108134104D01*
X179297967Y-108132102D01*
X179310901Y-108128638D01*
X179397438Y-108078676D01*
X179468095Y-108008019D01*
X179478464Y-107997650D01*
X179478472Y-107997641D01*
X179511179Y-107964934D01*
X179573491Y-107930908D01*
X179579477Y-107929864D01*
X179580832Y-107929501D01*
X179580837Y-107929501D01*
X179709148Y-107895120D01*
X179824188Y-107828701D01*
X179918118Y-107734771D01*
X179984537Y-107619731D01*
X180018918Y-107491420D01*
X180018918Y-107358582D01*
X179984537Y-107230271D01*
X179918118Y-107115231D01*
X179918116Y-107115229D01*
X179918112Y-107115224D01*
X179824194Y-107021306D01*
X179824184Y-107021298D01*
X179709148Y-106954882D01*
X179580837Y-106920501D01*
X179447999Y-106920501D01*
X179447997Y-106920501D01*
X179443143Y-106921140D01*
X179372994Y-106910200D01*
X179319896Y-106863071D01*
X179300707Y-106794717D01*
X179313500Y-106740881D01*
X179344461Y-106677550D01*
X179354500Y-106608646D01*
X179354500Y-106341354D01*
X179344461Y-106272450D01*
X179311651Y-106205337D01*
X179306017Y-106172336D01*
X179299284Y-106139541D01*
X179299983Y-106137001D01*
X179299703Y-106135356D01*
X179307317Y-106104589D01*
X179309269Y-106099534D01*
X179344461Y-106027550D01*
X179348927Y-105996893D01*
X179354036Y-105983672D01*
X179367362Y-105966297D01*
X179376498Y-105946392D01*
X179388543Y-105938683D01*
X179397245Y-105927338D01*
X179417851Y-105919925D01*
X179436296Y-105908121D01*
X179450593Y-105908147D01*
X179464051Y-105903307D01*
X179485396Y-105908212D01*
G37*
%TD.AperFunction*%
%TA.AperFunction,Conductor*%
G36*
X178376583Y-99267762D02*
G01*
X178433419Y-99310309D01*
X178458230Y-99376829D01*
X178458551Y-99385818D01*
X178458551Y-99728001D01*
X178441671Y-99790999D01*
X178433432Y-99805268D01*
X178399051Y-99933582D01*
X178399051Y-100066417D01*
X178399050Y-100066417D01*
X178399100Y-100066601D01*
X178433432Y-100194730D01*
X178441669Y-100208997D01*
X178458551Y-100271998D01*
X178458551Y-100894500D01*
X178438549Y-100962621D01*
X178384893Y-101009114D01*
X178332552Y-101020500D01*
X178151753Y-101020500D01*
X178151729Y-101020502D01*
X178091660Y-101026959D01*
X178091658Y-101026959D01*
X177955733Y-101077657D01*
X177839596Y-101164596D01*
X177752657Y-101280734D01*
X177701962Y-101416650D01*
X177701960Y-101416658D01*
X177695500Y-101476737D01*
X177695500Y-102523246D01*
X177695502Y-102523270D01*
X177701959Y-102583339D01*
X177701959Y-102583341D01*
X177752657Y-102719266D01*
X177839596Y-102835404D01*
X177931406Y-102904132D01*
X177973953Y-102960967D01*
X177979018Y-103031783D01*
X177944993Y-103094095D01*
X177931406Y-103105868D01*
X177839596Y-103174595D01*
X177752657Y-103290734D01*
X177701962Y-103426650D01*
X177701960Y-103426658D01*
X177695500Y-103486737D01*
X177695500Y-104533246D01*
X177695502Y-104533270D01*
X177701959Y-104593339D01*
X177701959Y-104593341D01*
X177752657Y-104729266D01*
X177752658Y-104729267D01*
X177839596Y-104845404D01*
X177955733Y-104932342D01*
X178091658Y-104983040D01*
X178151745Y-104989500D01*
X178557984Y-104989499D01*
X178587897Y-104998282D01*
X178618369Y-105004911D01*
X178623465Y-105008726D01*
X178626104Y-105009501D01*
X178647079Y-105026404D01*
X178776080Y-105155405D01*
X178810106Y-105217717D01*
X178805041Y-105288532D01*
X178762494Y-105345368D01*
X178695974Y-105370179D01*
X178686985Y-105370500D01*
X177691352Y-105370500D01*
X177643225Y-105377512D01*
X177622450Y-105380539D01*
X177622449Y-105380539D01*
X177622444Y-105380540D01*
X177616399Y-105382408D01*
X177545409Y-105383408D01*
X177516202Y-105371143D01*
X177515088Y-105370500D01*
X177444730Y-105329878D01*
X177316419Y-105295497D01*
X177183581Y-105295497D01*
X177098040Y-105318417D01*
X177055269Y-105329878D01*
X176940233Y-105396294D01*
X176940223Y-105396302D01*
X176846305Y-105490220D01*
X176846297Y-105490230D01*
X176779881Y-105605266D01*
X176775277Y-105622449D01*
X176755912Y-105694722D01*
X176745500Y-105733579D01*
X176745500Y-105866414D01*
X176745499Y-105866414D01*
X176779881Y-105994727D01*
X176833154Y-106086998D01*
X176849892Y-106155993D01*
X176833154Y-106212998D01*
X176779881Y-106305269D01*
X176745500Y-106433582D01*
X176745500Y-106566417D01*
X176745499Y-106566417D01*
X176779881Y-106694730D01*
X176846297Y-106809766D01*
X176846305Y-106809776D01*
X176940223Y-106903694D01*
X176940230Y-106903700D01*
X177032198Y-106956798D01*
X177081191Y-107008181D01*
X177094626Y-107077895D01*
X177068239Y-107143805D01*
X177058293Y-107155012D01*
X176887343Y-107325962D01*
X176591983Y-107621322D01*
X176591981Y-107621324D01*
X176556653Y-107656652D01*
X176521325Y-107691979D01*
X176521321Y-107691984D01*
X176472872Y-107775902D01*
X176471362Y-107778518D01*
X176471362Y-107778519D01*
X176445499Y-107875038D01*
X176445499Y-107974962D01*
X176445500Y-107974965D01*
X176445500Y-107993038D01*
X176445500Y-108365920D01*
X176425498Y-108434041D01*
X176422003Y-108439011D01*
X176354878Y-108555274D01*
X176351719Y-108562902D01*
X176349592Y-108562020D01*
X176318840Y-108612458D01*
X176254975Y-108643471D01*
X176184481Y-108635033D01*
X176145002Y-108608308D01*
X175916405Y-108379711D01*
X175882379Y-108317399D01*
X175879500Y-108290616D01*
X175879500Y-101712869D01*
X175899502Y-101644748D01*
X175916400Y-101623779D01*
X178243457Y-99296722D01*
X178305768Y-99262697D01*
X178376583Y-99267762D01*
G37*
%TD.AperFunction*%
%TA.AperFunction,Conductor*%
G36*
X166338012Y-103875160D02*
G01*
X166344595Y-103881289D01*
X168583595Y-106120289D01*
X168617621Y-106182601D01*
X168620500Y-106209384D01*
X168620500Y-107700034D01*
X168620499Y-107700038D01*
X168620499Y-107799962D01*
X168639415Y-107870556D01*
X168641902Y-107879837D01*
X168646363Y-107896485D01*
X168649521Y-107904109D01*
X168648225Y-107904645D01*
X168662899Y-107965124D01*
X168639681Y-108032217D01*
X168583875Y-108076106D01*
X168513200Y-108082857D01*
X168493011Y-108077189D01*
X168358342Y-108026960D01*
X168328298Y-108023730D01*
X168298256Y-108020500D01*
X167701753Y-108020500D01*
X167701729Y-108020502D01*
X167633820Y-108027802D01*
X167633517Y-108024990D01*
X167576047Y-108021908D01*
X167528876Y-107992182D01*
X166166405Y-106629711D01*
X166132379Y-106567399D01*
X166129500Y-106540616D01*
X166129500Y-103970384D01*
X166149502Y-103902263D01*
X166203158Y-103855770D01*
X166273432Y-103845666D01*
X166338012Y-103875160D01*
G37*
%TD.AperFunction*%
%TA.AperFunction,Conductor*%
G36*
X170942388Y-103587300D02*
G01*
X170983570Y-103645132D01*
X170990500Y-103686343D01*
X170990500Y-104856026D01*
X170970498Y-104924147D01*
X170953595Y-104945121D01*
X170690990Y-105207725D01*
X170690983Y-105207733D01*
X170690983Y-105207734D01*
X170690981Y-105207736D01*
X170655653Y-105243064D01*
X170620325Y-105278391D01*
X170620321Y-105278396D01*
X170570361Y-105364931D01*
X170566068Y-105380954D01*
X170544499Y-105461446D01*
X170544499Y-105571524D01*
X170544500Y-105571537D01*
X170544500Y-107226034D01*
X170544499Y-107226038D01*
X170544499Y-107325962D01*
X170556433Y-107370499D01*
X170559279Y-107381122D01*
X170559280Y-107381128D01*
X170570361Y-107422480D01*
X170620321Y-107509015D01*
X170620329Y-107509025D01*
X170698156Y-107586852D01*
X170698170Y-107586864D01*
X170941711Y-107830405D01*
X170975737Y-107892717D01*
X170970672Y-107963532D01*
X170928125Y-108020368D01*
X170861605Y-108045179D01*
X170852616Y-108045500D01*
X169884384Y-108045500D01*
X169816263Y-108025498D01*
X169795289Y-108008595D01*
X169416405Y-107629711D01*
X169382379Y-107567399D01*
X169379500Y-107540616D01*
X169379500Y-106060125D01*
X169379501Y-106060112D01*
X169379501Y-105950039D01*
X169379431Y-105949776D01*
X169353639Y-105853519D01*
X169350106Y-105847401D01*
X169333765Y-105819096D01*
X169333763Y-105819093D01*
X169328380Y-105809770D01*
X169303676Y-105766981D01*
X169233019Y-105696324D01*
X169233016Y-105696322D01*
X168464870Y-104928176D01*
X168430844Y-104865864D01*
X168435909Y-104795049D01*
X168478456Y-104738213D01*
X168544976Y-104713402D01*
X168570406Y-104714158D01*
X168683897Y-104729100D01*
X168683904Y-104729100D01*
X168976096Y-104729100D01*
X168976103Y-104729100D01*
X169265809Y-104690960D01*
X169548058Y-104615331D01*
X169818021Y-104503509D01*
X170071079Y-104357406D01*
X170302901Y-104179522D01*
X170509522Y-103972901D01*
X170687406Y-103741079D01*
X170755381Y-103623343D01*
X170806763Y-103574350D01*
X170876477Y-103560914D01*
X170942388Y-103587300D01*
G37*
%TD.AperFunction*%
%TA.AperFunction,Conductor*%
G36*
X180068196Y-87672902D02*
G01*
X180114689Y-87726558D01*
X180124793Y-87796832D01*
X180095299Y-87861412D01*
X180070077Y-87883665D01*
X179949357Y-87964327D01*
X179949350Y-87964332D01*
X179844332Y-88069350D01*
X179844327Y-88069357D01*
X179761814Y-88192847D01*
X179704978Y-88330060D01*
X179704976Y-88330065D01*
X179676000Y-88475735D01*
X179676000Y-88723000D01*
X180130000Y-88723000D01*
X180130000Y-88977000D01*
X179676000Y-88977000D01*
X179676000Y-89224264D01*
X179704976Y-89369934D01*
X179704978Y-89369939D01*
X179761814Y-89507152D01*
X179844327Y-89630642D01*
X179844332Y-89630649D01*
X179949350Y-89735667D01*
X179949357Y-89735672D01*
X180072847Y-89818185D01*
X180210067Y-89875024D01*
X180210070Y-89875025D01*
X180302999Y-89893509D01*
X180303000Y-89893509D01*
X180303000Y-89423087D01*
X180314204Y-89429556D01*
X180390504Y-89450000D01*
X180469496Y-89450000D01*
X180545796Y-89429556D01*
X180557000Y-89423087D01*
X180557000Y-89893509D01*
X180649929Y-89875025D01*
X180649932Y-89875024D01*
X180787152Y-89818185D01*
X180910642Y-89735672D01*
X180910649Y-89735667D01*
X181015667Y-89630649D01*
X181015672Y-89630642D01*
X181098185Y-89507152D01*
X181155021Y-89369939D01*
X181155023Y-89369934D01*
X181183999Y-89224264D01*
X181184000Y-89224260D01*
X181184000Y-88977000D01*
X180730000Y-88977000D01*
X180730000Y-88723000D01*
X181184000Y-88723000D01*
X181184000Y-88475739D01*
X181183999Y-88475735D01*
X181155023Y-88330065D01*
X181155021Y-88330060D01*
X181098185Y-88192847D01*
X181015672Y-88069357D01*
X181015667Y-88069350D01*
X180910649Y-87964332D01*
X180910642Y-87964327D01*
X180789923Y-87883665D01*
X180744395Y-87829188D01*
X180735547Y-87758745D01*
X180766188Y-87694701D01*
X180826590Y-87657390D01*
X180859925Y-87652900D01*
X188640075Y-87652900D01*
X188708196Y-87672902D01*
X188754689Y-87726558D01*
X188764793Y-87796832D01*
X188735299Y-87861412D01*
X188710077Y-87883665D01*
X188589357Y-87964327D01*
X188589350Y-87964332D01*
X188484332Y-88069350D01*
X188484327Y-88069357D01*
X188401814Y-88192847D01*
X188344978Y-88330060D01*
X188344976Y-88330065D01*
X188316000Y-88475735D01*
X188316000Y-88723000D01*
X188770000Y-88723000D01*
X188770000Y-88977000D01*
X188316000Y-88977000D01*
X188316000Y-89224264D01*
X188344976Y-89369934D01*
X188344978Y-89369939D01*
X188401814Y-89507152D01*
X188484327Y-89630642D01*
X188484332Y-89630649D01*
X188589350Y-89735667D01*
X188589357Y-89735672D01*
X188712847Y-89818185D01*
X188850067Y-89875024D01*
X188850070Y-89875025D01*
X188942999Y-89893509D01*
X188943000Y-89893509D01*
X188943000Y-89423087D01*
X188954204Y-89429556D01*
X189030504Y-89450000D01*
X189109496Y-89450000D01*
X189185796Y-89429556D01*
X189197000Y-89423087D01*
X189197000Y-89893509D01*
X189289929Y-89875025D01*
X189289932Y-89875024D01*
X189427153Y-89818185D01*
X189427157Y-89818183D01*
X189475795Y-89785684D01*
X189475799Y-89785682D01*
X189550642Y-89735672D01*
X189550649Y-89735667D01*
X189655667Y-89630649D01*
X189655672Y-89630642D01*
X189738185Y-89507152D01*
X189795021Y-89369939D01*
X189795023Y-89369934D01*
X189823999Y-89224264D01*
X189824000Y-89224260D01*
X189824000Y-88977000D01*
X189370000Y-88977000D01*
X189370000Y-88723000D01*
X189824000Y-88723000D01*
X189824000Y-88475739D01*
X189823999Y-88475735D01*
X189795023Y-88330065D01*
X189795021Y-88330060D01*
X189738185Y-88192847D01*
X189655672Y-88069357D01*
X189655667Y-88069350D01*
X189550649Y-87964332D01*
X189550642Y-87964327D01*
X189429923Y-87883665D01*
X189384395Y-87829188D01*
X189375547Y-87758745D01*
X189406188Y-87694701D01*
X189466590Y-87657390D01*
X189499925Y-87652900D01*
X195221100Y-87652900D01*
X195289221Y-87672902D01*
X195335714Y-87726558D01*
X195347100Y-87778900D01*
X195347100Y-117221100D01*
X195327098Y-117289221D01*
X195273442Y-117335714D01*
X195221100Y-117347100D01*
X100778900Y-117347100D01*
X100710779Y-117327098D01*
X100664286Y-117273442D01*
X100652900Y-117221100D01*
X100652900Y-114895398D01*
X101670900Y-114895398D01*
X101670900Y-115104602D01*
X101703627Y-115311232D01*
X101703628Y-115311237D01*
X101768273Y-115510193D01*
X101863253Y-115696602D01*
X101986219Y-115865852D01*
X102134147Y-116013780D01*
X102193645Y-116057007D01*
X102303400Y-116136748D01*
X102489803Y-116231725D01*
X102688768Y-116296373D01*
X102895398Y-116329100D01*
X102895401Y-116329100D01*
X103104599Y-116329100D01*
X103104602Y-116329100D01*
X103311232Y-116296373D01*
X103510197Y-116231725D01*
X103696600Y-116136748D01*
X103865851Y-116013781D01*
X104013781Y-115865851D01*
X104136748Y-115696600D01*
X104231725Y-115510197D01*
X104296373Y-115311232D01*
X104329100Y-115104602D01*
X104329100Y-115066417D01*
X133495499Y-115066417D01*
X133529881Y-115194730D01*
X133596297Y-115309766D01*
X133596305Y-115309776D01*
X133690223Y-115403694D01*
X133690228Y-115403698D01*
X133690230Y-115403700D01*
X133805270Y-115470119D01*
X133933581Y-115504500D01*
X133933583Y-115504500D01*
X134066417Y-115504500D01*
X134066419Y-115504500D01*
X134194730Y-115470119D01*
X134309770Y-115403700D01*
X134397053Y-115316417D01*
X164495499Y-115316417D01*
X164529881Y-115444730D01*
X164596297Y-115559766D01*
X164596305Y-115559776D01*
X164690223Y-115653694D01*
X164690228Y-115653698D01*
X164690230Y-115653700D01*
X164805270Y-115720119D01*
X164933581Y-115754500D01*
X164933583Y-115754500D01*
X165066417Y-115754500D01*
X165066419Y-115754500D01*
X165194730Y-115720119D01*
X165309770Y-115653700D01*
X165403700Y-115559770D01*
X165470119Y-115444730D01*
X165504500Y-115316419D01*
X165504500Y-115183581D01*
X165470119Y-115055270D01*
X165403700Y-114940230D01*
X165403698Y-114940228D01*
X165403694Y-114940223D01*
X165309776Y-114846305D01*
X165309766Y-114846297D01*
X165194730Y-114779881D01*
X165066419Y-114745500D01*
X164933581Y-114745500D01*
X164848040Y-114768420D01*
X164805269Y-114779881D01*
X164690233Y-114846297D01*
X164690223Y-114846305D01*
X164596305Y-114940223D01*
X164596297Y-114940233D01*
X164529881Y-115055269D01*
X164516662Y-115104602D01*
X164508718Y-115134253D01*
X164495500Y-115183582D01*
X164495500Y-115316417D01*
X164495499Y-115316417D01*
X134397053Y-115316417D01*
X134403700Y-115309770D01*
X134470119Y-115194730D01*
X134504500Y-115066419D01*
X134504500Y-114933581D01*
X134473106Y-114816417D01*
X144995499Y-114816417D01*
X145029881Y-114944730D01*
X145096297Y-115059766D01*
X145096305Y-115059776D01*
X145190223Y-115153694D01*
X145190228Y-115153698D01*
X145190230Y-115153700D01*
X145190231Y-115153701D01*
X145190233Y-115153702D01*
X145234865Y-115179470D01*
X145305270Y-115220119D01*
X145433581Y-115254500D01*
X145433583Y-115254500D01*
X145566417Y-115254500D01*
X145566419Y-115254500D01*
X145694730Y-115220119D01*
X145809770Y-115153700D01*
X145829224Y-115134246D01*
X145877244Y-115086227D01*
X145903694Y-115059776D01*
X145903700Y-115059770D01*
X145970119Y-114944730D01*
X146004500Y-114816419D01*
X146004500Y-114683581D01*
X145970119Y-114555270D01*
X145903700Y-114440230D01*
X145903698Y-114440228D01*
X145903694Y-114440223D01*
X145809776Y-114346305D01*
X145809766Y-114346297D01*
X145694730Y-114279881D01*
X145566419Y-114245500D01*
X145433581Y-114245500D01*
X145348040Y-114268420D01*
X145305269Y-114279881D01*
X145190233Y-114346297D01*
X145190223Y-114346305D01*
X145096305Y-114440223D01*
X145096297Y-114440233D01*
X145029881Y-114555269D01*
X145012690Y-114619425D01*
X144998417Y-114672697D01*
X144995500Y-114683582D01*
X144995500Y-114816417D01*
X144995499Y-114816417D01*
X134473106Y-114816417D01*
X134470119Y-114805270D01*
X134416695Y-114712738D01*
X134403702Y-114690233D01*
X134403694Y-114690223D01*
X134309776Y-114596305D01*
X134309766Y-114596297D01*
X134194730Y-114529881D01*
X134066419Y-114495500D01*
X133933581Y-114495500D01*
X133848040Y-114518420D01*
X133805269Y-114529881D01*
X133690233Y-114596297D01*
X133690223Y-114596305D01*
X133596305Y-114690223D01*
X133596297Y-114690233D01*
X133529881Y-114805269D01*
X133523719Y-114828268D01*
X133511215Y-114874934D01*
X133495500Y-114933582D01*
X133495500Y-115066417D01*
X133495499Y-115066417D01*
X104329100Y-115066417D01*
X104329100Y-114895398D01*
X104296373Y-114688768D01*
X104231725Y-114489803D01*
X104136748Y-114303400D01*
X104013781Y-114134149D01*
X104013780Y-114134147D01*
X103865852Y-113986219D01*
X103696602Y-113863253D01*
X103510193Y-113768273D01*
X103311237Y-113703628D01*
X103311233Y-113703627D01*
X103311232Y-113703627D01*
X103104602Y-113670900D01*
X102895398Y-113670900D01*
X102688768Y-113703627D01*
X102688762Y-113703628D01*
X102489806Y-113768273D01*
X102303397Y-113863253D01*
X102134147Y-113986219D01*
X101986219Y-114134147D01*
X101863253Y-114303397D01*
X101768273Y-114489806D01*
X101703628Y-114688762D01*
X101703627Y-114688767D01*
X101703627Y-114688768D01*
X101670900Y-114895398D01*
X100652900Y-114895398D01*
X100652900Y-112566417D01*
X109745499Y-112566417D01*
X109779881Y-112694730D01*
X109846297Y-112809766D01*
X109846305Y-112809776D01*
X109940223Y-112903694D01*
X109940228Y-112903698D01*
X109940230Y-112903700D01*
X110055270Y-112970119D01*
X110183581Y-113004500D01*
X110183583Y-113004500D01*
X110316417Y-113004500D01*
X110316419Y-113004500D01*
X110444730Y-112970119D01*
X110559770Y-112903700D01*
X110653700Y-112809770D01*
X110720119Y-112694730D01*
X110754500Y-112566419D01*
X110754500Y-112433581D01*
X110720119Y-112305270D01*
X110653700Y-112190230D01*
X110653697Y-112190227D01*
X110653694Y-112190223D01*
X110559776Y-112096305D01*
X110559766Y-112096297D01*
X110444730Y-112029881D01*
X110440084Y-112028636D01*
X110316419Y-111995500D01*
X110183581Y-111995500D01*
X110098040Y-112018420D01*
X110055269Y-112029881D01*
X109940233Y-112096297D01*
X109940223Y-112096305D01*
X109846305Y-112190223D01*
X109846297Y-112190233D01*
X109779881Y-112305269D01*
X109779881Y-112305270D01*
X109754535Y-112399864D01*
X109745500Y-112433582D01*
X109745500Y-112566417D01*
X109745499Y-112566417D01*
X100652900Y-112566417D01*
X100652900Y-105566417D01*
X105745499Y-105566417D01*
X105779881Y-105694730D01*
X105846297Y-105809766D01*
X105846305Y-105809776D01*
X105940223Y-105903694D01*
X105940228Y-105903698D01*
X105940230Y-105903700D01*
X105940231Y-105903701D01*
X105940233Y-105903702D01*
X105967094Y-105919210D01*
X106055270Y-105970119D01*
X106183581Y-106004500D01*
X106183583Y-106004500D01*
X106316417Y-106004500D01*
X106316419Y-106004500D01*
X106444730Y-105970119D01*
X106559770Y-105903700D01*
X106653700Y-105809770D01*
X106720119Y-105694730D01*
X106754500Y-105566419D01*
X106754500Y-105433581D01*
X106720119Y-105305270D01*
X106653700Y-105190230D01*
X106653698Y-105190228D01*
X106653694Y-105190223D01*
X106559776Y-105096305D01*
X106559766Y-105096297D01*
X106444730Y-105029881D01*
X106431754Y-105026404D01*
X106316419Y-104995500D01*
X106183581Y-104995500D01*
X106098040Y-105018420D01*
X106055269Y-105029881D01*
X105940233Y-105096297D01*
X105940223Y-105096305D01*
X105846305Y-105190223D01*
X105846297Y-105190233D01*
X105779881Y-105305269D01*
X105779881Y-105305270D01*
X105745790Y-105432501D01*
X105745500Y-105433582D01*
X105745500Y-105566417D01*
X105745499Y-105566417D01*
X100652900Y-105566417D01*
X100652900Y-102415073D01*
X104170900Y-102415073D01*
X104170900Y-102584927D01*
X104197471Y-102752690D01*
X104249959Y-102914231D01*
X104314302Y-103040512D01*
X104327072Y-103065574D01*
X104426908Y-103202988D01*
X104547011Y-103323091D01*
X104684425Y-103422927D01*
X104684428Y-103422929D01*
X104835769Y-103500041D01*
X104997310Y-103552529D01*
X105165073Y-103579100D01*
X105165076Y-103579100D01*
X105334924Y-103579100D01*
X105334927Y-103579100D01*
X105502690Y-103552529D01*
X105664231Y-103500041D01*
X105815572Y-103422929D01*
X105952987Y-103323092D01*
X106073092Y-103202987D01*
X106172929Y-103065572D01*
X106250041Y-102914231D01*
X106302529Y-102752690D01*
X106329100Y-102584927D01*
X106329100Y-102415073D01*
X106319410Y-102353894D01*
X108100900Y-102353894D01*
X108100900Y-102646105D01*
X108139038Y-102935801D01*
X108214667Y-103218053D01*
X108214668Y-103218055D01*
X108214669Y-103218058D01*
X108326491Y-103488021D01*
X108326492Y-103488022D01*
X108326497Y-103488033D01*
X108472591Y-103741075D01*
X108472596Y-103741082D01*
X108650470Y-103972892D01*
X108650489Y-103972913D01*
X108857086Y-104179510D01*
X108857107Y-104179529D01*
X109088917Y-104357403D01*
X109088924Y-104357408D01*
X109341966Y-104503502D01*
X109341970Y-104503503D01*
X109341979Y-104503509D01*
X109611942Y-104615331D01*
X109894191Y-104690960D01*
X109894197Y-104690960D01*
X109894198Y-104690961D01*
X109927446Y-104695338D01*
X110183897Y-104729100D01*
X110183904Y-104729100D01*
X110476096Y-104729100D01*
X110476103Y-104729100D01*
X110765809Y-104690960D01*
X111048058Y-104615331D01*
X111318021Y-104503509D01*
X111571079Y-104357406D01*
X111802901Y-104179522D01*
X112009522Y-103972901D01*
X112187406Y-103741079D01*
X112333509Y-103488021D01*
X112445331Y-103218058D01*
X112520960Y-102935809D01*
X112559100Y-102646103D01*
X112559100Y-102415073D01*
X114330900Y-102415073D01*
X114330900Y-102584927D01*
X114357471Y-102752690D01*
X114409959Y-102914231D01*
X114474302Y-103040512D01*
X114487072Y-103065574D01*
X114586908Y-103202988D01*
X114707011Y-103323091D01*
X114844425Y-103422927D01*
X114844428Y-103422929D01*
X114995769Y-103500041D01*
X115157310Y-103552529D01*
X115325073Y-103579100D01*
X115325076Y-103579100D01*
X115494924Y-103579100D01*
X115494927Y-103579100D01*
X115662690Y-103552529D01*
X115824231Y-103500041D01*
X115975572Y-103422929D01*
X116112987Y-103323092D01*
X116233092Y-103202987D01*
X116332929Y-103065572D01*
X116410041Y-102914231D01*
X116462529Y-102752690D01*
X116489100Y-102584927D01*
X116489100Y-102415073D01*
X116462529Y-102247310D01*
X116410041Y-102085769D01*
X116332929Y-101934428D01*
X116295151Y-101882430D01*
X116233091Y-101797011D01*
X116112988Y-101676908D01*
X115975574Y-101577072D01*
X115870941Y-101523759D01*
X115824231Y-101499959D01*
X115662690Y-101447471D01*
X115494927Y-101420900D01*
X115325073Y-101420900D01*
X115157310Y-101447471D01*
X115157307Y-101447471D01*
X115157306Y-101447472D01*
X114995769Y-101499959D01*
X114995767Y-101499960D01*
X114844425Y-101577072D01*
X114707011Y-101676908D01*
X114586908Y-101797011D01*
X114487072Y-101934425D01*
X114409960Y-102085767D01*
X114409959Y-102085769D01*
X114378178Y-102183582D01*
X114357471Y-102247310D01*
X114330900Y-102415073D01*
X112559100Y-102415073D01*
X112559100Y-102353897D01*
X112523801Y-102085769D01*
X112520961Y-102064198D01*
X112520960Y-102064197D01*
X112520960Y-102064191D01*
X112445331Y-101781942D01*
X112333509Y-101511979D01*
X112333503Y-101511970D01*
X112333502Y-101511966D01*
X112187408Y-101258924D01*
X112187403Y-101258917D01*
X112009529Y-101027107D01*
X112009510Y-101027086D01*
X111802913Y-100820489D01*
X111802892Y-100820470D01*
X111571082Y-100642596D01*
X111571075Y-100642591D01*
X111318033Y-100496497D01*
X111318025Y-100496493D01*
X111318021Y-100496491D01*
X111048058Y-100384669D01*
X111048055Y-100384668D01*
X111048053Y-100384667D01*
X110816226Y-100322549D01*
X110765809Y-100309040D01*
X110765807Y-100309039D01*
X110765801Y-100309038D01*
X110476105Y-100270900D01*
X110476103Y-100270900D01*
X110183897Y-100270900D01*
X110183894Y-100270900D01*
X109894198Y-100309038D01*
X109611946Y-100384667D01*
X109611942Y-100384669D01*
X109342465Y-100496290D01*
X109341977Y-100496492D01*
X109341966Y-100496497D01*
X109088924Y-100642591D01*
X109088917Y-100642596D01*
X108857107Y-100820470D01*
X108857086Y-100820489D01*
X108650489Y-101027086D01*
X108650470Y-101027107D01*
X108472596Y-101258917D01*
X108472591Y-101258924D01*
X108326497Y-101511966D01*
X108326492Y-101511977D01*
X108326491Y-101511979D01*
X108268593Y-101651757D01*
X108214669Y-101781942D01*
X108214667Y-101781946D01*
X108139038Y-102064198D01*
X108100900Y-102353894D01*
X106319410Y-102353894D01*
X106302529Y-102247310D01*
X106250041Y-102085769D01*
X106172929Y-101934428D01*
X106135151Y-101882430D01*
X106073091Y-101797011D01*
X105952988Y-101676908D01*
X105815574Y-101577072D01*
X105710941Y-101523759D01*
X105664231Y-101499959D01*
X105502690Y-101447471D01*
X105334927Y-101420900D01*
X105165073Y-101420900D01*
X104997310Y-101447471D01*
X104997307Y-101447471D01*
X104997306Y-101447472D01*
X104835769Y-101499959D01*
X104835767Y-101499960D01*
X104684425Y-101577072D01*
X104547011Y-101676908D01*
X104426908Y-101797011D01*
X104327072Y-101934425D01*
X104249960Y-102085767D01*
X104249959Y-102085769D01*
X104218178Y-102183582D01*
X104197471Y-102247310D01*
X104170900Y-102415073D01*
X100652900Y-102415073D01*
X100652900Y-99853399D01*
X105165500Y-99853399D01*
X105165500Y-100066601D01*
X105198853Y-100277179D01*
X105198854Y-100277183D01*
X105233777Y-100384667D01*
X105264736Y-100479947D01*
X105361528Y-100669913D01*
X105361530Y-100669916D01*
X105486847Y-100842399D01*
X105637600Y-100993152D01*
X105684306Y-101027086D01*
X105810087Y-101118472D01*
X106000053Y-101215264D01*
X106202821Y-101281147D01*
X106413399Y-101314500D01*
X106413402Y-101314500D01*
X106626598Y-101314500D01*
X106626601Y-101314500D01*
X106837179Y-101281147D01*
X107039947Y-101215264D01*
X107229913Y-101118472D01*
X107402397Y-100993154D01*
X107553154Y-100842397D01*
X107678472Y-100669913D01*
X107775264Y-100479947D01*
X107841147Y-100277179D01*
X107874500Y-100066601D01*
X107874500Y-99853399D01*
X107841147Y-99642821D01*
X107775264Y-99440053D01*
X107771966Y-99433581D01*
X107749780Y-99390037D01*
X107736676Y-99320260D01*
X107763377Y-99254476D01*
X107772943Y-99243749D01*
X111100289Y-95916405D01*
X111162601Y-95882379D01*
X111189384Y-95879500D01*
X112432387Y-95879500D01*
X112500508Y-95899502D01*
X112547001Y-95953158D01*
X112557105Y-96023432D01*
X112527611Y-96088012D01*
X112471323Y-96125333D01*
X112350057Y-96164734D01*
X112350051Y-96164737D01*
X112160083Y-96261530D01*
X111987600Y-96386847D01*
X111836847Y-96537600D01*
X111711530Y-96710083D01*
X111614737Y-96900051D01*
X111614734Y-96900057D01*
X111548854Y-97102816D01*
X111548853Y-97102819D01*
X111548853Y-97102821D01*
X111515500Y-97313399D01*
X111515500Y-97526601D01*
X111538003Y-97668674D01*
X111548854Y-97737183D01*
X111606223Y-97913749D01*
X111614736Y-97939947D01*
X111683012Y-98073946D01*
X111711530Y-98129916D01*
X111836847Y-98302399D01*
X111987600Y-98453152D01*
X111987603Y-98453154D01*
X112160087Y-98578472D01*
X112350053Y-98675264D01*
X112552821Y-98741147D01*
X112763399Y-98774500D01*
X112763402Y-98774500D01*
X112976598Y-98774500D01*
X112976601Y-98774500D01*
X113187179Y-98741147D01*
X113389947Y-98675264D01*
X113473086Y-98632902D01*
X113542859Y-98619799D01*
X113608644Y-98646499D01*
X113619381Y-98656075D01*
X126866913Y-111903607D01*
X126866934Y-111903630D01*
X126941974Y-111978670D01*
X126941979Y-111978674D01*
X126941981Y-111978676D01*
X126941982Y-111978677D01*
X126941984Y-111978678D01*
X127028513Y-112028636D01*
X127028515Y-112028636D01*
X127028518Y-112028638D01*
X127125038Y-112054500D01*
X171735419Y-112054500D01*
X171790758Y-112067303D01*
X171823645Y-112083380D01*
X171897450Y-112119461D01*
X171966354Y-112129500D01*
X171966360Y-112129500D01*
X173308640Y-112129500D01*
X173308646Y-112129500D01*
X173377550Y-112119461D01*
X173483840Y-112067499D01*
X173484036Y-112067303D01*
X173488405Y-112062935D01*
X173550717Y-112028909D01*
X173621532Y-112033974D01*
X173678368Y-112076521D01*
X173703179Y-112143041D01*
X173703500Y-112152030D01*
X173703500Y-114567461D01*
X173683498Y-114635582D01*
X173629842Y-114682075D01*
X173559568Y-114692179D01*
X173538564Y-114687294D01*
X173493642Y-114672698D01*
X173493640Y-114672697D01*
X173493638Y-114672697D01*
X173321926Y-114645500D01*
X173148074Y-114645500D01*
X172976362Y-114672697D01*
X172976360Y-114672697D01*
X172976357Y-114672698D01*
X172811023Y-114726418D01*
X172811017Y-114726421D01*
X172656112Y-114805349D01*
X172515464Y-114907536D01*
X172392536Y-115030464D01*
X172290349Y-115171112D01*
X172211421Y-115326017D01*
X172211418Y-115326023D01*
X172157698Y-115491357D01*
X172157697Y-115491360D01*
X172157697Y-115491362D01*
X172130500Y-115663074D01*
X172130500Y-115836926D01*
X172147300Y-115942993D01*
X172157698Y-116008642D01*
X172199321Y-116136746D01*
X172211420Y-116173981D01*
X172290347Y-116328884D01*
X172290349Y-116328887D01*
X172392536Y-116469535D01*
X172515464Y-116592463D01*
X172560342Y-116625069D01*
X172656116Y-116694653D01*
X172811019Y-116773580D01*
X172976362Y-116827303D01*
X173148074Y-116854500D01*
X173148077Y-116854500D01*
X173321923Y-116854500D01*
X173321926Y-116854500D01*
X173493638Y-116827303D01*
X173658981Y-116773580D01*
X173813884Y-116694653D01*
X173954533Y-116592465D01*
X174077465Y-116469533D01*
X174179653Y-116328884D01*
X174258580Y-116173981D01*
X174312303Y-116008638D01*
X174339500Y-115836926D01*
X174339500Y-115663074D01*
X174312303Y-115491362D01*
X174267705Y-115354105D01*
X174267264Y-115338649D01*
X174261860Y-115324160D01*
X174266270Y-115303883D01*
X174265678Y-115283140D01*
X174273896Y-115268826D01*
X174276951Y-115254786D01*
X174298441Y-115226079D01*
X174308870Y-115215650D01*
X174308880Y-115215643D01*
X174390270Y-115134253D01*
X174390276Y-115134247D01*
X174434186Y-115058190D01*
X174435392Y-115056104D01*
X174463328Y-115029474D01*
X174486762Y-115007131D01*
X174486772Y-115007128D01*
X174486783Y-115007119D01*
X174522369Y-115000267D01*
X174556475Y-114993693D01*
X174556487Y-114993698D01*
X174556499Y-114993696D01*
X174588518Y-115006520D01*
X174622386Y-115020079D01*
X174622392Y-115020088D01*
X174622406Y-115020094D01*
X174644084Y-115050549D01*
X174663569Y-115077911D01*
X174663571Y-115077926D01*
X174663577Y-115077934D01*
X174663578Y-115077968D01*
X174670500Y-115119123D01*
X174670500Y-116625063D01*
X174670501Y-116625073D01*
X174685265Y-116699300D01*
X174741516Y-116783484D01*
X174825697Y-116839733D01*
X174825699Y-116839734D01*
X174899933Y-116854500D01*
X176650066Y-116854499D01*
X176650069Y-116854498D01*
X176650073Y-116854498D01*
X176699326Y-116844701D01*
X176724301Y-116839734D01*
X176808484Y-116783484D01*
X176864734Y-116699301D01*
X176879500Y-116625067D01*
X176879499Y-114874934D01*
X176879498Y-114874931D01*
X176879498Y-114874926D01*
X176864734Y-114800699D01*
X176850824Y-114779881D01*
X176808484Y-114716516D01*
X176772062Y-114692179D01*
X176724302Y-114660266D01*
X176650069Y-114645500D01*
X176650067Y-114645500D01*
X176282500Y-114645500D01*
X176214379Y-114625498D01*
X176167886Y-114571842D01*
X176156500Y-114519500D01*
X176156500Y-109997384D01*
X176162838Y-109975796D01*
X176164444Y-109953352D01*
X176172645Y-109942395D01*
X176176502Y-109929263D01*
X176193507Y-109914527D01*
X176206991Y-109896516D01*
X176219813Y-109891733D01*
X176230158Y-109882770D01*
X176252430Y-109879567D01*
X176273511Y-109871705D01*
X176286883Y-109874613D01*
X176300432Y-109872666D01*
X176320898Y-109882013D01*
X176342885Y-109886796D01*
X176360898Y-109900281D01*
X176365012Y-109902160D01*
X176371595Y-109908289D01*
X176416913Y-109953607D01*
X176416934Y-109953630D01*
X176491974Y-110028670D01*
X176491979Y-110028674D01*
X176491981Y-110028676D01*
X176491982Y-110028677D01*
X176491984Y-110028678D01*
X176528915Y-110050000D01*
X176538043Y-110055270D01*
X176578519Y-110078639D01*
X176675038Y-110104501D01*
X176675040Y-110104501D01*
X176782680Y-110104501D01*
X176782696Y-110104500D01*
X177244956Y-110104500D01*
X177313077Y-110124502D01*
X177359570Y-110178158D01*
X177370122Y-110236795D01*
X177370500Y-110236795D01*
X177370500Y-110238897D01*
X177370627Y-110239603D01*
X177370500Y-110241356D01*
X177370500Y-110508647D01*
X177380539Y-110577550D01*
X177406694Y-110631052D01*
X177410750Y-110654811D01*
X177419174Y-110677390D01*
X177416614Y-110689160D01*
X177418642Y-110701036D01*
X177409209Y-110723215D01*
X177404089Y-110746765D01*
X177392753Y-110761909D01*
X177390857Y-110766370D01*
X177382600Y-110775477D01*
X177372186Y-110785892D01*
X177366103Y-110791975D01*
X177366099Y-110791977D01*
X177366096Y-110791983D01*
X177065983Y-111092096D01*
X177065981Y-111092098D01*
X177031881Y-111126198D01*
X176995325Y-111162753D01*
X176995321Y-111162758D01*
X176946872Y-111246676D01*
X176945362Y-111249292D01*
X176945362Y-111249293D01*
X176919499Y-111345812D01*
X176919499Y-111445736D01*
X176919500Y-111445739D01*
X176919500Y-111463812D01*
X176919500Y-112031303D01*
X176919499Y-112031321D01*
X176919499Y-112138963D01*
X176933236Y-112190227D01*
X176933236Y-112190229D01*
X176945362Y-112235483D01*
X176995321Y-112322015D01*
X176995329Y-112322025D01*
X177073156Y-112399852D01*
X177073170Y-112399864D01*
X179897248Y-115223942D01*
X179931274Y-115286254D01*
X179927986Y-115351972D01*
X179882698Y-115491355D01*
X179882697Y-115491362D01*
X179855500Y-115663074D01*
X179855500Y-115836926D01*
X179872300Y-115942993D01*
X179882698Y-116008642D01*
X179924321Y-116136746D01*
X179936420Y-116173981D01*
X180015347Y-116328884D01*
X180015349Y-116328887D01*
X180117536Y-116469535D01*
X180240464Y-116592463D01*
X180285342Y-116625069D01*
X180381116Y-116694653D01*
X180536019Y-116773580D01*
X180701362Y-116827303D01*
X180873074Y-116854500D01*
X180873077Y-116854500D01*
X181046923Y-116854500D01*
X181046926Y-116854500D01*
X181218638Y-116827303D01*
X181383981Y-116773580D01*
X181538884Y-116694653D01*
X181679533Y-116592465D01*
X181802465Y-116469533D01*
X181904653Y-116328884D01*
X181983580Y-116173981D01*
X182037303Y-116008638D01*
X182064500Y-115836926D01*
X182064500Y-115663074D01*
X182037303Y-115491362D01*
X181983580Y-115326019D01*
X181904653Y-115171116D01*
X181823752Y-115059766D01*
X181802463Y-115030464D01*
X181679535Y-114907536D01*
X181538887Y-114805349D01*
X181538886Y-114805348D01*
X181538884Y-114805347D01*
X181383981Y-114726420D01*
X181383978Y-114726419D01*
X181383976Y-114726418D01*
X181218642Y-114672698D01*
X181218640Y-114672697D01*
X181218638Y-114672697D01*
X181046926Y-114645500D01*
X180873074Y-114645500D01*
X180733327Y-114667634D01*
X180701355Y-114672698D01*
X180561972Y-114717986D01*
X180491005Y-114720013D01*
X180433942Y-114687248D01*
X178091289Y-112344595D01*
X178057263Y-112282283D01*
X178062328Y-112211468D01*
X178104875Y-112154632D01*
X178171395Y-112129821D01*
X178180384Y-112129500D01*
X179033640Y-112129500D01*
X179033646Y-112129500D01*
X179102550Y-112119461D01*
X179176355Y-112083379D01*
X179246337Y-112071431D01*
X179311672Y-112099215D01*
X179320788Y-112107482D01*
X182437248Y-115223942D01*
X182471274Y-115286254D01*
X182467986Y-115351972D01*
X182422698Y-115491355D01*
X182422697Y-115491362D01*
X182395500Y-115663074D01*
X182395500Y-115836926D01*
X182412300Y-115942993D01*
X182422698Y-116008642D01*
X182464321Y-116136746D01*
X182476420Y-116173981D01*
X182555347Y-116328884D01*
X182555349Y-116328887D01*
X182657536Y-116469535D01*
X182780464Y-116592463D01*
X182825342Y-116625069D01*
X182921116Y-116694653D01*
X183076019Y-116773580D01*
X183241362Y-116827303D01*
X183413074Y-116854500D01*
X183413077Y-116854500D01*
X183586923Y-116854500D01*
X183586926Y-116854500D01*
X183758638Y-116827303D01*
X183923981Y-116773580D01*
X184078884Y-116694653D01*
X184219533Y-116592465D01*
X184219538Y-116592460D01*
X184333160Y-116478839D01*
X184342460Y-116469538D01*
X184342463Y-116469535D01*
X184342465Y-116469533D01*
X184444653Y-116328884D01*
X184523580Y-116173981D01*
X184577303Y-116008638D01*
X184604500Y-115836926D01*
X184604500Y-115663074D01*
X184577303Y-115491362D01*
X184523580Y-115326019D01*
X184444653Y-115171116D01*
X184363752Y-115059766D01*
X184342463Y-115030464D01*
X184219535Y-114907536D01*
X184078887Y-114805349D01*
X184078886Y-114805348D01*
X184078884Y-114805347D01*
X183923981Y-114726420D01*
X183923978Y-114726419D01*
X183923976Y-114726418D01*
X183758642Y-114672698D01*
X183758640Y-114672697D01*
X183758638Y-114672697D01*
X183586926Y-114645500D01*
X183413074Y-114645500D01*
X183273327Y-114667634D01*
X183241355Y-114672698D01*
X183101972Y-114717986D01*
X183031005Y-114720013D01*
X182973942Y-114687248D01*
X179735864Y-111449170D01*
X179735852Y-111449156D01*
X179658025Y-111371329D01*
X179658015Y-111371321D01*
X179571480Y-111321361D01*
X179552775Y-111316349D01*
X179552770Y-111316347D01*
X179551084Y-111315896D01*
X179474962Y-111295499D01*
X179465245Y-111295499D01*
X179450846Y-111292069D01*
X179432359Y-111281497D01*
X179411923Y-111275497D01*
X179402157Y-111264227D01*
X179389215Y-111256826D01*
X179379378Y-111237937D01*
X179365430Y-111221841D01*
X179362492Y-111205515D01*
X179356421Y-111193858D01*
X179357758Y-111179208D01*
X179354879Y-111163205D01*
X179354500Y-111163205D01*
X179354500Y-111161099D01*
X179354373Y-111160394D01*
X179354500Y-111158641D01*
X179354500Y-110886795D01*
X179355559Y-110886795D01*
X179369548Y-110822212D01*
X179419706Y-110771966D01*
X179480189Y-110756500D01*
X181175223Y-110756500D01*
X181175225Y-110756500D01*
X181272254Y-110730501D01*
X181272257Y-110730499D01*
X181272258Y-110730499D01*
X181331418Y-110696343D01*
X181359247Y-110680276D01*
X181430276Y-110609247D01*
X181783620Y-110255902D01*
X181845930Y-110221879D01*
X181916745Y-110226943D01*
X181973581Y-110269490D01*
X181994420Y-110312388D01*
X182029881Y-110444730D01*
X182096297Y-110559766D01*
X182096305Y-110559776D01*
X182190223Y-110653694D01*
X182190228Y-110653698D01*
X182190230Y-110653700D01*
X182305270Y-110720119D01*
X182433581Y-110754500D01*
X182433583Y-110754500D01*
X182566417Y-110754500D01*
X182566419Y-110754500D01*
X182694730Y-110720119D01*
X182747139Y-110689860D01*
X182816131Y-110673123D01*
X182883223Y-110696343D01*
X182899232Y-110709885D01*
X186863370Y-114674023D01*
X186897396Y-114736335D01*
X186892331Y-114807150D01*
X186849784Y-114863986D01*
X186783264Y-114888797D01*
X186713890Y-114873706D01*
X186700214Y-114865054D01*
X186618625Y-114805776D01*
X186463790Y-114726884D01*
X186463788Y-114726883D01*
X186298524Y-114673185D01*
X186126884Y-114646000D01*
X185953116Y-114646000D01*
X185781475Y-114673185D01*
X185616211Y-114726883D01*
X185616209Y-114726884D01*
X185461379Y-114805773D01*
X185461379Y-114805774D01*
X185353649Y-114884042D01*
X185353649Y-114884043D01*
X185787841Y-115318234D01*
X185732993Y-115349901D01*
X185639901Y-115442993D01*
X185608235Y-115497840D01*
X185174044Y-115063649D01*
X185174042Y-115063649D01*
X185095774Y-115171379D01*
X185095773Y-115171379D01*
X185016884Y-115326209D01*
X185016883Y-115326211D01*
X184963185Y-115491475D01*
X184936000Y-115663116D01*
X184936000Y-115836883D01*
X184963185Y-116008524D01*
X185016883Y-116173788D01*
X185016884Y-116173790D01*
X185095776Y-116328625D01*
X185174042Y-116436349D01*
X185174043Y-116436349D01*
X185608234Y-116002158D01*
X185639901Y-116057007D01*
X185732993Y-116150099D01*
X185787840Y-116181765D01*
X185353649Y-116615955D01*
X185353649Y-116615956D01*
X185461374Y-116694223D01*
X185616209Y-116773115D01*
X185616211Y-116773116D01*
X185781475Y-116826814D01*
X185953116Y-116854000D01*
X186126884Y-116854000D01*
X186298524Y-116826814D01*
X186463788Y-116773116D01*
X186463790Y-116773115D01*
X186618621Y-116694225D01*
X186726349Y-116615955D01*
X186726349Y-116615954D01*
X186292159Y-116181764D01*
X186347007Y-116150099D01*
X186440099Y-116057007D01*
X186471765Y-116002158D01*
X186905955Y-116436349D01*
X186984225Y-116328621D01*
X187063115Y-116173790D01*
X187063116Y-116173788D01*
X187116814Y-116008524D01*
X187144000Y-115836883D01*
X187144000Y-115663116D01*
X187116814Y-115491475D01*
X187063116Y-115326211D01*
X187063115Y-115326209D01*
X186984223Y-115171374D01*
X186924945Y-115089785D01*
X186901087Y-115022918D01*
X186917167Y-114953766D01*
X186968081Y-114904286D01*
X187037663Y-114890186D01*
X187103822Y-114915944D01*
X187115976Y-114926629D01*
X187438595Y-115249248D01*
X187472621Y-115311560D01*
X187475500Y-115338343D01*
X187475500Y-116625063D01*
X187475501Y-116625073D01*
X187490265Y-116699300D01*
X187546516Y-116783484D01*
X187630697Y-116839733D01*
X187630699Y-116839734D01*
X187704933Y-116854500D01*
X189455066Y-116854499D01*
X189455069Y-116854498D01*
X189455073Y-116854498D01*
X189504326Y-116844701D01*
X189529301Y-116839734D01*
X189613484Y-116783484D01*
X189669734Y-116699301D01*
X189684500Y-116625067D01*
X189684499Y-114895398D01*
X191670900Y-114895398D01*
X191670900Y-115104602D01*
X191703627Y-115311232D01*
X191703628Y-115311237D01*
X191768273Y-115510193D01*
X191863253Y-115696602D01*
X191986219Y-115865852D01*
X192134147Y-116013780D01*
X192193645Y-116057007D01*
X192303400Y-116136748D01*
X192489803Y-116231725D01*
X192688768Y-116296373D01*
X192895398Y-116329100D01*
X192895401Y-116329100D01*
X193104599Y-116329100D01*
X193104602Y-116329100D01*
X193311232Y-116296373D01*
X193510197Y-116231725D01*
X193696600Y-116136748D01*
X193865851Y-116013781D01*
X194013781Y-115865851D01*
X194136748Y-115696600D01*
X194231725Y-115510197D01*
X194296373Y-115311232D01*
X194329100Y-115104602D01*
X194329100Y-114895398D01*
X194296373Y-114688768D01*
X194231725Y-114489803D01*
X194136748Y-114303400D01*
X194013781Y-114134149D01*
X194013780Y-114134147D01*
X193865852Y-113986219D01*
X193696602Y-113863253D01*
X193510193Y-113768273D01*
X193311237Y-113703628D01*
X193311233Y-113703627D01*
X193311232Y-113703627D01*
X193104602Y-113670900D01*
X192895398Y-113670900D01*
X192688768Y-113703627D01*
X192688762Y-113703628D01*
X192489806Y-113768273D01*
X192303397Y-113863253D01*
X192134147Y-113986219D01*
X191986219Y-114134147D01*
X191863253Y-114303397D01*
X191768273Y-114489806D01*
X191703628Y-114688762D01*
X191703627Y-114688767D01*
X191703627Y-114688768D01*
X191670900Y-114895398D01*
X189684499Y-114895398D01*
X189684499Y-114874934D01*
X189684498Y-114874931D01*
X189684498Y-114874926D01*
X189669734Y-114800699D01*
X189655824Y-114779881D01*
X189613484Y-114716516D01*
X189577062Y-114692179D01*
X189529302Y-114660266D01*
X189455069Y-114645500D01*
X189455067Y-114645500D01*
X187960425Y-114645500D01*
X187892304Y-114625498D01*
X187871330Y-114608595D01*
X184610474Y-111347739D01*
X184576448Y-111285427D01*
X184581513Y-111214612D01*
X184624060Y-111157776D01*
X184679854Y-111134196D01*
X184730341Y-111126200D01*
X184903169Y-111070045D01*
X185065085Y-110987545D01*
X185212101Y-110880731D01*
X185340598Y-110752234D01*
X185447412Y-110605218D01*
X185529912Y-110443302D01*
X185586067Y-110270474D01*
X185605549Y-110147467D01*
X185635960Y-110083317D01*
X185696228Y-110045790D01*
X185767218Y-110046804D01*
X185826390Y-110086037D01*
X185854445Y-110147469D01*
X185871620Y-110255904D01*
X185873929Y-110270479D01*
X185930081Y-110443297D01*
X185930083Y-110443302D01*
X185991343Y-110563532D01*
X186012585Y-110605221D01*
X186119398Y-110752236D01*
X186247891Y-110880729D01*
X186247894Y-110880731D01*
X186394910Y-110987545D01*
X186556826Y-111070045D01*
X186729654Y-111126200D01*
X186909139Y-111154628D01*
X186909142Y-111154628D01*
X187090858Y-111154628D01*
X187090861Y-111154628D01*
X187270346Y-111126200D01*
X187443174Y-111070045D01*
X187605090Y-110987545D01*
X187752106Y-110880731D01*
X187880603Y-110752234D01*
X187987417Y-110605218D01*
X188069917Y-110443302D01*
X188126072Y-110270474D01*
X188145554Y-110147467D01*
X188175965Y-110083317D01*
X188236233Y-110045790D01*
X188307223Y-110046804D01*
X188366395Y-110086037D01*
X188394450Y-110147469D01*
X188411625Y-110255904D01*
X188413934Y-110270479D01*
X188470086Y-110443297D01*
X188470088Y-110443302D01*
X188531348Y-110563532D01*
X188552590Y-110605221D01*
X188659403Y-110752236D01*
X188787896Y-110880729D01*
X188787899Y-110880731D01*
X188934915Y-110987545D01*
X189096831Y-111070045D01*
X189269659Y-111126200D01*
X189449144Y-111154628D01*
X189449147Y-111154628D01*
X189630863Y-111154628D01*
X189630866Y-111154628D01*
X189810351Y-111126200D01*
X189983179Y-111070045D01*
X190145095Y-110987545D01*
X190292111Y-110880731D01*
X190420608Y-110752234D01*
X190527422Y-110605218D01*
X190609922Y-110443302D01*
X190666077Y-110270474D01*
X190694505Y-110090989D01*
X190694505Y-109909267D01*
X190666077Y-109729782D01*
X190609922Y-109556954D01*
X190527422Y-109395038D01*
X190443685Y-109279784D01*
X190420606Y-109248019D01*
X190292113Y-109119526D01*
X190145098Y-109012713D01*
X190145097Y-109012712D01*
X190145095Y-109012711D01*
X189983179Y-108930211D01*
X189983176Y-108930210D01*
X189983174Y-108930209D01*
X189810356Y-108874057D01*
X189810352Y-108874056D01*
X189810351Y-108874056D01*
X189630866Y-108845628D01*
X189449144Y-108845628D01*
X189279799Y-108872450D01*
X189269653Y-108874057D01*
X189096835Y-108930209D01*
X189096829Y-108930212D01*
X188934911Y-109012713D01*
X188787896Y-109119526D01*
X188659403Y-109248019D01*
X188552590Y-109395034D01*
X188470089Y-109556952D01*
X188470086Y-109556958D01*
X188413934Y-109729775D01*
X188394451Y-109852786D01*
X188364038Y-109916938D01*
X188303770Y-109954465D01*
X188232780Y-109953451D01*
X188173608Y-109914218D01*
X188145554Y-109852788D01*
X188126072Y-109729782D01*
X188069917Y-109556954D01*
X187987417Y-109395038D01*
X187903680Y-109279784D01*
X187880601Y-109248019D01*
X187752108Y-109119526D01*
X187605093Y-109012713D01*
X187605092Y-109012712D01*
X187605090Y-109012711D01*
X187443174Y-108930211D01*
X187443171Y-108930210D01*
X187443169Y-108930209D01*
X187270351Y-108874057D01*
X187270347Y-108874056D01*
X187270346Y-108874056D01*
X187090861Y-108845628D01*
X186909139Y-108845628D01*
X186739794Y-108872450D01*
X186729648Y-108874057D01*
X186556830Y-108930209D01*
X186556824Y-108930212D01*
X186394906Y-109012713D01*
X186247891Y-109119526D01*
X186119398Y-109248019D01*
X186012585Y-109395034D01*
X185930084Y-109556952D01*
X185930081Y-109556958D01*
X185873929Y-109729775D01*
X185854446Y-109852786D01*
X185824033Y-109916938D01*
X185763765Y-109954465D01*
X185692775Y-109953451D01*
X185633603Y-109914218D01*
X185605549Y-109852788D01*
X185586067Y-109729782D01*
X185529912Y-109556954D01*
X185447412Y-109395038D01*
X185363675Y-109279784D01*
X185340596Y-109248019D01*
X185212103Y-109119526D01*
X185065088Y-109012713D01*
X185065087Y-109012712D01*
X185065085Y-109012711D01*
X184903169Y-108930211D01*
X184903166Y-108930210D01*
X184903164Y-108930209D01*
X184730346Y-108874057D01*
X184730342Y-108874056D01*
X184730341Y-108874056D01*
X184550856Y-108845628D01*
X184369134Y-108845628D01*
X184199789Y-108872450D01*
X184189643Y-108874057D01*
X184016825Y-108930209D01*
X184016819Y-108930212D01*
X183854901Y-109012713D01*
X183707886Y-109119526D01*
X183579393Y-109248019D01*
X183472580Y-109395034D01*
X183390079Y-109556952D01*
X183390076Y-109556958D01*
X183333923Y-109729778D01*
X183333922Y-109729785D01*
X183320716Y-109813159D01*
X183290303Y-109877312D01*
X183230035Y-109914838D01*
X183159045Y-109913823D01*
X183150057Y-109910667D01*
X183141365Y-109907240D01*
X183122523Y-109896362D01*
X183102125Y-109890896D01*
X183071799Y-109882770D01*
X183026006Y-109870499D01*
X183026003Y-109870499D01*
X182926079Y-109870499D01*
X182918361Y-109870499D01*
X182918345Y-109870500D01*
X182884079Y-109870500D01*
X182815958Y-109850498D01*
X182810988Y-109847003D01*
X182694730Y-109779881D01*
X182566419Y-109745500D01*
X182493383Y-109745500D01*
X182425262Y-109725498D01*
X182378769Y-109671842D01*
X182368665Y-109601568D01*
X182371676Y-109586890D01*
X182374090Y-109577879D01*
X182381500Y-109550225D01*
X182381500Y-109449775D01*
X182381500Y-105949775D01*
X182355501Y-105852746D01*
X182355499Y-105852743D01*
X182355499Y-105852741D01*
X182305278Y-105765756D01*
X182305270Y-105765746D01*
X182229858Y-105690334D01*
X182229835Y-105690313D01*
X181245736Y-104706213D01*
X181211710Y-104643901D01*
X181216775Y-104573085D01*
X181251754Y-104522386D01*
X181273051Y-104503709D01*
X181273051Y-103743293D01*
X181309543Y-103749073D01*
X181490559Y-103749073D01*
X181527051Y-103743293D01*
X181527051Y-104503709D01*
X181772292Y-104471423D01*
X182013380Y-104406824D01*
X182013384Y-104406822D01*
X182243976Y-104311307D01*
X182243987Y-104311302D01*
X182460127Y-104186514D01*
X182658140Y-104034572D01*
X182658154Y-104034559D01*
X182834610Y-103858103D01*
X182834623Y-103858089D01*
X182986565Y-103660076D01*
X183111353Y-103443936D01*
X183111358Y-103443925D01*
X183206873Y-103213333D01*
X183206875Y-103213329D01*
X183271474Y-102972241D01*
X183304050Y-102724797D01*
X183304051Y-102724788D01*
X183304051Y-102627000D01*
X182550064Y-102627000D01*
X182550064Y-102373000D01*
X183304051Y-102373000D01*
X183304051Y-102275212D01*
X183304050Y-102275202D01*
X190695949Y-102275202D01*
X190695949Y-102373000D01*
X191449936Y-102373000D01*
X191449936Y-102627000D01*
X190695949Y-102627000D01*
X190695949Y-102724797D01*
X190728525Y-102972241D01*
X190793124Y-103213329D01*
X190793126Y-103213333D01*
X190888641Y-103443925D01*
X190888646Y-103443936D01*
X191013434Y-103660076D01*
X191165376Y-103858089D01*
X191165389Y-103858103D01*
X191341845Y-104034559D01*
X191341859Y-104034572D01*
X191539872Y-104186514D01*
X191756012Y-104311302D01*
X191756023Y-104311307D01*
X191986615Y-104406822D01*
X191986619Y-104406824D01*
X192227707Y-104471423D01*
X192472948Y-104503709D01*
X192472949Y-104503708D01*
X192472949Y-103743293D01*
X192509441Y-103749073D01*
X192690457Y-103749073D01*
X192726949Y-103743293D01*
X192726949Y-104503709D01*
X192972190Y-104471423D01*
X193213278Y-104406824D01*
X193213282Y-104406822D01*
X193443874Y-104311307D01*
X193443885Y-104311302D01*
X193660025Y-104186514D01*
X193858038Y-104034572D01*
X193858052Y-104034559D01*
X194034508Y-103858103D01*
X194034521Y-103858089D01*
X194186463Y-103660076D01*
X194311251Y-103443936D01*
X194311256Y-103443925D01*
X194406771Y-103213333D01*
X194406773Y-103213329D01*
X194471372Y-102972241D01*
X194503948Y-102724797D01*
X194503949Y-102724788D01*
X194503949Y-102627000D01*
X193749962Y-102627000D01*
X193749962Y-102373000D01*
X194503949Y-102373000D01*
X194503949Y-102275212D01*
X194503948Y-102275202D01*
X194471372Y-102027758D01*
X194406773Y-101786670D01*
X194406771Y-101786666D01*
X194311256Y-101556074D01*
X194311251Y-101556063D01*
X194186463Y-101339923D01*
X194034521Y-101141910D01*
X194034508Y-101141896D01*
X193858052Y-100965440D01*
X193858038Y-100965427D01*
X193660025Y-100813485D01*
X193443885Y-100688697D01*
X193443874Y-100688692D01*
X193213282Y-100593177D01*
X193213278Y-100593175D01*
X192972190Y-100528576D01*
X192726949Y-100496289D01*
X192726949Y-101256706D01*
X192690457Y-101250927D01*
X192509441Y-101250927D01*
X192472949Y-101256706D01*
X192472949Y-100496290D01*
X192472948Y-100496289D01*
X192227707Y-100528576D01*
X191986619Y-100593175D01*
X191986615Y-100593177D01*
X191756023Y-100688692D01*
X191756012Y-100688697D01*
X191539872Y-100813485D01*
X191341859Y-100965427D01*
X191341845Y-100965440D01*
X191165389Y-101141896D01*
X191165376Y-101141910D01*
X191013434Y-101339923D01*
X190888646Y-101556063D01*
X190888641Y-101556074D01*
X190793126Y-101786666D01*
X190793124Y-101786670D01*
X190728525Y-102027758D01*
X190695949Y-102275202D01*
X183304050Y-102275202D01*
X183271474Y-102027758D01*
X183206875Y-101786670D01*
X183206873Y-101786666D01*
X183111358Y-101556074D01*
X183111353Y-101556063D01*
X182986565Y-101339923D01*
X182834623Y-101141910D01*
X182834610Y-101141896D01*
X182658154Y-100965440D01*
X182658140Y-100965427D01*
X182460127Y-100813485D01*
X182243987Y-100688697D01*
X182243976Y-100688692D01*
X182013384Y-100593177D01*
X182013380Y-100593175D01*
X181772292Y-100528576D01*
X181527051Y-100496289D01*
X181527051Y-101256706D01*
X181490559Y-101250927D01*
X181309543Y-101250927D01*
X181273051Y-101256706D01*
X181273051Y-100496290D01*
X181273050Y-100496289D01*
X181027809Y-100528576D01*
X180786721Y-100593175D01*
X180786717Y-100593177D01*
X180556125Y-100688692D01*
X180556114Y-100688697D01*
X180339975Y-100813484D01*
X180221163Y-100904653D01*
X180154943Y-100930253D01*
X180085394Y-100915988D01*
X180034598Y-100866387D01*
X180034103Y-100865498D01*
X180026715Y-100852091D01*
X180014170Y-100805270D01*
X179947751Y-100690230D01*
X179924979Y-100667458D01*
X179916356Y-100651808D01*
X179912386Y-100633890D01*
X179903591Y-100617783D01*
X179904866Y-100599946D01*
X179901000Y-100582492D01*
X179907346Y-100565275D01*
X179908656Y-100546968D01*
X179921411Y-100527121D01*
X179925556Y-100515877D01*
X179931538Y-100511362D01*
X179937617Y-100501905D01*
X180796702Y-99642821D01*
X181698118Y-98741405D01*
X181760430Y-98707379D01*
X181787213Y-98704500D01*
X182294332Y-98704500D01*
X182294334Y-98704500D01*
X182389055Y-98689498D01*
X182503223Y-98631326D01*
X182593826Y-98540723D01*
X182651998Y-98426555D01*
X182667000Y-98331834D01*
X182667000Y-98028363D01*
X182687002Y-97960242D01*
X182740658Y-97913749D01*
X182810932Y-97903645D01*
X182875512Y-97933139D01*
X182882095Y-97939268D01*
X183071095Y-98128268D01*
X183105121Y-98190580D01*
X183108000Y-98217363D01*
X183108000Y-98331832D01*
X183123001Y-98426553D01*
X183181173Y-98540723D01*
X183271776Y-98631326D01*
X183311594Y-98651614D01*
X183385945Y-98689498D01*
X183480666Y-98704500D01*
X183480668Y-98704500D01*
X184569332Y-98704500D01*
X184569334Y-98704500D01*
X184664055Y-98689498D01*
X184778223Y-98631326D01*
X184868826Y-98540723D01*
X184926998Y-98426555D01*
X184942000Y-98331834D01*
X184942000Y-97968166D01*
X184926998Y-97873445D01*
X184891446Y-97803670D01*
X184868826Y-97759276D01*
X184778223Y-97668673D01*
X184664053Y-97610501D01*
X184599336Y-97600251D01*
X184569334Y-97595500D01*
X184569332Y-97595500D01*
X183669563Y-97595500D01*
X183639647Y-97586716D01*
X183609178Y-97580088D01*
X183604082Y-97576273D01*
X183601442Y-97575498D01*
X183580468Y-97558595D01*
X183452905Y-97431032D01*
X183418879Y-97368720D01*
X183416000Y-97341937D01*
X183416000Y-96930500D01*
X183436002Y-96862379D01*
X183489658Y-96815886D01*
X183542000Y-96804500D01*
X184569332Y-96804500D01*
X184569334Y-96804500D01*
X184664055Y-96789498D01*
X184778223Y-96731326D01*
X184818370Y-96691178D01*
X184880679Y-96657155D01*
X184951495Y-96662219D01*
X184970464Y-96671156D01*
X185055270Y-96720119D01*
X185183581Y-96754500D01*
X185183583Y-96754500D01*
X185316417Y-96754500D01*
X185316419Y-96754500D01*
X185444730Y-96720119D01*
X185559770Y-96653700D01*
X185653700Y-96559770D01*
X185720119Y-96444730D01*
X185754500Y-96316419D01*
X185754500Y-96183581D01*
X185720119Y-96055270D01*
X185661164Y-95953158D01*
X185653702Y-95940233D01*
X185653694Y-95940223D01*
X185559776Y-95846305D01*
X185559766Y-95846297D01*
X185444730Y-95779881D01*
X185316419Y-95745500D01*
X185183581Y-95745500D01*
X185055270Y-95779881D01*
X184970463Y-95828844D01*
X184901468Y-95845581D01*
X184834376Y-95822360D01*
X184818369Y-95808819D01*
X184778223Y-95768673D01*
X184664053Y-95710501D01*
X184599336Y-95700251D01*
X184569334Y-95695500D01*
X184569332Y-95695500D01*
X184553500Y-95695500D01*
X184485379Y-95675498D01*
X184438886Y-95621842D01*
X184427500Y-95569500D01*
X184427500Y-95433582D01*
X184427500Y-95433581D01*
X184393119Y-95305270D01*
X184352470Y-95234865D01*
X184326702Y-95190233D01*
X184326694Y-95190223D01*
X184232776Y-95096305D01*
X184232766Y-95096297D01*
X184117730Y-95029881D01*
X184115980Y-95029412D01*
X183989419Y-94995500D01*
X183856581Y-94995500D01*
X183771040Y-95018420D01*
X183728269Y-95029881D01*
X183606078Y-95100429D01*
X183604535Y-95097757D01*
X183552004Y-95118064D01*
X183541527Y-95118500D01*
X183199775Y-95118500D01*
X183102746Y-95144499D01*
X183102745Y-95144499D01*
X183102743Y-95144500D01*
X183071931Y-95162289D01*
X183047630Y-95176320D01*
X183031691Y-95185522D01*
X183015754Y-95194723D01*
X183015750Y-95194726D01*
X182943496Y-95266981D01*
X182800253Y-95410224D01*
X182776896Y-95433581D01*
X182729225Y-95481251D01*
X182729221Y-95481256D01*
X182678999Y-95568244D01*
X182650901Y-95673105D01*
X182613949Y-95733728D01*
X182550089Y-95764749D01*
X182479594Y-95756319D01*
X182471993Y-95752760D01*
X182389055Y-95710501D01*
X182317118Y-95699108D01*
X182294334Y-95695500D01*
X181205666Y-95695500D01*
X181179766Y-95699602D01*
X181110946Y-95710501D01*
X180996776Y-95768673D01*
X180996774Y-95768675D01*
X180931855Y-95833595D01*
X180904486Y-95848539D01*
X180878258Y-95865396D01*
X180871959Y-95866301D01*
X180869543Y-95867621D01*
X180842760Y-95870500D01*
X180811182Y-95870500D01*
X180811166Y-95870499D01*
X180803448Y-95870499D01*
X180703524Y-95870499D01*
X180703520Y-95870499D01*
X180613959Y-95894497D01*
X180613960Y-95894498D01*
X180607001Y-95896362D01*
X180520470Y-95946321D01*
X180520465Y-95946325D01*
X180496203Y-95970588D01*
X180449810Y-96016981D01*
X180449808Y-96016983D01*
X175266983Y-101199808D01*
X175266981Y-101199810D01*
X175231653Y-101235138D01*
X175196325Y-101270465D01*
X175196321Y-101270470D01*
X175146361Y-101357005D01*
X175142068Y-101373028D01*
X175120499Y-101453520D01*
X175120499Y-101563598D01*
X175120500Y-101563611D01*
X175120500Y-101973990D01*
X175100498Y-102042111D01*
X175046842Y-102088604D01*
X174976568Y-102098708D01*
X174911988Y-102069214D01*
X174882233Y-102031193D01*
X174880483Y-102027758D01*
X174832929Y-101934428D01*
X174795151Y-101882430D01*
X174733091Y-101797011D01*
X174612988Y-101676908D01*
X174475574Y-101577072D01*
X174370941Y-101523759D01*
X174324231Y-101499959D01*
X174162690Y-101447471D01*
X173994927Y-101420900D01*
X173825073Y-101420900D01*
X173657310Y-101447471D01*
X173657307Y-101447471D01*
X173657306Y-101447472D01*
X173495769Y-101499959D01*
X173495767Y-101499960D01*
X173344425Y-101577072D01*
X173207011Y-101676908D01*
X173086908Y-101797011D01*
X172987072Y-101934425D01*
X172909960Y-102085767D01*
X172909959Y-102085769D01*
X172878178Y-102183582D01*
X172857471Y-102247310D01*
X172830900Y-102415073D01*
X172830900Y-102584927D01*
X172857471Y-102752690D01*
X172909959Y-102914231D01*
X172974302Y-103040512D01*
X172987072Y-103065574D01*
X173086908Y-103202988D01*
X173207011Y-103323091D01*
X173344425Y-103422927D01*
X173344428Y-103422929D01*
X173495769Y-103500041D01*
X173657310Y-103552529D01*
X173825073Y-103579100D01*
X173825076Y-103579100D01*
X173994924Y-103579100D01*
X173994927Y-103579100D01*
X174162690Y-103552529D01*
X174324231Y-103500041D01*
X174475572Y-103422929D01*
X174612987Y-103323092D01*
X174733092Y-103202987D01*
X174832929Y-103065572D01*
X174882234Y-102968804D01*
X174930981Y-102917191D01*
X174999896Y-102900125D01*
X175067098Y-102923026D01*
X175111250Y-102978623D01*
X175120500Y-103026009D01*
X175120500Y-108026787D01*
X175100498Y-108094908D01*
X175046842Y-108141401D01*
X174976568Y-108151505D01*
X174911988Y-108122011D01*
X174905405Y-108115882D01*
X173633037Y-106843514D01*
X173599011Y-106781202D01*
X173604076Y-106710387D01*
X173608928Y-106699095D01*
X173619461Y-106677550D01*
X173629500Y-106608646D01*
X173629500Y-106341354D01*
X173619461Y-106272450D01*
X173586651Y-106205337D01*
X173574703Y-106135356D01*
X173586650Y-106094664D01*
X173619461Y-106027550D01*
X173629500Y-105958646D01*
X173629500Y-105691354D01*
X173619461Y-105622450D01*
X173567499Y-105516160D01*
X173567498Y-105516158D01*
X173483841Y-105432501D01*
X173483839Y-105432500D01*
X173377552Y-105380540D01*
X173377550Y-105380539D01*
X173308647Y-105370500D01*
X173308646Y-105370500D01*
X172612466Y-105370500D01*
X172612462Y-105370499D01*
X172512538Y-105370499D01*
X172512534Y-105370500D01*
X171884079Y-105370500D01*
X171815958Y-105350498D01*
X171810984Y-105347000D01*
X171787715Y-105333565D01*
X171738723Y-105282181D01*
X171725289Y-105212468D01*
X171729008Y-105191852D01*
X171749500Y-105115374D01*
X171749500Y-98812442D01*
X171769502Y-98744321D01*
X171823158Y-98697828D01*
X171836566Y-98692608D01*
X171846138Y-98689498D01*
X171889947Y-98675264D01*
X172079913Y-98578472D01*
X172252397Y-98453154D01*
X172403154Y-98302397D01*
X172528472Y-98129913D01*
X172625264Y-97939947D01*
X172691147Y-97737179D01*
X172724500Y-97526601D01*
X172724500Y-97313399D01*
X172691147Y-97102821D01*
X172625264Y-96900053D01*
X172528472Y-96710087D01*
X172419264Y-96559776D01*
X172403152Y-96537600D01*
X172252399Y-96386847D01*
X172079916Y-96261530D01*
X172079915Y-96261529D01*
X172079913Y-96261528D01*
X171889947Y-96164736D01*
X171889944Y-96164735D01*
X171889942Y-96164734D01*
X171687183Y-96098854D01*
X171687181Y-96098853D01*
X171687179Y-96098853D01*
X171476601Y-96065500D01*
X171263399Y-96065500D01*
X171052821Y-96098853D01*
X171052819Y-96098853D01*
X171052816Y-96098854D01*
X170850057Y-96164734D01*
X170850051Y-96164737D01*
X170660083Y-96261530D01*
X170487600Y-96386847D01*
X170336847Y-96537600D01*
X170211530Y-96710083D01*
X170114737Y-96900051D01*
X170114734Y-96900057D01*
X170048854Y-97102816D01*
X170048853Y-97102819D01*
X170048853Y-97102821D01*
X170015500Y-97313399D01*
X170015500Y-97526601D01*
X170038003Y-97668674D01*
X170048854Y-97737183D01*
X170106223Y-97913749D01*
X170114736Y-97939947D01*
X170183012Y-98073946D01*
X170211530Y-98129916D01*
X170336847Y-98302399D01*
X170487600Y-98453152D01*
X170487603Y-98453154D01*
X170660087Y-98578472D01*
X170850053Y-98675264D01*
X170893862Y-98689498D01*
X170903434Y-98692608D01*
X170962041Y-98732681D01*
X170989678Y-98798077D01*
X170990500Y-98812442D01*
X170990500Y-101313656D01*
X170970498Y-101381777D01*
X170916842Y-101428270D01*
X170846568Y-101438374D01*
X170781988Y-101408880D01*
X170755381Y-101376656D01*
X170687408Y-101258924D01*
X170687403Y-101258917D01*
X170509529Y-101027107D01*
X170509510Y-101027086D01*
X170302913Y-100820489D01*
X170302892Y-100820470D01*
X170071082Y-100642596D01*
X170071075Y-100642591D01*
X169818033Y-100496497D01*
X169818025Y-100496493D01*
X169818021Y-100496491D01*
X169548058Y-100384669D01*
X169548055Y-100384668D01*
X169548053Y-100384667D01*
X169316226Y-100322549D01*
X169265809Y-100309040D01*
X169265807Y-100309039D01*
X169265801Y-100309038D01*
X168976105Y-100270900D01*
X168976103Y-100270900D01*
X168683897Y-100270900D01*
X168683894Y-100270900D01*
X168394198Y-100309038D01*
X168111946Y-100384667D01*
X168111942Y-100384669D01*
X167842465Y-100496290D01*
X167841977Y-100496492D01*
X167841966Y-100496497D01*
X167588924Y-100642591D01*
X167588917Y-100642596D01*
X167357107Y-100820470D01*
X167357086Y-100820489D01*
X167150489Y-101027086D01*
X167150470Y-101027107D01*
X167080862Y-101117823D01*
X167023524Y-101159690D01*
X166952653Y-101163912D01*
X166890750Y-101129148D01*
X166857469Y-101066435D01*
X166854900Y-101041119D01*
X166854900Y-99348770D01*
X166847261Y-99320260D01*
X166829038Y-99252249D01*
X166829036Y-99252246D01*
X166829036Y-99252244D01*
X166779078Y-99165715D01*
X166779070Y-99165705D01*
X166704030Y-99090665D01*
X166704007Y-99090644D01*
X162887533Y-95274170D01*
X162887521Y-95274156D01*
X162809694Y-95196329D01*
X162809684Y-95196321D01*
X162738985Y-95155504D01*
X162723151Y-95146362D01*
X162723150Y-95146361D01*
X162723149Y-95146361D01*
X162711790Y-95143317D01*
X162711785Y-95143316D01*
X162702753Y-95140896D01*
X162626631Y-95120499D01*
X162526707Y-95120499D01*
X162526703Y-95120500D01*
X161721325Y-95120500D01*
X161653204Y-95100498D01*
X161606711Y-95046842D01*
X161598702Y-95023475D01*
X161598360Y-95022029D01*
X161598360Y-95022027D01*
X161550175Y-94892837D01*
X161550173Y-94892835D01*
X161550173Y-94892833D01*
X161550172Y-94892832D01*
X161514949Y-94845781D01*
X161467544Y-94782456D01*
X161420137Y-94746967D01*
X161357167Y-94699827D01*
X161357166Y-94699826D01*
X161325929Y-94688175D01*
X161227973Y-94651640D01*
X161220834Y-94650872D01*
X161170871Y-94645500D01*
X161170864Y-94645500D01*
X160634384Y-94645500D01*
X160566263Y-94625498D01*
X160545289Y-94608595D01*
X160284864Y-94348170D01*
X160284852Y-94348156D01*
X160207025Y-94270329D01*
X160207015Y-94270321D01*
X160136316Y-94229504D01*
X160120482Y-94220362D01*
X160120481Y-94220361D01*
X160120480Y-94220361D01*
X160109121Y-94217317D01*
X160109116Y-94217316D01*
X160100084Y-94214896D01*
X160023962Y-94194499D01*
X159924038Y-94194499D01*
X159924034Y-94194500D01*
X142383696Y-94194500D01*
X142383680Y-94194499D01*
X142375962Y-94194499D01*
X142276038Y-94194499D01*
X142243866Y-94203119D01*
X142199916Y-94214895D01*
X142199915Y-94214896D01*
X142179518Y-94220362D01*
X142179517Y-94220362D01*
X142179515Y-94220363D01*
X142179514Y-94220363D01*
X142092984Y-94270321D01*
X142092979Y-94270325D01*
X142058281Y-94305024D01*
X142022324Y-94340981D01*
X141754710Y-94608595D01*
X141692398Y-94642621D01*
X141665615Y-94645500D01*
X141134384Y-94645500D01*
X141066263Y-94625498D01*
X141045289Y-94608595D01*
X140784864Y-94348170D01*
X140784852Y-94348156D01*
X140707025Y-94270329D01*
X140707015Y-94270321D01*
X140636316Y-94229504D01*
X140620482Y-94220362D01*
X140620481Y-94220361D01*
X140620480Y-94220361D01*
X140609121Y-94217317D01*
X140609116Y-94217316D01*
X140600084Y-94214896D01*
X140523962Y-94194499D01*
X140424038Y-94194499D01*
X140424034Y-94194500D01*
X122883696Y-94194500D01*
X122883680Y-94194499D01*
X122875962Y-94194499D01*
X122776038Y-94194499D01*
X122743866Y-94203119D01*
X122699916Y-94214895D01*
X122699915Y-94214896D01*
X122679518Y-94220362D01*
X122679517Y-94220362D01*
X122679515Y-94220363D01*
X122679514Y-94220363D01*
X122592984Y-94270321D01*
X122592979Y-94270325D01*
X122558281Y-94305024D01*
X122522324Y-94340981D01*
X122254710Y-94608595D01*
X122192398Y-94642621D01*
X122165615Y-94645500D01*
X121629128Y-94645500D01*
X121572027Y-94651640D01*
X121442833Y-94699826D01*
X121442832Y-94699827D01*
X121332456Y-94782456D01*
X121249827Y-94892832D01*
X121249826Y-94892833D01*
X121201640Y-95022027D01*
X121195500Y-95079128D01*
X121195500Y-95920871D01*
X121201640Y-95977972D01*
X121249826Y-96107166D01*
X121249827Y-96107167D01*
X121292924Y-96164736D01*
X121332456Y-96217544D01*
X121391211Y-96261528D01*
X121442832Y-96300172D01*
X121442833Y-96300173D01*
X121442835Y-96300173D01*
X121442837Y-96300175D01*
X121572027Y-96348360D01*
X121629136Y-96354500D01*
X121629141Y-96354500D01*
X122170859Y-96354500D01*
X122170864Y-96354500D01*
X122227973Y-96348360D01*
X122357163Y-96300175D01*
X122467544Y-96217544D01*
X122550175Y-96107163D01*
X122598360Y-95977973D01*
X122604500Y-95920864D01*
X122604500Y-95384384D01*
X122624502Y-95316263D01*
X122641405Y-95295289D01*
X122946289Y-94990405D01*
X123008601Y-94956379D01*
X123035384Y-94953500D01*
X137269500Y-94953500D01*
X137278325Y-94956091D01*
X137287432Y-94954782D01*
X137311857Y-94965937D01*
X137337621Y-94973502D01*
X137343645Y-94980455D01*
X137352012Y-94984276D01*
X137366526Y-95006861D01*
X137384114Y-95027158D01*
X137386438Y-95037844D01*
X137390396Y-95044002D01*
X137395500Y-95079500D01*
X137395500Y-95244500D01*
X137375498Y-95312621D01*
X137321842Y-95359114D01*
X137269500Y-95370500D01*
X130287696Y-95370500D01*
X130287680Y-95370499D01*
X130279962Y-95370499D01*
X130180038Y-95370499D01*
X130147866Y-95379119D01*
X130103916Y-95390895D01*
X130103915Y-95390896D01*
X130083518Y-95396362D01*
X130083517Y-95396362D01*
X130083515Y-95396363D01*
X130083514Y-95396363D01*
X129996984Y-95446321D01*
X129996979Y-95446325D01*
X129962054Y-95481251D01*
X129926324Y-95516981D01*
X129926322Y-95516983D01*
X126736257Y-98707047D01*
X126673945Y-98741073D01*
X126603129Y-98736008D01*
X126589966Y-98730222D01*
X126539947Y-98704736D01*
X126539944Y-98704735D01*
X126539942Y-98704734D01*
X126337183Y-98638854D01*
X126337181Y-98638853D01*
X126337179Y-98638853D01*
X126126601Y-98605500D01*
X125913399Y-98605500D01*
X125702821Y-98638853D01*
X125702819Y-98638853D01*
X125702816Y-98638854D01*
X125500057Y-98704734D01*
X125500051Y-98704737D01*
X125310083Y-98801530D01*
X125137600Y-98926847D01*
X124986847Y-99077600D01*
X124861530Y-99250083D01*
X124764737Y-99440051D01*
X124764734Y-99440057D01*
X124698854Y-99642816D01*
X124698853Y-99642819D01*
X124698853Y-99642821D01*
X124665500Y-99853399D01*
X124665500Y-100066601D01*
X124698853Y-100277179D01*
X124698854Y-100277183D01*
X124733777Y-100384667D01*
X124764736Y-100479947D01*
X124861528Y-100669913D01*
X124861530Y-100669916D01*
X124986847Y-100842399D01*
X125137600Y-100993152D01*
X125184306Y-101027086D01*
X125310087Y-101118472D01*
X125500053Y-101215264D01*
X125702821Y-101281147D01*
X125913399Y-101314500D01*
X125913402Y-101314500D01*
X126126598Y-101314500D01*
X126126601Y-101314500D01*
X126337179Y-101281147D01*
X126539947Y-101215264D01*
X126729913Y-101118472D01*
X126902397Y-100993154D01*
X127053154Y-100842397D01*
X127178472Y-100669913D01*
X127275264Y-100479947D01*
X127341147Y-100277179D01*
X127374500Y-100066601D01*
X127374500Y-99853399D01*
X127341147Y-99642821D01*
X127275264Y-99440053D01*
X127271966Y-99433581D01*
X127249780Y-99390037D01*
X127236676Y-99320260D01*
X127263377Y-99254476D01*
X127272943Y-99243749D01*
X130350289Y-96166405D01*
X130412601Y-96132379D01*
X130439384Y-96129500D01*
X131454021Y-96129500D01*
X131522142Y-96149502D01*
X131568635Y-96203158D01*
X131578739Y-96273432D01*
X131549245Y-96338012D01*
X131528086Y-96357432D01*
X131492102Y-96383576D01*
X131487596Y-96386851D01*
X131336847Y-96537600D01*
X131211530Y-96710083D01*
X131114737Y-96900051D01*
X131114734Y-96900057D01*
X131048854Y-97102816D01*
X131048853Y-97102819D01*
X131048853Y-97102821D01*
X131015500Y-97313399D01*
X131015500Y-97526601D01*
X131038003Y-97668674D01*
X131048854Y-97737183D01*
X131106223Y-97913749D01*
X131114736Y-97939947D01*
X131183012Y-98073946D01*
X131211530Y-98129916D01*
X131336847Y-98302399D01*
X131487600Y-98453152D01*
X131487603Y-98453154D01*
X131660087Y-98578472D01*
X131850053Y-98675264D01*
X132052821Y-98741147D01*
X132263399Y-98774500D01*
X132263402Y-98774500D01*
X132476598Y-98774500D01*
X132476601Y-98774500D01*
X132687179Y-98741147D01*
X132889947Y-98675264D01*
X132939959Y-98649780D01*
X133009736Y-98636676D01*
X133075521Y-98663376D01*
X133086258Y-98672952D01*
X145493711Y-111080405D01*
X145527737Y-111142717D01*
X145522672Y-111213532D01*
X145480125Y-111270368D01*
X145413605Y-111295179D01*
X145404616Y-111295500D01*
X127384384Y-111295500D01*
X127316263Y-111275498D01*
X127295289Y-111258595D01*
X126603111Y-110566417D01*
X133245499Y-110566417D01*
X133279881Y-110694730D01*
X133346297Y-110809766D01*
X133346305Y-110809776D01*
X133440223Y-110903694D01*
X133440228Y-110903698D01*
X133440230Y-110903700D01*
X133555270Y-110970119D01*
X133683581Y-111004500D01*
X133683583Y-111004500D01*
X133816417Y-111004500D01*
X133816419Y-111004500D01*
X133944730Y-110970119D01*
X134059770Y-110903700D01*
X134153700Y-110809770D01*
X134220119Y-110694730D01*
X134254500Y-110566419D01*
X134254500Y-110433581D01*
X134220119Y-110305270D01*
X134179470Y-110234865D01*
X134153702Y-110190233D01*
X134153694Y-110190223D01*
X134059776Y-110096305D01*
X134059766Y-110096297D01*
X133944730Y-110029881D01*
X133940233Y-110028676D01*
X133816419Y-109995500D01*
X133683581Y-109995500D01*
X133603413Y-110016981D01*
X133555269Y-110029881D01*
X133440233Y-110096297D01*
X133440223Y-110096305D01*
X133346305Y-110190223D01*
X133346297Y-110190233D01*
X133279881Y-110305269D01*
X133245500Y-110433582D01*
X133245500Y-110566417D01*
X133245499Y-110566417D01*
X126603111Y-110566417D01*
X120853111Y-104816417D01*
X132245499Y-104816417D01*
X132279881Y-104944730D01*
X132346297Y-105059766D01*
X132346305Y-105059776D01*
X132440223Y-105153694D01*
X132440228Y-105153698D01*
X132440230Y-105153700D01*
X132555270Y-105220119D01*
X132683581Y-105254500D01*
X132683583Y-105254500D01*
X132816417Y-105254500D01*
X132816419Y-105254500D01*
X132944730Y-105220119D01*
X133059770Y-105153700D01*
X133153700Y-105059770D01*
X133220119Y-104944730D01*
X133254500Y-104816419D01*
X133254500Y-104683581D01*
X133220119Y-104555270D01*
X133179470Y-104484865D01*
X133153702Y-104440233D01*
X133153694Y-104440223D01*
X133059776Y-104346305D01*
X133059766Y-104346297D01*
X132944730Y-104279881D01*
X132816419Y-104245500D01*
X132683581Y-104245500D01*
X132598040Y-104268420D01*
X132555269Y-104279881D01*
X132440233Y-104346297D01*
X132440223Y-104346305D01*
X132346305Y-104440223D01*
X132346297Y-104440233D01*
X132279881Y-104555269D01*
X132245500Y-104683582D01*
X132245500Y-104816417D01*
X132245499Y-104816417D01*
X120853111Y-104816417D01*
X118451767Y-102415073D01*
X123670900Y-102415073D01*
X123670900Y-102584927D01*
X123697471Y-102752690D01*
X123749959Y-102914231D01*
X123814302Y-103040512D01*
X123827072Y-103065574D01*
X123926908Y-103202988D01*
X124047011Y-103323091D01*
X124184425Y-103422927D01*
X124184428Y-103422929D01*
X124335769Y-103500041D01*
X124497310Y-103552529D01*
X124665073Y-103579100D01*
X124665076Y-103579100D01*
X124834924Y-103579100D01*
X124834927Y-103579100D01*
X125002690Y-103552529D01*
X125164231Y-103500041D01*
X125315572Y-103422929D01*
X125452987Y-103323092D01*
X125573092Y-103202987D01*
X125672929Y-103065572D01*
X125750041Y-102914231D01*
X125802529Y-102752690D01*
X125829100Y-102584927D01*
X125829100Y-102415073D01*
X125819410Y-102353894D01*
X127600900Y-102353894D01*
X127600900Y-102646105D01*
X127639038Y-102935801D01*
X127714667Y-103218053D01*
X127714668Y-103218055D01*
X127714669Y-103218058D01*
X127826491Y-103488021D01*
X127826492Y-103488022D01*
X127826497Y-103488033D01*
X127972591Y-103741075D01*
X127972596Y-103741082D01*
X128150470Y-103972892D01*
X128150489Y-103972913D01*
X128357086Y-104179510D01*
X128357107Y-104179529D01*
X128588917Y-104357403D01*
X128588924Y-104357408D01*
X128841966Y-104503502D01*
X128841970Y-104503503D01*
X128841979Y-104503509D01*
X129111942Y-104615331D01*
X129394191Y-104690960D01*
X129394197Y-104690960D01*
X129394198Y-104690961D01*
X129427446Y-104695338D01*
X129683897Y-104729100D01*
X129683904Y-104729100D01*
X129976096Y-104729100D01*
X129976103Y-104729100D01*
X130265809Y-104690960D01*
X130548058Y-104615331D01*
X130818021Y-104503509D01*
X131071079Y-104357406D01*
X131302901Y-104179522D01*
X131509522Y-103972901D01*
X131687406Y-103741079D01*
X131833509Y-103488021D01*
X131945331Y-103218058D01*
X132020960Y-102935809D01*
X132059100Y-102646103D01*
X132059100Y-102415073D01*
X133830900Y-102415073D01*
X133830900Y-102584927D01*
X133857471Y-102752690D01*
X133909959Y-102914231D01*
X133974302Y-103040512D01*
X133987072Y-103065574D01*
X134086908Y-103202988D01*
X134207011Y-103323091D01*
X134344425Y-103422927D01*
X134344428Y-103422929D01*
X134495769Y-103500041D01*
X134657310Y-103552529D01*
X134825073Y-103579100D01*
X134825076Y-103579100D01*
X134994924Y-103579100D01*
X134994927Y-103579100D01*
X135162690Y-103552529D01*
X135324231Y-103500041D01*
X135475572Y-103422929D01*
X135612987Y-103323092D01*
X135733092Y-103202987D01*
X135832929Y-103065572D01*
X135910041Y-102914231D01*
X135962529Y-102752690D01*
X135989100Y-102584927D01*
X135989100Y-102415073D01*
X135962529Y-102247310D01*
X135910041Y-102085769D01*
X135832929Y-101934428D01*
X135795151Y-101882430D01*
X135733091Y-101797011D01*
X135612988Y-101676908D01*
X135475574Y-101577072D01*
X135370941Y-101523759D01*
X135324231Y-101499959D01*
X135162690Y-101447471D01*
X134994927Y-101420900D01*
X134825073Y-101420900D01*
X134657310Y-101447471D01*
X134657307Y-101447471D01*
X134657306Y-101447472D01*
X134495769Y-101499959D01*
X134495767Y-101499960D01*
X134344425Y-101577072D01*
X134207011Y-101676908D01*
X134086908Y-101797011D01*
X133987072Y-101934425D01*
X133909960Y-102085767D01*
X133909959Y-102085769D01*
X133878178Y-102183582D01*
X133857471Y-102247310D01*
X133830900Y-102415073D01*
X132059100Y-102415073D01*
X132059100Y-102353897D01*
X132023801Y-102085769D01*
X132020961Y-102064198D01*
X132020960Y-102064197D01*
X132020960Y-102064191D01*
X131945331Y-101781942D01*
X131833509Y-101511979D01*
X131833503Y-101511970D01*
X131833502Y-101511966D01*
X131687408Y-101258924D01*
X131687403Y-101258917D01*
X131509529Y-101027107D01*
X131509510Y-101027086D01*
X131302913Y-100820489D01*
X131302892Y-100820470D01*
X131071082Y-100642596D01*
X131071075Y-100642591D01*
X130818033Y-100496497D01*
X130818025Y-100496493D01*
X130818021Y-100496491D01*
X130548058Y-100384669D01*
X130548055Y-100384668D01*
X130548053Y-100384667D01*
X130316226Y-100322549D01*
X130265809Y-100309040D01*
X130265807Y-100309039D01*
X130265801Y-100309038D01*
X129976105Y-100270900D01*
X129976103Y-100270900D01*
X129683897Y-100270900D01*
X129683894Y-100270900D01*
X129394198Y-100309038D01*
X129111946Y-100384667D01*
X129111942Y-100384669D01*
X128842465Y-100496290D01*
X128841977Y-100496492D01*
X128841966Y-100496497D01*
X128588924Y-100642591D01*
X128588917Y-100642596D01*
X128357107Y-100820470D01*
X128357086Y-100820489D01*
X128150489Y-101027086D01*
X128150470Y-101027107D01*
X127972596Y-101258917D01*
X127972591Y-101258924D01*
X127826497Y-101511966D01*
X127826492Y-101511977D01*
X127826491Y-101511979D01*
X127768593Y-101651757D01*
X127714669Y-101781942D01*
X127714667Y-101781946D01*
X127639038Y-102064198D01*
X127600900Y-102353894D01*
X125819410Y-102353894D01*
X125802529Y-102247310D01*
X125750041Y-102085769D01*
X125672929Y-101934428D01*
X125635151Y-101882430D01*
X125573091Y-101797011D01*
X125452988Y-101676908D01*
X125315574Y-101577072D01*
X125210941Y-101523759D01*
X125164231Y-101499959D01*
X125002690Y-101447471D01*
X124834927Y-101420900D01*
X124665073Y-101420900D01*
X124497310Y-101447471D01*
X124497307Y-101447471D01*
X124497306Y-101447472D01*
X124335769Y-101499959D01*
X124335767Y-101499960D01*
X124184425Y-101577072D01*
X124047011Y-101676908D01*
X123926908Y-101797011D01*
X123827072Y-101934425D01*
X123749960Y-102085767D01*
X123749959Y-102085769D01*
X123718178Y-102183582D01*
X123697471Y-102247310D01*
X123670900Y-102415073D01*
X118451767Y-102415073D01*
X115603111Y-99566417D01*
X121245499Y-99566417D01*
X121279881Y-99694730D01*
X121346297Y-99809766D01*
X121346305Y-99809776D01*
X121440223Y-99903694D01*
X121440228Y-99903698D01*
X121440230Y-99903700D01*
X121440231Y-99903701D01*
X121440233Y-99903702D01*
X121469971Y-99920871D01*
X121555270Y-99970119D01*
X121683581Y-100004500D01*
X121683583Y-100004500D01*
X121816417Y-100004500D01*
X121816419Y-100004500D01*
X121944730Y-99970119D01*
X122059770Y-99903700D01*
X122153700Y-99809770D01*
X122220119Y-99694730D01*
X122254500Y-99566419D01*
X122254500Y-99433581D01*
X122220119Y-99305270D01*
X122179470Y-99234865D01*
X122153702Y-99190233D01*
X122153694Y-99190223D01*
X122059776Y-99096305D01*
X122059766Y-99096297D01*
X121944730Y-99029881D01*
X121937191Y-99027861D01*
X121816419Y-98995500D01*
X121683581Y-98995500D01*
X121598040Y-99018420D01*
X121555269Y-99029881D01*
X121440233Y-99096297D01*
X121440223Y-99096305D01*
X121346305Y-99190223D01*
X121346297Y-99190233D01*
X121279881Y-99305269D01*
X121245500Y-99433582D01*
X121245500Y-99566417D01*
X121245499Y-99566417D01*
X115603111Y-99566417D01*
X114139829Y-98103135D01*
X114105803Y-98040823D01*
X114110868Y-97970008D01*
X114116660Y-97956833D01*
X114125259Y-97939957D01*
X114125263Y-97939948D01*
X114125264Y-97939947D01*
X114191147Y-97737179D01*
X114224500Y-97526601D01*
X114224500Y-97313399D01*
X114191147Y-97102821D01*
X114125264Y-96900053D01*
X114028472Y-96710087D01*
X113919264Y-96559776D01*
X113903152Y-96537600D01*
X113752399Y-96386847D01*
X113579916Y-96261530D01*
X113579915Y-96261529D01*
X113579913Y-96261528D01*
X113389947Y-96164736D01*
X113389944Y-96164735D01*
X113389942Y-96164734D01*
X113268677Y-96125333D01*
X113210071Y-96085259D01*
X113182434Y-96019863D01*
X113194541Y-95949906D01*
X113242547Y-95897600D01*
X113307613Y-95879500D01*
X117778675Y-95879500D01*
X117846796Y-95899502D01*
X117893289Y-95953158D01*
X117901298Y-95976525D01*
X117901639Y-95977970D01*
X117949826Y-96107166D01*
X117949827Y-96107167D01*
X117992924Y-96164736D01*
X118032456Y-96217544D01*
X118091211Y-96261528D01*
X118142832Y-96300172D01*
X118142833Y-96300173D01*
X118142835Y-96300173D01*
X118142837Y-96300175D01*
X118272027Y-96348360D01*
X118329136Y-96354500D01*
X118329141Y-96354500D01*
X118870859Y-96354500D01*
X118870864Y-96354500D01*
X118927973Y-96348360D01*
X119057163Y-96300175D01*
X119167544Y-96217544D01*
X119250175Y-96107163D01*
X119298360Y-95977973D01*
X119304500Y-95920864D01*
X119304500Y-95079136D01*
X119298360Y-95022027D01*
X119250175Y-94892837D01*
X119250173Y-94892835D01*
X119250173Y-94892833D01*
X119250172Y-94892832D01*
X119214949Y-94845781D01*
X119167544Y-94782456D01*
X119120137Y-94746967D01*
X119057167Y-94699827D01*
X119057166Y-94699826D01*
X119025929Y-94688175D01*
X118927973Y-94651640D01*
X118920834Y-94650872D01*
X118870871Y-94645500D01*
X118870864Y-94645500D01*
X118329136Y-94645500D01*
X118329128Y-94645500D01*
X118272027Y-94651640D01*
X118142833Y-94699826D01*
X118142832Y-94699827D01*
X118032456Y-94782456D01*
X117949827Y-94892832D01*
X117949826Y-94892833D01*
X117901639Y-95022029D01*
X117901298Y-95023475D01*
X117900725Y-95024481D01*
X117898886Y-95029412D01*
X117898087Y-95029114D01*
X117866167Y-95085171D01*
X117803258Y-95118079D01*
X117778675Y-95120500D01*
X110930038Y-95120500D01*
X110870963Y-95136328D01*
X110833513Y-95146363D01*
X110746984Y-95196321D01*
X110746979Y-95196325D01*
X110711652Y-95231653D01*
X110676324Y-95266981D01*
X110676322Y-95266983D01*
X107236257Y-98707047D01*
X107173945Y-98741073D01*
X107103129Y-98736008D01*
X107089966Y-98730222D01*
X107039947Y-98704736D01*
X107039944Y-98704735D01*
X107039942Y-98704734D01*
X106837183Y-98638854D01*
X106837181Y-98638853D01*
X106837179Y-98638853D01*
X106626601Y-98605500D01*
X106413399Y-98605500D01*
X106202821Y-98638853D01*
X106202819Y-98638853D01*
X106202816Y-98638854D01*
X106000057Y-98704734D01*
X106000051Y-98704737D01*
X105810083Y-98801530D01*
X105637600Y-98926847D01*
X105486847Y-99077600D01*
X105361530Y-99250083D01*
X105264737Y-99440051D01*
X105264734Y-99440057D01*
X105198854Y-99642816D01*
X105198853Y-99642819D01*
X105198853Y-99642821D01*
X105165500Y-99853399D01*
X100652900Y-99853399D01*
X100652900Y-92405735D01*
X179676000Y-92405735D01*
X179676000Y-92903000D01*
X180130000Y-92903000D01*
X180130000Y-93157000D01*
X179676000Y-93157000D01*
X179676000Y-93654264D01*
X179704976Y-93799934D01*
X179704978Y-93799939D01*
X179761814Y-93937152D01*
X179844327Y-94060642D01*
X179844332Y-94060649D01*
X179949350Y-94165667D01*
X179949357Y-94165672D01*
X180072847Y-94248185D01*
X180210067Y-94305024D01*
X180210070Y-94305025D01*
X180302999Y-94323509D01*
X180303000Y-94323509D01*
X180303000Y-93853087D01*
X180314204Y-93859556D01*
X180390504Y-93880000D01*
X180469496Y-93880000D01*
X180545796Y-93859556D01*
X180557000Y-93853087D01*
X180557000Y-94323509D01*
X180649929Y-94305025D01*
X180649932Y-94305024D01*
X180787152Y-94248185D01*
X180910642Y-94165672D01*
X180910649Y-94165667D01*
X181015667Y-94060649D01*
X181015672Y-94060642D01*
X181098185Y-93937152D01*
X181155021Y-93799939D01*
X181155023Y-93799934D01*
X181183999Y-93654264D01*
X181184000Y-93654260D01*
X181184000Y-93157000D01*
X180730000Y-93157000D01*
X180730000Y-92903000D01*
X181184001Y-92903000D01*
X181185899Y-92901101D01*
X181204002Y-92839450D01*
X181257658Y-92792957D01*
X181327932Y-92782853D01*
X181392512Y-92812347D01*
X181410687Y-92834359D01*
X181411583Y-92833673D01*
X181416615Y-92840231D01*
X181519768Y-92943384D01*
X181519773Y-92943388D01*
X181519775Y-92943390D01*
X181646126Y-93016339D01*
X181787051Y-93054100D01*
X181787053Y-93054100D01*
X181932947Y-93054100D01*
X181932949Y-93054100D01*
X182073874Y-93016339D01*
X182200225Y-92943390D01*
X182303390Y-92840225D01*
X182376339Y-92713874D01*
X182414100Y-92572949D01*
X182414100Y-92572947D01*
X187085899Y-92572947D01*
X187123660Y-92713871D01*
X187123663Y-92713878D01*
X187196607Y-92840221D01*
X187196615Y-92840231D01*
X187299768Y-92943384D01*
X187299773Y-92943388D01*
X187299775Y-92943390D01*
X187426126Y-93016339D01*
X187567051Y-93054100D01*
X187567053Y-93054100D01*
X187712947Y-93054100D01*
X187712949Y-93054100D01*
X187853874Y-93016339D01*
X187980225Y-92943390D01*
X188083390Y-92840225D01*
X188083394Y-92840217D01*
X188088417Y-92833673D01*
X188089611Y-92834589D01*
X188108651Y-92818090D01*
X188132262Y-92795578D01*
X188135311Y-92794990D01*
X188137658Y-92792957D01*
X188169945Y-92788314D01*
X188201976Y-92782141D01*
X188204858Y-92783294D01*
X188207932Y-92782853D01*
X188237595Y-92796400D01*
X188267887Y-92808527D01*
X188269689Y-92811057D01*
X188272512Y-92812347D01*
X188290138Y-92839774D01*
X188309070Y-92866359D01*
X188309724Y-92870249D01*
X188310896Y-92872073D01*
X188315232Y-92902233D01*
X188315999Y-92903000D01*
X188770000Y-92903000D01*
X188770000Y-93157000D01*
X188316000Y-93157000D01*
X188316000Y-93654264D01*
X188344976Y-93799934D01*
X188344978Y-93799939D01*
X188401814Y-93937152D01*
X188484327Y-94060642D01*
X188484332Y-94060649D01*
X188589350Y-94165667D01*
X188589357Y-94165672D01*
X188712847Y-94248185D01*
X188850067Y-94305024D01*
X188850070Y-94305025D01*
X188942999Y-94323509D01*
X188943000Y-94323509D01*
X188943000Y-93853087D01*
X188954204Y-93859556D01*
X189030504Y-93880000D01*
X189109496Y-93880000D01*
X189185796Y-93859556D01*
X189197000Y-93853087D01*
X189197000Y-94323509D01*
X189289929Y-94305025D01*
X189289932Y-94305024D01*
X189427152Y-94248185D01*
X189550642Y-94165672D01*
X189550649Y-94165667D01*
X189655667Y-94060649D01*
X189655672Y-94060642D01*
X189738185Y-93937152D01*
X189795021Y-93799939D01*
X189795023Y-93799934D01*
X189823999Y-93654264D01*
X189824000Y-93654260D01*
X189824000Y-93157000D01*
X189370000Y-93157000D01*
X189370000Y-92903000D01*
X189824000Y-92903000D01*
X189824000Y-92405739D01*
X189823999Y-92405735D01*
X189795023Y-92260065D01*
X189795021Y-92260060D01*
X189738185Y-92122847D01*
X189655672Y-91999357D01*
X189655667Y-91999350D01*
X189550649Y-91894332D01*
X189550642Y-91894327D01*
X189427152Y-91811814D01*
X189289937Y-91754977D01*
X189289934Y-91754976D01*
X189197000Y-91736490D01*
X189197000Y-92206912D01*
X189185796Y-92200444D01*
X189109496Y-92180000D01*
X189030504Y-92180000D01*
X188954204Y-92200444D01*
X188943000Y-92206912D01*
X188943000Y-91736490D01*
X188850065Y-91754976D01*
X188850062Y-91754977D01*
X188712847Y-91811814D01*
X188589357Y-91894327D01*
X188589350Y-91894332D01*
X188484332Y-91999350D01*
X188484327Y-91999357D01*
X188401813Y-92122847D01*
X188401811Y-92122852D01*
X188357665Y-92229428D01*
X188313117Y-92284709D01*
X188245753Y-92307129D01*
X188176962Y-92289570D01*
X188132138Y-92244209D01*
X188083392Y-92159778D01*
X188083391Y-92159776D01*
X188083390Y-92159775D01*
X188083388Y-92159773D01*
X188083384Y-92159768D01*
X187980231Y-92056615D01*
X187980221Y-92056607D01*
X187853878Y-91983663D01*
X187853875Y-91983662D01*
X187853874Y-91983661D01*
X187853872Y-91983660D01*
X187853871Y-91983660D01*
X187816111Y-91973542D01*
X187712949Y-91945900D01*
X187567051Y-91945900D01*
X187491531Y-91966135D01*
X187426128Y-91983660D01*
X187426121Y-91983663D01*
X187299778Y-92056607D01*
X187299768Y-92056615D01*
X187196615Y-92159768D01*
X187196607Y-92159778D01*
X187123663Y-92286121D01*
X187123660Y-92286128D01*
X187085900Y-92427052D01*
X187085900Y-92572947D01*
X187085899Y-92572947D01*
X182414100Y-92572947D01*
X182414100Y-92427051D01*
X182376339Y-92286126D01*
X182303390Y-92159775D01*
X182303388Y-92159773D01*
X182303384Y-92159768D01*
X182200231Y-92056615D01*
X182200221Y-92056607D01*
X182073878Y-91983663D01*
X182073875Y-91983662D01*
X182073874Y-91983661D01*
X182073872Y-91983660D01*
X182073871Y-91983660D01*
X182036111Y-91973542D01*
X181932949Y-91945900D01*
X181787051Y-91945900D01*
X181711531Y-91966135D01*
X181646128Y-91983660D01*
X181646121Y-91983663D01*
X181519778Y-92056607D01*
X181519768Y-92056615D01*
X181416615Y-92159768D01*
X181416609Y-92159776D01*
X181367861Y-92244210D01*
X181316478Y-92293203D01*
X181246764Y-92306638D01*
X181180853Y-92280251D01*
X181142333Y-92229427D01*
X181098185Y-92122847D01*
X181015672Y-91999357D01*
X181015667Y-91999350D01*
X180910649Y-91894332D01*
X180910642Y-91894327D01*
X180787152Y-91811814D01*
X180649937Y-91754977D01*
X180649934Y-91754976D01*
X180557000Y-91736490D01*
X180557000Y-92206912D01*
X180545796Y-92200444D01*
X180469496Y-92180000D01*
X180390504Y-92180000D01*
X180314204Y-92200444D01*
X180303000Y-92206912D01*
X180303000Y-91736490D01*
X180210065Y-91754976D01*
X180210062Y-91754977D01*
X180072847Y-91811814D01*
X179949357Y-91894327D01*
X179949350Y-91894332D01*
X179844332Y-91999350D01*
X179844327Y-91999357D01*
X179761814Y-92122847D01*
X179704978Y-92260060D01*
X179704976Y-92260065D01*
X179676000Y-92405735D01*
X100652900Y-92405735D01*
X100652900Y-89895398D01*
X101670900Y-89895398D01*
X101670900Y-90104602D01*
X101703627Y-90311232D01*
X101703628Y-90311237D01*
X101768273Y-90510193D01*
X101768274Y-90510194D01*
X101768275Y-90510197D01*
X101796922Y-90566419D01*
X101863253Y-90696602D01*
X101986219Y-90865852D01*
X102134147Y-91013780D01*
X102197456Y-91059776D01*
X102303400Y-91136748D01*
X102489803Y-91231725D01*
X102688768Y-91296373D01*
X102895398Y-91329100D01*
X102895401Y-91329100D01*
X103104599Y-91329100D01*
X103104602Y-91329100D01*
X103311232Y-91296373D01*
X103510197Y-91231725D01*
X103696600Y-91136748D01*
X103865851Y-91013781D01*
X104013781Y-90865851D01*
X104049697Y-90816417D01*
X113745499Y-90816417D01*
X113779881Y-90944730D01*
X113846297Y-91059766D01*
X113846305Y-91059776D01*
X113940223Y-91153694D01*
X113940228Y-91153698D01*
X113940230Y-91153700D01*
X114055270Y-91220119D01*
X114183581Y-91254500D01*
X114183583Y-91254500D01*
X114316417Y-91254500D01*
X114316419Y-91254500D01*
X114444730Y-91220119D01*
X114559770Y-91153700D01*
X114653700Y-91059770D01*
X114720119Y-90944730D01*
X114754500Y-90816419D01*
X114754500Y-90683581D01*
X114723106Y-90566417D01*
X130495499Y-90566417D01*
X130529881Y-90694730D01*
X130596297Y-90809766D01*
X130596305Y-90809776D01*
X130690223Y-90903694D01*
X130690228Y-90903698D01*
X130690230Y-90903700D01*
X130805270Y-90970119D01*
X130933581Y-91004500D01*
X130933583Y-91004500D01*
X131066417Y-91004500D01*
X131066419Y-91004500D01*
X131194730Y-90970119D01*
X131309770Y-90903700D01*
X131403700Y-90809770D01*
X131470119Y-90694730D01*
X131504500Y-90566419D01*
X131504500Y-90566417D01*
X159495499Y-90566417D01*
X159529881Y-90694730D01*
X159596297Y-90809766D01*
X159596305Y-90809776D01*
X159690223Y-90903694D01*
X159690228Y-90903698D01*
X159690230Y-90903700D01*
X159805270Y-90970119D01*
X159933581Y-91004500D01*
X159933583Y-91004500D01*
X160066417Y-91004500D01*
X160066419Y-91004500D01*
X160194730Y-90970119D01*
X160309770Y-90903700D01*
X160403700Y-90809770D01*
X160470119Y-90694730D01*
X160504500Y-90566419D01*
X160504500Y-90433581D01*
X160470119Y-90305270D01*
X160403700Y-90190230D01*
X160403698Y-90190228D01*
X160403694Y-90190223D01*
X160309776Y-90096305D01*
X160309766Y-90096297D01*
X160194730Y-90029881D01*
X160066419Y-89995500D01*
X159933581Y-89995500D01*
X159848040Y-90018420D01*
X159805269Y-90029881D01*
X159690233Y-90096297D01*
X159690223Y-90096305D01*
X159596305Y-90190223D01*
X159596297Y-90190233D01*
X159529881Y-90305269D01*
X159495500Y-90433582D01*
X159495500Y-90566417D01*
X159495499Y-90566417D01*
X131504500Y-90566417D01*
X131504500Y-90433581D01*
X131470119Y-90305270D01*
X131403700Y-90190230D01*
X131403698Y-90190228D01*
X131403694Y-90190223D01*
X131309776Y-90096305D01*
X131309766Y-90096297D01*
X131258012Y-90066417D01*
X146995499Y-90066417D01*
X147029881Y-90194730D01*
X147096297Y-90309766D01*
X147096305Y-90309776D01*
X147190223Y-90403694D01*
X147190228Y-90403698D01*
X147190230Y-90403700D01*
X147305270Y-90470119D01*
X147433581Y-90504500D01*
X147433583Y-90504500D01*
X147566417Y-90504500D01*
X147566419Y-90504500D01*
X147694730Y-90470119D01*
X147809770Y-90403700D01*
X147809776Y-90403694D01*
X147877244Y-90336227D01*
X147903694Y-90309776D01*
X147903700Y-90309770D01*
X147970119Y-90194730D01*
X148004500Y-90066419D01*
X148004500Y-89933581D01*
X147994269Y-89895398D01*
X191670900Y-89895398D01*
X191670900Y-90104602D01*
X191703627Y-90311232D01*
X191703628Y-90311237D01*
X191768273Y-90510193D01*
X191768274Y-90510194D01*
X191768275Y-90510197D01*
X191796922Y-90566419D01*
X191863253Y-90696602D01*
X191986219Y-90865852D01*
X192134147Y-91013780D01*
X192197456Y-91059776D01*
X192303400Y-91136748D01*
X192489803Y-91231725D01*
X192688768Y-91296373D01*
X192895398Y-91329100D01*
X192895401Y-91329100D01*
X193104599Y-91329100D01*
X193104602Y-91329100D01*
X193311232Y-91296373D01*
X193510197Y-91231725D01*
X193696600Y-91136748D01*
X193865851Y-91013781D01*
X194013781Y-90865851D01*
X194136748Y-90696600D01*
X194231725Y-90510197D01*
X194296373Y-90311232D01*
X194329100Y-90104602D01*
X194329100Y-89895398D01*
X194296373Y-89688768D01*
X194231725Y-89489803D01*
X194136748Y-89303400D01*
X194136746Y-89303397D01*
X194013780Y-89134147D01*
X193865852Y-88986219D01*
X193696602Y-88863253D01*
X193510193Y-88768273D01*
X193311237Y-88703628D01*
X193311233Y-88703627D01*
X193311232Y-88703627D01*
X193104602Y-88670900D01*
X192895398Y-88670900D01*
X192688768Y-88703627D01*
X192688762Y-88703628D01*
X192489806Y-88768273D01*
X192303397Y-88863253D01*
X192134147Y-88986219D01*
X191986219Y-89134147D01*
X191863253Y-89303397D01*
X191768273Y-89489806D01*
X191703628Y-89688762D01*
X191703627Y-89688767D01*
X191703627Y-89688768D01*
X191670900Y-89895398D01*
X147994269Y-89895398D01*
X147970119Y-89805270D01*
X147903700Y-89690230D01*
X147903698Y-89690228D01*
X147903694Y-89690223D01*
X147809776Y-89596305D01*
X147809766Y-89596297D01*
X147694730Y-89529881D01*
X147566419Y-89495500D01*
X147433581Y-89495500D01*
X147348040Y-89518420D01*
X147305269Y-89529881D01*
X147190233Y-89596297D01*
X147190223Y-89596305D01*
X147096305Y-89690223D01*
X147096297Y-89690233D01*
X147029881Y-89805269D01*
X146995500Y-89933582D01*
X146995500Y-90066417D01*
X146995499Y-90066417D01*
X131258012Y-90066417D01*
X131202630Y-90034442D01*
X131194730Y-90029881D01*
X131066419Y-89995500D01*
X130933581Y-89995500D01*
X130848040Y-90018420D01*
X130805269Y-90029881D01*
X130690233Y-90096297D01*
X130690223Y-90096305D01*
X130596305Y-90190223D01*
X130596297Y-90190233D01*
X130529881Y-90305269D01*
X130495500Y-90433582D01*
X130495500Y-90566417D01*
X130495499Y-90566417D01*
X114723106Y-90566417D01*
X114720119Y-90555270D01*
X114653700Y-90440230D01*
X114653698Y-90440228D01*
X114653694Y-90440223D01*
X114559776Y-90346305D01*
X114559766Y-90346297D01*
X114444730Y-90279881D01*
X114316419Y-90245500D01*
X114183581Y-90245500D01*
X114098040Y-90268420D01*
X114055269Y-90279881D01*
X113940233Y-90346297D01*
X113940223Y-90346305D01*
X113846305Y-90440223D01*
X113846297Y-90440233D01*
X113779881Y-90555269D01*
X113745500Y-90683582D01*
X113745500Y-90816417D01*
X113745499Y-90816417D01*
X104049697Y-90816417D01*
X104136748Y-90696600D01*
X104231725Y-90510197D01*
X104296373Y-90311232D01*
X104329100Y-90104602D01*
X104329100Y-89895398D01*
X104296373Y-89688768D01*
X104231725Y-89489803D01*
X104136748Y-89303400D01*
X104136746Y-89303397D01*
X104013780Y-89134147D01*
X103865852Y-88986219D01*
X103696602Y-88863253D01*
X103510193Y-88768273D01*
X103311237Y-88703628D01*
X103311233Y-88703627D01*
X103311232Y-88703627D01*
X103104602Y-88670900D01*
X102895398Y-88670900D01*
X102688768Y-88703627D01*
X102688762Y-88703628D01*
X102489806Y-88768273D01*
X102303397Y-88863253D01*
X102134147Y-88986219D01*
X101986219Y-89134147D01*
X101863253Y-89303397D01*
X101768273Y-89489806D01*
X101703628Y-89688762D01*
X101703627Y-89688767D01*
X101703627Y-89688768D01*
X101670900Y-89895398D01*
X100652900Y-89895398D01*
X100652900Y-87778900D01*
X100672902Y-87710779D01*
X100726558Y-87664286D01*
X100778900Y-87652900D01*
X180000075Y-87652900D01*
X180068196Y-87672902D01*
G37*
%TD.AperFunction*%
%TD*%
M02*
