%TF.GenerationSoftware,KiCad,Pcbnew,9.0.2*%
%TF.CreationDate,2025-05-27T14:22:58+08:00*%
%TF.ProjectId,tsubaki_lite,74737562-616b-4695-9f6c-6974652e6b69,3*%
%TF.SameCoordinates,Original*%
%TF.FileFunction,Copper,L2,Bot*%
%TF.FilePolarity,Positive*%
%FSLAX46Y46*%
G04 Gerber Fmt 4.6, Leading zero omitted, Abs format (unit mm)*
G04 Created by KiCad (PCBNEW 9.0.2) date 2025-05-27 14:22:58*
%MOMM*%
%LPD*%
G01*
G04 APERTURE LIST*
%TA.AperFunction,ComponentPad*%
%ADD10C,2.200000*%
%TD*%
%TA.AperFunction,ComponentPad*%
%ADD11R,1.700000X1.700000*%
%TD*%
%TA.AperFunction,ComponentPad*%
%ADD12C,1.700000*%
%TD*%
%TA.AperFunction,ComponentPad*%
%ADD13C,1.800000*%
%TD*%
%TA.AperFunction,ComponentPad*%
%ADD14O,3.300000X3.500000*%
%TD*%
%TA.AperFunction,HeatsinkPad*%
%ADD15O,1.000000X2.100000*%
%TD*%
%TA.AperFunction,HeatsinkPad*%
%ADD16O,1.000000X1.600000*%
%TD*%
%TA.AperFunction,ViaPad*%
%ADD17C,0.500000*%
%TD*%
%TA.AperFunction,ViaPad*%
%ADD18C,0.800000*%
%TD*%
%TA.AperFunction,Conductor*%
%ADD19C,0.508000*%
%TD*%
%TA.AperFunction,Conductor*%
%ADD20C,0.250000*%
%TD*%
%TA.AperFunction,Conductor*%
%ADD21C,0.254000*%
%TD*%
%TA.AperFunction,Conductor*%
%ADD22C,0.381000*%
%TD*%
G04 APERTURE END LIST*
D10*
%TO.P,SW_1_3,1,1*%
%TO.N,/COL3*%
X142740000Y-97320000D03*
%TO.P,SW_1_3,2,2*%
%TO.N,Net-(D_1_3-K)*%
X136390000Y-99860000D03*
%TD*%
D11*
%TO.P,J2,1,Pin_1*%
%TO.N,/TX*%
X169675000Y-112900000D03*
D12*
%TO.P,J2,2,Pin_2*%
%TO.N,/RX*%
X167135000Y-112900000D03*
%TD*%
D10*
%TO.P,SW_1_2,1,1*%
%TO.N,/COL2*%
X126740000Y-97320000D03*
%TO.P,SW_1_2,2,2*%
%TO.N,Net-(D_1_2-K)*%
X120390000Y-99860000D03*
%TD*%
D13*
%TO.P,SW3,A,A*%
%TO.N,/ROT_UP*%
X170209995Y-109250064D03*
%TO.P,SW3,B,B*%
%TO.N,/ROT_DOWN*%
X175290005Y-109250064D03*
%TO.P,SW3,C,C*%
%TO.N,VDD*%
X172750000Y-109250064D03*
D14*
%TO.P,SW3,D,D*%
%TO.N,GND*%
X178349949Y-101749936D03*
%TO.P,SW3,E,E*%
X167150051Y-101749936D03*
%TD*%
D10*
%TO.P,SW_1_1,1,1*%
%TO.N,/COL1*%
X110740000Y-97320000D03*
%TO.P,SW_1_1,2,2*%
%TO.N,Net-(D_1_1-K)*%
X104390000Y-99860000D03*
%TD*%
D15*
%TO.P,J1,S1,SHIELD*%
%TO.N,GND*%
X159320000Y-97380000D03*
D16*
X159320000Y-93200000D03*
D15*
X150680000Y-97380000D03*
D16*
X150680000Y-93200000D03*
%TD*%
D11*
%TO.P,J3,1,Pin_1*%
%TO.N,VDD*%
X183000000Y-98890000D03*
D12*
%TO.P,J3,2,Pin_2*%
%TO.N,GND*%
X183000000Y-101430000D03*
%TO.P,J3,3,Pin_3*%
%TO.N,/DCK*%
X183000000Y-103970000D03*
%TO.P,J3,4,Pin_4*%
%TO.N,/DIO*%
X183000000Y-106510000D03*
%TD*%
D17*
%TO.N,GND*%
X139250000Y-109000000D03*
X114000000Y-96500000D03*
X129750000Y-96750000D03*
X165000000Y-107500000D03*
X165500000Y-96000000D03*
%TO.N,Net-(L_1_3-K)*%
X138000000Y-107000000D03*
X136250000Y-112750000D03*
%TO.N,GND*%
X166000000Y-110000000D03*
X158500000Y-111750000D03*
X149750000Y-105250000D03*
X146750000Y-104000000D03*
X150750000Y-99250000D03*
X151250000Y-103750000D03*
X159000000Y-100500000D03*
X145500000Y-97250000D03*
X124500000Y-109500000D03*
X142500000Y-108500000D03*
X131750000Y-109250000D03*
X127500000Y-105000000D03*
X155250000Y-92250000D03*
X143500000Y-103500000D03*
X134750000Y-97000000D03*
X118750000Y-97500000D03*
X111250000Y-100500000D03*
X102500000Y-97000000D03*
X103500000Y-106000000D03*
X109000000Y-110000000D03*
X118500000Y-108750000D03*
X124000000Y-111750000D03*
X126500000Y-114250000D03*
X137750000Y-114250000D03*
X143500000Y-112000000D03*
X152250000Y-113750000D03*
X149250000Y-113250000D03*
X154250000Y-102250000D03*
X154750000Y-108500000D03*
X163250000Y-103500000D03*
X173000000Y-96500000D03*
X173000000Y-107000000D03*
X174500000Y-112750000D03*
X178750000Y-110000000D03*
X180500000Y-106250000D03*
X180750000Y-100250000D03*
X180500000Y-96000000D03*
X177750000Y-92000000D03*
X167750000Y-92250000D03*
X160750000Y-91500000D03*
X148250000Y-91500000D03*
X141500000Y-91750000D03*
X132250000Y-91750000D03*
X123750000Y-91750000D03*
X113250000Y-92000000D03*
X105000000Y-92000000D03*
%TO.N,/RESET*%
X162000000Y-93500000D03*
X153500000Y-106000000D03*
%TO.N,/DM*%
X155974000Y-103750000D03*
X156000000Y-102000000D03*
D18*
%TO.N,VDD*%
X132750000Y-107750000D03*
X120197347Y-107802653D03*
X150111596Y-108061901D03*
X152232429Y-103517571D03*
D17*
%TO.N,/ROW1*%
X150500000Y-106700000D03*
X150500000Y-100400000D03*
%TO.N,Net-(L_1_2-K)*%
X128200000Y-110000000D03*
X131300000Y-112750000D03*
%TO.N,Net-(L_1_3-A)*%
X142400000Y-106900000D03*
X147200000Y-109800000D03*
%TO.N,Net-(Q1-G)*%
X136800000Y-110000000D03*
X130750000Y-114000000D03*
%TO.N,Net-(Q2-G)*%
X139700000Y-110000000D03*
X136300000Y-114000000D03*
%TO.N,Net-(Q3-G)*%
X142606587Y-109993413D03*
X141200000Y-114000000D03*
%TO.N,/LED_CTRL*%
X149175000Y-111800000D03*
X156000000Y-110700000D03*
%TD*%
D19*
%TO.N,VDD*%
X181125000Y-100872021D02*
X183000000Y-98997021D01*
X183000000Y-98997021D02*
X183000000Y-98890000D01*
X172750000Y-109250064D02*
X176000064Y-106000000D01*
X176000064Y-106000000D02*
X178000000Y-106000000D01*
X178000000Y-106000000D02*
X181125000Y-102875000D01*
X181125000Y-102875000D02*
X181125000Y-100872021D01*
D20*
%TO.N,/DM*%
X156000000Y-102000000D02*
X156000000Y-103724000D01*
X156000000Y-103724000D02*
X155974000Y-103750000D01*
D21*
%TO.N,Net-(L_1_3-K)*%
X137750000Y-110250000D02*
X138000000Y-110000000D01*
X136250000Y-112750000D02*
X136250000Y-111750000D01*
X138000000Y-110000000D02*
X138000000Y-107000000D01*
X136250000Y-111750000D02*
X137750000Y-110250000D01*
D20*
%TO.N,Net-(L_1_2-K)*%
X131300000Y-112362219D02*
X128937781Y-110000000D01*
X131300000Y-112750000D02*
X131300000Y-112362219D01*
X128937781Y-110000000D02*
X128200000Y-110000000D01*
%TO.N,Net-(Q1-G)*%
X132800000Y-114000000D02*
X136800000Y-110000000D01*
X130750000Y-114000000D02*
X132800000Y-114000000D01*
D21*
%TO.N,/RESET*%
X157774072Y-96002000D02*
X159498000Y-96002000D01*
X153500000Y-100276072D02*
X157774072Y-96002000D01*
X159498000Y-96002000D02*
X162000000Y-93500000D01*
X153500000Y-106000000D02*
X153500000Y-100276072D01*
%TO.N,VDD*%
X134178000Y-106322000D02*
X132750000Y-107750000D01*
D22*
X150111596Y-108061901D02*
X150188099Y-108061901D01*
D21*
X150111596Y-108061901D02*
X148371695Y-106322000D01*
X148371695Y-106322000D02*
X134178000Y-106322000D01*
D22*
X150188099Y-108061901D02*
X152232429Y-106017571D01*
X152232429Y-106017571D02*
X152232429Y-103517571D01*
D21*
X120197347Y-107802653D02*
X132697347Y-107802653D01*
X132697347Y-107802653D02*
X132750000Y-107750000D01*
D20*
%TO.N,/ROW1*%
X150500000Y-106700000D02*
X150500000Y-100400000D01*
%TO.N,Net-(L_1_3-A)*%
X147200000Y-109800000D02*
X146000000Y-109800000D01*
X146000000Y-109800000D02*
X143100000Y-106900000D01*
X143100000Y-106900000D02*
X142400000Y-106900000D01*
%TO.N,Net-(Q2-G)*%
X139700000Y-110000000D02*
X139700000Y-110600000D01*
X139700000Y-110600000D02*
X136300000Y-114000000D01*
%TO.N,Net-(Q3-G)*%
X141200000Y-111400000D02*
X141200000Y-114000000D01*
X142606587Y-109993413D02*
X141200000Y-111400000D01*
%TO.N,/LED_CTRL*%
X154900000Y-111800000D02*
X149175000Y-111800000D01*
X156000000Y-110700000D02*
X154900000Y-111800000D01*
%TD*%
%TA.AperFunction,Conductor*%
%TO.N,GND*%
G36*
X185789221Y-90172902D02*
G01*
X185835714Y-90226558D01*
X185847100Y-90278900D01*
X185847100Y-114721100D01*
X185827098Y-114789221D01*
X185773442Y-114835714D01*
X185721100Y-114847100D01*
X96278900Y-114847100D01*
X96210779Y-114827098D01*
X96164286Y-114773442D01*
X96152900Y-114721100D01*
X96152900Y-111895398D01*
X97670900Y-111895398D01*
X97670900Y-112104602D01*
X97702561Y-112304500D01*
X97703628Y-112311237D01*
X97768273Y-112510193D01*
X97863253Y-112696602D01*
X97986219Y-112865852D01*
X98134147Y-113013780D01*
X98197456Y-113059776D01*
X98303400Y-113136748D01*
X98489803Y-113231725D01*
X98688768Y-113296373D01*
X98895398Y-113329100D01*
X98895401Y-113329100D01*
X99104599Y-113329100D01*
X99104602Y-113329100D01*
X99311232Y-113296373D01*
X99510197Y-113231725D01*
X99696600Y-113136748D01*
X99865851Y-113013781D01*
X100013781Y-112865851D01*
X100136748Y-112696600D01*
X100231725Y-112510197D01*
X100296373Y-112311232D01*
X100329100Y-112104602D01*
X100329100Y-111895398D01*
X100296373Y-111688768D01*
X100231725Y-111489803D01*
X100136748Y-111303400D01*
X100136746Y-111303397D01*
X100013780Y-111134147D01*
X99865852Y-110986219D01*
X99696602Y-110863253D01*
X99510193Y-110768273D01*
X99311237Y-110703628D01*
X99311233Y-110703627D01*
X99311232Y-110703627D01*
X99104602Y-110670900D01*
X98895398Y-110670900D01*
X98691218Y-110703239D01*
X98688762Y-110703628D01*
X98489806Y-110768273D01*
X98303397Y-110863253D01*
X98134147Y-110986219D01*
X97986219Y-111134147D01*
X97863253Y-111303397D01*
X97768273Y-111489806D01*
X97703628Y-111688762D01*
X97703627Y-111688767D01*
X97703627Y-111688768D01*
X97670900Y-111895398D01*
X96152900Y-111895398D01*
X96152900Y-110066417D01*
X127695499Y-110066417D01*
X127729881Y-110194730D01*
X127796297Y-110309766D01*
X127796305Y-110309776D01*
X127890223Y-110403694D01*
X127890228Y-110403698D01*
X127890230Y-110403700D01*
X128005270Y-110470119D01*
X128133581Y-110504500D01*
X128133583Y-110504500D01*
X128266417Y-110504500D01*
X128266419Y-110504500D01*
X128394730Y-110470119D01*
X128509770Y-110403700D01*
X128509769Y-110403700D01*
X128516922Y-110399571D01*
X128517996Y-110401432D01*
X128529040Y-110397162D01*
X128548581Y-110384604D01*
X128569181Y-110381642D01*
X128573591Y-110379937D01*
X128584079Y-110379500D01*
X128728397Y-110379500D01*
X128796518Y-110399502D01*
X128817492Y-110416405D01*
X130807808Y-112406721D01*
X130841834Y-112469033D01*
X130836769Y-112539848D01*
X130832616Y-112548664D01*
X130829882Y-112555265D01*
X130795500Y-112683582D01*
X130795500Y-112816417D01*
X130795499Y-112816417D01*
X130829881Y-112944730D01*
X130896297Y-113059766D01*
X130896305Y-113059776D01*
X130990223Y-113153694D01*
X130990228Y-113153698D01*
X130990230Y-113153700D01*
X130990231Y-113153701D01*
X130990233Y-113153702D01*
X131034865Y-113179470D01*
X131105270Y-113220119D01*
X131233581Y-113254500D01*
X131233583Y-113254500D01*
X131366417Y-113254500D01*
X131366419Y-113254500D01*
X131494730Y-113220119D01*
X131609770Y-113153700D01*
X131703700Y-113059770D01*
X131770119Y-112944730D01*
X131804500Y-112816419D01*
X131804500Y-112683581D01*
X131770119Y-112555270D01*
X131703700Y-112440230D01*
X131699571Y-112433078D01*
X131701429Y-112432004D01*
X131679937Y-112376390D01*
X131679501Y-112365921D01*
X131679501Y-112312257D01*
X131679500Y-112312253D01*
X131653639Y-112215739D01*
X131653638Y-112215737D01*
X131632717Y-112179501D01*
X131603676Y-112129200D01*
X131533019Y-112058543D01*
X131533016Y-112058541D01*
X129248645Y-109774170D01*
X129248633Y-109774156D01*
X129170806Y-109696329D01*
X129170796Y-109696321D01*
X129084267Y-109646364D01*
X129084265Y-109646363D01*
X129084263Y-109646362D01*
X129084256Y-109646360D01*
X129068898Y-109642244D01*
X129068891Y-109642243D01*
X129059680Y-109639775D01*
X128987743Y-109620499D01*
X128887819Y-109620499D01*
X128887815Y-109620500D01*
X128584079Y-109620500D01*
X128515958Y-109600498D01*
X128510988Y-109597003D01*
X128394730Y-109529881D01*
X128370147Y-109523294D01*
X128266419Y-109495500D01*
X128133581Y-109495500D01*
X128048040Y-109518420D01*
X128005269Y-109529881D01*
X127890233Y-109596297D01*
X127890223Y-109596305D01*
X127796305Y-109690223D01*
X127796297Y-109690233D01*
X127729881Y-109805269D01*
X127695500Y-109933582D01*
X127695500Y-110066417D01*
X127695499Y-110066417D01*
X96152900Y-110066417D01*
X96152900Y-107738187D01*
X119542847Y-107738187D01*
X119542847Y-107867118D01*
X119567999Y-107993564D01*
X119617336Y-108112675D01*
X119654392Y-108168133D01*
X119688963Y-108219872D01*
X119688968Y-108219878D01*
X119780121Y-108311031D01*
X119780127Y-108311036D01*
X119887325Y-108382664D01*
X120006436Y-108432001D01*
X120132884Y-108457153D01*
X120132885Y-108457153D01*
X120261809Y-108457153D01*
X120261810Y-108457153D01*
X120388258Y-108432001D01*
X120507369Y-108382664D01*
X120614567Y-108311036D01*
X120614572Y-108311031D01*
X120704546Y-108221058D01*
X120766858Y-108187032D01*
X120793641Y-108184153D01*
X132206360Y-108184153D01*
X132274481Y-108204155D01*
X132295451Y-108221054D01*
X132332780Y-108258383D01*
X132439978Y-108330011D01*
X132559089Y-108379348D01*
X132685537Y-108404500D01*
X132685538Y-108404500D01*
X132814462Y-108404500D01*
X132814463Y-108404500D01*
X132940911Y-108379348D01*
X133060022Y-108330011D01*
X133167220Y-108258383D01*
X133258383Y-108167220D01*
X133330011Y-108060022D01*
X133379348Y-107940911D01*
X133404500Y-107814463D01*
X133404500Y-107687213D01*
X133424502Y-107619092D01*
X133441405Y-107598117D01*
X133866216Y-107173307D01*
X134299119Y-106740404D01*
X134361431Y-106706379D01*
X134388214Y-106703500D01*
X137392944Y-106703500D01*
X137461065Y-106723502D01*
X137507558Y-106777158D01*
X137517662Y-106847432D01*
X137514653Y-106862098D01*
X137495500Y-106933581D01*
X137495500Y-106933583D01*
X137495500Y-107066417D01*
X137495499Y-107066417D01*
X137529881Y-107194730D01*
X137600429Y-107316922D01*
X137597752Y-107318467D01*
X137618060Y-107370956D01*
X137618500Y-107381472D01*
X137618500Y-109789787D01*
X137609714Y-109819707D01*
X137603087Y-109850173D01*
X137599273Y-109855267D01*
X137598498Y-109857908D01*
X137581599Y-109878877D01*
X137533483Y-109926994D01*
X137505815Y-109954662D01*
X137443502Y-109988687D01*
X137372687Y-109983621D01*
X137315851Y-109941074D01*
X137295013Y-109898177D01*
X137270119Y-109805270D01*
X137228729Y-109733581D01*
X137203702Y-109690233D01*
X137203694Y-109690223D01*
X137109776Y-109596305D01*
X137109766Y-109596297D01*
X136994730Y-109529881D01*
X136970147Y-109523294D01*
X136866419Y-109495500D01*
X136733581Y-109495500D01*
X136648040Y-109518420D01*
X136605269Y-109529881D01*
X136490233Y-109596297D01*
X136490223Y-109596305D01*
X136396305Y-109690223D01*
X136396297Y-109690233D01*
X136329881Y-109805269D01*
X136293363Y-109941558D01*
X136291291Y-109941002D01*
X136267158Y-109995532D01*
X136260066Y-110003239D01*
X132679711Y-113583595D01*
X132617399Y-113617621D01*
X132590616Y-113620500D01*
X131134079Y-113620500D01*
X131065958Y-113600498D01*
X131060988Y-113597003D01*
X130944730Y-113529881D01*
X130816419Y-113495500D01*
X130683581Y-113495500D01*
X130598040Y-113518420D01*
X130555269Y-113529881D01*
X130440233Y-113596297D01*
X130440223Y-113596305D01*
X130346305Y-113690223D01*
X130346297Y-113690233D01*
X130279881Y-113805269D01*
X130279881Y-113805270D01*
X130245527Y-113933483D01*
X130245500Y-113933582D01*
X130245500Y-114066417D01*
X130245499Y-114066417D01*
X130279881Y-114194730D01*
X130346297Y-114309766D01*
X130346305Y-114309776D01*
X130440223Y-114403694D01*
X130440228Y-114403698D01*
X130440230Y-114403700D01*
X130555270Y-114470119D01*
X130683581Y-114504500D01*
X130683583Y-114504500D01*
X130816417Y-114504500D01*
X130816419Y-114504500D01*
X130944730Y-114470119D01*
X131059770Y-114403700D01*
X131059769Y-114403700D01*
X131066922Y-114399571D01*
X131067996Y-114401432D01*
X131123591Y-114379937D01*
X131134079Y-114379500D01*
X132750034Y-114379500D01*
X132750038Y-114379501D01*
X132849962Y-114379501D01*
X132926084Y-114359103D01*
X132946482Y-114353638D01*
X133033019Y-114303676D01*
X133103676Y-114233019D01*
X133114043Y-114222652D01*
X133114050Y-114222642D01*
X135653406Y-111683287D01*
X135715717Y-111649262D01*
X135786533Y-111654327D01*
X135843368Y-111696874D01*
X135868179Y-111763394D01*
X135868500Y-111772383D01*
X135868500Y-112368527D01*
X135849674Y-112432642D01*
X135850429Y-112433078D01*
X135848632Y-112436189D01*
X135848498Y-112436648D01*
X135847770Y-112437682D01*
X135779881Y-112555269D01*
X135745500Y-112683582D01*
X135745500Y-112816417D01*
X135745499Y-112816417D01*
X135779881Y-112944730D01*
X135846297Y-113059766D01*
X135846305Y-113059776D01*
X135940223Y-113153694D01*
X135940228Y-113153698D01*
X135940230Y-113153700D01*
X135940231Y-113153701D01*
X135940233Y-113153702D01*
X135984865Y-113179470D01*
X136055270Y-113220119D01*
X136183581Y-113254500D01*
X136183582Y-113254500D01*
X136191770Y-113255578D01*
X136191317Y-113259014D01*
X136244062Y-113274502D01*
X136290555Y-113328158D01*
X136300659Y-113398432D01*
X136271165Y-113463012D01*
X136211439Y-113501396D01*
X136208587Y-113502196D01*
X136142961Y-113519781D01*
X136105269Y-113529881D01*
X135990233Y-113596297D01*
X135990223Y-113596305D01*
X135896305Y-113690223D01*
X135896297Y-113690233D01*
X135829881Y-113805269D01*
X135829881Y-113805270D01*
X135795527Y-113933483D01*
X135795500Y-113933582D01*
X135795500Y-114066417D01*
X135795499Y-114066417D01*
X135829881Y-114194730D01*
X135896297Y-114309766D01*
X135896305Y-114309776D01*
X135990223Y-114403694D01*
X135990228Y-114403698D01*
X135990230Y-114403700D01*
X136105270Y-114470119D01*
X136233581Y-114504500D01*
X136233583Y-114504500D01*
X136366417Y-114504500D01*
X136366419Y-114504500D01*
X136494730Y-114470119D01*
X136609770Y-114403700D01*
X136703700Y-114309770D01*
X136770119Y-114194730D01*
X136804500Y-114066419D01*
X136804500Y-114066417D01*
X140695499Y-114066417D01*
X140729881Y-114194730D01*
X140796297Y-114309766D01*
X140796305Y-114309776D01*
X140890223Y-114403694D01*
X140890228Y-114403698D01*
X140890230Y-114403700D01*
X141005270Y-114470119D01*
X141133581Y-114504500D01*
X141133583Y-114504500D01*
X141266417Y-114504500D01*
X141266419Y-114504500D01*
X141394730Y-114470119D01*
X141509770Y-114403700D01*
X141603700Y-114309770D01*
X141670119Y-114194730D01*
X141704500Y-114066419D01*
X141704500Y-113933581D01*
X141670119Y-113805270D01*
X141603700Y-113690230D01*
X141599571Y-113683078D01*
X141601429Y-113682004D01*
X141579936Y-113626393D01*
X141579500Y-113615920D01*
X141579500Y-112813074D01*
X166030500Y-112813074D01*
X166030500Y-112986926D01*
X166057697Y-113158638D01*
X166057698Y-113158642D01*
X166102449Y-113296373D01*
X166111420Y-113323981D01*
X166149355Y-113398432D01*
X166190349Y-113478887D01*
X166292536Y-113619535D01*
X166415464Y-113742463D01*
X166460342Y-113775069D01*
X166556116Y-113844653D01*
X166711019Y-113923580D01*
X166876362Y-113977303D01*
X167048074Y-114004500D01*
X167048077Y-114004500D01*
X167221923Y-114004500D01*
X167221926Y-114004500D01*
X167393638Y-113977303D01*
X167558981Y-113923580D01*
X167713884Y-113844653D01*
X167854533Y-113742465D01*
X167977465Y-113619533D01*
X168079653Y-113478884D01*
X168158580Y-113323981D01*
X168212303Y-113158638D01*
X168239500Y-112986926D01*
X168239500Y-112813074D01*
X168212303Y-112641362D01*
X168158580Y-112476019D01*
X168079653Y-112321116D01*
X167994345Y-112203700D01*
X167977463Y-112180464D01*
X167854535Y-112057536D01*
X167809657Y-112024930D01*
X168570500Y-112024930D01*
X168570500Y-113775063D01*
X168570501Y-113775073D01*
X168585265Y-113849300D01*
X168641516Y-113933484D01*
X168725697Y-113989733D01*
X168725699Y-113989734D01*
X168799933Y-114004500D01*
X170550066Y-114004499D01*
X170550069Y-114004498D01*
X170550073Y-114004498D01*
X170599326Y-113994701D01*
X170624301Y-113989734D01*
X170708484Y-113933484D01*
X170764734Y-113849301D01*
X170779500Y-113775067D01*
X170779499Y-112024934D01*
X170779498Y-112024930D01*
X170779498Y-112024926D01*
X170764734Y-111950700D01*
X170764734Y-111950699D01*
X170727783Y-111895398D01*
X181670900Y-111895398D01*
X181670900Y-112104602D01*
X181702561Y-112304500D01*
X181703628Y-112311237D01*
X181768273Y-112510193D01*
X181863253Y-112696602D01*
X181986219Y-112865852D01*
X182134147Y-113013780D01*
X182197456Y-113059776D01*
X182303400Y-113136748D01*
X182489803Y-113231725D01*
X182688768Y-113296373D01*
X182895398Y-113329100D01*
X182895401Y-113329100D01*
X183104599Y-113329100D01*
X183104602Y-113329100D01*
X183311232Y-113296373D01*
X183510197Y-113231725D01*
X183696600Y-113136748D01*
X183865851Y-113013781D01*
X184013781Y-112865851D01*
X184136748Y-112696600D01*
X184231725Y-112510197D01*
X184296373Y-112311232D01*
X184329100Y-112104602D01*
X184329100Y-111895398D01*
X184296373Y-111688768D01*
X184231725Y-111489803D01*
X184136748Y-111303400D01*
X184136746Y-111303397D01*
X184013780Y-111134147D01*
X183865852Y-110986219D01*
X183696602Y-110863253D01*
X183510193Y-110768273D01*
X183311237Y-110703628D01*
X183311233Y-110703627D01*
X183311232Y-110703627D01*
X183104602Y-110670900D01*
X182895398Y-110670900D01*
X182691218Y-110703239D01*
X182688762Y-110703628D01*
X182489806Y-110768273D01*
X182303397Y-110863253D01*
X182134147Y-110986219D01*
X181986219Y-111134147D01*
X181863253Y-111303397D01*
X181768273Y-111489806D01*
X181703628Y-111688762D01*
X181703627Y-111688767D01*
X181703627Y-111688768D01*
X181670900Y-111895398D01*
X170727783Y-111895398D01*
X170708484Y-111866516D01*
X170708482Y-111866515D01*
X170708482Y-111866514D01*
X170624302Y-111810266D01*
X170550067Y-111795500D01*
X168799936Y-111795500D01*
X168799926Y-111795501D01*
X168725699Y-111810265D01*
X168641515Y-111866516D01*
X168585266Y-111950697D01*
X168570500Y-112024930D01*
X167809657Y-112024930D01*
X167713887Y-111955349D01*
X167713886Y-111955348D01*
X167713884Y-111955347D01*
X167558981Y-111876420D01*
X167558978Y-111876419D01*
X167558976Y-111876418D01*
X167393642Y-111822698D01*
X167393640Y-111822697D01*
X167393638Y-111822697D01*
X167221926Y-111795500D01*
X167048074Y-111795500D01*
X166876362Y-111822697D01*
X166876360Y-111822697D01*
X166876357Y-111822698D01*
X166711023Y-111876418D01*
X166711017Y-111876421D01*
X166556112Y-111955349D01*
X166415464Y-112057536D01*
X166292536Y-112180464D01*
X166190349Y-112321112D01*
X166111421Y-112476017D01*
X166111418Y-112476023D01*
X166057698Y-112641357D01*
X166057697Y-112641360D01*
X166057697Y-112641362D01*
X166030500Y-112813074D01*
X141579500Y-112813074D01*
X141579500Y-111866417D01*
X148670499Y-111866417D01*
X148704881Y-111994730D01*
X148771297Y-112109766D01*
X148771305Y-112109776D01*
X148865223Y-112203694D01*
X148865228Y-112203698D01*
X148865230Y-112203700D01*
X148980270Y-112270119D01*
X149108581Y-112304500D01*
X149108583Y-112304500D01*
X149241417Y-112304500D01*
X149241419Y-112304500D01*
X149369730Y-112270119D01*
X149484770Y-112203700D01*
X149484769Y-112203700D01*
X149491922Y-112199571D01*
X149492996Y-112201432D01*
X149548591Y-112179937D01*
X149559079Y-112179500D01*
X154850034Y-112179500D01*
X154850038Y-112179501D01*
X154949962Y-112179501D01*
X155026084Y-112159103D01*
X155046482Y-112153638D01*
X155133019Y-112103676D01*
X155203676Y-112033019D01*
X155214042Y-112022653D01*
X155214049Y-112022643D01*
X155996763Y-111239930D01*
X156059073Y-111205907D01*
X156065059Y-111204863D01*
X156066414Y-111204500D01*
X156066419Y-111204500D01*
X156194730Y-111170119D01*
X156309770Y-111103700D01*
X156403700Y-111009770D01*
X156470119Y-110894730D01*
X156504500Y-110766419D01*
X156504500Y-110633581D01*
X156470119Y-110505270D01*
X156407674Y-110397113D01*
X156403702Y-110390233D01*
X156403694Y-110390223D01*
X156309776Y-110296305D01*
X156309766Y-110296297D01*
X156194730Y-110229881D01*
X156066419Y-110195500D01*
X155933581Y-110195500D01*
X155848040Y-110218420D01*
X155805269Y-110229881D01*
X155690233Y-110296297D01*
X155690223Y-110296305D01*
X155596305Y-110390223D01*
X155596297Y-110390233D01*
X155529881Y-110505269D01*
X155493363Y-110641558D01*
X155491291Y-110641002D01*
X155467158Y-110695532D01*
X155460067Y-110703239D01*
X154779709Y-111383596D01*
X154717399Y-111417620D01*
X154690616Y-111420500D01*
X149559079Y-111420500D01*
X149490958Y-111400498D01*
X149485988Y-111397003D01*
X149369730Y-111329881D01*
X149241419Y-111295500D01*
X149108581Y-111295500D01*
X149023040Y-111318420D01*
X148980269Y-111329881D01*
X148865233Y-111396297D01*
X148865223Y-111396305D01*
X148771305Y-111490223D01*
X148771297Y-111490233D01*
X148704881Y-111605269D01*
X148670500Y-111733582D01*
X148670500Y-111866417D01*
X148670499Y-111866417D01*
X141579500Y-111866417D01*
X141579500Y-111609384D01*
X141599502Y-111541263D01*
X141616405Y-111520289D01*
X142040372Y-111096322D01*
X142603349Y-110533344D01*
X142665659Y-110499321D01*
X142671641Y-110498278D01*
X142673003Y-110497913D01*
X142673006Y-110497913D01*
X142801317Y-110463532D01*
X142916357Y-110397113D01*
X143010287Y-110303183D01*
X143076706Y-110188143D01*
X143111087Y-110059832D01*
X143111087Y-109926994D01*
X143076706Y-109798683D01*
X143036057Y-109728278D01*
X143010289Y-109683646D01*
X143010281Y-109683636D01*
X142916363Y-109589718D01*
X142916353Y-109589710D01*
X142801317Y-109523294D01*
X142790554Y-109520410D01*
X142673006Y-109488913D01*
X142540168Y-109488913D01*
X142454627Y-109511833D01*
X142411856Y-109523294D01*
X142296820Y-109589710D01*
X142296810Y-109589718D01*
X142202892Y-109683636D01*
X142202884Y-109683646D01*
X142136468Y-109798682D01*
X142124867Y-109841977D01*
X142114979Y-109878883D01*
X142099950Y-109934971D01*
X142097878Y-109934415D01*
X142073745Y-109988945D01*
X142066653Y-109996652D01*
X141529959Y-110533346D01*
X140966983Y-111096322D01*
X140966981Y-111096324D01*
X140931653Y-111131652D01*
X140896325Y-111166979D01*
X140896321Y-111166984D01*
X140847872Y-111250902D01*
X140846362Y-111253518D01*
X140846362Y-111253519D01*
X140820499Y-111350038D01*
X140820499Y-111449962D01*
X140820500Y-111449965D01*
X140820500Y-111468038D01*
X140820500Y-113615920D01*
X140800498Y-113684041D01*
X140797003Y-113689011D01*
X140729881Y-113805269D01*
X140729881Y-113805270D01*
X140695527Y-113933483D01*
X140695500Y-113933582D01*
X140695500Y-114066417D01*
X140695499Y-114066417D01*
X136804500Y-114066417D01*
X136806637Y-114058442D01*
X136808712Y-114058998D01*
X136813501Y-114048170D01*
X136818440Y-114025470D01*
X136830910Y-114008812D01*
X136832823Y-114004488D01*
X136839921Y-113996772D01*
X139922642Y-110914050D01*
X139922652Y-110914043D01*
X140003670Y-110833025D01*
X140003676Y-110833019D01*
X140053638Y-110746482D01*
X140065121Y-110703627D01*
X140079501Y-110649962D01*
X140079501Y-110550038D01*
X140079500Y-110550034D01*
X140079500Y-110384079D01*
X140099502Y-110315958D01*
X140102996Y-110310988D01*
X140103698Y-110309771D01*
X140103700Y-110309770D01*
X140170119Y-110194730D01*
X140204500Y-110066419D01*
X140204500Y-109933581D01*
X140170119Y-109805270D01*
X140128729Y-109733581D01*
X140103702Y-109690233D01*
X140103694Y-109690223D01*
X140009776Y-109596305D01*
X140009766Y-109596297D01*
X139894730Y-109529881D01*
X139870147Y-109523294D01*
X139766419Y-109495500D01*
X139633581Y-109495500D01*
X139548040Y-109518420D01*
X139505269Y-109529881D01*
X139390233Y-109596297D01*
X139390223Y-109596305D01*
X139296305Y-109690223D01*
X139296297Y-109690233D01*
X139229881Y-109805269D01*
X139195500Y-109933582D01*
X139195500Y-110066417D01*
X139195499Y-110066417D01*
X139229881Y-110194730D01*
X139300429Y-110316922D01*
X139298567Y-110317996D01*
X139302837Y-110329040D01*
X139315396Y-110348581D01*
X139318357Y-110369181D01*
X139320063Y-110373591D01*
X139320500Y-110384079D01*
X139320500Y-110390616D01*
X139300498Y-110458737D01*
X139283595Y-110479711D01*
X136969595Y-112793711D01*
X136907283Y-112827737D01*
X136836468Y-112822672D01*
X136779632Y-112780125D01*
X136754821Y-112713605D01*
X136754500Y-112704616D01*
X136754500Y-112683582D01*
X136743186Y-112641357D01*
X136720119Y-112555270D01*
X136653700Y-112440230D01*
X136649571Y-112433078D01*
X136652242Y-112431535D01*
X136631936Y-112379004D01*
X136631500Y-112368527D01*
X136631500Y-111960211D01*
X136651502Y-111892090D01*
X136668400Y-111871121D01*
X137973871Y-110565649D01*
X137973876Y-110565646D01*
X137984245Y-110555276D01*
X137984247Y-110555276D01*
X138227065Y-110312456D01*
X138227070Y-110312453D01*
X138305270Y-110234253D01*
X138305276Y-110234247D01*
X138355501Y-110147254D01*
X138381500Y-110050225D01*
X138381500Y-107381472D01*
X138400325Y-107317357D01*
X138399571Y-107316922D01*
X138401366Y-107313811D01*
X138401502Y-107313351D01*
X138402231Y-107312314D01*
X138407203Y-107303702D01*
X138470119Y-107194730D01*
X138504500Y-107066419D01*
X138504500Y-106933581D01*
X138485349Y-106862109D01*
X138487039Y-106791135D01*
X138526833Y-106732339D01*
X138592097Y-106704391D01*
X138607056Y-106703500D01*
X141769500Y-106703500D01*
X141837621Y-106723502D01*
X141884114Y-106777158D01*
X141895500Y-106829500D01*
X141895500Y-106966417D01*
X141895499Y-106966417D01*
X141929881Y-107094730D01*
X141996297Y-107209766D01*
X141996305Y-107209776D01*
X142090223Y-107303694D01*
X142090228Y-107303698D01*
X142090230Y-107303700D01*
X142090231Y-107303701D01*
X142090233Y-107303702D01*
X142112235Y-107316405D01*
X142205270Y-107370119D01*
X142333581Y-107404500D01*
X142333583Y-107404500D01*
X142466417Y-107404500D01*
X142466419Y-107404500D01*
X142594730Y-107370119D01*
X142709770Y-107303700D01*
X142709769Y-107303700D01*
X142716922Y-107299571D01*
X142717996Y-107301432D01*
X142729040Y-107297162D01*
X142748581Y-107284604D01*
X142769181Y-107281642D01*
X142773591Y-107279937D01*
X142784079Y-107279500D01*
X142890616Y-107279500D01*
X142958737Y-107299502D01*
X142979711Y-107316405D01*
X145691913Y-110028607D01*
X145691934Y-110028630D01*
X145766974Y-110103670D01*
X145766978Y-110103673D01*
X145766981Y-110103676D01*
X145842459Y-110147253D01*
X145853518Y-110153638D01*
X145950038Y-110179500D01*
X146049962Y-110179500D01*
X146815921Y-110179500D01*
X146884042Y-110199502D01*
X146889011Y-110202996D01*
X146890229Y-110203699D01*
X146890230Y-110203700D01*
X147005270Y-110270119D01*
X147133581Y-110304500D01*
X147133583Y-110304500D01*
X147266417Y-110304500D01*
X147266419Y-110304500D01*
X147394730Y-110270119D01*
X147509770Y-110203700D01*
X147603700Y-110109770D01*
X147670119Y-109994730D01*
X147704500Y-109866419D01*
X147704500Y-109733581D01*
X147670119Y-109605270D01*
X147622790Y-109523294D01*
X147603702Y-109490233D01*
X147603694Y-109490223D01*
X147509776Y-109396305D01*
X147509766Y-109396297D01*
X147394730Y-109329881D01*
X147266419Y-109295500D01*
X147133581Y-109295500D01*
X147048040Y-109318420D01*
X147005269Y-109329881D01*
X146883078Y-109400429D01*
X146882003Y-109398567D01*
X146826409Y-109420063D01*
X146815921Y-109420500D01*
X146209384Y-109420500D01*
X146141263Y-109400498D01*
X146120289Y-109383595D01*
X145895897Y-109159203D01*
X169055495Y-109159203D01*
X169055495Y-109340925D01*
X169079978Y-109495500D01*
X169083924Y-109520415D01*
X169140076Y-109693233D01*
X169140078Y-109693238D01*
X169222578Y-109855154D01*
X169222580Y-109855157D01*
X169329393Y-110002172D01*
X169457886Y-110130665D01*
X169489504Y-110153637D01*
X169604905Y-110237481D01*
X169766821Y-110319981D01*
X169939649Y-110376136D01*
X170119134Y-110404564D01*
X170119137Y-110404564D01*
X170300853Y-110404564D01*
X170300856Y-110404564D01*
X170480341Y-110376136D01*
X170653169Y-110319981D01*
X170815085Y-110237481D01*
X170962101Y-110130667D01*
X171090598Y-110002170D01*
X171197412Y-109855154D01*
X171279912Y-109693238D01*
X171336067Y-109520410D01*
X171355549Y-109397403D01*
X171385960Y-109333253D01*
X171446228Y-109295726D01*
X171517218Y-109296740D01*
X171576390Y-109335973D01*
X171604445Y-109397405D01*
X171619148Y-109490233D01*
X171623929Y-109520415D01*
X171680081Y-109693233D01*
X171680083Y-109693238D01*
X171762583Y-109855154D01*
X171762585Y-109855157D01*
X171869398Y-110002172D01*
X171997891Y-110130665D01*
X172029509Y-110153637D01*
X172144910Y-110237481D01*
X172306826Y-110319981D01*
X172479654Y-110376136D01*
X172659139Y-110404564D01*
X172659142Y-110404564D01*
X172840858Y-110404564D01*
X172840861Y-110404564D01*
X173020346Y-110376136D01*
X173193174Y-110319981D01*
X173355090Y-110237481D01*
X173502106Y-110130667D01*
X173630603Y-110002170D01*
X173737417Y-109855154D01*
X173819917Y-109693238D01*
X173876072Y-109520410D01*
X173895554Y-109397403D01*
X173925965Y-109333253D01*
X173986233Y-109295726D01*
X174057223Y-109296740D01*
X174116395Y-109335973D01*
X174144450Y-109397405D01*
X174159153Y-109490233D01*
X174163934Y-109520415D01*
X174220086Y-109693233D01*
X174220088Y-109693238D01*
X174302588Y-109855154D01*
X174302590Y-109855157D01*
X174409403Y-110002172D01*
X174537896Y-110130665D01*
X174569514Y-110153637D01*
X174684915Y-110237481D01*
X174846831Y-110319981D01*
X175019659Y-110376136D01*
X175199144Y-110404564D01*
X175199147Y-110404564D01*
X175380863Y-110404564D01*
X175380866Y-110404564D01*
X175560351Y-110376136D01*
X175733179Y-110319981D01*
X175895095Y-110237481D01*
X176042111Y-110130667D01*
X176170608Y-110002170D01*
X176277422Y-109855154D01*
X176359922Y-109693238D01*
X176416077Y-109520410D01*
X176444505Y-109340925D01*
X176444505Y-109159203D01*
X176416077Y-108979718D01*
X176359922Y-108806890D01*
X176277422Y-108644974D01*
X176170608Y-108497958D01*
X176170606Y-108497955D01*
X176042113Y-108369462D01*
X175895098Y-108262649D01*
X175895097Y-108262648D01*
X175895095Y-108262647D01*
X175733179Y-108180147D01*
X175733176Y-108180146D01*
X175733174Y-108180145D01*
X175560356Y-108123993D01*
X175560352Y-108123992D01*
X175560351Y-108123992D01*
X175380866Y-108095564D01*
X175199144Y-108095564D01*
X175019659Y-108123992D01*
X175019653Y-108123993D01*
X174890043Y-108166106D01*
X174819075Y-108168133D01*
X174758277Y-108131471D01*
X174726952Y-108067758D01*
X174735046Y-107997225D01*
X174762009Y-107957181D01*
X176173786Y-106545405D01*
X176236098Y-106511379D01*
X176262881Y-106508500D01*
X178066943Y-106508500D01*
X178066945Y-106508500D01*
X178196274Y-106473847D01*
X178284215Y-106423074D01*
X181895500Y-106423074D01*
X181895500Y-106596926D01*
X181922346Y-106766419D01*
X181922698Y-106768642D01*
X181976290Y-106933583D01*
X181976420Y-106933981D01*
X182043901Y-107066419D01*
X182055349Y-107088887D01*
X182157536Y-107229535D01*
X182280464Y-107352463D01*
X182360595Y-107410682D01*
X182421116Y-107454653D01*
X182576019Y-107533580D01*
X182741362Y-107587303D01*
X182913074Y-107614500D01*
X182913077Y-107614500D01*
X183086923Y-107614500D01*
X183086926Y-107614500D01*
X183258638Y-107587303D01*
X183423981Y-107533580D01*
X183578884Y-107454653D01*
X183719533Y-107352465D01*
X183842465Y-107229533D01*
X183944653Y-107088884D01*
X184023580Y-106933981D01*
X184077303Y-106768638D01*
X184104500Y-106596926D01*
X184104500Y-106423074D01*
X184077303Y-106251362D01*
X184023580Y-106086019D01*
X183944653Y-105931116D01*
X183842465Y-105790467D01*
X183842463Y-105790464D01*
X183719535Y-105667536D01*
X183578887Y-105565349D01*
X183578886Y-105565348D01*
X183578884Y-105565347D01*
X183423981Y-105486420D01*
X183423978Y-105486419D01*
X183423976Y-105486418D01*
X183258642Y-105432698D01*
X183258640Y-105432697D01*
X183258638Y-105432697D01*
X183086926Y-105405500D01*
X182913074Y-105405500D01*
X182741362Y-105432697D01*
X182741360Y-105432697D01*
X182741357Y-105432698D01*
X182576023Y-105486418D01*
X182576017Y-105486421D01*
X182421112Y-105565349D01*
X182280464Y-105667536D01*
X182157536Y-105790464D01*
X182055349Y-105931112D01*
X181976421Y-106086017D01*
X181976418Y-106086023D01*
X181922698Y-106251357D01*
X181922697Y-106251360D01*
X181922697Y-106251362D01*
X181895500Y-106423074D01*
X178284215Y-106423074D01*
X178312227Y-106406901D01*
X178339367Y-106379761D01*
X178390101Y-106329028D01*
X180836055Y-103883074D01*
X181895500Y-103883074D01*
X181895500Y-104056926D01*
X181922697Y-104228638D01*
X181976420Y-104393981D01*
X182055347Y-104548884D01*
X182055349Y-104548887D01*
X182157536Y-104689535D01*
X182280464Y-104812463D01*
X182280467Y-104812465D01*
X182421116Y-104914653D01*
X182576019Y-104993580D01*
X182741362Y-105047303D01*
X182913074Y-105074500D01*
X182913077Y-105074500D01*
X183086923Y-105074500D01*
X183086926Y-105074500D01*
X183258638Y-105047303D01*
X183423981Y-104993580D01*
X183578884Y-104914653D01*
X183719533Y-104812465D01*
X183842465Y-104689533D01*
X183944653Y-104548884D01*
X184023580Y-104393981D01*
X184077303Y-104228638D01*
X184104500Y-104056926D01*
X184104500Y-103883074D01*
X184077303Y-103711362D01*
X184023580Y-103546019D01*
X183944653Y-103391116D01*
X183842465Y-103250467D01*
X183842463Y-103250464D01*
X183719535Y-103127536D01*
X183578887Y-103025349D01*
X183578886Y-103025348D01*
X183578884Y-103025347D01*
X183423981Y-102946420D01*
X183423978Y-102946419D01*
X183423976Y-102946418D01*
X183258642Y-102892698D01*
X183258640Y-102892697D01*
X183258638Y-102892697D01*
X183086926Y-102865500D01*
X182913074Y-102865500D01*
X182741362Y-102892697D01*
X182741360Y-102892697D01*
X182741357Y-102892698D01*
X182576023Y-102946418D01*
X182576017Y-102946421D01*
X182421112Y-103025349D01*
X182280464Y-103127536D01*
X182157536Y-103250464D01*
X182055349Y-103391112D01*
X181976421Y-103546017D01*
X181976418Y-103546023D01*
X181922698Y-103711357D01*
X181922697Y-103711360D01*
X181922697Y-103711362D01*
X181895500Y-103883074D01*
X180836055Y-103883074D01*
X180930101Y-103789028D01*
X181531895Y-103187233D01*
X181531901Y-103187227D01*
X181598847Y-103071274D01*
X181600866Y-103063736D01*
X181611154Y-103025346D01*
X181625797Y-102970692D01*
X181633500Y-102941945D01*
X181633500Y-101134838D01*
X181653502Y-101066717D01*
X181670400Y-101045747D01*
X181734257Y-100981890D01*
X181796568Y-100947866D01*
X181867383Y-100952931D01*
X181924219Y-100995478D01*
X181949030Y-101061998D01*
X181943184Y-101109922D01*
X181923186Y-101171470D01*
X181923185Y-101171471D01*
X181896000Y-101343116D01*
X181896000Y-101516883D01*
X181923185Y-101688524D01*
X181976883Y-101853788D01*
X181976884Y-101853790D01*
X182055776Y-102008625D01*
X182134042Y-102116349D01*
X182134044Y-102116349D01*
X182568234Y-101682159D01*
X182599901Y-101737007D01*
X182692993Y-101830099D01*
X182747840Y-101861765D01*
X182313649Y-102295955D01*
X182313649Y-102295956D01*
X182421374Y-102374223D01*
X182576209Y-102453115D01*
X182576211Y-102453116D01*
X182741475Y-102506814D01*
X182913116Y-102534000D01*
X183086884Y-102534000D01*
X183258524Y-102506814D01*
X183423788Y-102453116D01*
X183423790Y-102453115D01*
X183578621Y-102374225D01*
X183686349Y-102295955D01*
X183686349Y-102295954D01*
X183252159Y-101861764D01*
X183307007Y-101830099D01*
X183400099Y-101737007D01*
X183431764Y-101682159D01*
X183865954Y-102116349D01*
X183865955Y-102116349D01*
X183944225Y-102008621D01*
X184023115Y-101853790D01*
X184023116Y-101853788D01*
X184076814Y-101688524D01*
X184104000Y-101516883D01*
X184104000Y-101343116D01*
X184076814Y-101171475D01*
X184023116Y-101006211D01*
X184023115Y-101006209D01*
X183944223Y-100851374D01*
X183865955Y-100743649D01*
X183431764Y-101177839D01*
X183400099Y-101122993D01*
X183307007Y-101029901D01*
X183252159Y-100998234D01*
X183686349Y-100564044D01*
X183686349Y-100564042D01*
X183578625Y-100485776D01*
X183423790Y-100406884D01*
X183423788Y-100406883D01*
X183258524Y-100353185D01*
X183086884Y-100326000D01*
X182913116Y-100326000D01*
X182741473Y-100353185D01*
X182679922Y-100373185D01*
X182608955Y-100375213D01*
X182548157Y-100338550D01*
X182516831Y-100274838D01*
X182524924Y-100204304D01*
X182551891Y-100164257D01*
X182684744Y-100031404D01*
X182747056Y-99997378D01*
X182773839Y-99994499D01*
X183875064Y-99994499D01*
X183875066Y-99994499D01*
X183875069Y-99994498D01*
X183875072Y-99994498D01*
X183911663Y-99987219D01*
X183949301Y-99979734D01*
X184033484Y-99923484D01*
X184089734Y-99839301D01*
X184104500Y-99765067D01*
X184104499Y-98014934D01*
X184104498Y-98014930D01*
X184104498Y-98014926D01*
X184089734Y-97940699D01*
X184033483Y-97856515D01*
X183949302Y-97800266D01*
X183875067Y-97785500D01*
X182124936Y-97785500D01*
X182124926Y-97785501D01*
X182050699Y-97800265D01*
X181966515Y-97856516D01*
X181910266Y-97940697D01*
X181895500Y-98014930D01*
X181895500Y-99330202D01*
X181875498Y-99398323D01*
X181858595Y-99419297D01*
X180718104Y-100559787D01*
X180718096Y-100559797D01*
X180651155Y-100675742D01*
X180651154Y-100675745D01*
X180651153Y-100675747D01*
X180622126Y-100784079D01*
X180616500Y-100805077D01*
X180616500Y-102612182D01*
X180596498Y-102680303D01*
X180579595Y-102701277D01*
X177826277Y-105454595D01*
X177763965Y-105488621D01*
X177737182Y-105491500D01*
X175933119Y-105491500D01*
X175803790Y-105526153D01*
X175803788Y-105526154D01*
X175803785Y-105526155D01*
X175723392Y-105572571D01*
X175687839Y-105593097D01*
X175687836Y-105593099D01*
X173178042Y-108102892D01*
X173115730Y-108136918D01*
X173050013Y-108133631D01*
X173020348Y-108123992D01*
X172948552Y-108112620D01*
X172840861Y-108095564D01*
X172659139Y-108095564D01*
X172479654Y-108123992D01*
X172479648Y-108123993D01*
X172306830Y-108180145D01*
X172306824Y-108180148D01*
X172144906Y-108262649D01*
X171997891Y-108369462D01*
X171869398Y-108497955D01*
X171762585Y-108644970D01*
X171680084Y-108806888D01*
X171680081Y-108806894D01*
X171623929Y-108979711D01*
X171604446Y-109102722D01*
X171574033Y-109166874D01*
X171513765Y-109204401D01*
X171442775Y-109203387D01*
X171383603Y-109164154D01*
X171355549Y-109102724D01*
X171336067Y-108979718D01*
X171279912Y-108806890D01*
X171197412Y-108644974D01*
X171090598Y-108497958D01*
X171090596Y-108497955D01*
X170962103Y-108369462D01*
X170815088Y-108262649D01*
X170815087Y-108262648D01*
X170815085Y-108262647D01*
X170653169Y-108180147D01*
X170653166Y-108180146D01*
X170653164Y-108180145D01*
X170480346Y-108123993D01*
X170480342Y-108123992D01*
X170480341Y-108123992D01*
X170300856Y-108095564D01*
X170119134Y-108095564D01*
X169939649Y-108123992D01*
X169939643Y-108123993D01*
X169766825Y-108180145D01*
X169766819Y-108180148D01*
X169604901Y-108262649D01*
X169457886Y-108369462D01*
X169329393Y-108497955D01*
X169222580Y-108644970D01*
X169140079Y-108806888D01*
X169140076Y-108806894D01*
X169083924Y-108979712D01*
X169083923Y-108979717D01*
X169083923Y-108979718D01*
X169055495Y-109159203D01*
X145895897Y-109159203D01*
X143655289Y-106918595D01*
X143621263Y-106856283D01*
X143626328Y-106785468D01*
X143668875Y-106728632D01*
X143735395Y-106703821D01*
X143744384Y-106703500D01*
X148161482Y-106703500D01*
X148229603Y-106723502D01*
X148250577Y-106740405D01*
X149420191Y-107910019D01*
X149454217Y-107972331D01*
X149457096Y-107999114D01*
X149457096Y-108126366D01*
X149475696Y-108219872D01*
X149482248Y-108252812D01*
X149531585Y-108371923D01*
X149571728Y-108432001D01*
X149603212Y-108479120D01*
X149603217Y-108479126D01*
X149694370Y-108570279D01*
X149694376Y-108570284D01*
X149801574Y-108641912D01*
X149920685Y-108691249D01*
X150047133Y-108716401D01*
X150047134Y-108716401D01*
X150176058Y-108716401D01*
X150176059Y-108716401D01*
X150302507Y-108691249D01*
X150421618Y-108641912D01*
X150528816Y-108570284D01*
X150619979Y-108479121D01*
X150691607Y-108371923D01*
X150740944Y-108252812D01*
X150761901Y-108147450D01*
X150794809Y-108084543D01*
X150796276Y-108083048D01*
X152588517Y-106290808D01*
X152594585Y-106280297D01*
X152599508Y-106271773D01*
X152643988Y-106194730D01*
X152647103Y-106189335D01*
X152677429Y-106076156D01*
X152677429Y-104050364D01*
X152697431Y-103982243D01*
X152714330Y-103961272D01*
X152740812Y-103934791D01*
X152812440Y-103827593D01*
X152861777Y-103708482D01*
X152868921Y-103672562D01*
X152901829Y-103609655D01*
X152963524Y-103574523D01*
X153034418Y-103578323D01*
X153092004Y-103619849D01*
X153117999Y-103685916D01*
X153118500Y-103697146D01*
X153118500Y-105618527D01*
X153099674Y-105682642D01*
X153100429Y-105683078D01*
X153098632Y-105686189D01*
X153098498Y-105686648D01*
X153097770Y-105687682D01*
X153029881Y-105805269D01*
X153029881Y-105805270D01*
X152996161Y-105931116D01*
X152995500Y-105933582D01*
X152995500Y-106066417D01*
X152995499Y-106066417D01*
X153029881Y-106194730D01*
X153096297Y-106309766D01*
X153096305Y-106309776D01*
X153190223Y-106403694D01*
X153190228Y-106403698D01*
X153190230Y-106403700D01*
X153190231Y-106403701D01*
X153190233Y-106403702D01*
X153223786Y-106423074D01*
X153305270Y-106470119D01*
X153433581Y-106504500D01*
X153433583Y-106504500D01*
X153566417Y-106504500D01*
X153566419Y-106504500D01*
X153694730Y-106470119D01*
X153809770Y-106403700D01*
X153903700Y-106309770D01*
X153970119Y-106194730D01*
X154004500Y-106066419D01*
X154004500Y-105933581D01*
X153970119Y-105805270D01*
X153903700Y-105690230D01*
X153899571Y-105683078D01*
X153902242Y-105681535D01*
X153881936Y-105629004D01*
X153881500Y-105618527D01*
X153881500Y-103816417D01*
X155469499Y-103816417D01*
X155503881Y-103944730D01*
X155570297Y-104059766D01*
X155570305Y-104059776D01*
X155664223Y-104153694D01*
X155664228Y-104153698D01*
X155664230Y-104153700D01*
X155779270Y-104220119D01*
X155907581Y-104254500D01*
X155907583Y-104254500D01*
X156040417Y-104254500D01*
X156040419Y-104254500D01*
X156168730Y-104220119D01*
X156283770Y-104153700D01*
X156377700Y-104059770D01*
X156444119Y-103944730D01*
X156478500Y-103816419D01*
X156478500Y-103683581D01*
X156444119Y-103555270D01*
X156396381Y-103472585D01*
X156379500Y-103409585D01*
X156379500Y-102384079D01*
X156399502Y-102315958D01*
X156402996Y-102310988D01*
X156403698Y-102309771D01*
X156403700Y-102309770D01*
X156470119Y-102194730D01*
X156504500Y-102066419D01*
X156504500Y-101933581D01*
X156470119Y-101805270D01*
X156403700Y-101690230D01*
X156403698Y-101690228D01*
X156403694Y-101690223D01*
X156309776Y-101596305D01*
X156309766Y-101596297D01*
X156194730Y-101529881D01*
X156177029Y-101525138D01*
X165246051Y-101525138D01*
X165246051Y-101622936D01*
X166000038Y-101622936D01*
X166000038Y-101876936D01*
X165246051Y-101876936D01*
X165246051Y-101974733D01*
X165278627Y-102222177D01*
X165343226Y-102463265D01*
X165343228Y-102463269D01*
X165438743Y-102693861D01*
X165438748Y-102693872D01*
X165563536Y-102910012D01*
X165715478Y-103108025D01*
X165715491Y-103108039D01*
X165891947Y-103284495D01*
X165891961Y-103284508D01*
X166089974Y-103436450D01*
X166306114Y-103561238D01*
X166306125Y-103561243D01*
X166536717Y-103656758D01*
X166536721Y-103656760D01*
X166777809Y-103721359D01*
X167023050Y-103753645D01*
X167023051Y-103753644D01*
X167023051Y-102993229D01*
X167059543Y-102999009D01*
X167240559Y-102999009D01*
X167277051Y-102993229D01*
X167277051Y-103753645D01*
X167522292Y-103721359D01*
X167763380Y-103656760D01*
X167763384Y-103656758D01*
X167993976Y-103561243D01*
X167993987Y-103561238D01*
X168210127Y-103436450D01*
X168408140Y-103284508D01*
X168408154Y-103284495D01*
X168584610Y-103108039D01*
X168584623Y-103108025D01*
X168736565Y-102910012D01*
X168861353Y-102693872D01*
X168861358Y-102693861D01*
X168956873Y-102463269D01*
X168956875Y-102463265D01*
X169021474Y-102222177D01*
X169054050Y-101974733D01*
X169054051Y-101974724D01*
X169054051Y-101876936D01*
X168300064Y-101876936D01*
X168300064Y-101622936D01*
X169054051Y-101622936D01*
X169054051Y-101525148D01*
X169054050Y-101525138D01*
X176445949Y-101525138D01*
X176445949Y-101622936D01*
X177199936Y-101622936D01*
X177199936Y-101876936D01*
X176445949Y-101876936D01*
X176445949Y-101974733D01*
X176478525Y-102222177D01*
X176543124Y-102463265D01*
X176543126Y-102463269D01*
X176638641Y-102693861D01*
X176638646Y-102693872D01*
X176763434Y-102910012D01*
X176915376Y-103108025D01*
X176915389Y-103108039D01*
X177091845Y-103284495D01*
X177091859Y-103284508D01*
X177289872Y-103436450D01*
X177506012Y-103561238D01*
X177506023Y-103561243D01*
X177736615Y-103656758D01*
X177736619Y-103656760D01*
X177977707Y-103721359D01*
X178222948Y-103753645D01*
X178222949Y-103753644D01*
X178222949Y-102993229D01*
X178259441Y-102999009D01*
X178440457Y-102999009D01*
X178476949Y-102993229D01*
X178476949Y-103753645D01*
X178722190Y-103721359D01*
X178963278Y-103656760D01*
X178963282Y-103656758D01*
X179193874Y-103561243D01*
X179193885Y-103561238D01*
X179410025Y-103436450D01*
X179608038Y-103284508D01*
X179608052Y-103284495D01*
X179784508Y-103108039D01*
X179784521Y-103108025D01*
X179936463Y-102910012D01*
X180061251Y-102693872D01*
X180061256Y-102693861D01*
X180156771Y-102463269D01*
X180156773Y-102463265D01*
X180221372Y-102222177D01*
X180253948Y-101974733D01*
X180253949Y-101974724D01*
X180253949Y-101876936D01*
X179499962Y-101876936D01*
X179499962Y-101622936D01*
X180253949Y-101622936D01*
X180253949Y-101525148D01*
X180253948Y-101525138D01*
X180221372Y-101277694D01*
X180156773Y-101036606D01*
X180156771Y-101036602D01*
X180061256Y-100806010D01*
X180061251Y-100805999D01*
X179936463Y-100589859D01*
X179784521Y-100391846D01*
X179784508Y-100391832D01*
X179608052Y-100215376D01*
X179608038Y-100215363D01*
X179410025Y-100063421D01*
X179193885Y-99938633D01*
X179193874Y-99938628D01*
X178963282Y-99843113D01*
X178963278Y-99843111D01*
X178722190Y-99778512D01*
X178476949Y-99746225D01*
X178476949Y-100506642D01*
X178440457Y-100500863D01*
X178259441Y-100500863D01*
X178222949Y-100506642D01*
X178222949Y-99746226D01*
X178222948Y-99746225D01*
X177977707Y-99778512D01*
X177736619Y-99843111D01*
X177736615Y-99843113D01*
X177506023Y-99938628D01*
X177506012Y-99938633D01*
X177289872Y-100063421D01*
X177091859Y-100215363D01*
X177091845Y-100215376D01*
X176915389Y-100391832D01*
X176915376Y-100391846D01*
X176763434Y-100589859D01*
X176638646Y-100805999D01*
X176638641Y-100806010D01*
X176543126Y-101036602D01*
X176543124Y-101036606D01*
X176478525Y-101277694D01*
X176445949Y-101525138D01*
X169054050Y-101525138D01*
X169021474Y-101277694D01*
X168956875Y-101036606D01*
X168956873Y-101036602D01*
X168861358Y-100806010D01*
X168861353Y-100805999D01*
X168736565Y-100589859D01*
X168584623Y-100391846D01*
X168584610Y-100391832D01*
X168408154Y-100215376D01*
X168408140Y-100215363D01*
X168210127Y-100063421D01*
X167993987Y-99938633D01*
X167993976Y-99938628D01*
X167763384Y-99843113D01*
X167763380Y-99843111D01*
X167522292Y-99778512D01*
X167277051Y-99746225D01*
X167277051Y-100506642D01*
X167240559Y-100500863D01*
X167059543Y-100500863D01*
X167023051Y-100506642D01*
X167023051Y-99746226D01*
X167023050Y-99746225D01*
X166777809Y-99778512D01*
X166536721Y-99843111D01*
X166536717Y-99843113D01*
X166306125Y-99938628D01*
X166306114Y-99938633D01*
X166089974Y-100063421D01*
X165891961Y-100215363D01*
X165891947Y-100215376D01*
X165715491Y-100391832D01*
X165715478Y-100391846D01*
X165563536Y-100589859D01*
X165438748Y-100805999D01*
X165438743Y-100806010D01*
X165343228Y-101036602D01*
X165343226Y-101036606D01*
X165278627Y-101277694D01*
X165246051Y-101525138D01*
X156177029Y-101525138D01*
X156066419Y-101495500D01*
X155933581Y-101495500D01*
X155853779Y-101516883D01*
X155805269Y-101529881D01*
X155690233Y-101596297D01*
X155690223Y-101596305D01*
X155596305Y-101690223D01*
X155596297Y-101690233D01*
X155529881Y-101805269D01*
X155495500Y-101933582D01*
X155495500Y-102066417D01*
X155495499Y-102066417D01*
X155529881Y-102194730D01*
X155600429Y-102316922D01*
X155598567Y-102317996D01*
X155620063Y-102373591D01*
X155620500Y-102384079D01*
X155620500Y-103337839D01*
X155600498Y-103405960D01*
X155583595Y-103426934D01*
X155570305Y-103440223D01*
X155570297Y-103440233D01*
X155503881Y-103555269D01*
X155486690Y-103619425D01*
X155480889Y-103641079D01*
X155469500Y-103683582D01*
X155469500Y-103816417D01*
X155469499Y-103816417D01*
X153881500Y-103816417D01*
X153881500Y-100486284D01*
X153901502Y-100418163D01*
X153918400Y-100397194D01*
X157212918Y-97102675D01*
X157275228Y-97068651D01*
X157346043Y-97073716D01*
X157402879Y-97116263D01*
X157411130Y-97128772D01*
X157446607Y-97190221D01*
X157446615Y-97190231D01*
X157549768Y-97293384D01*
X157549773Y-97293388D01*
X157549775Y-97293390D01*
X157676126Y-97366339D01*
X157817051Y-97404100D01*
X157817053Y-97404100D01*
X157962947Y-97404100D01*
X157962949Y-97404100D01*
X158103874Y-97366339D01*
X158230225Y-97293390D01*
X158333390Y-97190225D01*
X158333394Y-97190217D01*
X158338417Y-97183673D01*
X158339611Y-97184589D01*
X158358651Y-97168090D01*
X158382262Y-97145578D01*
X158385311Y-97144990D01*
X158387658Y-97142957D01*
X158419945Y-97138314D01*
X158451976Y-97132141D01*
X158454858Y-97133294D01*
X158457932Y-97132853D01*
X158487595Y-97146400D01*
X158517887Y-97158527D01*
X158519689Y-97161057D01*
X158522512Y-97162347D01*
X158540138Y-97189774D01*
X158559070Y-97216359D01*
X158559724Y-97220249D01*
X158560896Y-97222073D01*
X158565232Y-97252233D01*
X158565999Y-97253000D01*
X159020000Y-97253000D01*
X159020000Y-97507000D01*
X158566000Y-97507000D01*
X158566000Y-98004264D01*
X158594976Y-98149934D01*
X158594978Y-98149939D01*
X158651814Y-98287152D01*
X158734327Y-98410642D01*
X158734332Y-98410649D01*
X158839350Y-98515667D01*
X158839357Y-98515672D01*
X158962847Y-98598185D01*
X159100067Y-98655024D01*
X159100070Y-98655025D01*
X159192999Y-98673509D01*
X159193000Y-98673509D01*
X159193000Y-98203087D01*
X159204204Y-98209556D01*
X159280504Y-98230000D01*
X159359496Y-98230000D01*
X159435796Y-98209556D01*
X159447000Y-98203087D01*
X159447000Y-98673509D01*
X159539929Y-98655025D01*
X159539932Y-98655024D01*
X159677152Y-98598185D01*
X159800642Y-98515672D01*
X159800649Y-98515667D01*
X159905667Y-98410649D01*
X159905672Y-98410642D01*
X159988185Y-98287152D01*
X160045021Y-98149939D01*
X160045023Y-98149934D01*
X160073999Y-98004264D01*
X160074000Y-98004260D01*
X160074000Y-97507000D01*
X159620000Y-97507000D01*
X159620000Y-97253000D01*
X160074000Y-97253000D01*
X160074000Y-96755739D01*
X160073999Y-96755735D01*
X160045023Y-96610065D01*
X160045021Y-96610060D01*
X159988185Y-96472847D01*
X159905672Y-96349357D01*
X159905667Y-96349350D01*
X159887014Y-96330697D01*
X159852988Y-96268385D01*
X159858053Y-96197570D01*
X159887012Y-96152509D01*
X162000019Y-94039502D01*
X162058667Y-94007477D01*
X162058442Y-94006637D01*
X162061906Y-94005708D01*
X162062329Y-94005478D01*
X162063581Y-94005259D01*
X162066414Y-94004500D01*
X162066419Y-94004500D01*
X162194730Y-93970119D01*
X162309770Y-93903700D01*
X162403700Y-93809770D01*
X162470119Y-93694730D01*
X162504500Y-93566419D01*
X162504500Y-93433581D01*
X162470119Y-93305270D01*
X162403700Y-93190230D01*
X162403698Y-93190228D01*
X162403694Y-93190223D01*
X162309776Y-93096305D01*
X162309766Y-93096297D01*
X162194730Y-93029881D01*
X162066419Y-92995500D01*
X161933581Y-92995500D01*
X161871428Y-93012154D01*
X161805269Y-93029881D01*
X161690233Y-93096297D01*
X161690223Y-93096305D01*
X161596305Y-93190223D01*
X161596297Y-93190233D01*
X161529881Y-93305269D01*
X161493363Y-93441558D01*
X161490389Y-93440761D01*
X161467570Y-93492295D01*
X161460495Y-93499981D01*
X159376882Y-95583595D01*
X159314570Y-95617620D01*
X159287787Y-95620500D01*
X157832031Y-95620500D01*
X157832015Y-95620499D01*
X157824297Y-95620499D01*
X157723847Y-95620499D01*
X157675333Y-95633498D01*
X157626817Y-95646498D01*
X157539828Y-95696721D01*
X157539818Y-95696729D01*
X154258949Y-98977600D01*
X153265753Y-99970796D01*
X153242051Y-99994498D01*
X153194725Y-100041823D01*
X153194721Y-100041828D01*
X153144500Y-100128813D01*
X153144499Y-100128818D01*
X153123004Y-100209040D01*
X153118500Y-100225848D01*
X153118500Y-103337995D01*
X153098498Y-103406116D01*
X153044842Y-103452609D01*
X152974568Y-103462713D01*
X152909988Y-103433219D01*
X152871604Y-103373493D01*
X152868921Y-103362577D01*
X152861777Y-103326660D01*
X152812440Y-103207549D01*
X152740812Y-103100351D01*
X152740807Y-103100345D01*
X152649654Y-103009192D01*
X152649648Y-103009187D01*
X152592036Y-102970692D01*
X152542451Y-102937560D01*
X152423340Y-102888223D01*
X152296894Y-102863071D01*
X152296892Y-102863071D01*
X152167966Y-102863071D01*
X152167963Y-102863071D01*
X152041517Y-102888223D01*
X152041512Y-102888225D01*
X151922407Y-102937560D01*
X151815209Y-103009187D01*
X151815203Y-103009192D01*
X151724050Y-103100345D01*
X151724045Y-103100351D01*
X151652418Y-103207549D01*
X151603083Y-103326654D01*
X151603081Y-103326659D01*
X151577929Y-103453105D01*
X151577929Y-103453108D01*
X151577929Y-103582034D01*
X151603081Y-103708482D01*
X151652418Y-103827593D01*
X151724046Y-103934791D01*
X151750524Y-103961269D01*
X151784549Y-104023579D01*
X151787429Y-104050364D01*
X151787429Y-105781054D01*
X151767427Y-105849175D01*
X151750524Y-105870150D01*
X151139407Y-106481266D01*
X151117522Y-106493216D01*
X151098044Y-106508779D01*
X151086915Y-106509928D01*
X151077095Y-106515291D01*
X151052223Y-106513512D01*
X151027423Y-106516074D01*
X151017439Y-106511024D01*
X151006279Y-106510226D01*
X150986319Y-106495284D01*
X150964069Y-106484030D01*
X150953537Y-106470743D01*
X150949444Y-106467679D01*
X150941683Y-106456011D01*
X150941457Y-106455627D01*
X150903700Y-106390230D01*
X150902059Y-106388589D01*
X150896871Y-106379761D01*
X150890048Y-106352556D01*
X150879936Y-106326393D01*
X150879500Y-106315920D01*
X150879500Y-100784079D01*
X150899502Y-100715958D01*
X150902996Y-100710988D01*
X150903698Y-100709771D01*
X150903700Y-100709770D01*
X150970119Y-100594730D01*
X151004500Y-100466419D01*
X151004500Y-100333581D01*
X150970119Y-100205270D01*
X150903700Y-100090230D01*
X150903698Y-100090228D01*
X150903694Y-100090223D01*
X150809776Y-99996305D01*
X150809766Y-99996297D01*
X150694730Y-99929881D01*
X150670852Y-99923483D01*
X150566419Y-99895500D01*
X150433581Y-99895500D01*
X150348040Y-99918420D01*
X150305269Y-99929881D01*
X150190233Y-99996297D01*
X150190223Y-99996305D01*
X150096305Y-100090223D01*
X150096297Y-100090233D01*
X150029881Y-100205269D01*
X150027173Y-100215376D01*
X149997532Y-100326000D01*
X149995500Y-100333582D01*
X149995500Y-100466417D01*
X149995499Y-100466417D01*
X150029881Y-100594730D01*
X150100429Y-100716922D01*
X150098567Y-100717996D01*
X150120063Y-100773591D01*
X150120500Y-100784079D01*
X150120500Y-106315920D01*
X150100498Y-106384041D01*
X150097003Y-106389011D01*
X150029881Y-106505269D01*
X150027196Y-106515291D01*
X149999179Y-106619853D01*
X149995500Y-106633582D01*
X149995500Y-106766417D01*
X149995499Y-106766417D01*
X150029881Y-106894730D01*
X150096297Y-107009766D01*
X150096305Y-107009776D01*
X150190223Y-107103694D01*
X150190227Y-107103697D01*
X150190230Y-107103700D01*
X150255171Y-107141194D01*
X150272701Y-107159579D01*
X150293037Y-107174802D01*
X150296777Y-107184830D01*
X150304164Y-107192577D01*
X150308970Y-107217520D01*
X150317849Y-107241322D01*
X150315573Y-107251782D01*
X150317599Y-107262291D01*
X150308159Y-107285870D01*
X150302759Y-107310697D01*
X150293001Y-107323730D01*
X150291212Y-107328202D01*
X150281267Y-107339407D01*
X150250177Y-107370496D01*
X150187868Y-107404521D01*
X150161083Y-107407401D01*
X150048809Y-107407401D01*
X149980688Y-107387399D01*
X149959714Y-107370496D01*
X148605948Y-106016729D01*
X148605938Y-106016721D01*
X148518953Y-105966500D01*
X148507487Y-105963427D01*
X148421920Y-105940500D01*
X134127775Y-105940500D01*
X134068390Y-105956412D01*
X134030741Y-105966500D01*
X133943756Y-106016721D01*
X133943746Y-106016729D01*
X132901881Y-107058595D01*
X132839569Y-107092621D01*
X132812786Y-107095500D01*
X132685534Y-107095500D01*
X132559088Y-107120652D01*
X132559083Y-107120654D01*
X132439978Y-107169989D01*
X132332780Y-107241616D01*
X132241615Y-107332782D01*
X132237189Y-107339407D01*
X132219984Y-107365155D01*
X132165509Y-107410682D01*
X132115220Y-107421153D01*
X120793641Y-107421153D01*
X120725520Y-107401151D01*
X120704546Y-107384248D01*
X120614572Y-107294274D01*
X120614566Y-107294269D01*
X120566707Y-107262291D01*
X120507369Y-107222642D01*
X120388258Y-107173305D01*
X120372241Y-107170119D01*
X120261812Y-107148153D01*
X120261810Y-107148153D01*
X120132884Y-107148153D01*
X120132881Y-107148153D01*
X120006435Y-107173305D01*
X120006430Y-107173307D01*
X119887325Y-107222642D01*
X119780127Y-107294269D01*
X119780121Y-107294274D01*
X119688968Y-107385427D01*
X119688963Y-107385433D01*
X119617336Y-107492631D01*
X119568001Y-107611736D01*
X119567999Y-107611741D01*
X119542847Y-107738187D01*
X96152900Y-107738187D01*
X96152900Y-102315073D01*
X102040900Y-102315073D01*
X102040900Y-102484927D01*
X102067471Y-102652690D01*
X102119959Y-102814231D01*
X102187312Y-102946418D01*
X102197072Y-102965574D01*
X102296908Y-103102988D01*
X102417011Y-103223091D01*
X102554425Y-103322927D01*
X102554428Y-103322929D01*
X102705769Y-103400041D01*
X102867310Y-103452529D01*
X103035073Y-103479100D01*
X103035076Y-103479100D01*
X103204924Y-103479100D01*
X103204927Y-103479100D01*
X103372690Y-103452529D01*
X103534231Y-103400041D01*
X103685572Y-103322929D01*
X103822987Y-103223092D01*
X103943092Y-103102987D01*
X104042929Y-102965572D01*
X104120041Y-102814231D01*
X104172529Y-102652690D01*
X104199100Y-102484927D01*
X104199100Y-102315073D01*
X104189410Y-102253894D01*
X105970900Y-102253894D01*
X105970900Y-102546105D01*
X106009038Y-102835801D01*
X106084667Y-103118053D01*
X106084668Y-103118055D01*
X106084669Y-103118058D01*
X106196491Y-103388021D01*
X106196492Y-103388022D01*
X106196497Y-103388033D01*
X106342591Y-103641075D01*
X106342596Y-103641082D01*
X106520470Y-103872892D01*
X106520489Y-103872913D01*
X106727086Y-104079510D01*
X106727107Y-104079529D01*
X106958917Y-104257403D01*
X106958924Y-104257408D01*
X107211966Y-104403502D01*
X107211970Y-104403503D01*
X107211979Y-104403509D01*
X107481942Y-104515331D01*
X107764191Y-104590960D01*
X107764197Y-104590960D01*
X107764198Y-104590961D01*
X107797446Y-104595338D01*
X108053897Y-104629100D01*
X108053904Y-104629100D01*
X108346096Y-104629100D01*
X108346103Y-104629100D01*
X108635809Y-104590960D01*
X108918058Y-104515331D01*
X109188021Y-104403509D01*
X109441079Y-104257406D01*
X109672901Y-104079522D01*
X109879522Y-103872901D01*
X110057406Y-103641079D01*
X110203509Y-103388021D01*
X110315331Y-103118058D01*
X110390960Y-102835809D01*
X110429100Y-102546103D01*
X110429100Y-102315073D01*
X112200900Y-102315073D01*
X112200900Y-102484927D01*
X112227471Y-102652690D01*
X112279959Y-102814231D01*
X112347312Y-102946418D01*
X112357072Y-102965574D01*
X112456908Y-103102988D01*
X112577011Y-103223091D01*
X112714425Y-103322927D01*
X112714428Y-103322929D01*
X112865769Y-103400041D01*
X113027310Y-103452529D01*
X113195073Y-103479100D01*
X113195076Y-103479100D01*
X113364924Y-103479100D01*
X113364927Y-103479100D01*
X113532690Y-103452529D01*
X113694231Y-103400041D01*
X113845572Y-103322929D01*
X113982987Y-103223092D01*
X114103092Y-103102987D01*
X114202929Y-102965572D01*
X114280041Y-102814231D01*
X114332529Y-102652690D01*
X114359100Y-102484927D01*
X114359100Y-102315073D01*
X118040900Y-102315073D01*
X118040900Y-102484927D01*
X118067471Y-102652690D01*
X118119959Y-102814231D01*
X118187312Y-102946418D01*
X118197072Y-102965574D01*
X118296908Y-103102988D01*
X118417011Y-103223091D01*
X118554425Y-103322927D01*
X118554428Y-103322929D01*
X118705769Y-103400041D01*
X118867310Y-103452529D01*
X119035073Y-103479100D01*
X119035076Y-103479100D01*
X119204924Y-103479100D01*
X119204927Y-103479100D01*
X119372690Y-103452529D01*
X119534231Y-103400041D01*
X119685572Y-103322929D01*
X119822987Y-103223092D01*
X119943092Y-103102987D01*
X120042929Y-102965572D01*
X120120041Y-102814231D01*
X120172529Y-102652690D01*
X120199100Y-102484927D01*
X120199100Y-102315073D01*
X120189410Y-102253894D01*
X121970900Y-102253894D01*
X121970900Y-102546105D01*
X122009038Y-102835801D01*
X122084667Y-103118053D01*
X122084668Y-103118055D01*
X122084669Y-103118058D01*
X122196491Y-103388021D01*
X122196492Y-103388022D01*
X122196497Y-103388033D01*
X122342591Y-103641075D01*
X122342596Y-103641082D01*
X122520470Y-103872892D01*
X122520489Y-103872913D01*
X122727086Y-104079510D01*
X122727107Y-104079529D01*
X122958917Y-104257403D01*
X122958924Y-104257408D01*
X123211966Y-104403502D01*
X123211970Y-104403503D01*
X123211979Y-104403509D01*
X123481942Y-104515331D01*
X123764191Y-104590960D01*
X123764197Y-104590960D01*
X123764198Y-104590961D01*
X123797446Y-104595338D01*
X124053897Y-104629100D01*
X124053904Y-104629100D01*
X124346096Y-104629100D01*
X124346103Y-104629100D01*
X124635809Y-104590960D01*
X124918058Y-104515331D01*
X125188021Y-104403509D01*
X125441079Y-104257406D01*
X125672901Y-104079522D01*
X125879522Y-103872901D01*
X126057406Y-103641079D01*
X126203509Y-103388021D01*
X126315331Y-103118058D01*
X126390960Y-102835809D01*
X126429100Y-102546103D01*
X126429100Y-102315073D01*
X128200900Y-102315073D01*
X128200900Y-102484927D01*
X128227471Y-102652690D01*
X128279959Y-102814231D01*
X128347312Y-102946418D01*
X128357072Y-102965574D01*
X128456908Y-103102988D01*
X128577011Y-103223091D01*
X128714425Y-103322927D01*
X128714428Y-103322929D01*
X128865769Y-103400041D01*
X129027310Y-103452529D01*
X129195073Y-103479100D01*
X129195076Y-103479100D01*
X129364924Y-103479100D01*
X129364927Y-103479100D01*
X129532690Y-103452529D01*
X129694231Y-103400041D01*
X129845572Y-103322929D01*
X129982987Y-103223092D01*
X130103092Y-103102987D01*
X130202929Y-102965572D01*
X130280041Y-102814231D01*
X130332529Y-102652690D01*
X130359100Y-102484927D01*
X130359100Y-102315073D01*
X134040900Y-102315073D01*
X134040900Y-102484927D01*
X134067471Y-102652690D01*
X134119959Y-102814231D01*
X134187312Y-102946418D01*
X134197072Y-102965574D01*
X134296908Y-103102988D01*
X134417011Y-103223091D01*
X134554425Y-103322927D01*
X134554428Y-103322929D01*
X134705769Y-103400041D01*
X134867310Y-103452529D01*
X135035073Y-103479100D01*
X135035076Y-103479100D01*
X135204924Y-103479100D01*
X135204927Y-103479100D01*
X135372690Y-103452529D01*
X135534231Y-103400041D01*
X135685572Y-103322929D01*
X135822987Y-103223092D01*
X135943092Y-103102987D01*
X136042929Y-102965572D01*
X136120041Y-102814231D01*
X136172529Y-102652690D01*
X136199100Y-102484927D01*
X136199100Y-102315073D01*
X136189410Y-102253894D01*
X137970900Y-102253894D01*
X137970900Y-102546105D01*
X138009038Y-102835801D01*
X138084667Y-103118053D01*
X138084668Y-103118055D01*
X138084669Y-103118058D01*
X138196491Y-103388021D01*
X138196492Y-103388022D01*
X138196497Y-103388033D01*
X138342591Y-103641075D01*
X138342596Y-103641082D01*
X138520470Y-103872892D01*
X138520489Y-103872913D01*
X138727086Y-104079510D01*
X138727107Y-104079529D01*
X138958917Y-104257403D01*
X138958924Y-104257408D01*
X139211966Y-104403502D01*
X139211970Y-104403503D01*
X139211979Y-104403509D01*
X139481942Y-104515331D01*
X139764191Y-104590960D01*
X139764197Y-104590960D01*
X139764198Y-104590961D01*
X139797446Y-104595338D01*
X140053897Y-104629100D01*
X140053904Y-104629100D01*
X140346096Y-104629100D01*
X140346103Y-104629100D01*
X140635809Y-104590960D01*
X140918058Y-104515331D01*
X141188021Y-104403509D01*
X141441079Y-104257406D01*
X141672901Y-104079522D01*
X141879522Y-103872901D01*
X142057406Y-103641079D01*
X142203509Y-103388021D01*
X142315331Y-103118058D01*
X142390960Y-102835809D01*
X142429100Y-102546103D01*
X142429100Y-102315073D01*
X144200900Y-102315073D01*
X144200900Y-102484927D01*
X144227471Y-102652690D01*
X144279959Y-102814231D01*
X144347312Y-102946418D01*
X144357072Y-102965574D01*
X144456908Y-103102988D01*
X144577011Y-103223091D01*
X144714425Y-103322927D01*
X144714428Y-103322929D01*
X144865769Y-103400041D01*
X145027310Y-103452529D01*
X145195073Y-103479100D01*
X145195076Y-103479100D01*
X145364924Y-103479100D01*
X145364927Y-103479100D01*
X145532690Y-103452529D01*
X145694231Y-103400041D01*
X145845572Y-103322929D01*
X145982987Y-103223092D01*
X146103092Y-103102987D01*
X146202929Y-102965572D01*
X146280041Y-102814231D01*
X146332529Y-102652690D01*
X146359100Y-102484927D01*
X146359100Y-102315073D01*
X146332529Y-102147310D01*
X146280041Y-101985769D01*
X146202929Y-101834428D01*
X146103092Y-101697013D01*
X146103091Y-101697011D01*
X145982988Y-101576908D01*
X145845574Y-101477072D01*
X145839915Y-101474189D01*
X145694231Y-101399959D01*
X145532690Y-101347471D01*
X145364927Y-101320900D01*
X145195073Y-101320900D01*
X145027310Y-101347471D01*
X145027307Y-101347471D01*
X145027306Y-101347472D01*
X144865769Y-101399959D01*
X144865767Y-101399960D01*
X144714425Y-101477072D01*
X144577011Y-101576908D01*
X144456908Y-101697011D01*
X144357072Y-101834425D01*
X144290950Y-101964198D01*
X144279959Y-101985769D01*
X144227471Y-102147310D01*
X144200900Y-102315073D01*
X142429100Y-102315073D01*
X142429100Y-102253897D01*
X142393801Y-101985769D01*
X142390961Y-101964198D01*
X142390960Y-101964197D01*
X142390960Y-101964191D01*
X142315331Y-101681942D01*
X142203509Y-101411979D01*
X142203503Y-101411970D01*
X142203502Y-101411966D01*
X142057408Y-101158924D01*
X142057403Y-101158917D01*
X141879529Y-100927107D01*
X141879510Y-100927086D01*
X141672913Y-100720489D01*
X141672892Y-100720470D01*
X141441082Y-100542596D01*
X141441075Y-100542591D01*
X141188033Y-100396497D01*
X141188025Y-100396493D01*
X141188021Y-100396491D01*
X140918058Y-100284669D01*
X140918055Y-100284668D01*
X140918053Y-100284667D01*
X140659455Y-100215376D01*
X140635809Y-100209040D01*
X140635807Y-100209039D01*
X140635801Y-100209038D01*
X140346105Y-100170900D01*
X140346103Y-100170900D01*
X140053897Y-100170900D01*
X140053894Y-100170900D01*
X139764198Y-100209038D01*
X139481946Y-100284667D01*
X139481942Y-100284669D01*
X139251918Y-100379948D01*
X139211977Y-100396492D01*
X139211966Y-100396497D01*
X138958924Y-100542591D01*
X138958917Y-100542596D01*
X138727107Y-100720470D01*
X138727086Y-100720489D01*
X138520489Y-100927086D01*
X138520470Y-100927107D01*
X138342596Y-101158917D01*
X138342591Y-101158924D01*
X138196497Y-101411966D01*
X138196492Y-101411977D01*
X138196491Y-101411979D01*
X138109110Y-101622936D01*
X138084669Y-101681942D01*
X138084667Y-101681946D01*
X138009038Y-101964198D01*
X137970900Y-102253894D01*
X136189410Y-102253894D01*
X136172529Y-102147310D01*
X136120041Y-101985769D01*
X136042929Y-101834428D01*
X135943092Y-101697013D01*
X135943091Y-101697011D01*
X135822988Y-101576908D01*
X135685574Y-101477072D01*
X135679915Y-101474189D01*
X135534231Y-101399959D01*
X135372690Y-101347471D01*
X135204927Y-101320900D01*
X135035073Y-101320900D01*
X134867310Y-101347471D01*
X134867307Y-101347471D01*
X134867306Y-101347472D01*
X134705769Y-101399959D01*
X134705767Y-101399960D01*
X134554425Y-101477072D01*
X134417011Y-101576908D01*
X134296908Y-101697011D01*
X134197072Y-101834425D01*
X134130950Y-101964198D01*
X134119959Y-101985769D01*
X134067471Y-102147310D01*
X134040900Y-102315073D01*
X130359100Y-102315073D01*
X130332529Y-102147310D01*
X130280041Y-101985769D01*
X130202929Y-101834428D01*
X130103092Y-101697013D01*
X130103091Y-101697011D01*
X129982988Y-101576908D01*
X129845574Y-101477072D01*
X129839915Y-101474189D01*
X129694231Y-101399959D01*
X129532690Y-101347471D01*
X129364927Y-101320900D01*
X129195073Y-101320900D01*
X129027310Y-101347471D01*
X129027307Y-101347471D01*
X129027306Y-101347472D01*
X128865769Y-101399959D01*
X128865767Y-101399960D01*
X128714425Y-101477072D01*
X128577011Y-101576908D01*
X128456908Y-101697011D01*
X128357072Y-101834425D01*
X128290950Y-101964198D01*
X128279959Y-101985769D01*
X128227471Y-102147310D01*
X128200900Y-102315073D01*
X126429100Y-102315073D01*
X126429100Y-102253897D01*
X126393801Y-101985769D01*
X126390961Y-101964198D01*
X126390960Y-101964197D01*
X126390960Y-101964191D01*
X126315331Y-101681942D01*
X126203509Y-101411979D01*
X126203503Y-101411970D01*
X126203502Y-101411966D01*
X126057408Y-101158924D01*
X126057403Y-101158917D01*
X125879529Y-100927107D01*
X125879510Y-100927086D01*
X125672913Y-100720489D01*
X125672892Y-100720470D01*
X125441082Y-100542596D01*
X125441075Y-100542591D01*
X125188033Y-100396497D01*
X125188025Y-100396493D01*
X125188021Y-100396491D01*
X124918058Y-100284669D01*
X124918055Y-100284668D01*
X124918053Y-100284667D01*
X124659455Y-100215376D01*
X124635809Y-100209040D01*
X124635807Y-100209039D01*
X124635801Y-100209038D01*
X124346105Y-100170900D01*
X124346103Y-100170900D01*
X124053897Y-100170900D01*
X124053894Y-100170900D01*
X123764198Y-100209038D01*
X123481946Y-100284667D01*
X123481942Y-100284669D01*
X123251918Y-100379948D01*
X123211977Y-100396492D01*
X123211966Y-100396497D01*
X122958924Y-100542591D01*
X122958917Y-100542596D01*
X122727107Y-100720470D01*
X122727086Y-100720489D01*
X122520489Y-100927086D01*
X122520470Y-100927107D01*
X122342596Y-101158917D01*
X122342591Y-101158924D01*
X122196497Y-101411966D01*
X122196492Y-101411977D01*
X122196491Y-101411979D01*
X122109110Y-101622936D01*
X122084669Y-101681942D01*
X122084667Y-101681946D01*
X122009038Y-101964198D01*
X121970900Y-102253894D01*
X120189410Y-102253894D01*
X120172529Y-102147310D01*
X120120041Y-101985769D01*
X120042929Y-101834428D01*
X119943092Y-101697013D01*
X119943091Y-101697011D01*
X119822988Y-101576908D01*
X119685574Y-101477072D01*
X119679915Y-101474189D01*
X119534231Y-101399959D01*
X119372690Y-101347471D01*
X119204927Y-101320900D01*
X119035073Y-101320900D01*
X118867310Y-101347471D01*
X118867307Y-101347471D01*
X118867306Y-101347472D01*
X118705769Y-101399959D01*
X118705767Y-101399960D01*
X118554425Y-101477072D01*
X118417011Y-101576908D01*
X118296908Y-101697011D01*
X118197072Y-101834425D01*
X118130950Y-101964198D01*
X118119959Y-101985769D01*
X118067471Y-102147310D01*
X118040900Y-102315073D01*
X114359100Y-102315073D01*
X114332529Y-102147310D01*
X114280041Y-101985769D01*
X114202929Y-101834428D01*
X114103092Y-101697013D01*
X114103091Y-101697011D01*
X113982988Y-101576908D01*
X113845574Y-101477072D01*
X113839915Y-101474189D01*
X113694231Y-101399959D01*
X113532690Y-101347471D01*
X113364927Y-101320900D01*
X113195073Y-101320900D01*
X113027310Y-101347471D01*
X113027307Y-101347471D01*
X113027306Y-101347472D01*
X112865769Y-101399959D01*
X112865767Y-101399960D01*
X112714425Y-101477072D01*
X112577011Y-101576908D01*
X112456908Y-101697011D01*
X112357072Y-101834425D01*
X112290950Y-101964198D01*
X112279959Y-101985769D01*
X112227471Y-102147310D01*
X112200900Y-102315073D01*
X110429100Y-102315073D01*
X110429100Y-102253897D01*
X110393801Y-101985769D01*
X110390961Y-101964198D01*
X110390960Y-101964197D01*
X110390960Y-101964191D01*
X110315331Y-101681942D01*
X110203509Y-101411979D01*
X110203503Y-101411970D01*
X110203502Y-101411966D01*
X110057408Y-101158924D01*
X110057403Y-101158917D01*
X109879529Y-100927107D01*
X109879510Y-100927086D01*
X109672913Y-100720489D01*
X109672892Y-100720470D01*
X109441082Y-100542596D01*
X109441075Y-100542591D01*
X109188033Y-100396497D01*
X109188025Y-100396493D01*
X109188021Y-100396491D01*
X108918058Y-100284669D01*
X108918055Y-100284668D01*
X108918053Y-100284667D01*
X108659455Y-100215376D01*
X108635809Y-100209040D01*
X108635807Y-100209039D01*
X108635801Y-100209038D01*
X108346105Y-100170900D01*
X108346103Y-100170900D01*
X108053897Y-100170900D01*
X108053894Y-100170900D01*
X107764198Y-100209038D01*
X107481946Y-100284667D01*
X107481942Y-100284669D01*
X107251918Y-100379948D01*
X107211977Y-100396492D01*
X107211966Y-100396497D01*
X106958924Y-100542591D01*
X106958917Y-100542596D01*
X106727107Y-100720470D01*
X106727086Y-100720489D01*
X106520489Y-100927086D01*
X106520470Y-100927107D01*
X106342596Y-101158917D01*
X106342591Y-101158924D01*
X106196497Y-101411966D01*
X106196492Y-101411977D01*
X106196491Y-101411979D01*
X106109110Y-101622936D01*
X106084669Y-101681942D01*
X106084667Y-101681946D01*
X106009038Y-101964198D01*
X105970900Y-102253894D01*
X104189410Y-102253894D01*
X104172529Y-102147310D01*
X104120041Y-101985769D01*
X104042929Y-101834428D01*
X103943092Y-101697013D01*
X103943091Y-101697011D01*
X103822988Y-101576908D01*
X103685574Y-101477072D01*
X103679915Y-101474189D01*
X103534231Y-101399959D01*
X103372690Y-101347471D01*
X103204927Y-101320900D01*
X103035073Y-101320900D01*
X102867310Y-101347471D01*
X102867307Y-101347471D01*
X102867306Y-101347472D01*
X102705769Y-101399959D01*
X102705767Y-101399960D01*
X102554425Y-101477072D01*
X102417011Y-101576908D01*
X102296908Y-101697011D01*
X102197072Y-101834425D01*
X102130950Y-101964198D01*
X102119959Y-101985769D01*
X102067471Y-102147310D01*
X102040900Y-102315073D01*
X96152900Y-102315073D01*
X96152900Y-99753399D01*
X103035500Y-99753399D01*
X103035500Y-99966601D01*
X103068853Y-100177179D01*
X103068854Y-100177183D01*
X103133197Y-100375213D01*
X103134736Y-100379947D01*
X103226374Y-100559797D01*
X103231530Y-100569916D01*
X103356847Y-100742399D01*
X103507600Y-100893152D01*
X103507603Y-100893154D01*
X103680087Y-101018472D01*
X103870053Y-101115264D01*
X104072821Y-101181147D01*
X104283399Y-101214500D01*
X104283402Y-101214500D01*
X104496598Y-101214500D01*
X104496601Y-101214500D01*
X104707179Y-101181147D01*
X104909947Y-101115264D01*
X105099913Y-101018472D01*
X105272397Y-100893154D01*
X105423154Y-100742397D01*
X105548472Y-100569913D01*
X105645264Y-100379947D01*
X105711147Y-100177179D01*
X105744500Y-99966601D01*
X105744500Y-99753399D01*
X119035500Y-99753399D01*
X119035500Y-99966601D01*
X119068853Y-100177179D01*
X119068854Y-100177183D01*
X119133197Y-100375213D01*
X119134736Y-100379947D01*
X119226374Y-100559797D01*
X119231530Y-100569916D01*
X119356847Y-100742399D01*
X119507600Y-100893152D01*
X119507603Y-100893154D01*
X119680087Y-101018472D01*
X119870053Y-101115264D01*
X120072821Y-101181147D01*
X120283399Y-101214500D01*
X120283402Y-101214500D01*
X120496598Y-101214500D01*
X120496601Y-101214500D01*
X120707179Y-101181147D01*
X120909947Y-101115264D01*
X121099913Y-101018472D01*
X121272397Y-100893154D01*
X121423154Y-100742397D01*
X121548472Y-100569913D01*
X121645264Y-100379947D01*
X121711147Y-100177179D01*
X121744500Y-99966601D01*
X121744500Y-99753399D01*
X135035500Y-99753399D01*
X135035500Y-99966601D01*
X135068853Y-100177179D01*
X135068854Y-100177183D01*
X135133197Y-100375213D01*
X135134736Y-100379947D01*
X135226374Y-100559797D01*
X135231530Y-100569916D01*
X135356847Y-100742399D01*
X135507600Y-100893152D01*
X135507603Y-100893154D01*
X135680087Y-101018472D01*
X135870053Y-101115264D01*
X136072821Y-101181147D01*
X136283399Y-101214500D01*
X136283402Y-101214500D01*
X136496598Y-101214500D01*
X136496601Y-101214500D01*
X136707179Y-101181147D01*
X136909947Y-101115264D01*
X137099913Y-101018472D01*
X137272397Y-100893154D01*
X137423154Y-100742397D01*
X137548472Y-100569913D01*
X137645264Y-100379947D01*
X137711147Y-100177179D01*
X137744500Y-99966601D01*
X137744500Y-99753399D01*
X137711147Y-99542821D01*
X137645264Y-99340053D01*
X137548472Y-99150087D01*
X137423154Y-98977603D01*
X137423152Y-98977600D01*
X137272399Y-98826847D01*
X137099916Y-98701530D01*
X137099915Y-98701529D01*
X137099913Y-98701528D01*
X136909947Y-98604736D01*
X136909944Y-98604735D01*
X136909942Y-98604734D01*
X136707183Y-98538854D01*
X136707181Y-98538853D01*
X136707179Y-98538853D01*
X136496601Y-98505500D01*
X136283399Y-98505500D01*
X136072821Y-98538853D01*
X136072819Y-98538853D01*
X136072816Y-98538854D01*
X135870057Y-98604734D01*
X135870051Y-98604737D01*
X135680083Y-98701530D01*
X135507600Y-98826847D01*
X135356847Y-98977600D01*
X135231530Y-99150083D01*
X135134737Y-99340051D01*
X135134734Y-99340057D01*
X135068854Y-99542816D01*
X135068853Y-99542819D01*
X135068853Y-99542821D01*
X135035500Y-99753399D01*
X121744500Y-99753399D01*
X121711147Y-99542821D01*
X121645264Y-99340053D01*
X121548472Y-99150087D01*
X121423154Y-98977603D01*
X121423152Y-98977600D01*
X121272399Y-98826847D01*
X121099916Y-98701530D01*
X121099915Y-98701529D01*
X121099913Y-98701528D01*
X120909947Y-98604736D01*
X120909944Y-98604735D01*
X120909942Y-98604734D01*
X120707183Y-98538854D01*
X120707181Y-98538853D01*
X120707179Y-98538853D01*
X120496601Y-98505500D01*
X120283399Y-98505500D01*
X120072821Y-98538853D01*
X120072819Y-98538853D01*
X120072816Y-98538854D01*
X119870057Y-98604734D01*
X119870051Y-98604737D01*
X119680083Y-98701530D01*
X119507600Y-98826847D01*
X119356847Y-98977600D01*
X119231530Y-99150083D01*
X119134737Y-99340051D01*
X119134734Y-99340057D01*
X119068854Y-99542816D01*
X119068853Y-99542819D01*
X119068853Y-99542821D01*
X119035500Y-99753399D01*
X105744500Y-99753399D01*
X105711147Y-99542821D01*
X105645264Y-99340053D01*
X105548472Y-99150087D01*
X105423154Y-98977603D01*
X105423152Y-98977600D01*
X105272399Y-98826847D01*
X105099916Y-98701530D01*
X105099915Y-98701529D01*
X105099913Y-98701528D01*
X104909947Y-98604736D01*
X104909944Y-98604735D01*
X104909942Y-98604734D01*
X104707183Y-98538854D01*
X104707181Y-98538853D01*
X104707179Y-98538853D01*
X104496601Y-98505500D01*
X104283399Y-98505500D01*
X104072821Y-98538853D01*
X104072819Y-98538853D01*
X104072816Y-98538854D01*
X103870057Y-98604734D01*
X103870051Y-98604737D01*
X103680083Y-98701530D01*
X103507600Y-98826847D01*
X103356847Y-98977600D01*
X103231530Y-99150083D01*
X103134737Y-99340051D01*
X103134734Y-99340057D01*
X103068854Y-99542816D01*
X103068853Y-99542819D01*
X103068853Y-99542821D01*
X103035500Y-99753399D01*
X96152900Y-99753399D01*
X96152900Y-97213399D01*
X109385500Y-97213399D01*
X109385500Y-97426601D01*
X109418853Y-97637179D01*
X109418854Y-97637183D01*
X109471842Y-97800265D01*
X109484736Y-97839947D01*
X109573896Y-98014934D01*
X109581530Y-98029916D01*
X109706847Y-98202399D01*
X109857600Y-98353152D01*
X109857603Y-98353154D01*
X110030087Y-98478472D01*
X110220053Y-98575264D01*
X110422821Y-98641147D01*
X110633399Y-98674500D01*
X110633402Y-98674500D01*
X110846598Y-98674500D01*
X110846601Y-98674500D01*
X111057179Y-98641147D01*
X111259947Y-98575264D01*
X111449913Y-98478472D01*
X111622397Y-98353154D01*
X111773154Y-98202397D01*
X111898472Y-98029913D01*
X111995264Y-97839947D01*
X112061147Y-97637179D01*
X112094500Y-97426601D01*
X112094500Y-97213399D01*
X125385500Y-97213399D01*
X125385500Y-97426601D01*
X125418853Y-97637179D01*
X125418854Y-97637183D01*
X125471842Y-97800265D01*
X125484736Y-97839947D01*
X125573896Y-98014934D01*
X125581530Y-98029916D01*
X125706847Y-98202399D01*
X125857600Y-98353152D01*
X125857603Y-98353154D01*
X126030087Y-98478472D01*
X126220053Y-98575264D01*
X126422821Y-98641147D01*
X126633399Y-98674500D01*
X126633402Y-98674500D01*
X126846598Y-98674500D01*
X126846601Y-98674500D01*
X127057179Y-98641147D01*
X127259947Y-98575264D01*
X127449913Y-98478472D01*
X127622397Y-98353154D01*
X127773154Y-98202397D01*
X127898472Y-98029913D01*
X127995264Y-97839947D01*
X128061147Y-97637179D01*
X128094500Y-97426601D01*
X128094500Y-97213399D01*
X141385500Y-97213399D01*
X141385500Y-97426601D01*
X141418853Y-97637179D01*
X141418854Y-97637183D01*
X141471842Y-97800265D01*
X141484736Y-97839947D01*
X141573896Y-98014934D01*
X141581530Y-98029916D01*
X141706847Y-98202399D01*
X141857600Y-98353152D01*
X141857603Y-98353154D01*
X142030087Y-98478472D01*
X142220053Y-98575264D01*
X142422821Y-98641147D01*
X142633399Y-98674500D01*
X142633402Y-98674500D01*
X142846598Y-98674500D01*
X142846601Y-98674500D01*
X143057179Y-98641147D01*
X143259947Y-98575264D01*
X143449913Y-98478472D01*
X143622397Y-98353154D01*
X143773154Y-98202397D01*
X143898472Y-98029913D01*
X143995264Y-97839947D01*
X144061147Y-97637179D01*
X144094500Y-97426601D01*
X144094500Y-97213399D01*
X144061147Y-97002821D01*
X143995264Y-96800053D01*
X143972683Y-96755735D01*
X149926000Y-96755735D01*
X149926000Y-97253000D01*
X150380000Y-97253000D01*
X150380000Y-97507000D01*
X149926000Y-97507000D01*
X149926000Y-98004264D01*
X149954976Y-98149934D01*
X149954978Y-98149939D01*
X150011814Y-98287152D01*
X150094327Y-98410642D01*
X150094332Y-98410649D01*
X150199350Y-98515667D01*
X150199357Y-98515672D01*
X150322847Y-98598185D01*
X150460067Y-98655024D01*
X150460070Y-98655025D01*
X150552999Y-98673509D01*
X150553000Y-98673509D01*
X150553000Y-98203087D01*
X150564204Y-98209556D01*
X150640504Y-98230000D01*
X150719496Y-98230000D01*
X150795796Y-98209556D01*
X150807000Y-98203087D01*
X150807000Y-98673509D01*
X150899929Y-98655025D01*
X150899932Y-98655024D01*
X151037152Y-98598185D01*
X151160642Y-98515672D01*
X151160649Y-98515667D01*
X151265667Y-98410649D01*
X151265672Y-98410642D01*
X151348185Y-98287152D01*
X151405021Y-98149939D01*
X151405023Y-98149934D01*
X151433999Y-98004264D01*
X151434000Y-98004260D01*
X151434000Y-97507000D01*
X150980000Y-97507000D01*
X150980000Y-97253000D01*
X151434001Y-97253000D01*
X151435899Y-97251101D01*
X151454002Y-97189450D01*
X151507658Y-97142957D01*
X151577932Y-97132853D01*
X151642512Y-97162347D01*
X151660687Y-97184359D01*
X151661583Y-97183673D01*
X151666615Y-97190231D01*
X151769768Y-97293384D01*
X151769773Y-97293388D01*
X151769775Y-97293390D01*
X151896126Y-97366339D01*
X152037051Y-97404100D01*
X152037053Y-97404100D01*
X152182947Y-97404100D01*
X152182949Y-97404100D01*
X152323874Y-97366339D01*
X152450225Y-97293390D01*
X152553390Y-97190225D01*
X152626339Y-97063874D01*
X152664100Y-96922949D01*
X152664100Y-96777051D01*
X152626339Y-96636126D01*
X152553390Y-96509775D01*
X152553388Y-96509773D01*
X152553384Y-96509768D01*
X152450231Y-96406615D01*
X152450221Y-96406607D01*
X152323878Y-96333663D01*
X152323875Y-96333662D01*
X152323874Y-96333661D01*
X152323872Y-96333660D01*
X152323871Y-96333660D01*
X152286111Y-96323542D01*
X152182949Y-96295900D01*
X152037051Y-96295900D01*
X151961531Y-96316135D01*
X151896128Y-96333660D01*
X151896121Y-96333663D01*
X151769778Y-96406607D01*
X151769768Y-96406615D01*
X151666615Y-96509768D01*
X151666609Y-96509776D01*
X151617861Y-96594210D01*
X151566478Y-96643203D01*
X151496764Y-96656638D01*
X151430853Y-96630251D01*
X151392333Y-96579427D01*
X151348185Y-96472847D01*
X151265672Y-96349357D01*
X151265667Y-96349350D01*
X151160649Y-96244332D01*
X151160642Y-96244327D01*
X151037152Y-96161814D01*
X150899937Y-96104977D01*
X150899934Y-96104976D01*
X150807000Y-96086490D01*
X150807000Y-96556912D01*
X150795796Y-96550444D01*
X150719496Y-96530000D01*
X150640504Y-96530000D01*
X150564204Y-96550444D01*
X150553000Y-96556912D01*
X150553000Y-96086490D01*
X150460065Y-96104976D01*
X150460062Y-96104977D01*
X150322847Y-96161814D01*
X150199357Y-96244327D01*
X150199350Y-96244332D01*
X150094332Y-96349350D01*
X150094327Y-96349357D01*
X150011814Y-96472847D01*
X149954978Y-96610060D01*
X149954976Y-96610065D01*
X149926000Y-96755735D01*
X143972683Y-96755735D01*
X143898472Y-96610087D01*
X143825591Y-96509776D01*
X143773152Y-96437600D01*
X143622399Y-96286847D01*
X143449916Y-96161530D01*
X143449915Y-96161529D01*
X143449913Y-96161528D01*
X143259947Y-96064736D01*
X143259944Y-96064735D01*
X143259942Y-96064734D01*
X143057183Y-95998854D01*
X143057181Y-95998853D01*
X143057179Y-95998853D01*
X142846601Y-95965500D01*
X142633399Y-95965500D01*
X142422821Y-95998853D01*
X142422819Y-95998853D01*
X142422816Y-95998854D01*
X142220057Y-96064734D01*
X142220051Y-96064737D01*
X142030083Y-96161530D01*
X141857600Y-96286847D01*
X141706847Y-96437600D01*
X141581530Y-96610083D01*
X141484737Y-96800051D01*
X141484734Y-96800057D01*
X141418854Y-97002816D01*
X141418853Y-97002819D01*
X141418853Y-97002821D01*
X141385500Y-97213399D01*
X128094500Y-97213399D01*
X128061147Y-97002821D01*
X127995264Y-96800053D01*
X127898472Y-96610087D01*
X127825591Y-96509776D01*
X127773152Y-96437600D01*
X127622399Y-96286847D01*
X127449916Y-96161530D01*
X127449915Y-96161529D01*
X127449913Y-96161528D01*
X127259947Y-96064736D01*
X127259944Y-96064735D01*
X127259942Y-96064734D01*
X127057183Y-95998854D01*
X127057181Y-95998853D01*
X127057179Y-95998853D01*
X126846601Y-95965500D01*
X126633399Y-95965500D01*
X126422821Y-95998853D01*
X126422819Y-95998853D01*
X126422816Y-95998854D01*
X126220057Y-96064734D01*
X126220051Y-96064737D01*
X126030083Y-96161530D01*
X125857600Y-96286847D01*
X125706847Y-96437600D01*
X125581530Y-96610083D01*
X125484737Y-96800051D01*
X125484734Y-96800057D01*
X125418854Y-97002816D01*
X125418853Y-97002819D01*
X125418853Y-97002821D01*
X125385500Y-97213399D01*
X112094500Y-97213399D01*
X112061147Y-97002821D01*
X111995264Y-96800053D01*
X111898472Y-96610087D01*
X111825591Y-96509776D01*
X111773152Y-96437600D01*
X111622399Y-96286847D01*
X111449916Y-96161530D01*
X111449915Y-96161529D01*
X111449913Y-96161528D01*
X111259947Y-96064736D01*
X111259944Y-96064735D01*
X111259942Y-96064734D01*
X111057183Y-95998854D01*
X111057181Y-95998853D01*
X111057179Y-95998853D01*
X110846601Y-95965500D01*
X110633399Y-95965500D01*
X110422821Y-95998853D01*
X110422819Y-95998853D01*
X110422816Y-95998854D01*
X110220057Y-96064734D01*
X110220051Y-96064737D01*
X110030083Y-96161530D01*
X109857600Y-96286847D01*
X109706847Y-96437600D01*
X109581530Y-96610083D01*
X109484737Y-96800051D01*
X109484734Y-96800057D01*
X109418854Y-97002816D01*
X109418853Y-97002819D01*
X109418853Y-97002821D01*
X109385500Y-97213399D01*
X96152900Y-97213399D01*
X96152900Y-92895398D01*
X97670900Y-92895398D01*
X97670900Y-93104602D01*
X97702683Y-93305269D01*
X97703628Y-93311237D01*
X97768273Y-93510193D01*
X97768274Y-93510196D01*
X97768275Y-93510197D01*
X97796922Y-93566419D01*
X97863253Y-93696602D01*
X97986219Y-93865852D01*
X98134147Y-94013780D01*
X98233092Y-94085667D01*
X98303400Y-94136748D01*
X98489803Y-94231725D01*
X98688768Y-94296373D01*
X98895398Y-94329100D01*
X98895401Y-94329100D01*
X99104599Y-94329100D01*
X99104602Y-94329100D01*
X99311232Y-94296373D01*
X99510197Y-94231725D01*
X99696600Y-94136748D01*
X99865851Y-94013781D01*
X100013781Y-93865851D01*
X100136748Y-93696600D01*
X100231725Y-93510197D01*
X100296373Y-93311232D01*
X100329100Y-93104602D01*
X100329100Y-92895398D01*
X100318066Y-92825735D01*
X149926000Y-92825735D01*
X149926000Y-93073000D01*
X150380000Y-93073000D01*
X150380000Y-93327000D01*
X149926000Y-93327000D01*
X149926000Y-93574264D01*
X149954976Y-93719934D01*
X149954978Y-93719939D01*
X150011814Y-93857152D01*
X150094327Y-93980642D01*
X150094332Y-93980649D01*
X150199350Y-94085667D01*
X150199357Y-94085672D01*
X150322847Y-94168185D01*
X150460067Y-94225024D01*
X150460070Y-94225025D01*
X150552999Y-94243509D01*
X150553000Y-94243509D01*
X150553000Y-93773087D01*
X150564204Y-93779556D01*
X150640504Y-93800000D01*
X150719496Y-93800000D01*
X150795796Y-93779556D01*
X150807000Y-93773087D01*
X150807000Y-94243509D01*
X150899929Y-94225025D01*
X150899932Y-94225024D01*
X151037152Y-94168185D01*
X151160642Y-94085672D01*
X151160649Y-94085667D01*
X151265667Y-93980649D01*
X151265672Y-93980642D01*
X151348185Y-93857152D01*
X151405021Y-93719939D01*
X151405023Y-93719934D01*
X151433999Y-93574264D01*
X151434000Y-93574260D01*
X151434000Y-93327000D01*
X150980000Y-93327000D01*
X150980000Y-93073000D01*
X151434000Y-93073000D01*
X151434000Y-92825739D01*
X151433999Y-92825735D01*
X158566000Y-92825735D01*
X158566000Y-93073000D01*
X159020000Y-93073000D01*
X159020000Y-93327000D01*
X158566000Y-93327000D01*
X158566000Y-93574264D01*
X158594976Y-93719934D01*
X158594978Y-93719939D01*
X158651814Y-93857152D01*
X158734327Y-93980642D01*
X158734332Y-93980649D01*
X158839350Y-94085667D01*
X158839357Y-94085672D01*
X158962847Y-94168185D01*
X159100067Y-94225024D01*
X159100070Y-94225025D01*
X159192999Y-94243509D01*
X159193000Y-94243509D01*
X159193000Y-93773087D01*
X159204204Y-93779556D01*
X159280504Y-93800000D01*
X159359496Y-93800000D01*
X159435796Y-93779556D01*
X159447000Y-93773087D01*
X159447000Y-94243509D01*
X159539929Y-94225025D01*
X159539932Y-94225024D01*
X159677152Y-94168185D01*
X159800642Y-94085672D01*
X159800649Y-94085667D01*
X159905667Y-93980649D01*
X159905672Y-93980642D01*
X159988185Y-93857152D01*
X160045021Y-93719939D01*
X160045023Y-93719934D01*
X160073999Y-93574264D01*
X160074000Y-93574260D01*
X160074000Y-93327000D01*
X159620000Y-93327000D01*
X159620000Y-93073000D01*
X160074000Y-93073000D01*
X160074000Y-92895398D01*
X181670900Y-92895398D01*
X181670900Y-93104602D01*
X181702683Y-93305269D01*
X181703628Y-93311237D01*
X181768273Y-93510193D01*
X181768274Y-93510196D01*
X181768275Y-93510197D01*
X181796922Y-93566419D01*
X181863253Y-93696602D01*
X181986219Y-93865852D01*
X182134147Y-94013780D01*
X182233092Y-94085667D01*
X182303400Y-94136748D01*
X182489803Y-94231725D01*
X182688768Y-94296373D01*
X182895398Y-94329100D01*
X182895401Y-94329100D01*
X183104599Y-94329100D01*
X183104602Y-94329100D01*
X183311232Y-94296373D01*
X183510197Y-94231725D01*
X183696600Y-94136748D01*
X183865851Y-94013781D01*
X184013781Y-93865851D01*
X184136748Y-93696600D01*
X184231725Y-93510197D01*
X184296373Y-93311232D01*
X184329100Y-93104602D01*
X184329100Y-92895398D01*
X184296373Y-92688768D01*
X184231725Y-92489803D01*
X184136748Y-92303400D01*
X184043444Y-92174977D01*
X184013780Y-92134147D01*
X183865852Y-91986219D01*
X183696602Y-91863253D01*
X183510193Y-91768273D01*
X183311237Y-91703628D01*
X183311233Y-91703627D01*
X183311232Y-91703627D01*
X183104602Y-91670900D01*
X182895398Y-91670900D01*
X182688768Y-91703627D01*
X182688762Y-91703628D01*
X182489806Y-91768273D01*
X182303397Y-91863253D01*
X182134147Y-91986219D01*
X181986219Y-92134147D01*
X181863253Y-92303397D01*
X181768273Y-92489806D01*
X181703628Y-92688762D01*
X181703627Y-92688767D01*
X181703627Y-92688768D01*
X181670900Y-92895398D01*
X160074000Y-92895398D01*
X160074000Y-92825739D01*
X160073999Y-92825735D01*
X160045023Y-92680065D01*
X160045021Y-92680060D01*
X159988185Y-92542847D01*
X159905672Y-92419357D01*
X159905667Y-92419350D01*
X159800649Y-92314332D01*
X159800642Y-92314327D01*
X159677152Y-92231814D01*
X159539937Y-92174977D01*
X159539934Y-92174976D01*
X159447000Y-92156490D01*
X159447000Y-92626912D01*
X159435796Y-92620444D01*
X159359496Y-92600000D01*
X159280504Y-92600000D01*
X159204204Y-92620444D01*
X159193000Y-92626912D01*
X159193000Y-92156490D01*
X159100065Y-92174976D01*
X159100062Y-92174977D01*
X158962847Y-92231814D01*
X158839357Y-92314327D01*
X158839350Y-92314332D01*
X158734332Y-92419350D01*
X158734327Y-92419357D01*
X158651814Y-92542847D01*
X158594978Y-92680060D01*
X158594976Y-92680065D01*
X158566000Y-92825735D01*
X151433999Y-92825735D01*
X151405023Y-92680065D01*
X151405021Y-92680060D01*
X151348185Y-92542847D01*
X151265672Y-92419357D01*
X151265667Y-92419350D01*
X151160649Y-92314332D01*
X151160642Y-92314327D01*
X151037152Y-92231814D01*
X150899937Y-92174977D01*
X150899934Y-92174976D01*
X150807000Y-92156490D01*
X150807000Y-92626912D01*
X150795796Y-92620444D01*
X150719496Y-92600000D01*
X150640504Y-92600000D01*
X150564204Y-92620444D01*
X150553000Y-92626912D01*
X150553000Y-92156490D01*
X150460065Y-92174976D01*
X150460062Y-92174977D01*
X150322847Y-92231814D01*
X150199357Y-92314327D01*
X150199350Y-92314332D01*
X150094332Y-92419350D01*
X150094327Y-92419357D01*
X150011814Y-92542847D01*
X149954978Y-92680060D01*
X149954976Y-92680065D01*
X149926000Y-92825735D01*
X100318066Y-92825735D01*
X100296373Y-92688768D01*
X100231725Y-92489803D01*
X100136748Y-92303400D01*
X100043444Y-92174977D01*
X100013780Y-92134147D01*
X99865852Y-91986219D01*
X99696602Y-91863253D01*
X99510193Y-91768273D01*
X99311237Y-91703628D01*
X99311233Y-91703627D01*
X99311232Y-91703627D01*
X99104602Y-91670900D01*
X98895398Y-91670900D01*
X98688768Y-91703627D01*
X98688762Y-91703628D01*
X98489806Y-91768273D01*
X98303397Y-91863253D01*
X98134147Y-91986219D01*
X97986219Y-92134147D01*
X97863253Y-92303397D01*
X97768273Y-92489806D01*
X97703628Y-92688762D01*
X97703627Y-92688767D01*
X97703627Y-92688768D01*
X97670900Y-92895398D01*
X96152900Y-92895398D01*
X96152900Y-90278900D01*
X96172902Y-90210779D01*
X96226558Y-90164286D01*
X96278900Y-90152900D01*
X185721100Y-90152900D01*
X185789221Y-90172902D01*
G37*
%TD.AperFunction*%
%TD*%
M02*
