M48
; DRILL file {KiCad 9.0.2} date 2025-05-27T14:23:00+0800
; FORMAT={-:-/ absolute / inch / decimal}
; #@! TF.CreationDate,2025-05-27T14:23:00+08:00
; #@! TF.GenerationSoftware,Kicad,Pcbnew,9.0.2
; #@! TF.FileFunction,Plated,1,2,PTH
FMAT,2
INCH
; #@! TA.AperFunction,Plated,PTH,ViaDrill
T1C0.0118
; #@! TA.AperFunction,Plated,PTH,ViaDrill
T2C0.0157
; #@! TA.AperFunction,Plated,PTH,ComponentDrill
T3C0.0236
; #@! TA.AperFunction,Plated,PTH,ComponentDrill
T4C0.0394
; #@! TA.AperFunction,Plated,PTH,ComponentDrill
T5C0.0472
; #@! TA.AperFunction,Plated,PTH,ComponentDrill
T6C0.0591
; #@! TA.AperFunction,Plated,PTH,ComponentDrill
T7C0.0906
%
G90
G05
T1
X4.0354Y-3.8189
X4.0748Y-4.1732
X4.1339Y-3.622
X4.2913Y-4.3307
X4.3799Y-3.9567
X4.4587Y-3.622
X4.4882Y-3.7992
X4.6654Y-4.2815
X4.6752Y-3.8386
X4.872Y-3.6122
X4.8819Y-4.3996
X4.9016Y-4.311
X4.9803Y-4.498
X5.0197Y-4.1339
X5.0472Y-4.3307
X5.1083Y-3.8091
X5.1476Y-4.4882
X5.1693Y-4.439
X5.187Y-4.3012
X5.2067Y-3.6122
X5.3051Y-3.8189
X5.3642Y-4.439
X5.3661Y-4.4882
X5.3858Y-4.3307
X5.4232Y-4.498
X5.4331Y-4.2126
X5.4823Y-4.2913
X5.5Y-4.3307
X5.5591Y-4.4882
X5.5709Y-3.6122
X5.6063Y-4.2087
X5.6102Y-4.2717
X5.6144Y-4.3304
X5.6496Y-4.0748
X5.6496Y-4.4094
X5.7283Y-3.8287
X5.7776Y-4.0945
X5.7953Y-4.3228
X5.8366Y-3.6024
X5.873Y-4.4016
X5.876Y-4.4587
X5.8957Y-4.1437
X5.9252Y-3.9528
X5.9252Y-4.2008
X5.935Y-3.9075
X5.9547Y-4.0846
X5.9941Y-4.4783
X6.0433Y-4.1732
X6.0728Y-4.0256
X6.0925Y-4.2717
X6.1122Y-3.6319
X6.1407Y-4.0846
X6.1417Y-4.0157
X6.1417Y-4.3583
X6.2402Y-4.3996
X6.2598Y-3.9567
X6.3287Y-3.6024
X6.378Y-3.6811
X6.4272Y-4.0748
X6.4961Y-4.2323
X6.5157Y-3.7795
X6.5354Y-4.3307
X6.6043Y-3.6319
X6.811Y-3.7992
X6.811Y-4.2126
X6.8701Y-4.439
X6.998Y-3.622
X7.0374Y-4.3307
X7.1063Y-3.7795
X7.1063Y-4.1831
X7.1161Y-3.9469
T2
X4.7322Y-4.2442
X5.2264Y-4.2421
X5.9099Y-4.2544
X5.9934Y-4.0755
T4
X6.5801Y-4.4449
X6.6801Y-4.4449
X7.2047Y-3.8933
X7.2047Y-3.9933
X7.2047Y-4.0933
X7.2047Y-4.1933
T5
X6.7012Y-4.3012
X6.8012Y-4.3012
X6.9012Y-4.3012
T6
X4.1098Y-3.9315
X4.3598Y-3.8315
X4.7398Y-3.9315
X4.9898Y-3.8315
X5.3697Y-3.9315
X5.6197Y-3.8315
T3
G00X5.9323Y-3.6811
M15
G01X5.9323Y-3.6575
M16
G05
G00X5.9323Y-3.8555
M15
G01X5.9323Y-3.8122
M16
G05
G00X6.2724Y-3.6811
M15
G01X6.2724Y-3.6575
M16
G05
G00X6.2724Y-3.8555
M15
G01X6.2724Y-3.8122
M16
G05
T7
G00X6.5807Y-4.0098
M15
G01X6.5807Y-4.002
M16
G05
G00X7.0217Y-4.0098
M15
G01X7.0217Y-4.002
M16
G05
M30
