%TF.GenerationSoftware,KiCad,Pcbnew,9.0.2*%
%TF.CreationDate,2025-06-04T14:00:07+08:00*%
%TF.ProjectId,tsubaki_lite,74737562-616b-4695-9f6c-6974652e6b69,4*%
%TF.SameCoordinates,Original*%
%TF.FileFunction,Copper,L1,Top*%
%TF.FilePolarity,Positive*%
%FSLAX46Y46*%
G04 Gerber Fmt 4.6, Leading zero omitted, Abs format (unit mm)*
G04 Created by KiCad (PCBNEW 9.0.2) date 2025-06-04 14:00:07*
%MOMM*%
%LPD*%
G01*
G04 APERTURE LIST*
G04 Aperture macros list*
%AMRoundRect*
0 Rectangle with rounded corners*
0 $1 Rounding radius*
0 $2 $3 $4 $5 $6 $7 $8 $9 X,Y pos of 4 corners*
0 Add a 4 corners polygon primitive as box body*
4,1,4,$2,$3,$4,$5,$6,$7,$8,$9,$2,$3,0*
0 Add four circle primitives for the rounded corners*
1,1,$1+$1,$2,$3*
1,1,$1+$1,$4,$5*
1,1,$1+$1,$6,$7*
1,1,$1+$1,$8,$9*
0 Add four rect primitives between the rounded corners*
20,1,$1+$1,$2,$3,$4,$5,0*
20,1,$1+$1,$4,$5,$6,$7,0*
20,1,$1+$1,$6,$7,$8,$9,0*
20,1,$1+$1,$8,$9,$2,$3,0*%
G04 Aperture macros list end*
%TA.AperFunction,ComponentPad*%
%ADD10C,2.200000*%
%TD*%
%TA.AperFunction,SMDPad,CuDef*%
%ADD11RoundRect,0.243750X-0.243750X-0.456250X0.243750X-0.456250X0.243750X0.456250X-0.243750X0.456250X0*%
%TD*%
%TA.AperFunction,SMDPad,CuDef*%
%ADD12RoundRect,0.250000X0.375000X0.625000X-0.375000X0.625000X-0.375000X-0.625000X0.375000X-0.625000X0*%
%TD*%
%TA.AperFunction,SMDPad,CuDef*%
%ADD13RoundRect,0.250000X-0.262500X-0.450000X0.262500X-0.450000X0.262500X0.450000X-0.262500X0.450000X0*%
%TD*%
%TA.AperFunction,SMDPad,CuDef*%
%ADD14RoundRect,0.135000X0.135000X0.185000X-0.135000X0.185000X-0.135000X-0.185000X0.135000X-0.185000X0*%
%TD*%
%TA.AperFunction,SMDPad,CuDef*%
%ADD15RoundRect,0.250000X0.262500X0.450000X-0.262500X0.450000X-0.262500X-0.450000X0.262500X-0.450000X0*%
%TD*%
%TA.AperFunction,ComponentPad*%
%ADD16C,1.800000*%
%TD*%
%TA.AperFunction,ComponentPad*%
%ADD17O,3.300000X3.500000*%
%TD*%
%TA.AperFunction,SMDPad,CuDef*%
%ADD18R,0.900000X1.700000*%
%TD*%
%TA.AperFunction,ComponentPad*%
%ADD19R,1.700000X1.700000*%
%TD*%
%TA.AperFunction,ComponentPad*%
%ADD20C,1.700000*%
%TD*%
%TA.AperFunction,SMDPad,CuDef*%
%ADD21RoundRect,0.225000X-0.225000X-0.375000X0.225000X-0.375000X0.225000X0.375000X-0.225000X0.375000X0*%
%TD*%
%TA.AperFunction,SMDPad,CuDef*%
%ADD22R,0.600000X1.450000*%
%TD*%
%TA.AperFunction,SMDPad,CuDef*%
%ADD23R,0.300000X1.450000*%
%TD*%
%TA.AperFunction,HeatsinkPad*%
%ADD24O,1.000000X2.100000*%
%TD*%
%TA.AperFunction,HeatsinkPad*%
%ADD25O,1.000000X1.600000*%
%TD*%
%TA.AperFunction,SMDPad,CuDef*%
%ADD26RoundRect,0.135000X-0.135000X-0.185000X0.135000X-0.185000X0.135000X0.185000X-0.135000X0.185000X0*%
%TD*%
%TA.AperFunction,ViaPad*%
%ADD27C,0.500000*%
%TD*%
%TA.AperFunction,Conductor*%
%ADD28C,0.250000*%
%TD*%
%TA.AperFunction,Conductor*%
%ADD29C,0.406400*%
%TD*%
%TA.AperFunction,Conductor*%
%ADD30C,0.254000*%
%TD*%
G04 APERTURE END LIST*
D10*
%TO.P,SW_1_3,1,1*%
%TO.N,/COL3*%
X151870000Y-97420000D03*
%TO.P,SW_1_3,2,2*%
%TO.N,Net-(D_1_3-K)*%
X145520000Y-99960000D03*
%TD*%
%TO.P,SW_1_1,1,1*%
%TO.N,/COL1*%
X112870000Y-97420000D03*
%TO.P,SW_1_1,2,2*%
%TO.N,Net-(D_1_1-K)*%
X106520000Y-99960000D03*
%TD*%
D11*
%TO.P,L_1_2,1,K*%
%TO.N,GND*%
X128912500Y-107000000D03*
%TO.P,L_1_2,2,A*%
%TO.N,Net-(L_1_2-A)*%
X130787500Y-107000000D03*
%TD*%
D12*
%TO.P,D1,1,K*%
%TO.N,GND*%
X193900000Y-93750000D03*
%TO.P,D1,2,A*%
%TO.N,Net-(D1-A)*%
X191100000Y-93750000D03*
%TD*%
D13*
%TO.P,R5,1*%
%TO.N,VDD*%
X176425000Y-93000000D03*
%TO.P,R5,2*%
%TO.N,Net-(D1-A)*%
X178250000Y-93000000D03*
%TD*%
D14*
%TO.P,R_1_2,1*%
%TO.N,/LED2*%
X139750000Y-107000000D03*
%TO.P,R_1_2,2*%
%TO.N,Net-(L_1_2-A)*%
X138730000Y-107000000D03*
%TD*%
D13*
%TO.P,R16,1*%
%TO.N,GND*%
X172837500Y-93000000D03*
%TO.P,R16,2*%
%TO.N,/DP*%
X174662500Y-93000000D03*
%TD*%
D15*
%TO.P,R3,1*%
%TO.N,Net-(J1-CC1)*%
X178500000Y-98750000D03*
%TO.P,R3,2*%
%TO.N,GND*%
X176675000Y-98750000D03*
%TD*%
D13*
%TO.P,R2,1*%
%TO.N,GND*%
X176675000Y-96750000D03*
%TO.P,R2,2*%
%TO.N,Net-(J1-CC2)*%
X178500000Y-96750000D03*
%TD*%
D16*
%TO.P,SW3,A,A*%
%TO.N,Net-(D_1_5-A)*%
X184459995Y-110000128D03*
%TO.P,SW3,B,B*%
%TO.N,Net-(D_1_6-A)*%
X189540005Y-110000128D03*
%TO.P,SW3,C,C*%
%TO.N,/ROW1*%
X187000000Y-110000128D03*
D17*
%TO.P,SW3,D,D*%
%TO.N,GND*%
X192599949Y-102500000D03*
%TO.P,SW3,E,E*%
X181400051Y-102500000D03*
%TD*%
D18*
%TO.P,SW2,1,A*%
%TO.N,/DP*%
X176700000Y-90000000D03*
%TO.P,SW2,2,B*%
%TO.N,Net-(SW2-B)*%
X173300000Y-90000000D03*
%TD*%
D19*
%TO.P,J3,1,Pin_1*%
%TO.N,VDD*%
X188580000Y-115750000D03*
D20*
%TO.P,J3,2,Pin_2*%
%TO.N,GND*%
X186040000Y-115750000D03*
%TO.P,J3,3,Pin_3*%
%TO.N,/DCK*%
X183500000Y-115750000D03*
%TO.P,J3,4,Pin_4*%
%TO.N,/DIO*%
X180960000Y-115750000D03*
%TD*%
D13*
%TO.P,R1,1*%
%TO.N,Net-(SW2-B)*%
X169337500Y-93000000D03*
%TO.P,R1,2*%
%TO.N,VDD*%
X171162500Y-93000000D03*
%TD*%
D14*
%TO.P,R_1_1,1*%
%TO.N,/LED1*%
X120520000Y-107000000D03*
%TO.P,R_1_1,2*%
%TO.N,Net-(L_1_1-A)*%
X119500000Y-107000000D03*
%TD*%
D19*
%TO.P,J2,1,Pin_1*%
%TO.N,/TX*%
X175775000Y-115750000D03*
D20*
%TO.P,J2,2,Pin_2*%
%TO.N,/RX*%
X173235000Y-115750000D03*
%TD*%
D11*
%TO.P,L_1_3,1,K*%
%TO.N,GND*%
X148412500Y-107000000D03*
%TO.P,L_1_3,2,A*%
%TO.N,Net-(L_1_3-A)*%
X150287500Y-107000000D03*
%TD*%
D10*
%TO.P,SW_1_4,1,1*%
%TO.N,/COL4*%
X171370000Y-97420000D03*
%TO.P,SW_1_4,2,2*%
%TO.N,Net-(D_1_4-K)*%
X165020000Y-99960000D03*
%TD*%
D11*
%TO.P,L_1_1,1,K*%
%TO.N,GND*%
X109412500Y-107000000D03*
%TO.P,L_1_1,2,A*%
%TO.N,Net-(L_1_1-A)*%
X111287500Y-107000000D03*
%TD*%
D18*
%TO.P,SW1,1,A*%
%TO.N,/RESET*%
X168300000Y-90000000D03*
%TO.P,SW1,2,B*%
%TO.N,GND*%
X171700000Y-90000000D03*
%TD*%
D14*
%TO.P,R_1_3,1*%
%TO.N,/LED3*%
X158010000Y-107000000D03*
%TO.P,R_1_3,2*%
%TO.N,Net-(L_1_3-A)*%
X156990000Y-107000000D03*
%TD*%
D21*
%TO.P,D_1_5,1,K*%
%TO.N,/ROT_DOWN*%
X181100000Y-112500000D03*
%TO.P,D_1_5,2,A*%
%TO.N,Net-(D_1_5-A)*%
X184400000Y-112500000D03*
%TD*%
D10*
%TO.P,SW_1_2,1,1*%
%TO.N,/COL2*%
X132370000Y-97420000D03*
%TO.P,SW_1_2,2,2*%
%TO.N,Net-(D_1_2-K)*%
X126020000Y-99960000D03*
%TD*%
D21*
%TO.P,D_1_6,1,K*%
%TO.N,/ROT_UP*%
X186100000Y-112500000D03*
%TO.P,D_1_6,2,A*%
%TO.N,Net-(D_1_6-A)*%
X189400000Y-112500000D03*
%TD*%
D22*
%TO.P,J1,A1,GND*%
%TO.N,GND*%
X188000000Y-93945000D03*
%TO.P,J1,A4,VBUS*%
%TO.N,VDD*%
X187200000Y-93945000D03*
D23*
%TO.P,J1,A5,CC1*%
%TO.N,Net-(J1-CC1)*%
X186000000Y-93945000D03*
%TO.P,J1,A6,D+*%
%TO.N,Net-(J1-D+-PadA6)*%
X185000000Y-93945000D03*
%TO.P,J1,A7,D-*%
%TO.N,Net-(J1-D--PadA7)*%
X184500000Y-93945000D03*
%TO.P,J1,A8,SBU1*%
%TO.N,unconnected-(J1-SBU1-PadA8)*%
X183500000Y-93945000D03*
D22*
%TO.P,J1,A9,VBUS*%
%TO.N,VDD*%
X182300000Y-93945000D03*
%TO.P,J1,A12,GND*%
%TO.N,GND*%
X181500000Y-93945000D03*
%TO.P,J1,B1,GND*%
X181500000Y-93945000D03*
%TO.P,J1,B4,VBUS*%
%TO.N,VDD*%
X182300000Y-93945000D03*
D23*
%TO.P,J1,B5,CC2*%
%TO.N,Net-(J1-CC2)*%
X183000000Y-93945000D03*
%TO.P,J1,B6,D+*%
%TO.N,Net-(J1-D+-PadA6)*%
X184000000Y-93945000D03*
%TO.P,J1,B7,D-*%
%TO.N,Net-(J1-D--PadA7)*%
X185500000Y-93945000D03*
%TO.P,J1,B8,SBU2*%
%TO.N,unconnected-(J1-SBU2-PadB8)*%
X186500000Y-93945000D03*
D22*
%TO.P,J1,B9,VBUS*%
%TO.N,VDD*%
X187200000Y-93945000D03*
%TO.P,J1,B12,GND*%
%TO.N,GND*%
X188000000Y-93945000D03*
D24*
%TO.P,J1,S1,SHIELD*%
X189070000Y-93030000D03*
D25*
X189070000Y-88850000D03*
D24*
X180430000Y-93030000D03*
D25*
X180430000Y-88850000D03*
%TD*%
D11*
%TO.P,L_1_4,1,K*%
%TO.N,GND*%
X167912500Y-107000000D03*
%TO.P,L_1_4,2,A*%
%TO.N,Net-(L_1_4-A)*%
X169787500Y-107000000D03*
%TD*%
D26*
%TO.P,R_1_4,1*%
%TO.N,/LED4*%
X160240000Y-107000000D03*
%TO.P,R_1_4,2*%
%TO.N,Net-(L_1_4-A)*%
X161260000Y-107000000D03*
%TD*%
D27*
%TO.N,*%
X131000000Y-90500000D03*
X106250000Y-105500000D03*
X121750000Y-99500000D03*
X114250000Y-90750000D03*
X132750000Y-104750000D03*
X147500000Y-90000000D03*
X160000000Y-90500000D03*
X110250000Y-112500000D03*
X134000000Y-115000000D03*
X146250000Y-104000000D03*
X165000000Y-115250000D03*
X145500000Y-114750000D03*
X133750000Y-110500000D03*
%TO.N,/ROW1*%
X173841998Y-108408001D03*
%TO.N,GND*%
X184750000Y-90000000D03*
X169500000Y-98500000D03*
X176750000Y-95000000D03*
X162250000Y-110000000D03*
X185750000Y-111250000D03*
X175000000Y-111250000D03*
X170000000Y-90250000D03*
X166500000Y-104500000D03*
X173500000Y-95750000D03*
X190000000Y-98500000D03*
X152000000Y-100500000D03*
X179750000Y-106500000D03*
X171228080Y-108999999D03*
X170750000Y-104500000D03*
X151500000Y-106000000D03*
X182500000Y-112250000D03*
X138250000Y-105000000D03*
X165250000Y-94750000D03*
X173250000Y-99500000D03*
X176250000Y-105750000D03*
X173250000Y-104000000D03*
X153500000Y-109750000D03*
X180000000Y-109750000D03*
X163250000Y-100500000D03*
X158500000Y-101250000D03*
X186500000Y-108500000D03*
X173750000Y-93750000D03*
X174750000Y-113500000D03*
X193000000Y-109750000D03*
X177500000Y-103000000D03*
X174750000Y-107250000D03*
X164500000Y-107000000D03*
X179750000Y-113250000D03*
X182750000Y-109000000D03*
X185250000Y-97500000D03*
X190500000Y-113250000D03*
%TO.N,VDD*%
X178903551Y-100000000D03*
X181008365Y-108758365D03*
X182500000Y-110250000D03*
%TO.N,/DP*%
X179544051Y-101000000D03*
%TO.N,Net-(J1-D+-PadA6)*%
X183923000Y-95500000D03*
%TO.N,Net-(J1-D--PadA7)*%
X185250000Y-96250000D03*
%TO.N,/LED1*%
X177250000Y-106500000D03*
%TO.N,/LED2*%
X177250000Y-105799997D03*
%TO.N,/LED3*%
X171500000Y-105750000D03*
%TO.N,/ROT_UP*%
X179514418Y-107425001D03*
%TO.N,/ROT_DOWN*%
X176825000Y-108750000D03*
%TO.N,/LED4*%
X171500000Y-106500000D03*
%TO.N,/RESET*%
X165750000Y-102250000D03*
%TD*%
D28*
%TO.N,/ROW1*%
X173841998Y-108408001D02*
X174249999Y-108000000D01*
X174249999Y-108000000D02*
X184999872Y-108000000D01*
X184999872Y-108000000D02*
X187000000Y-110000128D01*
D29*
%TO.N,VDD*%
X175070800Y-94500000D02*
X175320800Y-94750000D01*
X174925000Y-94500000D02*
X172662500Y-94500000D01*
X187200000Y-93131691D02*
X187200000Y-93945000D01*
X175320800Y-94104200D02*
X175320800Y-94750000D01*
X174925000Y-94500000D02*
X175070800Y-94500000D01*
D28*
X182500000Y-110250000D02*
X181008365Y-108758365D01*
D29*
X172662500Y-94500000D02*
X171162500Y-93000000D01*
X175320800Y-94750000D02*
X175320800Y-99040406D01*
X182300000Y-94978400D02*
X182028400Y-95250000D01*
X182300000Y-93945000D02*
X182300000Y-94978400D01*
X176280394Y-100000000D02*
X178903551Y-100000000D01*
X183248491Y-92183200D02*
X186251509Y-92183200D01*
X182300000Y-93945000D02*
X182300000Y-93131691D01*
X186251509Y-92183200D02*
X187200000Y-93131691D01*
X178675000Y-95250000D02*
X176425000Y-93000000D01*
X182028400Y-95250000D02*
X178675000Y-95250000D01*
X176425000Y-93000000D02*
X175320800Y-94104200D01*
X175320800Y-99040406D02*
X176280394Y-100000000D01*
X182300000Y-93131691D02*
X183248491Y-92183200D01*
X175320800Y-94104200D02*
X174925000Y-94500000D01*
D30*
%TO.N,/DP*%
X176500000Y-101000000D02*
X179544051Y-101000000D01*
X174662500Y-93000000D02*
X174750000Y-93000000D01*
X176700000Y-91050000D02*
X176700000Y-90000000D01*
X170653658Y-91972000D02*
X170322000Y-92303658D01*
X170322000Y-92303658D02*
X170322000Y-94352503D01*
X174789600Y-98820103D02*
X174789600Y-99289600D01*
X173634500Y-91972000D02*
X170653658Y-91972000D01*
X170322000Y-94352503D02*
X174789600Y-98820103D01*
X174662500Y-93000000D02*
X173634500Y-91972000D01*
X174789600Y-99289600D02*
X176500000Y-101000000D01*
X174750000Y-93000000D02*
X176700000Y-91050000D01*
D28*
%TO.N,Net-(L_1_1-A)*%
X111287500Y-107000000D02*
X119500000Y-107000000D01*
%TO.N,Net-(L_1_2-A)*%
X138730000Y-107000000D02*
X130787500Y-107000000D01*
%TO.N,Net-(D_1_5-A)*%
X184400000Y-110060123D02*
X184459995Y-110000128D01*
X184400000Y-112500000D02*
X184400000Y-110060123D01*
%TO.N,Net-(L_1_3-A)*%
X156990000Y-107000000D02*
X150287500Y-107000000D01*
%TO.N,Net-(D_1_6-A)*%
X189400000Y-110140133D02*
X189540005Y-110000128D01*
X189400000Y-112500000D02*
X189400000Y-110140133D01*
D30*
%TO.N,Net-(J1-D+-PadA6)*%
X183923000Y-95500000D02*
X184000000Y-95423000D01*
X184836000Y-92750000D02*
X184250000Y-92750000D01*
X185000000Y-92914000D02*
X184836000Y-92750000D01*
X184000000Y-95423000D02*
X184000000Y-93945000D01*
X185000000Y-93945000D02*
X185000000Y-92914000D01*
X184250000Y-92750000D02*
X184000000Y-93000000D01*
X184000000Y-93000000D02*
X184000000Y-93945000D01*
%TO.N,Net-(J1-D--PadA7)*%
X185500000Y-96000000D02*
X185250000Y-96250000D01*
X184500000Y-95500000D02*
X185250000Y-96250000D01*
X184500000Y-93945000D02*
X184500000Y-95500000D01*
X185500000Y-93945000D02*
X185500000Y-96000000D01*
D28*
%TO.N,Net-(L_1_4-A)*%
X161260000Y-107000000D02*
X162510000Y-108250000D01*
X168537500Y-108250000D02*
X169787500Y-107000000D01*
X162510000Y-108250000D02*
X168537500Y-108250000D01*
%TO.N,/LED1*%
X168791252Y-112250000D02*
X174541252Y-106500000D01*
X174541252Y-106500000D02*
X177250000Y-106500000D01*
X120520000Y-107000000D02*
X120520000Y-107020000D01*
X120520000Y-107020000D02*
X125750000Y-112250000D01*
X125750000Y-112250000D02*
X168791252Y-112250000D01*
%TO.N,/LED2*%
X171011412Y-108424000D02*
X174261412Y-105174000D01*
X174261412Y-105174000D02*
X176624003Y-105174000D01*
X170712491Y-108701000D02*
X170989492Y-108423999D01*
X139750000Y-107000000D02*
X141451000Y-108701000D01*
X141451000Y-108701000D02*
X170712491Y-108701000D01*
X176624003Y-105174000D02*
X177250000Y-105799997D01*
X170989492Y-108423999D02*
X171011412Y-108424000D01*
%TO.N,/LED3*%
X171125000Y-105375000D02*
X171500000Y-105750000D01*
X159635000Y-105375000D02*
X171125000Y-105375000D01*
X158010000Y-107000000D02*
X159635000Y-105375000D01*
%TO.N,/ROT_UP*%
X188226000Y-108976000D02*
X188226000Y-111274000D01*
X187000000Y-112500000D02*
X186100000Y-112500000D01*
X179526571Y-107412848D02*
X186662848Y-107412848D01*
X186662848Y-107412848D02*
X188226000Y-108976000D01*
X179514418Y-107425001D02*
X179526571Y-107412848D01*
X188226000Y-111274000D02*
X187000000Y-112500000D01*
%TO.N,/ROT_DOWN*%
X176825000Y-111075000D02*
X178250000Y-112500000D01*
X178250000Y-112500000D02*
X181100000Y-112500000D01*
X176825000Y-108750000D02*
X176825000Y-111075000D01*
%TO.N,/LED4*%
X161266000Y-105974000D02*
X160240000Y-107000000D01*
X170800002Y-106500000D02*
X170274002Y-105974000D01*
X171500000Y-106500000D02*
X170800002Y-106500000D01*
X170274002Y-105974000D02*
X161266000Y-105974000D01*
D30*
%TO.N,Net-(J1-CC1)*%
X178500000Y-98750000D02*
X185250000Y-98750000D01*
X186000000Y-98000000D02*
X186000000Y-93945000D01*
X185250000Y-98750000D02*
X186000000Y-98000000D01*
%TO.N,Net-(J1-CC2)*%
X183000000Y-96250000D02*
X183000000Y-93945000D01*
X178500000Y-96750000D02*
X182500000Y-96750000D01*
X182500000Y-96750000D02*
X183000000Y-96250000D01*
D28*
%TO.N,/RESET*%
X165750000Y-102250000D02*
X165750000Y-101750000D01*
X168300000Y-99200000D02*
X168300000Y-90000000D01*
X165750000Y-101750000D02*
X168300000Y-99200000D01*
D30*
%TO.N,Net-(D1-A)*%
X179598000Y-91652000D02*
X190152000Y-91652000D01*
X191100000Y-92600000D02*
X191100000Y-93750000D01*
X178250000Y-93000000D02*
X179598000Y-91652000D01*
X190152000Y-91652000D02*
X191100000Y-92600000D01*
%TO.N,Net-(SW2-B)*%
X169337500Y-91912500D02*
X169750000Y-91500000D01*
X173300000Y-91200000D02*
X173300000Y-90000000D01*
X169337500Y-93000000D02*
X169337500Y-91912500D01*
X169750000Y-91500000D02*
X173000000Y-91500000D01*
X173000000Y-91500000D02*
X173300000Y-91200000D01*
%TD*%
%TA.AperFunction,Conductor*%
%TO.N,GND*%
G36*
X186521585Y-107812350D02*
G01*
X186542559Y-107829253D01*
X187372814Y-108659508D01*
X187406840Y-108721820D01*
X187401775Y-108792635D01*
X187359228Y-108849471D01*
X187292708Y-108874282D01*
X187264008Y-108873052D01*
X187223225Y-108866592D01*
X187090861Y-108845628D01*
X186909139Y-108845628D01*
X186735993Y-108873052D01*
X186729648Y-108874057D01*
X186562293Y-108928434D01*
X186491325Y-108930461D01*
X186434262Y-108897696D01*
X185544009Y-108007443D01*
X185509983Y-107945131D01*
X185515048Y-107874316D01*
X185557595Y-107817480D01*
X185624115Y-107792669D01*
X185633104Y-107792348D01*
X186453464Y-107792348D01*
X186521585Y-107812350D01*
G37*
%TD.AperFunction*%
%TA.AperFunction,Conductor*%
G36*
X168988678Y-106373502D02*
G01*
X169035171Y-106427158D01*
X169045836Y-106492962D01*
X169045500Y-106496081D01*
X169045500Y-107153113D01*
X169025498Y-107221234D01*
X169008596Y-107242208D01*
X168859919Y-107390886D01*
X168553312Y-107697494D01*
X168417211Y-107833595D01*
X168354898Y-107867620D01*
X168328115Y-107870500D01*
X162719386Y-107870500D01*
X162651265Y-107850498D01*
X162630291Y-107833595D01*
X161821404Y-107024708D01*
X161787378Y-106962396D01*
X161784499Y-106935613D01*
X161784499Y-106784348D01*
X161770054Y-106693139D01*
X161770054Y-106693138D01*
X161714040Y-106583204D01*
X161699431Y-106568595D01*
X161665405Y-106506283D01*
X161670470Y-106435468D01*
X161713017Y-106378632D01*
X161779537Y-106353821D01*
X161788526Y-106353500D01*
X168920557Y-106353500D01*
X168988678Y-106373502D01*
G37*
%TD.AperFunction*%
%TA.AperFunction,Conductor*%
G36*
X176748144Y-93974501D02*
G01*
X176769118Y-93991404D01*
X178308749Y-95531034D01*
X178358120Y-95580405D01*
X178392146Y-95642717D01*
X178387081Y-95713532D01*
X178344534Y-95770368D01*
X178278014Y-95795179D01*
X178269027Y-95795500D01*
X178189254Y-95795500D01*
X178189229Y-95795502D01*
X178129160Y-95801959D01*
X178129158Y-95801959D01*
X177993233Y-95852657D01*
X177877096Y-95939596D01*
X177790157Y-96055734D01*
X177739462Y-96191650D01*
X177739460Y-96191658D01*
X177733000Y-96251737D01*
X177733000Y-97248246D01*
X177733002Y-97248270D01*
X177739459Y-97308339D01*
X177739459Y-97308341D01*
X177790157Y-97444266D01*
X177877096Y-97560404D01*
X177995623Y-97649131D01*
X178038170Y-97705967D01*
X178043236Y-97776782D01*
X178009211Y-97839095D01*
X177995623Y-97850869D01*
X177877096Y-97939595D01*
X177790157Y-98055734D01*
X177739462Y-98191650D01*
X177739460Y-98191658D01*
X177733000Y-98251737D01*
X177733000Y-99248246D01*
X177733002Y-99248270D01*
X177739459Y-99308339D01*
X177739459Y-99308341D01*
X177763303Y-99372267D01*
X177768369Y-99443083D01*
X177734344Y-99505395D01*
X177672032Y-99539420D01*
X177645248Y-99542300D01*
X176522170Y-99542300D01*
X176454049Y-99522298D01*
X176433075Y-99505395D01*
X175815405Y-98887725D01*
X175781379Y-98825413D01*
X175778500Y-98798630D01*
X175778500Y-94345975D01*
X175798502Y-94277854D01*
X175815405Y-94256880D01*
X176080881Y-93991404D01*
X176143193Y-93957378D01*
X176169976Y-93954499D01*
X176680023Y-93954499D01*
X176748144Y-93974501D01*
G37*
%TD.AperFunction*%
%TA.AperFunction,Conductor*%
G36*
X183511883Y-95853390D02*
G01*
X183525432Y-95851443D01*
X183545898Y-95860790D01*
X183567885Y-95865573D01*
X183585898Y-95879058D01*
X183590012Y-95880937D01*
X183596595Y-95887066D01*
X183613223Y-95903694D01*
X183613228Y-95903698D01*
X183613230Y-95903700D01*
X183613231Y-95903701D01*
X183613233Y-95903702D01*
X183620747Y-95908040D01*
X183728270Y-95970119D01*
X183856581Y-96004500D01*
X183856583Y-96004500D01*
X183989417Y-96004500D01*
X183989419Y-96004500D01*
X184117730Y-95970119D01*
X184232349Y-95903942D01*
X184301344Y-95887205D01*
X184368436Y-95910425D01*
X184384444Y-95923967D01*
X184710495Y-96250018D01*
X184742521Y-96308667D01*
X184743363Y-96308442D01*
X184744292Y-96311912D01*
X184744521Y-96312330D01*
X184744737Y-96313572D01*
X184779881Y-96444730D01*
X184846297Y-96559766D01*
X184846305Y-96559776D01*
X184940223Y-96653694D01*
X184940228Y-96653698D01*
X184940230Y-96653700D01*
X185055270Y-96720119D01*
X185183581Y-96754500D01*
X185183583Y-96754500D01*
X185316417Y-96754500D01*
X185316419Y-96754500D01*
X185444730Y-96720119D01*
X185444730Y-96720118D01*
X185452708Y-96717981D01*
X185453077Y-96719360D01*
X185514864Y-96712714D01*
X185578353Y-96744489D01*
X185614584Y-96805545D01*
X185618500Y-96836713D01*
X185618500Y-97789787D01*
X185598498Y-97857908D01*
X185581595Y-97878882D01*
X185128882Y-98331595D01*
X185066570Y-98365621D01*
X185039787Y-98368500D01*
X179392684Y-98368500D01*
X179324563Y-98348498D01*
X179278070Y-98294842D01*
X179268289Y-98255000D01*
X179267360Y-98255100D01*
X179260540Y-98191660D01*
X179260540Y-98191658D01*
X179209842Y-98055733D01*
X179122904Y-97939596D01*
X179122903Y-97939595D01*
X179006767Y-97852658D01*
X179006764Y-97852657D01*
X179004376Y-97850869D01*
X178961829Y-97794034D01*
X178956763Y-97723218D01*
X178990788Y-97660905D01*
X179004376Y-97649131D01*
X179006764Y-97647342D01*
X179006767Y-97647342D01*
X179122904Y-97560404D01*
X179209842Y-97444267D01*
X179260540Y-97308342D01*
X179266344Y-97254348D01*
X179267361Y-97244899D01*
X179268860Y-97245060D01*
X179290522Y-97183754D01*
X179346610Y-97140227D01*
X179392686Y-97131500D01*
X182550223Y-97131500D01*
X182550225Y-97131500D01*
X182647254Y-97105501D01*
X182647257Y-97105499D01*
X182647258Y-97105499D01*
X182690750Y-97080388D01*
X182734247Y-97055276D01*
X182805276Y-96984247D01*
X183305276Y-96484247D01*
X183355502Y-96397253D01*
X183381501Y-96300225D01*
X183381501Y-96199775D01*
X183381501Y-96192058D01*
X183381500Y-96192040D01*
X183381500Y-95976161D01*
X183387838Y-95954573D01*
X183389444Y-95932129D01*
X183397645Y-95921172D01*
X183401502Y-95908040D01*
X183418507Y-95893304D01*
X183431991Y-95875293D01*
X183444813Y-95870510D01*
X183455158Y-95861547D01*
X183477430Y-95858344D01*
X183498511Y-95850482D01*
X183511883Y-95853390D01*
G37*
%TD.AperFunction*%
%TA.AperFunction,Conductor*%
G36*
X170851745Y-93954500D02*
G01*
X171417523Y-93954499D01*
X171485644Y-93974501D01*
X171506618Y-93991404D01*
X172381465Y-94866251D01*
X172441719Y-94901037D01*
X172441721Y-94901039D01*
X172485829Y-94926505D01*
X172485831Y-94926506D01*
X172485835Y-94926508D01*
X172485838Y-94926508D01*
X172485841Y-94926510D01*
X172602239Y-94957699D01*
X172602243Y-94957700D01*
X174737100Y-94957700D01*
X174805221Y-94977702D01*
X174851714Y-95031358D01*
X174863100Y-95083700D01*
X174863100Y-98049890D01*
X174843098Y-98118011D01*
X174789442Y-98164504D01*
X174719168Y-98174608D01*
X174654588Y-98145114D01*
X174648005Y-98138985D01*
X170740405Y-94231385D01*
X170725460Y-94204016D01*
X170708604Y-94177788D01*
X170707698Y-94171489D01*
X170706379Y-94169073D01*
X170703500Y-94142290D01*
X170703500Y-94078834D01*
X170723502Y-94010713D01*
X170777158Y-93964220D01*
X170842975Y-93953557D01*
X170851745Y-93954500D01*
G37*
%TD.AperFunction*%
%TA.AperFunction,Conductor*%
G36*
X179594033Y-92299657D02*
G01*
X179650868Y-92342204D01*
X179675679Y-92408724D01*
X179676000Y-92417713D01*
X179676000Y-92903000D01*
X180130000Y-92903000D01*
X180130000Y-93157000D01*
X179676000Y-93157000D01*
X179676000Y-93654264D01*
X179704976Y-93799934D01*
X179704978Y-93799939D01*
X179761814Y-93937152D01*
X179844327Y-94060642D01*
X179844332Y-94060649D01*
X179949350Y-94165667D01*
X179949357Y-94165672D01*
X180072847Y-94248185D01*
X180210067Y-94305024D01*
X180210070Y-94305025D01*
X180302999Y-94323509D01*
X180303000Y-94323509D01*
X180303000Y-93853087D01*
X180314204Y-93859556D01*
X180390504Y-93880000D01*
X180469496Y-93880000D01*
X180545796Y-93859556D01*
X180557000Y-93853087D01*
X180557000Y-94323509D01*
X180649929Y-94305025D01*
X180649932Y-94305024D01*
X180787152Y-94248185D01*
X180910642Y-94165672D01*
X180910649Y-94165667D01*
X181015667Y-94060649D01*
X181015672Y-94060642D01*
X181098185Y-93937152D01*
X181155021Y-93799939D01*
X181155023Y-93799934D01*
X181183999Y-93654264D01*
X181184000Y-93654260D01*
X181184000Y-93157000D01*
X180730000Y-93157000D01*
X180730000Y-92903000D01*
X181184001Y-92903000D01*
X181185899Y-92901101D01*
X181204002Y-92839450D01*
X181257658Y-92792957D01*
X181327932Y-92782853D01*
X181392512Y-92812347D01*
X181410687Y-92834359D01*
X181411583Y-92833673D01*
X181416615Y-92840231D01*
X181519768Y-92943384D01*
X181519773Y-92943388D01*
X181519775Y-92943390D01*
X181519776Y-92943391D01*
X181519778Y-92943392D01*
X181558072Y-92965501D01*
X181646126Y-93016339D01*
X181660206Y-93020111D01*
X181720828Y-93057061D01*
X181751851Y-93120921D01*
X181751175Y-93166398D01*
X181745500Y-93194925D01*
X181745500Y-93194931D01*
X181745500Y-93194933D01*
X181745500Y-93943084D01*
X181745501Y-94666300D01*
X181725499Y-94734421D01*
X181671843Y-94780914D01*
X181619501Y-94792300D01*
X178916776Y-94792300D01*
X178848655Y-94772298D01*
X178827680Y-94755395D01*
X178241880Y-94169594D01*
X178207855Y-94107282D01*
X178212920Y-94036466D01*
X178255467Y-93979631D01*
X178321987Y-93954820D01*
X178330976Y-93954499D01*
X178560747Y-93954499D01*
X178560754Y-93954499D01*
X178620842Y-93948040D01*
X178756767Y-93897342D01*
X178872904Y-93810404D01*
X178959842Y-93694267D01*
X179010540Y-93558342D01*
X179017000Y-93498255D01*
X179016999Y-92824712D01*
X179037001Y-92756592D01*
X179053899Y-92735622D01*
X179460906Y-92328616D01*
X179523217Y-92294592D01*
X179594033Y-92299657D01*
G37*
%TD.AperFunction*%
%TA.AperFunction,Conductor*%
G36*
X173492407Y-92373502D02*
G01*
X173513381Y-92390404D01*
X173858595Y-92735617D01*
X173892620Y-92797930D01*
X173895500Y-92824713D01*
X173895500Y-93498246D01*
X173895502Y-93498270D01*
X173901959Y-93558339D01*
X173901959Y-93558341D01*
X173952657Y-93694266D01*
X174039595Y-93810403D01*
X174046313Y-93815432D01*
X174088859Y-93872268D01*
X174093923Y-93943084D01*
X174059898Y-94005396D01*
X173997585Y-94039421D01*
X173970803Y-94042300D01*
X172904276Y-94042300D01*
X172836155Y-94022298D01*
X172815181Y-94005395D01*
X171966404Y-93156618D01*
X171932378Y-93094306D01*
X171929499Y-93067523D01*
X171929499Y-92501753D01*
X171929499Y-92501746D01*
X171928555Y-92492963D01*
X171941164Y-92423095D01*
X171989545Y-92371135D01*
X172053834Y-92353500D01*
X173424286Y-92353500D01*
X173492407Y-92373502D01*
G37*
%TD.AperFunction*%
%TA.AperFunction,Conductor*%
G36*
X180068196Y-87672902D02*
G01*
X180114689Y-87726558D01*
X180124793Y-87796832D01*
X180095299Y-87861412D01*
X180070077Y-87883665D01*
X179949357Y-87964327D01*
X179949350Y-87964332D01*
X179844332Y-88069350D01*
X179844327Y-88069357D01*
X179761814Y-88192847D01*
X179704978Y-88330060D01*
X179704976Y-88330065D01*
X179676000Y-88475735D01*
X179676000Y-88723000D01*
X180130000Y-88723000D01*
X180130000Y-88977000D01*
X179676000Y-88977000D01*
X179676000Y-89224264D01*
X179704976Y-89369934D01*
X179704978Y-89369939D01*
X179761814Y-89507152D01*
X179844327Y-89630642D01*
X179844332Y-89630649D01*
X179949350Y-89735667D01*
X179949357Y-89735672D01*
X180072847Y-89818185D01*
X180210067Y-89875024D01*
X180210070Y-89875025D01*
X180303000Y-89893509D01*
X180303000Y-89423087D01*
X180314204Y-89429556D01*
X180390504Y-89450000D01*
X180469496Y-89450000D01*
X180545796Y-89429556D01*
X180557000Y-89423087D01*
X180557000Y-89893509D01*
X180649929Y-89875025D01*
X180649932Y-89875024D01*
X180787152Y-89818185D01*
X180910642Y-89735672D01*
X180910649Y-89735667D01*
X181015667Y-89630649D01*
X181015672Y-89630642D01*
X181098185Y-89507152D01*
X181155021Y-89369939D01*
X181155023Y-89369934D01*
X181183999Y-89224264D01*
X181184000Y-89224260D01*
X181184000Y-88977000D01*
X180730000Y-88977000D01*
X180730000Y-88723000D01*
X181184000Y-88723000D01*
X181184000Y-88475739D01*
X181183999Y-88475735D01*
X181155023Y-88330065D01*
X181155021Y-88330060D01*
X181098185Y-88192847D01*
X181015672Y-88069357D01*
X181015667Y-88069350D01*
X180910649Y-87964332D01*
X180910642Y-87964327D01*
X180789923Y-87883665D01*
X180744395Y-87829188D01*
X180735547Y-87758745D01*
X180766188Y-87694701D01*
X180826590Y-87657390D01*
X180859925Y-87652900D01*
X188640075Y-87652900D01*
X188708196Y-87672902D01*
X188754689Y-87726558D01*
X188764793Y-87796832D01*
X188735299Y-87861412D01*
X188710077Y-87883665D01*
X188589357Y-87964327D01*
X188589350Y-87964332D01*
X188484332Y-88069350D01*
X188484327Y-88069357D01*
X188401814Y-88192847D01*
X188344978Y-88330060D01*
X188344976Y-88330065D01*
X188316000Y-88475735D01*
X188316000Y-88723000D01*
X188770000Y-88723000D01*
X188770000Y-88977000D01*
X188316000Y-88977000D01*
X188316000Y-89224264D01*
X188344976Y-89369934D01*
X188344978Y-89369939D01*
X188401814Y-89507152D01*
X188484327Y-89630642D01*
X188484332Y-89630649D01*
X188589350Y-89735667D01*
X188589357Y-89735672D01*
X188712847Y-89818185D01*
X188850067Y-89875024D01*
X188850070Y-89875025D01*
X188943000Y-89893509D01*
X188943000Y-89423087D01*
X188954204Y-89429556D01*
X189030504Y-89450000D01*
X189109496Y-89450000D01*
X189185796Y-89429556D01*
X189197000Y-89423087D01*
X189197000Y-89893509D01*
X189289929Y-89875025D01*
X189289932Y-89875024D01*
X189427153Y-89818185D01*
X189427157Y-89818183D01*
X189475795Y-89785684D01*
X189475799Y-89785682D01*
X189550642Y-89735672D01*
X189550649Y-89735667D01*
X189655667Y-89630649D01*
X189655672Y-89630642D01*
X189738185Y-89507152D01*
X189795021Y-89369939D01*
X189795023Y-89369934D01*
X189823999Y-89224264D01*
X189824000Y-89224260D01*
X189824000Y-88977000D01*
X189370000Y-88977000D01*
X189370000Y-88723000D01*
X189824000Y-88723000D01*
X189824000Y-88475739D01*
X189823999Y-88475735D01*
X189795023Y-88330065D01*
X189795021Y-88330060D01*
X189738185Y-88192847D01*
X189655672Y-88069357D01*
X189655667Y-88069350D01*
X189550649Y-87964332D01*
X189550642Y-87964327D01*
X189429923Y-87883665D01*
X189384395Y-87829188D01*
X189375547Y-87758745D01*
X189406188Y-87694701D01*
X189466590Y-87657390D01*
X189499925Y-87652900D01*
X195221100Y-87652900D01*
X195289221Y-87672902D01*
X195335714Y-87726558D01*
X195347100Y-87778900D01*
X195347100Y-117221100D01*
X195327098Y-117289221D01*
X195273442Y-117335714D01*
X195221100Y-117347100D01*
X100778900Y-117347100D01*
X100710779Y-117327098D01*
X100664286Y-117273442D01*
X100652900Y-117221100D01*
X100652900Y-114895398D01*
X101670900Y-114895398D01*
X101670900Y-115104602D01*
X101703627Y-115311232D01*
X101703628Y-115311237D01*
X101768273Y-115510193D01*
X101863253Y-115696602D01*
X101986219Y-115865852D01*
X102134147Y-116013780D01*
X102193645Y-116057007D01*
X102303400Y-116136748D01*
X102489803Y-116231725D01*
X102688768Y-116296373D01*
X102895398Y-116329100D01*
X102895401Y-116329100D01*
X103104599Y-116329100D01*
X103104602Y-116329100D01*
X103311232Y-116296373D01*
X103510197Y-116231725D01*
X103696600Y-116136748D01*
X103865851Y-116013781D01*
X104013781Y-115865851D01*
X104136748Y-115696600D01*
X104231725Y-115510197D01*
X104296373Y-115311232D01*
X104329100Y-115104602D01*
X104329100Y-115066417D01*
X133495499Y-115066417D01*
X133529881Y-115194730D01*
X133596297Y-115309766D01*
X133596305Y-115309776D01*
X133690223Y-115403694D01*
X133690228Y-115403698D01*
X133690230Y-115403700D01*
X133805270Y-115470119D01*
X133933581Y-115504500D01*
X133933583Y-115504500D01*
X134066417Y-115504500D01*
X134066419Y-115504500D01*
X134194730Y-115470119D01*
X134309770Y-115403700D01*
X134397053Y-115316417D01*
X164495499Y-115316417D01*
X164529881Y-115444730D01*
X164596297Y-115559766D01*
X164596305Y-115559776D01*
X164690223Y-115653694D01*
X164690228Y-115653698D01*
X164690230Y-115653700D01*
X164805270Y-115720119D01*
X164933581Y-115754500D01*
X164933583Y-115754500D01*
X165066417Y-115754500D01*
X165066419Y-115754500D01*
X165194730Y-115720119D01*
X165293534Y-115663074D01*
X172130500Y-115663074D01*
X172130500Y-115836926D01*
X172147300Y-115942993D01*
X172157698Y-116008642D01*
X172199321Y-116136746D01*
X172211420Y-116173981D01*
X172290347Y-116328884D01*
X172290349Y-116328887D01*
X172392536Y-116469535D01*
X172515464Y-116592463D01*
X172560342Y-116625069D01*
X172656116Y-116694653D01*
X172811019Y-116773580D01*
X172976362Y-116827303D01*
X173148074Y-116854500D01*
X173148077Y-116854500D01*
X173321923Y-116854500D01*
X173321926Y-116854500D01*
X173493638Y-116827303D01*
X173658981Y-116773580D01*
X173813884Y-116694653D01*
X173954533Y-116592465D01*
X174077465Y-116469533D01*
X174179653Y-116328884D01*
X174258580Y-116173981D01*
X174312303Y-116008638D01*
X174339500Y-115836926D01*
X174339500Y-115663074D01*
X174312303Y-115491362D01*
X174258580Y-115326019D01*
X174179653Y-115171116D01*
X174077465Y-115030467D01*
X174077463Y-115030464D01*
X173954535Y-114907536D01*
X173909657Y-114874930D01*
X174670500Y-114874930D01*
X174670500Y-116625063D01*
X174670501Y-116625073D01*
X174685265Y-116699300D01*
X174741516Y-116783484D01*
X174825697Y-116839733D01*
X174825699Y-116839734D01*
X174899933Y-116854500D01*
X176650066Y-116854499D01*
X176650069Y-116854498D01*
X176650073Y-116854498D01*
X176699326Y-116844701D01*
X176724301Y-116839734D01*
X176808484Y-116783484D01*
X176864734Y-116699301D01*
X176879500Y-116625067D01*
X176879499Y-115663074D01*
X179855500Y-115663074D01*
X179855500Y-115836926D01*
X179872300Y-115942993D01*
X179882698Y-116008642D01*
X179924321Y-116136746D01*
X179936420Y-116173981D01*
X180015347Y-116328884D01*
X180015349Y-116328887D01*
X180117536Y-116469535D01*
X180240464Y-116592463D01*
X180285342Y-116625069D01*
X180381116Y-116694653D01*
X180536019Y-116773580D01*
X180701362Y-116827303D01*
X180873074Y-116854500D01*
X180873077Y-116854500D01*
X181046923Y-116854500D01*
X181046926Y-116854500D01*
X181218638Y-116827303D01*
X181383981Y-116773580D01*
X181538884Y-116694653D01*
X181679533Y-116592465D01*
X181802465Y-116469533D01*
X181904653Y-116328884D01*
X181983580Y-116173981D01*
X182037303Y-116008638D01*
X182064500Y-115836926D01*
X182064500Y-115663074D01*
X182395500Y-115663074D01*
X182395500Y-115836926D01*
X182412300Y-115942993D01*
X182422698Y-116008642D01*
X182464321Y-116136746D01*
X182476420Y-116173981D01*
X182555347Y-116328884D01*
X182555349Y-116328887D01*
X182657536Y-116469535D01*
X182780464Y-116592463D01*
X182825342Y-116625069D01*
X182921116Y-116694653D01*
X183076019Y-116773580D01*
X183241362Y-116827303D01*
X183413074Y-116854500D01*
X183413077Y-116854500D01*
X183586923Y-116854500D01*
X183586926Y-116854500D01*
X183758638Y-116827303D01*
X183923981Y-116773580D01*
X184078884Y-116694653D01*
X184219533Y-116592465D01*
X184219538Y-116592460D01*
X184333160Y-116478839D01*
X184342460Y-116469538D01*
X184342463Y-116469535D01*
X184342465Y-116469533D01*
X184444653Y-116328884D01*
X184523580Y-116173981D01*
X184577303Y-116008638D01*
X184604500Y-115836926D01*
X184604500Y-115663116D01*
X184936000Y-115663116D01*
X184936000Y-115836883D01*
X184963185Y-116008524D01*
X185016883Y-116173788D01*
X185016884Y-116173790D01*
X185095776Y-116328625D01*
X185174042Y-116436349D01*
X185174043Y-116436349D01*
X185608234Y-116002158D01*
X185639901Y-116057007D01*
X185732993Y-116150099D01*
X185787840Y-116181765D01*
X185353649Y-116615955D01*
X185353649Y-116615956D01*
X185461374Y-116694223D01*
X185616209Y-116773115D01*
X185616211Y-116773116D01*
X185781475Y-116826814D01*
X185953116Y-116854000D01*
X186126884Y-116854000D01*
X186298524Y-116826814D01*
X186463788Y-116773116D01*
X186463790Y-116773115D01*
X186618621Y-116694225D01*
X186726349Y-116615955D01*
X186726349Y-116615954D01*
X186292159Y-116181764D01*
X186347007Y-116150099D01*
X186440099Y-116057007D01*
X186471764Y-116002159D01*
X186905954Y-116436349D01*
X186905955Y-116436349D01*
X186984225Y-116328621D01*
X187063115Y-116173790D01*
X187063116Y-116173788D01*
X187116814Y-116008524D01*
X187144000Y-115836883D01*
X187144000Y-115663116D01*
X187116814Y-115491475D01*
X187063116Y-115326211D01*
X187063115Y-115326209D01*
X186984223Y-115171374D01*
X186905955Y-115063649D01*
X186471764Y-115497839D01*
X186440099Y-115442993D01*
X186347007Y-115349901D01*
X186292158Y-115318234D01*
X186726349Y-114884043D01*
X186726348Y-114884041D01*
X186713808Y-114874930D01*
X187475500Y-114874930D01*
X187475500Y-116625063D01*
X187475501Y-116625073D01*
X187490265Y-116699300D01*
X187546516Y-116783484D01*
X187630697Y-116839733D01*
X187630699Y-116839734D01*
X187704933Y-116854500D01*
X189455066Y-116854499D01*
X189455069Y-116854498D01*
X189455073Y-116854498D01*
X189504326Y-116844701D01*
X189529301Y-116839734D01*
X189613484Y-116783484D01*
X189669734Y-116699301D01*
X189684500Y-116625067D01*
X189684499Y-114895398D01*
X191670900Y-114895398D01*
X191670900Y-115104602D01*
X191703627Y-115311232D01*
X191703628Y-115311237D01*
X191768273Y-115510193D01*
X191863253Y-115696602D01*
X191986219Y-115865852D01*
X192134147Y-116013780D01*
X192193645Y-116057007D01*
X192303400Y-116136748D01*
X192489803Y-116231725D01*
X192688768Y-116296373D01*
X192895398Y-116329100D01*
X192895401Y-116329100D01*
X193104599Y-116329100D01*
X193104602Y-116329100D01*
X193311232Y-116296373D01*
X193510197Y-116231725D01*
X193696600Y-116136748D01*
X193865851Y-116013781D01*
X194013781Y-115865851D01*
X194136748Y-115696600D01*
X194231725Y-115510197D01*
X194296373Y-115311232D01*
X194329100Y-115104602D01*
X194329100Y-114895398D01*
X194296373Y-114688768D01*
X194231725Y-114489803D01*
X194136748Y-114303400D01*
X194013781Y-114134149D01*
X194013780Y-114134147D01*
X193865852Y-113986219D01*
X193696602Y-113863253D01*
X193510193Y-113768273D01*
X193311237Y-113703628D01*
X193311233Y-113703627D01*
X193311232Y-113703627D01*
X193104602Y-113670900D01*
X192895398Y-113670900D01*
X192688768Y-113703627D01*
X192688762Y-113703628D01*
X192489806Y-113768273D01*
X192303397Y-113863253D01*
X192134147Y-113986219D01*
X191986219Y-114134147D01*
X191863253Y-114303397D01*
X191768273Y-114489806D01*
X191703628Y-114688762D01*
X191703627Y-114688767D01*
X191703627Y-114688768D01*
X191670900Y-114895398D01*
X189684499Y-114895398D01*
X189684499Y-114874934D01*
X189684498Y-114874930D01*
X189684498Y-114874926D01*
X189669734Y-114800699D01*
X189628054Y-114738322D01*
X189613484Y-114716516D01*
X189613483Y-114716515D01*
X189529302Y-114660266D01*
X189455067Y-114645500D01*
X187704936Y-114645500D01*
X187704926Y-114645501D01*
X187630699Y-114660265D01*
X187546515Y-114716516D01*
X187490266Y-114800697D01*
X187475500Y-114874930D01*
X186713808Y-114874930D01*
X186618625Y-114805776D01*
X186463790Y-114726884D01*
X186463788Y-114726883D01*
X186298524Y-114673185D01*
X186126884Y-114646000D01*
X185953116Y-114646000D01*
X185781475Y-114673185D01*
X185616211Y-114726883D01*
X185616209Y-114726884D01*
X185461379Y-114805773D01*
X185461379Y-114805774D01*
X185353649Y-114884042D01*
X185353649Y-114884044D01*
X185787840Y-115318235D01*
X185732993Y-115349901D01*
X185639901Y-115442993D01*
X185608235Y-115497840D01*
X185174044Y-115063649D01*
X185174042Y-115063649D01*
X185095774Y-115171379D01*
X185095773Y-115171379D01*
X185016884Y-115326209D01*
X185016883Y-115326211D01*
X184963185Y-115491475D01*
X184936000Y-115663116D01*
X184604500Y-115663116D01*
X184604500Y-115663074D01*
X184577303Y-115491362D01*
X184523580Y-115326019D01*
X184444653Y-115171116D01*
X184342465Y-115030467D01*
X184342463Y-115030464D01*
X184219535Y-114907536D01*
X184078887Y-114805349D01*
X184078886Y-114805348D01*
X184078884Y-114805347D01*
X183923981Y-114726420D01*
X183923978Y-114726419D01*
X183923976Y-114726418D01*
X183758642Y-114672698D01*
X183758640Y-114672697D01*
X183758638Y-114672697D01*
X183586926Y-114645500D01*
X183413074Y-114645500D01*
X183241362Y-114672697D01*
X183241360Y-114672697D01*
X183241357Y-114672698D01*
X183076023Y-114726418D01*
X183076017Y-114726421D01*
X182921112Y-114805349D01*
X182780464Y-114907536D01*
X182657536Y-115030464D01*
X182555349Y-115171112D01*
X182476421Y-115326017D01*
X182476418Y-115326023D01*
X182422698Y-115491357D01*
X182422697Y-115491360D01*
X182422697Y-115491362D01*
X182395500Y-115663074D01*
X182064500Y-115663074D01*
X182037303Y-115491362D01*
X181983580Y-115326019D01*
X181904653Y-115171116D01*
X181802465Y-115030467D01*
X181802463Y-115030464D01*
X181679535Y-114907536D01*
X181538887Y-114805349D01*
X181538886Y-114805348D01*
X181538884Y-114805347D01*
X181383981Y-114726420D01*
X181383978Y-114726419D01*
X181383976Y-114726418D01*
X181218642Y-114672698D01*
X181218640Y-114672697D01*
X181218638Y-114672697D01*
X181046926Y-114645500D01*
X180873074Y-114645500D01*
X180701362Y-114672697D01*
X180701360Y-114672697D01*
X180701357Y-114672698D01*
X180536023Y-114726418D01*
X180536017Y-114726421D01*
X180381112Y-114805349D01*
X180240464Y-114907536D01*
X180117536Y-115030464D01*
X180015349Y-115171112D01*
X179936421Y-115326017D01*
X179936418Y-115326023D01*
X179882698Y-115491357D01*
X179882697Y-115491360D01*
X179882697Y-115491362D01*
X179855500Y-115663074D01*
X176879499Y-115663074D01*
X176879499Y-114874934D01*
X176879498Y-114874930D01*
X176879498Y-114874926D01*
X176864734Y-114800699D01*
X176823054Y-114738322D01*
X176808484Y-114716516D01*
X176808483Y-114716515D01*
X176724302Y-114660266D01*
X176650067Y-114645500D01*
X174899936Y-114645500D01*
X174899926Y-114645501D01*
X174825699Y-114660265D01*
X174741515Y-114716516D01*
X174685266Y-114800697D01*
X174670500Y-114874930D01*
X173909657Y-114874930D01*
X173813887Y-114805349D01*
X173813886Y-114805348D01*
X173813884Y-114805347D01*
X173658981Y-114726420D01*
X173658978Y-114726419D01*
X173658976Y-114726418D01*
X173493642Y-114672698D01*
X173493640Y-114672697D01*
X173493638Y-114672697D01*
X173321926Y-114645500D01*
X173148074Y-114645500D01*
X172976362Y-114672697D01*
X172976360Y-114672697D01*
X172976357Y-114672698D01*
X172811023Y-114726418D01*
X172811017Y-114726421D01*
X172656112Y-114805349D01*
X172515464Y-114907536D01*
X172392536Y-115030464D01*
X172290349Y-115171112D01*
X172211421Y-115326017D01*
X172211418Y-115326023D01*
X172157698Y-115491357D01*
X172157697Y-115491360D01*
X172157697Y-115491362D01*
X172130500Y-115663074D01*
X165293534Y-115663074D01*
X165309770Y-115653700D01*
X165309776Y-115653694D01*
X165394443Y-115569028D01*
X165403694Y-115559776D01*
X165403700Y-115559770D01*
X165470119Y-115444730D01*
X165504500Y-115316419D01*
X165504500Y-115183581D01*
X165470119Y-115055270D01*
X165403700Y-114940230D01*
X165403698Y-114940228D01*
X165403694Y-114940223D01*
X165309776Y-114846305D01*
X165309766Y-114846297D01*
X165194730Y-114779881D01*
X165066419Y-114745500D01*
X164933581Y-114745500D01*
X164848040Y-114768420D01*
X164805269Y-114779881D01*
X164690233Y-114846297D01*
X164690223Y-114846305D01*
X164596305Y-114940223D01*
X164596297Y-114940233D01*
X164529881Y-115055269D01*
X164495500Y-115183582D01*
X164495500Y-115316417D01*
X164495499Y-115316417D01*
X134397053Y-115316417D01*
X134403700Y-115309770D01*
X134470119Y-115194730D01*
X134504500Y-115066419D01*
X134504500Y-114933581D01*
X134473106Y-114816417D01*
X144995499Y-114816417D01*
X145029881Y-114944730D01*
X145096297Y-115059766D01*
X145096305Y-115059776D01*
X145190223Y-115153694D01*
X145190228Y-115153698D01*
X145190230Y-115153700D01*
X145190231Y-115153701D01*
X145190233Y-115153702D01*
X145234865Y-115179470D01*
X145305270Y-115220119D01*
X145433581Y-115254500D01*
X145433583Y-115254500D01*
X145566417Y-115254500D01*
X145566419Y-115254500D01*
X145694730Y-115220119D01*
X145809770Y-115153700D01*
X145809776Y-115153694D01*
X145877244Y-115086227D01*
X145903694Y-115059776D01*
X145903700Y-115059770D01*
X145970119Y-114944730D01*
X146004500Y-114816419D01*
X146004500Y-114683581D01*
X145970119Y-114555270D01*
X145903700Y-114440230D01*
X145903698Y-114440228D01*
X145903694Y-114440223D01*
X145809776Y-114346305D01*
X145809766Y-114346297D01*
X145694730Y-114279881D01*
X145566419Y-114245500D01*
X145433581Y-114245500D01*
X145348040Y-114268420D01*
X145305269Y-114279881D01*
X145190233Y-114346297D01*
X145190223Y-114346305D01*
X145096305Y-114440223D01*
X145096297Y-114440233D01*
X145029881Y-114555269D01*
X145029881Y-114555270D01*
X144998417Y-114672697D01*
X144995500Y-114683582D01*
X144995500Y-114816417D01*
X144995499Y-114816417D01*
X134473106Y-114816417D01*
X134470119Y-114805270D01*
X134403700Y-114690230D01*
X134403698Y-114690228D01*
X134403694Y-114690223D01*
X134309776Y-114596305D01*
X134309766Y-114596297D01*
X134194730Y-114529881D01*
X134066419Y-114495500D01*
X133933581Y-114495500D01*
X133848040Y-114518420D01*
X133805269Y-114529881D01*
X133690233Y-114596297D01*
X133690223Y-114596305D01*
X133596305Y-114690223D01*
X133596297Y-114690233D01*
X133529881Y-114805269D01*
X133518888Y-114846297D01*
X133508774Y-114884044D01*
X133495500Y-114933582D01*
X133495500Y-115066417D01*
X133495499Y-115066417D01*
X104329100Y-115066417D01*
X104329100Y-114895398D01*
X104296373Y-114688768D01*
X104231725Y-114489803D01*
X104136748Y-114303400D01*
X104013781Y-114134149D01*
X104013780Y-114134147D01*
X103865852Y-113986219D01*
X103696602Y-113863253D01*
X103510193Y-113768273D01*
X103311237Y-113703628D01*
X103311233Y-113703627D01*
X103311232Y-113703627D01*
X103104602Y-113670900D01*
X102895398Y-113670900D01*
X102688768Y-113703627D01*
X102688762Y-113703628D01*
X102489806Y-113768273D01*
X102303397Y-113863253D01*
X102134147Y-113986219D01*
X101986219Y-114134147D01*
X101863253Y-114303397D01*
X101768273Y-114489806D01*
X101703628Y-114688762D01*
X101703627Y-114688767D01*
X101703627Y-114688768D01*
X101670900Y-114895398D01*
X100652900Y-114895398D01*
X100652900Y-112566417D01*
X109745499Y-112566417D01*
X109779881Y-112694730D01*
X109846297Y-112809766D01*
X109846305Y-112809776D01*
X109940223Y-112903694D01*
X109940228Y-112903698D01*
X109940230Y-112903700D01*
X109940231Y-112903701D01*
X109940233Y-112903702D01*
X109969971Y-112920871D01*
X110055270Y-112970119D01*
X110183581Y-113004500D01*
X110183583Y-113004500D01*
X110316417Y-113004500D01*
X110316419Y-113004500D01*
X110444730Y-112970119D01*
X110559770Y-112903700D01*
X110653700Y-112809770D01*
X110720119Y-112694730D01*
X110754500Y-112566419D01*
X110754500Y-112433581D01*
X110720119Y-112305270D01*
X110653700Y-112190230D01*
X110653698Y-112190228D01*
X110653694Y-112190223D01*
X110559776Y-112096305D01*
X110559766Y-112096297D01*
X110444730Y-112029881D01*
X110442980Y-112029412D01*
X110316419Y-111995500D01*
X110183581Y-111995500D01*
X110105406Y-112016447D01*
X110055269Y-112029881D01*
X109940233Y-112096297D01*
X109940223Y-112096305D01*
X109846305Y-112190223D01*
X109846297Y-112190233D01*
X109779881Y-112305269D01*
X109745500Y-112433582D01*
X109745500Y-112566417D01*
X109745499Y-112566417D01*
X100652900Y-112566417D01*
X100652900Y-106496083D01*
X110545500Y-106496083D01*
X110545500Y-107503900D01*
X110545502Y-107503921D01*
X110551879Y-107563246D01*
X110551879Y-107563248D01*
X110551880Y-107563250D01*
X110569990Y-107611805D01*
X110601950Y-107697494D01*
X110687810Y-107812189D01*
X110802505Y-107898049D01*
X110802507Y-107898049D01*
X110802509Y-107898051D01*
X110936750Y-107948120D01*
X110996091Y-107954500D01*
X111578908Y-107954499D01*
X111638250Y-107948120D01*
X111772491Y-107898051D01*
X111887189Y-107812189D01*
X111973051Y-107697491D01*
X112023120Y-107563250D01*
X112029500Y-107503909D01*
X112029500Y-107503897D01*
X112029680Y-107500544D01*
X112029860Y-107500553D01*
X112029861Y-107500553D01*
X112029873Y-107500554D01*
X112030935Y-107500611D01*
X112049502Y-107437379D01*
X112103158Y-107390886D01*
X112155500Y-107379500D01*
X118956473Y-107379500D01*
X119024594Y-107399502D01*
X119045568Y-107416404D01*
X119045959Y-107416795D01*
X119045960Y-107416796D01*
X119133204Y-107504040D01*
X119243138Y-107560054D01*
X119334347Y-107574500D01*
X119665652Y-107574499D01*
X119756862Y-107560054D01*
X119866796Y-107504040D01*
X119920905Y-107449931D01*
X119983217Y-107415905D01*
X120054032Y-107420970D01*
X120099095Y-107449931D01*
X120153204Y-107504040D01*
X120263138Y-107560054D01*
X120354347Y-107574500D01*
X120485614Y-107574499D01*
X120553735Y-107594501D01*
X120574709Y-107611403D01*
X125446323Y-112483018D01*
X125446324Y-112483019D01*
X125516981Y-112553676D01*
X125516982Y-112553677D01*
X125516984Y-112553678D01*
X125603514Y-112603636D01*
X125603518Y-112603638D01*
X125623915Y-112609103D01*
X125700038Y-112629501D01*
X125799962Y-112629501D01*
X125799966Y-112629500D01*
X168733556Y-112629500D01*
X168733572Y-112629501D01*
X168741290Y-112629501D01*
X168841213Y-112629501D01*
X168841214Y-112629501D01*
X168917332Y-112609104D01*
X168917334Y-112609104D01*
X168924800Y-112607102D01*
X168937734Y-112603638D01*
X169024271Y-112553676D01*
X169094928Y-112483019D01*
X169105295Y-112472652D01*
X169105302Y-112472642D01*
X173133738Y-108444207D01*
X173196048Y-108410183D01*
X173266864Y-108415248D01*
X173323699Y-108457795D01*
X173344537Y-108500690D01*
X173356968Y-108547082D01*
X173371879Y-108602732D01*
X173438295Y-108717767D01*
X173438303Y-108717777D01*
X173532221Y-108811695D01*
X173532226Y-108811699D01*
X173532228Y-108811701D01*
X173532229Y-108811702D01*
X173532231Y-108811703D01*
X173554885Y-108824782D01*
X173647268Y-108878120D01*
X173775579Y-108912501D01*
X173775581Y-108912501D01*
X173908415Y-108912501D01*
X173908417Y-108912501D01*
X174036728Y-108878120D01*
X174151768Y-108811701D01*
X174245698Y-108717771D01*
X174312117Y-108602731D01*
X174346498Y-108474420D01*
X174346498Y-108474419D01*
X174346908Y-108472889D01*
X174383860Y-108412266D01*
X174447721Y-108381245D01*
X174468615Y-108379500D01*
X176239115Y-108379500D01*
X176307236Y-108399502D01*
X176353729Y-108453158D01*
X176363833Y-108523432D01*
X176355523Y-108553719D01*
X176354882Y-108555264D01*
X176331020Y-108644316D01*
X176323517Y-108672324D01*
X176320500Y-108683582D01*
X176320500Y-108816417D01*
X176320499Y-108816417D01*
X176354881Y-108944730D01*
X176425429Y-109066922D01*
X176423567Y-109067996D01*
X176445063Y-109123591D01*
X176445500Y-109134079D01*
X176445500Y-111025034D01*
X176445499Y-111025038D01*
X176445499Y-111124962D01*
X176465896Y-111201084D01*
X176468316Y-111210116D01*
X176468317Y-111210121D01*
X176468336Y-111210191D01*
X176471362Y-111221482D01*
X176472838Y-111224038D01*
X176521321Y-111308015D01*
X176521329Y-111308025D01*
X176599156Y-111385852D01*
X176599170Y-111385864D01*
X177941913Y-112728607D01*
X177941934Y-112728630D01*
X178016974Y-112803670D01*
X178016979Y-112803674D01*
X178016981Y-112803676D01*
X178016982Y-112803677D01*
X178016984Y-112803678D01*
X178103513Y-112853636D01*
X178103515Y-112853636D01*
X178103518Y-112853638D01*
X178200038Y-112879500D01*
X180278675Y-112879500D01*
X180346796Y-112899502D01*
X180393289Y-112953158D01*
X180401298Y-112976525D01*
X180401639Y-112977970D01*
X180449826Y-113107166D01*
X180449827Y-113107167D01*
X180496967Y-113170137D01*
X180532456Y-113217544D01*
X180595781Y-113264949D01*
X180642832Y-113300172D01*
X180642833Y-113300173D01*
X180642835Y-113300173D01*
X180642837Y-113300175D01*
X180772027Y-113348360D01*
X180829136Y-113354500D01*
X180829141Y-113354500D01*
X181370859Y-113354500D01*
X181370864Y-113354500D01*
X181427973Y-113348360D01*
X181557163Y-113300175D01*
X181667544Y-113217544D01*
X181750175Y-113107163D01*
X181798360Y-112977973D01*
X181804500Y-112920864D01*
X181804500Y-112079136D01*
X181798360Y-112022027D01*
X181750175Y-111892837D01*
X181750173Y-111892835D01*
X181750173Y-111892833D01*
X181750172Y-111892832D01*
X181714949Y-111845781D01*
X181667544Y-111782456D01*
X181620137Y-111746967D01*
X181557167Y-111699827D01*
X181557166Y-111699826D01*
X181525929Y-111688175D01*
X181427973Y-111651640D01*
X181420834Y-111650872D01*
X181370871Y-111645500D01*
X181370864Y-111645500D01*
X180829136Y-111645500D01*
X180829128Y-111645500D01*
X180772027Y-111651640D01*
X180642833Y-111699826D01*
X180642832Y-111699827D01*
X180532456Y-111782456D01*
X180449827Y-111892832D01*
X180449826Y-111892833D01*
X180401639Y-112022029D01*
X180401298Y-112023475D01*
X180400725Y-112024481D01*
X180398886Y-112029412D01*
X180398087Y-112029114D01*
X180366167Y-112085171D01*
X180303258Y-112118079D01*
X180278675Y-112120500D01*
X178459384Y-112120500D01*
X178391263Y-112100498D01*
X178370289Y-112083595D01*
X177241405Y-110954711D01*
X177207379Y-110892399D01*
X177204500Y-110865616D01*
X177204500Y-109134079D01*
X177224502Y-109065958D01*
X177227996Y-109060988D01*
X177228698Y-109059771D01*
X177228700Y-109059770D01*
X177295119Y-108944730D01*
X177329500Y-108816419D01*
X177329500Y-108683581D01*
X177295119Y-108555270D01*
X177295118Y-108555268D01*
X177295117Y-108555264D01*
X177294477Y-108553719D01*
X177294325Y-108552309D01*
X177292981Y-108547292D01*
X177293763Y-108547082D01*
X177286887Y-108483130D01*
X177318665Y-108419642D01*
X177379723Y-108383414D01*
X177410885Y-108379500D01*
X180426318Y-108379500D01*
X180494439Y-108399502D01*
X180540932Y-108453158D01*
X180551036Y-108523432D01*
X180539968Y-108555413D01*
X180541405Y-108556008D01*
X180538247Y-108563629D01*
X180527770Y-108602731D01*
X180506107Y-108683581D01*
X180503865Y-108691947D01*
X180503865Y-108824782D01*
X180503864Y-108824782D01*
X180538246Y-108953095D01*
X180604662Y-109068131D01*
X180604670Y-109068141D01*
X180698588Y-109162059D01*
X180698593Y-109162063D01*
X180698595Y-109162065D01*
X180813635Y-109228484D01*
X180941946Y-109262865D01*
X180941948Y-109262865D01*
X180949923Y-109265002D01*
X180949366Y-109267077D01*
X181003879Y-109291190D01*
X181011604Y-109298298D01*
X181960066Y-110246760D01*
X181994092Y-110309072D01*
X181995134Y-110315054D01*
X182029881Y-110444730D01*
X182096297Y-110559766D01*
X182096305Y-110559776D01*
X182190223Y-110653694D01*
X182190228Y-110653698D01*
X182190230Y-110653700D01*
X182305270Y-110720119D01*
X182433581Y-110754500D01*
X182433583Y-110754500D01*
X182566417Y-110754500D01*
X182566419Y-110754500D01*
X182694730Y-110720119D01*
X182809770Y-110653700D01*
X182903700Y-110559770D01*
X182970119Y-110444730D01*
X183004500Y-110316419D01*
X183004500Y-110183581D01*
X182970119Y-110055270D01*
X182903700Y-109940230D01*
X182903698Y-109940228D01*
X182903694Y-109940223D01*
X182809776Y-109846305D01*
X182809766Y-109846297D01*
X182694730Y-109779881D01*
X182566419Y-109745500D01*
X182566417Y-109745500D01*
X182558442Y-109743363D01*
X182558997Y-109741290D01*
X182504469Y-109717160D01*
X182496760Y-109710066D01*
X181548298Y-108761604D01*
X181516101Y-108706629D01*
X181512865Y-108695125D01*
X181512865Y-108691946D01*
X181478484Y-108563635D01*
X181473397Y-108554824D01*
X181469120Y-108539620D01*
X181469351Y-108519267D01*
X181464556Y-108499488D01*
X181469747Y-108484494D01*
X181469928Y-108468628D01*
X181481125Y-108451632D01*
X181487785Y-108432399D01*
X181500258Y-108422592D01*
X181508988Y-108409343D01*
X181527596Y-108401099D01*
X181543598Y-108388519D01*
X181565534Y-108384292D01*
X181573900Y-108380587D01*
X181579916Y-108381521D01*
X181590412Y-108379500D01*
X184790488Y-108379500D01*
X184858609Y-108399502D01*
X184879583Y-108416405D01*
X185897568Y-109434390D01*
X185931594Y-109496702D01*
X185928306Y-109562421D01*
X185873929Y-109729775D01*
X185854446Y-109852786D01*
X185824033Y-109916938D01*
X185763765Y-109954465D01*
X185692775Y-109953451D01*
X185633603Y-109914218D01*
X185605549Y-109852788D01*
X185586067Y-109729782D01*
X185529912Y-109556954D01*
X185447412Y-109395038D01*
X185340598Y-109248022D01*
X185340596Y-109248019D01*
X185212103Y-109119526D01*
X185065088Y-109012713D01*
X185065087Y-109012712D01*
X185065085Y-109012711D01*
X184903169Y-108930211D01*
X184903166Y-108930210D01*
X184903164Y-108930209D01*
X184730346Y-108874057D01*
X184730342Y-108874056D01*
X184730341Y-108874056D01*
X184550856Y-108845628D01*
X184369134Y-108845628D01*
X184195988Y-108873052D01*
X184189643Y-108874057D01*
X184016825Y-108930209D01*
X184016819Y-108930212D01*
X183854901Y-109012713D01*
X183707886Y-109119526D01*
X183579393Y-109248019D01*
X183472580Y-109395034D01*
X183390079Y-109556952D01*
X183390076Y-109556958D01*
X183333924Y-109729776D01*
X183333923Y-109729781D01*
X183333923Y-109729782D01*
X183305495Y-109909267D01*
X183305495Y-110090989D01*
X183321214Y-110190233D01*
X183333924Y-110270479D01*
X183390076Y-110443297D01*
X183390078Y-110443302D01*
X183452808Y-110566417D01*
X183472580Y-110605221D01*
X183579393Y-110752236D01*
X183707886Y-110880729D01*
X183739495Y-110903694D01*
X183854905Y-110987545D01*
X183951702Y-111036865D01*
X184003318Y-111085613D01*
X184020500Y-111149132D01*
X184020500Y-111583375D01*
X184000498Y-111651496D01*
X183950413Y-111694894D01*
X183950747Y-111695506D01*
X183947936Y-111697040D01*
X183946842Y-111697989D01*
X183944183Y-111699089D01*
X183942841Y-111699822D01*
X183942837Y-111699825D01*
X183832456Y-111782456D01*
X183832455Y-111782457D01*
X183832454Y-111782458D01*
X183749827Y-111892832D01*
X183749826Y-111892833D01*
X183701640Y-112022027D01*
X183695500Y-112079128D01*
X183695500Y-112920871D01*
X183701640Y-112977972D01*
X183749826Y-113107166D01*
X183749827Y-113107167D01*
X183796967Y-113170137D01*
X183832456Y-113217544D01*
X183895781Y-113264949D01*
X183942832Y-113300172D01*
X183942833Y-113300173D01*
X183942835Y-113300173D01*
X183942837Y-113300175D01*
X184072027Y-113348360D01*
X184129136Y-113354500D01*
X184129141Y-113354500D01*
X184670859Y-113354500D01*
X184670864Y-113354500D01*
X184727973Y-113348360D01*
X184857163Y-113300175D01*
X184967544Y-113217544D01*
X185050175Y-113107163D01*
X185098360Y-112977973D01*
X185104500Y-112920864D01*
X185104500Y-112079136D01*
X185098360Y-112022027D01*
X185050175Y-111892837D01*
X185050173Y-111892835D01*
X185050173Y-111892833D01*
X185050172Y-111892832D01*
X184967545Y-111782458D01*
X184967546Y-111782458D01*
X184967544Y-111782456D01*
X184857163Y-111699825D01*
X184857161Y-111699824D01*
X184857158Y-111699822D01*
X184849253Y-111695506D01*
X184850500Y-111693221D01*
X184804628Y-111658879D01*
X184779821Y-111592358D01*
X184779500Y-111583375D01*
X184779500Y-111201771D01*
X184799502Y-111133650D01*
X184853158Y-111087157D01*
X184866561Y-111081939D01*
X184903169Y-111070045D01*
X185065085Y-110987545D01*
X185212101Y-110880731D01*
X185340598Y-110752234D01*
X185447412Y-110605218D01*
X185529912Y-110443302D01*
X185586067Y-110270474D01*
X185605549Y-110147467D01*
X185635960Y-110083317D01*
X185696228Y-110045790D01*
X185767218Y-110046804D01*
X185826390Y-110086037D01*
X185854445Y-110147469D01*
X185861218Y-110190230D01*
X185873929Y-110270479D01*
X185930081Y-110443297D01*
X185930083Y-110443302D01*
X185992813Y-110566417D01*
X186012585Y-110605221D01*
X186119398Y-110752236D01*
X186247891Y-110880729D01*
X186279500Y-110903694D01*
X186394910Y-110987545D01*
X186556826Y-111070045D01*
X186729654Y-111126200D01*
X186909139Y-111154628D01*
X186909142Y-111154628D01*
X187090858Y-111154628D01*
X187090861Y-111154628D01*
X187270346Y-111126200D01*
X187443174Y-111070045D01*
X187605090Y-110987545D01*
X187646440Y-110957502D01*
X187658488Y-110953203D01*
X187668158Y-110944825D01*
X187691294Y-110941498D01*
X187713306Y-110933645D01*
X187725765Y-110936542D01*
X187738432Y-110934721D01*
X187759694Y-110944431D01*
X187782458Y-110949725D01*
X187791375Y-110958900D01*
X187803012Y-110964215D01*
X187815646Y-110983875D01*
X187831938Y-111000638D01*
X187835397Y-111014607D01*
X187841396Y-111023941D01*
X187846500Y-111059439D01*
X187846500Y-111064616D01*
X187826498Y-111132737D01*
X187809599Y-111153706D01*
X187385630Y-111577676D01*
X186975819Y-111987487D01*
X186913507Y-112021512D01*
X186842691Y-112016447D01*
X186785856Y-111973900D01*
X186768671Y-111942428D01*
X186750175Y-111892837D01*
X186750174Y-111892835D01*
X186750172Y-111892832D01*
X186714949Y-111845781D01*
X186667544Y-111782456D01*
X186620137Y-111746967D01*
X186557167Y-111699827D01*
X186557166Y-111699826D01*
X186525929Y-111688175D01*
X186427973Y-111651640D01*
X186420834Y-111650872D01*
X186370871Y-111645500D01*
X186370864Y-111645500D01*
X185829136Y-111645500D01*
X185829128Y-111645500D01*
X185772027Y-111651640D01*
X185642833Y-111699826D01*
X185642832Y-111699827D01*
X185532456Y-111782456D01*
X185449827Y-111892832D01*
X185449826Y-111892833D01*
X185401640Y-112022027D01*
X185395500Y-112079128D01*
X185395500Y-112920871D01*
X185401640Y-112977972D01*
X185449826Y-113107166D01*
X185449827Y-113107167D01*
X185496967Y-113170137D01*
X185532456Y-113217544D01*
X185595781Y-113264949D01*
X185642832Y-113300172D01*
X185642833Y-113300173D01*
X185642835Y-113300173D01*
X185642837Y-113300175D01*
X185772027Y-113348360D01*
X185829136Y-113354500D01*
X185829141Y-113354500D01*
X186370859Y-113354500D01*
X186370864Y-113354500D01*
X186427973Y-113348360D01*
X186557163Y-113300175D01*
X186667544Y-113217544D01*
X186750175Y-113107163D01*
X186798360Y-112977973D01*
X186798360Y-112977967D01*
X186798702Y-112976525D01*
X186799274Y-112975518D01*
X186801114Y-112970588D01*
X186801912Y-112970885D01*
X186813596Y-112950367D01*
X186826101Y-112922988D01*
X186830968Y-112919859D01*
X186833833Y-112914829D01*
X186860512Y-112900872D01*
X186885827Y-112884604D01*
X186893806Y-112883456D01*
X186896742Y-112881921D01*
X186921325Y-112879500D01*
X186942304Y-112879500D01*
X186942320Y-112879501D01*
X186950038Y-112879501D01*
X187049961Y-112879501D01*
X187049962Y-112879501D01*
X187126080Y-112859104D01*
X187126082Y-112859104D01*
X187133548Y-112857102D01*
X187146482Y-112853638D01*
X187233019Y-112803676D01*
X187303676Y-112733019D01*
X187314043Y-112722652D01*
X187314050Y-112722642D01*
X188448642Y-111588050D01*
X188448652Y-111588043D01*
X188529670Y-111507025D01*
X188529676Y-111507019D01*
X188579638Y-111420482D01*
X188590840Y-111378676D01*
X188605501Y-111323962D01*
X188605501Y-111224038D01*
X188605500Y-111224034D01*
X188605500Y-110995499D01*
X188625502Y-110927378D01*
X188679158Y-110880885D01*
X188749432Y-110870781D01*
X188805561Y-110893563D01*
X188934913Y-110987544D01*
X188934915Y-110987545D01*
X188951700Y-110996097D01*
X189003316Y-111044843D01*
X189020500Y-111108365D01*
X189020500Y-111583375D01*
X189000498Y-111651496D01*
X188950413Y-111694894D01*
X188950747Y-111695506D01*
X188947936Y-111697040D01*
X188946842Y-111697989D01*
X188944183Y-111699089D01*
X188942841Y-111699822D01*
X188942837Y-111699825D01*
X188832456Y-111782456D01*
X188832455Y-111782457D01*
X188832454Y-111782458D01*
X188749827Y-111892832D01*
X188749826Y-111892833D01*
X188701640Y-112022027D01*
X188695500Y-112079128D01*
X188695500Y-112920871D01*
X188701640Y-112977972D01*
X188749826Y-113107166D01*
X188749827Y-113107167D01*
X188796967Y-113170137D01*
X188832456Y-113217544D01*
X188895781Y-113264949D01*
X188942832Y-113300172D01*
X188942833Y-113300173D01*
X188942835Y-113300173D01*
X188942837Y-113300175D01*
X189072027Y-113348360D01*
X189129136Y-113354500D01*
X189129141Y-113354500D01*
X189670859Y-113354500D01*
X189670864Y-113354500D01*
X189727973Y-113348360D01*
X189857163Y-113300175D01*
X189967544Y-113217544D01*
X190050175Y-113107163D01*
X190098360Y-112977973D01*
X190104500Y-112920864D01*
X190104500Y-112079136D01*
X190098360Y-112022027D01*
X190050175Y-111892837D01*
X190050173Y-111892835D01*
X190050173Y-111892833D01*
X190050172Y-111892832D01*
X189967545Y-111782458D01*
X189967546Y-111782458D01*
X189967544Y-111782456D01*
X189857163Y-111699825D01*
X189857161Y-111699824D01*
X189857158Y-111699822D01*
X189849253Y-111695506D01*
X189850500Y-111693221D01*
X189804628Y-111658879D01*
X189779821Y-111592358D01*
X189779500Y-111583375D01*
X189779500Y-111227768D01*
X189799502Y-111159647D01*
X189853158Y-111113154D01*
X189866558Y-111107937D01*
X189983179Y-111070045D01*
X190145095Y-110987545D01*
X190292111Y-110880731D01*
X190420608Y-110752234D01*
X190527422Y-110605218D01*
X190609922Y-110443302D01*
X190666077Y-110270474D01*
X190694505Y-110090989D01*
X190694505Y-109909267D01*
X190666077Y-109729782D01*
X190609922Y-109556954D01*
X190527422Y-109395038D01*
X190420608Y-109248022D01*
X190420606Y-109248019D01*
X190292113Y-109119526D01*
X190145098Y-109012713D01*
X190145097Y-109012712D01*
X190145095Y-109012711D01*
X189983179Y-108930211D01*
X189983176Y-108930210D01*
X189983174Y-108930209D01*
X189810356Y-108874057D01*
X189810352Y-108874056D01*
X189810351Y-108874056D01*
X189630866Y-108845628D01*
X189449144Y-108845628D01*
X189275998Y-108873052D01*
X189269653Y-108874057D01*
X189096835Y-108930209D01*
X189096829Y-108930212D01*
X188934911Y-109012713D01*
X188805562Y-109106692D01*
X188738695Y-109130550D01*
X188669543Y-109114470D01*
X188620063Y-109063556D01*
X188606807Y-109022848D01*
X188605501Y-109013846D01*
X188605501Y-108926038D01*
X188579638Y-108829519D01*
X188579638Y-108829518D01*
X188529676Y-108742981D01*
X188529674Y-108742979D01*
X188529670Y-108742974D01*
X188454630Y-108667934D01*
X188454607Y-108667913D01*
X186973712Y-107187018D01*
X186973700Y-107187004D01*
X186895873Y-107109177D01*
X186895863Y-107109169D01*
X186809328Y-107059209D01*
X186797969Y-107056165D01*
X186797964Y-107056164D01*
X186788932Y-107053744D01*
X186712810Y-107033347D01*
X186612886Y-107033347D01*
X186612882Y-107033348D01*
X179878816Y-107033348D01*
X179815816Y-107016467D01*
X179709148Y-106954882D01*
X179580837Y-106920501D01*
X179447999Y-106920501D01*
X179362458Y-106943421D01*
X179319687Y-106954882D01*
X179204651Y-107021298D01*
X179204641Y-107021306D01*
X179110723Y-107115224D01*
X179110715Y-107115234D01*
X179044299Y-107230270D01*
X179009918Y-107358583D01*
X179009918Y-107494500D01*
X178989916Y-107562621D01*
X178936260Y-107609114D01*
X178883918Y-107620500D01*
X174307692Y-107620500D01*
X174299964Y-107620499D01*
X174299961Y-107620499D01*
X174261635Y-107620499D01*
X174232029Y-107611805D01*
X174193517Y-107600497D01*
X174193213Y-107600147D01*
X174171661Y-107575274D01*
X174147024Y-107546841D01*
X174147023Y-107546839D01*
X174143424Y-107521806D01*
X174136920Y-107476567D01*
X174154817Y-107437379D01*
X174166415Y-107411984D01*
X174166419Y-107411981D01*
X174172543Y-107405403D01*
X174661543Y-106916404D01*
X174723855Y-106882379D01*
X174750638Y-106879500D01*
X176865921Y-106879500D01*
X176934042Y-106899502D01*
X176939011Y-106902996D01*
X176940229Y-106903699D01*
X176940230Y-106903700D01*
X177055270Y-106970119D01*
X177183581Y-107004500D01*
X177183583Y-107004500D01*
X177316417Y-107004500D01*
X177316419Y-107004500D01*
X177444730Y-106970119D01*
X177559770Y-106903700D01*
X177653700Y-106809770D01*
X177720119Y-106694730D01*
X177754500Y-106566419D01*
X177754500Y-106433581D01*
X177720119Y-106305270D01*
X177666844Y-106212997D01*
X177650107Y-106144003D01*
X177666843Y-106087001D01*
X177720119Y-105994727D01*
X177754500Y-105866416D01*
X177754500Y-105733578D01*
X177720119Y-105605267D01*
X177653700Y-105490227D01*
X177653698Y-105490225D01*
X177653694Y-105490220D01*
X177559776Y-105396302D01*
X177559766Y-105396294D01*
X177444730Y-105329878D01*
X177316419Y-105295497D01*
X177316417Y-105295497D01*
X177308442Y-105293360D01*
X177308997Y-105291287D01*
X177254469Y-105267157D01*
X177246760Y-105260063D01*
X176934867Y-104948170D01*
X176934855Y-104948156D01*
X176857028Y-104870329D01*
X176857018Y-104870321D01*
X176786319Y-104829504D01*
X176770485Y-104820362D01*
X176770484Y-104820361D01*
X176770483Y-104820361D01*
X176759124Y-104817317D01*
X176759119Y-104817316D01*
X176750087Y-104814896D01*
X176673965Y-104794499D01*
X176574041Y-104794499D01*
X176574037Y-104794500D01*
X174319108Y-104794500D01*
X174319092Y-104794499D01*
X174311374Y-104794499D01*
X174211450Y-104794499D01*
X174179278Y-104803119D01*
X174135328Y-104814895D01*
X174135327Y-104814896D01*
X174114930Y-104820362D01*
X174114929Y-104820362D01*
X174114927Y-104820363D01*
X174114926Y-104820363D01*
X174028396Y-104870321D01*
X174028391Y-104870325D01*
X173993064Y-104905653D01*
X173957736Y-104940981D01*
X173957734Y-104940983D01*
X172217025Y-106681691D01*
X172154713Y-106715717D01*
X172083897Y-106710652D01*
X172027062Y-106668105D01*
X172002251Y-106601585D01*
X172004814Y-106574788D01*
X172003422Y-106574605D01*
X172004500Y-106566417D01*
X172004500Y-106433582D01*
X172002335Y-106425500D01*
X171970119Y-106305270D01*
X171903700Y-106190230D01*
X171903697Y-106190227D01*
X171902412Y-106188001D01*
X171885674Y-106119005D01*
X171902412Y-106061999D01*
X171903697Y-106059772D01*
X171903700Y-106059770D01*
X171970119Y-105944730D01*
X172004500Y-105816419D01*
X172004500Y-105683581D01*
X171970119Y-105555270D01*
X171903700Y-105440230D01*
X171903698Y-105440228D01*
X171903694Y-105440223D01*
X171809776Y-105346305D01*
X171809766Y-105346297D01*
X171694730Y-105279881D01*
X171566419Y-105245500D01*
X171566417Y-105245500D01*
X171558442Y-105243363D01*
X171558997Y-105241290D01*
X171548160Y-105236494D01*
X171525470Y-105231559D01*
X171508790Y-105219072D01*
X171504469Y-105217160D01*
X171496760Y-105210066D01*
X171435864Y-105149170D01*
X171435852Y-105149156D01*
X171358025Y-105071329D01*
X171358015Y-105071321D01*
X171286237Y-105029881D01*
X171271482Y-105021362D01*
X171271481Y-105021361D01*
X171271480Y-105021361D01*
X171260121Y-105018317D01*
X171260116Y-105018316D01*
X171251084Y-105015896D01*
X171174962Y-104995499D01*
X171075038Y-104995499D01*
X171075034Y-104995500D01*
X159692696Y-104995500D01*
X159692680Y-104995499D01*
X159684962Y-104995499D01*
X159585038Y-104995499D01*
X159552866Y-105004119D01*
X159508916Y-105015895D01*
X159508915Y-105015896D01*
X159488518Y-105021362D01*
X159488517Y-105021362D01*
X159488515Y-105021363D01*
X159488514Y-105021363D01*
X159401984Y-105071321D01*
X159401979Y-105071325D01*
X159377008Y-105096297D01*
X159331324Y-105141981D01*
X159331322Y-105141983D01*
X158084709Y-106388595D01*
X158022397Y-106422621D01*
X157995615Y-106425500D01*
X157844348Y-106425500D01*
X157753139Y-106439945D01*
X157643204Y-106495959D01*
X157643202Y-106495961D01*
X157589095Y-106550069D01*
X157526783Y-106584095D01*
X157455968Y-106579030D01*
X157410905Y-106550069D01*
X157356795Y-106495959D01*
X157301829Y-106467953D01*
X157246862Y-106439946D01*
X157155653Y-106425500D01*
X157155649Y-106425500D01*
X156824348Y-106425500D01*
X156733139Y-106439945D01*
X156623205Y-106495959D01*
X156535568Y-106583596D01*
X156473256Y-106617621D01*
X156446473Y-106620500D01*
X151155499Y-106620500D01*
X151087378Y-106600498D01*
X151040885Y-106546842D01*
X151030567Y-106499411D01*
X151029679Y-106499459D01*
X151029499Y-106496115D01*
X151029499Y-106496092D01*
X151023120Y-106436750D01*
X150973051Y-106302509D01*
X150973049Y-106302507D01*
X150973049Y-106302505D01*
X150887189Y-106187810D01*
X150772494Y-106101950D01*
X150732403Y-106086997D01*
X150638250Y-106051880D01*
X150608579Y-106048690D01*
X150578910Y-106045500D01*
X149996099Y-106045500D01*
X149996078Y-106045502D01*
X149936753Y-106051879D01*
X149802505Y-106101950D01*
X149687810Y-106187810D01*
X149601950Y-106302505D01*
X149551880Y-106436750D01*
X149545500Y-106496083D01*
X149545500Y-107503900D01*
X149545502Y-107503921D01*
X149551879Y-107563246D01*
X149551879Y-107563248D01*
X149551880Y-107563250D01*
X149569990Y-107611805D01*
X149601950Y-107697494D01*
X149687810Y-107812189D01*
X149802505Y-107898049D01*
X149802507Y-107898049D01*
X149802509Y-107898051D01*
X149936750Y-107948120D01*
X149996091Y-107954500D01*
X150578908Y-107954499D01*
X150638250Y-107948120D01*
X150772491Y-107898051D01*
X150887189Y-107812189D01*
X150973051Y-107697491D01*
X151023120Y-107563250D01*
X151029500Y-107503909D01*
X151029500Y-107503897D01*
X151029680Y-107500544D01*
X151029860Y-107500553D01*
X151029861Y-107500553D01*
X151029873Y-107500554D01*
X151030935Y-107500611D01*
X151049502Y-107437379D01*
X151103158Y-107390886D01*
X151155500Y-107379500D01*
X156446473Y-107379500D01*
X156514594Y-107399502D01*
X156535568Y-107416404D01*
X156535959Y-107416795D01*
X156535960Y-107416796D01*
X156623204Y-107504040D01*
X156733138Y-107560054D01*
X156824347Y-107574500D01*
X157155652Y-107574499D01*
X157246862Y-107560054D01*
X157356796Y-107504040D01*
X157410905Y-107449931D01*
X157473217Y-107415905D01*
X157544032Y-107420970D01*
X157589095Y-107449931D01*
X157643204Y-107504040D01*
X157753138Y-107560054D01*
X157844347Y-107574500D01*
X158175652Y-107574499D01*
X158266862Y-107560054D01*
X158376796Y-107504040D01*
X158464040Y-107416796D01*
X158520054Y-107306862D01*
X158534500Y-107215653D01*
X158534499Y-107064383D01*
X158554501Y-106996263D01*
X158571395Y-106975297D01*
X159755291Y-105791402D01*
X159817601Y-105757379D01*
X159844384Y-105754500D01*
X160644615Y-105754500D01*
X160712736Y-105774502D01*
X160759229Y-105828158D01*
X160769333Y-105898432D01*
X160739839Y-105963012D01*
X160733710Y-105969596D01*
X160314708Y-106388596D01*
X160252396Y-106422621D01*
X160225614Y-106425500D01*
X160074348Y-106425500D01*
X159983139Y-106439945D01*
X159873204Y-106495959D01*
X159785959Y-106583204D01*
X159730000Y-106693032D01*
X159729946Y-106693138D01*
X159715500Y-106784347D01*
X159715500Y-106784350D01*
X159715500Y-107215651D01*
X159729945Y-107306860D01*
X159783506Y-107411981D01*
X159785960Y-107416796D01*
X159873204Y-107504040D01*
X159983138Y-107560054D01*
X160074347Y-107574500D01*
X160405652Y-107574499D01*
X160496862Y-107560054D01*
X160606796Y-107504040D01*
X160660905Y-107449931D01*
X160723217Y-107415905D01*
X160794032Y-107420970D01*
X160839095Y-107449931D01*
X160893204Y-107504040D01*
X161003138Y-107560054D01*
X161094347Y-107574500D01*
X161245613Y-107574499D01*
X161313734Y-107594501D01*
X161334710Y-107611404D01*
X161829710Y-108106405D01*
X161863735Y-108168717D01*
X161858670Y-108239533D01*
X161816123Y-108296368D01*
X161749603Y-108321179D01*
X161740614Y-108321500D01*
X141660384Y-108321500D01*
X141592263Y-108301498D01*
X141571289Y-108284595D01*
X140311404Y-107024710D01*
X140277378Y-106962398D01*
X140274499Y-106935615D01*
X140274499Y-106784348D01*
X140260054Y-106693139D01*
X140260054Y-106693138D01*
X140204040Y-106583204D01*
X140116796Y-106495960D01*
X140116795Y-106495959D01*
X140061829Y-106467953D01*
X140006862Y-106439946D01*
X139915653Y-106425500D01*
X139915649Y-106425500D01*
X139584348Y-106425500D01*
X139493139Y-106439945D01*
X139383204Y-106495959D01*
X139383202Y-106495961D01*
X139329095Y-106550069D01*
X139266783Y-106584095D01*
X139195968Y-106579030D01*
X139150905Y-106550069D01*
X139096795Y-106495959D01*
X139041829Y-106467953D01*
X138986862Y-106439946D01*
X138895653Y-106425500D01*
X138895649Y-106425500D01*
X138564348Y-106425500D01*
X138473139Y-106439945D01*
X138363205Y-106495959D01*
X138275568Y-106583596D01*
X138213256Y-106617621D01*
X138186473Y-106620500D01*
X131655499Y-106620500D01*
X131587378Y-106600498D01*
X131540885Y-106546842D01*
X131530567Y-106499411D01*
X131529679Y-106499459D01*
X131529499Y-106496115D01*
X131529499Y-106496092D01*
X131523120Y-106436750D01*
X131473051Y-106302509D01*
X131473049Y-106302507D01*
X131473049Y-106302505D01*
X131387189Y-106187810D01*
X131272494Y-106101950D01*
X131232403Y-106086997D01*
X131138250Y-106051880D01*
X131108579Y-106048690D01*
X131078910Y-106045500D01*
X130496099Y-106045500D01*
X130496078Y-106045502D01*
X130436753Y-106051879D01*
X130302505Y-106101950D01*
X130187810Y-106187810D01*
X130101950Y-106302505D01*
X130051880Y-106436750D01*
X130045500Y-106496083D01*
X130045500Y-107503900D01*
X130045502Y-107503921D01*
X130051879Y-107563246D01*
X130051879Y-107563248D01*
X130051880Y-107563250D01*
X130069990Y-107611805D01*
X130101950Y-107697494D01*
X130187810Y-107812189D01*
X130302505Y-107898049D01*
X130302507Y-107898049D01*
X130302509Y-107898051D01*
X130436750Y-107948120D01*
X130496091Y-107954500D01*
X131078908Y-107954499D01*
X131138250Y-107948120D01*
X131272491Y-107898051D01*
X131387189Y-107812189D01*
X131473051Y-107697491D01*
X131523120Y-107563250D01*
X131529500Y-107503909D01*
X131529500Y-107503897D01*
X131529680Y-107500544D01*
X131529860Y-107500553D01*
X131529861Y-107500553D01*
X131529873Y-107500554D01*
X131530935Y-107500611D01*
X131549502Y-107437379D01*
X131603158Y-107390886D01*
X131655500Y-107379500D01*
X138186473Y-107379500D01*
X138254594Y-107399502D01*
X138275568Y-107416404D01*
X138275959Y-107416795D01*
X138275960Y-107416796D01*
X138363204Y-107504040D01*
X138473138Y-107560054D01*
X138564347Y-107574500D01*
X138895652Y-107574499D01*
X138986862Y-107560054D01*
X139096796Y-107504040D01*
X139150905Y-107449931D01*
X139213217Y-107415905D01*
X139284032Y-107420970D01*
X139329095Y-107449931D01*
X139383204Y-107504040D01*
X139493138Y-107560054D01*
X139584347Y-107574500D01*
X139735614Y-107574499D01*
X139803735Y-107594501D01*
X139824710Y-107611404D01*
X141142913Y-108929607D01*
X141142934Y-108929630D01*
X141217974Y-109004670D01*
X141217979Y-109004674D01*
X141217981Y-109004676D01*
X141217982Y-109004677D01*
X141217984Y-109004678D01*
X141304513Y-109054636D01*
X141304515Y-109054636D01*
X141304518Y-109054638D01*
X141401038Y-109080500D01*
X170662525Y-109080500D01*
X170662529Y-109080501D01*
X170762453Y-109080501D01*
X170839820Y-109059770D01*
X170858973Y-109054638D01*
X170858977Y-109054636D01*
X170931593Y-109012711D01*
X170945510Y-109004676D01*
X171016167Y-108934019D01*
X171026533Y-108923653D01*
X171026541Y-108923643D01*
X171180832Y-108769351D01*
X171206928Y-108749328D01*
X171236639Y-108732176D01*
X171240297Y-108730401D01*
X171241247Y-108729774D01*
X171244364Y-108727717D01*
X171244417Y-108727687D01*
X171244426Y-108727677D01*
X171244431Y-108727675D01*
X171244435Y-108727670D01*
X171244747Y-108727465D01*
X171246724Y-108725381D01*
X171272068Y-108700038D01*
X171315077Y-108657033D01*
X171315077Y-108657031D01*
X171322239Y-108649871D01*
X171322268Y-108649836D01*
X174381701Y-105590405D01*
X174444013Y-105556379D01*
X174470796Y-105553500D01*
X176414619Y-105553500D01*
X176482740Y-105573502D01*
X176503714Y-105590405D01*
X176710066Y-105796757D01*
X176718304Y-105811126D01*
X176728957Y-105820930D01*
X176736812Y-105843410D01*
X176742874Y-105853983D01*
X176745500Y-105864027D01*
X176745500Y-105866416D01*
X176771163Y-105962192D01*
X176771278Y-105962631D01*
X176770229Y-105997707D01*
X176769392Y-106032866D01*
X176769167Y-106033197D01*
X176769156Y-106033596D01*
X176749284Y-106062574D01*
X176729598Y-106091661D01*
X176729231Y-106091818D01*
X176729005Y-106092148D01*
X176696583Y-106105798D01*
X176664333Y-106119609D01*
X176663691Y-106119647D01*
X176663571Y-106119698D01*
X176663384Y-106119665D01*
X176649375Y-106120500D01*
X174598948Y-106120500D01*
X174598932Y-106120499D01*
X174591214Y-106120499D01*
X174491290Y-106120499D01*
X174459118Y-106129119D01*
X174415168Y-106140895D01*
X174415167Y-106140896D01*
X174394770Y-106146362D01*
X174394769Y-106146362D01*
X174394767Y-106146363D01*
X174394766Y-106146363D01*
X174322980Y-106187810D01*
X174322978Y-106187811D01*
X174318788Y-106190230D01*
X174308234Y-106196323D01*
X174308226Y-106196329D01*
X168670963Y-111833595D01*
X168608651Y-111867621D01*
X168581868Y-111870500D01*
X125959385Y-111870500D01*
X125891264Y-111850498D01*
X125870290Y-111833595D01*
X124603112Y-110566417D01*
X133245499Y-110566417D01*
X133279881Y-110694730D01*
X133346297Y-110809766D01*
X133346305Y-110809776D01*
X133440223Y-110903694D01*
X133440228Y-110903698D01*
X133440230Y-110903700D01*
X133555270Y-110970119D01*
X133683581Y-111004500D01*
X133683583Y-111004500D01*
X133816417Y-111004500D01*
X133816419Y-111004500D01*
X133944730Y-110970119D01*
X134059770Y-110903700D01*
X134153700Y-110809770D01*
X134220119Y-110694730D01*
X134254500Y-110566419D01*
X134254500Y-110433581D01*
X134220119Y-110305270D01*
X134153700Y-110190230D01*
X134153698Y-110190228D01*
X134153694Y-110190223D01*
X134059776Y-110096305D01*
X134059766Y-110096297D01*
X133944730Y-110029881D01*
X133816419Y-109995500D01*
X133683581Y-109995500D01*
X133598040Y-110018420D01*
X133555269Y-110029881D01*
X133440233Y-110096297D01*
X133440223Y-110096305D01*
X133346305Y-110190223D01*
X133346297Y-110190233D01*
X133279881Y-110305269D01*
X133245500Y-110433582D01*
X133245500Y-110566417D01*
X133245499Y-110566417D01*
X124603112Y-110566417D01*
X121081404Y-107044709D01*
X121047378Y-106982397D01*
X121044499Y-106955614D01*
X121044499Y-106784348D01*
X121030054Y-106693139D01*
X121030054Y-106693138D01*
X120974040Y-106583204D01*
X120886796Y-106495960D01*
X120886795Y-106495959D01*
X120831829Y-106467953D01*
X120776862Y-106439946D01*
X120685653Y-106425500D01*
X120685649Y-106425500D01*
X120354348Y-106425500D01*
X120263139Y-106439945D01*
X120153204Y-106495959D01*
X120153202Y-106495961D01*
X120099095Y-106550069D01*
X120036783Y-106584095D01*
X119965968Y-106579030D01*
X119920905Y-106550069D01*
X119866795Y-106495959D01*
X119811829Y-106467953D01*
X119756862Y-106439946D01*
X119665653Y-106425500D01*
X119665649Y-106425500D01*
X119334348Y-106425500D01*
X119243139Y-106439945D01*
X119133205Y-106495959D01*
X119045568Y-106583596D01*
X118983256Y-106617621D01*
X118956473Y-106620500D01*
X112155499Y-106620500D01*
X112087378Y-106600498D01*
X112040885Y-106546842D01*
X112030567Y-106499411D01*
X112029679Y-106499459D01*
X112029499Y-106496115D01*
X112029499Y-106496092D01*
X112023120Y-106436750D01*
X111973051Y-106302509D01*
X111973049Y-106302507D01*
X111973049Y-106302505D01*
X111887189Y-106187810D01*
X111772494Y-106101950D01*
X111732403Y-106086997D01*
X111638250Y-106051880D01*
X111608579Y-106048690D01*
X111578910Y-106045500D01*
X110996099Y-106045500D01*
X110996078Y-106045502D01*
X110936753Y-106051879D01*
X110802505Y-106101950D01*
X110687810Y-106187810D01*
X110601950Y-106302505D01*
X110551880Y-106436750D01*
X110545500Y-106496083D01*
X100652900Y-106496083D01*
X100652900Y-105566417D01*
X105745499Y-105566417D01*
X105779881Y-105694730D01*
X105846297Y-105809766D01*
X105846305Y-105809776D01*
X105940223Y-105903694D01*
X105940228Y-105903698D01*
X105940230Y-105903700D01*
X106055270Y-105970119D01*
X106183581Y-106004500D01*
X106183583Y-106004500D01*
X106316417Y-106004500D01*
X106316419Y-106004500D01*
X106444730Y-105970119D01*
X106559770Y-105903700D01*
X106653700Y-105809770D01*
X106720119Y-105694730D01*
X106754500Y-105566419D01*
X106754500Y-105433581D01*
X106720119Y-105305270D01*
X106669248Y-105217160D01*
X106653702Y-105190233D01*
X106653694Y-105190223D01*
X106559776Y-105096305D01*
X106559766Y-105096297D01*
X106444730Y-105029881D01*
X106316419Y-104995500D01*
X106183581Y-104995500D01*
X106098427Y-105018317D01*
X106055269Y-105029881D01*
X105940233Y-105096297D01*
X105940223Y-105096305D01*
X105846305Y-105190223D01*
X105846297Y-105190233D01*
X105779881Y-105305269D01*
X105745500Y-105433582D01*
X105745500Y-105566417D01*
X105745499Y-105566417D01*
X100652900Y-105566417D01*
X100652900Y-104816417D01*
X132245499Y-104816417D01*
X132279881Y-104944730D01*
X132346297Y-105059766D01*
X132346305Y-105059776D01*
X132440223Y-105153694D01*
X132440228Y-105153698D01*
X132440230Y-105153700D01*
X132555270Y-105220119D01*
X132683581Y-105254500D01*
X132683583Y-105254500D01*
X132816417Y-105254500D01*
X132816419Y-105254500D01*
X132944730Y-105220119D01*
X133059770Y-105153700D01*
X133153700Y-105059770D01*
X133220119Y-104944730D01*
X133254500Y-104816419D01*
X133254500Y-104683581D01*
X133220119Y-104555270D01*
X133179470Y-104484865D01*
X133153702Y-104440233D01*
X133153694Y-104440223D01*
X133059776Y-104346305D01*
X133059766Y-104346297D01*
X132944730Y-104279881D01*
X132816419Y-104245500D01*
X132683581Y-104245500D01*
X132598040Y-104268420D01*
X132555269Y-104279881D01*
X132440233Y-104346297D01*
X132440223Y-104346305D01*
X132346305Y-104440223D01*
X132346297Y-104440233D01*
X132279881Y-104555269D01*
X132245500Y-104683582D01*
X132245500Y-104816417D01*
X132245499Y-104816417D01*
X100652900Y-104816417D01*
X100652900Y-102415073D01*
X104170900Y-102415073D01*
X104170900Y-102584927D01*
X104197471Y-102752690D01*
X104249959Y-102914231D01*
X104260954Y-102935809D01*
X104327072Y-103065574D01*
X104426908Y-103202988D01*
X104547011Y-103323091D01*
X104684425Y-103422927D01*
X104684428Y-103422929D01*
X104835769Y-103500041D01*
X104997310Y-103552529D01*
X105165073Y-103579100D01*
X105165076Y-103579100D01*
X105334924Y-103579100D01*
X105334927Y-103579100D01*
X105502690Y-103552529D01*
X105664231Y-103500041D01*
X105815572Y-103422929D01*
X105952987Y-103323092D01*
X106073092Y-103202987D01*
X106172929Y-103065572D01*
X106250041Y-102914231D01*
X106302529Y-102752690D01*
X106329100Y-102584927D01*
X106329100Y-102415073D01*
X106319410Y-102353894D01*
X108100900Y-102353894D01*
X108100900Y-102646105D01*
X108139038Y-102935801D01*
X108214667Y-103218053D01*
X108214668Y-103218055D01*
X108214669Y-103218058D01*
X108326491Y-103488021D01*
X108326492Y-103488022D01*
X108326497Y-103488033D01*
X108472591Y-103741075D01*
X108472596Y-103741082D01*
X108650470Y-103972892D01*
X108650489Y-103972913D01*
X108857086Y-104179510D01*
X108857107Y-104179529D01*
X109088917Y-104357403D01*
X109088924Y-104357408D01*
X109341966Y-104503502D01*
X109341970Y-104503503D01*
X109341979Y-104503509D01*
X109611942Y-104615331D01*
X109894191Y-104690960D01*
X109894197Y-104690960D01*
X109894198Y-104690961D01*
X109927446Y-104695338D01*
X110183897Y-104729100D01*
X110183904Y-104729100D01*
X110476096Y-104729100D01*
X110476103Y-104729100D01*
X110765809Y-104690960D01*
X111048058Y-104615331D01*
X111318021Y-104503509D01*
X111571079Y-104357406D01*
X111802901Y-104179522D01*
X112009522Y-103972901D01*
X112187406Y-103741079D01*
X112333509Y-103488021D01*
X112445331Y-103218058D01*
X112520960Y-102935809D01*
X112559100Y-102646103D01*
X112559100Y-102415073D01*
X114330900Y-102415073D01*
X114330900Y-102584927D01*
X114357471Y-102752690D01*
X114409959Y-102914231D01*
X114420954Y-102935809D01*
X114487072Y-103065574D01*
X114586908Y-103202988D01*
X114707011Y-103323091D01*
X114844425Y-103422927D01*
X114844428Y-103422929D01*
X114995769Y-103500041D01*
X115157310Y-103552529D01*
X115325073Y-103579100D01*
X115325076Y-103579100D01*
X115494924Y-103579100D01*
X115494927Y-103579100D01*
X115662690Y-103552529D01*
X115824231Y-103500041D01*
X115975572Y-103422929D01*
X116112987Y-103323092D01*
X116233092Y-103202987D01*
X116332929Y-103065572D01*
X116410041Y-102914231D01*
X116462529Y-102752690D01*
X116489100Y-102584927D01*
X116489100Y-102415073D01*
X123670900Y-102415073D01*
X123670900Y-102584927D01*
X123697471Y-102752690D01*
X123749959Y-102914231D01*
X123760954Y-102935809D01*
X123827072Y-103065574D01*
X123926908Y-103202988D01*
X124047011Y-103323091D01*
X124184425Y-103422927D01*
X124184428Y-103422929D01*
X124335769Y-103500041D01*
X124497310Y-103552529D01*
X124665073Y-103579100D01*
X124665076Y-103579100D01*
X124834924Y-103579100D01*
X124834927Y-103579100D01*
X125002690Y-103552529D01*
X125164231Y-103500041D01*
X125315572Y-103422929D01*
X125452987Y-103323092D01*
X125573092Y-103202987D01*
X125672929Y-103065572D01*
X125750041Y-102914231D01*
X125802529Y-102752690D01*
X125829100Y-102584927D01*
X125829100Y-102415073D01*
X125819410Y-102353894D01*
X127600900Y-102353894D01*
X127600900Y-102646105D01*
X127639038Y-102935801D01*
X127714667Y-103218053D01*
X127714668Y-103218055D01*
X127714669Y-103218058D01*
X127826491Y-103488021D01*
X127826492Y-103488022D01*
X127826497Y-103488033D01*
X127972591Y-103741075D01*
X127972596Y-103741082D01*
X128150470Y-103972892D01*
X128150489Y-103972913D01*
X128357086Y-104179510D01*
X128357107Y-104179529D01*
X128588917Y-104357403D01*
X128588924Y-104357408D01*
X128841966Y-104503502D01*
X128841970Y-104503503D01*
X128841979Y-104503509D01*
X129111942Y-104615331D01*
X129394191Y-104690960D01*
X129394197Y-104690960D01*
X129394198Y-104690961D01*
X129427446Y-104695338D01*
X129683897Y-104729100D01*
X129683904Y-104729100D01*
X129976096Y-104729100D01*
X129976103Y-104729100D01*
X130265809Y-104690960D01*
X130548058Y-104615331D01*
X130818021Y-104503509D01*
X131071079Y-104357406D01*
X131302901Y-104179522D01*
X131416006Y-104066417D01*
X145745499Y-104066417D01*
X145779881Y-104194730D01*
X145846297Y-104309766D01*
X145846305Y-104309776D01*
X145940223Y-104403694D01*
X145940228Y-104403698D01*
X145940230Y-104403700D01*
X145940231Y-104403701D01*
X145940233Y-104403702D01*
X145984865Y-104429470D01*
X146055270Y-104470119D01*
X146183581Y-104504500D01*
X146183583Y-104504500D01*
X146316417Y-104504500D01*
X146316419Y-104504500D01*
X146444730Y-104470119D01*
X146559770Y-104403700D01*
X146653700Y-104309770D01*
X146720119Y-104194730D01*
X146754500Y-104066419D01*
X146754500Y-103933581D01*
X146720119Y-103805270D01*
X146653700Y-103690230D01*
X146653698Y-103690228D01*
X146653694Y-103690223D01*
X146559776Y-103596305D01*
X146559766Y-103596297D01*
X146444730Y-103529881D01*
X146316419Y-103495500D01*
X146183581Y-103495500D01*
X146098040Y-103518420D01*
X146055269Y-103529881D01*
X145940233Y-103596297D01*
X145940223Y-103596305D01*
X145846305Y-103690223D01*
X145846297Y-103690233D01*
X145779881Y-103805269D01*
X145745500Y-103933582D01*
X145745500Y-104066417D01*
X145745499Y-104066417D01*
X131416006Y-104066417D01*
X131509522Y-103972901D01*
X131687406Y-103741079D01*
X131833509Y-103488021D01*
X131945331Y-103218058D01*
X132020960Y-102935809D01*
X132059100Y-102646103D01*
X132059100Y-102415073D01*
X133830900Y-102415073D01*
X133830900Y-102584927D01*
X133857471Y-102752690D01*
X133909959Y-102914231D01*
X133920954Y-102935809D01*
X133987072Y-103065574D01*
X134086908Y-103202988D01*
X134207011Y-103323091D01*
X134344425Y-103422927D01*
X134344428Y-103422929D01*
X134495769Y-103500041D01*
X134657310Y-103552529D01*
X134825073Y-103579100D01*
X134825076Y-103579100D01*
X134994924Y-103579100D01*
X134994927Y-103579100D01*
X135162690Y-103552529D01*
X135324231Y-103500041D01*
X135475572Y-103422929D01*
X135612987Y-103323092D01*
X135733092Y-103202987D01*
X135832929Y-103065572D01*
X135910041Y-102914231D01*
X135962529Y-102752690D01*
X135989100Y-102584927D01*
X135989100Y-102415073D01*
X143170900Y-102415073D01*
X143170900Y-102584927D01*
X143197471Y-102752690D01*
X143249959Y-102914231D01*
X143260954Y-102935809D01*
X143327072Y-103065574D01*
X143426908Y-103202988D01*
X143547011Y-103323091D01*
X143684425Y-103422927D01*
X143684428Y-103422929D01*
X143835769Y-103500041D01*
X143997310Y-103552529D01*
X144165073Y-103579100D01*
X144165076Y-103579100D01*
X144334924Y-103579100D01*
X144334927Y-103579100D01*
X144502690Y-103552529D01*
X144664231Y-103500041D01*
X144815572Y-103422929D01*
X144952987Y-103323092D01*
X145073092Y-103202987D01*
X145172929Y-103065572D01*
X145250041Y-102914231D01*
X145302529Y-102752690D01*
X145329100Y-102584927D01*
X145329100Y-102415073D01*
X145319410Y-102353894D01*
X147100900Y-102353894D01*
X147100900Y-102646105D01*
X147139038Y-102935801D01*
X147214667Y-103218053D01*
X147214668Y-103218055D01*
X147214669Y-103218058D01*
X147326491Y-103488021D01*
X147326492Y-103488022D01*
X147326497Y-103488033D01*
X147472591Y-103741075D01*
X147472596Y-103741082D01*
X147650470Y-103972892D01*
X147650489Y-103972913D01*
X147857086Y-104179510D01*
X147857107Y-104179529D01*
X148088917Y-104357403D01*
X148088924Y-104357408D01*
X148341966Y-104503502D01*
X148341970Y-104503503D01*
X148341979Y-104503509D01*
X148611942Y-104615331D01*
X148894191Y-104690960D01*
X148894197Y-104690960D01*
X148894198Y-104690961D01*
X148927446Y-104695338D01*
X149183897Y-104729100D01*
X149183904Y-104729100D01*
X149476096Y-104729100D01*
X149476103Y-104729100D01*
X149765809Y-104690960D01*
X150048058Y-104615331D01*
X150318021Y-104503509D01*
X150571079Y-104357406D01*
X150802901Y-104179522D01*
X151009522Y-103972901D01*
X151187406Y-103741079D01*
X151333509Y-103488021D01*
X151445331Y-103218058D01*
X151520960Y-102935809D01*
X151559100Y-102646103D01*
X151559100Y-102415073D01*
X153330900Y-102415073D01*
X153330900Y-102584927D01*
X153357471Y-102752690D01*
X153409959Y-102914231D01*
X153420954Y-102935809D01*
X153487072Y-103065574D01*
X153586908Y-103202988D01*
X153707011Y-103323091D01*
X153844425Y-103422927D01*
X153844428Y-103422929D01*
X153995769Y-103500041D01*
X154157310Y-103552529D01*
X154325073Y-103579100D01*
X154325076Y-103579100D01*
X154494924Y-103579100D01*
X154494927Y-103579100D01*
X154662690Y-103552529D01*
X154824231Y-103500041D01*
X154975572Y-103422929D01*
X155112987Y-103323092D01*
X155233092Y-103202987D01*
X155332929Y-103065572D01*
X155410041Y-102914231D01*
X155462529Y-102752690D01*
X155489100Y-102584927D01*
X155489100Y-102415073D01*
X162670900Y-102415073D01*
X162670900Y-102584927D01*
X162697471Y-102752690D01*
X162749959Y-102914231D01*
X162760954Y-102935809D01*
X162827072Y-103065574D01*
X162926908Y-103202988D01*
X163047011Y-103323091D01*
X163184425Y-103422927D01*
X163184428Y-103422929D01*
X163335769Y-103500041D01*
X163497310Y-103552529D01*
X163665073Y-103579100D01*
X163665076Y-103579100D01*
X163834924Y-103579100D01*
X163834927Y-103579100D01*
X164002690Y-103552529D01*
X164164231Y-103500041D01*
X164315572Y-103422929D01*
X164452987Y-103323092D01*
X164573092Y-103202987D01*
X164672929Y-103065572D01*
X164750041Y-102914231D01*
X164802529Y-102752690D01*
X164829100Y-102584927D01*
X164829100Y-102415073D01*
X164802529Y-102247310D01*
X164750041Y-102085769D01*
X164672929Y-101934428D01*
X164653143Y-101907194D01*
X164573091Y-101797011D01*
X164452988Y-101676908D01*
X164315574Y-101577072D01*
X164274341Y-101556063D01*
X164164231Y-101499959D01*
X164002690Y-101447471D01*
X163834927Y-101420900D01*
X163665073Y-101420900D01*
X163497310Y-101447471D01*
X163497307Y-101447471D01*
X163497306Y-101447472D01*
X163335769Y-101499959D01*
X163335767Y-101499960D01*
X163184425Y-101577072D01*
X163047011Y-101676908D01*
X162926908Y-101797011D01*
X162827072Y-101934425D01*
X162749960Y-102085767D01*
X162749959Y-102085769D01*
X162718178Y-102183582D01*
X162697471Y-102247310D01*
X162670900Y-102415073D01*
X155489100Y-102415073D01*
X155462529Y-102247310D01*
X155410041Y-102085769D01*
X155332929Y-101934428D01*
X155313143Y-101907194D01*
X155233091Y-101797011D01*
X155112988Y-101676908D01*
X154975574Y-101577072D01*
X154934341Y-101556063D01*
X154824231Y-101499959D01*
X154662690Y-101447471D01*
X154494927Y-101420900D01*
X154325073Y-101420900D01*
X154157310Y-101447471D01*
X154157307Y-101447471D01*
X154157306Y-101447472D01*
X153995769Y-101499959D01*
X153995767Y-101499960D01*
X153844425Y-101577072D01*
X153707011Y-101676908D01*
X153586908Y-101797011D01*
X153487072Y-101934425D01*
X153409960Y-102085767D01*
X153409959Y-102085769D01*
X153378178Y-102183582D01*
X153357471Y-102247310D01*
X153330900Y-102415073D01*
X151559100Y-102415073D01*
X151559100Y-102353897D01*
X151523801Y-102085769D01*
X151520961Y-102064198D01*
X151520960Y-102064197D01*
X151520960Y-102064191D01*
X151445331Y-101781942D01*
X151333509Y-101511979D01*
X151333503Y-101511970D01*
X151333502Y-101511966D01*
X151187408Y-101258924D01*
X151187403Y-101258917D01*
X151009529Y-101027107D01*
X151009510Y-101027086D01*
X150802913Y-100820489D01*
X150802892Y-100820470D01*
X150571082Y-100642596D01*
X150571075Y-100642591D01*
X150318033Y-100496497D01*
X150318025Y-100496493D01*
X150318021Y-100496491D01*
X150048058Y-100384669D01*
X150048055Y-100384668D01*
X150048053Y-100384667D01*
X149795225Y-100316922D01*
X149765809Y-100309040D01*
X149765807Y-100309039D01*
X149765801Y-100309038D01*
X149476105Y-100270900D01*
X149476103Y-100270900D01*
X149183897Y-100270900D01*
X149183894Y-100270900D01*
X148894198Y-100309038D01*
X148611946Y-100384667D01*
X148611942Y-100384669D01*
X148342465Y-100496290D01*
X148341977Y-100496492D01*
X148341966Y-100496497D01*
X148088924Y-100642591D01*
X148088917Y-100642596D01*
X147857107Y-100820470D01*
X147857086Y-100820489D01*
X147650489Y-101027086D01*
X147650470Y-101027107D01*
X147472596Y-101258917D01*
X147472591Y-101258924D01*
X147326497Y-101511966D01*
X147326492Y-101511977D01*
X147326491Y-101511979D01*
X147248595Y-101700038D01*
X147214669Y-101781942D01*
X147214667Y-101781946D01*
X147139038Y-102064198D01*
X147100900Y-102353894D01*
X145319410Y-102353894D01*
X145302529Y-102247310D01*
X145250041Y-102085769D01*
X145172929Y-101934428D01*
X145153143Y-101907194D01*
X145073091Y-101797011D01*
X144952988Y-101676908D01*
X144815574Y-101577072D01*
X144774341Y-101556063D01*
X144664231Y-101499959D01*
X144502690Y-101447471D01*
X144334927Y-101420900D01*
X144165073Y-101420900D01*
X143997310Y-101447471D01*
X143997307Y-101447471D01*
X143997306Y-101447472D01*
X143835769Y-101499959D01*
X143835767Y-101499960D01*
X143684425Y-101577072D01*
X143547011Y-101676908D01*
X143426908Y-101797011D01*
X143327072Y-101934425D01*
X143249960Y-102085767D01*
X143249959Y-102085769D01*
X143218178Y-102183582D01*
X143197471Y-102247310D01*
X143170900Y-102415073D01*
X135989100Y-102415073D01*
X135962529Y-102247310D01*
X135910041Y-102085769D01*
X135832929Y-101934428D01*
X135813143Y-101907194D01*
X135733091Y-101797011D01*
X135612988Y-101676908D01*
X135475574Y-101577072D01*
X135434341Y-101556063D01*
X135324231Y-101499959D01*
X135162690Y-101447471D01*
X134994927Y-101420900D01*
X134825073Y-101420900D01*
X134657310Y-101447471D01*
X134657307Y-101447471D01*
X134657306Y-101447472D01*
X134495769Y-101499959D01*
X134495767Y-101499960D01*
X134344425Y-101577072D01*
X134207011Y-101676908D01*
X134086908Y-101797011D01*
X133987072Y-101934425D01*
X133909960Y-102085767D01*
X133909959Y-102085769D01*
X133878178Y-102183582D01*
X133857471Y-102247310D01*
X133830900Y-102415073D01*
X132059100Y-102415073D01*
X132059100Y-102353897D01*
X132023801Y-102085769D01*
X132020961Y-102064198D01*
X132020960Y-102064197D01*
X132020960Y-102064191D01*
X131945331Y-101781942D01*
X131833509Y-101511979D01*
X131833503Y-101511970D01*
X131833502Y-101511966D01*
X131687408Y-101258924D01*
X131687403Y-101258917D01*
X131509529Y-101027107D01*
X131509510Y-101027086D01*
X131302913Y-100820489D01*
X131302892Y-100820470D01*
X131071082Y-100642596D01*
X131071075Y-100642591D01*
X130818033Y-100496497D01*
X130818025Y-100496493D01*
X130818021Y-100496491D01*
X130548058Y-100384669D01*
X130548055Y-100384668D01*
X130548053Y-100384667D01*
X130295225Y-100316922D01*
X130265809Y-100309040D01*
X130265807Y-100309039D01*
X130265801Y-100309038D01*
X129976105Y-100270900D01*
X129976103Y-100270900D01*
X129683897Y-100270900D01*
X129683894Y-100270900D01*
X129394198Y-100309038D01*
X129111946Y-100384667D01*
X129111942Y-100384669D01*
X128842465Y-100496290D01*
X128841977Y-100496492D01*
X128841966Y-100496497D01*
X128588924Y-100642591D01*
X128588917Y-100642596D01*
X128357107Y-100820470D01*
X128357086Y-100820489D01*
X128150489Y-101027086D01*
X128150470Y-101027107D01*
X127972596Y-101258917D01*
X127972591Y-101258924D01*
X127826497Y-101511966D01*
X127826492Y-101511977D01*
X127826491Y-101511979D01*
X127748595Y-101700038D01*
X127714669Y-101781942D01*
X127714667Y-101781946D01*
X127639038Y-102064198D01*
X127600900Y-102353894D01*
X125819410Y-102353894D01*
X125802529Y-102247310D01*
X125750041Y-102085769D01*
X125672929Y-101934428D01*
X125653143Y-101907194D01*
X125573091Y-101797011D01*
X125452988Y-101676908D01*
X125315574Y-101577072D01*
X125274341Y-101556063D01*
X125164231Y-101499959D01*
X125002690Y-101447471D01*
X124834927Y-101420900D01*
X124665073Y-101420900D01*
X124497310Y-101447471D01*
X124497307Y-101447471D01*
X124497306Y-101447472D01*
X124335769Y-101499959D01*
X124335767Y-101499960D01*
X124184425Y-101577072D01*
X124047011Y-101676908D01*
X123926908Y-101797011D01*
X123827072Y-101934425D01*
X123749960Y-102085767D01*
X123749959Y-102085769D01*
X123718178Y-102183582D01*
X123697471Y-102247310D01*
X123670900Y-102415073D01*
X116489100Y-102415073D01*
X116462529Y-102247310D01*
X116410041Y-102085769D01*
X116332929Y-101934428D01*
X116313143Y-101907194D01*
X116233091Y-101797011D01*
X116112988Y-101676908D01*
X115975574Y-101577072D01*
X115934341Y-101556063D01*
X115824231Y-101499959D01*
X115662690Y-101447471D01*
X115494927Y-101420900D01*
X115325073Y-101420900D01*
X115157310Y-101447471D01*
X115157307Y-101447471D01*
X115157306Y-101447472D01*
X114995769Y-101499959D01*
X114995767Y-101499960D01*
X114844425Y-101577072D01*
X114707011Y-101676908D01*
X114586908Y-101797011D01*
X114487072Y-101934425D01*
X114409960Y-102085767D01*
X114409959Y-102085769D01*
X114378178Y-102183582D01*
X114357471Y-102247310D01*
X114330900Y-102415073D01*
X112559100Y-102415073D01*
X112559100Y-102353897D01*
X112523801Y-102085769D01*
X112520961Y-102064198D01*
X112520960Y-102064197D01*
X112520960Y-102064191D01*
X112445331Y-101781942D01*
X112333509Y-101511979D01*
X112333503Y-101511970D01*
X112333502Y-101511966D01*
X112187408Y-101258924D01*
X112187403Y-101258917D01*
X112009529Y-101027107D01*
X112009510Y-101027086D01*
X111802913Y-100820489D01*
X111802892Y-100820470D01*
X111571082Y-100642596D01*
X111571075Y-100642591D01*
X111318033Y-100496497D01*
X111318025Y-100496493D01*
X111318021Y-100496491D01*
X111048058Y-100384669D01*
X111048055Y-100384668D01*
X111048053Y-100384667D01*
X110795225Y-100316922D01*
X110765809Y-100309040D01*
X110765807Y-100309039D01*
X110765801Y-100309038D01*
X110476105Y-100270900D01*
X110476103Y-100270900D01*
X110183897Y-100270900D01*
X110183894Y-100270900D01*
X109894198Y-100309038D01*
X109611946Y-100384667D01*
X109611942Y-100384669D01*
X109342465Y-100496290D01*
X109341977Y-100496492D01*
X109341966Y-100496497D01*
X109088924Y-100642591D01*
X109088917Y-100642596D01*
X108857107Y-100820470D01*
X108857086Y-100820489D01*
X108650489Y-101027086D01*
X108650470Y-101027107D01*
X108472596Y-101258917D01*
X108472591Y-101258924D01*
X108326497Y-101511966D01*
X108326492Y-101511977D01*
X108326491Y-101511979D01*
X108248595Y-101700038D01*
X108214669Y-101781942D01*
X108214667Y-101781946D01*
X108139038Y-102064198D01*
X108100900Y-102353894D01*
X106319410Y-102353894D01*
X106302529Y-102247310D01*
X106250041Y-102085769D01*
X106172929Y-101934428D01*
X106153143Y-101907194D01*
X106073091Y-101797011D01*
X105952988Y-101676908D01*
X105815574Y-101577072D01*
X105774341Y-101556063D01*
X105664231Y-101499959D01*
X105502690Y-101447471D01*
X105334927Y-101420900D01*
X105165073Y-101420900D01*
X104997310Y-101447471D01*
X104997307Y-101447471D01*
X104997306Y-101447472D01*
X104835769Y-101499959D01*
X104835767Y-101499960D01*
X104684425Y-101577072D01*
X104547011Y-101676908D01*
X104426908Y-101797011D01*
X104327072Y-101934425D01*
X104249960Y-102085767D01*
X104249959Y-102085769D01*
X104218178Y-102183582D01*
X104197471Y-102247310D01*
X104170900Y-102415073D01*
X100652900Y-102415073D01*
X100652900Y-99853399D01*
X105165500Y-99853399D01*
X105165500Y-100066601D01*
X105198853Y-100277179D01*
X105198854Y-100277183D01*
X105261542Y-100470119D01*
X105264736Y-100479947D01*
X105361528Y-100669913D01*
X105361530Y-100669916D01*
X105486847Y-100842399D01*
X105637600Y-100993152D01*
X105637603Y-100993154D01*
X105810087Y-101118472D01*
X106000053Y-101215264D01*
X106202821Y-101281147D01*
X106413399Y-101314500D01*
X106413402Y-101314500D01*
X106626598Y-101314500D01*
X106626601Y-101314500D01*
X106837179Y-101281147D01*
X107039947Y-101215264D01*
X107229913Y-101118472D01*
X107402397Y-100993154D01*
X107553154Y-100842397D01*
X107678472Y-100669913D01*
X107775264Y-100479947D01*
X107841147Y-100277179D01*
X107874500Y-100066601D01*
X107874500Y-99853399D01*
X107841147Y-99642821D01*
X107816322Y-99566417D01*
X121245499Y-99566417D01*
X121279881Y-99694730D01*
X121346297Y-99809766D01*
X121346305Y-99809776D01*
X121440223Y-99903694D01*
X121440228Y-99903698D01*
X121440230Y-99903700D01*
X121555270Y-99970119D01*
X121683581Y-100004500D01*
X121683583Y-100004500D01*
X121816417Y-100004500D01*
X121816419Y-100004500D01*
X121944730Y-99970119D01*
X122059770Y-99903700D01*
X122110071Y-99853399D01*
X124665500Y-99853399D01*
X124665500Y-100066601D01*
X124698853Y-100277179D01*
X124698854Y-100277183D01*
X124761542Y-100470119D01*
X124764736Y-100479947D01*
X124861528Y-100669913D01*
X124861530Y-100669916D01*
X124986847Y-100842399D01*
X125137600Y-100993152D01*
X125137603Y-100993154D01*
X125310087Y-101118472D01*
X125500053Y-101215264D01*
X125702821Y-101281147D01*
X125913399Y-101314500D01*
X125913402Y-101314500D01*
X126126598Y-101314500D01*
X126126601Y-101314500D01*
X126337179Y-101281147D01*
X126539947Y-101215264D01*
X126729913Y-101118472D01*
X126902397Y-100993154D01*
X127053154Y-100842397D01*
X127178472Y-100669913D01*
X127275264Y-100479947D01*
X127341147Y-100277179D01*
X127374500Y-100066601D01*
X127374500Y-99853399D01*
X144165500Y-99853399D01*
X144165500Y-100066601D01*
X144198853Y-100277179D01*
X144198854Y-100277183D01*
X144261542Y-100470119D01*
X144264736Y-100479947D01*
X144361528Y-100669913D01*
X144361530Y-100669916D01*
X144486847Y-100842399D01*
X144637600Y-100993152D01*
X144637603Y-100993154D01*
X144810087Y-101118472D01*
X145000053Y-101215264D01*
X145202821Y-101281147D01*
X145413399Y-101314500D01*
X145413402Y-101314500D01*
X145626598Y-101314500D01*
X145626601Y-101314500D01*
X145837179Y-101281147D01*
X146039947Y-101215264D01*
X146229913Y-101118472D01*
X146402397Y-100993154D01*
X146553154Y-100842397D01*
X146678472Y-100669913D01*
X146775264Y-100479947D01*
X146841147Y-100277179D01*
X146874500Y-100066601D01*
X146874500Y-99853399D01*
X163665500Y-99853399D01*
X163665500Y-100066601D01*
X163698853Y-100277179D01*
X163698854Y-100277183D01*
X163761542Y-100470119D01*
X163764736Y-100479947D01*
X163861528Y-100669913D01*
X163861530Y-100669916D01*
X163986847Y-100842399D01*
X164137600Y-100993152D01*
X164137603Y-100993154D01*
X164310087Y-101118472D01*
X164500053Y-101215264D01*
X164702821Y-101281147D01*
X164913399Y-101314500D01*
X164913402Y-101314500D01*
X165126598Y-101314500D01*
X165126601Y-101314500D01*
X165337179Y-101281147D01*
X165349052Y-101277288D01*
X165420019Y-101275258D01*
X165480818Y-101311917D01*
X165512147Y-101375628D01*
X165504057Y-101446162D01*
X165493533Y-101465949D01*
X165486365Y-101476939D01*
X165446324Y-101516981D01*
X165396362Y-101603518D01*
X165396362Y-101603519D01*
X165391164Y-101622916D01*
X165391164Y-101622917D01*
X165370499Y-101700036D01*
X165370499Y-101810112D01*
X165370500Y-101810125D01*
X165370500Y-101865920D01*
X165350498Y-101934041D01*
X165347003Y-101939011D01*
X165279881Y-102055269D01*
X165245500Y-102183582D01*
X165245500Y-102316417D01*
X165245499Y-102316417D01*
X165279881Y-102444730D01*
X165346297Y-102559766D01*
X165346305Y-102559776D01*
X165440223Y-102653694D01*
X165440228Y-102653698D01*
X165440230Y-102653700D01*
X165555270Y-102720119D01*
X165683581Y-102754500D01*
X165683583Y-102754500D01*
X165816417Y-102754500D01*
X165816419Y-102754500D01*
X165944730Y-102720119D01*
X166059770Y-102653700D01*
X166153700Y-102559770D01*
X166220119Y-102444730D01*
X166254500Y-102316419D01*
X166254500Y-102183581D01*
X166220119Y-102055270D01*
X166181090Y-101987670D01*
X166164353Y-101918678D01*
X166187573Y-101851586D01*
X166201109Y-101835584D01*
X166591968Y-101444725D01*
X166654279Y-101410700D01*
X166725094Y-101415765D01*
X166781930Y-101458312D01*
X166806741Y-101524832D01*
X166797471Y-101582039D01*
X166714669Y-101781942D01*
X166714667Y-101781946D01*
X166639038Y-102064198D01*
X166600900Y-102353894D01*
X166600900Y-102646105D01*
X166639038Y-102935801D01*
X166714667Y-103218053D01*
X166714668Y-103218055D01*
X166714669Y-103218058D01*
X166826491Y-103488021D01*
X166826492Y-103488022D01*
X166826497Y-103488033D01*
X166972591Y-103741075D01*
X166972596Y-103741082D01*
X167150470Y-103972892D01*
X167150489Y-103972913D01*
X167357086Y-104179510D01*
X167357107Y-104179529D01*
X167588917Y-104357403D01*
X167588924Y-104357408D01*
X167841966Y-104503502D01*
X167841970Y-104503503D01*
X167841979Y-104503509D01*
X168111942Y-104615331D01*
X168394191Y-104690960D01*
X168394197Y-104690960D01*
X168394198Y-104690961D01*
X168427446Y-104695338D01*
X168683897Y-104729100D01*
X168683904Y-104729100D01*
X168976096Y-104729100D01*
X168976103Y-104729100D01*
X169265809Y-104690960D01*
X169548058Y-104615331D01*
X169818021Y-104503509D01*
X170071079Y-104357406D01*
X170302901Y-104179522D01*
X170509522Y-103972901D01*
X170687406Y-103741079D01*
X170833509Y-103488021D01*
X170945331Y-103218058D01*
X171020960Y-102935809D01*
X171059100Y-102646103D01*
X171059100Y-102415073D01*
X172830900Y-102415073D01*
X172830900Y-102584927D01*
X172857471Y-102752690D01*
X172909959Y-102914231D01*
X172920954Y-102935809D01*
X172987072Y-103065574D01*
X173086908Y-103202988D01*
X173207011Y-103323091D01*
X173344425Y-103422927D01*
X173344428Y-103422929D01*
X173495769Y-103500041D01*
X173657310Y-103552529D01*
X173825073Y-103579100D01*
X173825076Y-103579100D01*
X173994924Y-103579100D01*
X173994927Y-103579100D01*
X174162690Y-103552529D01*
X174324231Y-103500041D01*
X174475572Y-103422929D01*
X174612987Y-103323092D01*
X174733092Y-103202987D01*
X174832929Y-103065572D01*
X174910041Y-102914231D01*
X174962529Y-102752690D01*
X174989100Y-102584927D01*
X174989100Y-102415073D01*
X174962529Y-102247310D01*
X174910041Y-102085769D01*
X174832929Y-101934428D01*
X174813143Y-101907194D01*
X174733091Y-101797011D01*
X174612988Y-101676908D01*
X174475574Y-101577072D01*
X174434341Y-101556063D01*
X174324231Y-101499959D01*
X174162690Y-101447471D01*
X173994927Y-101420900D01*
X173825073Y-101420900D01*
X173657310Y-101447471D01*
X173657307Y-101447471D01*
X173657306Y-101447472D01*
X173495769Y-101499959D01*
X173495767Y-101499960D01*
X173344425Y-101577072D01*
X173207011Y-101676908D01*
X173086908Y-101797011D01*
X172987072Y-101934425D01*
X172909960Y-102085767D01*
X172909959Y-102085769D01*
X172878178Y-102183582D01*
X172857471Y-102247310D01*
X172830900Y-102415073D01*
X171059100Y-102415073D01*
X171059100Y-102353897D01*
X171023801Y-102085769D01*
X171020961Y-102064198D01*
X171020960Y-102064197D01*
X171020960Y-102064191D01*
X170945331Y-101781942D01*
X170833509Y-101511979D01*
X170833503Y-101511970D01*
X170833502Y-101511966D01*
X170687408Y-101258924D01*
X170687403Y-101258917D01*
X170509529Y-101027107D01*
X170509510Y-101027086D01*
X170302913Y-100820489D01*
X170302892Y-100820470D01*
X170071082Y-100642596D01*
X170071075Y-100642591D01*
X169818033Y-100496497D01*
X169818025Y-100496493D01*
X169818021Y-100496491D01*
X169548058Y-100384669D01*
X169548055Y-100384668D01*
X169548053Y-100384667D01*
X169295225Y-100316922D01*
X169265809Y-100309040D01*
X169265807Y-100309039D01*
X169265801Y-100309038D01*
X168976105Y-100270900D01*
X168976103Y-100270900D01*
X168683897Y-100270900D01*
X168683894Y-100270900D01*
X168394198Y-100309038D01*
X168111946Y-100384667D01*
X168111942Y-100384669D01*
X167912037Y-100467472D01*
X167841448Y-100475061D01*
X167777961Y-100443282D01*
X167741734Y-100382223D01*
X167744268Y-100311272D01*
X167774721Y-100261971D01*
X168533016Y-99503677D01*
X168533019Y-99503676D01*
X168603676Y-99433019D01*
X168653638Y-99346482D01*
X168653639Y-99346481D01*
X168679501Y-99249962D01*
X168679501Y-99150038D01*
X168679501Y-99142321D01*
X168679500Y-99142303D01*
X168679500Y-94022409D01*
X168699502Y-93954288D01*
X168753158Y-93907795D01*
X168823432Y-93897691D01*
X168849531Y-93904353D01*
X168966658Y-93948040D01*
X169026745Y-93954500D01*
X169648254Y-93954499D01*
X169708342Y-93948040D01*
X169770468Y-93924867D01*
X169841282Y-93919802D01*
X169903595Y-93953827D01*
X169937620Y-94016139D01*
X169940500Y-94042923D01*
X169940500Y-94402726D01*
X169940499Y-94402726D01*
X169940500Y-94402728D01*
X169966499Y-94499757D01*
X170001429Y-94560258D01*
X170016724Y-94586750D01*
X171288885Y-95858910D01*
X171322909Y-95921221D01*
X171317845Y-95992036D01*
X171275298Y-96048872D01*
X171219501Y-96072452D01*
X171052821Y-96098853D01*
X171052815Y-96098854D01*
X170850057Y-96164734D01*
X170850051Y-96164737D01*
X170660083Y-96261530D01*
X170487600Y-96386847D01*
X170336847Y-96537600D01*
X170211530Y-96710083D01*
X170114737Y-96900051D01*
X170114734Y-96900057D01*
X170048854Y-97102816D01*
X170048853Y-97102819D01*
X170048853Y-97102821D01*
X170015500Y-97313399D01*
X170015500Y-97526601D01*
X170046642Y-97723218D01*
X170048854Y-97737183D01*
X170114621Y-97939595D01*
X170114736Y-97939947D01*
X170205464Y-98118011D01*
X170211530Y-98129916D01*
X170336847Y-98302399D01*
X170487600Y-98453152D01*
X170487603Y-98453154D01*
X170660087Y-98578472D01*
X170850053Y-98675264D01*
X171052821Y-98741147D01*
X171263399Y-98774500D01*
X171263402Y-98774500D01*
X171476598Y-98774500D01*
X171476601Y-98774500D01*
X171687179Y-98741147D01*
X171889947Y-98675264D01*
X172079913Y-98578472D01*
X172252397Y-98453154D01*
X172403154Y-98302397D01*
X172528472Y-98129913D01*
X172625264Y-97939947D01*
X172691147Y-97737179D01*
X172717547Y-97570495D01*
X172747958Y-97506346D01*
X172808227Y-97468819D01*
X172879216Y-97469833D01*
X172931090Y-97501115D01*
X174371195Y-98941220D01*
X174405221Y-99003532D01*
X174408100Y-99030315D01*
X174408100Y-99339823D01*
X174408099Y-99339823D01*
X174434100Y-99436858D01*
X174484321Y-99523843D01*
X174484329Y-99523853D01*
X176265746Y-101305270D01*
X176265751Y-101305274D01*
X176265753Y-101305276D01*
X176265754Y-101305277D01*
X176265756Y-101305278D01*
X176352742Y-101355500D01*
X176352744Y-101355500D01*
X176352747Y-101355502D01*
X176449775Y-101381500D01*
X176550225Y-101381500D01*
X179162578Y-101381500D01*
X179226693Y-101400325D01*
X179227129Y-101399571D01*
X179230240Y-101401367D01*
X179230699Y-101401502D01*
X179231733Y-101402229D01*
X179234281Y-101403700D01*
X179349321Y-101470119D01*
X179477632Y-101504500D01*
X179477634Y-101504500D01*
X179521533Y-101504500D01*
X179589654Y-101524502D01*
X179636147Y-101578158D01*
X179646251Y-101648432D01*
X179637942Y-101678718D01*
X179593228Y-101786666D01*
X179593226Y-101786670D01*
X179528627Y-102027758D01*
X179496051Y-102275202D01*
X179496051Y-102373000D01*
X180250038Y-102373000D01*
X180250038Y-102627000D01*
X179496051Y-102627000D01*
X179496051Y-102724797D01*
X179528627Y-102972241D01*
X179593226Y-103213329D01*
X179593228Y-103213333D01*
X179688743Y-103443925D01*
X179688748Y-103443936D01*
X179813536Y-103660076D01*
X179965478Y-103858089D01*
X179965491Y-103858103D01*
X180141947Y-104034559D01*
X180141961Y-104034572D01*
X180339974Y-104186514D01*
X180556114Y-104311302D01*
X180556125Y-104311307D01*
X180786717Y-104406822D01*
X180786721Y-104406824D01*
X181027809Y-104471423D01*
X181273050Y-104503709D01*
X181273051Y-104503708D01*
X181273051Y-103743293D01*
X181309543Y-103749073D01*
X181490559Y-103749073D01*
X181527051Y-103743293D01*
X181527051Y-104503709D01*
X181772292Y-104471423D01*
X182013380Y-104406824D01*
X182013384Y-104406822D01*
X182243976Y-104311307D01*
X182243987Y-104311302D01*
X182460127Y-104186514D01*
X182658140Y-104034572D01*
X182658154Y-104034559D01*
X182834610Y-103858103D01*
X182834623Y-103858089D01*
X182986565Y-103660076D01*
X183111353Y-103443936D01*
X183111358Y-103443925D01*
X183206873Y-103213333D01*
X183206875Y-103213329D01*
X183271474Y-102972241D01*
X183304050Y-102724797D01*
X183304051Y-102724788D01*
X183304051Y-102627000D01*
X182550064Y-102627000D01*
X182550064Y-102373000D01*
X183304051Y-102373000D01*
X183304051Y-102275212D01*
X183304050Y-102275202D01*
X190695949Y-102275202D01*
X190695949Y-102373000D01*
X191449936Y-102373000D01*
X191449936Y-102627000D01*
X190695949Y-102627000D01*
X190695949Y-102724797D01*
X190728525Y-102972241D01*
X190793124Y-103213329D01*
X190793126Y-103213333D01*
X190888641Y-103443925D01*
X190888646Y-103443936D01*
X191013434Y-103660076D01*
X191165376Y-103858089D01*
X191165389Y-103858103D01*
X191341845Y-104034559D01*
X191341859Y-104034572D01*
X191539872Y-104186514D01*
X191756012Y-104311302D01*
X191756023Y-104311307D01*
X191986615Y-104406822D01*
X191986619Y-104406824D01*
X192227707Y-104471423D01*
X192472948Y-104503709D01*
X192472949Y-104503708D01*
X192472949Y-103743293D01*
X192509441Y-103749073D01*
X192690457Y-103749073D01*
X192726949Y-103743293D01*
X192726949Y-104503709D01*
X192972190Y-104471423D01*
X193213278Y-104406824D01*
X193213282Y-104406822D01*
X193443874Y-104311307D01*
X193443885Y-104311302D01*
X193660025Y-104186514D01*
X193858038Y-104034572D01*
X193858052Y-104034559D01*
X194034508Y-103858103D01*
X194034521Y-103858089D01*
X194186463Y-103660076D01*
X194311251Y-103443936D01*
X194311256Y-103443925D01*
X194406771Y-103213333D01*
X194406773Y-103213329D01*
X194471372Y-102972241D01*
X194503948Y-102724797D01*
X194503949Y-102724788D01*
X194503949Y-102627000D01*
X193749962Y-102627000D01*
X193749962Y-102373000D01*
X194503949Y-102373000D01*
X194503949Y-102275212D01*
X194503948Y-102275202D01*
X194471372Y-102027758D01*
X194406773Y-101786670D01*
X194406771Y-101786666D01*
X194311256Y-101556074D01*
X194311251Y-101556063D01*
X194186463Y-101339923D01*
X194034521Y-101141910D01*
X194034508Y-101141896D01*
X193858052Y-100965440D01*
X193858038Y-100965427D01*
X193660025Y-100813485D01*
X193443885Y-100688697D01*
X193443874Y-100688692D01*
X193213282Y-100593177D01*
X193213278Y-100593175D01*
X192972190Y-100528576D01*
X192726949Y-100496289D01*
X192726949Y-101256706D01*
X192690457Y-101250927D01*
X192509441Y-101250927D01*
X192472949Y-101256706D01*
X192472949Y-100496290D01*
X192472948Y-100496289D01*
X192227707Y-100528576D01*
X191986619Y-100593175D01*
X191986615Y-100593177D01*
X191756023Y-100688692D01*
X191756012Y-100688697D01*
X191539872Y-100813485D01*
X191341859Y-100965427D01*
X191341845Y-100965440D01*
X191165389Y-101141896D01*
X191165376Y-101141910D01*
X191013434Y-101339923D01*
X190888646Y-101556063D01*
X190888641Y-101556074D01*
X190793126Y-101786666D01*
X190793124Y-101786670D01*
X190728525Y-102027758D01*
X190695949Y-102275202D01*
X183304050Y-102275202D01*
X183271474Y-102027758D01*
X183206875Y-101786670D01*
X183206873Y-101786666D01*
X183111358Y-101556074D01*
X183111353Y-101556063D01*
X182986565Y-101339923D01*
X182834623Y-101141910D01*
X182834610Y-101141896D01*
X182658154Y-100965440D01*
X182658140Y-100965427D01*
X182460127Y-100813485D01*
X182243987Y-100688697D01*
X182243976Y-100688692D01*
X182013384Y-100593177D01*
X182013380Y-100593175D01*
X181772292Y-100528576D01*
X181527051Y-100496289D01*
X181527051Y-101256706D01*
X181490559Y-101250927D01*
X181309543Y-101250927D01*
X181273051Y-101256706D01*
X181273051Y-100496290D01*
X181273050Y-100496289D01*
X181027809Y-100528576D01*
X180786721Y-100593175D01*
X180786717Y-100593177D01*
X180556125Y-100688692D01*
X180556114Y-100688697D01*
X180339975Y-100813484D01*
X180221163Y-100904653D01*
X180154943Y-100930253D01*
X180085394Y-100915988D01*
X180034598Y-100866387D01*
X180022752Y-100837300D01*
X180014170Y-100805270D01*
X179947751Y-100690230D01*
X179947749Y-100690228D01*
X179947745Y-100690223D01*
X179853827Y-100596305D01*
X179853817Y-100596297D01*
X179738781Y-100529881D01*
X179733911Y-100528576D01*
X179610470Y-100495500D01*
X179477632Y-100495500D01*
X179477626Y-100495500D01*
X179442284Y-100504970D01*
X179371308Y-100503279D01*
X179312513Y-100463484D01*
X179284567Y-100398219D01*
X179296342Y-100328205D01*
X179303263Y-100317003D01*
X179303122Y-100316922D01*
X179326065Y-100277183D01*
X179373670Y-100194730D01*
X179408051Y-100066419D01*
X179408051Y-99933581D01*
X179373670Y-99805270D01*
X179307251Y-99690230D01*
X179307249Y-99690228D01*
X179307245Y-99690223D01*
X179223446Y-99606424D01*
X179189420Y-99544112D01*
X179194485Y-99473297D01*
X179205903Y-99452390D01*
X179205521Y-99452181D01*
X179209837Y-99444272D01*
X179209842Y-99444267D01*
X179260540Y-99308342D01*
X179266803Y-99250087D01*
X179267361Y-99244899D01*
X179268860Y-99245060D01*
X179290522Y-99183754D01*
X179346610Y-99140227D01*
X179392686Y-99131500D01*
X185300223Y-99131500D01*
X185300225Y-99131500D01*
X185397254Y-99105501D01*
X185397257Y-99105499D01*
X185397258Y-99105499D01*
X185478254Y-99058736D01*
X185484247Y-99055276D01*
X185555276Y-98984247D01*
X186305276Y-98234247D01*
X186324906Y-98200246D01*
X186355501Y-98147254D01*
X186381500Y-98050225D01*
X186381500Y-95050499D01*
X186401502Y-94982378D01*
X186455158Y-94935885D01*
X186507500Y-94924499D01*
X186675064Y-94924499D01*
X186675066Y-94924499D01*
X186749301Y-94909734D01*
X186749302Y-94909732D01*
X186750418Y-94909511D01*
X186799581Y-94909511D01*
X186800697Y-94909733D01*
X186800699Y-94909734D01*
X186874933Y-94924500D01*
X187525066Y-94924499D01*
X187525069Y-94924498D01*
X187525073Y-94924498D01*
X187574326Y-94914701D01*
X187599301Y-94909734D01*
X187683484Y-94853484D01*
X187739734Y-94769301D01*
X187754500Y-94695067D01*
X187754499Y-93194934D01*
X187748823Y-93166397D01*
X187755151Y-93095686D01*
X187798705Y-93039619D01*
X187819628Y-93027402D01*
X187829388Y-93022899D01*
X187853874Y-93016339D01*
X187980225Y-92943390D01*
X188083390Y-92840225D01*
X188083394Y-92840217D01*
X188088417Y-92833673D01*
X188089611Y-92834589D01*
X188108651Y-92818090D01*
X188132262Y-92795578D01*
X188135311Y-92794990D01*
X188137658Y-92792957D01*
X188169945Y-92788314D01*
X188201976Y-92782141D01*
X188204858Y-92783294D01*
X188207932Y-92782853D01*
X188237595Y-92796400D01*
X188267887Y-92808527D01*
X188269689Y-92811057D01*
X188272512Y-92812347D01*
X188290138Y-92839774D01*
X188309070Y-92866359D01*
X188309724Y-92870249D01*
X188310896Y-92872073D01*
X188315232Y-92902233D01*
X188315999Y-92903000D01*
X188770000Y-92903000D01*
X188770000Y-93157000D01*
X188316000Y-93157000D01*
X188316000Y-93654264D01*
X188344976Y-93799934D01*
X188344978Y-93799939D01*
X188401814Y-93937152D01*
X188484327Y-94060642D01*
X188484332Y-94060649D01*
X188589350Y-94165667D01*
X188589357Y-94165672D01*
X188712847Y-94248185D01*
X188850067Y-94305024D01*
X188850070Y-94305025D01*
X188942999Y-94323509D01*
X188943000Y-94323509D01*
X188943000Y-93853087D01*
X188954204Y-93859556D01*
X189030504Y-93880000D01*
X189109496Y-93880000D01*
X189185796Y-93859556D01*
X189197000Y-93853087D01*
X189197000Y-94323509D01*
X189289929Y-94305025D01*
X189289932Y-94305024D01*
X189427152Y-94248185D01*
X189550642Y-94165672D01*
X189550649Y-94165667D01*
X189655667Y-94060649D01*
X189655672Y-94060642D01*
X189738185Y-93937152D01*
X189795021Y-93799939D01*
X189795023Y-93799934D01*
X189823999Y-93654264D01*
X189824000Y-93654260D01*
X189824000Y-93157000D01*
X189370000Y-93157000D01*
X189370000Y-92903000D01*
X189824000Y-92903000D01*
X189824000Y-92405739D01*
X189823999Y-92405735D01*
X189795023Y-92260065D01*
X189795021Y-92260060D01*
X189773341Y-92207718D01*
X189769778Y-92174578D01*
X189765032Y-92141568D01*
X189766001Y-92139445D01*
X189765752Y-92137128D01*
X189780679Y-92107307D01*
X189794526Y-92076988D01*
X189796486Y-92075728D01*
X189797531Y-92073641D01*
X189826215Y-92056622D01*
X189854252Y-92038604D01*
X189857330Y-92038161D01*
X189858590Y-92037414D01*
X189889750Y-92033500D01*
X189941786Y-92033500D01*
X190009907Y-92053502D01*
X190030881Y-92070404D01*
X190289094Y-92328617D01*
X190467927Y-92507449D01*
X190501952Y-92569762D01*
X190496888Y-92640577D01*
X190454341Y-92697413D01*
X190364596Y-92764595D01*
X190277657Y-92880734D01*
X190226962Y-93016650D01*
X190226960Y-93016658D01*
X190220500Y-93076737D01*
X190220500Y-94423246D01*
X190220502Y-94423270D01*
X190226959Y-94483339D01*
X190226959Y-94483341D01*
X190277657Y-94619266D01*
X190277658Y-94619267D01*
X190364596Y-94735404D01*
X190480733Y-94822342D01*
X190616658Y-94873040D01*
X190676745Y-94879500D01*
X191523254Y-94879499D01*
X191583342Y-94873040D01*
X191719267Y-94822342D01*
X191835404Y-94735404D01*
X191922342Y-94619267D01*
X191973040Y-94483342D01*
X191979500Y-94423255D01*
X191979499Y-93076746D01*
X191973040Y-93016658D01*
X191922342Y-92880733D01*
X191835404Y-92764596D01*
X191719267Y-92677658D01*
X191719265Y-92677657D01*
X191719266Y-92677657D01*
X191583349Y-92626962D01*
X191583344Y-92626960D01*
X191583342Y-92626960D01*
X191583339Y-92626959D01*
X191575675Y-92625149D01*
X191576121Y-92623260D01*
X191520061Y-92600038D01*
X191479571Y-92541719D01*
X191477426Y-92534573D01*
X191455501Y-92452746D01*
X191449099Y-92441658D01*
X191405278Y-92365756D01*
X191405270Y-92365746D01*
X191329863Y-92290339D01*
X191329840Y-92290318D01*
X190386249Y-91346726D01*
X190386243Y-91346721D01*
X190355721Y-91329099D01*
X190355719Y-91329099D01*
X190299254Y-91296499D01*
X190202225Y-91270500D01*
X179648225Y-91270500D01*
X179547775Y-91270500D01*
X179504989Y-91281964D01*
X179450742Y-91296499D01*
X179363756Y-91346721D01*
X179363750Y-91346726D01*
X178697485Y-92012990D01*
X178635173Y-92047015D01*
X178594924Y-92049172D01*
X178560772Y-92045501D01*
X178560758Y-92045500D01*
X178560755Y-92045500D01*
X178560750Y-92045500D01*
X177939253Y-92045500D01*
X177939229Y-92045502D01*
X177879160Y-92051959D01*
X177879158Y-92051959D01*
X177743233Y-92102657D01*
X177627096Y-92189596D01*
X177540157Y-92305734D01*
X177489462Y-92441650D01*
X177489460Y-92441658D01*
X177483000Y-92501737D01*
X177483000Y-93106523D01*
X177476661Y-93128110D01*
X177475056Y-93150555D01*
X177466854Y-93161511D01*
X177462998Y-93174644D01*
X177445992Y-93189379D01*
X177432509Y-93207391D01*
X177419686Y-93212173D01*
X177409342Y-93221137D01*
X177387069Y-93224339D01*
X177365989Y-93232202D01*
X177352616Y-93229293D01*
X177339068Y-93231241D01*
X177318601Y-93221893D01*
X177296615Y-93217111D01*
X177278601Y-93203625D01*
X177274488Y-93201747D01*
X177267905Y-93195618D01*
X177228904Y-93156617D01*
X177194878Y-93094305D01*
X177191999Y-93067522D01*
X177191999Y-92501753D01*
X177191999Y-92501746D01*
X177185540Y-92441658D01*
X177134842Y-92305733D01*
X177047904Y-92189596D01*
X176931767Y-92102658D01*
X176931765Y-92102657D01*
X176931766Y-92102657D01*
X176795849Y-92051962D01*
X176795844Y-92051960D01*
X176795842Y-92051960D01*
X176788331Y-92051152D01*
X176735762Y-92045500D01*
X176735755Y-92045500D01*
X176548211Y-92045500D01*
X176480090Y-92025498D01*
X176433597Y-91971842D01*
X176423493Y-91901568D01*
X176452987Y-91836988D01*
X176459101Y-91830419D01*
X176923873Y-91365647D01*
X176923882Y-91365641D01*
X177005270Y-91284253D01*
X177005276Y-91284247D01*
X177055501Y-91197254D01*
X177055502Y-91197249D01*
X177058660Y-91189627D01*
X177060021Y-91190190D01*
X177092288Y-91137260D01*
X177156151Y-91106242D01*
X177168916Y-91105176D01*
X177168909Y-91105105D01*
X177175062Y-91104499D01*
X177175066Y-91104499D01*
X177175070Y-91104498D01*
X177175072Y-91104498D01*
X177211663Y-91097219D01*
X177249301Y-91089734D01*
X177333484Y-91033484D01*
X177389734Y-90949301D01*
X177404500Y-90875067D01*
X177404499Y-89895398D01*
X191670900Y-89895398D01*
X191670900Y-90104602D01*
X191703627Y-90311232D01*
X191703628Y-90311237D01*
X191768273Y-90510193D01*
X191768274Y-90510194D01*
X191768275Y-90510197D01*
X191796922Y-90566419D01*
X191863253Y-90696602D01*
X191986219Y-90865852D01*
X192134147Y-91013780D01*
X192302705Y-91136243D01*
X192303400Y-91136748D01*
X192489803Y-91231725D01*
X192688768Y-91296373D01*
X192895398Y-91329100D01*
X192895401Y-91329100D01*
X193104599Y-91329100D01*
X193104602Y-91329100D01*
X193311232Y-91296373D01*
X193510197Y-91231725D01*
X193696600Y-91136748D01*
X193865851Y-91013781D01*
X194013781Y-90865851D01*
X194136748Y-90696600D01*
X194231725Y-90510197D01*
X194296373Y-90311232D01*
X194329100Y-90104602D01*
X194329100Y-89895398D01*
X194296373Y-89688768D01*
X194231725Y-89489803D01*
X194136748Y-89303400D01*
X194136746Y-89303397D01*
X194013780Y-89134147D01*
X193865852Y-88986219D01*
X193696602Y-88863253D01*
X193510193Y-88768273D01*
X193311237Y-88703628D01*
X193311233Y-88703627D01*
X193311232Y-88703627D01*
X193104602Y-88670900D01*
X192895398Y-88670900D01*
X192688768Y-88703627D01*
X192688762Y-88703628D01*
X192489806Y-88768273D01*
X192303397Y-88863253D01*
X192134147Y-88986219D01*
X191986219Y-89134147D01*
X191863253Y-89303397D01*
X191768273Y-89489806D01*
X191703628Y-89688762D01*
X191703627Y-89688767D01*
X191703627Y-89688768D01*
X191670900Y-89895398D01*
X177404499Y-89895398D01*
X177404499Y-89124934D01*
X177404498Y-89124930D01*
X177404498Y-89124926D01*
X177389734Y-89050700D01*
X177389734Y-89050699D01*
X177333484Y-88966516D01*
X177333483Y-88966515D01*
X177249302Y-88910266D01*
X177175067Y-88895500D01*
X176224936Y-88895500D01*
X176224926Y-88895501D01*
X176150699Y-88910265D01*
X176066515Y-88966516D01*
X176010266Y-89050697D01*
X175995500Y-89124930D01*
X175995500Y-90875063D01*
X175995501Y-90875073D01*
X176010266Y-90949301D01*
X176053317Y-91013732D01*
X176074532Y-91081485D01*
X176055749Y-91149952D01*
X176037647Y-91172829D01*
X175181770Y-92028706D01*
X175119458Y-92062732D01*
X175048643Y-92057667D01*
X175033345Y-92051961D01*
X175033344Y-92051960D01*
X175033342Y-92051960D01*
X174987347Y-92047015D01*
X174973256Y-92045500D01*
X174351753Y-92045500D01*
X174351743Y-92045501D01*
X174317572Y-92049174D01*
X174247704Y-92036565D01*
X174215015Y-92012992D01*
X173868747Y-91666724D01*
X173868745Y-91666723D01*
X173868743Y-91666721D01*
X173781758Y-91616500D01*
X173772667Y-91614064D01*
X173696402Y-91593628D01*
X173674721Y-91580413D01*
X173651145Y-91570980D01*
X173644928Y-91562253D01*
X173635781Y-91556678D01*
X173624686Y-91533838D01*
X173609953Y-91513156D01*
X173609441Y-91502453D01*
X173604760Y-91492817D01*
X173607774Y-91467605D01*
X173606561Y-91442240D01*
X173612614Y-91427118D01*
X173613188Y-91422323D01*
X173619878Y-91408953D01*
X173621872Y-91405501D01*
X173655501Y-91347254D01*
X173681500Y-91250225D01*
X173681500Y-91226516D01*
X173701502Y-91158395D01*
X173755158Y-91111902D01*
X173782920Y-91102937D01*
X173790267Y-91101475D01*
X173849301Y-91089734D01*
X173933484Y-91033484D01*
X173989734Y-90949301D01*
X174004500Y-90875067D01*
X174004499Y-89124934D01*
X174004498Y-89124930D01*
X174004498Y-89124926D01*
X173989734Y-89050699D01*
X173952391Y-88994812D01*
X173933484Y-88966516D01*
X173933483Y-88966515D01*
X173849302Y-88910266D01*
X173775067Y-88895500D01*
X172824936Y-88895500D01*
X172824926Y-88895501D01*
X172750699Y-88910265D01*
X172666515Y-88966516D01*
X172610266Y-89050697D01*
X172595500Y-89124930D01*
X172595500Y-90875063D01*
X172595501Y-90875073D01*
X172612687Y-90961473D01*
X172610091Y-90961989D01*
X172615775Y-91014879D01*
X172583992Y-91078364D01*
X172522932Y-91114588D01*
X172491778Y-91118500D01*
X169699775Y-91118500D01*
X169658767Y-91129488D01*
X169602747Y-91144498D01*
X169602740Y-91144501D01*
X169585425Y-91154499D01*
X169515756Y-91194721D01*
X169515750Y-91194726D01*
X169381378Y-91329099D01*
X169103253Y-91607224D01*
X169067739Y-91642738D01*
X169032225Y-91678251D01*
X169032221Y-91678256D01*
X168982000Y-91765241D01*
X168956000Y-91862276D01*
X168956000Y-91968452D01*
X168949661Y-91990039D01*
X168948056Y-92012485D01*
X168939853Y-92023441D01*
X168935998Y-92036573D01*
X168918992Y-92051307D01*
X168905509Y-92069320D01*
X168885761Y-92080103D01*
X168882342Y-92083066D01*
X168874032Y-92086508D01*
X168849532Y-92095646D01*
X168778717Y-92100710D01*
X168716404Y-92066685D01*
X168682379Y-92004373D01*
X168679500Y-91977590D01*
X168679500Y-91226914D01*
X168699502Y-91158793D01*
X168753158Y-91112300D01*
X168780920Y-91103335D01*
X168823762Y-91094813D01*
X168849301Y-91089734D01*
X168933484Y-91033484D01*
X168989734Y-90949301D01*
X169004500Y-90875067D01*
X169004499Y-89124934D01*
X169004498Y-89124930D01*
X169004498Y-89124926D01*
X168989734Y-89050699D01*
X168952391Y-88994812D01*
X168933484Y-88966516D01*
X168933483Y-88966515D01*
X168849302Y-88910266D01*
X168775067Y-88895500D01*
X167824936Y-88895500D01*
X167824926Y-88895501D01*
X167750699Y-88910265D01*
X167666515Y-88966516D01*
X167610266Y-89050697D01*
X167595500Y-89124930D01*
X167595500Y-90875063D01*
X167595501Y-90875073D01*
X167610265Y-90949300D01*
X167666516Y-91033484D01*
X167750697Y-91089733D01*
X167750699Y-91089734D01*
X167815795Y-91102682D01*
X167819081Y-91103336D01*
X167881991Y-91136243D01*
X167917123Y-91197938D01*
X167920500Y-91226915D01*
X167920500Y-98990615D01*
X167900498Y-99058736D01*
X167883595Y-99079710D01*
X166546215Y-100417090D01*
X166483903Y-100451116D01*
X166413088Y-100446051D01*
X166356252Y-100403504D01*
X166331441Y-100336984D01*
X166337286Y-100289060D01*
X166341147Y-100277179D01*
X166374500Y-100066601D01*
X166374500Y-99853399D01*
X166341147Y-99642821D01*
X166275264Y-99440053D01*
X166178472Y-99250087D01*
X166053154Y-99077603D01*
X166053152Y-99077600D01*
X165902399Y-98926847D01*
X165729916Y-98801530D01*
X165729915Y-98801529D01*
X165729913Y-98801528D01*
X165539947Y-98704736D01*
X165539944Y-98704735D01*
X165539942Y-98704734D01*
X165337183Y-98638854D01*
X165337181Y-98638853D01*
X165337179Y-98638853D01*
X165126601Y-98605500D01*
X164913399Y-98605500D01*
X164702821Y-98638853D01*
X164702819Y-98638853D01*
X164702816Y-98638854D01*
X164500057Y-98704734D01*
X164500051Y-98704737D01*
X164310083Y-98801530D01*
X164137600Y-98926847D01*
X163986847Y-99077600D01*
X163861530Y-99250083D01*
X163764737Y-99440051D01*
X163764734Y-99440057D01*
X163698854Y-99642816D01*
X163698854Y-99642818D01*
X163698853Y-99642821D01*
X163665500Y-99853399D01*
X146874500Y-99853399D01*
X146841147Y-99642821D01*
X146775264Y-99440053D01*
X146678472Y-99250087D01*
X146553154Y-99077603D01*
X146553152Y-99077600D01*
X146402399Y-98926847D01*
X146229916Y-98801530D01*
X146229915Y-98801529D01*
X146229913Y-98801528D01*
X146039947Y-98704736D01*
X146039944Y-98704735D01*
X146039942Y-98704734D01*
X145837183Y-98638854D01*
X145837181Y-98638853D01*
X145837179Y-98638853D01*
X145626601Y-98605500D01*
X145413399Y-98605500D01*
X145202821Y-98638853D01*
X145202819Y-98638853D01*
X145202816Y-98638854D01*
X145000057Y-98704734D01*
X145000051Y-98704737D01*
X144810083Y-98801530D01*
X144637600Y-98926847D01*
X144486847Y-99077600D01*
X144361530Y-99250083D01*
X144264737Y-99440051D01*
X144264734Y-99440057D01*
X144198854Y-99642816D01*
X144198854Y-99642818D01*
X144198853Y-99642821D01*
X144165500Y-99853399D01*
X127374500Y-99853399D01*
X127341147Y-99642821D01*
X127275264Y-99440053D01*
X127178472Y-99250087D01*
X127053154Y-99077603D01*
X127053152Y-99077600D01*
X126902399Y-98926847D01*
X126729916Y-98801530D01*
X126729915Y-98801529D01*
X126729913Y-98801528D01*
X126539947Y-98704736D01*
X126539944Y-98704735D01*
X126539942Y-98704734D01*
X126337183Y-98638854D01*
X126337181Y-98638853D01*
X126337179Y-98638853D01*
X126126601Y-98605500D01*
X125913399Y-98605500D01*
X125702821Y-98638853D01*
X125702819Y-98638853D01*
X125702816Y-98638854D01*
X125500057Y-98704734D01*
X125500051Y-98704737D01*
X125310083Y-98801530D01*
X125137600Y-98926847D01*
X124986847Y-99077600D01*
X124861530Y-99250083D01*
X124764737Y-99440051D01*
X124764734Y-99440057D01*
X124698854Y-99642816D01*
X124698854Y-99642818D01*
X124698853Y-99642821D01*
X124665500Y-99853399D01*
X122110071Y-99853399D01*
X122153700Y-99809770D01*
X122156299Y-99805269D01*
X122167744Y-99785447D01*
X122193629Y-99740610D01*
X122220119Y-99694730D01*
X122254500Y-99566419D01*
X122254500Y-99433581D01*
X122220119Y-99305270D01*
X122153700Y-99190230D01*
X122153698Y-99190228D01*
X122153694Y-99190223D01*
X122059776Y-99096305D01*
X122059766Y-99096297D01*
X121944730Y-99029881D01*
X121816419Y-98995500D01*
X121683581Y-98995500D01*
X121598040Y-99018420D01*
X121555269Y-99029881D01*
X121440233Y-99096297D01*
X121440223Y-99096305D01*
X121346305Y-99190223D01*
X121346297Y-99190233D01*
X121279881Y-99305269D01*
X121245500Y-99433582D01*
X121245500Y-99566417D01*
X121245499Y-99566417D01*
X107816322Y-99566417D01*
X107775264Y-99440053D01*
X107678472Y-99250087D01*
X107553154Y-99077603D01*
X107553152Y-99077600D01*
X107402399Y-98926847D01*
X107229916Y-98801530D01*
X107229915Y-98801529D01*
X107229913Y-98801528D01*
X107039947Y-98704736D01*
X107039944Y-98704735D01*
X107039942Y-98704734D01*
X106837183Y-98638854D01*
X106837181Y-98638853D01*
X106837179Y-98638853D01*
X106626601Y-98605500D01*
X106413399Y-98605500D01*
X106202821Y-98638853D01*
X106202819Y-98638853D01*
X106202816Y-98638854D01*
X106000057Y-98704734D01*
X106000051Y-98704737D01*
X105810083Y-98801530D01*
X105637600Y-98926847D01*
X105486847Y-99077600D01*
X105361530Y-99250083D01*
X105264737Y-99440051D01*
X105264734Y-99440057D01*
X105198854Y-99642816D01*
X105198854Y-99642818D01*
X105198853Y-99642821D01*
X105165500Y-99853399D01*
X100652900Y-99853399D01*
X100652900Y-97313399D01*
X111515500Y-97313399D01*
X111515500Y-97526601D01*
X111546642Y-97723218D01*
X111548854Y-97737183D01*
X111614621Y-97939595D01*
X111614736Y-97939947D01*
X111705464Y-98118011D01*
X111711530Y-98129916D01*
X111836847Y-98302399D01*
X111987600Y-98453152D01*
X111987603Y-98453154D01*
X112160087Y-98578472D01*
X112350053Y-98675264D01*
X112552821Y-98741147D01*
X112763399Y-98774500D01*
X112763402Y-98774500D01*
X112976598Y-98774500D01*
X112976601Y-98774500D01*
X113187179Y-98741147D01*
X113389947Y-98675264D01*
X113579913Y-98578472D01*
X113752397Y-98453154D01*
X113903154Y-98302397D01*
X114028472Y-98129913D01*
X114125264Y-97939947D01*
X114191147Y-97737179D01*
X114224500Y-97526601D01*
X114224500Y-97313399D01*
X131015500Y-97313399D01*
X131015500Y-97526601D01*
X131046642Y-97723218D01*
X131048854Y-97737183D01*
X131114621Y-97939595D01*
X131114736Y-97939947D01*
X131205464Y-98118011D01*
X131211530Y-98129916D01*
X131336847Y-98302399D01*
X131487600Y-98453152D01*
X131487603Y-98453154D01*
X131660087Y-98578472D01*
X131850053Y-98675264D01*
X132052821Y-98741147D01*
X132263399Y-98774500D01*
X132263402Y-98774500D01*
X132476598Y-98774500D01*
X132476601Y-98774500D01*
X132687179Y-98741147D01*
X132889947Y-98675264D01*
X133079913Y-98578472D01*
X133252397Y-98453154D01*
X133403154Y-98302397D01*
X133528472Y-98129913D01*
X133625264Y-97939947D01*
X133691147Y-97737179D01*
X133724500Y-97526601D01*
X133724500Y-97313399D01*
X150515500Y-97313399D01*
X150515500Y-97526601D01*
X150546642Y-97723218D01*
X150548854Y-97737183D01*
X150614621Y-97939595D01*
X150614736Y-97939947D01*
X150705464Y-98118011D01*
X150711530Y-98129916D01*
X150836847Y-98302399D01*
X150987600Y-98453152D01*
X150987603Y-98453154D01*
X151160087Y-98578472D01*
X151350053Y-98675264D01*
X151552821Y-98741147D01*
X151763399Y-98774500D01*
X151763402Y-98774500D01*
X151976598Y-98774500D01*
X151976601Y-98774500D01*
X152187179Y-98741147D01*
X152389947Y-98675264D01*
X152579913Y-98578472D01*
X152752397Y-98453154D01*
X152903154Y-98302397D01*
X153028472Y-98129913D01*
X153125264Y-97939947D01*
X153191147Y-97737179D01*
X153224500Y-97526601D01*
X153224500Y-97313399D01*
X153191147Y-97102821D01*
X153125264Y-96900053D01*
X153028472Y-96710087D01*
X152919264Y-96559776D01*
X152903152Y-96537600D01*
X152752399Y-96386847D01*
X152579916Y-96261530D01*
X152579915Y-96261529D01*
X152579913Y-96261528D01*
X152389947Y-96164736D01*
X152389944Y-96164735D01*
X152389942Y-96164734D01*
X152187183Y-96098854D01*
X152187181Y-96098853D01*
X152187179Y-96098853D01*
X151976601Y-96065500D01*
X151763399Y-96065500D01*
X151552821Y-96098853D01*
X151552819Y-96098853D01*
X151552816Y-96098854D01*
X151350057Y-96164734D01*
X151350051Y-96164737D01*
X151160083Y-96261530D01*
X150987600Y-96386847D01*
X150836847Y-96537600D01*
X150711530Y-96710083D01*
X150614737Y-96900051D01*
X150614734Y-96900057D01*
X150548854Y-97102816D01*
X150548853Y-97102819D01*
X150548853Y-97102821D01*
X150515500Y-97313399D01*
X133724500Y-97313399D01*
X133691147Y-97102821D01*
X133625264Y-96900053D01*
X133528472Y-96710087D01*
X133419264Y-96559776D01*
X133403152Y-96537600D01*
X133252399Y-96386847D01*
X133079916Y-96261530D01*
X133079915Y-96261529D01*
X133079913Y-96261528D01*
X132889947Y-96164736D01*
X132889944Y-96164735D01*
X132889942Y-96164734D01*
X132687183Y-96098854D01*
X132687181Y-96098853D01*
X132687179Y-96098853D01*
X132476601Y-96065500D01*
X132263399Y-96065500D01*
X132052821Y-96098853D01*
X132052819Y-96098853D01*
X132052816Y-96098854D01*
X131850057Y-96164734D01*
X131850051Y-96164737D01*
X131660083Y-96261530D01*
X131487600Y-96386847D01*
X131336847Y-96537600D01*
X131211530Y-96710083D01*
X131114737Y-96900051D01*
X131114734Y-96900057D01*
X131048854Y-97102816D01*
X131048853Y-97102819D01*
X131048853Y-97102821D01*
X131015500Y-97313399D01*
X114224500Y-97313399D01*
X114191147Y-97102821D01*
X114125264Y-96900053D01*
X114028472Y-96710087D01*
X113919264Y-96559776D01*
X113903152Y-96537600D01*
X113752399Y-96386847D01*
X113579916Y-96261530D01*
X113579915Y-96261529D01*
X113579913Y-96261528D01*
X113389947Y-96164736D01*
X113389944Y-96164735D01*
X113389942Y-96164734D01*
X113187183Y-96098854D01*
X113187181Y-96098853D01*
X113187179Y-96098853D01*
X112976601Y-96065500D01*
X112763399Y-96065500D01*
X112552821Y-96098853D01*
X112552819Y-96098853D01*
X112552816Y-96098854D01*
X112350057Y-96164734D01*
X112350051Y-96164737D01*
X112160083Y-96261530D01*
X111987600Y-96386847D01*
X111836847Y-96537600D01*
X111711530Y-96710083D01*
X111614737Y-96900051D01*
X111614734Y-96900057D01*
X111548854Y-97102816D01*
X111548853Y-97102819D01*
X111548853Y-97102821D01*
X111515500Y-97313399D01*
X100652900Y-97313399D01*
X100652900Y-89895398D01*
X101670900Y-89895398D01*
X101670900Y-90104602D01*
X101703627Y-90311232D01*
X101703628Y-90311237D01*
X101768273Y-90510193D01*
X101768274Y-90510194D01*
X101768275Y-90510197D01*
X101796922Y-90566419D01*
X101863253Y-90696602D01*
X101986219Y-90865852D01*
X102134147Y-91013780D01*
X102302705Y-91136243D01*
X102303400Y-91136748D01*
X102489803Y-91231725D01*
X102688768Y-91296373D01*
X102895398Y-91329100D01*
X102895401Y-91329100D01*
X103104599Y-91329100D01*
X103104602Y-91329100D01*
X103311232Y-91296373D01*
X103510197Y-91231725D01*
X103696600Y-91136748D01*
X103865851Y-91013781D01*
X104013781Y-90865851D01*
X104049697Y-90816417D01*
X113745499Y-90816417D01*
X113779881Y-90944730D01*
X113846297Y-91059766D01*
X113846305Y-91059776D01*
X113940223Y-91153694D01*
X113940228Y-91153698D01*
X113940230Y-91153700D01*
X113940231Y-91153701D01*
X113940233Y-91153702D01*
X113948362Y-91158395D01*
X114055270Y-91220119D01*
X114183581Y-91254500D01*
X114183583Y-91254500D01*
X114316417Y-91254500D01*
X114316419Y-91254500D01*
X114444730Y-91220119D01*
X114559770Y-91153700D01*
X114653700Y-91059770D01*
X114720119Y-90944730D01*
X114754500Y-90816419D01*
X114754500Y-90683581D01*
X114723106Y-90566417D01*
X130495499Y-90566417D01*
X130529881Y-90694730D01*
X130596297Y-90809766D01*
X130596305Y-90809776D01*
X130690223Y-90903694D01*
X130690228Y-90903698D01*
X130690230Y-90903700D01*
X130805270Y-90970119D01*
X130933581Y-91004500D01*
X130933583Y-91004500D01*
X131066417Y-91004500D01*
X131066419Y-91004500D01*
X131194730Y-90970119D01*
X131309770Y-90903700D01*
X131403700Y-90809770D01*
X131470119Y-90694730D01*
X131504500Y-90566419D01*
X131504500Y-90566417D01*
X159495499Y-90566417D01*
X159529881Y-90694730D01*
X159596297Y-90809766D01*
X159596305Y-90809776D01*
X159690223Y-90903694D01*
X159690228Y-90903698D01*
X159690230Y-90903700D01*
X159805270Y-90970119D01*
X159933581Y-91004500D01*
X159933583Y-91004500D01*
X160066417Y-91004500D01*
X160066419Y-91004500D01*
X160194730Y-90970119D01*
X160309770Y-90903700D01*
X160403700Y-90809770D01*
X160470119Y-90694730D01*
X160504500Y-90566419D01*
X160504500Y-90433581D01*
X160470119Y-90305270D01*
X160403700Y-90190230D01*
X160403698Y-90190228D01*
X160403694Y-90190223D01*
X160309776Y-90096305D01*
X160309766Y-90096297D01*
X160194730Y-90029881D01*
X160066419Y-89995500D01*
X159933581Y-89995500D01*
X159848040Y-90018420D01*
X159805269Y-90029881D01*
X159690233Y-90096297D01*
X159690223Y-90096305D01*
X159596305Y-90190223D01*
X159596297Y-90190233D01*
X159529881Y-90305269D01*
X159495500Y-90433582D01*
X159495500Y-90566417D01*
X159495499Y-90566417D01*
X131504500Y-90566417D01*
X131504500Y-90433581D01*
X131470119Y-90305270D01*
X131403700Y-90190230D01*
X131403698Y-90190228D01*
X131403694Y-90190223D01*
X131309776Y-90096305D01*
X131309766Y-90096297D01*
X131258012Y-90066417D01*
X146995499Y-90066417D01*
X147029881Y-90194730D01*
X147096297Y-90309766D01*
X147096305Y-90309776D01*
X147190223Y-90403694D01*
X147190228Y-90403698D01*
X147190230Y-90403700D01*
X147305270Y-90470119D01*
X147433581Y-90504500D01*
X147433583Y-90504500D01*
X147566417Y-90504500D01*
X147566419Y-90504500D01*
X147694730Y-90470119D01*
X147809770Y-90403700D01*
X147809776Y-90403694D01*
X147877244Y-90336227D01*
X147903694Y-90309776D01*
X147903700Y-90309770D01*
X147970119Y-90194730D01*
X148004500Y-90066419D01*
X148004500Y-89933581D01*
X147970119Y-89805270D01*
X147903700Y-89690230D01*
X147903698Y-89690228D01*
X147903694Y-89690223D01*
X147809776Y-89596305D01*
X147809766Y-89596297D01*
X147694730Y-89529881D01*
X147566419Y-89495500D01*
X147433581Y-89495500D01*
X147348040Y-89518420D01*
X147305269Y-89529881D01*
X147190233Y-89596297D01*
X147190223Y-89596305D01*
X147096305Y-89690223D01*
X147096297Y-89690233D01*
X147029881Y-89805269D01*
X146995500Y-89933582D01*
X146995500Y-90066417D01*
X146995499Y-90066417D01*
X131258012Y-90066417D01*
X131202630Y-90034442D01*
X131194730Y-90029881D01*
X131066419Y-89995500D01*
X130933581Y-89995500D01*
X130848040Y-90018420D01*
X130805269Y-90029881D01*
X130690233Y-90096297D01*
X130690223Y-90096305D01*
X130596305Y-90190223D01*
X130596297Y-90190233D01*
X130529881Y-90305269D01*
X130495500Y-90433582D01*
X130495500Y-90566417D01*
X130495499Y-90566417D01*
X114723106Y-90566417D01*
X114720119Y-90555270D01*
X114653700Y-90440230D01*
X114653698Y-90440228D01*
X114653694Y-90440223D01*
X114559776Y-90346305D01*
X114559766Y-90346297D01*
X114444730Y-90279881D01*
X114316419Y-90245500D01*
X114183581Y-90245500D01*
X114098040Y-90268420D01*
X114055269Y-90279881D01*
X113940233Y-90346297D01*
X113940223Y-90346305D01*
X113846305Y-90440223D01*
X113846297Y-90440233D01*
X113779881Y-90555269D01*
X113745500Y-90683582D01*
X113745500Y-90816417D01*
X113745499Y-90816417D01*
X104049697Y-90816417D01*
X104136748Y-90696600D01*
X104231725Y-90510197D01*
X104296373Y-90311232D01*
X104329100Y-90104602D01*
X104329100Y-89895398D01*
X104296373Y-89688768D01*
X104231725Y-89489803D01*
X104136748Y-89303400D01*
X104136746Y-89303397D01*
X104013780Y-89134147D01*
X103865852Y-88986219D01*
X103696602Y-88863253D01*
X103510193Y-88768273D01*
X103311237Y-88703628D01*
X103311233Y-88703627D01*
X103311232Y-88703627D01*
X103104602Y-88670900D01*
X102895398Y-88670900D01*
X102688768Y-88703627D01*
X102688762Y-88703628D01*
X102489806Y-88768273D01*
X102303397Y-88863253D01*
X102134147Y-88986219D01*
X101986219Y-89134147D01*
X101863253Y-89303397D01*
X101768273Y-89489806D01*
X101703628Y-89688762D01*
X101703627Y-89688767D01*
X101703627Y-89688768D01*
X101670900Y-89895398D01*
X100652900Y-89895398D01*
X100652900Y-87778900D01*
X100672902Y-87710779D01*
X100726558Y-87664286D01*
X100778900Y-87652900D01*
X180000075Y-87652900D01*
X180068196Y-87672902D01*
G37*
%TD.AperFunction*%
%TD*%
M02*
