%TF.GenerationSoftware,KiCad,Pcbnew,9.0.2*%
%TF.CreationDate,2025-05-27T14:22:58+08:00*%
%TF.ProjectId,tsubaki_lite,74737562-616b-4695-9f6c-6974652e6b69,3*%
%TF.SameCoordinates,Original*%
%TF.FileFunction,Soldermask,Top*%
%TF.FilePolarity,Negative*%
%FSLAX46Y46*%
G04 Gerber Fmt 4.6, Leading zero omitted, Abs format (unit mm)*
G04 Created by KiCad (PCBNEW 9.0.2) date 2025-05-27 14:22:58*
%MOMM*%
%LPD*%
G01*
G04 APERTURE LIST*
G04 Aperture macros list*
%AMRoundRect*
0 Rectangle with rounded corners*
0 $1 Rounding radius*
0 $2 $3 $4 $5 $6 $7 $8 $9 X,Y pos of 4 corners*
0 Add a 4 corners polygon primitive as box body*
4,1,4,$2,$3,$4,$5,$6,$7,$8,$9,$2,$3,0*
0 Add four circle primitives for the rounded corners*
1,1,$1+$1,$2,$3*
1,1,$1+$1,$4,$5*
1,1,$1+$1,$6,$7*
1,1,$1+$1,$8,$9*
0 Add four rect primitives between the rounded corners*
20,1,$1+$1,$2,$3,$4,$5,0*
20,1,$1+$1,$4,$5,$6,$7,0*
20,1,$1+$1,$6,$7,$8,$9,0*
20,1,$1+$1,$8,$9,$2,$3,0*%
G04 Aperture macros list end*
%ADD10RoundRect,0.188100X0.625600X0.188100X-0.625600X0.188100X-0.625600X-0.188100X0.625600X-0.188100X0*%
%ADD11RoundRect,0.287170X-0.301530X-0.489030X0.301530X-0.489030X0.301530X0.489030X-0.301530X0.489030X0*%
%ADD12RoundRect,0.288100X0.288100X0.513100X-0.288100X0.513100X-0.288100X-0.513100X0.288100X-0.513100X0*%
%ADD13C,2.352400*%
%ADD14RoundRect,0.281850X-0.281850X-0.494350X0.281850X-0.494350X0.281850X0.494350X-0.281850X0.494350X0*%
%ADD15RoundRect,0.287170X-0.489030X0.301530X-0.489030X-0.301530X0.489030X-0.301530X0.489030X0.301530X0*%
%ADD16C,1.852400*%
%ADD17C,4.152400*%
%ADD18RoundRect,0.280480X-0.420720X-0.670720X0.420720X-0.670720X0.420720X0.670720X-0.420720X0.670720X0*%
%ADD19RoundRect,0.173100X0.173100X0.223100X-0.173100X0.223100X-0.173100X-0.223100X0.173100X-0.223100X0*%
%ADD20RoundRect,0.076200X-0.450000X-0.850000X0.450000X-0.850000X0.450000X0.850000X-0.450000X0.850000X0*%
%ADD21RoundRect,0.076200X-0.850000X0.850000X-0.850000X-0.850000X0.850000X-0.850000X0.850000X0.850000X0*%
%ADD22RoundRect,0.263100X-0.263100X-0.413100X0.263100X-0.413100X0.263100X0.413100X-0.263100X0.413100X0*%
%ADD23RoundRect,0.287170X0.301530X0.489030X-0.301530X0.489030X-0.301530X-0.489030X0.301530X-0.489030X0*%
%ADD24RoundRect,0.281850X0.281850X0.494350X-0.281850X0.494350X-0.281850X-0.494350X0.281850X-0.494350X0*%
%ADD25RoundRect,0.288100X-0.288100X-0.513100X0.288100X-0.513100X0.288100X0.513100X-0.288100X0.513100X0*%
%ADD26C,1.952400*%
%ADD27O,3.452400X3.652400*%
%ADD28RoundRect,0.173100X-0.223100X0.173100X-0.223100X-0.173100X0.223100X-0.173100X0.223100X0.173100X0*%
%ADD29RoundRect,0.287170X0.489030X-0.301530X0.489030X0.301530X-0.489030X0.301530X-0.489030X-0.301530X0*%
%ADD30RoundRect,0.138100X-0.675600X-0.138100X0.675600X-0.138100X0.675600X0.138100X-0.675600X0.138100X0*%
%ADD31C,0.802400*%
%ADD32RoundRect,0.076200X0.300000X0.725000X-0.300000X0.725000X-0.300000X-0.725000X0.300000X-0.725000X0*%
%ADD33RoundRect,0.076200X0.150000X0.725000X-0.150000X0.725000X-0.150000X-0.725000X0.150000X-0.725000X0*%
%ADD34O,1.152400X2.252400*%
%ADD35O,1.152400X1.752400*%
%ADD36RoundRect,0.076200X-0.850000X-0.850000X0.850000X-0.850000X0.850000X0.850000X-0.850000X0.850000X0*%
G04 APERTURE END LIST*
D10*
%TO.C,Q2*%
X134937500Y-113950000D03*
X134937500Y-112050000D03*
X133062500Y-113000000D03*
%TD*%
D11*
%TO.C,R3*%
X157387500Y-101750000D03*
X159212500Y-101750000D03*
%TD*%
D12*
%TO.C,C1*%
X163950000Y-92250000D03*
X162050000Y-92250000D03*
%TD*%
D13*
%TO.C,H1*%
X99000000Y-93000000D03*
%TD*%
D14*
%TO.C,L_1_2*%
X123262500Y-106900000D03*
X125137500Y-106900000D03*
%TD*%
D15*
%TO.C,R10*%
X148300000Y-98200000D03*
X148300000Y-100025000D03*
%TD*%
%TO.C,R15*%
X162100000Y-107337500D03*
X162100000Y-109162500D03*
%TD*%
D16*
%TO.C,SW_1_3*%
X135120000Y-102400000D03*
D17*
X140200000Y-102400000D03*
D16*
X145280000Y-102400000D03*
D13*
X142740000Y-97320000D03*
X136390000Y-99860000D03*
%TD*%
D18*
%TO.C,D1*%
X157100000Y-113000000D03*
X159900000Y-113000000D03*
%TD*%
D15*
%TO.C,R8*%
X148300000Y-101787500D03*
X148300000Y-103612500D03*
%TD*%
D13*
%TO.C,H3*%
X183000000Y-93000000D03*
%TD*%
D15*
%TO.C,R7*%
X148300000Y-105287500D03*
X148300000Y-107112500D03*
%TD*%
D19*
%TO.C,R_1_1*%
X116710000Y-106900000D03*
X115690000Y-106900000D03*
%TD*%
D20*
%TO.C,SW2*%
X176050000Y-92250000D03*
X179450000Y-92250000D03*
%TD*%
D19*
%TO.C,R13*%
X148020000Y-111000000D03*
X147000000Y-111000000D03*
%TD*%
D21*
%TO.C,J2*%
X169675000Y-112900000D03*
D16*
X167135000Y-112900000D03*
%TD*%
D22*
%TO.C,D_1_1*%
X111250000Y-94000000D03*
X114550000Y-94000000D03*
%TD*%
D19*
%TO.C,R6*%
X138510000Y-110000000D03*
X137490000Y-110000000D03*
%TD*%
D23*
%TO.C,R4*%
X163912500Y-113000000D03*
X162087500Y-113000000D03*
%TD*%
%TO.C,R12*%
X163912500Y-111000000D03*
X162087500Y-111000000D03*
%TD*%
D15*
%TO.C,R5*%
X149750000Y-108925000D03*
X149750000Y-110750000D03*
%TD*%
D13*
%TO.C,H4*%
X183000000Y-112000000D03*
%TD*%
D22*
%TO.C,D_1_2*%
X127150000Y-93900000D03*
X130450000Y-93900000D03*
%TD*%
D14*
%TO.C,L_1_3*%
X139325000Y-106900000D03*
X141200000Y-106900000D03*
%TD*%
D24*
%TO.C,L_1_1*%
X109137500Y-106900000D03*
X107262500Y-106900000D03*
%TD*%
D13*
%TO.C,H2*%
X99000000Y-112000000D03*
%TD*%
D19*
%TO.C,R11*%
X144210000Y-110000000D03*
X143190000Y-110000000D03*
%TD*%
D10*
%TO.C,Q3*%
X139937500Y-113950000D03*
X139937500Y-112050000D03*
X138062500Y-113000000D03*
%TD*%
D20*
%TO.C,SW1*%
X166000000Y-92250000D03*
X169400000Y-92250000D03*
%TD*%
D25*
%TO.C,C2*%
X162050000Y-97250000D03*
X163950000Y-97250000D03*
%TD*%
D16*
%TO.C,SW_1_2*%
X119120000Y-102400000D03*
D17*
X124200000Y-102400000D03*
D16*
X129280000Y-102400000D03*
D13*
X126740000Y-97320000D03*
X120390000Y-99860000D03*
%TD*%
D15*
%TO.C,R14*%
X160000000Y-107337500D03*
X160000000Y-109162500D03*
%TD*%
D10*
%TO.C,Q1*%
X129687500Y-113950000D03*
X129687500Y-112050000D03*
X127812500Y-113000000D03*
%TD*%
D26*
%TO.C,SW3*%
X170209995Y-109250064D03*
X175290005Y-109250064D03*
X172750000Y-109250064D03*
D27*
X178349949Y-101749936D03*
X167150051Y-101749936D03*
%TD*%
D18*
%TO.C,D2*%
X148100000Y-113000000D03*
X150900000Y-113000000D03*
%TD*%
D28*
%TO.C,R_1_3*%
X147900000Y-108790000D03*
X147900000Y-109810000D03*
%TD*%
D10*
%TO.C,Q4*%
X145837500Y-113950000D03*
X145837500Y-112050000D03*
X143962500Y-113000000D03*
%TD*%
D11*
%TO.C,R2*%
X150587500Y-101750000D03*
X152412500Y-101750000D03*
%TD*%
D19*
%TO.C,R9*%
X141410000Y-110000000D03*
X140390000Y-110000000D03*
%TD*%
D29*
%TO.C,R1*%
X164000000Y-100912500D03*
X164000000Y-99087500D03*
%TD*%
D22*
%TO.C,D_1_3*%
X143250000Y-93900000D03*
X146550000Y-93900000D03*
%TD*%
D16*
%TO.C,SW_1_1*%
X103120000Y-102400000D03*
D17*
X108200000Y-102400000D03*
D16*
X113280000Y-102400000D03*
D13*
X110740000Y-97320000D03*
X104390000Y-99860000D03*
%TD*%
D25*
%TO.C,C3*%
X162050000Y-94750000D03*
X163950000Y-94750000D03*
%TD*%
D30*
%TO.C,U1*%
X151887500Y-104825000D03*
X151887500Y-105475000D03*
X151887500Y-106125000D03*
X151887500Y-106775000D03*
X151887500Y-107425000D03*
X151887500Y-108075000D03*
X151887500Y-108725000D03*
X151887500Y-109375000D03*
X151887500Y-110025000D03*
X151887500Y-110675000D03*
X157612500Y-110675000D03*
X157612500Y-110025000D03*
X157612500Y-109375000D03*
X157612500Y-108725000D03*
X157612500Y-108075000D03*
X157612500Y-107425000D03*
X157612500Y-106775000D03*
X157612500Y-106125000D03*
X157612500Y-105475000D03*
X157612500Y-104825000D03*
%TD*%
D15*
%TO.C,R16*%
X162000000Y-99087500D03*
X162000000Y-100912500D03*
%TD*%
D31*
%TO.C,J1*%
X157890000Y-96850000D03*
X152110000Y-96850000D03*
D32*
X158250000Y-98295000D03*
X157450000Y-98295000D03*
D33*
X156250000Y-98295000D03*
X155250000Y-98295000D03*
X154750000Y-98295000D03*
X153750000Y-98295000D03*
D32*
X152550000Y-98295000D03*
X151750000Y-98295000D03*
X151750000Y-98295000D03*
X152550000Y-98295000D03*
D33*
X153250000Y-98295000D03*
X154250000Y-98295000D03*
X155750000Y-98295000D03*
X156750000Y-98295000D03*
D32*
X157450000Y-98295000D03*
X158250000Y-98295000D03*
D34*
X159320000Y-97380000D03*
D35*
X159320000Y-93200000D03*
D34*
X150680000Y-97380000D03*
D35*
X150680000Y-93200000D03*
%TD*%
D19*
%TO.C,R_1_2*%
X132700000Y-106900000D03*
X131680000Y-106900000D03*
%TD*%
D36*
%TO.C,J3*%
X183000000Y-98890000D03*
D16*
X183000000Y-101430000D03*
X183000000Y-103970000D03*
X183000000Y-106510000D03*
%TD*%
M02*
